<?xml version="1.0" encoding="UTF-8"?>
<svg width="99px" height="99px" viewBox="0 0 99 99" version="1.1" xmlns="http://www.w3.org/2000/svg" xmlns:xlink="http://www.w3.org/1999/xlink">
    <!-- Generator: Sketch 58 (84663) - https://sketch.com -->
    <title>Group 3</title>
    <desc>Created with Sketch.</desc>
    <g id="4.0-—-Investors" stroke="none" stroke-width="1" fill="none" fill-rule="evenodd">
        <g id="4.1-—-Investment-case" transform="translate(-290.000000, -1779.000000)">
            <g id="Group-3" transform="translate(290.000000, 1779.000000)">
                <circle id="Oval-Copy-2" fill="#01946A" cx="49.5000011" cy="49.5000011" r="49.5000011"></circle>
                <g id="Group-13" transform="translate(23.100001, 23.100001)" stroke="#FFFFFF" stroke-linecap="round" stroke-linejoin="round" stroke-width="1.88650004">
                    <path d="M53.5444812,27.2441406 C53.5444812,41.7696409 41.7689809,53.5451412 27.2445806,53.5451412 C12.7190803,53.5451412 0.94358002,41.7696409 0.94358002,27.2441406 C0.94358002,12.7186403 12.7190803,0.94314002 27.2445806,0.94314002 C41.7689809,0.94314002 53.5444812,12.7186403 53.5444812,27.2441406 Z" id="Stroke-1"></path>
                    <path d="M30.3714407,46.301311 C29.1768406,46.301311 28.0537406,45.583011 27.5873406,44.417011 L26.6248406,42.0091109 C26.5742406,41.8848109 26.5335406,41.7561109 26.4994406,41.6241109 L24.8340405,34.9581108 C24.8109405,34.8701108 24.7801405,34.7865108 24.7394405,34.7051108 L23.8440405,32.9176107 C23.5833405,32.3940107 23.0069405,32.1322107 22.4371405,32.2697107 L21.5879405,32.4820107 C20.6837404,32.7075107 19.7135404,32.4963107 18.9875404,31.9155107 L16.2067404,29.6913106 C15.4928403,29.1182106 15.0836403,28.2657106 15.0836403,27.3516106 L15.0836403,26.4100106 C15.0836403,25.7819106 15.2761403,25.1813105 15.6402403,24.6698105 L19.0073404,19.9574104 C19.5694404,19.1709104 20.4813404,18.7023104 21.4460405,18.7023104 L23.2852405,18.7023104 C23.8297405,18.7023104 24.3632405,18.8508104 24.8274405,19.1302104 L28.0141406,21.0431105 C28.2792406,21.2026105 28.5916406,21.2565105 28.8941406,21.1960105 L30.8004407,20.8132105 C32.1820407,20.5371104 33.5867407,21.2763105 34.1422407,22.5721105 L35.8318408,26.5156106 C35.9341408,26.7521106 36.1112408,26.9567106 36.3312408,27.0876106 L38.0626408,28.1271106 C38.8040408,28.5715106 39.3166409,29.3151106 39.4695409,30.1654107 C39.6224409,31.0157107 39.4002409,31.8913107 38.8612408,32.5667107 L37.3223408,34.4895107 C37.1474408,34.7084108 37.0506408,34.9834108 37.0506408,35.2628108 L37.0506408,38.0370108 C37.0506408,38.8268108 36.7316408,39.5990109 36.1728408,40.1556109 L35.2202408,41.1082109 C35.1487408,41.1808109 35.0860408,41.2600109 35.0343408,41.3469109 L32.9344407,44.846011 C32.5670407,45.457611 31.9928407,45.919611 31.3141407,46.146211 C31.0039407,46.252911 30.6849407,46.301311 30.3714407,46.301311 Z" id="Stroke-3"></path>
                    <path d="M43.1492609,42.4276609 C42.9171609,42.4276609 42.6938609,42.3363609 42.5277609,42.1702609 L40.7699609,40.4124609 C40.5620609,40.2045609 40.4718609,39.9064609 40.5301609,39.6182609 L41.4090609,35.2248608 C41.4431609,35.0554608 41.5256609,34.8992608 41.6488609,34.7760608 L44.284461,32.1393607 C44.514361,31.9094607 44.852061,31.8247607 45.161161,31.9193607 C45.471361,32.0128607 45.704561,32.2702607 45.768361,32.5881607 L46.647261,36.9826608 C46.690161,37.1971608 46.651661,37.4193608 46.538361,37.6074608 L43.902761,42.0008609 C43.7641609,42.2329609 43.5243609,42.3880609 43.2559609,42.4210609 C43.2196609,42.4254609 43.1833609,42.4276609 43.1492609,42.4276609 Z" id="Stroke-5"></path>
                    <path d="M52.8333311,25.1574405 C52.1227311,25.2949405 51.3824311,25.4159406 50.6333311,25.5149406 C50.4991311,25.5314406 50.3649311,25.5402406 50.2329311,25.5402406 C48.8524311,25.5402406 47.616031,24.5931405 47.266231,23.2071405 C47.060531,22.3876405 46.802031,21.6858405 46.499531,21.1182405 C46.308131,20.7574404 45.963831,20.5275404 45.553531,20.4857404 C45.104731,20.4406404 44.666931,20.6232404 44.376531,20.9752405 C42.6066309,23.1136405 41.1513309,21.9179405 39.5178309,21.7331405 C37.5367308,21.5065405 36.5753308,19.6277404 36.5346308,19.5474404 C32.4613307,11.4019402 24.9186305,14.2905403 24.8471305,14.3026403 C24.8141305,14.3070403 24.7822305,14.3081403 24.7503305,14.3081403 C24.2608305,14.3081403 23.7185305,14.4269403 23.1399305,14.6579403 C21.1973305,15.4345403 19.0512304,14.8515403 17.7994304,13.2081403 C16.5718304,11.5966403 16.5795304,9.50114021 17.8181304,7.87204017 L17.9204304,7.74004017 C18.5364304,6.94694015 19.4813304,6.44204014 20.5065304,6.35844014 C23.8197305,6.09004013 26.2826306,4.4961401 27.8292306,1.62074004" id="Stroke-7"></path>
                    <path d="M7.36494016,10.7844002 L11.0378402,12.6214003 C12.4172403,13.3111003 13.3918403,14.6311003 13.6448403,16.1524004 L13.7130403,16.5539004 C14.0639403,18.6615004 13.0167403,20.7196004 11.1049402,21.6744005 L9.3867402,22.5346005 C8.90824019,22.7733005 8.49904018,23.1352005 8.20204018,23.5796005 C7.30224016,24.9271005 5.79964013,25.7323006 4.17824009,25.7323006 L2.03654004,25.7323006 C1.78904004,25.7323006 1.55144003,25.6267006 1.38424003,25.4419006" id="Stroke-9"></path>
                    <path d="M1.66617004,29.0197606 L2.58687006,28.6248606 C4.4282701,27.8361606 6.53257014,28.2420606 7.94937017,29.6588606 L9.57737021,31.2868607 C10.0129702,31.7235607 10.5629702,32.0172607 11.1679702,32.1382607 C13.4372703,32.5925607 15.0828703,34.6011607 15.0828703,36.9144608 L15.0828703,37.1575608 C15.0828703,38.4830608 14.6956703,39.7645609 13.9608703,40.8645609 C13.5252703,41.5157609 13.2502703,42.2736609 13.1633703,43.0513609 L12.6441703,47.720861 C12.6100703,48.037661 12.4076703,48.310461 12.1139703,48.433661 C12.0039703,48.4798611 11.8884703,48.5029611 11.7729703,48.5029611" id="Stroke-11"></path>
                </g>
            </g>
        </g>
    </g>
</svg>