<svg xmlns="http://www.w3.org/2000/svg" xmlns:xlink="http://www.w3.org/1999/xlink" width="165" height="165.006" viewBox="0 0 165 165.006">
  <defs>
    <linearGradient id="yt-linear-gradient" x1="0.854" y1="0.146" x2="0.146" y2="0.854" gradientUnits="objectBoundingBox">
      <stop offset="0" stop-color="red"/>
      <stop offset="1" stop-color="#850000"/>
    </linearGradient>
  </defs>
  <g id="Group_8514" data-name="Group 8514" transform="translate(-541.133 -3393.292)">
    <path id="Path_65150" data-name="Path 65150" d="M230.377,320.629a82.5,82.5,0,1,1-82.5-82.5A82.5,82.5,0,0,1,230.377,320.629Z" transform="translate(475.756 3155.163)" fill="url(#yt-linear-gradient)"/>
    <path id="Path_65151" class="fill-white" data-name="Path 65151" d="M162.107,266.924A19.812,19.812,0,0,0,142.3,247.113H91.637a19.812,19.812,0,0,0-19.811,19.811V290.5a19.816,19.816,0,0,0,19.811,19.817H142.3A19.816,19.816,0,0,0,162.107,290.5Zm-29.793,13.553L109.6,291.718c-.892.48-3.916-.164-3.916-1.174V267.471c0-1.027,3.053-1.67,3.939-1.157l21.746,11.827C132.281,278.661,133.234,279.981,132.314,280.477Z" transform="translate(505.695 3196.872)" fill="#fff"/>
  </g>
</svg>
