<?xml version="1.0" encoding="utf-8"?>
<!-- Generator: Adobe Illustrator 23.1.1, SVG Export Plug-In . SVG Version: 6.00 Build 0)  -->
<svg version="1.0" xmlns="http://www.w3.org/2000/svg" xmlns:xlink="http://www.w3.org/1999/xlink" x="0px" y="0px"
	 viewBox="0 0 1440 810" enable-background="new 0 0 1440 810" xml:space="preserve">
<g id="Sea">
</g>
<g id="Land">
</g>
<g id="Egypt">
</g>
<g id="Lakes">
</g>
<g id="Layer_9">
	<g>
		<defs>
			<rect id="SVGID_1_" width="1440" height="810"/>
		</defs>
		<clipPath id="SVGID_2_">
			<use xlink:href="#SVGID_1_"  overflow="visible"/>
		</clipPath>
		<rect x="-1475.3" y="-764.14" clip-path="url(#SVGID_2_)" fill="#EDFCF6" width="4314.7" height="3236.03"/>
		<path clip-path="url(#SVGID_2_)" fill="#01946A" d="M1193,325l108.92,128.22l1.09-1.25l1.35-0.98l1.73-0.91l1.08-0.07l1.33,0.12
			l1.24-0.05l0.49-0.66l0.27-1.12l0.66-1.24l1.17-1.9l2.65-3.28l0.97-1.51l0.63-2.32l0.7-0.12l0.23,0.29v0.42l0.11,0.6h2.08
			l3.18,3.17l0.12,2.8l-3.3,7.11l-1.07,4.58l-1.02,15.9l-2,1.4l-0.6,2.53l0.39,2.97l1.17,2.57l-0.74-0.11l-0.22,0.29v0.47
			l-0.15,0.53l-1.83-0.97l-0.55,2.52l0.37,3.9l1.03,2.9l-3.49,1.95l-1.47,1.51l-0.27,2.49l0.27,1.07l-1.73,3.86l-0.7,2.26
			l-3.02,15.58l-1.44,3.76l-1.78,3.23v2.38l1.66,4.36l-1.12,7.33l-2.41,7.16l-2.26,3.83v1.08l2.5,0.81l0.32,2.31l-1.7,5.27v1.08
			l0.85,1.95l-0.36,2.1l-2.61,4.47h0.99v1.07l-2.38,4.59l-1.99,5.53l-1.09,6.16l2.15,28.59l-1.36,3.79l-1.56,0.95l-1.49,2.43
			l-1.09,2.91l-1.12,5.18l-2.98,4.45l-1.6,8.14l-2.38,6.27l-3.08,5.64l-3.04,2.97l0.89,0.97l0.39-0.37l0.87-0.6l-0.06,1.83
			l0.06,0.56l-0.54-0.4l-1.04-0.48l-0.56-0.32l-1.53,7.91l0.53,1.52v1.18l-1.66,0.42l-1.18,0.97l-0.26,1.15l1.12,1.07v1.19h0.85
			l-0.48,1.83l-0.9,0.44l-1.25-0.39l-1.57-0.8l0.28-0.17l0.43,0.05l0.32-0.17l0.06-0.8l-1.19,0.26l-0.84,0.48l-0.55,0.7l-0.42,0.92
			l0.9,1.18l-0.88,0.49l-1.28,1.24l-0.97,0.49l-0.09,0.86l-1.3,0.65l-1.45,1.18l-2.26,3.29l0.96,1.19l-0.7,2.04l3.76-1.62l1.09,1.3
			l0.06,4.14l0.33,2.21l0.66,2.46l1.18,1.19l-0.5,0.39l-0.27-0.05l-0.15,0.15l-0.26,0.81l3.38-0.54l0.97-1.45l0.09-2.21l0.76-2.86
			l1.24,1.08l0.32-0.37l0.22-0.37l0.42-0.28l1.02-0.06v-1.29l-3.22-2.42v-1.07l0.97-0.83l2.05-0.84l1.21-0.71l0.48-1.33l0.08-1.75
			l0.54-0.74l1.94,1.45l0.61-0.85l0.58-0.6l0.6-0.43l0.42-0.42l0.92,2.1l0.54,0.8l0.96,1.4l0.4,0.5l1.32,1.07l0.92-0.98l0.74-0.05
			l0.71,0.76l0.77,1.46h1.21v-1.19h0.88l0.06,0.53l-0.1,1.13l0.05,0.6l0.82-0.37l0.2-0.23l0.23,0.06l0.85,0.54l0.32-2.05l1.08-1.14
			l1.72-0.32l2.15,0.06l-0.09,0.95v0.77l0.09,0.66l-1.44,0.59l-1.25,0.91l-0.84,0.97l-0.6,1.02l0.54,0.27l0.47,0.06l0.49,0.23
			l0.48,0.74l1.47-3.07l1.13-1.18l1.66-0.53v-1.19h-1.12v-1.19l1.71-0.59l1.57-0.23l1.44,0.17l1.51,0.66l-1.45,0.48l-1.39,0.76
			l-0.76,0.96l0.6,1.25v1.23h-1.19v1.19l0.67,0.37l0.11,0.07l0.42,0.85l2.04-2.42l3.17-0.06l3.09,0.6l1.99-0.6h1.02v1.19h1.08
			l0.54-1.22l0.92-0.94l1.23-0.71l4.65-1.39l1.54-1.01l1.85-0.82l1.72,0.59l1.71,1.19l1.58,0.83l-0.7-0.71l-0.6-0.81l-0.43-0.97
			h1.62l1.81,0.06l1.47-1.13l7.16,5.17l1.8,1.84l1.32,0.15l2.75-0.12l1.18,0.37l1.06,0.92l0.92,1.19l0.54,1.03h0.97v-1.14h1.09
			l1.16,0.54l4.24,0.87l0.89,0.4l1.45,2.66l0.16,0.95l-1.62-0.75l-2.59,1.64l-3.44,1.5l-1.99,1.73l1.73,2.31h1.01v-1.19l7.37,5.88
			l2.39,1.08l1.5,1.66l2.38,4.31l7.94,8.84l1.44,2.43l0.71,4.85l1.49,3.22l0.71,2.32l0.85,1.23l1.19,0.81l3.06,1.19l1.46,0.97
			l3.13,4.41l3.94,10.46l2.8,4.62l5.01,5.29l1.28,2.26l0.88,3.23l0.08,6.15l0.61,3.48l1.66,4.42l5.78,10.73l4.62,4.56l4.1,6.69
			l3.59,4.53l1.9,1.62l7.22,4.96l12.86,15.24l3.63,5.53l0.75,2.04l-0.33,1.47l-1.5,2.46l-0.4,1.35l0.22,1.73l0.49,1.34l4.35,8.41
			l12.24,15.89l9.91,8.84l3.58,5.81l2.13,1.9l2.75-0.74l3.01,10.54l4.58,8.1l2.42,7.36l3.99,4.62l8.9,7.93l7.28,9.26l12.06,21.62
			l11.29,27.72l6.58,8.91l3.57,5.91l9.64,23.02l3.65,4.79l5.49,2l5.02,0.4l5.33,1.36l4.92,2.55l3.59,3.86l1.46,3.9l0.58,4.72
			l-0.58,4.64l-2,3.44l-3.17,3.72l-1.45,3.79l0.15,3.93l1.88,4.23l0.92,0.83l1.84,0.48l0.36,0.97l-0.22,3.62l0.22,1.02l0.91,1.62
			l3.51,4.37l1.35,0.92l2.26,0.8l4.69,3.34l1.93,0.54l1.77-1.02l-0.53-1.67l-1.02-1.95l0.32-1.87l3.34,0.28l3.79,4.72l5.97,9.59
			l1.93,1.25l4.48,1.78l1.93,1.45l1.18,1.89l2.21,4.85l1.29,1.98l0.44,0.97l-0.12,2.11l0.22,0.98l0.75,0.85l2.11,1.41l0.8,1.19
			l2.48,7.17l1.15,2.07l6.78,6.91l2.2,3.82l-2.63,1.89l0.71,1.67l2.35,2.58l1.03,1.51l0.37,1.45l0.26,3.79l0.39,1.68l1.84,3.76
			l2.66,3.76l2.98,3.3l3.02,2.35l1.3,1.36l1.39,3.14l1.46,1.33l1.67,1.19l1.71,1.67l2.88,3.45l1.8,3.06l1.31,3.28l0.82,3.6
			l0.26,3.82l-0.97,9.88l0.97,3.97l2.91,7.02l0.43,3.76l-3.35,7.12l-0.2,8.46l-1.9,2.79l-3.89,1.29l-3.39-0.05l-3.45-0.6l-3.86-0.05
			l2.63,5.94l1.99,2.68l2.69,1.63l1.56-0.23l2-2l1.15,0.55l0.48,1.19l0.14,1.67l-0.14,1.66l-0.48,1.17l0.19,4.65l4.44,5.92
			l9.43,9.58l24.12,39.88l-0.87-0.35l-1.4-0.36l-0.85-0.44l-1.36,3.55l0.18,1.47l1.24,0.9l2.05,2.12l4.47,7.9l1.78,2.33l2.31,2.35
			l1.94,1.47l2.15,1.03l9.01,2.79h2.82l-1.01-2.43l0.21-1.62l2.28-1.72l3-1.34l2.26-0.53l2.27,1.08l4.37,4.69l2.32,1.07l2.57,0.42
			l1.36,1.3l1.23,2.01l5.89,7.69l2.11,1.94l5.26,0.2l3.69,1.04l1.99,0.27l0.75-1.08l-0.7-2.3l-0.48-2.37l1.5-1.09l1.09-0.53
			l1.23-1.09l1.31-0.85l1.1,0.22l0.71,1.9l-0.8,1.81l-1.31,1.94l-0.7,2.22l1.25-0.88l1.35-0.28l1.35,0.33l1.29,0.83l-3.61,2.04
			l-1.63,0.32l7.39,5l6.53,7.08l2.42,1.92l2.53,0.86l0.58-0.36l1.85-1.53l0.68-0.26l1.19,0.49l8.04,6.91l2.58,1.18l1.25,1.01
			l4.67,6.27l1.93,1.83l2.38,1.79l2.75,1.39l2.8,0.6l2.96,1.35l2.28,3.06l1.86,3.45l1.78,2.43l1.51,0.8l3.28,0.7l1.57,0.75
			l1.19,1.59l2.48,4.3l1.02,0.91l0.81,0.91l1.46,3.88l0.9,0.87l3.6,0.11l1.66,0.37l1.54,0.74l2.34,3.03l1.15,3.82l0.64,4.11
			l1.06,3.76l5.24,9.05l4.56,15.06l4.05,7.25l5.07,0.4v-1.12l-3.77-1.4l-1.46-1.45l-0.15-2.8h1.22l1.53,0.98l3.06-0.7l0.54,1.51
			l0.48,2.69l1.14,1.9l2.53,2.66l1.58,2.86l1.38,3.91l1.03,4.14l0.22,3.88l0.64-0.77l1.03-0.87l0.36-0.64l1.42,4.25l0.43,5.33
			l0.84,4.52l2.55,1.84l-0.94,1.5l-0.64,2.28l-0.26,2.15l0.32,1.33l1.36,1.75l0.35,1.28l-0.19,2.66l1.11,3.59l2.72,3.24l3.1,1.9
			l2.43-0.28l-0.55,1.5l-0.26,1.3l0.16,1.42l0.64,1.55l2.48-2.34l1.92,2.26l0.6,3.68l-1.28,1.93l-0.22,1.04l2.75,6.3l-0.27,2.33
			l-0.92,2.4l-1.29,2.23l-1.67,1.67l3.14,6.98l2.19,2.66l3.08-0.65l2.6,1.4l3.49,0.85l3.03,1.23l1.33,2.65l0.39,1.76l0.97,1.67
			l1.24,1.19l1.06,0.48l1.62,1.04l2.59,4.94l1.62,1.9l-0.9,1.89l-1.19,1.19l-1.51,0.2l-1.61-1.02l-2.69-0.85l-5.51-9.77l-4.51-0.64
			l2.81,2.48l5.64,11.04l8.77,12.43l1.63,3.35l1.14-1.07l-1.03-1.67l-0.36-1.68l-0.18-1.66l-0.48-1.72l-1.03-1.52l-2.68-2.79
			l-0.6-0.91l1.33-0.83l3.03,2.44l7.34,8.18l0.19,1.3l-4.03,3.72l-0.39,2l1.14,2.53l2.97,4.93l3.99,9.23l4.19,5.77l1.15,2.26
			l0.2,20.2l0.87,7.05l2.15,6.12l0.98-1.67l1.06-4.67l1.02-1.56l1.94-0.44l1.5,1.09l0.83,1.87v2.04l-0.5,0.71l-2.63,2.63l-2.1,4.59
			l-1.33,1.79l-1.42,1.35l-1.09,1.6l-1.54,6.97l-5.02,5.77l-1.14,4.42v6.71l-0.53,2.42l-1.03,1.74l-0.48,1.78l1.03,2.42l2.14-5.61
			h0.91l-0.32,3.34l-1.39,6.47l-0.34,3.11l-0.42,0.83l-2.05,1.52l-0.64,0.59l-0.37,1.77v3.17l-0.76,1.66l0.8,2.65l1.36,23.17
			l0.59,0.05l1.03,2.09l0.22,1.89l-1.84-0.7l-0.81-1.23l-2.31-4.89l-0.54-3.95l-1.67-1.83l-6.19-1.5l1.84,3.22l1.49,4.9l1.94,3.07
			l5.23,4.41l0.3,0.54l0.41,1.24l0.3,0.6l1.84,1.02l0.26,0.06l0.43,1.39l0.22,2.72l0.48,1.48l0.76,1.3l0.6,0.66l0.68,0.5l0.99,0.9
			l0.54,1.35v1.29l0.48,0.8l2.1-0.1l1.18-0.74l0.8-1.42l1.16-3.37l1.23,1.98l-0.11,2.54l-0.75,2.19l-0.82,0.92l-2.87,1.08l-0.3,2.4
			l1.6,4.42l0.32,4.47l-0.2,5.12l0.53,4.74l2.49,3.6l-1.12,1.04l1.39,3.29l1.44,1.84l1.57-0.45l1.95-3.49l2.47,5.45l0.22,2.15
			l-1.69,1.45v0.87l2.34,2.46l1.15,4.75l-0.2,5.17l-1.72,4l-12.07,10.54l4.79,7.61l2.11,1.3l5.71,8.88l1.09,2.31l-0.32,1.03
			l-1.49,2.04l-0.3,0.83l0.3,1.89l1.42,3.23l1.02,4.41l1.69,1.93l6.39,4.52l1.02,0.32l0.54,0.71l0.23,1.95l0.48,1.48l2.05,1.42
			l0.48,1.52l0.11,3.93l0.39,2.69l1.03,2.37l4.24,6.57l0.06,0.66l1.51-0.32l1.57-0.67l1.61-0.26l1.46,0.71l1.23,0.81l1.12,0.37
			l0.87,0.74l0.54,1.95l-0.39,1.07l-1.07-0.31l-1.15-1.04l-0.63-0.85l-0.27,3.7l3.17,4.05l4.37,3.49l3.23,2.04l0.21-2.95l0.88,0.05
			l2.05,2.9l1.08,0.45l1.03-0.33l0.74,0.11l0.27,1.52l0.12,1.01l0.22,0.87l0.68,1.95l-1.78-0.45l-1.56-0.62l-1.18-0.94l-0.64-1.22
			l-0.91,1.45l-0.1,1.22l0.63,0.99l1.42,0.68l-1.03,2.54l1.94,2.43l3.38,1.93l2.98,0.97l-1.09-0.53l-0.98-0.65l-0.68-0.85l-0.4-1.3
			l2.15,0.33l5.23,1.78l-2.42,3.83l0.49,2.67l5.11,5.78l0.7,1.83l0.91,4.73l0.96,1.79l3.57,3.39l1.93,1.12l2.31,0.39l-0.54,1.39
			l-0.9,0.77l-1.18,0.17l-1.51-0.06v1.16l3.01,2.54l9.06,14.65l4.09,4.11l8.25,6.36l2.63,2.57l2.38,4.92l2.74,1.28l3.08,0.88
			l1.99,0.97l2.11,1.84l14.97,9.14l2.65,0.71l0.96-0.5l-0.91-1l-1.5-1.04l-0.66-0.32l-1.29-1.07l-1.24-0.8l-0.91-1.15l-0.15-2.04
			l3.32,1.42l6.55,3.93l3.63,1.33l1.3-1.33l3.07-1.15l3.78-0.64l3.44-0.05l2.47,1.17l4.85,4.41l1.58,1.05l-0.18,0.69l1.35,1.57
			l2.42,2.15l1.39,2.04l0.94,0.81l4.73,0.76l3.99,1.07l2.52,1.78l-0.96,2.39l5.44,6.19l6.95,5.53l3.12,1.84l2.8,0.77l1.28,0.15
			l3.79,0.92l1.23,0.64l3.77,5.33l1.42,0.74l1.32,0.5l1.42,2.22l1.4,0.52l5.71,3.5l4.68,1.99l1.77,1.74l0.94,2.84l-1.9,4.25
			l-0.16,1.19l1.03,1.04l4.68,2.9l6.2,9.1l2.21,1.35l0.09,1.47l1.31,3.23l1.92,3.34l2.32,1.88l-1.78-4.03l1.4-1.58l3.03-0.09
			l7.87,0.89l2.96,2.01l7,10.13l1.08,3.49l0.42,8.1l-0.96,6.6l-3.51-1.98l-1.66-0.21v0.97l3.72,1.98l7.7,8.04l3.66,1.93l13.03,4.64
			l0.34,1.93l0.84,1.33l0.34,1.67l-0.39,1.74l1.08,1.34l-0.74,1.12l-1.42,1.29l-1.02,1.63l-0.11,1.81l0.81,2.6l0.26,1.67l0.34,1.4
			l1.49,2.46l0.39,1.63l-0.21,1.94l-0.27,0.53l4.09,3.28l2.31,1.31l1.72,1.69l0.66,3.43l0.66,1.45l2.81,1.5l0.64,1.39l0.21,1.63
			l0.87,2.9l0.09,1.63l-1.11,3.64l-0.06,1.78l0.6,1.53l2.15,3.44l1.56,4.43l2.69,1.87l6.64,1.95l3,1.22l2.81,1.84l1.35,2.36l-2,3.93
			l-0.69,3.34l-0.33,2.97l-0.61,1.22l-0.68,1.27l-0.81,1.7l-0.91,3.19l-0.23,1.72l0.13,1.68l0.7,0.53l2.95,3.93l0.12,0.91l1.56,5.01
			l6.26,1.56l0.15,0.28l3.35,1.77l0.63,0.18l1.46,2.27l-0.16,0.88l-0.82,0.55l-0.48,1.31l-0.55,3.24l-3.58,10.5l-0.5,3.11l0.15,2.19
			l0.99,1.9l1.93,2.04l1.72,2.49l4.11,9.05l1.22,1.5l1.58,1.29l1.65,1.05l1.72,0.63l0.54-0.33l1.63-1.6l0.92-0.33l0.27,0.33
			l0.69,0.81l0.87,0.75l2.36,1.07l1.14,1.67l0.76,2.01l0.26,1.6l0.88,1.04l5.5,3.83l0.26,1.01l0.11,1.5l0.27,1.34l0.82,0.59
			l1.12,0.17l0.7,0.39l0.42,0.68l0.37,0.91l0.27,8.58l0.27,1.33l0.43,1.31l0.99,6.09l0.67,1.93l1.42,2.11l1.14,3.01l0.48,3.02
			l-0.48,2.21l2.36-0.28l1.95,0.31l0.89,1.08l-0.95,2.17l0.84,1.08l-0.14,1.39l-0.77,1.55l-0.96,1.53l2.09-0.71l1.72,0.05l1.39,0.91
			l0.94,1.9l-0.82,0.54l-0.37,0.42l-0.21,0.54l-0.48,0.69l2.96,0.78l3.11,0.29l-0.7,2.49l0.82,0.97l1.35,0.5l0.68,0.9l0.44,2.1
			l1.06,1.73l2.67,3.28l-1.36,3l2.32,3.29l6.4,5.82l0.27,1.2l-0.04,1.39l0.14,1.19l1.18,0.47l1.95,0.48l0.26,1.25l-0.48,1.78
			l-0.21,2.05l0.97,2.69l6.39,8.18l3.08,2.98l3.25,2.21l2.69,2.69l1.38,4.2l3.5-0.54l5.71,3.93l3.29-1.33l9.05,8.5l1.56,0.88
			l4.72,6.66l1.5,1.47h0.8l1.19-0.34l0.96-0.42l0.27-0.32l6.58,6.83l0.81,1.41l0.63,1.98l1.56,0.38l3.46-0.76l1.12,0.55l0.66,1.22
			l0.85,2.71l3.03,4.24l1.66,3.29l1.03,1.39l0.48-0.85l1.36,0.42l16.42,14.11l0.97,1.84l0.28,1.39l0.74,0.76l1.18,0.33l1.57,0.09
			l1.51,0.59l0.97,1.47l1.12,3.55l0.21,3.4l-0.9,7.93l0.69,2.78l0.97,3.82l2.69,21.55l2.05,6.21l0.64,3.22l0.06,10.79h2.46
			l-1.44-9.91l3.09-1.95l-2.7-4.53l-1.09-2.48l-0.37-2.75l6.86,2.95l1.35,1.25l0.74,2.21l0.81,5.44l0.64,2.32l1.95,4.41l1.51,2.59
			l0.49,0.44h377.65V-725.14H1470.68l-6.55,11.51l-1.71,2.58l-4,5.97l-0.63,3.61l-1.58,2.81l-3.65,0.85l-7.4-0.47l2.07,2.68
			l2.04,4.1l1.67,4.42l0.59,3.58l0.06,4.38l-0.27,1l-5.93,11.34l-3.56,1.18l-0.8,1.37l0.32,2.32l1.35,2.54l0.32,2.1l-0.9,3.34
			l-2.27,2.69l-3.01,1.93l-3.08,1.09v1.16l2.06-1.16h0.96l-0.37,1.05l-0.34,1.85l-0.25,0.94l5.33,2.85l0.92,0.97l-0.13,2.25
			l-0.8,2.54l-0.21,2.1l1.6,0.87l0.88-0.48l2.36-0.89l2.48-0.38l1.12,1.06l0.64,1.83l1.51,1.12l3.14,1.56l7.37,9.95l1.51,1.52
			l-0.32,2.66l1.14,12.09l0.75,3.15l-2.11,6.26l5.81,11.73l1.42,5l-3.23,3.22l-7.22,11.05l-0.91,2.22v8.85l0.54,2.13l0.85,2.48
			l0.47,2.7l-0.74,2.84l-1.24,1.21l-0.85,1.36l-1.24,2.61l0.49,1.35l0.3,0.25l-0.06,0.11l-0.74,0.82v1.25l0.9,1.2l0.28,1.29
			l-0.28,1.27l-0.9,1.19l-0.09,0.89l-0.95,0.49l4.92,13.23l0.87,3.87l0.53,1.86l2.75,4.61l0.44,1.15v7.58l0.33,1.63l1.5,2.7
			l0.97,4.94l2.8,5.74l0.64,3.43l1.63,2.12l0.96,3.26l0.42,3.9l-0.15,8.65l-0.88,2.6l-1.54,1.63l-2.42,1.79l-8.19,7.76l-12.07,3.16
			l-2.87-0.74v1.13l2.75,4.47l-2.63,3.57l-8.44,4.63l-2.06,3.79l-2.31,5.85l-2.49,3.84l-2.63-2.16l-3.6,3.12l-1.84,4.86l-0.7,5.75
			l-0.12,5.78l-0.48,0.94l-2.15,1.55l-0.48,1.38v6.27l0.48,2.56l2.15,4.05l0.48,2.14l-0.64,5.72l-2.53,8.03l0.06,4.46l0.48,0.68
			l0.83,0.54l0.67,0.86l0.13,1.68l-0.67,0.76l-2.5,0.02l-0.98,0.38l-1.12,1.81l-1.84,4.38l-1.35,1.53l0.97,0.1l0.21,0.26l-0.05,0.78
			l-0.82,1.48l-1.38,3.64l-0.98,1.22l-2.22,0.8l-3.64-0.26l-1.45,0.84h-1.04l-0.91-0.84l-1.78-0.75l-1.99-0.32l-1.66,0.54l-0.8,1.45
			l0.47,1.51l0.97,1.77l0.48,2.14l-0.27,8.95l-0.64,3.59l-5.98,14.7l0.09,2.2l-2.57,1.65l-1.79,7.51l-2.35,2.05l0.97,1.26
			l-5.86,15.82l-0.34,2.34l-1.72,5.39l-3.97,4.2l-7.94,6.07l0.6,2.28l-0.96,2.26l-2.76,4.17l-0.6,2.54l-0.05,4.89l-0.39,2.4
			l-2.9,7.92l-2.26,3.4l-3.29,2.43l3.17,4.61l-0.69,5.43l-4.52,9.91l-0.6-1.16l-0.49-0.24l-0.97,0.16l0.97,1.25l-1.03,1.55
			l-0.96,2.05l-1.09,1.82l-3.39,1.39l-1.67,1.6l-1.28,2.05l-0.96,2.03l0.08,0.56v0.45l0.23,0.21l0.7-0.11l-0.16,0.82v0.3l-0.18,0.07
			l-0.68,0.17l1.02,1.24l-0.7,0.58l-0.82,1.13l-0.64,0.63l0.59,3.16l-0.63,3.49l-2.06,5.86l-1.07,11.03l-0.92,2.67l1.9,0.95
			l0.26,2.18l-1.9,7.05l-0.67,1.54l-5.36,5.74l-1.38,0.26l-2.33-0.41l-3.07-2.04l-1.95-0.48l-2.26,1.25l-1.23,3.66l-0.85,16.21
			l-3.49,14.7l0.25,2.64l-0.75,2.41l-0.91,8.06l-0.87,1.75l-4.75,23.42l-5.38,26.91l-12.31,38.42l-2.13,1.13l-0.02,0.86l0.14,1.96
			l-0.12,0.86l-4.73,15.79l-2.84,4.5l-12.77,28.76l-1.08,1.39l-13.53,23.31l-3.78,4.76l-1.23,3.1l-0.37,0.87l-5.38,7.78
			l-11.47,11.83l-3.03,5.44l-7.16,5.3l-3.05,5.53l-6.8,6.1l-2.2,2.8l-3.45,2.22l-0.15,0.13L1193,325z M1438.88-127.25v-0.01
			l0.1-0.03L1438.88-127.25z M1455.85-251.62v0.06l-7.28,4.26l7.44-4.44L1455.85-251.62z M1932.1-120.27l-7.22-26.51l-6.95-25.69
			l-5.27-19.26l-1.45-5.33l-4.9-17.95l-7.06-25.94l11.96,43.89l6.72,24.59l24.43,89.87L1932.1-120.27z M908.96-545.9l3.28,5.76
			l0.7,3.49v4.04l0.28,1.95l2.96,4.82l-1.35,2.37l0.09,2.42l0.98,2.25l1.18,1.84l1.39,1.43l3.23,2.15l1.73,1.46l3.56,9.73l0.09,1.74
			l0.64,0.85l0.91,5.36l0.88,1.02l6.09,4.83l2.59,1.59l2.63,1.07l6.51,0.71l3.14,0.78l2.87,1.19l7.8,4.86l6.03,2.66l6.37,1.24
			l6.34-0.82l1.73-0.61l8.04-2.84l3.29-0.45l3.49,0.37l5.33,1.41l0.39,0.31l2.36,0.73l0.18-0.28l0.33,0.1l0.32,3.2l4.42,8.42
			l-0.61,3.49v1.15h13.62v-1.15l-3.17-4.15l0.12-5.09l0.85-1.8l1.56-3.08l7.07-6.54l2.15-1.48l2.36-0.65l10.93-1.27l10.99,1.27
			l2.26-0.41l3.23-2.19l2.32-1.06l11.33-2.35l4.31-2.68l0.14-5.2l2.32,2.77l3.57-0.8l4.42-2.12l4.89-1.22l2.1-0.85l1.8-1.93
			l1.6-2.15l1.28-1.37l2-0.52l5.08-0.06l2.29-0.68l0.7-1.06l1.03-3.28l0.92-0.71l1.51-0.63l0.36-1.52l-0.32-3.54l0.27-3.29
			l0.75-3.34l1.03-3.01l1.12-2.37l4.05-4.01l3.13-1.19l2.52-0.92l6.53-0.35l6.68,1.31l2.36,1.45l4.25,4.13l2.27,0.85l1.9-0.61
			l1.38-1.45l0.71-1.03l0.54-0.66l1.23-1.3l1.51-0.93l7.22-2.19l8.3-1.04l1.76,0.94l1.74,1.87l3.82,1.06l3.89,0.44l2.15-0.15
			l-1.83-1.27l-2.08-2.99l-1.74-3.25l-1.66-5.09l-2.39-2.63l-2.2-1.76l-1.38-1.39l-5.08-4.31l-1.84-2.36l-0.76-2.31l-1.22-1.86
			l-6.16-6.24l-2.05-1.52l1.09-14.59l0.74-3.2l1.79-3.45l4.26-6.13l3.02-1.83l3.53,0.38l3.82,0.92l3.7-0.16l2.29-1.65l1.42-2.54
			l2.63-5.98l3.61-4.55l4.37-3.9l32.75-19.68l13.57-11.75l14.68-9.41l0.74-0.63l3.57-0.73l1.08-0.44l0.42-1.25l0.54-5.25l0.36-0.54
			l0.35-0.68l0.53-0.72l0.8-0.61l-2.09,0.41l-5.27,2.14l-27.75,12.36l-6.47,4.87l-11.77,5.92l-5.02,1.22l-4.26-1.16l-6.89,8.63
			l-11.15,6.46l-28.76,11.4l-6.13,0.41l-3.46,1.52l-10.56,0.76l-12.59,7.15l-35.51,5.68l-22.46-2.53l-2.74-1.3l-28.84-1.44
			l-6.87-1.89l-3.41-0.47l-3.17-0.89l-6.26-3.7l-3.65-0.61l1.83,5.85l0.59,5.53l-0.2,12.31l-0.87,6.98l-2.21,5.99l-3.35,4.79
			l-4.2,3.34l-5.59,1.56l-4.14-1.57l-3.83-2.54l-4.75-1.36l-5.22-0.76l-3.02-0.3l-4.9-0.61l-2.86-0.05l-3.17,0.46l-2.81,1.06
			l-2.52,1.27l-1.51,0.33l-0.98-0.23l-1.44-0.95l-0.76-0.22l-0.87,0.39l-0.42,0.89l-0.28,0.86l-2.41,1.78l-1.67,3.13l-2.27,5.77
			l-3.38,4.86l-4.59,4.47l-5.5,2.94l-6.3,0.3l-2.9-1.23l-2.53-1.96l-4.59-5.02l-3.07-2.16l-1.77,1.14l-0.49,3.4l0.64,4.63
			L908.96-545.9z M1160.15-549.41l-1.44-0.42l-1.69-0.74L1160.15-549.41z M1156.31-557.82l-0.29-0.57l-0.77-1.73L1156.31-557.82z
			 M1156.7-553.04l-0.26,0.31l-1.3,1.42L1156.7-553.04z M1126.65-547.53l1.23-4.05l-1.84,6.22L1126.65-547.53z M1125.35-537.7
			l-0.37-0.13l-2.36-1.62L1125.35-537.7z M1090.87-541.59l0.22-1.88l-0.22,3.03V-541.59z M1040.02-565.93l-0.95,0.74l-2.18,1.02
			L1040.02-565.93z M999.3-554.18l-0.48,0.83l-1.9,1.34L999.3-554.18z M992.89-550.87h-1.36l-1.51-0.71L992.89-550.87z M1440,862.3
			l3.01,3.39l-0.85-1.73l0.06-1.18l-0.48-1.52l-0.34-0.92l-1.61-2.36l-1.38-2.1l-1.03,0.12l0.43,1.81v2.16L1440,862.3z
			 M1616.43,1120.16l0.69-0.04l0.39-1.25l-0.06-1.55l-0.75-1.62l-1.3-0.65l-1.51,0.59l-0.97,1.29l-0.05,1.94l0.21,1.02l0.21,4.79
			l0.71,1.74l1.01,0.68l1.73,2.58l0.64-1.51l-1.06-4.47l-1.02-2.37l0.3,0.22l0.1-0.6l-0.41-1.22l0.21-0.27L1616.43,1120.16z
			 M1249.79,720.03l4.47,1.87l5.33,0.28l5.89-0.42v-1.25l-5.47-4.73l-0.15-0.48l-0.64-1.3l-0.75-1.15h-0.32l-0.34-0.3l-1.93,0.62
			l-4.42,0.76l-2.57-0.28l-1.36-1.39l0.6-1.83l1.73-0.86l3.93-0.81l-0.54-1.23l-0.88-0.86l-2.63-1.46l-1.02,0.42l-0.91,0.76
			l-0.7,1.03l-0.6,1.33l-0.32-0.97l-0.22,0.11l-0.55,0.86l0.77,1.35l0.54,3.34l-0.22,2.33L1249.79,720.03z M1633.88,1148.41
			l0.7,0.29l0.32-0.14l-0.76-0.74l-1.62-1.3l-0.74-5.61l-0.64-0.81l-0.34,1.19l-0.97,0.16l-1.51-3.33l-1.77-1.08l-2.15-0.32h-1.81
			l-1.49,1.71l-1.12,3.19l0.33,1.12l1.67-1.18h1.35l0.74,2.33l1.09,1.39l1.88-0.54l1.46,0.15l-0.28,1.14l0.76,1.83l3.01,1.95
			l1.25,0.2l-0.66-1.08l0.16-0.71L1633.88,1148.41z M1642.83,1220.73l-1.4-0.84l-1.61-0.15l-0.85,2.19v2.82l0.74-0.33h1.47
			l1.02,0.37l1.38,0.47l1.95,0.94l0.6-1.93l-1.51-1.67L1642.83,1220.73z M1562.35,1076.91l1.66-2.58l2.01-2.05l-1.09,0.43
			l-3.84,3.67l-2.47,5.76l-0.37,6.99l0.42,3.55l0.28,1.35l1.12,1.95l1.66,1.11l3.09,2.43l1.93,0.39l1.5-0.77l0.88-1.39l-0.6-0.33
			l-1.72,0.44l-1.19-0.93l-0.26-0.96l-0.16-0.94l0.48-2.19l1.29-2.22l0.13-1.12l-1.08-0.16l-1.14-0.54l-2.91-2.74l-1.36-2.98
			l0.42-3.29L1562.35,1076.91z M1579.04,1123.77l0.92-1.95l0.11-1l-2.32-1.46l-1.25-0.18l-0.74,0.67l-0.06,0.74l0.49,0.15
			l-0.23,0.18l-1.33,0.15l-1.4-0.65l-0.54-1.39l-0.09-1.19l-0.44-0.38l-1.23,0.26l-2.05-0.15l-1.99-1.46l-4-4.1l-1.23-0.42
			l-1.24-0.7l-0.81-1.07l-0.71-0.34l-0.96-0.05l-1.02-0.8l-1.09-1.42l-0.21-1.51l2.61-3.87l0.83-1.92l-0.19-1.08l-1.31,0.8
			l-1.67,2.1l-3.76,3.87l-1.25,2.98l0.92,3.55l1.99,2.26l2.87,2.8l1.57,0.8l0.95-2.36l3.35,0.8l12.23,6.21l1.99,1.45l1.02,0.56
			L1579.04,1123.77z M1597.2,1140.2v0.65l0.54,0.99l0.37,0.4l6.14,6.54l2.8,2.19l2.86,3.24l3.24,2.11l2.31-1.62l1.51-3.06l1.62-1.83
			l1.18-0.91l2.82-1.52l-0.51-0.74l-2.41,0.11l-2.11,1.56l-1.88,2.04l-1.85,0.42l-1.15-1.98l0.41-2.14l3.17-0.12l-0.7-1.18
			l-1.39-0.85l-1.88-0.23l-2.59-0.65l-5.33-2.32l-2.81-1.56l-1.3-0.97l-2.8-3.5l-1.5-1.24l-1.62-0.42l-0.07,1.22l1.8,2.49l1.44,1.67
			l0.27,0.97l-0.33,0.37L1597.2,1140.2z M1605.49,1127.44l0.92-0.6l1.61-1.56l0.06-1.98l-1.67-1.78l-2.15-0.32l-1.9,1.45l-0.32,2.43
			l1.99,1.87L1605.49,1127.44z M1589.16,1128.1l2.1,0.37l1.42,0.42l0.06,1.74l0.81,1.19l0.7,0.26l0.75,0.15l1.44,1.15l1.63,1.56
			l1.36,0.43l1.02-0.38l1.39,0.69l0.81,1.84l0.67,1.08l1.5,0.39l2.04,1.28l2.38,1.84l0.8,0.43l-0.15-0.77l0.54-0.47l0.26-0.64
			l-1.32-1.52l-5.44-4.47l-3.41-2.05l-2.36-0.91l-2.39-1.42l-0.74-1.93l-0.87-1.29l-7.54-5.02l-2.87-1.02l-2.35,0.64l-1.52,2.33
			l-0.07,1.55l1.22-0.39l0.63-0.63l1.25-0.76l2.74-0.17l2.32,1.53l1.29,1.81l0.16,0.76l-0.64-0.2L1589.16,1128.1z"/>
		<path clip-path="url(#SVGID_2_)" fill="#045052" d="M1505.61,1451.2l0.77,1.45l2.19-1.39l0.26-2.15l-0.35-0.32l-0.87-0.78
			l-1.09-0.26l-1.12-0.22l0.32,2.27L1505.61,1451.2z M1508.47,1585.21l-1.09-0.15l1.44,1.07l0.83-0.44l1.78-0.05l2.11,0.05h1.28
			l0.7-0.42l-1.39-0.12l-2.07-0.42l-0.83,0.05l-0.29-0.76l0.56-0.54v-0.37l-0.56-0.51l-0.96-1.33l0.48,1.04l0.12,1.12l0.06,1.19
			l-1.14,0.17L1508.47,1585.21z M1484.5,1595.72l-0.55-0.96l1.88-1.9l0.53,1.55l0.4,0.65l0.75,0.32l-0.07-0.8l-0.41-0.88l0.11-0.84
			l-0.16-1.5l-0.21-0.5l0.37-0.85l0.3-1.02l-1.6,1.02l-0.75,1.78l-1.9,2.1l0.54,2.69L1484.5,1595.72z M1505.61,1604.45l0.43,0.97
			l0.76,0.81l1.18,1.71l0.26-0.8l0.64-0.54l-0.41-0.91l0.06-0.76l-1.57-2.53l-3.68,0.27l1.19,1.24L1505.61,1604.45z
			 M1576.02,1673.19l1.72-0.11l0.26,1.72l0.29-2.8l-0.64-0.36l-0.92-1.3l-1.08-0.28l0.85-0.49l0.28-0.26l-0.44-0.6l-0.97,0.38
			l-0.75,0.36l-0.27,1.15l-0.58,0.71l-0.12,1.56v0.63l1.08-0.15L1576.02,1673.19z M1418.29,1514.71l1.84-1.41l1.78-0.26l1.44,0.2
			l1.73,0.39l0.48,0.53l0.43-0.26v-0.59l0.82,0.26l0.74-0.04l0.92,0.81l1.28,1.71l0.88,0.23l0.8,1.07l0.66,0.32l1.66,0.31l0.77,0.97
			l-0.18-1.11l-1.36-1.31l-1.33-1.66l-0.42-0.6l0.2-0.59l0.76,0.48l-0.69-1.31l-0.27-0.14l-0.28-0.66l0.06-0.48l-0.76-0.2
			l-1.08,0.63l-0.69,0.44l-0.44,0.15h-0.8l-2.04-0.36l-1.53-0.66l-1.22,0.71h-1.47l-2.2,0.43l-1.45,0.11l-1.61,0.42l-0.54,0.06
			l-0.42-0.26l-0.6-0.07l-0.54,0.28l0.42,0.49l0.42,0.53l0.39,0.66l-0.07,0.59l-0.02,0.28l2.46,0.74l1.36,0.65l0.69,0.09l-0.43-0.85
			l-1.44-0.49l-0.97-0.96l1.23,0.74L1418.29,1514.71z M1176.57,794.99l-3.29-1.28l-1.93-0.82l-2.06-1.78l-2.53-1.62l-3.44-0.48
			l-1.31,0.12l-1.06,0.31l-1.03,0.7l-0.85,1.14l0.61,1.78l1.06,2.04l1.39,1.13l3.45-1.67l1.56,1.19l1.46,1.72l1.51,0.91l3.23,1.02
			l3.66,4.22l3.08,0.48v-1.08l-1.95-2l-0.53-3.12L1176.57,794.99z M1613.46,1707.03l-1.84-2.65l-7.06-5.23l-2.26-2.11l-1.35-1.99
			l-2.11-4.9l-0.8-1.13l-1.25-1.08l-2.63-1.78l-1.24-0.26l-0.53,0.6l-0.34,1.02l-0.53,0.97l-2.33,0.2l-2.86-1.56l-22.57-19.5
			l-2.32-1.9l-2.53-0.7l-5.5-0.74l-4.35-2.3l-13.58-16.75l-0.16,0.05l-1.37-0.6l-0.35-0.92l0.35-0.63l0.56-0.59l0.05-0.66l-1.38-2.1
			l-1.37-1.53l-3.61-3.22l-3.23-4.26l-3.22-9.11l-2.45-3.97l-7.42-7.05l-4.31-2.72l-11.74-3.92l-12.36-2.38l-8.44-0.59l-2.26-0.68
			l-2.11-1.07l-1.93-1.36l-0.45-0.66l-1.12-2l-0.58-0.74l-1.15-0.71l-9.27-4.05l-4.78-3.7l-1.94-2.31l-1.09-2.04l-1.28-1.9
			l-2.48-1.72l-0.49-1.29l-1.62-8.14l-1.06-2.84l-1.31-2.37l-1.93-1.53l-2.97-0.12l4.32,7.57l1.84,2.58l-4.1-2.22l-5.99-11.07
			l-3.44-2.55l-1.12-2.63l-2-16.6l-1.88-5.38l-2.21-4.11l-8.36-15.07l-0.83-2.23l-1.1-10.48l-0.45-0.91l-1.12-2.6l0.22-7.8
			l-0.6-2.71l-0.96-2.58l-2.63-4.9l-3.3-4.62l-1.39-2.55l-0.6-2.43l0.34-2.47l1.49-4.62l0.34-2.6l0.26-14.38l1.88-10.08l-0.06-1.67
			l-0.42-1.23l-1.29-2.26l-0.37-1.03l0.09-2.32l0.97-4.25v-2.46h-3.43l-0.83-6.2l1.3-19.08l1.08-2.19l2.36-2.72l1.18-1.01l1.47-0.8
			l1.51-0.33l1.6,0.44l0.82,1.11l-0.4,1.35l-0.59,1.18l0.16,0.87l1.57,0.53l3.16-0.25l1.02,0.25l2.12,2.33l1.14,0.95l1.4,0.71
			l1.12-0.05l5.22-0.97l1.35,0.31l2.42,1.59l1.46,0.36l8.84-3.19l2.11,0.34l3.55,4.42l1.88,1.22l2.48-0.52l-6.68-9.55l-2.74-3
			l-1.79-1.64l-1.77-1.19l-3.83-1.78l-2.65-0.48l-4.41,0.6l-2.33-0.12l-3.83-2.04l-1.86-3.49l-1.42-4.11l-2.36-3.91l-6.3-5.41
			l-3.84-2.09l-3.38-0.48l1.29,2.63l0.81,2.97l-1.83-1.73l-3.5-6.13l-4.74-5.65l-8.04-15.03l-3.28-3.9l-14.71-12.55l-13.45-17.39
			l-5.89-4.96l-1.33-3.12l1.28-2.27l2.11-1.78l1.08-1.83l-0.69-2.31l-5.56-5.78l-2.63-4.34l-0.88-2.17l-3.55-13.1l-2.63-4.85
			l-3.94-3.62l-2.42-1.56l-1.72-1.56l-1.23-1.83l-0.87-2.55l-0.43-3.14l-0.11-6.24l-0.49-3.08l-0.95-2.75l-1.16-1.96l-3.7-3.94
			l-1.35-2.43l-0.61-5.4l-13.09-22.67l-7.1-12.18l-1.85-7.22l-4.53-6.94l-0.9-2.33l-1.45-4.85l-0.98-2.14l-6.6-8.3l-2.75-4.69
			l-1.57-8.56l-3.72-7.11l-2.11-7.98l-13.25-26.18l-1.3-1.81l-5.54-6.06l-10.24-15.18l-1.44-4.79l-1.12-2.21l-12.07-16.66
			l-5.73-14.48l-5.97-8.8l-12.86-29.63l-3.73-5.5l-1.99-4.24l-3.11-4.73l-2.27-4.48l-5.23-14.98l-2.15-4.64l-4.95-6.5l-1.51-5.23
			l-1.61-2.39l-2.39-1.45l-4.94-1.49l-2.15-1.79l-1.4-4.95l3.02-10.29l-0.05-4.42l-0.61-2.27l-0.26-2.97v-3.01l0.37-2.31l1.66-3.17
			l1.42,0.6l1.71,1.61l2.49-0.16l1.12-1.9l-0.11-2.69l-1.02-5.4l-0.77-1.88l-1.87-1.24l-2.2-1.19l-1.94-1.56l-1.46-2.32l-1.92-5.05
			l-1.3-2.6l-3.08-4.18l-1.03-2.39l-0.06-2.69l2.27,0.29l-1.09-2.83l-2.79-3.75l-2.6-2.44l-2.9-2.05l-1.57-2.31l-0.64-2.97
			l-0.15-3.77l-0.16-0.98l-0.82-1.48l-0.06-0.99l0.34-0.65l1.38-1.11l0.35-0.59l0.3-6.47l-0.3-1.78l-2.01-2.9l-2.96-2.15l-6.45-3.14
			l-5.95-3.97l-5-4.79l-1.09-2.38l-1.06-7.61l-0.98-3.43l-1.06-1.67l-2.63-2.8l-0.98-1.45l-0.46-1.67l-0.23-3.78l-0.43-1.56
			l-2.26-2.1l-6.68-3.03l-2.53-1.87l-0.12-1.83l0.19-1.6l0.35-1.41l0.59-1.07l-4.3-7.65l-2.54-3.34l-3.61-1.9l1.67-2.88l2.96-2.38
			l2.68-0.33l0.94,3.41h1.18l-0.6-1.57l-0.58-0.91v-1.3h1.18l3.61,4.64l1.56,1.33v-1.18l-0.64-0.91l-1.5-3.18l-0.44-0.71l-0.96-0.25
			l-2.8-2.04l-0.6-0.57l-0.88-1.08l-0.59-0.59l1.42-1.81l0.95-2.27l0.66-2.48l0.22-2.31l-1.02-0.33l-2.17,1.04l-2.21,0.64
			l-0.96-1.35l-0.71-2.63l-1.63-2.11l-2.89-3.01l-0.98-1.89l-0.32-1.22l0.37-1.48l0.92-2.42h1.03l3.22,1.89l4.05,1.52l3.62,2.15
			l1.77,3.83h3.07v-1.07l-0.69-1.31l-0.58-3.34l-0.77-1.34v-1.09l-0.3-2.05l-3.35-7.86l-1.09-1.78l-1.83-1.66l-3.44-7.34
			l-10.84-9.91l-6.91-1.84l-3.35-1.45l-1.33-2.6l-1.6,0.5l-1.78-0.43l-1.19-1.07l0.33-1.42v-1.01l-0.21-1.39l0.21-1.15l-3.29-1.87
			l-5.06-6.15l-2.59-1.33l-2.6-0.49l-0.53-1.3l0.16-1.9l-0.76-2.29l-1.29-1l-1.73-0.75l-1.54-0.91l-1.73-3.66l-7.22-7.7l-3.52-4.85
			l-0.59-0.54l-0.3-1.57l-0.71-2.16l-1.03-1.93l-1.18-0.97l0.23-3.67l-2.93-3.72l-6.77-5.53l0.54-0.12h0.42l0.21-0.22l-0.05-0.74
			l-1.35-1.26l-4.37-8.44l-1.08-3.51l-0.48-1.08l-1.4-0.8l-1.74-0.4l-1.44-0.59l-1.44-3.06l-1.86-2.32l-3.64-3.53l-7.28-4.11
			l-1.67-0.59l-0.54-3.61l-6.8-25.65l-2.08-5.22l-3.39-3.66l-5.45-0.97l-6.34-8.95l-0.6-0.37l-3.44-3.82l-0.61-1.75l-0.09-3.49
			l-0.5-1.9l-1.6-2.15l-4.67-4.84l-0.97-1.85l0.26-6.12l0.76-5.12l-1.19-1.81l0.55-1.59l1.66-0.76l0.81-1.98l1.51-1.4l0.85-1.45
			l-0.15-3.74l-4.58-18.79l0.54-3.13v-1.07l-2.06-3.17l-2.04-5.33l-1.51-5.79l-0.64-4.24l-1.57-3.45l-3.65-5.01l-4.37-4.48
			l-4.74-2.84l-7.01-8.23l-1.94-1.68l-7.8-5.01l-1.62-1.83l-1.3-3.66l-1.36-2.49l-1.71-2.41l-1.67-1.3v-1.29l2.15-2.39l0.91-2.94
			l0.06-7.22l0.9-2.87l4.42-8.08l1.56-1.67l0.76-1.4l12.78-17.88l2.69-2.21l-3.41-0.88l-2.15-1.76l-0.96-2.66l0.2-3.17l1.35-3.02
			l2.6-3.22l3.02-1.88l2.46,0.9l2.01-1.09l1.71,0.09l1.14,1.18l0.39,2.25h1.12l-0.15-2.33l-0.76-1.28l-0.87-0.98l-0.39-1.39
			l0.92,0.71l0.85,0.87l0.71,0.98l0.64,1l0.85,0.33l0.28,0.33l-0.28,0.33l-0.85,0.32l0.85,0.96l0.18,0.82l-0.65,0.81l-1.35,0.91
			l6.24,6.19l2.01,3.42v4.82l-0.87,0.6l-1.62,1.63l-0.77,1.67l3.25,1.57l3.49,3.61l0.66,1.12l0.53,1.95l3.78,4.62l0.87,1.59
			l0.62,1.39l0.35,1.87l0.11,2.97l-0.27,1.68l-1.35,3.55l-0.33,2.57l0.21,2.49l0.54,2.6l0.18,2.47l-0.92,2.1v1.09l4.77,3.39
			l1.79,7.16l-0.2,8.13l-1.18,6.4h2.08l-0.85-0.86l-0.22-1.12l0.33-1.36l0.75-1.49h0.96l0.07,1.12l-0.27,0.59l-0.44,0.37l-0.32,0.39
			l1.08,0.2l0.81,0.34l0.64,0.59l0.59,1.22h-1.12l7.44,5.35l4.07,1.98l0.6,2.97l-0.6,6.52l0.29,0.11l3.11,7.43l1.03,1.42l1.4,0.52
			l1.93,1.35l1.14,3.14l0.7,3.6l0.85,2.76l1.99,2.1l3.18,2.32l3.39,1.89l2.47,0.8l6.86,7.12l0.26,0.47l0.42,1.42l0.28,0.48
			l0.42,0.32l1.25,0.54l0.48,0.33l2.58,3.93l0.46,0.26l0.47,0.85l2.28,1.78l0.48,0.92l0.26,1.01l1.9,4.42l1.56,1.52l4.14,2.27
			l1.6,2.04l1.53-0.6l1.33,0.54l0.87,1.29l0.37,1.87l0.91-0.14l1.78,1.93l1.03,2.33l-1.09,1.16l-0.74,1.19l0.32,2.6l0.6,2.53
			l0.26,0.92l0.66,3.97l-0.27,1.53l-1.3,1.56v1.08l0.58,2.19l0.48,7.75l1.03,3.2l1.14,0.97l1.36,0.48l1.14,0.86l0.8,3.5l0.88,1.36
			l1.87,2.3l-1.57,3.93l-2.05,7.99l-1.51,3.45l2.75,5.16l0.98,2.97l0.64,6.95l0.8,3.19l1.66,2.19l2.55,0.88l-2.8-2.48l1.28-2.34
			l2.54,0.45l1.08,5.64h-1.12v-1.28l-0.97,1.28l1.77,0.92l1.67,1.98l1.29,2.1l0.49,1.45l0.7,1.3l1.57,1.67l9.75,7.22v0.98l1.78,2.05
			l2.94,2.75l3.51,6.24l0.7,0.21l0.97,1.83l19.92,11.96l1.52,2.81l3.56,5.33l1.17,2.33l1.09-0.77l0.87,1.3l2.26,8.41l0.27,0.52
			l1.3,1.55l0.48,0.88h1.12v-1.28h0.98l0.33,0.99l0.48,0.56l0.64,0.32l0.69,0.6l-0.26,2.48l1.78,3.7l2.58,3.56l2.15,1.9l0.06,3
			l7.37,4.54l-0.09,4.27l2.41,0.57l1.15,0.5l1.06,0.81l0.48,0.68l0.54,1.53l0.55,0.74l0.41,0.22l1.25,0.64l5.34,4.48l1.35,1.67
			l1.08-1.04l2.04,4.58l1.79-1.36l2,0.12l1.93,1.04l8.72,8.02l1.31-0.15l0.8,0.57l10.18,12.39l3.66,2.37l14.69,1.63l2.33,0.74
			l1.51,0.83l1.36,1.07l2.89,3.01l2.65,3.58l0.74,1.49h1.14v-1.25l-0.74-0.1l-0.16-0.11v-0.32l-0.23-0.66l0.6,0.45l1.53,0.74
			l-0.83-2.04l-0.53-0.74l-0.77-0.77v-1.12h1.14v-1.07l-5.55-0.06l-0.42-1.02l-0.58-2.7l0.37-0.04l1.4,0.11l2.04-0.48l3.02-1.3
			l1.93-1.9l-1.22-2.1l1.32-1.95l1.03-3.82l1.08-1l1.03,0.74l1.29,0.43l0.48,0.91h1.02l1.49-1.55l1.54-5.23l1.15-2.58l-0.67-0.39
			l-0.11-0.06l-0.06-0.15l-0.32-0.71l1.56-0.22l2.05-0.71l1.17-0.15l1.31-0.54l0.91-2.47l1.98-1.26l0.67-1.45l0.49-1.62l0.48-0.97
			l1.24-0.6l3.98-0.59l-1.12-1.28l2.2-3.08l-0.16-19.22l1.04-5.5l0.08-2.15l0.28-0.54l0.39-0.48l0.35-0.76l0.06-1.22l-0.41-1
			l-1.46-1.35l-1.36-2.79l-1.98-2.37l-1.24-2.58l1.12-2.86v-1.07l-0.85-1.88l-0.64-1.94l-0.42-2.21l-0.12-2.92l0.47-2.09l2.15-4.25
			l0.5-1.95l0.27-0.12l1.77-2.9l0.6-1.9l1.45-7.64l1.16-2.27l2.01-1.02l-0.35-0.88l-0.12-0.04l-0.42-0.37l3-3.02l3.45-2.58
			l1.84-3.41l-2-5.28l0.76,0.11l0.14-0.26v-0.45l0.18-0.48l1.95-4.9l6.12-9.26l2.11-7.96l3.56-5.07l0.82-3.07l0.36-0.87l0.71-0.88
			l0.68-1.16l0.33-1.78l-0.27-1.29l-0.32-1.04l0.26-0.97l1.35-0.92l-0.9-2.08l-0.48-0.76l-0.54-0.6l0.85-2.06v-2.52l-0.43-2.37
			l-0.42-1.57v-1.08l4.03-2.94l-0.15-10.32l-0.76-3.53l-0.11-1.08l0.42-2.26l0.54-0.91l3.41-2.22l1.42-0.54l1.12-0.97l0.48-2
			l-0.33-2.1l-1.51-2.16l-0.3-1.67l0.35-10.5l-0.35-1.98l1.38-2.22l0.97-2.69l0.53-2.74l0.16-2.49l0.87-1.02l1.78-1.18l1.78-1.62
			l0.8-2.15v-8.95l0.82-2.19l1.18-2.43l0.5-2.49l-1.37-2.43v-1.09l1.31-0.74l0.69-0.97l0.54-1.04l0.61-1.01l0.74-0.66l1.66-0.86
			l0.7-0.74l3.57-5.56l1.76-1.72l-0.95-0.85l-0.18-0.67l0.71-0.48l1.44-0.26l-0.59-0.96l0.39-1.04l1.01-0.91l1.31-0.65l0.02-0.85
			l-0.19-0.27h-0.43l-0.53-0.16l1.92-0.76l0.88-1.41l0.48-1.76l0.85-2.07l1.07-1.59l1.09-1.25l1.35-0.98l1.73-0.91l-1.42-2.53
			l-3.49-7.23l-1.08-4.16l0.32-12.07l-3.93-17.96l-5.98-16.49l-6.68-18.26l-0.96-9.55l0.06-1.08l-0.12-1.07l-0.27-1.04l-0.39-0.97
			l-5.91-16.92l-9-25.89l-5.08-14.5l-1.7-2.55l-8.31-7.27l-1.07-1.66l-0.35-2l0.29-3.12l1.45-5.26l0.06-2.4l-1.57-2.16l-2.42-3.31
			l-0.91-3l-0.33-7.28l-3.34-14.04l-9.37-24.76l-7.76-20.53l-5.89-15.4l-4.79-14.93l-6.03-18.71l-1.56-4.84l-2.75-8.5l-0.85-2.93
			l-3.72-6.77l-0.15,0.13l-23.16,14.96L1150,157.22l-31.44,8.21l-5.07,0.34l-3.51-1.04v1.2l-2.94-1.28l-11.12-1.15l-2.84-0.93
			l-6.16-3.16l-1.99,0.56h-1.07l-0.55-0.47l-1.6-0.83v3.19l-2.43,0.19l-1.93,0.64l1.29,3.23l-16.64,1.32l1.77,0.37l1.42,0.19
			l1.56-0.23l1.39,0.78l-2.15,0.15l0.15,0.3l0.06,1.78l-0.12,1.51h-1.12l-0.64-1.57l-1.08-0.76l-1.23,0.11l-1.14,1l-1.12-1.23
			l1.12-1.29h-1.12l-2.21,1.67l-8.15,3.16v1.33h0.97v-1.33h1.03l2.09,1.33v1.1l-1.39-0.21l-0.7-0.02l-1.03,0.23l-2.06-0.33
			l-2.79,0.65l-5.48,2.2l1.66-3.02l0.03-2.72l-1.33-2.28l-2.52-1.76v-1.12l0.74-0.11l0.15,0.3v0.48l0.21,0.45l2.21-1.59l1.94-0.47
			l0.61-0.97l-1.62-3.03l-5.5-7.19l-1.88-1.4v-1.09h4.24v-1.21l-2.59-0.03l-1.77,0.88l-2.95,2.79l-1.73,0.85l-3.77,0.66l-1.9,0.9
			l-2.41,3.06l-1.88,3.58l-2.65,2.72l-4.58,0.44l2.42,0.98l3.62,0.54l3.44,0.05l2.04-0.44l-0.96-0.71v-0.56l0.48-0.53l0.48-0.65
			l3.18-2.43l1.04-1.21h1.02l-0.67,1.95l-0.81,1.5l-0.36,1.28l0.82,1.35l-1.53,0.99l-5.86,1.52v1.21l0.71,0.23l1.44,0.86v1.33
			l-2.04,1.72l-2.38,0.1l-5.08-1.82h2.13l-0.28-0.9l-0.32-1.75l-0.39-0.98l-1.4-2.12l-2.38-1.69l-2.58-0.68l-2.04,0.85v1.12h4.13
			v1.29l-3.59,1.88l-1.58,0.56v-1.21l1.12-0.14l0.48-0.88l-2.14-0.57l-0.59-0.93h-0.98l-1.56,1.26l-7.9,2.48l-9.37,6.04l-0.92-0.15
			l-0.66,0.14l-0.48-0.15l-0.15-1.05h-0.94l-0.96,1.73l-1.72,0.68h-4.68l2.17-1.21v-1.21h-7.4l13.13-3.38l8.31-3.9l4.95-1.39
			l8.52-6.4l4.9-1.89v-1.3h-1.08l-1.67,1.26l-6.31,3.2l-2.65,2.04l-13.57,6.64l-11.32,2.98l-6.4,0.83l-6.74-0.21l-5.49-1.71
			l-4.54-2.84l-4.01-3.62l-4.32-7.42l-2.86-2.15l-6.46-6.27l-2.86-3.7l-1.79-1.66l-4.62-1.24l-2.31-1.5l-1.57-2.28l-0.37-2.96
			l-1.74-0.21h-0.96l-2.04-1.57l-10.36-2.04l-1.99-0.15l-1.87-0.21l1.08,2.96l1.81-0.67l3.14,0.5l3.23,1.18l2.27,1.3l-1.9,1.37
			l0.42,1.56l2.54,3.25l0.8,3.04l-0.05,2.49l-0.75,5.26l-0.53-0.12l-3.62,0.12l2.74,2.6l0.45,3.26l-1.72,3.14l-3.69,2.12l-2.15,0.37
			l-2.36-0.07l-1.93-0.71l-1.67-2.93l-1.66,0.15l-1.21,1.27l0.61,1.92l-0.85-0.11l-0.7,0.09l-0.44-0.24l-0.11-1.06l-1.83,1.17
			l-0.21,0.21l0.21,0.44v0.26l0.09,0.15l0.71,0.19v1.29l-0.81-0.07l-2.42,0.07l1.24,2.44l-2.06-0.38l-3.07-1.57l-2.26-0.5l0.48,1.88
			l0.97,1.76l1.52,1.17l2.2,0.06v1.1l-1.9,1.21l-2.04-0.09l-1.9-0.9l-1.54-1.32v-1.33h1.08v-1.09l-1.08-0.86l-1.25-0.34l-1.35,0.25
			l-1.45,0.95l-1.23-0.88l-0.76-0.34l0.54-1.48l0.76-1.04l1.14-0.71l1.56-0.41v-1.32l-1.46-0.52l-0.92-1l-0.48-1.45l-0.22-1.88h-0.9
			l-0.49,1.31l-0.87,0.83l-1.28,0.35l-1.63-0.07v-1.21l3.13-2.73l-0.05-1.89l-1.03-1.54v-1.09l1.08-0.48l0.6-0.67l0.28-1l0.26-1.48
			l-0.54,0.42l-1.67,0.79l0.23-2.38l0.25-0.57l0.64-0.8v-1.09l-2.14-1.21l-0.7,0.82l-0.97,0.77l-0.42,0.71l-2.15-1.09v-1.21h2.15
			l-3.46-1.19l-2.9,2.07l-2.36,2.49l-1.79,0.25l-0.84,2.78l-1.3,0.07l-0.71-1.66l0.77-2.51h-1.03v1.33l-0.7-0.19l-0.16-0.4v-0.44
			l-0.16-0.3l-0.6,0.47l-0.37,0.42l-0.36,0.32l-0.76,0.12l-0.15-1.19l0.26-0.55l0.42-0.29l0.54-0.39h-2.1v-1.21h2.1l-0.68-1.25
			l-0.16-0.95l0.19-1.12l0.65-1.63l-1.18,0.87l-0.75,1.19l-1.24,2.9l-1.45-1.72l-2.31-1.6l-2.39-1.19l-1.66-0.44l-0.66-0.74v-1.64
			l-0.2-1.63l-1.25-0.74l-1.39-0.07l-1.06-0.23l-2.16-0.92l0.26,0.66l0.15,0.19l0.21,0.05l0.29,0.32l-1.86,0.88l-1.66-0.46
			l-0.97-1.55l0.32-2.5l1.3-1.12l1.78-0.4l1.03-0.65l-0.86-1.69v-1.1l1.88-0.85l-0.22-0.62l-1.09-0.63l-0.57-0.89l0.26-1.79
			l0.81-1.07l1.02-0.08l1.01,1.06h0.92l1.23-1.17l1.46,0.1l1.66,0.67l2,0.39v-1.31l-3.28-0.09l-1.36-1.15l0.44-2.04l2.1-2.7
			l-0.91-1.33l-0.54-0.57l-0.7-0.52l0.5-0.23l0.43,0.04l0.32-0.2l-0.1-0.95h1.02l1.1,1.15l1.54,0.36l1.51-0.4l1.08-1.11l-1.61-0.08
			l-1.18-0.44l-0.87-0.74l-0.59-1.04v-1.34h1.12v-1.23l-1.18,0.1l-0.87-0.34l-1.08-0.87l-0.64,1.04l-0.5,0.22l-0.97-0.15l0.97-2.74
			l1.08-1.2l0.64,0.19l-0.58,1.33l2.12,0.16l1.6,0.99l0.97,1.64l0.53,2.19h1.03l-0.23-0.91l-0.47-0.83l-0.33-0.82h1.03v-1.11h-1.03
			l0.45-2.43l-2.33-4.2l0.82-1.98h-3.14l0.75-1.24l0.28-0.99l-0.05-1.41l0.54,0.37l1.12,0.38l0.49,0.36l0.11-0.56l-0.11-1.19v-0.59
			l2.1,1.23l0.6-1.79l1.02-0.63l2.57,1.19l0.06-0.77l1.67,1.03l2.2,2.9l1.69,2.86l7.69,9.57l-1.9,0.23h-1.92l1.36,1.18l1.28,1.69
			l0.97,2.1l0.44,2.42h1.12l0.63-0.06l1.61,1.4l4.11,2.19l0.7,0.73l0.42,0.81l0.71,0.61l3.11,0.38l1.09,0.36l0.7,0.79l0.37,1.28
			l-1.19-0.98l-0.43-0.23l-0.7,0.09l-0.8-0.09l15.06,9.47l4.71,1.03l-1.56-1.04l-6.1-4.78l-2.2-1.02l-0.94-0.71l-3.83-4.26
			l-1.81-0.88l-3.71-0.86l-1.63-0.71l-4.92-4.43l-2.4-3.03l-2.05-5.09l-4.8-6.54l-0.81-2.12l-2.15-4.75l-4.86-2.49l-5.92-0.1
			l-5.55,1.81l-13.68,7.8l-23.01,6.6l-6.24,0.19l-5-1.11l-15.89-7.39l-6.26-4.86l-24.02-10.96l-14.13-4.45l-4.73-0.52l-13.04,1.95
			l-3.76,1.43l-1.47,0.85l6.91,0.21l7.26,3.14l6.14,4.58l2.96,4.06l-1.01-0.17l-0.98,0.35l-0.97,0.66l2.81,1.41l-0.66,1.15
			l-0.91,0.86l-1.25,0.33L730,98.73l-0.28-0.68l0.06-0.85l-0.37-0.65l-2.57-1.69l-1.42-0.55l-5.61-0.41l-0.85,0.2l-0.85,0.84v0.83
			l0.2,0.91l-0.48,1.06l-2.43,2.11l-0.54,1.18l0.93,1.45l-1.73,3.6l-1.08,1.41l-1.42,1.18l-1.01-1.33l-5.21-2.31l-0.34,0.56
			l-0.06,0.21l-0.03,0.15l-0.51,0.38l-0.08,0.81l0.25,0.14l0.37-0.04l0.4,0.19l-2.05,1.86l-2.6,1.63l-2.58,0.86l-2.05-0.57
			l-0.11-0.83l0.2-0.23l0.44,0.04l0.49-0.18l-1.85-0.97l-2.14,0.19l-1.95,0.57l-1.45,0.2l-2.27-1l-1.98-1.31l-1.67-0.8l-1.35,0.55
			l-2.31,1.17l-2.8,2.46l-2.38,3.12l-0.96,3.08h-1.02l-1.78-2.49l-3.18-2.63l-3.08-0.83l-1.33,2.86l-1.9,1.72l-4.14,1.28l-4.26,0.24
			l-2.31-1.37h-1.04l-0.96,0.89l-1.14-0.05l-3.13-0.85v-1.3l2.32-3.53l0.71-0.01l1.28-0.76l6.09-0.45l2.64-0.93l5.83-4.05l1.18-0.47
			l2.1-0.34l0.86-0.41l6.51-4.41l8.1-3.84l11.78-6.78l14.11-5.31l2.32-0.34v-1.19l-45.4,16.12l-21.51,5.75l-6.57,0.85l-5.5-0.64
			l-4.69-1.95l-4.13-3.12l-5.56-3.12l-1.02,3.12l2.32,5.27l4.26,3.23l-3.07-0.57l-2.12-2.4l-1.39-3.34l-0.76-3.41h-1.02l1.31,6.22
			l-0.6,7.44l-2.1,7.17l-3.34,5.43l-9.32,8.38l-5.35,3.01l-5.69,1.45v1.21l8.99-0.45l2.47-0.76v1.21l-0.49,0.08l-1.13-0.19
			l-0.42,0.1v1.09l2.69-0.63l2.25-1.14l2.17-0.51l2.31,1.19l-1.57,4.78L606,144l-1.14-0.52l-0.71-0.99l-0.33-1.45l0.06-1.91h-0.91
			l-0.22,1.43l-0.2,0.73l-0.33,0.6l-0.43,1.02l-0.48-0.41l-0.12-0.07l-0.42-0.84l-4.59,4.39l-0.59,1.18l-0.7,0.15l-1.35-0.26
			l-0.85-1.02l0.8-2.03l-6.35,3.75l-1.62-0.97l-1.66-1.28l-0.54-1.37l1.84-1.23l-0.56-0.16l-0.48-0.02l-0.2-0.24l0.12-0.89
			l1.22-0.78l1.79-1.96l1.24-0.79l-5.61-0.59l-6.26-1.93l-4.3-3.41l0.42-5.09l-4.14,2.31l-0.11,0.89l0.23,0.21l0.43,0.02l0.48,0.2
			l-1.45,1.05l-0.97,1.18l-1.25,1.01l-2.1,0.41l-1.24,0.96l-3.08,4.23l-1.98,0.97l-2.1,1.37l-7.1,6.39l-1.73,1.94h-1.13l-0.91-1.86
			l-1.24,0.04l-1.13,1.24l-0.85,1.81l1.23-0.67l0.6-0.13l1.35,2.01l-7.05,6.3l-4.42,2.08l-4.28-1.01l-2.35,4.68l-22.47,16.37
			l-1.19,1.3l-1.07,1.79l-7.28,3.71l-8.08,6.06l-22.52,10.91l-20.85,10.09l-4.58,0.86l-24.56,1.07l-26.51-13.94l-2.86-0.87
			l-1.02-0.78l-0.59-1.64l-1.09-4.73l-0.9-0.97l-3.73-0.51l-2.96-1.24l-5.44-3.08l-27.1-9.7l-2.52-1.36l-1.68-0.64l-2.01-0.41
			l-5.48,0.08l-1.35-0.74l-1.78-1.92l-2.37-1.69l-2.75-1.24l-2.96-0.54l-3.5,0.65l-6.63,3.32l-3.07,0.76l-2.97-0.39l-6.53-1.65
			l-3.44-0.39l-4.58,0.51l-1.89-0.51l-1.25-0.88l-1.18-1.16l-1.4-1.03l-1.78-0.47l-27.36,0.06l-7.39-1.05l-4.51-2.73l-0.49-1.45
			l-0.59-5.81l-2.69-6.43l-0.39-1.45l-0.26-3.49l-0.75-2.52l-1.62-1.2L231.7,144l-17.72,8.63l-9.07,1.62l-7.68-4.08l-3.4,1.78
			l-3.4-0.67l-3.76-1.55l-9.6-1.47l-4.79-1.62l-4.41-2.5l-3.66-3.1l-1.52-2.48l-1.5-5.28l-1.07-2l-0.43-1.04l-0.22-2.68l-0.49-0.51
			l-0.75-0.41l-0.7-0.97l-1.13-2.27l-0.33-1.24l0.27-0.65l0.06-0.62l-1.13-1.24l-1.08-0.71l-1.07-0.34l-9.59,0.19l-1.79-0.23
			l-0.63,0.71l-1.46,0.89l-0.97,0.82l-2.48-1.86l-3.79-1.1l-10.33-1.09l-9.64-3.23l-4.15-2.43l-1.73-0.39l-1.39-0.11l-1.51-0.63
			l-2.14-2l-2.64-1.74l-2.66,0.26l-5.56,2.07l-6.99-0.06l-6.24-1.95l-10.95-5.29l-3.07-0.3l-7.59,0.54l-2.44-0.85l-2.52-1.4
			L6.84,93.5l-60.33-16.87l-14.98-0.76l-6.8,1.06l-28.64,9.69l-24.79,7.13l-4.42,0.53l-3.77,0.95l-2.79,1.62l-1.85-0.35l-1.83-0.83
			l-1.4-0.44l-6.99,1.04l-3.19-0.04l-5.87-3.05l-7.77-0.48l-3.29-0.91l-2.8-3.58l-1.66-5.69l-1.87-11.65l0.19-1.37l-9.57,7.64
			l-4.31,6.09l-5.6,15.12l-24.78,20.29l-1.89,5.65l-0.06,6.51l1.53,14.94l0.15,14.55l3.56,18.94l1.03,3.6l5.38,10.98l1.94,9.02
			l6.69,14.22l2.1,7.13l-0.96,6.09l-2.33,6.07l-1.89,7.07l-1.61,9.7l-4.57,12.16l-0.54,3.5l-1.42,5.97l-3,6.02l-8.9,13.52
			l-4.64,4.74l-4.14,5.22l-1.46,2.48l-2.53,6.03l-6.31,11.38l-2.46,6.18l-0.06,6.77l1.39,3.79l4.32,7.77l13.14,32.85l0.65,3.93
			l-0.16,3.49l-2.54,9.11l1.04,7.27l7.79,13.14l2.21,7.24l-0.06,4.23l-1.33,12.66l0.32,6.75l1.55,6.02l12.61,30.59l2.71,9.34
			l1.08,10v1210.31h193.06l14.82,0.06h371.34l14.8,0.03h311.85l14.88,0.07h35.55l1.99-1.26l7.55-15.34l7.36-15.15l4-4.3l2.86-1.56
			l2.91-0.47l2.96,0.42l2.8,1.47l3.34,3.27l1.35,3.62l-0.16,4.1l-3.57,10.49l-4.84,14.55H1044l35.51-0.06h532.77v-0.17l1.24-1.61
			l1.01-1.79l0.13-2.04L1613.46,1707.03z"/>
		<path clip-path="url(#SVGID_2_)" fill="#EDFCF6" d="M1001.51,1404.4l0.49-0.76l0.64-0.59l0.09-1.39l-0.64-1.19l-1.93-1.9
			l-0.49-1.45l0.53-2.97l0.88-2.41l0.15-2.6l-1.56-3.45l-1.39,3.08l-1.61,6.57l-1.25,2.9l-2.52,2.6l-2.15-0.59l-2.43-0.97
			l-3.29,1.23l1.62,0.6l3.29,0.16l1.45,0.39l0.98,0.89l0.91,2.06 M1420.89-146.34l0.21-2.73l-0.54-1.79l-1.14-1.4l-2.53-2.36
			l-3.35-0.38l-5.61,3.14l-4.72,5.15l-0.98,5.66l0.54,1.1l2.6,3.84l1.71,4.32l0.92,0.59l1.66,1.67l0.54,3.49l1.08,3.12l3.45,0.48
			l5.27-6.28l0.12-1.33l-0.12-1.04l0.16-0.77l0.92-0.47l-0.87-1.74l-0.06-2.16l0.92-4.84l-0.61-2.09l0.07-1.51L1420.89-146.34z
			 M1408.55,48.5h-1.15l-6.79,1.74l-4.61,4.53l-3.36,6.27l-2.9,7.07l-3.5,5.59l-0.7,1.71l-0.05,2.22l1.02,4.35l0.06,2.08l-1.03,3.16
			l-1.46,2.9l-0.85,3.21l1.19,7.48l-1.08,6.45l1.24,7.27l0.66,8.97l1.33,3.21l4.15,0.78l7.47-7.92l2.98-0.15l0.3,2.4l-1.66,6.4
			l0.32,2.13l1.42,0.24l1.61-0.92l2.56-2.37l1.15-1.51v-1.24l-0.43-1.23l-0.05-1.46l4.18-20.29l-0.53-5.09l-2.17-7.43l3.69-29.11
			l1.44-5.15l-0.27-4.02L1408.55,48.5z M1401.27,149.3l-5.38-1.98l-2.22-1.48l-6.13-5.78l-2.42,2.75l-0.69,1l-4.74-0.86l-1.66,4.44
			l0.74,6.14l3.77,6.03l0.7,5.13l1.19,2.14l2.32,1.22l6.62,1.19l2.65,0.13l1.35-0.35l3.83-2.74l1.11-1.12l-0.21-1.1l-0.64-1.07
			l-0.42-1.67l-0.55-0.6l-0.37-0.68l0.57-1.03l3.15-3.29l0.48-1.1l-0.71-3.4L1401.27,149.3z M2680.99-119.98l-10.98-3.69l-1.03-0.54
			l-3.59-3.16l-4.96-0.78l-1.36-0.57l-3.41-4.17l-10.04-20.73l-2.7-7.84l-0.6-2.48l-1.09-2.1l-2.04-2.52l-1.23-3.14l1.33-4.05
			l-2.26-1.33l-5.92-1.87l-2.43-1.75l-2.04-3.04l-1.02-3.1l-0.29-3.43l0.23-4.05l-1.99,1.86l-0.1,3.28l1.24,7.23l-0.44,2.48
			l-1.3,2.01l-1.99,0.68l-2.69-1.45l-1.19,1.75l-3.29,3.44l-0.75,2.22l0.75,1.52l3.9,4.52l1.72,1.39l-0.6,1.45l-0.37,1.19l-0.16,1.3
			v1.72l-0.49,0.69l-2.14-0.13l-0.49,0.63l-0.7,1.67l-1.02,1.43l0.06,1l2.59,0.28v1.12l-1.69-0.26l-1.54-0.81l-1.88-1.27l-1.52,0.3
			l-2.27,1.57l-1.39,0.48v1.36l2.15,0.98l0.97,2.22l0.98,1.54l2.22-1.04l0.48,2l-0.94,2.05l-1.5,2.18l-1.25,2.5l-0.64-0.6
			l-0.48-0.26l-0.49-0.18l-0.54-0.3l2.96,6.89l0.6,2.91l-1.4,1.41v1.24l0.64,0.18l1.42,1.03l-1.52,3.76l2.43,5.67l5.43,8.55
			l2.82,3.47l5.85,3.05l5.5,0.86l1.55-3.07l1.95,0.34l3.35,1.61l1.93,0.41l-1.14,0.78l-0.69,0.85l-1.24,2.05l2.91-0.6l2.65-1.24
			l2.53-0.58l2.35,1.32l-1.99,0.51l-0.85-0.06l-1.32-0.45l-0.07,5.45l0.68,2.19l1.95,0.85l1.25-1.37l0.3-2.74l0.49-1.9l1.71,1.12
			h0.98l0.36-0.65l0.66-0.49l0.22,0.98l0.6,1.71l0.2,1h1.14l0.71-1.69l0.26-0.87h1.15l0.47,2.64l1.09,1.77l0.58,1.78l-1.19,2.62
			l1.35-0.79l1.15-0.26l1.02,0.55l0.75,1.61l1.51-1.76l2.14-3.78l1.47-1.83l1.56-1.13l3.29-1.62l5.98-4.79l1.98-2.43l0.82-3.01
			v-7.93l1.25-5.8L2680.99-119.98z M1866.1-705.72l-1.18-0.26l-0.53-0.59l-0.27-1.86l-0.66-0.04l-1.06,1.19v0.28l-2.69,1.14
			l-0.16-0.38l-1.68-1.71l-0.84-0.59l-0.33,0.85l-1.03,1.43l-1.17,0.8l-0.49-1.11l-0.21-2.09l-0.49-0.54l-0.76-0.06l-0.75-0.71
			l-1.78-3.74l-1.33-3.94h-0.98v1.39h-1.12l-0.71-2.48l-0.19-1.37l-1.85,1.48l-1.03,5.64l-2.36,1.74l-2.69-0.41l-1.63-1.75
			l-1.5-1.93l-10.51-4.97l-2.08-0.65l-1.15-1.64l-0.91-1.87v-0.71h-2.34l-1.69,0.13l-0.73-0.13h-22.58l1.81,1.21h1.02l1.25-1.13
			l1.12,0.48l0.48,1.42l-0.76,1.7l1.4,1.29l2.63,3.29l1.74,0.65l2.08,0.27l5.02,1.51l1.72,0.78l3.01,3.03l4.59,7.11l3.41,1.39
			l2.77,0.18l2.07,0.64l1.6,1.2l1.33,1.83l1.3,2.48l-0.16,1.3l-0.69,1.16l-0.45,2.16l-0.48,0.85l-1.08,0.65l-1.14,0.88l-0.48,1.55
			l0.64,1.04l1.31-0.33l1.12-0.86l0.09-0.54h3.57l1.07,0.95l0.66,2.87h0.97v-2.58l-0.97-5.79l0.66-1.2l2.89-1.98l0.66-0.72
			l0.71-1.44l1.32,2.54l1.08,3.43l-0.04,1.23l1.65,0.36l1.72-0.8l1.57-0.22l1.3,2.04h1.18l7.07-6.02l1.18-1.78h1.07v1.29l5.28-2.85
			l0.98-0.3l0.21-2.2l0.54-1.65l1.3-3.11l-1.03,0.15H1866.1z M2612.12-219.18v1.1l-0.77,0.5l-0.32,0.49l-0.4,0.64l-0.7,0.97
			l0.88,1.71l-0.77,1.19l-0.96,1.07l0.35,1.54l1.15,1.14l1.54,0.96l1.64,0.71l1.4,0.35l3.08-0.95l2.17-1l1.76-2.3l1.84-0.28
			l2.17-0.03l1.6-0.4l2.39-2.65l2.34-3.97l1.8-4.38l0.74-3.9l-0.46-1.45l-2.18-4l-0.49-1.41l-0.96-1.19l-6.24-3.32l-1.04,2.79
			l-0.8,1.65l-0.91,0.73l-2.12-1.1l-1.08-0.32l-0.48,0.74l-0.8,0.26l-4.89-5.91l-2.43-0.99l-0.71-2.51l-0.02-3.23l-0.51-3.19
			l-1.33-1.59l-7-3.5l-1.36,9.83l-0.81,2.71l-2.75,2.81l-2.54,0.61l-2.46,0.14l-1.67,1.3l-1.19,4.95l2.6,3.07l7.05,3.26l6.57,5.03
			l3.52,1.29H2612.12z M2589.69-304.91l1.42-1.78l2.15,2.2l3.34,1.15l6.45,0.5l3.18,0.95l2.49,1.71l2.69,0.68l3.76-2.09l2.09-3.05
			l1.31-3.84l0.7-3.69l0.15-2.59l-0.48-1.3l-1.09-0.78l-1.12-0.48l-0.64-0.49l-0.49-1.52l0.06-0.74l0.28-0.73l0.53-3.5l0.54-1.45
			l0.09-1.07l-1.01-0.97l1.01-0.18h0.76l0.77-0.27l0.8-0.91l0.85,0.61l0.66,0.26l1.63,0.48l-1.42-1.83l-2.69-1.74l-3.03-1.24
			l-2.36-0.31l2.88-1.14l1.62-0.25l0.74,0.72l0.39,0.52l0.92,0.3l1.02,0.09l0.81-0.24l0.09-0.59l-0.21-4.9l-0.53-3.41l-1.24-2.72
			l-2.22,0.26l-0.54-2.49l-1.38-0.71l-1.8-0.35l-1.47-1.43l-0.51-2.05l-0.37-5.01l-0.26-1.6l-0.88-1.19l-3.23-3.16l-1.08-0.66
			l-1.56,0.54l-1.62,1.46l-1.29,1.72l-0.75,1.3h-1.13l-0.12-3.1l-0.82-2.25l-1.72-1.14l-2.58,0.12l0.54-2.01l-0.32-1.9l-0.76-2.16
			l-0.49-2.72l-1.18,1.3l-1.72,2.46l-1.29,1.27l-0.64-2.1l0.37-1.52l0.54-1.27l-0.27-1.39l-1.29-1.07l-3.13-0.09l-1.31-0.76
			l-2.56-4.44l-0.83-0.63l-1.8-0.34l-0.6-0.3l-0.23-0.68l0.06-1.62l-0.33-0.78l-3.08-3.6l-0.47-0.21l-0.33-0.35l-3.38-10.36
			l-1.14-1.52l-2.5-0.92l1.85-5.61l-0.11-2.56l-1.74-2l0.83-0.26v-0.18l0.2-0.69l-1.67-0.46l-1.01-1.41l-0.75-1.67l-0.82-1.5
			l-1.39-0.81l-0.48,1.75l0.15,2.81l0.81,2.42h-1.19l-1.07-4.76l-1.02-1.97l-1.51-0.81l-1.52,1.07l-0.06,2.49l1.04,4.66l-0.39,1.69
			l-0.91,1.19l-2.38,2.15l-1.12,2.3l-0.06,2l1.3,6.47l2.43,7.63l0.08,4.95l-1.81,8.31l0.54,3.49l3.41,1.89v1.37l-1.61,2.37
			l0.53,7.86l-2.11,2.26v1.15l0.53,0.08l1.58-0.08l-1.04,2.6l1.9,1.08l-0.22,0.87l-1.08,1.03l-0.6,1.54l0.33,1.4l1.46,1.96
			l0.34,1.57l0.96,2.27l4.37,5.08l1.83,4.75l5.4,7.45l5.44,4.69l0.8,1.57l-1.57,0.5l-0.32,0.38l0.37,0.51l0.6,0.97l0.41,0.42
			l1.9,2.86l0.13,0.68l1.81,0.73l2.15,3.74l1.83,1.65l0.55-0.8l1.02-0.92l0.48-0.89h0.98l0.61,1.66l1.01,0.64L2589.69-304.91z"/>
	</g>
</g>
<g id="text">
	<g>
		<g>
			<path fill="#FFFFFF" d="M780.05,353.51c0-3.8,2.65-6.55,6.28-6.55c2.7,0,4.75,1.42,5.58,3.91l-1.73,0.58
				c-0.56-1.76-1.85-2.83-3.83-2.83c-2.59,0-4.5,2.09-4.5,4.9c0,2.9,1.91,4.9,4.56,4.9c2.03,0,3.24-1.12,3.74-2.57l1.71,0.56
				c-0.86,2.27-2.7,3.67-5.47,3.67C782.66,360.06,780.05,357.41,780.05,353.51z"/>
			<path fill="#FFFFFF" d="M802.74,356.62h-5.22l-1.17,3.19h-1.85l4.72-12.6h1.85l4.72,12.6h-1.85L802.74,356.62z M802.14,355
				l-2.02-5.42l-2,5.42H802.14z"/>
			<path fill="#FFFFFF" d="M809.36,347.2h1.8v12.6h-1.8V347.2z"/>
			<path fill="#FFFFFF" d="M815.73,347.2h4.36c2.7,0,4.1,1.6,4.1,3.67c0,2.05-1.28,3.21-2.63,3.56l3.13,5.37h-1.98l-2.97-5.13h-2.21
				v5.13h-1.8V347.2z M820.05,353.09c1.42,0,2.34-0.74,2.34-2.14c0-1.46-0.99-2.12-2.38-2.12h-2.49v4.27H820.05z"/>
			<path fill="#FFFFFF" d="M827.74,353.49c0-3.64,2.56-6.55,6.41-6.55c3.83,0,6.39,2.92,6.39,6.55c0,3.67-2.57,6.55-6.39,6.55
				C830.29,360.04,827.74,357.16,827.74,353.49z M838.74,353.49c0-2.79-1.87-4.9-4.59-4.9c-2.75,0-4.61,2.11-4.61,4.9
				c0,2.84,1.84,4.9,4.61,4.9C836.9,358.39,838.74,356.33,838.74,353.49z"/>
		</g>
	</g>
	<g>
		<g>
			<path fill="#FFFFFF" d="M327.18,494.77h7.78v1.62h-5.98v3.83h5.22v1.58h-5.22v3.94h5.98v1.62h-7.78V494.77z"/>
			<path fill="#FFFFFF" d="M338.36,501.07c0-3.71,2.68-6.55,6.32-6.55c2.79,0,4.57,1.44,5.35,3.47l-1.67,0.58
				c-0.56-1.4-1.69-2.39-3.6-2.39c-2.72,0-4.59,2.2-4.59,4.9c0,2.81,1.87,4.9,4.61,4.9c2.7,0,3.85-1.98,3.92-3.85h-2.93v-1.55h4.7
				v6.81h-1.28l-0.27-1.66c-0.4,0.63-1.75,1.91-4.2,1.91C340.99,507.63,338.36,504.91,338.36,501.07z"/>
			<path fill="#FFFFFF" d="M357.17,502.35l-4.32-7.58h1.96l3.24,5.8l3.26-5.8h1.96l-4.3,7.58v5.02h-1.8V502.35z"/>
			<path fill="#FFFFFF" d="M366.85,494.77h4.25c2.43,0,4.27,1.26,4.27,3.91c0,2.57-1.87,3.91-4.2,3.91h-2.52v4.79h-1.8V494.77z
				 M370.98,500.96c1.64,0,2.59-0.79,2.59-2.3c0-1.48-0.97-2.27-2.59-2.27h-2.32v4.57H370.98z"/>
			<path fill="#FFFFFF" d="M381.83,496.43h-3.75v-1.66h9.31v1.66h-3.76v10.95h-1.8V496.43z"/>
		</g>
	</g>
</g>
<g id="TEXT">
	<circle fill="#FFFFFF" cx="754.65" cy="351.76" r="13.5"/>
	<g>
		<path fill="#00DB85" d="M535.6,419.54h-7.4l-1.82,4.9h-2l6.52-17.5h2l6.55,17.5h-2.02L535.6,419.54z M534.95,417.79l-3.05-8.22
			l-3.05,8.22H534.95z"/>
		<path fill="#00DB85" d="M542.1,412.19h1.6l0.27,1.62c0.58-1.03,1.75-1.97,3.35-1.97c1.07,0,1.9,0.35,2.25,0.65l-0.77,1.62
			c-0.25-0.2-0.88-0.48-1.7-0.48c-1.7,0-3.1,1.55-3.1,3.92v6.87h-1.9V412.19z"/>
		<path fill="#00DB85" d="M552.52,418.84c0.1,2.42,1.77,4.32,4.22,4.32c1.95,0,3.3-1.12,3.7-2.38l1.67,0.53
			c-0.62,1.8-2.42,3.47-5.37,3.47c-3.75,0-6.1-2.92-6.1-6.47c0-3.52,2.57-6.47,6.07-6.47c3.42,0.02,5.75,2.42,5.75,6.17v0.83H552.52
			z M556.75,413.46c-2.42,0-3.9,1.72-4.2,3.8h8.15C560.55,415.14,558.97,413.46,556.75,413.46z"/>
		<path fill="#00DB85" d="M565.1,421.08c0-2.15,1.35-3.47,4.7-3.95l3.27-0.48v-0.4c0-1.82-0.98-2.82-3-2.82
			c-2.05,0-2.85,1.07-3.05,2.52l-1.72-0.45c0.47-2.32,2.12-3.67,4.77-3.67c3,0,4.9,1.52,4.9,4.4v8.2h-1.6l-0.23-1.27
			c-0.67,0.95-1.85,1.62-3.8,1.62C566.52,424.78,565.1,423.04,565.1,421.08z M573.07,420.01v-1.8l-3.05,0.45
			c-1.85,0.27-3.07,0.82-3.07,2.32c0,1.33,1.08,2.15,2.8,2.15C571.45,423.13,573.07,422.21,573.07,420.01z"/>
		<path fill="#00DB85" d="M586,406.94h10.6v1.75h-8.65v6.05h7.62v1.72h-7.62v6.22h8.65v1.75H586V406.94z"/>
	</g>
	<g>
		<path fill="#00DB85" d="M663.06,496.94h10.6v1.75h-8.65v6.05h7.62v1.72h-7.62v6.22h8.65v1.75h-10.6V496.94z"/>
		<path fill="#00DB85" d="M677.03,496.94h1.9v17.5h-1.9V496.94z"/>
		<path fill="#00DB85" d="M690.21,496.94h10.6v1.75h-8.65v6.47h7.65v1.72h-7.65v7.55h-1.95V496.94z"/>
		<path fill="#00DB85" d="M702.26,511.08c0-2.15,1.35-3.47,4.7-3.95l3.27-0.48v-0.4c0-1.82-0.97-2.82-3-2.82
			c-2.05,0-2.85,1.07-3.05,2.52l-1.72-0.45c0.47-2.32,2.12-3.67,4.77-3.67c3,0,4.9,1.52,4.9,4.4v8.2h-1.6l-0.23-1.27
			c-0.67,0.95-1.85,1.62-3.8,1.62C703.68,514.78,702.26,513.04,702.26,511.08z M710.23,510.01v-1.8l-3.05,0.45
			c-1.85,0.27-3.07,0.82-3.07,2.32c0,1.33,1.08,2.15,2.8,2.15C708.61,513.13,710.23,512.21,710.23,510.01z"/>
		<path fill="#00DB85" d="M726.21,502.19v12.27c0,2.7-1.4,5.52-5.37,5.52c-2.97,0-4.57-1.62-5.2-3.9l1.82-0.42
			c0.4,1.67,1.42,2.62,3.37,2.62c2.4,0,3.47-1.52,3.47-3.77v-1.85l-0.03-0.12c-1.05,1.32-2.2,1.97-4.22,1.97
			c-2.22,0-4.4-1.3-4.4-4.5v-7.82h1.9v7.2c0,2.6,1.3,3.35,3.05,3.35c2.02,0,3.7-1.42,3.7-3.87v-6.67H726.21z"/>
		<path fill="#00DB85" d="M740.15,514.43h-1.6l-0.3-1.65c-0.97,1.32-2.35,2-4.1,2c-2.4,0-4.2-1.37-4.2-4.57v-8.02h1.9v7.57
			c0,2.6,1.3,3.25,2.9,3.25c1.77,0,3.5-1.42,3.5-3.85v-6.97h1.9V514.43z"/>
		<path fill="#00DB85" d="M743.91,502.19h1.6l0.25,1.67c0.95-1.33,2.28-2.02,4-2.02c1.75,0,2.97,0.85,3.55,2.12
			c0.95-1.3,2.35-2.12,4.27-2.12c2.17,0,4.02,1.32,4.02,4.37v8.22h-1.9v-7.5c0-2.6-1.15-3.32-2.72-3.32c-1.72,0-3.27,1.35-3.27,3.87
			v6.95h-1.9v-7.5c0-2.6-1.25-3.32-2.7-3.32c-1.7,0-3.3,1.32-3.3,3.87v6.95h-1.9V502.19z"/>
		<path fill="#00DB85" d="M772.01,508.31c0-3.3,2.27-6.47,6.17-6.47c2.85,0,4.62,1.65,5.32,3.72l-1.72,0.6
			c-0.55-1.6-1.82-2.6-3.6-2.6c-2.52,0-4.27,2-4.27,4.75c0,2.75,1.75,4.75,4.27,4.75c1.75,0,3.07-1.05,3.62-2.7l1.72,0.6
			c-0.77,2.12-2.6,3.82-5.35,3.82C774.18,514.78,772.01,511.58,772.01,508.31z"/>
		<path fill="#00DB85" d="M786.13,508.31c0-3.22,2.33-6.47,6.25-6.47c4,0,6.3,3.25,6.3,6.47c0,3.2-2.3,6.47-6.3,6.47
			C788.36,514.78,786.13,511.51,786.13,508.31z M796.78,508.31c0-2.7-1.8-4.75-4.4-4.75c-2.57,0-4.35,2.05-4.35,4.75
			c0,2.67,1.78,4.75,4.35,4.75C794.98,513.06,796.78,510.99,796.78,508.31z"/>
		<path fill="#00DB85" d="M801.83,502.19h1.6l0.27,1.65c0.97-1.32,2.35-2,4.1-2c2.42,0,4.22,1.37,4.22,4.57v8.02h-1.9v-7.57
			c0-2.6-1.3-3.25-2.9-3.25c-1.8,0-3.5,1.42-3.5,3.85v6.97h-1.9V502.19z"/>
		<path fill="#00DB85" d="M815.18,508.31c0-3.3,2.27-6.47,6.17-6.47c2.85,0,4.62,1.65,5.32,3.72l-1.72,0.6
			c-0.55-1.6-1.82-2.6-3.6-2.6c-2.52,0-4.27,2-4.27,4.75c0,2.75,1.75,4.75,4.27,4.75c1.75,0,3.07-1.05,3.62-2.7l1.72,0.6
			c-0.77,2.12-2.6,3.82-5.35,3.82C817.36,514.78,815.18,511.58,815.18,508.31z"/>
		<path fill="#00DB85" d="M831.18,508.84c0.1,2.42,1.77,4.32,4.22,4.32c1.95,0,3.3-1.12,3.7-2.38l1.67,0.53
			c-0.62,1.8-2.42,3.47-5.37,3.47c-3.75,0-6.1-2.92-6.1-6.47c0-3.52,2.57-6.47,6.07-6.47c3.42,0.02,5.75,2.42,5.75,6.17v0.83H831.18
			z M835.41,503.46c-2.42,0-3.9,1.72-4.2,3.8h8.15C839.2,505.14,837.63,503.46,835.41,503.46z"/>
		<path fill="#00DB85" d="M843.48,511.04l1.72-0.55c0.35,1.15,0.97,2.62,3.3,2.62c1.65,0,2.87-0.67,2.87-1.97
			c0-0.7-0.15-1.58-2.85-2.02c-2.45-0.43-4.55-1.23-4.55-3.67c0-2.35,2.1-3.6,4.52-3.6c2.55,0,4.07,1.37,4.6,3.62l-1.75,0.45
			c-0.25-1.28-1.07-2.4-2.85-2.4c-2.12,0-2.7,1.05-2.7,1.9c0,1.22,1.32,1.62,3.05,1.95c2.52,0.45,4.37,1.35,4.37,3.75
			c0,2.25-2.15,3.67-4.72,3.67C845.93,514.78,844.21,513.56,843.48,511.04z"/>
		<path fill="#00DB85" d="M855.78,511.04l1.72-0.55c0.35,1.15,0.97,2.62,3.3,2.62c1.65,0,2.87-0.67,2.87-1.97
			c0-0.7-0.15-1.58-2.85-2.02c-2.45-0.43-4.55-1.23-4.55-3.67c0-2.35,2.1-3.6,4.52-3.6c2.55,0,4.07,1.37,4.6,3.62l-1.75,0.45
			c-0.25-1.28-1.07-2.4-2.85-2.4c-2.12,0-2.7,1.05-2.7,1.9c0,1.22,1.32,1.62,3.05,1.95c2.52,0.45,4.37,1.35,4.37,3.75
			c0,2.25-2.15,3.67-4.72,3.67S856.51,513.56,855.78,511.04z"/>
		<path fill="#00DB85" d="M868.36,498.79c0-0.8,0.62-1.42,1.45-1.42c0.78,0,1.4,0.62,1.4,1.42s-0.62,1.42-1.4,1.42
			C868.98,500.21,868.36,499.59,868.36,498.79z M868.86,502.19h1.9v12.25h-1.9V502.19z"/>
		<path fill="#00DB85" d="M874.06,508.31c0-3.22,2.33-6.47,6.25-6.47c4,0,6.3,3.25,6.3,6.47c0,3.2-2.3,6.47-6.3,6.47
			C876.28,514.78,874.06,511.51,874.06,508.31z M884.7,508.31c0-2.7-1.8-4.75-4.4-4.75c-2.57,0-4.35,2.05-4.35,4.75
			c0,2.67,1.78,4.75,4.35,4.75C882.9,513.06,884.7,510.99,884.7,508.31z"/>
		<path fill="#00DB85" d="M889.76,502.19h1.6l0.27,1.65c0.97-1.32,2.35-2,4.1-2c2.42,0,4.22,1.37,4.22,4.57v8.02h-1.9v-7.57
			c0-2.6-1.3-3.25-2.9-3.25c-1.8,0-3.5,1.42-3.5,3.85v6.97h-1.9V502.19z"/>
	</g>
</g>
<g id="Layer_1">
	<g>
		<g>
			<polygon fill-rule="evenodd" clip-rule="evenodd" fill="#00DB85" points="731.6,419.78 731.6,411.25 724.07,411.25 
				724.07,402.32 731.7,402.32 731.7,385.16 693.87,385.16 693.87,408.24 691.26,408.24 691.26,421.99 704.91,421.99 704.91,449.38 
				703.8,449.38 703.8,454.5 674.3,454.9 647.91,463.23 647.91,480.48 660.56,480.48 660.56,474.67 665.87,474.67 665.87,468.95 
				670.79,468.95 670.79,471.76 668.38,471.76 668.38,480.48 701.4,480.48 701.4,466.14 696.28,466.14 696.28,463.13 698.79,463.13 
				698.79,460.22 701.4,460.22 701.4,457.31 719.06,457.31 719.06,460.22 716.55,460.22 716.55,465.94 724.67,465.94 724.67,463.13 
				739.22,463.13 739.22,461.72 745.24,461.72 745.24,456.5 746.85,456.5 746.85,419.78 			"/>
		</g>
	</g>
	<path fill-rule="evenodd" clip-rule="evenodd" fill="#00DB85" d="M610.29,410.85h22.68l-10.13,5.92v2.71h-12.54V410.85z"/>
</g>
<g id="Layer_8">
</g>
</svg>
