<?xml version="1.0" encoding="utf-8"?>
<!-- Generator: Adobe Illustrator 24.2.3, SVG Export Plug-In . SVG Version: 6.00 Build 0)  -->
<svg version="1.1" id="Layer_1" xmlns="http://www.w3.org/2000/svg" xmlns:xlink="http://www.w3.org/1999/xlink" x="0px" y="0px"
	 viewBox="0 0 98.2 98.2" style="enable-background:new 0 0 98.2 98.2;" xml:space="preserve" width="98.2" height="98.2">
  <style>
    .st0,.st1{fill:#eb2127}.st1{display:none}
  </style>
  <path d="M24.9 8.5h2.7v4.3h-2.7zM31.4 13.4h2.7v4.3h-2.7zM24.9 18.3h2.7v4.3h-2.7zM31.4 23.2h2.7v4.3h-2.7zM24.9 29.8h2.7v4.3h-2.7zM31.4 34.7h2.7V39h-2.7zM31.4 44.5h2.7v4.3h-2.7zM38 8.5h2.7v4.3H38zM44.5 13.4h2.7v4.3h-2.7zM38 18.3h2.7v4.3H38zM44.5 23.2h2.7v4.3h-2.7zM38 29.8h2.7v4.3H38zM38 39.6h2.7v4.3H38zM44.5 34.7h2.7V39h-2.7zM44.5 44.5h2.7v4.3h-2.7zM60.9 23.2h2.7v4.3h-2.7zM60.9 33h2.7v4.3h-2.7zM60.9 42.9h2.7v4.3h-2.7zM60.9 52.7h2.7V57h-2.7zM60.9 62.5h2.7v4.3h-2.7zM60.9 72.3h2.7v4.3h-2.7zM60.9 82.2h2.7v4.3h-2.7zM67.4 28.1h2.7v4.3h-2.7zM67.4 77.2h2.7v4.3h-2.7zM67.4 87.1h2.7v4.3h-2.7zM28.1 82.2h2.7v4.3h-2.7zM75.8 28.9v-3.7l-7.3-4.6 1.2-1.9 7.7 5c.3.2.5.5.5.9V29h-2.1z" class="st0 solid"/>
  <path d="M1.6 97.7c-.6 0-1.1-.5-1.1-1.1v-4.9c0-1.1.3-2.1.8-3 1.1-1.9 3-3 5.2-3 1.1 0 2.1.3 3 .8l.7.4.1-.8c.1-1.2.4-2.2.9-3.2l.3-.5-.5-.3c-2.7-1.2-5.1-3.9-7-7.8C1.6 69 .4 63.2.5 57.3c0-4.5.6-8.8 1.9-12.9l2.2.7c-1.2 3.9-1.8 8-1.8 12.3 0 5.5 1.2 11 3.3 16 1.9 3.9 4.3 6.3 6.9 7.1l.6.2V61L8 56.8 9.4 55l5.4 4.1 5.5-5.5 1.6 1.6-5.9 5.9v18.1l.6-.2c.3-.1.7-.1 1.1-.1h2.5v-15c.1-.4.3-.7.5-.9l6.1-5.4v-.2c0-12.7-5.5-23.4-12-23.4-3.2 0-6.3 2.6-8.5 7.2l-2.1-1c2.7-5.4 6.6-8.6 10.6-8.6 7.4 0 13.4 9.6 14.2 22.8l.1 1 6.3-5.6c.2-.2.5-.3.8-.3.2 0 .4 0 .6.2L53 61.5V9.8c0-.2.1-.4.2-.6.2-.4.6-.5 1-.5.2 0 .5.1.7.2l4.8 3.1V2.8H19.2v24.5h-2.3V1.6c0-.6.5-1.1 1.1-1.1h42.6c.6 0 1.1.5 1.1 1.1v11.7l4 2.6-1.3 2-9.2-5.9v83.6h20.7V80.2c0-.2.1-.4.1-.6l.2-.3-.2-.2c-4.2-4.7-6.7-12.8-6.7-21.8 0-14.4 6.2-25.7 14.2-25.7s14.2 11.3 14.2 25.7c.1 6-1.1 11.8-3.6 17.1-1.9 3.8-4.3 6.5-7 7.8l-.5.2.3.5c.5.9.8 1.9.9 3.2l.1.8.7-.4c.9-.5 1.9-.8 3-.8 3.3 0 6 2.7 6 6.1v4.9c0 .6-.5 1.1-1.1 1.1H1.6zm90.1-9.8c-2.1 0-3.8 1.7-3.8 3.8v3.8h7.6v-3.8c0-2.1-1.7-3.8-3.8-3.8zm-13.6 7.6h7.5v-9.1c0-2.8-2.2-5-5-5h-2.5v14.1zM37.2 61.6l9.3 6.2c.3.2.5.6.5 1v26.7h5.9V64.4L37.2 53v8.6zm0 33.9h7.5V69.4l-7.5-5.1v31.2zM22.4 64.4v31.1h12.5V53.3L22.4 64.4zm-4.8 17c-2.8 0-5 2.2-5 5v9.1h7.5V81.4h-2.5zm-11 6.5c-2.1 0-3.8 1.7-3.8 3.8v3.8h7.6v-3.8c0-2.1-1.7-3.8-3.8-3.8zm78-26.8v19.4l.6-.2c2.6-.7 5-3.2 6.9-7.1 2.3-4.9 3.5-10.4 3.4-16 0-12.7-5.5-23.4-12-23.4s-12 10.7-12 23.4c0 9.2 3 18 7.6 21.8l.1.1h1.5c.4 0 .7 0 1.1.1l.6.2V61.2l-5.9-5.9 1.6-1.6 5.5 5.5 5.4-4.1 1.4 1.8-5.8 4.2z" class="st0 solid"/>
</svg>
