<?xml version="1.0" encoding="utf-8"?>
<!-- Generator: Adobe Illustrator 24.2.3, SVG Export Plug-In . SVG Version: 6.00 Build 0)  -->
<svg version="1.1" id="Layer_1" xmlns="http://www.w3.org/2000/svg" xmlns:xlink="http://www.w3.org/1999/xlink" x="0px" y="0px"
	 viewBox="0 0 116 116" style="enable-background:new 0 0 116 116;" xml:space="preserve" width="116" height="116">
<style type="text/css">
	.st0{fill:#EB2127;}
</style>
<path class="st0 solid" d="M57.7,102.4c-6.2,0-12.2-1.3-17.9-3.8c-0.3-0.1-0.6-0.4-0.7-0.8c-0.1-0.3-0.1-0.7,0-1c0.2-0.5,0.7-0.8,1.3-0.8
	c0.2,0,0.4,0,0.6,0.1c5.3,2.4,11,3.6,16.8,3.6l0,0c13.7,0,26.5-6.7,34.3-18c6.3-9.2,8.7-20.2,6.6-31.1c-2-10.9-8.2-20.4-17.3-26.7
	h-0.1c-0.6-0.4-0.7-1.3-0.3-1.9c0.3-0.4,0.7-0.6,1.1-0.6c0.3,0,0.5,0.1,0.8,0.2c17.6,12.1,24.1,35,15.4,54.5
	C91.2,92,75.2,102.4,57.7,102.4z"/>
<path class="st0 solid" d="M33.4,94.8c-0.3,0-0.5-0.1-0.8-0.2C15,82.5,8.5,59.6,17.2,40.1c7.1-16,23-26.4,40.6-26.4
	c6.2,0,12.2,1.3,17.9,3.8h0.1c0.7,0.3,1,1.1,0.6,1.8c-0.2,0.5-0.7,0.8-1.2,0.8c-0.2,0-0.4,0-0.6-0.1c-5.4-2.4-11-3.6-16.8-3.6
	c-13.7,0-26.5,6.7-34.3,18c-6.3,9.2-8.7,20.2-6.6,31.1c2,10.9,8.2,20.4,17.3,26.7l0,0c0.3,0.3,0.5,0.5,0.6,0.9s0,0.7-0.2,1
	C34.3,94.6,33.8,94.8,33.4,94.8z"/>
<path class="st0 solid" d="M22.2,94.9c-0.8,0-1.4-0.6-1.4-1.4s0.6-1.4,1.4-1.4H32v-9.8c0-0.8,0.6-1.4,1.4-1.4c0.8,0,1.4,0.6,1.4,1.4v11.2
	c0,0.8-0.6,1.4-1.4,1.4C33.4,94.9,22.2,94.9,22.2,94.9z"/>
<path class="st0 solid" d="M82,35.1c-0.8,0-1.4-0.6-1.4-1.4V22.6c0-0.8,0.6-1.4,1.4-1.4h11.2c0.8,0,1.4,0.6,1.4,1.4S94,24,93.2,24h-9.8
	v9.8C83.4,34.5,82.8,35.1,82,35.1L82,35.1z"/>
<path class="st0 solid" d="M55.9,61.3c-0.1,0-1.4-0.2-1.4-1.4v-1.8c0-9,7.3-16.3,16.3-16.3h7.5c0.7,0,1.3,0.6,1.4,1.3V45
	c0,9-7.3,16.3-16.3,16.3C63.4,61.3,55.9,61.3,55.9,61.3z M70.8,44.5c-7.5,0-13.6,6.1-13.6,13.6v0.5h6.1c7.5,0,13.6-6.1,13.6-13.6
	v-0.5H70.8z"/>
<path class="st0 solid" d="M69,78.1c-0.3,0-0.6-0.1-0.8-0.3c-3.7-2.3-7.9-3.5-12.3-3.5c-4.3,0-8.5,1.2-12.2,3.4c-0.3,0.2-0.6,0.3-0.9,0.3
	l0,0c-0.4,0-0.8-0.2-1.1-0.6c-0.4-0.6-0.3-1.5,0.3-1.9c0.1,0,5.3-4,13.9-4s13.8,4,13.9,4c0.3,0.3,0.5,0.6,0.5,0.9s-0.1,0.7-0.3,1
	C69.8,77.9,69.4,78.1,69,78.1z"/>
<path class="st0 solid" d="M55.9,74.4c-0.8,0-1.4-0.6-1.4-1.4V60c0-0.8,0.6-1.4,1.4-1.4c0.4,0,0.7,0.1,1,0.4s0.4,0.6,0.4,1v13
	C57.2,73.7,56.6,74.4,55.9,74.4L55.9,74.4z"/>
<path class="st0 solid" d="M50.3,63.2c-9,0-16.3-7.3-16.3-16.3c0-0.8,0.6-1.4,1.4-1.4H41c4.4,0,8.5,1.7,11.5,4.8c3.1,3.1,4.8,7.2,4.8,11.5
	c0,1.2-1.3,1.4-1.4,1.4H50.3z M36.8,48.8c1,6.6,6.7,11.6,13.4,11.6h4.2l-0.1-0.6c-1-6.6-6.7-11.6-13.4-11.6h-4.2L36.8,48.8z"/>
</svg>
