<svg xmlns="http://www.w3.org/2000/svg" width="112.704" height="84.16" viewBox="0 0 112.704 84.16">
  <g id="Group_6363" data-name="Group 6363" transform="translate(-1444.074 -1054.705)">
    <path id="Path_7172" data-name="Path 7172" d="M1492.659,1129.747a40.7,40.7,0,0,1-26.1-55.017,1.694,1.694,0,0,0,.117-.422,8.3,8.3,0,0,0,2.337-1.316c4.769-3.838,4.251-10.434.707-14.844-5.336,1.878-9.255,7.209-7.226,12.985a8.3,8.3,0,0,0,1.1,2.1,1.613,1.613,0,0,0-.1.192,43.513,43.513,0,0,0-2.3,6.974c-2.182-5.147-8.142-6.777-13.256-5.159-.179,5.655,3.372,11.236,9.49,11.437a8.345,8.345,0,0,0,2.772-.386,44.22,44.22,0,0,0-.016,8.662c.035.369.079.738.124,1.106-.059-.069-.119-.136-.179-.2-4.186-4.467-10.725-3.454-14.857.412,2.276,5.18,7.887,8.686,13.493,6.229a8.33,8.33,0,0,0,2.407-1.613,43.663,43.663,0,0,0,3.761,10.111c-4.832-2.06-10.124.5-12.886,4.857,3.5,4.443,9.813,6.428,14.625,2.644a8.353,8.353,0,0,0,1.746-1.891q.914,1.252,1.921,2.445a44.469,44.469,0,0,0,5.141,5.163c-4.989.036-8.834,4.148-9.886,9.018,4.821,2.961,11.431,2.646,14.64-2.566a8.3,8.3,0,0,0,.972-2.323,43.993,43.993,0,0,0,10.524,4.613,1.689,1.689,0,0,0,.465.067,1.667,1.667,0,0,0,.464-3.268Z" transform="translate(0 0.135)" fill="none" stroke="#eb2127" stroke-miterlimit="10" stroke-width="2"/>
    <g id="Group_6362" data-name="Group 6362" transform="translate(1484.089 1055.726)">
      <path id="Path_7173" data-name="Path 7173" d="M1493.331,1063.51a1.668,1.668,0,0,1-1.646-1.424l-.656-4.45a1.667,1.667,0,0,1,3.3-.486l.654,4.45a1.665,1.665,0,0,1-1.406,1.892A1.606,1.606,0,0,1,1493.331,1063.51Z" transform="translate(-1481.548 -1055.726)" fill="none" stroke="#eb2127" stroke-miterlimit="10" stroke-width="2"/>
      <path id="Path_7174" data-name="Path 7174" d="M1485.966,1067.5a1.667,1.667,0,0,1-1.419-.79l-2.251-3.639a1.667,1.667,0,0,1,2.835-1.754l2.25,3.638a1.667,1.667,0,0,1-1.415,2.545Z" transform="translate(-1482.046 -1055.459)" fill="none" stroke="#eb2127" stroke-miterlimit="10" stroke-width="2"/>
      <path id="Path_7175" data-name="Path 7175" d="M1502.167,1063.51a1.481,1.481,0,0,1-.244-.018,1.665,1.665,0,0,1-1.406-1.892l.656-4.45a1.666,1.666,0,1,1,3.3.486l-.654,4.45A1.668,1.668,0,0,1,1502.167,1063.51Z" transform="translate(-1481.021 -1055.726)" fill="none" stroke="#eb2127" stroke-miterlimit="10" stroke-width="2"/>
      <path id="Path_7176" data-name="Path 7176" d="M1509.617,1067.5a1.667,1.667,0,0,1-1.415-2.545l2.251-3.638a1.667,1.667,0,0,1,2.834,1.754l-2.251,3.639A1.665,1.665,0,0,1,1509.617,1067.5Z" transform="translate(-1480.607 -1055.459)" fill="none" stroke="#eb2127" stroke-miterlimit="10" stroke-width="2"/>
    </g>
    <path id="Path_7177" data-name="Path 7177" d="M1538.835,1102.492c5.606,2.458,11.217-1.049,13.493-6.229-4.133-3.865-10.671-4.879-14.857-.412-.06.066-.12.134-.18.2.044-.368.088-.737.123-1.106a44.211,44.211,0,0,0-.016-8.662,8.345,8.345,0,0,0,2.772.386c6.118-.2,9.67-5.782,9.49-11.437-5.113-1.617-11.073.012-13.256,5.159a43.505,43.505,0,0,0-2.3-6.974,1.689,1.689,0,0,0-.324-.491,8.221,8.221,0,0,0,.893-1.8c2.029-5.776-1.891-11.107-7.227-12.985-3.542,4.41-4.061,11.006.708,14.844a8.3,8.3,0,0,0,2.8,1.471,1.741,1.741,0,0,0,.087.267,40.69,40.69,0,0,1-26.1,55.017,1.667,1.667,0,0,0,.463,3.268,1.69,1.69,0,0,0,.466-.067,43.927,43.927,0,0,0,10.523-4.613,8.321,8.321,0,0,0,.973,2.323c3.209,5.212,9.819,5.527,14.64,2.566-1.052-4.869-4.9-8.982-9.886-9.018a44.576,44.576,0,0,0,5.141-5.163q1.007-1.192,1.921-2.445a8.323,8.323,0,0,0,1.746,1.891c4.811,3.784,11.122,1.8,14.625-2.644-2.763-4.355-8.054-6.917-12.886-4.857a43.663,43.663,0,0,0,3.761-10.111A8.314,8.314,0,0,0,1538.835,1102.492Z" transform="translate(3.248 0.135)" fill="none" stroke="#eb2127" stroke-miterlimit="10" stroke-width="2"/>
    <text id="_" data-name="+" transform="translate(1520.177 1121.865)" fill="none" stroke="#eb2127" stroke-width="2" font-size="69" font-family="Arial-BoldMT, Arial" font-weight="700"><tspan x="-40.295" y="0">+</tspan></text>
  </g>
</svg>
