<svg xmlns="http://www.w3.org/2000/svg" width="51.215" height="82.365" viewBox="0 0 51.215 82.365">
  <g id="Group_8495" data-name="Group 8495" transform="translate(-225.046 -317.846)">
    <path id="Path_65119" data-name="Path 65119" d="M242,394.939v18.8c-2.924.418-3.227,2.809-6.727,2.809-3.831,0-3.831-2.881-7.677-2.881H226.15l5.388-20.339a3.425,3.425,0,0,0,1.095.173,3.6,3.6,0,0,0,3.6-3.6v-10.8A5.754,5.754,0,0,1,242,373.333Z" transform="translate(0 -25.828)" fill="#fff" stroke="#eb2127" stroke-miterlimit="10" stroke-width="1.7"/>
    <path id="Path_65120" data-name="Path 65120" d="M292.814,372.35l12.013,40.85h-1.441c-3.846,0-3.846,2.881-7.692,2.881-3.485,0-3.8-2.377-6.712-2.809v-40.4A14.07,14.07,0,0,0,292.814,372.35Z" transform="translate(-29.703 -25.363)" fill="#fff" stroke="#eb2127" stroke-miterlimit="10" stroke-width="1.7"/>
    <path id="Path_65121" data-name="Path 65121" d="M281.235,430.525v7.188a4.251,4.251,0,0,1-4.249,4.264h-.145a4.247,4.247,0,0,1-4.249-4.249V408.847h8.643Z" transform="translate(-21.954 -42.616)" fill="#fff" stroke="#eb2127" stroke-miterlimit="10" stroke-width="1.7"/>
    <path id="Path_65122" data-name="Path 65122" d="M264.844,437.713v.014a4.248,4.248,0,0,1-4.25,4.249h-.129a4.251,4.251,0,0,1-4.264-4.249V408.847h8.643Z" transform="translate(-14.206 -42.616)" fill="#fff" stroke="#eb2127" stroke-miterlimit="10" stroke-width="1.7"/>
    <path id="Path_65123" data-name="Path 65123" d="M273.372,341.743a14.254,14.254,0,0,1-7.678,5.244,14.07,14.07,0,0,1-3.831.518v18.726H244.578V347.5a5.754,5.754,0,0,0-5.762,5.762v10.8a3.6,3.6,0,0,1-3.6,3.6,3.425,3.425,0,0,1-1.095-.173,3.505,3.505,0,0,1-1.455-.879,3.606,3.606,0,0,1-1.051-2.549v-10.8a15.122,15.122,0,0,1,.274-2.823,14.431,14.431,0,0,1,14.13-11.581h15.845a7.2,7.2,0,0,0,7.2-7.2V322.3a3.6,3.6,0,1,1,7.2,0v10.8a14.309,14.309,0,0,1-2.9,8.642Z" transform="translate(-2.583)" fill="#fff" stroke="#eb2127" stroke-miterlimit="10" stroke-width="1.7"/>
    <path id="Path_65124" data-name="Path 65124" d="M271.546,322.657a9.887,9.887,0,0,1,2.089,6.122,10.083,10.083,0,1,1-15.067-8.758,10.043,10.043,0,0,1,12.978,2.636Z" transform="translate(-12.914)" fill="#fff" stroke="#eb2127" stroke-miterlimit="10" stroke-width="1.7"/>
  </g>
</svg>
