<svg xmlns="http://www.w3.org/2000/svg" width="103.475" height="122.348" viewBox="0 0 103.475 122.348">
  <g id="Group_4952" data-name="Group 4952" transform="translate(-88.904 -2956.652)">
    <path id="Path_3300" data-name="Path 3300" d="M384,152h8.339v4.169H384Z" transform="translate(-209.858 2838.442)" fill="#fff"/>
    <path id="Path_3301" data-name="Path 3301" d="M292.169,32v4.169H288v4.169h4.169v4.169h4.169V40.339h4.169V36.169h-4.169V32Z" transform="translate(-138.875 2927.171)" fill="#fff"/>
    <g id="Group_4744" data-name="Group 4744" transform="translate(140.235 2992.254)">
      <path id="Path_3996" data-name="Path 3996" d="M279.89,442.163h-9.2V416.185h9.2Zm-8.388-.813h7.576V417H271.5Z" transform="translate(-270.689 -416.185)" fill="#fff" stroke="#fff" stroke-width="2"/>
    </g>
    <g id="Group_4745" data-name="Group 4745" transform="translate(131.847 3000.642)">
      <path id="Path_3997" data-name="Path 3997" d="M269.57,444.1h-9.2V426.5h9.2Zm-8.388-.813h7.576V427.318h-7.576Z" transform="translate(-260.369 -426.505)" fill="#fff" stroke="#fff" stroke-width="2"/>
    </g>
    <g id="Group_4746" data-name="Group 4746" transform="translate(123.458 3006.934)">
      <path id="Path_3998" data-name="Path 3998" d="M259.25,445.544h-9.2v-11.3h9.2Zm-8.389-.813h7.576v-9.672h-7.576Z" transform="translate(-250.048 -434.246)" fill="#fff" stroke="#fff" stroke-width="2"/>
    </g>
    <g id="Group_4747" data-name="Group 4747" transform="translate(148.623 2985.963)">
      <path id="Path_3999" data-name="Path 3999" d="M290.211,440.715h-9.2v-32.27h9.2Zm-8.389-.813H289.4V409.258h-7.576Z" transform="translate(-281.009 -408.445)" fill="#fff" stroke="#fff" stroke-width="2"/>
    </g>
    <g id="Group_4751" data-name="Group 4751" transform="translate(102.487 3056.216)">
      <path id="Path_4002" data-name="Path 4002" d="M250.226,516.661H224.248V494.877h25.978Zm-25.165-.813h24.352V495.69H225.061Z" transform="translate(-224.248 -494.877)" fill="#fff" stroke="#fff" stroke-width="2"/>
    </g>
    <g id="Group_4752" data-name="Group 4752" transform="translate(94.098 2957.652)">
      <path id="Path_4003" data-name="Path 4003" d="M260.47,466.7a46.572,46.572,0,0,1-29.953-10.929l-.075-.083a13.663,13.663,0,0,0-3.754-3.737l-.181-.12,0-8.605a3.787,3.787,0,0,0-6.924-2.123l-.389.572-.311-.618q-.377-.751-.727-1.515l-.037-.169v-8.73a3.77,3.77,0,0,0-3.387-3.745l-.315-.033-.044-.315a47.2,47.2,0,0,1-.448-6.391,46.6,46.6,0,0,1,46.543-46.543h.406V391.2h-.406a28.954,28.954,0,1,0,28.953,28.954v-.406h17.59v.406a47.062,47.062,0,0,1-.449,6.391l-.043.315-.316.033a3.77,3.77,0,0,0-3.387,3.745l-.037,8.9q-.351.763-.728,1.514l-.311.617-.388-.571a3.787,3.787,0,0,0-6.924,2.123l0,8.605-.181.12a13.661,13.661,0,0,0-3.753,3.737l-.075.083A46.572,46.572,0,0,1,260.47,466.7Zm-29.386-11.514a45.7,45.7,0,0,0,58.773,0,14.463,14.463,0,0,1,3.763-3.788l0-8.172a4.6,4.6,0,0,1,7.994-3.107q.2-.416.394-.835v-8.642a4.579,4.579,0,0,1,3.8-4.509,46.278,46.278,0,0,0,.4-5.57H290.234a29.766,29.766,0,1,1-30.17-30.17V374.428a45.676,45.676,0,0,0-44.924,51.706,4.579,4.579,0,0,1,3.794,4.509v8.641q.194.421.4.836a4.6,4.6,0,0,1,7.994,3.107l0,8.172A14.454,14.454,0,0,1,231.084,455.185Z" transform="translate(-213.927 -373.614)" fill="#fff" stroke="#fff" stroke-width="2"/>
    </g>
    <g id="Group_4753" data-name="Group 4753" transform="translate(152.817 3056.216)">
      <path id="Path_4004" data-name="Path 4004" d="M312.147,516.661H286.169V494.877h25.978Zm-25.166-.813h24.353V495.69H286.982Z" transform="translate(-286.169 -494.877)" fill="#fff" stroke="#fff" stroke-width="2"/>
    </g>
    <g id="Group_4754" data-name="Group 4754" transform="translate(127.652 3048.594)">
      <rect id="Rectangle_1046" data-name="Rectangle 1046" width="0.813" height="10.418" transform="translate(0 0)" fill="#fff" stroke="#fff" stroke-width="2"/>
    </g>
    <g id="Group_4755" data-name="Group 4755" transform="translate(152.818 3048.594)">
      <rect id="Rectangle_1047" data-name="Rectangle 1047" width="0.813" height="10.418" transform="translate(0 0)" fill="#fff" stroke="#fff" stroke-width="2"/>
    </g>
    <g id="Group_4756" data-name="Group 4756" transform="translate(89.904 3010.079)">
      <path id="Path_4005" data-name="Path 4005" d="M231.835,484.252h-9.956l-2.208-1.472a22.617,22.617,0,0,1-10.092-18.856V442.717a3.788,3.788,0,0,1,7.575,0V455.3h.813a3.788,3.788,0,0,1,7.576,0l0,8.605.181.12a13.7,13.7,0,0,1,6.112,11.42v2h.813v-2a14.5,14.5,0,0,0-6.294-11.974l0-8.172a4.6,4.6,0,0,0-8.389-2.608v-9.975a4.6,4.6,0,1,0-9.2,0v21.208a23.429,23.429,0,0,0,10.454,19.533l2.412,1.609h11.015Z" transform="translate(-208.767 -438.116)" fill="#fff" stroke="#fff" stroke-width="2"/>
    </g>
    <g id="Group_4757" data-name="Group 4757" transform="translate(167.498 3010.079)">
      <path id="Path_4006" data-name="Path 4006" d="M323.51,438.116a4.607,4.607,0,0,0-4.6,4.6v9.975a4.6,4.6,0,0,0-8.388,2.608l0,8.172a14.506,14.506,0,0,0-6.293,11.974v2c.271,0,.813,0,.813,0v-2a13.7,13.7,0,0,1,6.112-11.42l.181-.12,0-8.605a3.788,3.788,0,1,1,7.575,0h.813V442.717a3.788,3.788,0,0,1,7.576,0v21.208a22.617,22.617,0,0,1-10.092,18.856L315,484.253h-9.956l-.813.813h11.015l2.412-1.609a23.43,23.43,0,0,0,10.454-19.533V442.717A4.606,4.606,0,0,0,323.51,438.116Z" transform="translate(-304.23 -438.116)" fill="#fff" stroke="#fff" stroke-width="2"/>
    </g>
  </g>
</svg>
