<svg xmlns="http://www.w3.org/2000/svg" width="119.995" height="120" viewBox="0 0 119.995 120">
  <g id="Group_4956" data-name="Group 4956" transform="translate(-25.107 -25.201)">
    <path id="Path_3288" data-name="Path 3288" d="M131.643,286.778l-.617.333c-2.49-3.021-6.8-4.192-10.09-2.527l-.035.018-1.455.783a11.051,11.051,0,0,0-12.655-1.143L98.956,288.5H88.529a15.064,15.064,0,0,1-6.52-1.494l-1.435-.694a24.606,24.606,0,0,0-25.608,2.5c-.034.026-.067.052-.1.081L51.4,291.981a12.008,12.008,0,0,1-4.532,2.526l-1.967-6.456a1.559,1.559,0,0,0-1.492-1.1H26.666a1.559,1.559,0,0,0-1.548,1.747L30.7,334.469a1.559,1.559,0,0,0,1.548,1.371h25.12a1.559,1.559,0,0,0,1.491-2.014L55.561,323l10.278-6.5a6.184,6.184,0,0,1,4.513-.584c.032.008.065.015.1.021l20.907,3.85a27.052,27.052,0,0,0,16.718-2.36,1.559,1.559,0,0,0,.191-.112l36.161-24.829a1.559,1.559,0,0,0,.453-2.089A9.926,9.926,0,0,0,131.643,286.778Zm-9.281.579c1.9-.952,4.293-.172,5.822,1.287l-13.712,7.4-.806.424a11.883,11.883,0,0,0-1.878-3.412Zm-14.061-.386c.012-.007.026-.014.037-.021a7.93,7.93,0,0,1,8.065.076l-6.972,3.754a11.841,11.841,0,0,0-4.454-2ZM33.628,332.722l-5.2-42.657H42.258l13.006,42.657Zm72.961-18.042a23.918,23.918,0,0,1-14.676,2.04l-20.856-3.841a9.3,9.3,0,0,0-6.778.919c-.024.013-.048.027-.072.043L54.615,319.9l-6.834-22.412a15.143,15.143,0,0,0,5.7-3.185l3.414-3.04a21.5,21.5,0,0,1,22.326-2.148l1.434.694a18.2,18.2,0,0,0,7.878,1.8h13.908a8.8,8.8,0,0,1,8.627,7.143l-10.081-.456a60.357,60.357,0,0,0-10.97.507,1.559,1.559,0,0,0,.427,3.088,57.13,57.13,0,0,1,10.4-.48l11.864.536.07,0a1.559,1.559,0,0,0,1.559-1.559c0-.252-.01-.5-.026-.751l1.627-.857,17.189-9.27a6.811,6.811,0,0,1,8.2,1.314Z" transform="translate(0 -190.638)" fill="#fff"/>
    <path id="Path_3289" data-name="Path 3289" d="M76.974,436.208a4.909,4.909,0,1,0,4.908-4.908A4.908,4.908,0,0,0,76.974,436.208Zm4.908-1.79a1.79,1.79,0,1,1-1.79,1.79,1.79,1.79,0,0,1,1.79-1.79Z" transform="translate(-38.389 -300.574)" fill="#fff"/>
    <path id="Path_3290" data-name="Path 3290" d="M234.2,42.119V36.981a11.834,11.834,0,0,0-23.669,0v5.138a11.834,11.834,0,0,0,23.669,0Zm-20.551,0V36.981a8.716,8.716,0,0,1,17.432,0v5.138a8.716,8.716,0,0,1-17.432,0Z" transform="translate(-137.245 0)" fill="#fff"/>
    <path id="Path_3291" data-name="Path 3291" d="M99.277,170.054h38.151a1.559,1.559,0,0,0,1.559-1.559h0v-3.579H165.1a1.559,1.559,0,0,0,1.559-1.559V153.238a11.686,11.686,0,0,0-10.942-11.655,1.819,1.819,0,0,0-1.606.888,7.155,7.155,0,0,1-11.289-.276,1.559,1.559,0,0,0-1.292-.632,11.559,11.559,0,0,0-5.735,1.673,13.106,13.106,0,0,0-9.147-4.537,1.9,1.9,0,0,0-1.607.935,8.4,8.4,0,0,1-13.247-.324,1.553,1.553,0,0,0-1.292-.632,13.045,13.045,0,0,0-9.054,3.949c-.2.2-.384.41-.566.622a11.588,11.588,0,0,0-5.316-1.668,1.822,1.822,0,0,0-1.605.888,7.154,7.154,0,0,1-11.288-.276,1.565,1.565,0,0,0-1.293-.632A11.681,11.681,0,0,0,70,153.238v10.119a1.559,1.559,0,0,0,1.559,1.559H97.717V168.5A1.559,1.559,0,0,0,99.277,170.054Zm41.593-25.324a10.274,10.274,0,0,0,15.383.04,8.572,8.572,0,0,1,7.293,8.468v8.56H138.987v-10a13.039,13.039,0,0,0-1.441-5.969A8.429,8.429,0,0,1,140.869,144.73Zm-31.034-2.886a11.515,11.515,0,0,0,17.392.042,10.014,10.014,0,0,1,8.643,9.911v15.14H100.836V151.8A10.072,10.072,0,0,1,109.835,141.845ZM73.118,161.8v-8.56a8.621,8.621,0,0,1,7.6-8.507,10.272,10.272,0,0,0,15.38.039,8.51,8.51,0,0,1,3.043,1.074,13.061,13.061,0,0,0-1.426,5.953v10Z" transform="translate(-33.228 -83.991)" fill="#fff"/>
    <path id="Path_3292" data-name="Path 3292" d="M352.236,65.311v-4.5a10.553,10.553,0,0,0-21.106,0v4.5a10.553,10.553,0,0,0,21.106,0Zm-17.987,0v-4.5a7.435,7.435,0,0,1,14.869,0v4.5a7.435,7.435,0,1,1-14.869,0Z" transform="translate(-226.504 -18.548)" fill="#fff"/>
    <path id="Path_3293" data-name="Path 3293" d="M120.751,65.311v-4.5a10.553,10.553,0,0,0-21.106,0v4.5a10.553,10.553,0,0,0,21.106,0Zm-17.988,0v-4.5a7.435,7.435,0,0,1,14.87,0v4.5a7.435,7.435,0,0,1-14.87,0Z" transform="translate(-55.169 -18.548)" fill="#fff"/>
  </g>
</svg>
