<svg xmlns="http://www.w3.org/2000/svg" width="120.789" height="122.792" viewBox="0 0 120.789 122.792">
  <g id="Group_4951" data-name="Group 4951" transform="translate(-1.51 -271.416)">
    <path id="Path_3989" data-name="Path 3989" d="M33.716,407.531H54.949l-.832-9.039a12.008,12.008,0,0,0-6.709-9.7l-11.272-5.474L26.117,372.729a2.927,2.927,0,0,0-3.636-.495,2.868,2.868,0,0,0-1,3.806l3.207,4.984-7.2-3.509-5.657-7.291-3.635-8a2.709,2.709,0,0,0-5.077,1.846L5.6,372.99c1.046,3.3,4.986,11.02,7.449,13.45,5.385,5.311,15.12,10.6,17.944,13.655A10.749,10.749,0,0,1,33.716,407.531Z" transform="translate(0 -25.726)" fill="none" stroke="#fff" stroke-miterlimit="10" stroke-width="3"/>
    <path id="Path_3990" data-name="Path 3990" d="M45.03,427.015H67.152a2.381,2.381,0,0,1,2.381,2.381v6.14a2.38,2.38,0,0,1-2.381,2.381H45.03a2.381,2.381,0,0,1-2.382-2.381V429.4A2.381,2.381,0,0,1,45.03,427.015Z" transform="translate(-11.632 -45.209)" fill="none" stroke="#fff" stroke-miterlimit="10" stroke-width="3"/>
    <path id="Path_3991" data-name="Path 3991" d="M117.444,407.531H96.211l.832-9.039a12.008,12.008,0,0,1,6.711-9.7l11.271-5.474,10.018-10.589a2.927,2.927,0,0,1,3.636-.495,2.869,2.869,0,0,1,1,3.806l-3.208,4.984,7.2-3.509,5.658-7.291,3.635-8a2.71,2.71,0,0,1,5.079,1.846l-2.478,8.917c-1.047,3.3-4.986,11.02-7.45,13.45-5.385,5.311-15.119,10.6-17.944,13.655A10.749,10.749,0,0,0,117.444,407.531Z" transform="translate(-27.354 -25.726)" fill="none" stroke="#fff" stroke-miterlimit="10" stroke-width="3"/>
    <path id="Path_3992" data-name="Path 3992" d="M116.536,427.015H94.414a2.382,2.382,0,0,0-2.382,2.381v6.14a2.381,2.381,0,0,0,2.382,2.381h22.122a2.381,2.381,0,0,0,2.382-2.381V429.4A2.381,2.381,0,0,0,116.536,427.015Z" transform="translate(-26.127 -45.209)" fill="none" stroke="#fff" stroke-miterlimit="10" stroke-width="3"/>
    <path id="Path_3993" data-name="Path 3993" d="M78.745,274.023a39.913,39.913,0,1,0,29.935,47.854A39.911,39.911,0,0,0,78.745,274.023Z" transform="translate(-7.879)" fill="none" stroke="#fff" stroke-miterlimit="10" stroke-width="3"/>
    <path id="Path_3994" data-name="Path 3994" d="M72.8,325.965c-4.605-1.174-7.717-15.937-17.769-13.442-3.217.8-11.994-6.492-11.07-8.582,2.242-5.075-2.349-6.846.034-9.828,1.295-1.623,2.9-3.414,4.991-1.648s1.321,5.44,3.191,5.8,3.145-3.988,4.268-6.442c4.042-8.837,15.44-5.972,19.151-9.5,2.822-2.683,3.971-5.933,3.517-8.319a39.909,39.909,0,0,0-47.6,29.4c3.57,5.886,11.884,10.817,14.563,12.649a2.014,2.014,0,0,1,.607,2.686c-1.528,2.593-3.628,7.8,1.053,11.662,6.48,5.349,6.476,7.829,3.84,13.362-.665,1.4-1.165,2.572-1.546,3.566a39.831,39.831,0,0,0,9.3,3.974,26.124,26.124,0,0,1,9.282-7.888C72.476,341.7,80.174,342.2,82.063,334,82.96,330.1,77.4,327.14,72.8,325.965Z" transform="translate(-8.362 -0.001)" fill="none" stroke="#fff" stroke-miterlimit="10" stroke-width="3"/>
    <path id="Path_3995" data-name="Path 3995" d="M132.657,324.125a39.931,39.931,0,0,0-18.819-43.467c-2.48,6.293,5.132,8.88,4.324,10.953a4.349,4.349,0,0,0,.225,2.914,3.585,3.585,0,0,1-1.084,4.018c-2.048,1.662-4.824,4.369-5.364,7.184-1.324,6.914,1.04,9.809,3.605,11.925,3.972,3.28,6.98,2.131,8.6,4.538,3.506,5.217-12.748,19.027-7.279,25.518A39.759,39.759,0,0,0,132.657,324.125Z" transform="translate(-31.859 -2.249)" fill="none" stroke="#fff" stroke-miterlimit="10" stroke-width="3"/>
  </g>
</svg>
