<svg xmlns="http://www.w3.org/2000/svg" width="78.483" height="73.471" viewBox="0 0 78.483 73.471">
  <g id="Group_4776" data-name="Group 4776" transform="translate(-263.079 -78.258)">
    <g id="Group_4771" data-name="Group 4771" transform="translate(263.929 79.108)">
      <path id="Path_4052" data-name="Path 4052" d="M323.758,79.108a9.938,9.938,0,0,0-9.938,9.938v4.019a3.169,3.169,0,0,1,2.532-.828v-.5a.678.678,0,0,1,.726-.675,17.79,17.79,0,0,0,10.709-2.876.678.678,0,0,1,.866.106c2.527,2.717,2.512,2.612,2.512,2.967v.973a3.006,3.006,0,0,1,2.531.74v-3.93A9.937,9.937,0,0,0,323.758,79.108Z" transform="translate(-285.461 -79.108)" fill="#fff" stroke="#ec2227" stroke-miterlimit="10" stroke-width="1.7"/>
      <path id="Path_4053" data-name="Path 4053" d="M344.307,101.54v5.465c0,.059,0,.118,0,.177a2.878,2.878,0,1,0,0-5.642Z" transform="translate(-298.616 -88.773)" fill="#fff" stroke="#ec2227" stroke-miterlimit="10" stroke-width="1.7"/>
      <path id="Path_4054" data-name="Path 4054" d="M315.692,107.017v-5.477a3.037,3.037,0,0,0-3.453,2.826,2.906,2.906,0,0,0,3.457,2.828C315.694,107.136,315.692,107.077,315.692,107.017Z" transform="translate(-284.778 -88.778)" fill="#fff" stroke="#ec2227" stroke-miterlimit="10" stroke-width="1.7"/>
      <path id="Path_4055" data-name="Path 4055" d="M328.324,122.418a7.664,7.664,0,0,1-4.171-1.178v4.072l4.153,5.126,4.152-5.126V121.13A7.26,7.26,0,0,1,328.324,122.418Z" transform="translate(-289.92 -97.244)" fill="#fff" stroke="#ec2227" stroke-miterlimit="10" stroke-width="1.7"/>
      <path id="Path_4056" data-name="Path 4056" d="M332.027,132.127l-10.986-4.255L316.889,133l-4.153-5.126-10.974,4.255a6.96,6.96,0,0,0-4.063,6.3V156.6a1.354,1.354,0,0,0,1.354,1.354h35.684a1.354,1.354,0,0,0,1.354-1.354V138.429A6.96,6.96,0,0,0,332.027,132.127Z" transform="translate(-278.503 -100.153)" fill="#fff" stroke="#ec2227" stroke-miterlimit="10" stroke-width="1.7"/>
      <path id="Path_4057" data-name="Path 4057" d="M300.789,159.354V139.638a6.717,6.717,0,0,1,2.591-5.385l-1.618.628a6.96,6.96,0,0,0-4.063,6.3v18.172a1.354,1.354,0,0,0,1.354,1.353h3.09A1.354,1.354,0,0,1,300.789,159.354Z" transform="translate(-278.503 -102.907)" fill="#fff" stroke="#ec2227" stroke-miterlimit="10" stroke-width="1.7"/>
      <path id="Path_4058" data-name="Path 4058" d="M333.088,97.461c0-.355.015-.25-2.513-2.967a.676.676,0,0,0-.866-.105A17.791,17.791,0,0,1,319,97.265a.678.678,0,0,0-.726.675v5.937a7.408,7.408,0,0,0,14.814,0Z" transform="translate(-287.383 -85.655)" fill="#fff" stroke="#ec2227" stroke-miterlimit="10" stroke-width="1.7"/>
      <g id="Group_4765" data-name="Group 4765" transform="translate(30.272 27.719)">
        <path id="Path_4059" data-name="Path 4059" d="M336.473,135.632l3.105-6.223-3.967-1.536L331.459,133l4.048,2.875A.655.655,0,0,0,336.473,135.632Z" transform="translate(-323.345 -127.872)" fill="#fff" stroke="#ec2227" stroke-miterlimit="10" stroke-width="1.7"/>
        <path id="Path_4060" data-name="Path 4060" d="M320.29,135.632l-3.105-6.223,3.967-1.536L325.3,133l-4.049,2.875A.655.655,0,0,1,320.29,135.632Z" transform="translate(-317.185 -127.872)" fill="#fff" stroke="#ec2227" stroke-miterlimit="10" stroke-width="1.7"/>
      </g>
      <path id="Path_4061" data-name="Path 4061" d="M332.475,159.974,329.81,144.2H326.7l-2.665,15.772a.689.689,0,0,0,.159.55h0l3.679,4.054a.516.516,0,0,0,.765,0l3.68-4.054h0A.689.689,0,0,0,332.475,159.974Z" transform="translate(-289.866 -107.201)" fill="#fff" stroke="#ec2227" stroke-miterlimit="10" stroke-width="1.7"/>
      <g id="Group_4766" data-name="Group 4766" transform="translate(35.442 32.845)">
        <path id="Path_4062" data-name="Path 4062" d="M329.229,136.893v0l0,0,0,0v0l-2.945,2.091,1.392,2.095h3.111l1.392-2.095Z" transform="translate(-326.279 -136.89)" fill="#fff" stroke="#ec2227" stroke-miterlimit="10" stroke-width="1.7"/>
      </g>
      <path id="Path_4063" data-name="Path 4063" d="M357.529,103.684a9.938,9.938,0,0,0-9.938,9.938v4.018a3.169,3.169,0,0,1,2.531-.827v-.5a.677.677,0,0,1,.726-.675,17.789,17.789,0,0,0,10.709-2.876.678.678,0,0,1,.866.106c2.527,2.717,2.512,2.611,2.512,2.967v.973a3,3,0,0,1,2.531.74v-3.93A9.937,9.937,0,0,0,357.529,103.684Z" transform="translate(-300.035 -89.714)" fill="#fff" stroke="#ec2227" stroke-miterlimit="10" stroke-width="1.7"/>
      <path id="Path_4064" data-name="Path 4064" d="M378.078,126.116v5.465c0,.059,0,.118,0,.177a2.878,2.878,0,1,0,0-5.642Z" transform="translate(-313.19 -99.379)" fill="#fff" stroke="#ec2227" stroke-miterlimit="10" stroke-width="1.7"/>
      <path id="Path_4065" data-name="Path 4065" d="M349.462,131.593v-5.477a3.037,3.037,0,0,0-3.453,2.826,2.906,2.906,0,0,0,3.457,2.828C349.464,131.712,349.462,131.652,349.462,131.593Z" transform="translate(-299.352 -99.385)" fill="#fff" stroke="#ec2227" stroke-miterlimit="10" stroke-width="1.7"/>
      <path id="Path_4066" data-name="Path 4066" d="M352.083,127.244v-1.109" transform="translate(-301.974 -99.404)" fill="#fff" stroke="#ec2227" stroke-miterlimit="10" stroke-width="1.7"/>
      <path id="Path_4067" data-name="Path 4067" d="M352.087,135.3c0-.059,0-.118,0-.177v-.85h0" transform="translate(-301.974 -102.917)" fill="#fff" stroke="#ec2227" stroke-miterlimit="10" stroke-width="1.7"/>
      <path id="Path_4068" data-name="Path 4068" d="M362.094,146.994a7.669,7.669,0,0,1-4.171-1.178v4.071l4.153,5.126,4.152-5.126v-4.181A7.26,7.26,0,0,1,362.094,146.994Z" transform="translate(-304.494 -107.85)" fill="#fff" stroke="#ec2227" stroke-miterlimit="10" stroke-width="1.7"/>
      <path id="Path_4069" data-name="Path 4069" d="M361.013,147.007a7.5,7.5,0,0,1-3.09-1.108v4.071l3.09,3.814Z" transform="translate(-304.494 -107.933)" fill="#fff" stroke="#ec2227" stroke-miterlimit="10" stroke-width="1.7"/>
      <path id="Path_4070" data-name="Path 4070" d="M365.8,156.7l-10.986-4.255-4.152,5.126-4.153-5.126L335.532,156.7a6.96,6.96,0,0,0-4.063,6.3v18.171a1.354,1.354,0,0,0,1.354,1.355h35.684a1.355,1.355,0,0,0,1.354-1.355V163A6.96,6.96,0,0,0,365.8,156.7Z" transform="translate(-293.077 -110.759)" fill="#fff" stroke="#ec2227" stroke-miterlimit="10" stroke-width="1.7"/>
      <path id="Path_4071" data-name="Path 4071" d="M364.345,119.07a.677.677,0,0,0-.866-.106,17.792,17.792,0,0,1-10.71,2.876.678.678,0,0,0-.726.675v5.937a7.408,7.408,0,0,0,14.814,0v-6.416C366.857,121.682,366.873,121.787,364.345,119.07Z" transform="translate(-301.957 -96.261)" fill="#fff" stroke="#ec2227" stroke-miterlimit="10" stroke-width="1.7"/>
      <g id="Group_4767" data-name="Group 4767" transform="translate(49.468 41.688)">
        <path id="Path_4072" data-name="Path 4072" d="M370.243,160.207l3.105-6.224-3.967-1.536-4.152,5.126,4.049,2.876A.655.655,0,0,0,370.243,160.207Z" transform="translate(-357.115 -152.447)" fill="#fff" stroke="#ec2227" stroke-miterlimit="10" stroke-width="1.7"/>
        <path id="Path_4073" data-name="Path 4073" d="M354.06,160.207l-3.105-6.224,3.967-1.536,4.152,5.126-4.048,2.876A.656.656,0,0,1,354.06,160.207Z" transform="translate(-350.955 -152.447)" fill="#fff" stroke="#ec2227" stroke-miterlimit="10" stroke-width="1.7"/>
      </g>
      <path id="Path_4074" data-name="Path 4074" d="M366.245,184.55l-2.665-15.773h-3.11L357.8,184.55a.687.687,0,0,0,.159.55h0l3.679,4.055a.517.517,0,0,0,.765,0l3.679-4.055h0A.688.688,0,0,0,366.245,184.55Z" transform="translate(-304.44 -117.807)" fill="#fff" stroke="#ec2227" stroke-miterlimit="10" stroke-width="1.7"/>
      <g id="Group_4768" data-name="Group 4768" transform="translate(54.637 46.814)">
        <path id="Path_4075" data-name="Path 4075" d="M363,161.469v0l0,0,0,0v0l-2.945,2.092,1.392,2.095h3.111l1.392-2.095Z" transform="translate(-360.049 -161.465)" fill="#fff" stroke="#ec2227" stroke-miterlimit="10" stroke-width="1.7"/>
      </g>
      <path id="Path_4076" data-name="Path 4076" d="M289.989,103.684a9.937,9.937,0,0,0-9.938,9.938v4.018a3.169,3.169,0,0,1,2.531-.827v-.5a.677.677,0,0,1,.726-.675,17.79,17.79,0,0,0,10.709-2.876.677.677,0,0,1,.866.106c2.528,2.717,2.512,2.611,2.512,2.967v.973a3,3,0,0,1,2.531.74v-3.93A9.937,9.937,0,0,0,289.989,103.684Z" transform="translate(-270.887 -89.714)" fill="#fff" stroke="#ec2227" stroke-miterlimit="10" stroke-width="1.7"/>
      <path id="Path_4077" data-name="Path 4077" d="M310.537,126.116v5.465c0,.059,0,.118,0,.177a2.878,2.878,0,1,0,0-5.642Z" transform="translate(-284.042 -99.379)" fill="#fff" stroke="#ec2227" stroke-miterlimit="10" stroke-width="1.7"/>
      <path id="Path_4078" data-name="Path 4078" d="M281.921,131.593v-5.477a3.038,3.038,0,0,0-3.453,2.826,2.907,2.907,0,0,0,3.458,2.828C281.924,131.712,281.921,131.652,281.921,131.593Z" transform="translate(-270.204 -99.385)" fill="#fff" stroke="#ec2227" stroke-miterlimit="10" stroke-width="1.7"/>
      <path id="Path_4079" data-name="Path 4079" d="M294.554,146.994a7.667,7.667,0,0,1-4.171-1.178v4.071l4.153,5.126,4.152-5.126v-4.181A7.261,7.261,0,0,1,294.554,146.994Z" transform="translate(-275.346 -107.85)" fill="#fff" stroke="#ec2227" stroke-miterlimit="10" stroke-width="1.7"/>
      <path id="Path_4080" data-name="Path 4080" d="M298.257,156.7l-10.986-4.255-4.152,5.126-4.153-5.126L267.992,156.7a6.96,6.96,0,0,0-4.063,6.3v18.171a1.354,1.354,0,0,0,1.353,1.355h35.684a1.355,1.355,0,0,0,1.354-1.355V163A6.96,6.96,0,0,0,298.257,156.7Z" transform="translate(-263.929 -110.759)" fill="#fff" stroke="#ec2227" stroke-miterlimit="10" stroke-width="1.7"/>
      <path id="Path_4081" data-name="Path 4081" d="M296.8,119.07a.676.676,0,0,0-.865-.106,17.792,17.792,0,0,1-10.71,2.876.678.678,0,0,0-.726.675v5.937a7.408,7.408,0,0,0,14.814,0v-6.416C299.318,121.682,299.333,121.787,296.8,119.07Z" transform="translate(-272.809 -96.261)" fill="#fff" stroke="#ec2227" stroke-miterlimit="10" stroke-width="1.7"/>
      <g id="Group_4769" data-name="Group 4769" transform="translate(11.076 41.688)">
        <path id="Path_4082" data-name="Path 4082" d="M302.7,160.207l3.105-6.224-3.967-1.536-4.152,5.126,4.048,2.876A.656.656,0,0,0,302.7,160.207Z" transform="translate(-289.575 -152.447)" fill="#fff" stroke="#ec2227" stroke-miterlimit="10" stroke-width="1.7"/>
        <path id="Path_4083" data-name="Path 4083" d="M286.52,160.207l-3.105-6.224,3.967-1.536,4.152,5.126-4.049,2.876A.655.655,0,0,1,286.52,160.207Z" transform="translate(-283.415 -152.447)" fill="#fff" stroke="#ec2227" stroke-miterlimit="10" stroke-width="1.7"/>
      </g>
      <path id="Path_4084" data-name="Path 4084" d="M298.705,184.55l-2.665-15.773h-3.11l-2.665,15.773a.687.687,0,0,0,.159.55h0l3.679,4.055a.516.516,0,0,0,.765,0l3.68-4.055h0A.688.688,0,0,0,298.705,184.55Z" transform="translate(-275.292 -117.807)" fill="#fff" stroke="#ec2227" stroke-miterlimit="10" stroke-width="1.7"/>
      <g id="Group_4770" data-name="Group 4770" transform="translate(16.246 46.814)">
        <path id="Path_4085" data-name="Path 4085" d="M295.459,161.469v0l0,0,0,0v0l-2.945,2.092,1.392,2.095h3.11l1.392-2.095Z" transform="translate(-292.509 -161.465)" fill="#fff" stroke="#ec2227" stroke-miterlimit="10" stroke-width="1.7"/>
      </g>
    </g>
    <line id="Line_291" data-name="Line 291" y2="18.021" transform="translate(270.885 132.858)" fill="none" stroke="#ec2227" stroke-miterlimit="10" stroke-width="1.7"/>
    <line id="Line_292" data-name="Line 292" y2="18.021" transform="translate(294.82 132.858)" fill="none" stroke="#ec2227" stroke-miterlimit="10" stroke-width="1.7"/>
    <line id="Line_293" data-name="Line 293" y2="18.021" transform="translate(309.455 132.858)" fill="none" stroke="#ec2227" stroke-miterlimit="10" stroke-width="1.7"/>
    <line id="Line_294" data-name="Line 294" y2="18.021" transform="translate(333.39 132.858)" fill="none" stroke="#ec2227" stroke-miterlimit="10" stroke-width="1.7"/>
  </g>
</svg>
