<svg xmlns="http://www.w3.org/2000/svg" width="73.6" height="73.6" viewBox="0 0 73.6 73.6">
  <g id="Group_4775" data-name="Group 4775" transform="translate(-61.537 -63.357)">
    <path id="Path_4020" data-name="Path 4020" d="M142.5,64.157h-32a1.6,1.6,0,0,0-1.6,1.6v70.4h35.2v-70.4A1.6,1.6,0,0,0,142.5,64.157Z" transform="translate(-21.761)" fill="#fff" stroke="#ec2227" stroke-miterlimit="10" stroke-width="1.6"/>
    <path id="Path_4021" data-name="Path 4021" d="M84.165,96.385a.8.8,0,0,1-.8-.8v-9.6a.8.8,0,0,1,1.6,0v9.6A.8.8,0,0,1,84.165,96.385Z" transform="translate(-9.828 -9.828)" fill="#ec2227"/>
    <path id="Path_4022" data-name="Path 4022" d="M87.137,103.208v51.2h-23.2a1.6,1.6,0,0,1-1.6-1.6v-48a1.6,1.6,0,0,1,1.6-1.6Z" transform="translate(0 -18.251)" fill="#fff" stroke="#ec2227" stroke-miterlimit="10" stroke-width="1.6"/>
    <g id="Group_4764" data-name="Group 4764" transform="translate(66.337 68.157)">
      <path id="Path_4023" data-name="Path 4023" d="M69.847,110.719h6.4v6.4h-6.4Z" transform="translate(-69.847 -89.919)" fill="#fff" stroke="#ec2227" stroke-miterlimit="10" stroke-width="1.6"/>
      <path id="Path_4024" data-name="Path 4024" d="M89.373,110.719h6.4v6.4h-6.4Z" transform="translate(-78.973 -89.919)" fill="#fff" stroke="#ec2227" stroke-miterlimit="10" stroke-width="1.6"/>
      <path id="Path_4025" data-name="Path 4025" d="M69.847,130.245h6.4v6.4h-6.4Z" transform="translate(-69.847 -99.045)" fill="#fff" stroke="#ec2227" stroke-miterlimit="10" stroke-width="1.6"/>
      <path id="Path_4026" data-name="Path 4026" d="M89.373,130.245h6.4v6.4h-6.4Z" transform="translate(-78.973 -99.045)" fill="#fff" stroke="#ec2227" stroke-miterlimit="10" stroke-width="1.6"/>
      <path id="Path_4027" data-name="Path 4027" d="M69.847,149.77h6.4v6.4h-6.4Z" transform="translate(-69.847 -108.17)" fill="#fff" stroke="#ec2227" stroke-miterlimit="10" stroke-width="1.6"/>
      <path id="Path_4028" data-name="Path 4028" d="M89.373,149.77h6.4v6.4h-6.4Z" transform="translate(-78.973 -108.17)" fill="#fff" stroke="#ec2227" stroke-miterlimit="10" stroke-width="1.6"/>
      <path id="Path_4029" data-name="Path 4029" d="M116.409,71.667h6.4v6.4h-6.4Z" transform="translate(-91.609 -71.667)" fill="#fff" stroke="#ec2227" stroke-miterlimit="10" stroke-width="1.6"/>
      <path id="Path_4030" data-name="Path 4030" d="M135.934,71.667h6.4v6.4h-6.4Z" transform="translate(-100.734 -71.667)" fill="#fff" stroke="#ec2227" stroke-miterlimit="10" stroke-width="1.6"/>
      <path id="Path_4031" data-name="Path 4031" d="M155.459,71.667h6.4v6.4h-6.4Z" transform="translate(-109.859 -71.667)" fill="#fff" stroke="#ec2227" stroke-miterlimit="10" stroke-width="1.6"/>
      <path id="Path_4032" data-name="Path 4032" d="M116.409,91.193h6.4v6.4h-6.4Z" transform="translate(-91.609 -80.793)" fill="#fff" stroke="#ec2227" stroke-miterlimit="10" stroke-width="1.6"/>
      <path id="Path_4033" data-name="Path 4033" d="M135.934,91.193h6.4v6.4h-6.4Z" transform="translate(-100.734 -80.793)" fill="#fff" stroke="#ec2227" stroke-miterlimit="10" stroke-width="1.6"/>
      <path id="Path_4034" data-name="Path 4034" d="M155.459,91.193h6.4v6.4h-6.4Z" transform="translate(-109.859 -80.793)" fill="#fff" stroke="#ec2227" stroke-miterlimit="10" stroke-width="1.6"/>
      <path id="Path_4035" data-name="Path 4035" d="M116.409,110.719h6.4v6.4h-6.4Z" transform="translate(-91.609 -89.919)" fill="#fff" stroke="#ec2227" stroke-miterlimit="10" stroke-width="1.6"/>
      <path id="Path_4036" data-name="Path 4036" d="M135.934,110.719h6.4v6.4h-6.4Z" transform="translate(-100.734 -89.919)" fill="#fff" stroke="#ec2227" stroke-miterlimit="10" stroke-width="1.6"/>
      <path id="Path_4037" data-name="Path 4037" d="M155.459,110.719h6.4v6.4h-6.4Z" transform="translate(-109.859 -89.919)" fill="#fff" stroke="#ec2227" stroke-miterlimit="10" stroke-width="1.6"/>
      <path id="Path_4038" data-name="Path 4038" d="M116.409,130.245h6.4v6.4h-6.4Z" transform="translate(-91.609 -99.045)" fill="#fff" stroke="#ec2227" stroke-miterlimit="10" stroke-width="1.6"/>
      <path id="Path_4039" data-name="Path 4039" d="M135.934,130.245h6.4v6.4h-6.4Z" transform="translate(-100.734 -99.045)" fill="#fff" stroke="#ec2227" stroke-miterlimit="10" stroke-width="1.6"/>
      <path id="Path_4040" data-name="Path 4040" d="M155.459,130.245h6.4v6.4h-6.4Z" transform="translate(-109.859 -99.045)" fill="#fff" stroke="#ec2227" stroke-miterlimit="10" stroke-width="1.6"/>
    </g>
    <path id="Path_4041" data-name="Path 4041" d="M170.464,158.472a.8.8,0,0,1-.8-.8v-2.4a2.4,2.4,0,0,0-2.4-2.4h-4.8a2.4,2.4,0,0,0-2.4,2.4v2.4a.8.8,0,1,1-1.6,0v-2.4a4,4,0,0,1,4-4h4.8a4,4,0,0,1,4,4v2.4A.8.8,0,0,1,170.464,158.472Z" transform="translate(-44.927 -40.715)" fill="#ec2227"/>
    <path id="Path_4042" data-name="Path 4042" d="M170.644,182.488h-25.6a1.6,1.6,0,0,1-1.6-1.6v-16a1.6,1.6,0,0,1,1.6-1.6h25.6a1.6,1.6,0,0,1,1.6,1.6v16A1.6,1.6,0,0,1,170.644,182.488Z" transform="translate(-37.907 -46.331)" fill="#fff" stroke="#ec2227" stroke-miterlimit="10" stroke-width="1.6"/>
    <path id="Path_4043" data-name="Path 4043" d="M170.644,189.508h-25.6a1.6,1.6,0,0,1-1.6-1.6v-9.6h28.8v9.6A1.6,1.6,0,0,1,170.644,189.508Z" transform="translate(-37.907 -53.351)" fill="#fff" stroke="#ec2227" stroke-miterlimit="10" stroke-width="1.6"/>
    <path id="Path_4044" data-name="Path 4044" d="M153.957,175.3h3.2v4h-3.2Z" transform="translate(-42.82 -51.947)" fill="#fff" stroke="#ec2227" stroke-miterlimit="10" stroke-width="1.6"/>
    <path id="Path_4045" data-name="Path 4045" d="M180.994,175.3h3.2v4h-3.2Z" transform="translate(-55.457 -51.947)" fill="#fff" stroke="#ec2227" stroke-miterlimit="10" stroke-width="1.6"/>
    <path id="Path_4046" data-name="Path 4046" d="M148.244,195.123a4.8,4.8,0,0,0-4.8-4.8v3.2a1.6,1.6,0,0,0,1.6,1.6Z" transform="translate(-37.907 -58.966)" fill="#fff" stroke="#ec2227" stroke-miterlimit="10" stroke-width="1.6"/>
    <path id="Path_4047" data-name="Path 4047" d="M188.5,195.123a4.8,4.8,0,0,1,4.8-4.8v3.2a1.6,1.6,0,0,1-1.6,1.6Z" transform="translate(-58.966 -58.966)" fill="#fff" stroke="#ec2227" stroke-miterlimit="10" stroke-width="1.6"/>
    <path id="Path_4048" data-name="Path 4048" d="M75.244,71.1a.809.809,0,0,1,1.209.078,7.2,7.2,0,0,1-10.1,10.1.809.809,0,0,1-.077-1.209Z" transform="translate(-1.729 -3.133)" fill="#fff" stroke="#ec2227" stroke-miterlimit="10" stroke-width="1.6"/>
    <path id="Path_4049" data-name="Path 4049" d="M117.91,183.892v-16a1.6,1.6,0,0,1,1.6-1.6h6.4a1.6,1.6,0,0,1,1.6,1.6v16h-9.6Z" transform="translate(-25.973 -47.735)" fill="#fff" stroke="#ec2227" stroke-miterlimit="10" stroke-width="1.6"/>
    <path id="Path_4050" data-name="Path 4050" d="M156.456,173.8h-3.2a.8.8,0,0,0-.8.8v4a.8.8,0,0,0,.8.8h.8V181a.8.8,0,0,0,1.6,0v-1.6h.8a.8.8,0,0,0,.8-.8v-4A.8.8,0,0,0,156.456,173.8Zm-.8,4h-1.6v-2.4h1.6Z" transform="translate(-42.119 -51.245)" fill="#ec2227"/>
    <path id="Path_4051" data-name="Path 4051" d="M183.491,173.8h-3.2a.8.8,0,0,0-.8.8v4a.8.8,0,0,0,.8.8h.8V181a.8.8,0,1,0,1.6,0v-1.6h.8a.8.8,0,0,0,.8-.8v-4A.8.8,0,0,0,183.491,173.8Zm-.8,4h-1.6v-2.4h1.6Z" transform="translate(-54.754 -51.245)" fill="#ec2227"/>
  </g>
</svg>
