<svg xmlns="http://www.w3.org/2000/svg" width="51.672" height="58.049" viewBox="0 0 51.672 58.049">
  <g id="Flat" transform="translate(-443.708 -294.333)">
    <path id="Path_4007" data-name="Path 4007" d="M494.48,307.608V295.233H482.105v4.5h4.5l-13.5,13.5-11.25-11.25-16.875,16.875,3.375,3.374,13.5-13.5,11.25,11.25,16.874-16.874v4.5Z" fill="none" stroke="#ec2227" stroke-miterlimit="10" stroke-width="1.8"/>
    <path id="Path_4008" data-name="Path 4008" d="M470.862,354.827h4.5v30.344h-4.5Z" transform="translate(-14.631 -33.689)" fill="none" stroke="#ec2227" stroke-miterlimit="10" stroke-width="1.8"/>
    <path id="Path_4009" data-name="Path 4009" d="M496.742,362.522h4.5v27h-4.5Z" transform="translate(-29.261 -38.04)" fill="none" stroke="#ec2227" stroke-miterlimit="10" stroke-width="1.8"/>
    <path id="Path_4010" data-name="Path 4010" d="M522.622,360.941h4.5v27.686h-4.5Z" transform="translate(-43.892 -37.146)" fill="none" stroke="#ec2227" stroke-miterlimit="10" stroke-width="1.8"/>
    <path id="Path_4011" data-name="Path 4011" d="M548.5,334.123H553v39.344h-4.5Z" transform="translate(-58.522 -21.985)" fill="none" stroke="#ec2227" stroke-miterlimit="10" stroke-width="1.8"/>
    <path id="Path_4012" data-name="Path 4012" d="M444.981,367.961h4.5V392.6h-4.5Z" transform="translate(0 -41.114)" fill="none" stroke="#ec2227" stroke-miterlimit="10" stroke-width="1.8"/>
  </g>
</svg>
