<svg xmlns="http://www.w3.org/2000/svg" width="80.614" height="80.613" viewBox="0 0 80.614 80.613">
  <g id="Group_6361" data-name="Group 6361" transform="translate(383.286 -397.253)">
    <path id="Shape" d="M-242.665,481.156v32.849h-21.77V481.35Z" transform="translate(-62.217 -43.791)" fill="none" stroke="#eb2127" stroke-miterlimit="10" stroke-width="1.7"/>
    <path id="Shape-2" data-name="Shape" d="M-357.789,481.35V514h-21.77V481.156Z" transform="translate(-1.517 -43.791)" fill="none" stroke="#eb2127" stroke-miterlimit="10" stroke-width="1.7"/>
    <path id="Rectangle-path" d="M-333.509,481.567h32.654v32.655h-32.654Z" transform="translate(-25.797 -44.007)" fill="none" stroke="#eb2127" stroke-miterlimit="10" stroke-width="1.7"/>
    <path id="Shape-3" data-name="Shape" d="M-309.123,513.227h8.164a1.361,1.361,0,0,1,1.361,1.36v16.327h-10.885V514.587A1.36,1.36,0,0,1-309.123,513.227Z" transform="translate(-37.938 -60.701)" fill="none" stroke="#eb2127" stroke-miterlimit="10" stroke-width="1.7"/>
    <g id="Group_6360" data-name="Group 6360" transform="translate(-375.633 441.642)">
      <path id="Shape-4" data-name="Shape" d="M-309.123,495.645a1.361,1.361,0,0,1-1.361-1.361v-2.722a1.36,1.36,0,0,1,1.361-1.361,1.361,1.361,0,0,1,1.361,1.361v2.722A1.361,1.361,0,0,1-309.123,495.645Z" transform="translate(337.696 -490.202)" fill="none" stroke="#eb2127" stroke-miterlimit="10" stroke-width="1.7"/>
      <path id="Shape-5" data-name="Shape" d="M-349.416,498.522a1.36,1.36,0,0,1-1.361-1.36v-2.721a1.361,1.361,0,0,1,1.361-1.361,1.361,1.361,0,0,1,1.361,1.361v2.721A1.36,1.36,0,0,1-349.416,498.522Z" transform="translate(358.941 -491.719)" fill="none" stroke="#eb2127" stroke-miterlimit="10" stroke-width="1.7"/>
      <path id="Shape-6" data-name="Shape" d="M-366.685,498.522a1.36,1.36,0,0,1-1.361-1.36v-2.721a1.361,1.361,0,0,1,1.361-1.361,1.361,1.361,0,0,1,1.361,1.361v2.721A1.36,1.36,0,0,1-366.685,498.522Z" transform="translate(368.046 -491.719)" fill="none" stroke="#eb2127" stroke-miterlimit="10" stroke-width="1.7"/>
      <path id="Shape-7" data-name="Shape" d="M-349.416,515.791a1.36,1.36,0,0,1-1.361-1.361V511.71a1.36,1.36,0,0,1,1.361-1.361,1.361,1.361,0,0,1,1.361,1.361v2.721A1.361,1.361,0,0,1-349.416,515.791Z" transform="translate(358.941 -500.825)" fill="none" stroke="#eb2127" stroke-miterlimit="10" stroke-width="1.7"/>
      <path id="Shape-8" data-name="Shape" d="M-366.685,515.791a1.36,1.36,0,0,1-1.361-1.361V511.71a1.36,1.36,0,0,1,1.361-1.361,1.361,1.361,0,0,1,1.361,1.361v2.721A1.361,1.361,0,0,1-366.685,515.791Z" transform="translate(368.046 -500.825)" fill="none" stroke="#eb2127" stroke-miterlimit="10" stroke-width="1.7"/>
      <path id="Shape-9" data-name="Shape" d="M-349.416,533.06a1.36,1.36,0,0,1-1.361-1.36v-2.722a1.36,1.36,0,0,1,1.361-1.36,1.36,1.36,0,0,1,1.361,1.36V531.7A1.36,1.36,0,0,1-349.416,533.06Z" transform="translate(358.941 -509.93)" fill="none" stroke="#eb2127" stroke-miterlimit="10" stroke-width="1.7"/>
      <path id="Shape-10" data-name="Shape" d="M-366.685,533.06a1.36,1.36,0,0,1-1.361-1.36v-2.722a1.36,1.36,0,0,1,1.361-1.36,1.36,1.36,0,0,1,1.361,1.36V531.7A1.36,1.36,0,0,1-366.685,533.06Z" transform="translate(368.046 -509.93)" fill="none" stroke="#eb2127" stroke-miterlimit="10" stroke-width="1.7"/>
      <path id="Shape-11" data-name="Shape" d="M-234.293,498.522a1.36,1.36,0,0,1-1.361-1.36v-2.721a1.361,1.361,0,0,1,1.361-1.361,1.36,1.36,0,0,1,1.36,1.361v2.721A1.36,1.36,0,0,1-234.293,498.522Z" transform="translate(298.241 -491.719)" fill="none" stroke="#eb2127" stroke-miterlimit="10" stroke-width="1.7"/>
      <path id="Shape-12" data-name="Shape" d="M-251.561,498.522a1.36,1.36,0,0,1-1.361-1.36v-2.721a1.361,1.361,0,0,1,1.361-1.361,1.361,1.361,0,0,1,1.361,1.361v2.721A1.36,1.36,0,0,1-251.561,498.522Z" transform="translate(307.345 -491.719)" fill="none" stroke="#eb2127" stroke-miterlimit="10" stroke-width="1.7"/>
      <path id="Shape-13" data-name="Shape" d="M-234.293,515.791a1.36,1.36,0,0,1-1.361-1.361V511.71a1.36,1.36,0,0,1,1.361-1.361,1.36,1.36,0,0,1,1.36,1.361v2.721A1.36,1.36,0,0,1-234.293,515.791Z" transform="translate(298.241 -500.825)" fill="none" stroke="#eb2127" stroke-miterlimit="10" stroke-width="1.7"/>
      <path id="Shape-14" data-name="Shape" d="M-251.561,515.791a1.36,1.36,0,0,1-1.361-1.361V511.71a1.36,1.36,0,0,1,1.361-1.361,1.361,1.361,0,0,1,1.361,1.361v2.721A1.361,1.361,0,0,1-251.561,515.791Z" transform="translate(307.345 -500.825)" fill="none" stroke="#eb2127" stroke-miterlimit="10" stroke-width="1.7"/>
      <path id="Shape-15" data-name="Shape" d="M-234.293,533.06a1.36,1.36,0,0,1-1.361-1.36v-2.722a1.36,1.36,0,0,1,1.361-1.36,1.36,1.36,0,0,1,1.36,1.36V531.7A1.36,1.36,0,0,1-234.293,533.06Z" transform="translate(298.241 -509.93)" fill="none" stroke="#eb2127" stroke-miterlimit="10" stroke-width="1.7"/>
      <path id="Shape-16" data-name="Shape" d="M-251.561,533.06a1.36,1.36,0,0,1-1.361-1.36v-2.722a1.36,1.36,0,0,1,1.361-1.36,1.36,1.36,0,0,1,1.361,1.36V531.7A1.36,1.36,0,0,1-251.561,533.06Z" transform="translate(307.345 -509.93)" fill="none" stroke="#eb2127" stroke-miterlimit="10" stroke-width="1.7"/>
      <path id="Shape-17" data-name="Shape" d="M-291.854,495.645a1.361,1.361,0,0,1-1.361-1.361v-2.722a1.36,1.36,0,0,1,1.361-1.361,1.36,1.36,0,0,1,1.361,1.361v2.722A1.361,1.361,0,0,1-291.854,495.645Z" transform="translate(328.59 -490.202)" fill="none" stroke="#eb2127" stroke-miterlimit="10" stroke-width="1.7"/>
    </g>
    <path id="Shape-18" data-name="Shape" d="M-304.883,550.642h-76.193a1.36,1.36,0,0,0-1.36,1.361v2.721a1.36,1.36,0,0,0,1.36,1.361h19.048a1.36,1.36,0,0,0,1.361,1.36h35.375a1.36,1.36,0,0,0,1.36-1.36h19.048a1.361,1.361,0,0,0,1.361-1.361V552A1.361,1.361,0,0,0-304.883,550.642Z" transform="translate(0 -80.428)" fill="none" stroke="#eb2127" stroke-miterlimit="10" stroke-width="1.7"/>
    <path id="Shape-19" data-name="Shape" d="M-301.169,550.642v5.442a1.36,1.36,0,0,1-1.36,1.36H-337.9a1.36,1.36,0,0,1-1.361-1.36v-5.442Z" transform="translate(-22.762 -80.428)" fill="none" stroke="#eb2127" stroke-miterlimit="10" stroke-width="1.7"/>
    <path id="Shape-20" data-name="Shape" d="M-306.7,453.669a2.72,2.72,0,0,0-2.435-1.509h-10.558v-2.722l-7.361-7.361a2.728,2.728,0,0,0-1.932-.8H-355.15a2.7,2.7,0,0,0-2.1.98l-5.986,7.184v2.722H-373.79a2.72,2.72,0,0,0-2.436,1.509l-3.334,6.653h76.193Z" transform="translate(-1.517 -22.762)" fill="none" stroke="#eb2127" stroke-miterlimit="10" stroke-width="1.7"/>
    <path id="Shape-21" data-name="Shape" d="M-301.482,458.543v4.082a1.361,1.361,0,0,1-1.361,1.361H-343.66a1.361,1.361,0,0,1-1.361-1.361v-4.082Z" transform="translate(-19.728 -31.868)" fill="none" stroke="#eb2127" stroke-miterlimit="10" stroke-width="1.7"/>
    <path id="Rectangle-path-2" data-name="Rectangle-path" d="M-339.265,470.056h38.1V475.5h-38.1Z" transform="translate(-22.762 -37.938)" fill="none" stroke="#eb2127" stroke-miterlimit="10" stroke-width="1.7"/>
    <path id="Path_7170" data-name="Path 7170" d="M-312.969,420.353l-11.9-3.2v11.4h24.49v-11.4l-11.9,3.2A1.44,1.44,0,0,1-312.969,420.353Z" transform="translate(-30.35 -10.045)" fill="none" stroke="#eb2127" stroke-miterlimit="10" stroke-width="1.7"/>
    <path id="Shape-22" data-name="Shape" d="M-260.693,420.646a1.36,1.36,0,0,1-1.129.612,1.273,1.273,0,0,1-.748-.232,4.147,4.147,0,0,1-1.864-3.469v-4.721l1.715-.462a1.321,1.321,0,0,0,1.006-1.32v6.5a1.449,1.449,0,0,0,.653,1.211,1.346,1.346,0,0,1,.577.862A1.345,1.345,0,0,1-260.693,420.646Z" transform="translate(-62.217 -6.829)" fill="none" stroke="#eb2127" stroke-miterlimit="10" stroke-width="1.7"/>
    <path id="Shape-23" data-name="Shape" d="M-301.195,404.225a1.321,1.321,0,0,1-1.006,1.32l-1.715.462-4.082,1.1-11.9,3.2a1.44,1.44,0,0,1-.68,0l-11.9-3.2-5.8-1.564a1.361,1.361,0,0,1-1.03-1.32,1.36,1.36,0,0,1,1.03-1.319l17.7-4.762a1.426,1.426,0,0,1,.68,0l15.987,4.3,1.715.463A1.32,1.32,0,0,1-301.195,404.225Z" transform="translate(-22.737 0)" fill="none" stroke="#eb2127" stroke-miterlimit="10" stroke-width="1.7"/>
  </g>
</svg>
