<svg xmlns="http://www.w3.org/2000/svg" width="71.89" height="85.732" viewBox="0 0 71.89 85.732">
  <g id="Group_8498" data-name="Group 8498" transform="translate(-23.727 -349.675)">
    <path id="Path_65125" data-name="Path 65125" d="M83.046,418.71c-4.018,4.018-3.516,12.126-3.516,12.126H59.153s.43-8.108-3.516-12.126a20.737,20.737,0,1,1,27.409,0Z" transform="translate(-9.614 -12.637)" fill="#fff" stroke="#eb2127" stroke-miterlimit="10" stroke-width="1.7"/>
    <g id="Group_8497" data-name="Group 8497" transform="translate(48.894 422.647)">
      <path id="Path_65126" data-name="Path 65126" d="M86.493,470.981a1.929,1.929,0,0,1-1.938,1.937H66.832a1.929,1.929,0,0,1-1.937-1.937h0a1.93,1.93,0,0,1,1.937-1.937H84.483a1.992,1.992,0,0,1,2.009,1.937Z" transform="translate(-64.895 -469.044)" fill="#fff" stroke="#eb2127" stroke-miterlimit="10" stroke-width="1.7"/>
      <path id="Path_65127" data-name="Path 65127" d="M85.525,484.127a1.929,1.929,0,0,1-1.938,1.937H71.175a1.93,1.93,0,0,1-1.938-1.937h0a1.93,1.93,0,0,1,1.938-1.937H83.588a1.93,1.93,0,0,1,1.938,1.937Z" transform="translate(-66.583 -474.154)" fill="#fff" stroke="#eb2127" stroke-miterlimit="10" stroke-width="1.7"/>
    </g>
    <path id="Path_65128" data-name="Path 65128" d="M83,360.223v-9.184a1.364,1.364,0,0,0-2.727,0v9.256a1.362,1.362,0,0,0,1.363,1.363A1.425,1.425,0,0,0,83,360.223Z" transform="translate(-21.978 0)" fill="#eb2127"/>
    <path id="Path_65129" data-name="Path 65129" d="M114.9,360.681a1.364,1.364,0,0,0-1.866.359l-5.095,7.677a1.364,1.364,0,0,0,.359,1.866,1.384,1.384,0,0,0,.718.215,1.5,1.5,0,0,0,1.148-.574l5.095-7.677A1.377,1.377,0,0,0,114.9,360.681Z" transform="translate(-32.646 -4.189)" fill="#eb2127"/>
    <path id="Path_65130" data-name="Path 65130" d="M51.974,370.26a1.368,1.368,0,0,0,1.148-2.081l-4.952-7.75a1.354,1.354,0,0,0-2.3,1.435l4.952,7.749A1.378,1.378,0,0,0,51.974,370.26Z" transform="translate(-8.534 -3.938)" fill="#eb2127"/>
    <path id="Path_65131" data-name="Path 65131" d="M24.426,385.81l8.108,4.377a1.064,1.064,0,0,0,.646.144,1.48,1.48,0,0,0,1.22-.718,1.35,1.35,0,0,0-.575-1.866l-8.108-4.376a1.349,1.349,0,0,0-1.865.573A1.46,1.46,0,0,0,24.426,385.81Z" transform="translate(0 -13.031)" fill="#eb2127"/>
    <path id="Path_65132" data-name="Path 65132" d="M124.937,390.456a2.1,2.1,0,0,0,.646-.143l8.108-4.377a1.38,1.38,0,0,0-1.292-2.44l-8.108,4.377a1.368,1.368,0,0,0,.646,2.583Z" transform="translate(-38.804 -13.085)" fill="#eb2127"/>
    <path id="Path_65133" data-name="Path 65133" d="M80.271,391.565S96.841,390.3,97.9,408.813" transform="translate(-21.978 -16.275)" fill="#fff" stroke="#eb2127" stroke-miterlimit="10" stroke-width="1.7"/>
  </g>
</svg>
