<svg xmlns="http://www.w3.org/2000/svg" width="83.117" height="80.88" viewBox="0 0 83.117 80.88">
  <g id="Group_6364" data-name="Group 6364" transform="translate(-1490.621 -2346.67)">
    <path id="Path_7178" data-name="Path 7178" d="M1561.659,2476.79h-70.188V2443.1h70.188Z" transform="translate(0 -68.339)" fill="#f5f5f5" stroke="#eb2127" stroke-miterlimit="10" stroke-width="1.7"/>
    <path id="Path_7179" data-name="Path 7179" d="M1496.98,2396.874l4.055-18.25,62.736,14.117-.741,4.133" transform="translate(-3.95 -22.112)" fill="#f5f5f5" stroke="#eb2127" stroke-miterlimit="10" stroke-width="1.7"/>
    <path id="Path_7180" data-name="Path 7180" d="M1550.612,2485.4h10.574l6.271-6.116v-10.105l-5.7-6.238h-44.176l-6.271,6.116v10.106l5.7,6.238h33.6Z" transform="translate(-14.221 -82.561)" fill="#f5f5f5" stroke="#eb2127" stroke-miterlimit="10" stroke-width="1.7"/>
    <path id="Path_7181" data-name="Path 7181" d="M1546.971,2358.782l4.607-11,45.66,19.025-1.005,3.061" transform="translate(-39.791 0)" fill="#f5f5f5" stroke="#eb2127" stroke-miterlimit="10" stroke-width="1.7"/>
    <path id="Path_7182" data-name="Path 7182" d="M1679.925,2591.88v5.615c0,2.326,6.284,4.211,14.037,4.211s14.037-1.885,14.037-4.211v-5.615" transform="translate(-135.112 -175.006)" fill="#f5f5f5" stroke="#eb2127" stroke-miterlimit="10" stroke-width="1.7"/>
    <path id="Path_7183" data-name="Path 7183" d="M1582.049,2462.938a11.23,11.23,0,1,1-11.23,11.23A11.23,11.23,0,0,1,1582.049,2462.938Z" transform="translate(-56.888 -82.561)" fill="#f5f5f5" stroke="#eb2127" stroke-miterlimit="10" stroke-width="1.7"/>
    <path id="Path_7184" data-name="Path 7184" d="M1679.925,2572.042v5.615c0,2.326,6.284,4.211,14.037,4.211s14.037-1.885,14.037-4.211v-5.615" transform="translate(-135.112 -160.783)" fill="#f5f5f5" stroke="#eb2127" stroke-miterlimit="10" stroke-width="1.7"/>
    <path id="Path_7185" data-name="Path 7185" d="M1679.925,2552.205v5.615c0,2.326,6.284,4.212,14.037,4.212s14.037-1.885,14.037-4.212v-5.615" transform="translate(-135.112 -146.561)" fill="#f5f5f5" stroke="#eb2127" stroke-miterlimit="10" stroke-width="1.7"/>
    <path id="Path_7186" data-name="Path 7186" d="M1679.925,2532.367v5.615c0,2.326,6.284,4.211,14.037,4.211s14.037-1.885,14.037-4.211v-5.615" transform="translate(-135.112 -132.338)" fill="#f5f5f5" stroke="#eb2127" stroke-miterlimit="10" stroke-width="1.7"/>
    <path id="Path_7187" data-name="Path 7187" d="M1679.925,2512.53v5.615c0,2.326,6.284,4.212,14.037,4.212s14.037-1.885,14.037-4.212v-5.615" transform="translate(-135.112 -118.116)" fill="#f5f5f5" stroke="#eb2127" stroke-miterlimit="10" stroke-width="1.7"/>
    <path id="Path_7188" data-name="Path 7188" d="M1679.925,2492.693v5.615c0,2.326,6.284,4.211,14.037,4.211s14.037-1.885,14.037-4.211v-5.615" transform="translate(-135.112 -103.894)" fill="#f5f5f5" stroke="#eb2127" stroke-miterlimit="10" stroke-width="1.7"/>
    <path id="Path_7189" data-name="Path 7189" d="M1693.962,2477.815c7.753,0,14.037,1.886,14.037,4.211s-6.285,4.211-14.037,4.211-14.037-1.885-14.037-4.211S1686.21,2477.815,1693.962,2477.815Z" transform="translate(-135.112 -93.227)" fill="#f5f5f5" stroke="#eb2127" stroke-miterlimit="10" stroke-width="1.7"/>
    <text id="RM" transform="translate(1532.471 2395.229)" fill="#ea2127" font-size="10" font-family="Arial-BoldMT, Arial" font-weight="700"><tspan x="-15.552" y="0">RM</tspan></text>
  </g>
</svg>
