<svg xmlns="http://www.w3.org/2000/svg" width="72.221" height="67.723" viewBox="0 0 72.221 67.723">
  <g id="Group_8499" data-name="Group 8499" transform="translate(-10.062 -217.633)">
    <path id="Path_65134" data-name="Path 65134" d="M13.942,229.88a6.066,6.066,0,0,0,11.77-2.079v-2.432h-.417A16.593,16.593,0,0,0,13.942,229.88Z" transform="translate(-1.425 -3.238)" fill="#f5f5f5" stroke="#eb2127" stroke-miterlimit="10" stroke-width="1.7"/>
    <path id="Path_65135" data-name="Path 65135" d="M19.287,218.483a6.028,6.028,0,0,0-5.691,8.158,16.59,16.59,0,0,1,11.353-4.511h.417v-3.648Z" transform="translate(-1.08)" fill="#f5f5f5" stroke="#eb2127" stroke-miterlimit="10" stroke-width="1.7"/>
    <path id="Path_65136" data-name="Path 65136" d="M118.8,225.369V227.8a6.066,6.066,0,0,0,11.769,2.079,16.589,16.589,0,0,0-11.353-4.511Z" transform="translate(-50.738 -3.238)" fill="#f5f5f5" stroke="#eb2127" stroke-miterlimit="10" stroke-width="1.7"/>
    <path id="Path_65137" data-name="Path 65137" d="M124.875,218.483h-6.08v3.648h.417a16.593,16.593,0,0,1,11.353,4.511,6.028,6.028,0,0,0-5.69-8.158Z" transform="translate(-50.737)" fill="#f5f5f5" stroke="#eb2127" stroke-miterlimit="10" stroke-width="1.7"/>
    <path id="Path_65138" data-name="Path 65138" d="M76.4,316.662a1.216,1.216,0,0,1-1.216-1.216V286.265a1.216,1.216,0,1,1,2.432,0v29.181A1.217,1.217,0,0,1,76.4,316.662Z" transform="translate(-30.227 -31.306)" fill="#ea2127"/>
    <path id="Path_65139" data-name="Path 65139" d="M78.036,287.481H48.855a1.216,1.216,0,0,1,0-2.432H78.036a1.216,1.216,0,0,1,0,2.432Z" transform="translate(-17.273 -31.306)" fill="#ea2127"/>
    <path id="Path_65140" data-name="Path 65140" d="M44.957,261.562a3.648,3.648,0,0,0-3.648-3.648H32.8l-7.3-7.3H10.912v23.1h0v2.431a4.864,4.864,0,0,0,4.864,4.864h7.3a2.431,2.431,0,0,1,2.432,2.432v13.374a2.432,2.432,0,0,0,2.432,2.432h2.432a2.432,2.432,0,0,0,2.432-2.432V281.015a7.434,7.434,0,0,0-.049-.817c-.006-.056-.017-.111-.025-.167-.03-.221-.068-.44-.118-.654-.011-.049-.025-.1-.038-.147q-.087-.346-.206-.677l-.032-.088A7.291,7.291,0,0,0,25.5,273.72H23.071V259.13l6.08,6.079H41.309a3.663,3.663,0,0,0,.526-.042l.078-.012A3.645,3.645,0,0,0,44.957,261.562Z" transform="translate(0 -15.114)" fill="#f5f5f5" stroke="#eb2127" stroke-miterlimit="10" stroke-width="1.7"/>
    <path id="Path_65141" data-name="Path 65141" d="M79.774,261.562a3.648,3.648,0,0,1,3.648-3.648h8.511l7.3-7.3h14.591v23.1h0v2.431a4.864,4.864,0,0,1-4.864,4.864h-7.3a2.431,2.431,0,0,0-2.432,2.432v13.374a2.432,2.432,0,0,1-2.432,2.432H94.364a2.431,2.431,0,0,1-2.431-2.432V281.015a7.435,7.435,0,0,1,.048-.817c.006-.056.018-.111.025-.167.03-.221.068-.44.118-.654.011-.049.025-.1.038-.147q.087-.346.206-.677l.032-.088a7.292,7.292,0,0,1,6.828-4.745h2.432V259.13l-6.08,6.079H83.422a3.663,3.663,0,0,1-.526-.042l-.078-.012A3.645,3.645,0,0,1,79.774,261.562Z" transform="translate(-32.386 -15.114)" fill="#f5f5f5" stroke="#eb2127" stroke-miterlimit="10" stroke-width="1.7"/>
  </g>
</svg>
