<svg xmlns="http://www.w3.org/2000/svg" width="93.037" height="80.325" viewBox="0 0 93.037 80.325">
  <g id="Group_6359" data-name="Group 6359" transform="translate(2084.038 -574.377)">
    <path id="Path_7163" data-name="Path 7163" d="M-1732.489,687.794l-4.447,4.447,4.447,8.893,4.447-8.893Z" transform="translate(-266.494 -86.903)" fill="none" stroke="#eb2127" stroke-miterlimit="10" stroke-width="1.7"/>
    <path id="Path_7164" data-name="Path 7164" d="M-2028.946,575.273l-40.02,13.34,40.02,16.3,40.02-16.3Z" transform="translate(-10.056)" fill="none" stroke="#eb2127" stroke-miterlimit="10" stroke-width="1.7"/>
    <path id="Path_7165" data-name="Path 7165" d="M-2010.84,764.075h-21.122l-7.041,2.964-7.04-2.964h-35.944l3.833,3.833a7.157,7.157,0,0,1,2.1,5.061,7.155,7.155,0,0,1-2.1,5.06l-3.833,3.833h71.146a8.893,8.893,0,0,0,8.893-8.893A8.893,8.893,0,0,0-2010.84,764.075Z" transform="translate(0 -145.817)" fill="none" stroke="#eb2127" stroke-miterlimit="10" stroke-width="1.7"/>
    <path id="Path_7166" data-name="Path 7166" d="M-1962.884,859.986h-71.146a8.892,8.892,0,0,1-8.893-8.893,8.893,8.893,0,0,1,8.893-8.893h71.146l-3.833,3.833a7.157,7.157,0,0,0-2.1,5.06,7.157,7.157,0,0,0,2.1,5.06Z" transform="translate(-30.169 -206.156)" fill="none" stroke="#eb2127" stroke-miterlimit="10" stroke-width="1.7"/>
    <path id="Path_7167" data-name="Path 7167" d="M-2035.513,842.786v17.52a8.888,8.888,0,0,1-7.411-8.76A8.888,8.888,0,0,1-2035.513,842.786Z" transform="translate(-30.169 -206.608)" fill="none" stroke="#eb2127" stroke-miterlimit="10" stroke-width="1.7"/>
    <path id="Path_7168" data-name="Path 7168" d="M-1762.977,764.661v17.52a8.888,8.888,0,0,0,7.411-8.76A8.888,8.888,0,0,0-1762.977,764.661Z" transform="translate(-246.381 -146.27)" fill="none" stroke="#eb2127" stroke-miterlimit="10" stroke-width="1.7"/>
    <path id="Path_7169" data-name="Path 7169" d="M-1988.72,666.559l-28.162-11.474v15.92l28.162,11.858,28.162-11.858v-15.92Z" transform="translate(-50.282 -61.641)" fill="none" stroke="#eb2127" stroke-miterlimit="10" stroke-width="1.7"/>
    <line id="Line_480" data-name="Line 480" y2="12.211" transform="translate(-1998.982 588.613)" fill="none" stroke="#eb2127" stroke-miterlimit="10" stroke-width="1.7"/>
    <line id="Line_481" data-name="Line 481" x2="66.7" transform="translate(-2076.057 627.151)" fill="none" stroke="#eb2127" stroke-miterlimit="10" stroke-width="1.7"/>
    <line id="Line_482" data-name="Line 482" x2="66.7" transform="translate(-2065.682 644.938)" fill="none" stroke="#eb2127" stroke-miterlimit="10" stroke-width="1.7"/>
  </g>
</svg>
