<svg xmlns="http://www.w3.org/2000/svg" width="72.129" height="77.346" viewBox="0 0 72.129 77.346">
  <g id="Group_8496" data-name="Group 8496" transform="translate(-83.045 -5530.875)">
    <path id="Path_3538" data-name="Path 3538" d="M441.135,158.09a9.693,9.693,0,0,1-4.262-1.176.832.832,0,0,1-.408-.461c-.064-.179-1.539-4.423.806-7.562,1.7-2.282,4.909-3.309,9.53-3.052a.825.825,0,0,1,.778.783c.017.328.357,8.068-3.59,10.645A5.1,5.1,0,0,1,441.135,158.09Zm-3.209-2.5c2.169,1.017,3.9,1.117,5.16.3,2.34-1.528,2.847-6.066,2.859-8.428-3.621-.088-6.086.728-7.352,2.422C437.087,151.9,437.673,154.67,437.926,155.588Z" transform="translate(-315.42 5404.488)" fill="#ec2227" stroke="#ec2227" stroke-width="0.3"/>
    <path id="Path_3539" data-name="Path 3539" d="M320.323,69.87a7.727,7.727,0,0,1-4.628-1.393c-2.5-1.832-3.65-5.321-3.416-10.368a.826.826,0,0,1,.776-.786c.357-.02,8.812-.471,11.657,3.8,1.325,1.988,1.216,4.591-.322,7.74a.825.825,0,0,1-.457.412A11.4,11.4,0,0,1,320.323,69.87Zm3.326-1.372h0ZM313.9,58.947c-.071,4.043.858,6.8,2.766,8.2,2.285,1.674,5.405.962,6.386.677,1.122-2.435,1.217-4.38.282-5.784C321.6,59.427,316.5,58.916,313.9,58.947Z" transform="translate(-207.236 5481.889)" fill="#ec2227" stroke="#ec2227" stroke-width="0.3"/>
    <path id="Path_3540" data-name="Path 3540" d="M361.7,127.863c-.026,0-.052,0-.078,0a.825.825,0,0,1-.747-.864c.049-.971.132-1.893.245-2.766.343-5.844.166-19.453-8.438-23.218a.826.826,0,1,1,.662-1.513c5.07,2.218,8.26,7.741,9.223,15.972.087.738.151,1.465.2,2.173,2.266-5.726,5.733-7.749,5.939-7.865a.826.826,0,0,1,.812,1.438c-.087.051-5.4,3.241-6.738,13.08-.1,1.683-.248,2.756-.262,2.854A.826.826,0,0,1,361.7,127.863Z" transform="translate(-242.16 5445.043)" fill="#ec2227" stroke="#ec2227" stroke-width="0.3"/>
    <g id="Group_4735" data-name="Group 4735" transform="translate(83.895 5531.725)">
      <rect id="Rectangle_1034" data-name="Rectangle 1034" width="18.259" height="46.952" transform="translate(0 28.693)" fill="none" stroke="#ec2227" stroke-miterlimit="10" stroke-width="1.7"/>
      <rect id="Rectangle_1035" data-name="Rectangle 1035" width="33.91" height="75.646" transform="translate(18.259 0)" fill="none" stroke="#ec2227" stroke-miterlimit="10" stroke-width="1.7"/>
      <rect id="Rectangle_1036" data-name="Rectangle 1036" width="18.259" height="26.085" transform="translate(26.085 49.561)" fill="none" stroke="#ec2227" stroke-miterlimit="10" stroke-width="1.7"/>
      <rect id="Rectangle_1037" data-name="Rectangle 1037" width="18.26" height="46.952" transform="translate(52.169 28.693)" fill="none" stroke="#ec2227" stroke-miterlimit="10" stroke-width="1.7"/>
      <g id="Group_4735-2" data-name="Group 4735" transform="translate(57.386 33.91)">
        <rect id="Rectangle_1038" data-name="Rectangle 1038" width="7.826" height="5.217" fill="none" stroke="#ec2227" stroke-miterlimit="10" stroke-width="1.7"/>
        <rect id="Rectangle_1039" data-name="Rectangle 1039" width="7.826" height="5.217" transform="translate(0 10.434)" fill="none" stroke="#ec2227" stroke-miterlimit="10" stroke-width="1.7"/>
        <rect id="Rectangle_1040" data-name="Rectangle 1040" width="7.826" height="5.217" transform="translate(0 20.868)" fill="none" stroke="#ec2227" stroke-miterlimit="10" stroke-width="1.7"/>
        <rect id="Rectangle_1041" data-name="Rectangle 1041" width="7.826" height="5.217" transform="translate(0 31.302)" fill="none" stroke="#ec2227" stroke-miterlimit="10" stroke-width="1.7"/>
      </g>
      <g id="Group_4736" data-name="Group 4736" transform="translate(5.217 33.91)">
        <rect id="Rectangle_1042" data-name="Rectangle 1042" width="7.825" height="5.217" fill="none" stroke="#ec2227" stroke-miterlimit="10" stroke-width="1.7"/>
        <rect id="Rectangle_1043" data-name="Rectangle 1043" width="7.825" height="5.217" transform="translate(0 10.434)" fill="none" stroke="#ec2227" stroke-miterlimit="10" stroke-width="1.7"/>
        <rect id="Rectangle_1044" data-name="Rectangle 1044" width="7.825" height="5.217" transform="translate(0 20.868)" fill="none" stroke="#ec2227" stroke-miterlimit="10" stroke-width="1.7"/>
        <rect id="Rectangle_1045" data-name="Rectangle 1045" width="7.825" height="5.217" transform="translate(0 31.302)" fill="none" stroke="#ec2227" stroke-miterlimit="10" stroke-width="1.7"/>
      </g>
      <line id="Line_290" data-name="Line 290" y2="26.085" transform="translate(35.214 49.561)" fill="none" stroke="#ec2227" stroke-miterlimit="10" stroke-width="1.7"/>
    </g>
  </g>
</svg>
