<svg xmlns="http://www.w3.org/2000/svg" width="400" height="53.737" viewBox="0 0 400 53.737">
  <g id="Group_14030" data-name="Group 14030" transform="translate(-48.706 -17.975)">
    <path id="Path_65141" data-name="Path 65141" d="M53.895,43.326l.954-7.274H50.5v-6.68h5.129l1.312-10.377h5.725L61.409,29.372h5.785l1.312-10.377h5.785L72.979,29.372h4.354v6.68H72.2l-.954,7.274H75.6V50.01H70.475L69.162,60.385H63.377L64.689,50.01H58.845L57.592,60.385H51.807L53.119,50.01H48.706V43.326Zm11.57,0,.954-7.274H60.574l-.895,7.274Z" transform="translate(0 1.008)" fill="#f90d09"/>
    <path id="Path_65142" data-name="Path 65142" d="M72.354,49.348a14.139,14.139,0,0,0,.239,2.71,4.709,4.709,0,0,0,.895,2.058,4.4,4.4,0,0,0,1.759,1.314,7.013,7.013,0,0,0,2.773.477,5.488,5.488,0,0,0,3.549-1.282,4.808,4.808,0,0,0,1.58-3.968,7.107,7.107,0,0,0-.388-2.473A4.924,4.924,0,0,0,81.479,46.3a9.1,9.1,0,0,0-2.356-1.521,33.76,33.76,0,0,0-3.608-1.4,30.907,30.907,0,0,1-4.95-2.087,13.349,13.349,0,0,1-3.489-2.654,9.5,9.5,0,0,1-2.058-3.519,14.82,14.82,0,0,1-.656-4.622q0-6.322,3.519-9.423t9.662-3.1a21,21,0,0,1,5.278.626A11.06,11.06,0,0,1,87,20.629a9.485,9.485,0,0,1,2.743,3.578,12.6,12.6,0,0,1,.984,5.218v1.193h-8.23a8.543,8.543,0,0,0-1.074-4.682,3.953,3.953,0,0,0-3.578-1.64,5.965,5.965,0,0,0-2.386.417,4.017,4.017,0,0,0-1.521,1.1,3.778,3.778,0,0,0-.775,1.58,8,8,0,0,0-.209,1.849,6.152,6.152,0,0,0,.835,3.31,7.485,7.485,0,0,0,3.578,2.475l6.62,2.863a20.292,20.292,0,0,1,4,2.236,10.9,10.9,0,0,1,2.475,2.5,8.329,8.329,0,0,1,1.282,2.952,16.521,16.521,0,0,1,.358,3.576q0,6.745-3.906,9.813T77.3,62.049q-7.276,0-10.407-3.161t-3.131-9.067V48.093h8.588Z" transform="translate(14.879)" fill="#f90d09"/>
    <path id="Path_65143" data-name="Path 65143" d="M96.4,52.006A7.8,7.8,0,0,1,93,55.4a10.793,10.793,0,0,1-4.771,1.014,8.317,8.317,0,0,1-6.053-2.06q-2.117-2.055-2.117-6.886v-23.8h8.23V45.8a5.484,5.484,0,0,0,.835,3.489,3.326,3.326,0,0,0,2.684.984q4.351,0,4.354-5.308V23.675h8.23V55.761H96.517V52.006Z" transform="translate(30.974 5.632)" fill="#f90d09"/>
    <path id="Path_65144" data-name="Path 65144" d="M102.928,24.09v3.757h.119a8.339,8.339,0,0,1,3.4-3.489,10.053,10.053,0,0,1,4.769-1.1,8.129,8.129,0,0,1,6.055,2.147q2.114,2.147,2.117,6.978v23.8h-8.23V34.05a5.5,5.5,0,0,0-.835-3.489,3.338,3.338,0,0,0-2.684-.984q-4.354,0-4.354,5.308V56.176h-8.23V24.09Z" transform="translate(45.793 5.217)" fill="#f90d09"/>
    <path id="Path_65145" data-name="Path 65145" d="M117.116,23.675l3.757,22.782h.119l4-22.782h8.946l4.234,22.782h.119l3.877-22.782h7.872l-6.918,32.086h-9.363l-4.234-22.782H129.4l-4,22.782h-9.542l-6.978-32.086Z" transform="translate(59.457 5.632)" fill="#f90d09"/>
    <path id="Path_65146" data-name="Path 65146" d="M131.05,33.155a10.864,10.864,0,0,1,.895-4.682,8.176,8.176,0,0,1,2.415-3.042,9.587,9.587,0,0,1,3.578-1.67,18.275,18.275,0,0,1,4.384-.507,20.334,20.334,0,0,1,5.964.716A8.15,8.15,0,0,1,151.8,26a6.8,6.8,0,0,1,1.7,3.131,16.592,16.592,0,0,1,.447,3.966V49.974a22.71,22.71,0,0,0,.209,3.519,12.2,12.2,0,0,0,.805,2.684h-7.872a6.854,6.854,0,0,1-.626-1.64c-.141-.575-.268-1.141-.388-1.7h-.119a6.993,6.993,0,0,1-3.31,3.25,13.363,13.363,0,0,1-4.861.745,8.067,8.067,0,0,1-3.638-.745,6.121,6.121,0,0,1-2.386-2.06,9.143,9.143,0,0,1-1.312-2.95,13.066,13.066,0,0,1-.418-3.25,14.1,14.1,0,0,1,.477-3.906,7.519,7.519,0,0,1,1.461-2.8,7.937,7.937,0,0,1,2.5-1.936,19.77,19.77,0,0,1,3.668-1.374l4.652-1.252a4.973,4.973,0,0,0,2.565-1.312,3.663,3.663,0,0,0,.716-2.445,4.416,4.416,0,0,0-.865-2.893,3.651,3.651,0,0,0-2.952-1.044,3.526,3.526,0,0,0-2.863,1.133,4.569,4.569,0,0,0-.954,3.042v.895h-7.4Zm13.24,8.022a11.354,11.354,0,0,1-1.73.567,6.313,6.313,0,0,0-3.578,1.789,5.048,5.048,0,0,0-1.074,3.4,6.53,6.53,0,0,0,.716,3.165A2.5,2.5,0,0,0,141.01,51.4a6.019,6.019,0,0,0,1.73-.268,4.832,4.832,0,0,0,1.64-.861,4.612,4.612,0,0,0,1.223-1.553,5.005,5.005,0,0,0,.477-2.264V40.133A7.358,7.358,0,0,1,144.29,41.177Z" transform="translate(80.353 5.217)" fill="#f90d09"/>
    <path id="Path_65147" data-name="Path 65147" d="M148.367,60.117a3.988,3.988,0,0,0,3.252-1.2,5.655,5.655,0,0,0,1.163-3.159l-9.008-32.086h8.59l4.771,22.184h.119l4.173-22.184h8.23l-7.753,29.937a60.748,60.748,0,0,1-2.058,6.473,11.176,11.176,0,0,1-2.326,3.817,6.449,6.449,0,0,1-3.221,1.759,22.382,22.382,0,0,1-4.741.419h-3.34V59.934A12.868,12.868,0,0,0,148.367,60.117Z" transform="translate(93.927 5.632)" fill="#f90d09"/>
    <path id="Path_65148" data-name="Path 65148" d="M158.325,34.913V29.307H162.5V25.669a9.815,9.815,0,0,1,.6-3.638,5.707,5.707,0,0,1,1.7-2.386,6.722,6.722,0,0,1,2.714-1.282,15.3,15.3,0,0,1,3.576-.388q2.207,0,4.415.179V24a4.5,4.5,0,0,0-.835-.06h-.777a3.843,3.843,0,0,0-2.441.6,2.423,2.423,0,0,0-.72,1.968v2.8H175.5v5.606h-4.773v26.48H162.5V34.913Z" transform="translate(108.303)" fill="#f90d09"/>
    <path id="Path_65149" data-name="Path 65149" d="M168.521,32.859a13.984,13.984,0,0,1,2.147-5.278,9.523,9.523,0,0,1,3.906-3.221,14.253,14.253,0,0,1,5.934-1.1,15.073,15.073,0,0,1,6.141.984,8.621,8.621,0,0,1,3.881,3.191,14.337,14.337,0,0,1,2.026,5.308,40.516,40.516,0,0,1,.594,7.4,36.182,36.182,0,0,1-.652,7.274,14.11,14.11,0,0,1-2.147,5.28,8.921,8.921,0,0,1-3.91,3.131,15.34,15.34,0,0,1-5.932,1.014,15.9,15.9,0,0,1-6.143-.924,8.278,8.278,0,0,1-3.877-3.1,13.98,13.98,0,0,1-2.03-5.308,40.579,40.579,0,0,1-.594-7.364A36.066,36.066,0,0,1,168.521,32.859Zm7.692,11.809a15.633,15.633,0,0,0,.569,3.576,5.1,5.1,0,0,0,1.342,2.326,3.344,3.344,0,0,0,2.386.835,3.489,3.489,0,0,0,3.459-2.62q.954-2.627.954-8.65t-.954-8.648a3.491,3.491,0,0,0-3.459-2.624,3.353,3.353,0,0,0-2.386.835,5.11,5.11,0,0,0-1.342,2.326,15.688,15.688,0,0,0-.569,3.578q-.116,2.087-.115,4.533C176.1,41.767,176.135,43.274,176.213,44.667Z" transform="translate(117.728 5.215)" fill="#f90d09"/>
    <path id="Path_65150" data-name="Path 65150" d="M190.075,24.09v4.294h.121a11.646,11.646,0,0,1,3.04-3.727,6.85,6.85,0,0,1,4.356-1.4q.355,0,.746.03t.745.089v7.872q-.656-.06-1.284-.089t-1.282-.03a8.012,8.012,0,0,0-2.147.3,5.761,5.761,0,0,0-1.968.984,4.94,4.94,0,0,0-1.429,1.789,6.169,6.169,0,0,0-.539,2.714V56.176h-8.228V24.09Z" transform="translate(131.896 5.217)" fill="#f90d09"/>
    <path id="Path_65151" data-name="Path 65151" d="M211.16,29.008a7.955,7.955,0,0,0-.865-2.3,5.511,5.511,0,0,0-1.523-1.73,3.648,3.648,0,0,0-2.236-.686q-3.1,0-4.473,3.459t-1.37,11.451q0,3.817.241,6.918a26.59,26.59,0,0,0,.861,5.276,7.625,7.625,0,0,0,1.791,3.344,4.086,4.086,0,0,0,3.012,1.161,4.211,4.211,0,0,0,1.7-.415,5.6,5.6,0,0,0,1.732-1.254,6.859,6.859,0,0,0,1.344-2.117,7.756,7.756,0,0,0,.535-3.012V44.753h-5.664V38.431h13.892V61.393h-6.322V57.455H213.7A9.058,9.058,0,0,1,209.969,61a11.988,11.988,0,0,1-5.218,1.046,13.193,13.193,0,0,1-6.415-1.372,9.368,9.368,0,0,1-3.875-4.236,21.562,21.562,0,0,1-1.879-7.065,87.564,87.564,0,0,1-.479-9.751,57.1,57.1,0,0,1,.688-9.423,18.759,18.759,0,0,1,2.358-6.769,10.755,10.755,0,0,1,4.409-4.085,15.281,15.281,0,0,1,6.863-1.372q7.035,0,10.137,3.489t3.1,9.99h-8.232A11.651,11.651,0,0,0,211.16,29.008Z" transform="translate(141.675)" fill="#f90d09"/>
    <path id="Path_65152" data-name="Path 65152" d="M208.99,32.859a14.048,14.048,0,0,1,2.147-5.278,9.536,9.536,0,0,1,3.906-3.221,14.25,14.25,0,0,1,5.936-1.1,15.09,15.09,0,0,1,6.143.984A8.626,8.626,0,0,1,231,27.431a14.168,14.168,0,0,1,2.028,5.308,40.135,40.135,0,0,1,.6,7.4,36.016,36.016,0,0,1-.656,7.274,14.046,14.046,0,0,1-2.149,5.28,8.883,8.883,0,0,1-3.9,3.131,15.357,15.357,0,0,1-5.934,1.014,15.9,15.9,0,0,1-6.143-.924,8.312,8.312,0,0,1-3.879-3.1,13.913,13.913,0,0,1-2.026-5.308,40.2,40.2,0,0,1-.6-7.364A35.921,35.921,0,0,1,208.99,32.859Zm7.7,11.809a15.531,15.531,0,0,0,.567,3.576,5.1,5.1,0,0,0,1.34,2.326,3.355,3.355,0,0,0,2.388.835,3.486,3.486,0,0,0,3.459-2.62q.951-2.627.952-8.65t-.952-8.648a3.488,3.488,0,0,0-3.459-2.624,3.364,3.364,0,0,0-2.388.835,5.107,5.107,0,0,0-1.34,2.326,15.586,15.586,0,0,0-.567,3.578q-.122,2.087-.119,4.533C216.566,41.767,216.6,43.274,216.686,44.667Z" transform="translate(157.711 5.215)" fill="#f90d09"/>
    <path id="Path_65153" data-name="Path 65153" d="M223.39,32.859a13.984,13.984,0,0,1,2.147-5.278,9.523,9.523,0,0,1,3.906-3.221,14.253,14.253,0,0,1,5.934-1.1,15.09,15.09,0,0,1,6.143.984,8.626,8.626,0,0,1,3.879,3.191,14.337,14.337,0,0,1,2.026,5.308,40.516,40.516,0,0,1,.594,7.4,36.184,36.184,0,0,1-.652,7.274,14.11,14.11,0,0,1-2.147,5.28,8.91,8.91,0,0,1-3.91,3.131,15.34,15.34,0,0,1-5.932,1.014,15.9,15.9,0,0,1-6.143-.924,8.273,8.273,0,0,1-3.875-3.1,13.948,13.948,0,0,1-2.032-5.308,40.579,40.579,0,0,1-.594-7.364A36.066,36.066,0,0,1,223.39,32.859Zm7.694,11.809a15.641,15.641,0,0,0,.567,3.576,5.1,5.1,0,0,0,1.342,2.326,3.344,3.344,0,0,0,2.386.835,3.486,3.486,0,0,0,3.459-2.62q.954-2.627.954-8.65t-.954-8.648a3.488,3.488,0,0,0-3.459-2.624,3.352,3.352,0,0,0-2.386.835,5.11,5.11,0,0,0-1.342,2.326,15.7,15.7,0,0,0-.567,3.578q-.119,2.087-.117,4.533C230.966,41.767,231,43.274,231.084,44.667Z" transform="translate(171.938 5.215)" fill="#f90d09"/>
    <path id="Path_65154" data-name="Path 65154" d="M254.4,57.578a8.231,8.231,0,0,1-3.071,3.161,8.961,8.961,0,0,1-4.2.895,8.116,8.116,0,0,1-7.455-3.877q-2.386-3.877-2.388-12.823t2.388-12.912a8.073,8.073,0,0,1,7.455-3.966,7.752,7.752,0,0,1,3.964.954,9.367,9.367,0,0,1,2.952,2.863h.119V18.4h8.232V60.978h-7.874v-3.4Zm-8.081-4.739a3.367,3.367,0,0,0,3.491,2.652,3.4,3.4,0,0,0,3.549-2.652,29.088,29.088,0,0,0,.8-7.9,29.071,29.071,0,0,0-.8-7.9,3.4,3.4,0,0,0-3.549-2.654,3.365,3.365,0,0,0-3.491,2.654,29.152,29.152,0,0,0-.8,7.9A29.169,29.169,0,0,0,246.318,52.839Z" transform="translate(186.313 0.415)" fill="#f90d09"/>
  </g>
</svg>
