<svg xmlns="http://www.w3.org/2000/svg" width="59.983" height="73.982" viewBox="0 0 59.983 73.982">
  <g id="Group_8684" data-name="Group 8684" transform="translate(1578.473 -161.75)">
    <path id="Path_65496" data-name="Path 65496" d="M-1547.93,233.866h49.5c1.732,0,2.207-2.271,2.207-3.49V164.457a2.207,2.207,0,0,0-2.207-2.207h-49.5a2.207,2.207,0,0,0-2.207,2.207v13.307l-1.283,1.1,1.283,1.078v9.664l-1.283,1.07,1.283,1.112v9.664l-1.283,1.14,1.283,1.042V213.3l-1.283,1,1.283,1.179v9.664l-1.283,1.015,1.283,1.167v3.047c0,1.219.281,3.49,2.207,3.49Z" transform="translate(-22.768)" fill="#fff" stroke="#eb2127" stroke-miterlimit="10" stroke-width="1"/>
    <path id="Path_65497" data-name="Path 65497" d="M-1428.553,281.6l-.486-4.677-3.168-4.983v-12.1a.714.714,0,0,0-.756-.712,12.841,12.841,0,0,0-12.015,11.5v0a12.97,12.97,0,0,0-.068,1.324,12.839,12.839,0,0,0,12.839,12.839,12.805,12.805,0,0,0,4.543-.828l.841-1.741Z" transform="translate(-113.98 -83.063)" fill="#fff" stroke="#eb2127" stroke-miterlimit="10" stroke-width="1"/>
    <g id="Group_8682" data-name="Group 8682" transform="translate(-1561.698 209.504)">
      <path id="Path_65498" data-name="Path 65498" d="M-1429.746,493.759h-32.943a1.106,1.106,0,0,0-1.106,1.106,1.106,1.106,0,0,0,1.106,1.106h32.943a1.106,1.106,0,0,0,1.106-1.106A1.106,1.106,0,0,0-1429.746,493.759Z" transform="translate(1463.795 -493.759)" fill="#fff" stroke="#eb2127" stroke-miterlimit="10" stroke-width="1"/>
      <path id="Path_65499" data-name="Path 65499" d="M-1428.64,542.254a1.106,1.106,0,0,0-1.106-1.106h-32.943a1.106,1.106,0,0,0-1.106,1.106,1.106,1.106,0,0,0,1.106,1.106h32.943A1.106,1.106,0,0,0-1428.64,542.254Z" transform="translate(1463.795 -534.393)" fill="#fff" stroke="#eb2127" stroke-miterlimit="10" stroke-width="1"/>
      <path id="Path_65500" data-name="Path 65500" d="M-1462.689,588.54a1.106,1.106,0,0,0-1.106,1.106,1.106,1.106,0,0,0,1.106,1.106h23.456a1.105,1.105,0,0,0,1.105-1.106,1.106,1.106,0,0,0-1.105-1.106Z" transform="translate(1463.795 -575.03)" fill="#fff" stroke="#eb2127" stroke-miterlimit="10" stroke-width="1"/>
    </g>
    <g id="Group_8683" data-name="Group 8683" transform="translate(-1577.973 170.14)">
      <path id="Path_65501" data-name="Path 65501" d="M-1573.064,550.016a4.915,4.915,0,0,0-4.909,4.909,4.915,4.915,0,0,0,4.909,4.909,1.107,1.107,0,0,0,.159-.013V557.64a1.116,1.116,0,0,0-.159-.013,2.705,2.705,0,0,1-2.7-2.7,2.705,2.705,0,0,1,2.7-2.7,2.705,2.705,0,0,1,2.7,2.7,1.1,1.1,0,0,0,1.1,1.1,1.1,1.1,0,0,0,1.1-1.1A4.915,4.915,0,0,0-1573.064,550.016Z" transform="translate(1577.973 -502.633)" fill="#fff" stroke="#eb2127" stroke-miterlimit="10" stroke-width="1"/>
      <path id="Path_65502" data-name="Path 65502" d="M-1573.064,466.912a4.915,4.915,0,0,0-4.909,4.909,4.915,4.915,0,0,0,4.909,4.909,1.1,1.1,0,0,0,.159-.013v-2.182a1.163,1.163,0,0,0-.159-.013,2.705,2.705,0,0,1-2.7-2.7,2.705,2.705,0,0,1,2.7-2.7,2.705,2.705,0,0,1,2.7,2.7,1.1,1.1,0,0,0,1.1,1.1,1.1,1.1,0,0,0,1.1-1.1A4.915,4.915,0,0,0-1573.064,466.912Z" transform="translate(1577.973 -431.375)" fill="#fff" stroke="#eb2127" stroke-miterlimit="10" stroke-width="1"/>
      <path id="Path_65503" data-name="Path 65503" d="M-1573.064,383.81a4.915,4.915,0,0,0-4.909,4.909,4.915,4.915,0,0,0,4.909,4.909,1.1,1.1,0,0,0,.159-.013v-2.182a1.121,1.121,0,0,0-.159-.013,2.705,2.705,0,0,1-2.7-2.7,2.705,2.705,0,0,1,2.7-2.7,2.705,2.705,0,0,1,2.7,2.7,1.1,1.1,0,0,0,1.1,1.1,1.1,1.1,0,0,0,1.1-1.1,4.915,4.915,0,0,0-4.909-4.909Z" transform="translate(1577.973 -360.118)" fill="#fff" stroke="#eb2127" stroke-miterlimit="10" stroke-width="1"/>
      <path id="Path_65504" data-name="Path 65504" d="M-1573.064,300.706a4.915,4.915,0,0,0-4.909,4.909,4.915,4.915,0,0,0,4.909,4.909,1.094,1.094,0,0,0,.159-.013V308.33a1.121,1.121,0,0,0-.159-.013,2.705,2.705,0,0,1-2.7-2.7,2.705,2.705,0,0,1,2.7-2.7,2.705,2.705,0,0,1,2.7,2.7,1.1,1.1,0,0,0,1.1,1.1,1.1,1.1,0,0,0,1.1-1.1A4.915,4.915,0,0,0-1573.064,300.706Z" transform="translate(1577.973 -288.86)" fill="#fff" stroke="#eb2127" stroke-miterlimit="10" stroke-width="1"/>
      <path id="Path_65505" data-name="Path 65505" d="M-1573.064,217.6a4.915,4.915,0,0,0-4.909,4.909,4.915,4.915,0,0,0,4.909,4.909,1.125,1.125,0,0,0,.159-.012v-2.182a1.118,1.118,0,0,0-.159-.013,2.705,2.705,0,0,1-2.7-2.7,2.705,2.705,0,0,1,2.7-2.7,2.705,2.705,0,0,1,2.7,2.7,1.1,1.1,0,0,0,1.1,1.1,1.1,1.1,0,0,0,1.1-1.1A4.915,4.915,0,0,0-1573.064,217.6Z" transform="translate(1577.973 -217.603)" fill="#fff" stroke="#eb2127" stroke-miterlimit="10" stroke-width="1"/>
    </g>
    <path id="Path_65506" data-name="Path 65506" d="M-1490.712,642.392h-49.5a2.207,2.207,0,0,1-2.207-2.207v2.649a2.207,2.207,0,0,0,2.207,2.207h49.5a2.207,2.207,0,0,0,2.207-2.207v-2.649A2.207,2.207,0,0,1-1490.712,642.392Z" transform="translate(-30.485 -409.809)" fill="#fff" stroke="#eb2127" stroke-miterlimit="10" stroke-width="1"/>
    <path id="Path_65507" data-name="Path 65507" d="M-1342.444,349.189h0a.706.706,0,0,0-.427-.143h-12.1l3.655,9.661h0l.888,2.349a12.847,12.847,0,0,0,8.274-11.251A.719.719,0,0,0-1342.444,349.189Z" transform="translate(-191.21 -160.17)" fill="#fff" stroke="#eb2127" stroke-miterlimit="10" stroke-width="1"/>
    <path id="Path_65508" data-name="Path 65508" d="M-1309.3,231.887h0a13.943,13.943,0,0,0-12.927-11.269.715.715,0,0,0-.758.712v10.557h0v1.936a.713.713,0,0,0,.713.713h12.493a.711.711,0,0,0,.713-.742A14.007,14.007,0,0,0-1309.3,231.887Z" transform="translate(-218.642 -50.047)" fill="#fff" stroke="#eb2127" stroke-miterlimit="10" stroke-width="1"/>
  </g>
</svg>
