<svg xmlns="http://www.w3.org/2000/svg" width="80.927" height="76.62" viewBox="0 0 80.927 76.62">
  <g id="Group_8681" data-name="Group 8681" transform="translate(1603.578 935.853)">
    <path id="Path_65477" data-name="Path 65477" d="M-1410.81-935.353a8.268,8.268,0,0,1,8.268,8.268v11.024h-16.536v-11.024A8.268,8.268,0,0,1-1410.81-935.353Z" transform="translate(-152.305 0)" fill="#fff" stroke="#eb2127" stroke-miterlimit="10" stroke-width="1"/>
    <path id="Path_65478" data-name="Path 65478" d="M-1282.81-935.353a8.268,8.268,0,0,1,8.268,8.268v11.024h-16.536v-11.024A8.268,8.268,0,0,1-1282.81-935.353Z" transform="translate(-258.256 0)" fill="#fff" stroke="#eb2127" stroke-miterlimit="10" stroke-width="1"/>
    <path id="Path_65479" data-name="Path 65479" d="M-1538.81-935.353a8.268,8.268,0,0,1,8.268,8.268v11.024h-16.537v-11.024A8.268,8.268,0,0,1-1538.81-935.353Z" transform="translate(-46.354 0)" fill="#fff" stroke="#eb2127" stroke-miterlimit="10" stroke-width="1"/>
    <path id="Path_65480" data-name="Path 65480" d="M-1582.407-855.353h38.585a20.671,20.671,0,0,1,20.671,20.671h0a20.671,20.671,0,0,1-20.671,20.671h-38.585a20.671,20.671,0,0,1-20.671-20.671h0A20.671,20.671,0,0,1-1582.407-855.353Z" transform="translate(0 -66.219)" fill="#fff" stroke="#eb2127" stroke-miterlimit="10" stroke-width="1"/>
    <path id="Path_65481" data-name="Path 65481" d="M-1243.078-815.353h9.646v12.4h-9.646Z" transform="translate(-297.988 -99.329)" fill="#fff" stroke="#eb2127" stroke-miterlimit="10" stroke-width="1"/>
    <path id="Path_65482" data-name="Path 65482" d="M-1187.078-835.219l5.512-4.134v12.4l-5.512,4.134Z" transform="translate(-344.341 -79.463)" fill="#fff" stroke="#eb2127" stroke-miterlimit="10" stroke-width="1"/>
    <g id="Group_8680" data-name="Group 8680" transform="translate(-1589.297 -916.06)">
      <path id="Path_65483" data-name="Path 65483" d="M-1523.078-823.353h9.646v11.024h-6.89l-2.756-2.756Z" transform="translate(1523.078 823.353)" fill="#fff" stroke="#eb2127" stroke-miterlimit="10" stroke-width="1"/>
      <path id="Path_65484" data-name="Path 65484" d="M-1435.078-823.353h9.646v11.024h-6.89l-2.756-2.756Z" transform="translate(1450.237 823.353)" fill="#fff" stroke="#eb2127" stroke-miterlimit="10" stroke-width="1"/>
      <path id="Path_65485" data-name="Path 65485" d="M-1347.078-823.353h9.646v11.024h-6.89l-2.756-2.756Z" transform="translate(1377.395 823.353)" fill="#fff" stroke="#eb2127" stroke-miterlimit="10" stroke-width="1"/>
      <path id="Path_65486" data-name="Path 65486" d="M-1347.078-700.33h9.646v-11.024h-6.89l-2.756,2.756Z" transform="translate(1377.395 730.647)" fill="#fff" stroke="#eb2127" stroke-miterlimit="10" stroke-width="1"/>
      <path id="Path_65487" data-name="Path 65487" d="M-1259.078-700.33h9.646v-11.024h-6.89l-2.756,2.756Z" transform="translate(1304.554 730.647)" fill="#fff" stroke="#eb2127" stroke-miterlimit="10" stroke-width="1"/>
      <path id="Path_65488" data-name="Path 65488" d="M-1435.078-700.33h9.646v-11.024h-6.89l-2.756,2.756Z" transform="translate(1450.237 730.647)" fill="#fff" stroke="#eb2127" stroke-miterlimit="10" stroke-width="1"/>
      <path id="Path_65489" data-name="Path 65489" d="M-1523.078-700.33h9.646v-11.024h-6.89l-2.756,2.756Z" transform="translate(1523.078 730.647)" fill="#fff" stroke="#eb2127" stroke-miterlimit="10" stroke-width="1"/>
    </g>
    <path id="Path_65490" data-name="Path 65490" d="M-1410.81-671.354a8.268,8.268,0,0,1,8.268,8.268v8.268a2.756,2.756,0,0,1-2.756,2.756h-11.024a2.756,2.756,0,0,1-2.756-2.756v-8.268A8.268,8.268,0,0,1-1410.81-671.354Z" transform="translate(-152.305 -218.523)" fill="#fff" stroke="#eb2127" stroke-miterlimit="10" stroke-width="1"/>
    <path id="Path_65491" data-name="Path 65491" d="M-1538.81-671.354a8.268,8.268,0,0,1,8.268,8.268v8.268a2.756,2.756,0,0,1-2.756,2.756h-11.024a2.756,2.756,0,0,1-2.756-2.756v-8.268A8.269,8.269,0,0,1-1538.81-671.354Z" transform="translate(-46.354 -218.523)" fill="#fff" stroke="#eb2127" stroke-miterlimit="10" stroke-width="1"/>
    <path id="Path_65492" data-name="Path 65492" d="M-1282.81-671.354a8.268,8.268,0,0,1,8.268,8.268v8.268a2.756,2.756,0,0,1-2.756,2.756h-11.024a2.756,2.756,0,0,1-2.756-2.756v-8.268A8.268,8.268,0,0,1-1282.81-671.354Z" transform="translate(-258.256 -218.523)" fill="#fff" stroke="#eb2127" stroke-miterlimit="10" stroke-width="1"/>
    <path id="Path_65493" data-name="Path 65493" d="M-1409.432-601.464v-6.89h-2.756v13.781h-6.89v2.756h1.378v1.378a1.378,1.378,0,0,0,1.378,1.378,1.378,1.378,0,0,0,1.378-1.378v-1.378h8.268v1.378a1.378,1.378,0,0,0,1.378,1.378,1.378,1.378,0,0,0,1.378-1.378v-1.378h1.378v-2.756h-6.89v-6.89Z" transform="translate(-152.305 -270.671)" fill="#fff" stroke="#eb2127" stroke-miterlimit="10" stroke-width="1"/>
    <path id="Path_65494" data-name="Path 65494" d="M-1282.432-601.464v-6.89h-2.756v13.781h-6.89v2.756h1.378v1.378a1.378,1.378,0,0,0,1.378,1.378,1.378,1.378,0,0,0,1.378-1.378v-1.378h8.268v1.378a1.378,1.378,0,0,0,1.378,1.378,1.378,1.378,0,0,0,1.378-1.378v-1.378h1.378v-2.756h-6.89v-6.89Z" transform="translate(-257.428 -270.671)" fill="#fff" stroke="#eb2127" stroke-miterlimit="10" stroke-width="1"/>
    <path id="Path_65495" data-name="Path 65495" d="M-1537.332-601.464v-6.89h-2.756v13.781h-6.89v2.756h1.378v1.378a1.378,1.378,0,0,0,1.378,1.378,1.378,1.378,0,0,0,1.378-1.378v-1.378h8.268v1.378a1.378,1.378,0,0,0,1.378,1.378,1.378,1.378,0,0,0,1.378-1.378v-1.378h1.378v-2.756h-6.89v-6.89Z" transform="translate(-46.436 -270.671)" fill="#fff" stroke="#eb2127" stroke-miterlimit="10" stroke-width="1"/>
  </g>
</svg>
