<svg xmlns="http://www.w3.org/2000/svg" width="65" height="78.333" viewBox="0 0 65 78.333">
  <g id="Contact_form" data-name="Contact form" transform="translate(1563.577 370.505)">
    <path id="Path_65461" data-name="Path 65461" d="M-1563.077-370.005h53.333v62.667h-53.333Z" transform="translate(0)" fill="#fff" stroke="#eb2127" stroke-miterlimit="10" stroke-width="1"/>
    <path id="Path_65462" data-name="Path 65462" d="M-1515.077-338.005h37.333v8h-37.333Z" transform="translate(-40 -26.667)" fill="#fff" stroke="#eb2127" stroke-miterlimit="10" stroke-width="1"/>
    <path id="Path_65463" data-name="Path 65463" d="M-1515.077-250.005h8v8h-8Z" transform="translate(-40 -100)" fill="#fff" stroke="#eb2127" stroke-miterlimit="10" stroke-width="1"/>
    <path id="Path_65464" data-name="Path 65464" d="M-1515.077-170.005h8v8h-8Z" transform="translate(-40 -166.667)" fill="#fff" stroke="#eb2127" stroke-miterlimit="10" stroke-width="1"/>
    <path id="Path_65465" data-name="Path 65465" d="M-1515.077-90h8v8h-8Z" transform="translate(-40 -233.333)" fill="#fff" stroke="#eb2127" stroke-miterlimit="10" stroke-width="1"/>
    <path id="Path_65466" data-name="Path 65466" d="M-1300.742-145.565V-127.3a7.945,7.945,0,0,1-1.347,4.44l-.867,1.307a2.7,2.7,0,0,0-.453,1.493l.013,1.853h-18.68v-2.667l-.76-1.147a13.245,13.245,0,0,1-1.774-10.853h6.76l.026-.04a8.319,8.319,0,0,1,1.947-6.093l-3.947-3.947-3.053-3.053a4.007,4.007,0,0,1,0-5.667,4.007,4.007,0,0,1,5.667,0l1.04,1.04,4.76,4.76v-14.773l7.547,7.547a10.647,10.647,0,0,1,3.12,7.533Z" transform="translate(-198.335 -174.467)" fill="#fff" stroke="#eb2127" stroke-miterlimit="10" stroke-width="1"/>
    <g id="Group_8679" data-name="Group 8679" transform="translate(-1540.41 -350.005)">
      <path id="Path_65467" data-name="Path 65467" d="M-1404.41-215.338h-21.333a1.334,1.334,0,0,1-1.333-1.333,1.334,1.334,0,0,1,1.333-1.333h21.333a1.333,1.333,0,0,1,1.333,1.333A1.333,1.333,0,0,1-1404.41-215.338Z" transform="translate(1427.077 223.338)" fill="#fff" stroke="#eb2127" stroke-miterlimit="10" stroke-width="1"/>
      <path id="Path_65468" data-name="Path 65468" d="M-1413.744-135.338h-12a1.334,1.334,0,0,1-1.333-1.333,1.334,1.334,0,0,1,1.333-1.333h12a1.333,1.333,0,0,1,1.333,1.333A1.333,1.333,0,0,1-1413.744-135.338Z" transform="translate(1427.077 156.672)" fill="#fff" stroke="#eb2127" stroke-miterlimit="10" stroke-width="1"/>
      <path id="Path_65469" data-name="Path 65469" d="M-1427.077-56.672a1.334,1.334,0,0,0,1.333,1.333h16a1.333,1.333,0,0,0,1.333-1.333,1.333,1.333,0,0,0-1.333-1.333h-16A1.334,1.334,0,0,0-1427.077-56.672Z" transform="translate(1427.077 90.005)" fill="#fff" stroke="#eb2127" stroke-miterlimit="10" stroke-width="1"/>
      <path id="Path_65470" data-name="Path 65470" d="M-1404.41-247.338h-21.333a1.334,1.334,0,0,1-1.333-1.333,1.334,1.334,0,0,1,1.333-1.333h21.333a1.333,1.333,0,0,1,1.333,1.333A1.333,1.333,0,0,1-1404.41-247.338Z" transform="translate(1427.077 250.005)" fill="#fff" stroke="#eb2127" stroke-miterlimit="10" stroke-width="1"/>
    </g>
    <path id="Path_65471" data-name="Path 65471" d="M-1503.938-256.98a1.334,1.334,0,0,0,1.885,0l6.667-6.667a1.333,1.333,0,0,0-.033-1.885,1.333,1.333,0,0,0-1.853,0l-5.724,5.724-1.724-1.724a1.334,1.334,0,0,0-1.885.033,1.333,1.333,0,0,0,0,1.853Z" transform="translate(-46.749 -86.749)" fill="#fff" stroke="#eb2127" stroke-miterlimit="10" stroke-width="1"/>
    <path id="Path_65472" data-name="Path 65472" d="M-1497.271-185.532l-5.724,5.724-1.724-1.724a1.334,1.334,0,0,0-1.885.033,1.333,1.333,0,0,0,0,1.853l2.667,2.667a1.334,1.334,0,0,0,1.885,0l6.667-6.667a1.333,1.333,0,0,0-.033-1.885A1.333,1.333,0,0,0-1497.271-185.532Z" transform="translate(-46.749 -153.415)" fill="#fff" stroke="#eb2127" stroke-miterlimit="10" stroke-width="1"/>
    <path id="Path_65473" data-name="Path 65473" d="M-1497.271-105.532l-5.724,5.724-1.724-1.724a1.333,1.333,0,0,0-1.885.033,1.333,1.333,0,0,0,0,1.852l2.667,2.667a1.334,1.334,0,0,0,1.885,0l6.667-6.667a1.333,1.333,0,0,0-.033-1.885A1.334,1.334,0,0,0-1497.271-105.532Z" transform="translate(-46.749 -220.082)" fill="#fff" stroke="#eb2127" stroke-miterlimit="10" stroke-width="1"/>
    <path id="Path_65474" data-name="Path 65474" d="M-1404.41-167.338h-21.333a1.334,1.334,0,0,1-1.333-1.333,1.334,1.334,0,0,1,1.333-1.333h21.333a1.333,1.333,0,0,1,1.333,1.333A1.333,1.333,0,0,1-1404.41-167.338Z" transform="translate(-113.333 -166.667)" fill="#fff" stroke="#eb2127" stroke-miterlimit="10" stroke-width="1"/>
    <path id="Path_65475" data-name="Path 65475" d="M-1413.744-87.338h-12a1.334,1.334,0,0,1-1.333-1.333A1.334,1.334,0,0,1-1425.744-90h12a1.333,1.333,0,0,1,1.333,1.333A1.333,1.333,0,0,1-1413.744-87.338Z" transform="translate(-113.333 -233.333)" fill="#fff" stroke="#eb2127" stroke-miterlimit="10" stroke-width="1"/>
    <path id="Path_65476" data-name="Path 65476" d="M-1287.777,10.555l.626.773h1.333l-.626-.773a8.38,8.38,0,0,1-1.788-4.56h-1.333A8.38,8.38,0,0,0-1287.777,10.555Z" transform="translate(-227.927 -313.333)" fill="#fff" stroke="#eb2127" stroke-miterlimit="10" stroke-width="1"/>
  </g>
</svg>
