<svg xmlns="http://www.w3.org/2000/svg" width="78.984" height="78.984" viewBox="0 0 78.984 78.984">
  <g id="Group_8678" data-name="Group 8678" transform="translate(-1379.947 1267.5)">
    <g id="Group_8676" data-name="Group 8676" transform="translate(1380.447 -1267)">
      <g id="Group_8667" data-name="Group 8667" transform="translate(38.992)">
        <path id="Path_65442" data-name="Path 65442" d="M1452.114-1267h38.993v7.8h-38.993Z" transform="translate(-1452.114 1267)" fill="none" stroke="#eb2127" stroke-miterlimit="10" stroke-width="1"/>
      </g>
      <g id="Group_8668" data-name="Group 8668" transform="translate(33.325 52.821)">
        <path id="Path_65443" data-name="Path 65443" d="M1449.5-1169.915l17.365,17.365a7.727,7.727,0,0,1-2.288,5.51,7.727,7.727,0,0,1-5.511,2.288l-17.365-17.365A22.193,22.193,0,0,0,1449.5-1169.915Z" transform="translate(-1441.699 1169.915)" fill="none" stroke="#eb2127" stroke-miterlimit="10" stroke-width="1"/>
      </g>
      <g id="Group_8669" data-name="Group 8669" transform="translate(0 22.092)">
        <path id="Path_65444" data-name="Path 65444" d="M1412.942-1226.4a22.091,22.091,0,0,1,11.7,19.5,22.1,22.1,0,0,1-22.095,22.1,22.1,22.1,0,0,1-22.1-22.1,22.069,22.069,0,0,1,9.334-18.039" transform="translate(-1380.447 1226.395)" fill="none" stroke="#eb2127" stroke-miterlimit="10" stroke-width="1"/>
      </g>
      <g id="Group_8670" data-name="Group 8670" transform="translate(5.199 25.853)">
        <path id="Path_65445" data-name="Path 65445" d="M1413.059-1219.483a16.9,16.9,0,0,1,10.737,15.739,16.9,16.9,0,0,1-16.9,16.9,16.9,16.9,0,0,1-16.9-16.9,16.886,16.886,0,0,1,8.072-14.412" transform="translate(-1390.003 1219.483)" fill="none" stroke="#eb2127" stroke-miterlimit="10" stroke-width="1"/>
      </g>
      <g id="Group_8671" data-name="Group 8671" transform="translate(6.499)">
        <path id="Path_65446" data-name="Path 65446" d="M1411.056-1265.7a5.2,5.2,0,0,1,3.431-1.3,5.2,5.2,0,0,1,5.2,5.2,5.2,5.2,0,0,1-5.2,5.2h-9.1a2.607,2.607,0,0,0-2.6,2.6v2.6a2.54,2.54,0,0,0-1.833.766,2.54,2.54,0,0,0-.767,1.833v.221a2.609,2.609,0,0,0,.767,1.845l1.066,1.066a2.608,2.608,0,0,1,.767,1.846v6.719l-3.626-2.717-1.221-.923a13.031,13.031,0,0,1-2.716-2.7,12.706,12.706,0,0,1-1.366-2.184,13.9,13.9,0,0,1-1.468-6.2,13.873,13.873,0,0,1,13.868-13.868Z" transform="translate(-1392.392 1267)" fill="none" stroke="#eb2127" stroke-miterlimit="10" stroke-width="1"/>
      </g>
      <g id="Group_8672" data-name="Group 8672" transform="translate(10.398 29.894)">
        <path id="Path_65447" data-name="Path 65447" d="M1407.357-1183.916a16.878,16.878,0,0,1-7.8-4.25v-14.284a10.354,10.354,0,0,1,1.781-5.8,10.272,10.272,0,0,1,4.718-3.808l5.2,5.2,2.6-2.6a10.267,10.267,0,0,1,4.718,3.808,10.349,10.349,0,0,1,1.781,5.8v13.725a16.744,16.744,0,0,1-9.1,2.664,16.787,16.787,0,0,1-3.9-.455Z" transform="translate(-1399.558 1212.055)" fill="none" stroke="#eb2127" stroke-miterlimit="10" stroke-width="1"/>
      </g>
      <g id="Group_8673" data-name="Group 8673" transform="translate(14.298 10.398)">
        <path id="Path_65448" data-name="Path 65448" d="M1414.525-1223.194l-5.2-5.2v-6.719a2.609,2.609,0,0,0-.767-1.846l-1.066-1.066a2.608,2.608,0,0,1-.767-1.845v-.221a2.54,2.54,0,0,1,.767-1.833,2.539,2.539,0,0,1,1.832-.767v-2.6a2.607,2.607,0,0,1,2.6-2.6h9.1a21.7,21.7,0,0,1,3.9,11.7l-3.9,1.3v.767a4.41,4.41,0,0,1-.338,1.69,4.449,4.449,0,0,1-.962,1.442,4.429,4.429,0,0,1-2.6,1.261v3.938Z" transform="translate(-1406.726 1247.889)" fill="none" stroke="#eb2127" stroke-miterlimit="10" stroke-width="1"/>
      </g>
      <g id="Group_8674" data-name="Group 8674" transform="translate(59.788 49.39)">
        <path id="Path_65449" data-name="Path 65449" d="M1490.337-1176.221h15.6v15.6h-15.6Z" transform="translate(-1490.337 1176.221)" fill="none" stroke="#eb2127" stroke-miterlimit="10" stroke-width="1"/>
      </g>
      <g id="Group_8675" data-name="Group 8675" transform="translate(59.788 28.594)">
        <path id="Path_65450" data-name="Path 65450" d="M1490.337-1214.444h15.6v15.6h-15.6Z" transform="translate(-1490.337 1214.444)" fill="none" stroke="#eb2127" stroke-miterlimit="10" stroke-width="1"/>
      </g>
    </g>
    <g id="Group_8677" data-name="Group 8677" transform="translate(1425.938 -1255.302)">
      <path id="Path_65452" data-name="Path 65452" d="M1499.333-1165.164l-1.68-1.681-1.838,1.839,3.518,3.518,7.418-7.417-1.838-1.838Z" transform="translate(-1478.538 1211.417)" fill="none" stroke="#eb2127" stroke-miterlimit="10" stroke-width="1"/>
      <path id="Path_65453" data-name="Path 65453" d="M1499.333-1203.386l-1.68-1.681-1.838,1.838,3.518,3.518,7.418-7.417-1.838-1.838Z" transform="translate(-1478.538 1228.843)" fill="none" stroke="#eb2127" stroke-miterlimit="10" stroke-width="1"/>
      <path id="Path_65454" data-name="Path 65454" d="M1464.06-1245.5h23.4v2.6h-23.4Z" transform="translate(-1464.06 1245.5)" fill="none" stroke="#eb2127" stroke-miterlimit="10" stroke-width="1"/>
      <path id="Path_65455" data-name="Path 65455" d="M1464.06-1235.944h23.4v2.6h-23.4Z" transform="translate(-1464.06 1241.143)" fill="none" stroke="#eb2127" stroke-miterlimit="10" stroke-width="1"/>
      <path id="Path_65456" data-name="Path 65456" d="M1464.06-1226.389h2.6v2.6h-2.6Z" transform="translate(-1464.06 1236.787)" fill="none" stroke="#eb2127" stroke-miterlimit="10" stroke-width="1"/>
      <path id="Path_65457" data-name="Path 65457" d="M1502.281-1226.389h2.6v2.6h-2.6Z" transform="translate(-1481.486 1236.787)" fill="none" stroke="#eb2127" stroke-miterlimit="10" stroke-width="1"/>
      <path id="Path_65458" data-name="Path 65458" d="M1492.726-1226.389h2.6v2.6h-2.6Z" transform="translate(-1477.13 1236.787)" fill="none" stroke="#eb2127" stroke-miterlimit="10" stroke-width="1"/>
      <path id="Path_65459" data-name="Path 65459" d="M1483.17-1226.389h2.6v2.6h-2.6Z" transform="translate(-1472.773 1236.787)" fill="none" stroke="#eb2127" stroke-miterlimit="10" stroke-width="1"/>
      <path id="Path_65460" data-name="Path 65460" d="M1473.615-1226.389h2.6v2.6h-2.6Z" transform="translate(-1468.416 1236.787)" fill="none" stroke="#eb2127" stroke-miterlimit="10" stroke-width="1"/>
    </g>
  </g>
</svg>
