<svg xmlns="http://www.w3.org/2000/svg" width="66.298" height="75.273" viewBox="0 0 66.298 75.273">
  <g id="Group_8665" data-name="Group 8665" transform="translate(-512.14 -128.422) rotate(9)">
    <path id="Path_65429" data-name="Path 65429" d="M618.459,122.72l9.7,9.7a4.7,4.7,0,0,1,1.376,3.322h0a4.7,4.7,0,0,1-4.7,4.7h0a4.7,4.7,0,0,1-3.322-1.376l-9.7-9.7Z" transform="translate(-29.773 -29.774)" fill="#fff" stroke="#eb2127" stroke-miterlimit="10" stroke-width="1"/>
    <rect id="Rectangle_5634" data-name="Rectangle 5634" width="9.394" height="7.828" transform="matrix(0.707, -0.707, 0.707, 0.707, 576.509, 94.051)" fill="#fff" stroke="#eb2127" stroke-miterlimit="10" stroke-width="1"/>
    <circle id="Ellipse_588" data-name="Ellipse 588" cx="22.144" cy="22.144" r="22.144" transform="translate(530.796 73.016) rotate(-45)" fill="#fff" stroke="#eb2127" stroke-miterlimit="10" stroke-width="1"/>
    <g id="Group_8664" data-name="Group 8664" transform="translate(535.539 46.443)">
      <path id="Path_65433" data-name="Path 65433" d="M564.868,49.2a26.573,26.573,0,1,0,26.573,26.573A26.573,26.573,0,0,0,564.868,49.2Zm0,48.718a22.144,22.144,0,1,1,22.144-22.144A22.144,22.144,0,0,1,564.868,97.917Z" transform="translate(-538.295 -49.199)" fill="#fff" stroke="#eb2127" stroke-miterlimit="10" stroke-width="1"/>
    </g>
  </g>
</svg>
