<svg xmlns="http://www.w3.org/2000/svg" width="78.724" height="76.296" viewBox="0 0 78.724 76.296">
  <g id="Group_8685" data-name="Group 8685" transform="translate(1613.158 -1540.5)">
    <circle id="Ellipse_589" data-name="Ellipse 589" cx="18.176" cy="18.176" r="18.176" transform="translate(-1594.822 1556.432)" fill="#fff" stroke="#eb2127" stroke-miterlimit="10" stroke-width="1"/>
    <path id="Path_65509" data-name="Path 65509" d="M-1277.252,1595.879c4.447,0,8.052,1.448,8.052,3.235v4.313h-16.1v-4.313C-1285.3,1597.328-1281.7,1595.879-1277.252,1595.879Z" transform="translate(-272.443 -45.674)" fill="#fff" stroke="#eb2127" stroke-miterlimit="10" stroke-width="1"/>
    <circle id="Ellipse_590" data-name="Ellipse 590" cx="4.613" cy="4.613" r="4.613" transform="translate(-1554.308 1541)" fill="#fff" stroke="#eb2127" stroke-miterlimit="10" stroke-width="1"/>
    <path id="Path_65510" data-name="Path 65510" d="M-1443.518,1740.571c5.07,0,9.18,1.651,9.18,3.688v4.918h-18.36v-4.918C-1452.7,1742.222-1448.588,1740.571-1443.518,1740.571Z" transform="translate(-133.128 -166.095)" fill="#fff" stroke="#eb2127" stroke-miterlimit="10" stroke-width="1"/>
    <circle id="Ellipse_591" data-name="Ellipse 591" cx="5.259" cy="5.259" r="5.259" transform="translate(-1581.906 1563.981)" fill="#fff" stroke="#eb2127" stroke-miterlimit="10" stroke-width="1"/>
    <circle id="Ellipse_592" data-name="Ellipse 592" cx="4.924" cy="4.924" r="4.924" transform="translate(-1605.781 1542.677)" fill="#fff" stroke="#eb2127" stroke-miterlimit="10" stroke-width="1"/>
    <circle id="Ellipse_593" data-name="Ellipse 593" cx="4.924" cy="4.924" r="4.924" transform="translate(-1612.658 1569.516)" fill="#fff" stroke="#eb2127" stroke-miterlimit="10" stroke-width="1"/>
    <circle id="Ellipse_594" data-name="Ellipse 594" cx="4.924" cy="4.924" r="4.924" transform="translate(-1607.123 1593.671)" fill="#fff" stroke="#eb2127" stroke-miterlimit="10" stroke-width="1"/>
    <circle id="Ellipse_595" data-name="Ellipse 595" cx="4.924" cy="4.924" r="4.924" transform="translate(-1560.658 1590.484)" fill="#fff" stroke="#eb2127" stroke-miterlimit="10" stroke-width="1"/>
    <path id="Path_65511" data-name="Path 65511" d="M-1237.252,1736.879c4.447,0,8.052,1.448,8.052,3.235v4.313h-16.1v-4.313C-1245.3,1738.327-1241.7,1736.879-1237.252,1736.879Z" transform="translate(-305.734 -163.022)" fill="#fff" stroke="#eb2127" stroke-miterlimit="10" stroke-width="1"/>
    <circle id="Ellipse_596" data-name="Ellipse 596" cx="4.613" cy="4.613" r="4.613" transform="translate(-1547.599 1564.652)" fill="#fff" stroke="#eb2127" stroke-miterlimit="10" stroke-width="1"/>
    <path id="Path_65512" data-name="Path 65512" d="M-1461.252,1944.879c4.447,0,8.052,1.448,8.052,3.235v4.313h-16.1v-4.313C-1469.3,1946.328-1465.7,1944.879-1461.252,1944.879Z" transform="translate(-119.308 -336.132)" fill="#fff" stroke="#eb2127" stroke-miterlimit="10" stroke-width="1"/>
    <circle id="Ellipse_597" data-name="Ellipse 597" cx="4.613" cy="4.613" r="4.613" transform="translate(-1585.173 1599.542)" fill="#fff" stroke="#eb2127" stroke-miterlimit="10" stroke-width="1"/>
    <line id="Line_758" data-name="Line 758" y1="3.838" x2="5.891" transform="translate(-1563.679 1557.794)" fill="#fff" stroke="#eb2127" stroke-miterlimit="10" stroke-width="1"/>
    <line id="Line_759" data-name="Line 759" x2="7.68" y2="1.489" transform="translate(-1558.641 1576.42)" fill="#fff" stroke="#eb2127" stroke-miterlimit="10" stroke-width="1"/>
    <line id="Line_760" data-name="Line 760" y1="15.712" x2="13.699" transform="translate(-1572.402 1599.039)" fill="#fff" stroke="#eb2127" stroke-miterlimit="10" stroke-width="1"/>
    <line id="Line_761" data-name="Line 761" y1="10.456" x2="9.449" transform="translate(-1551.993 1581.537)" fill="#fff" stroke="#eb2127" stroke-miterlimit="10" stroke-width="1"/>
    <line id="Line_762" data-name="Line 762" y1="7.02" x2="0.488" transform="translate(-1579.559 1592.634)" fill="#fff" stroke="#eb2127" stroke-miterlimit="10" stroke-width="1"/>
    <line id="Line_763" data-name="Line 763" x1="3.128" y1="14.652" transform="translate(-1606.506 1579.13)" fill="#fff" stroke="#eb2127" stroke-miterlimit="10" stroke-width="1"/>
    <line id="Line_764" data-name="Line 764" x2="8.097" y2="1.187" transform="translate(-1602.78 1574.704)" fill="#fff" stroke="#eb2127" stroke-miterlimit="10" stroke-width="1"/>
    <line id="Line_765" data-name="Line 765" y1="2.27" x2="41.62" transform="translate(-1595.856 1545.121)" fill="#fff" stroke="#eb2127" stroke-miterlimit="10" stroke-width="1"/>
    <line id="Line_766" data-name="Line 766" x2="3.436" y2="7.185" transform="translate(-1548.254 1557.83)" fill="#fff" stroke="#eb2127" stroke-miterlimit="10" stroke-width="1"/>
    <line id="Line_767" data-name="Line 767" x2="8.618" y2="9.673" transform="translate(-1597.346 1551.344)" fill="#fff" stroke="#eb2127" stroke-miterlimit="10" stroke-width="1"/>
    <line id="Line_768" data-name="Line 768" x1="4.347" y2="17.271" transform="translate(-1606.509 1552.469)" fill="#fff" stroke="#eb2127" stroke-miterlimit="10" stroke-width="1"/>
    <line id="Line_769" data-name="Line 769" x2="10.065" y2="9.645" transform="translate(-1598.541 1601.806)" fill="#fff" stroke="#eb2127" stroke-miterlimit="10" stroke-width="1"/>
  </g>
</svg>
