<svg xmlns="http://www.w3.org/2000/svg" width="94.646" height="67.047" viewBox="0 0 94.646 67.047">
  <g id="Group_6199" data-name="Group 6199" transform="translate(-374.618 -1361.25)">
    <g id="Group_5025" data-name="Group 5025" transform="translate(375.368 1362)">
      <path id="Path_4348" data-name="Path 4348" d="M412.155,168.929v65.547H505.3V168.929Z" transform="translate(-412.155 -168.929)" fill="#fff" stroke="#eb2127" stroke-miterlimit="10" stroke-width="1.5"/>
    </g>
    <g id="Group_5026" data-name="Group 5026" transform="translate(394.066 1410.297)">
      <path id="Path_4349" data-name="Path 4349" d="M429.063,208.382h6.9v10.35h-6.9Z" transform="translate(-429.063 -208.382)" fill="#fff" stroke="#eb2127" stroke-miterlimit="10" stroke-width="1.5"/>
    </g>
    <g id="Group_5027" data-name="Group 5027" transform="translate(421.962 1406.497)">
      <path id="Path_4350" data-name="Path 4350" d="M451.851,205.278h6.9v14.15h-6.9Z" transform="translate(-451.851 -205.278)" fill="#fff" stroke="#eb2127" stroke-miterlimit="10" stroke-width="1.5"/>
    </g>
    <g id="Group_5028" data-name="Group 5028" transform="translate(380.679 1403.488)">
      <path id="Path_4351" data-name="Path 4351" d="M418.127,202.82h6.9v17.159h-6.9Z" transform="translate(-418.127 -202.82)" fill="#fff" stroke="#eb2127" stroke-miterlimit="10" stroke-width="1.5"/>
    </g>
    <g id="Group_5029" data-name="Group 5029" transform="translate(407.866 1396.497)">
      <path id="Path_4352" data-name="Path 4352" d="M440.336,197.109h6.9v24.15h-6.9Z" transform="translate(-440.336 -197.109)" fill="#fff" stroke="#eb2127" stroke-miterlimit="10" stroke-width="1.5"/>
    </g>
    <path id="Path_4353" data-name="Path 4353" d="M469.063,178.2a11.295,11.295,0,1,0,11.3,11.3A11.3,11.3,0,0,0,469.063,178.2Z" transform="translate(-23.563 1198.15)" fill="#fff" stroke="#eb2127" stroke-miterlimit="10" stroke-width="1.5"/>
    <path id="Path_4354" data-name="Path 4354" d="M479.762,192.051l6.53,3.766a18.835,18.835,0,0,1-32.623,0l6.53-3.766a11.293,11.293,0,0,0,19.563,0Z" transform="translate(-24.481 1201.254)" fill="#fff" stroke="#eb2127" stroke-miterlimit="10" stroke-width="1.5"/>
    <path id="Path_4355" data-name="Path 4355" d="M485.828,190.884A18.7,18.7,0,0,1,483.3,200.3l-6.53-3.766a11.295,11.295,0,0,0-9.781-16.952v-7.534a18.834,18.834,0,0,1,18.834,18.835Z" transform="translate(-21.494 1196.771)" fill="#fff" stroke="#eb2127" stroke-miterlimit="10" stroke-width="1.5"/>
    <path id="Path_4356" data-name="Path 4356" d="M470.443,172.049v7.534a11.294,11.294,0,0,0-9.782,16.952l-6.53,3.766a18.686,18.686,0,0,1-2.523-9.416,18.841,18.841,0,0,1,18.835-18.835Z" transform="translate(-24.943 1196.771)" fill="#fff" stroke="#eb2127" stroke-miterlimit="10" stroke-width="1.5"/>
    <path id="Path_4357" data-name="Path 4357" d="M467.914,193.376a5.022,5.022,0,1,1,5.023-5.022A5.027,5.027,0,0,1,467.914,193.376Z" transform="translate(-22.414 1199.3)" fill="#fff" stroke="#eb2127" stroke-miterlimit="10" stroke-width="1.5"/>
    <text id="_2000" data-name="2000" transform="translate(400 1387)" fill="#ec2227" font-size="18" font-family="MyriadPro-Bold, Myriad Pro" font-weight="700"><tspan x="-19.98" y="0">2000</tspan></text>
  </g>
</svg>
