<svg xmlns="http://www.w3.org/2000/svg" width="78.485" height="82.604" viewBox="0 0 78.485 82.604">
  <g id="Group_6195" data-name="Group 6195" transform="translate(1987.175 242.853)">
    <path id="Path_6729" data-name="Path 6729" d="M-1816.712-229.41h5.492v4.29h-5.492Z" transform="translate(-133.966 -9.983)" fill="none" stroke="#fff" stroke-miterlimit="10" stroke-width="1.6"/>
    <path id="Path_6730" data-name="Path 6730" d="M-1823.932-239.307h-10.983a1.373,1.373,0,0,1-1.373-1.373,1.373,1.373,0,0,1,1.373-1.373h10.983a1.373,1.373,0,0,1,1.373,1.373A1.373,1.373,0,0,1-1823.932-239.307Z" transform="translate(-118.508)" fill="none" stroke="#fff" stroke-miterlimit="10" stroke-width="1.6"/>
    <path id="Path_6731" data-name="Path 6731" d="M-1926.289-209.426h8.238c15.165,0,27.459,11.826,27.459,26.414v3.962h-63.156v-3.962C-1953.748-197.6-1941.454-209.426-1926.289-209.426Z" transform="translate(-25.762 -25.762)" fill="none" stroke="#fff" stroke-miterlimit="10" stroke-width="1.6"/>
    <path id="Path_6732" data-name="Path 6732" d="M-1797.136,116.85h16.475v5.492h-16.475Z" transform="translate(-149.424 -283.391)" fill="none" stroke="#fff" stroke-miterlimit="10" stroke-width="1.6"/>
    <path id="Path_6733" data-name="Path 6733" d="M-1986.375-65.865h76.885v2.746a2.746,2.746,0,0,1-2.746,2.746h-71.393a2.746,2.746,0,0,1-2.746-2.746v-2.746Z" transform="translate(0 -139.118)" fill="none" stroke="#fff" stroke-miterlimit="10" stroke-width="1.6"/>
    <path id="Path_6734" data-name="Path 6734" d="M-1926.2-35.883l-1.032-2.271a2.746,2.746,0,0,0-2.5-1.61h-.783a2.746,2.746,0,0,0-1.856,4.77L-1921.1-24.66l-5.1-11.22Z" transform="translate(-41.931 -159.729)" fill="none" stroke="#fff" stroke-miterlimit="10" stroke-width="1.6"/>
    <path id="Path_6735" data-name="Path 6735" d="M-1863.928-6.812v-4.119l1.137-1.137a5.491,5.491,0,0,0,1.609-3.883V-24.66l5.1-11.22a2.746,2.746,0,0,0-1.363-3.637,2.751,2.751,0,0,0-1.136-.246h-2.343a2.746,2.746,0,0,0-2.41,1.431l-7.457,13.672-5.492,1.373-13.729-5.492-4.733-9.466a2.745,2.745,0,0,0-2.456-1.518h-.9a2.746,2.746,0,0,0-2.746,2.746,2.752,2.752,0,0,0,.246,1.137l5.1,11.22,20.594,17.848Z" transform="translate(-67.529 -159.729)" fill="none" stroke="#fff" stroke-miterlimit="10" stroke-width="1.6"/>
  </g>
</svg>
