<svg xmlns="http://www.w3.org/2000/svg" width="84.393" height="84.393" viewBox="0 0 84.393 84.393">
  <g id="Group_6365" data-name="Group 6365" transform="translate(-264.813 -648.814)">
    <g id="Group_6131" data-name="Group 6131" transform="translate(-486.617 1554.176)">
      <path id="Path_6528" data-name="Path 6528" d="M834.378-860.917l-2.362,3.873a4.32,4.32,0,0,0-.579,2.92l.7,4.474a4.318,4.318,0,0,1-1.726,4.164l-3.661,2.663a4.317,4.317,0,0,0-1.657,2.477l-1.066,4.405a4.319,4.319,0,0,1-3.182,3.182l-4.4,1.066a4.319,4.319,0,0,0-2.477,1.657l-2.662,3.66a4.319,4.319,0,0,1-4.164,1.726l-4.473-.7a4.317,4.317,0,0,0-2.92.579l-3.873,2.362a4.319,4.319,0,0,1-4.5,0l-3.874-2.362a4.319,4.319,0,0,0-2.919-.579l-4.474.7a4.319,4.319,0,0,1-4.164-1.726l-2.663-3.661a4.318,4.318,0,0,0-2.477-1.657l-4.4-1.066a4.319,4.319,0,0,1-3.182-3.182l-1.066-4.4a4.319,4.319,0,0,0-1.657-2.477l-3.66-2.662a4.319,4.319,0,0,1-1.726-4.164l.7-4.473a4.319,4.319,0,0,0-.579-2.92l-2.362-3.873a4.318,4.318,0,0,1,0-4.5l2.362-3.873a4.322,4.322,0,0,0,.579-2.92l-.7-4.474a4.319,4.319,0,0,1,1.726-4.164l3.661-2.663a4.319,4.319,0,0,0,1.658-2.477l1.066-4.4a4.318,4.318,0,0,1,3.182-3.182l4.4-1.066a4.318,4.318,0,0,0,2.477-1.657l2.662-3.66a4.32,4.32,0,0,1,4.165-1.726l4.472.7a4.316,4.316,0,0,0,2.92-.579l3.873-2.362a4.319,4.319,0,0,1,4.5,0l3.874,2.362a4.32,4.32,0,0,0,2.92.579l4.474-.7a4.319,4.319,0,0,1,4.164,1.726l2.663,3.661a4.318,4.318,0,0,0,2.477,1.657l4.405,1.066a4.319,4.319,0,0,1,3.182,3.182l1.066,4.4a4.319,4.319,0,0,0,1.657,2.477l3.66,2.662a4.319,4.319,0,0,1,1.726,4.164l-.7,4.472a4.322,4.322,0,0,0,.579,2.92l2.362,3.872A4.32,4.32,0,0,1,834.378-860.917Z" transform="translate(0 0)" fill="none" stroke="#fff" stroke-miterlimit="10" stroke-width="1.5"/>
      <path id="Path_6529" data-name="Path 6529" d="M844.28-841.593l-1.784,2.925a3.261,3.261,0,0,0-.437,2.205l.532,3.379a3.262,3.262,0,0,1-1.3,3.145l-2.765,2.011a3.261,3.261,0,0,0-1.252,1.871l-.805,3.327a3.262,3.262,0,0,1-2.4,2.4l-3.327.8a3.262,3.262,0,0,0-1.87,1.252l-2.011,2.764a3.262,3.262,0,0,1-3.145,1.3l-3.378-.532a3.264,3.264,0,0,0-2.206.437l-2.925,1.784a3.262,3.262,0,0,1-3.4,0l-2.925-1.784a3.264,3.264,0,0,0-2.205-.437l-3.379.532a3.262,3.262,0,0,1-3.145-1.3l-2.011-2.765a3.262,3.262,0,0,0-1.871-1.252l-3.327-.805a3.262,3.262,0,0,1-2.4-2.4l-.8-3.327a3.263,3.263,0,0,0-1.252-1.871l-2.764-2.011a3.263,3.263,0,0,1-1.3-3.145l.532-3.378a3.259,3.259,0,0,0-.437-2.205l-1.784-2.925a3.261,3.261,0,0,1,0-3.4l1.784-2.925a3.263,3.263,0,0,0,.437-2.206l-.532-3.379a3.263,3.263,0,0,1,1.3-3.145l2.765-2.011a3.262,3.262,0,0,0,1.252-1.871l.8-3.327a3.263,3.263,0,0,1,2.4-2.4l3.327-.805a3.261,3.261,0,0,0,1.871-1.252l2.011-2.764a3.262,3.262,0,0,1,3.145-1.3l3.378.532a3.263,3.263,0,0,0,2.205-.438l2.925-1.783a3.262,3.262,0,0,1,3.4,0l2.925,1.784a3.265,3.265,0,0,0,2.206.437l3.379-.532a3.262,3.262,0,0,1,3.145,1.3l2.011,2.765a3.263,3.263,0,0,0,1.871,1.252l3.327.8a3.262,3.262,0,0,1,2.4,2.4l.8,3.327a3.262,3.262,0,0,0,1.252,1.871l2.764,2.011a3.263,3.263,0,0,1,1.3,3.146l-.532,3.378a3.263,3.263,0,0,0,.437,2.206l1.784,2.925A3.263,3.263,0,0,1,844.28-841.593Z" transform="translate(-19.874 -19.874)" fill="none" stroke="#fff" stroke-miterlimit="10" stroke-width="1.5"/>
    </g>
    <text id="_40" data-name="40" transform="translate(285 702)" fill="#fff" font-size="30" font-family="Arial-BoldMT, Arial" font-weight="700"><tspan x="0" y="0">40</tspan></text>
    <text id="_" data-name="+" transform="translate(330 699)" fill="#fff" font-size="20" font-family="Arial-BoldMT, Arial" font-weight="700"><tspan x="-11.68" y="0">+</tspan></text>
  </g>
</svg>
