<svg xmlns="http://www.w3.org/2000/svg" width="79.189" height="71.152" viewBox="0 0 79.189 71.152">
  <g id="Group_6315" data-name="Group 6315" transform="translate(637.001 -845.608)">
    <path id="Path_7070" data-name="Path 7070" d="M-541.2,900.551l-3.122.084q-1.217,0-2.425-.085a34.678,34.678,0,0,1-8.387-1.641,34.717,34.717,0,0,0-21.62,0,6.107,6.107,0,0,0-3.774,3.482,10.665,10.665,0,0,1,1.823,5.98,10.668,10.668,0,0,1-.765,3.96l.422,1.935a6.08,6.08,0,0,0,.55,1.508,4.689,4.689,0,0,0,4.482,3.312H-541.2Z" transform="translate(-25.403 -23.168)" fill="none" stroke="#fff" stroke-miterlimit="10" stroke-width="1.5"/>
    <path id="Path_7071" data-name="Path 7071" d="M-528.266,846.358v10.716l-17.308-.961-6.8-.378-7.742,4.541a1.826,1.826,0,0,1-2.45-.816,1.827,1.827,0,0,1,.207-1.958l1.8-2.252a2.174,2.174,0,0,0-.338-3.055,2.174,2.174,0,0,0-3.056.338,2.176,2.176,0,0,0-.477,1.358v3.185a2.679,2.679,0,0,1-2.679,2.679,2.679,2.679,0,0,1-2.679-2.679v-6.7l5.358-4.019Z" transform="translate(-30.296)" fill="none" stroke="#fff" stroke-miterlimit="10" stroke-width="1.5"/>
    <path id="Path_7072" data-name="Path 7072" d="M-636.251,959.589h77.689v8.037h-77.689Z" transform="translate(0 -51.616)" fill="none" stroke="#fff" stroke-miterlimit="10" stroke-width="1.5"/>
    <path id="Path_7073" data-name="Path 7073" d="M-600.389,895.168v-.162a3.483,3.483,0,0,0-3.483-3.483h-.177a3.483,3.483,0,0,0-3.484,3.482h0v.07h5.8A10.705,10.705,0,0,1-600.389,895.168Z" transform="translate(-13.091 -20.588)" fill="none" stroke="#fff" stroke-miterlimit="10" stroke-width="1.5"/>
    <path id="Path_7074" data-name="Path 7074" d="M-559.767,886.812l-.568-7.943h1.135Z" transform="translate(-34.606 -14.82)" fill="#fff"/>
    <path id="Path_7075" data-name="Path 7075" d="M-559.154,869.295a.852.852,0,0,0-.851-.852.852.852,0,0,0-.851.852.845.845,0,0,0,.284.63v4.192h1.135v-4.192A.845.845,0,0,0-559.154,869.295Z" transform="translate(-34.368 -10.067)" fill="none" stroke="#fff" stroke-miterlimit="10" stroke-width="1.5"/>
    <path id="Path_7076" data-name="Path 7076" d="M-533.108,894.513l-.567-7.943h1.135Z" transform="translate(-46.759 -18.33)" fill="#fff"/>
    <path id="Path_7077" data-name="Path 7077" d="M-532.494,877a.851.851,0,0,0-.851-.851.85.85,0,0,0-.851.851.843.843,0,0,0,.284.63v4.192h1.135v-4.192A.841.841,0,0,0-532.494,877Z" transform="translate(-46.521 -13.579)" fill="none" stroke="#fff" stroke-miterlimit="10" stroke-width="1.5"/>
    <path id="Path_7078" data-name="Path 7078" d="M-520.555,896.976l-.567-7.943h1.135Z" transform="translate(-52.481 -19.453)" fill="#fff"/>
    <path id="Path_7079" data-name="Path 7079" d="M-519.942,879.459a.852.852,0,0,0-.851-.851.852.852,0,0,0-.851.851.846.846,0,0,0,.284.631v4.191h1.135V880.09A.846.846,0,0,0-519.942,879.459Z" transform="translate(-52.243 -14.701)" fill="none" stroke="#fff" stroke-miterlimit="10" stroke-width="1.5"/>
    <path id="Path_7080" data-name="Path 7080" d="M-554.7,891.954l3.479-7.162.983.568Z" transform="translate(-37.174 -17.52)" fill="#fff"/>
    <path id="Path_7081" data-name="Path 7081" d="M-544.979,876.188a.851.851,0,0,0-1.162.311.844.844,0,0,0-.069.688l-2.1,3.63.983.568,2.1-3.63a.846.846,0,0,0,.56-.4A.852.852,0,0,0-544.979,876.188Z" transform="translate(-40.089 -13.546)" fill="none" stroke="#fff" stroke-miterlimit="10" stroke-width="1.5"/>
    <path id="Path_7082" data-name="Path 7082" d="M-634.07,895.609a13.178,13.178,0,0,1,8.942-4.453,5.532,5.532,0,0,0-5.559-5.413,5.534,5.534,0,0,0-5.564,5.5A5.469,5.469,0,0,0-634.07,895.609Z" transform="translate(0 -17.953)" fill="none" stroke="#fff" stroke-miterlimit="10" stroke-width="1.5"/>
    <path id="Path_7083" data-name="Path 7083" d="M-636.251,907.96c0,5.744,5.331,10.4,11.906,10.4h3.572c0-6.239-9.524-16.64-9.524-16.64l9.646-4.847.474-1.284h-3.71c-6.576,0-12.364,4.548-12.364,10.291Z" transform="translate(0 -22.442)" fill="none" stroke="#fff" stroke-miterlimit="10" stroke-width="1.5"/>
    <path id="Path_7084" data-name="Path 7084" d="M-609.832,898.051h-5.943l-9.535,4.791s9.524,10.4,9.524,16.64h5.954a10.716,10.716,0,0,0,10.716-10.716A10.715,10.715,0,0,0-609.832,898.051Z" transform="translate(-4.987 -23.564)" fill="none" stroke="#fff" stroke-miterlimit="10" stroke-width="1.5"/>
    <path id="Path_7085" data-name="Path 7085" d="M-539.669,920.2h-32.817a4.688,4.688,0,0,0-4.688,4.688,4.688,4.688,0,0,0,4.688,4.688h32.817Z" transform="translate(-26.93 -33.662)" fill="none" stroke="#fff" stroke-miterlimit="10" stroke-width="1.5"/>
    <path id="Path_7086" data-name="Path 7086" d="M-632.232,937.435a4.018,4.018,0,0,0-4.019,4.019v4.018a4.018,4.018,0,0,0,4.019,4.019H-566.6V937.435Z" transform="translate(0 -41.517)" fill="none" stroke="#fff" stroke-miterlimit="10" stroke-width="1.5"/>
    <path id="Path_7087" data-name="Path 7087" d="M-508.251,900.513h8.037V932.66h-8.037Z" transform="translate(-58.348 -24.686)" fill="none" stroke="#fff" stroke-miterlimit="10" stroke-width="1.5"/>
  </g>
</svg>
