<svg xmlns="http://www.w3.org/2000/svg" viewBox="0 0 79 79"><defs><style>.cls-1{fill:none;stroke:#fff;stroke-linecap:round;stroke-linejoin:round;stroke-width:2px;}</style></defs><g id="Layer_2" data-name="Layer 2"><g id="Layer_1-2" data-name="Layer 1"><path class="cls-1" d="M42.87,4.5A9.6,9.6,0,0,1,52.17,2L71.65,7.35,77,26.83a9.6,9.6,0,0,1-2.47,9.3l-40,40a6.4,6.4,0,0,1-9,0L2.87,53.54a6.4,6.4,0,0,1,0-9Z"/><path class="cls-1" d="M46.3,42.86,40.1,29a.32.32,0,0,1,.42-.42l13.81,6.24"/><path class="cls-1" d="M45,39.18l5.66-5.67"/><path class="cls-1" d="M48.79,20,59,30.2c.13-.09,3.56-3.56,3.56-3.56"/><path class="cls-1" d="M31.67,37.16l-4.28,4.28L37.56,51.61l4.28-4.28"/><path class="cls-1" d="M36.44,42.56l-4,4"/><path class="cls-1" d="M27.7,51.3c2.81,2.8,3.47,6.57,1,9.08-.8.83-2.92,3-2.92,3l-5.1-5.08L15.64,53.2l2.88-2.88C21.22,47.61,24.9,48.49,27.7,51.3Z"/><path class="cls-1" d="M78,1,62.74,16.26"/><path class="cls-1" d="M65.56,19.08l-5.64-5.64"/></g></g></svg>