<svg xmlns="http://www.w3.org/2000/svg" width="99.415" height="75.689" viewBox="0 0 99.415 75.689">
  <g id="Group_6060" data-name="Group 6060" transform="translate(-460.402 240.778)">
    <path id="Path_6481" data-name="Path 6481" d="M563.88-211.455v-.022c0-.014,0-.028,0-.042a1.578,1.578,0,0,0-.026-.258c-.006-.033-.017-.064-.026-.1a1.472,1.472,0,0,0-.046-.169l-6.065-15.766c0-.007-.007-.012-.009-.019a1.66,1.66,0,0,0-.091-.18c-.018-.033-.034-.068-.054-.1a1.534,1.534,0,0,0-.106-.135c-.029-.035-.055-.073-.087-.106s-.072-.062-.108-.093a1.515,1.515,0,0,0-.124-.1c-.034-.023-.072-.04-.108-.061a1.5,1.5,0,0,0-.158-.086c-.031-.013-.063-.02-.1-.032a1.548,1.548,0,0,0-.2-.062c-.024-.005-.05-.006-.074-.01a1.57,1.57,0,0,0-.24-.024l-.014,0H537.083a1.575,1.575,0,0,0-1.577,1.577v33.109a1.575,1.575,0,0,0,1.577,1.576h17.336a1.561,1.561,0,0,0,.986-.348l7.885-6.312a1.577,1.577,0,0,0,.591-1.23v-10.965C563.881-211.425,563.88-211.44,563.88-211.455Zm-25.221-14.21h6.306v29.956h-6.306Zm15.207,29.956h-5.749v-29.956h7.041l5.569,14.476v9.987Z" transform="translate(-42.779 -6.425)" fill="none" stroke="#eb2127" stroke-miterlimit="10" stroke-width="1.6"/>
    <path id="Path_6482" data-name="Path 6482" d="M503.65-202.246a1.469,1.469,0,0,1-1.577-1.333v-5.33a1.47,1.47,0,0,1,1.577-1.333,1.47,1.47,0,0,1,1.576,1.333v5.33A1.469,1.469,0,0,1,503.65-202.246Z" transform="translate(-23.53 -17.12)" fill="none" stroke="#eb2127" stroke-miterlimit="10" stroke-width="1.6"/>
    <path id="Path_6483" data-name="Path 6483" d="M503.085-191.673a1.452,1.452,0,0,1,1.576,1.264v10.482l-4.8,1.639c-.831.2-1.512-.211-1.512-.907v-11.215a1.23,1.23,0,0,1,1.182-1.264h3.548Z" transform="translate(-21.389 -27.81)" fill="none" stroke="#eb2127" stroke-miterlimit="10" stroke-width="1.6"/>
    <path id="Path_6484" data-name="Path 6484" d="M489.6-157.785v6.306H476.986l-.017.095a12.5,12.5,0,0,0-1.559-.095,14.192,14.192,0,0,0-14.171,13.462,28.339,28.339,0,0,1,15.747-24.7,26.629,26.629,0,0,1,4.729-1.829,28.261,28.261,0,0,1,7.882-1.119Z" transform="translate(-0.021 -42.783)" fill="none" stroke="#eb2127" stroke-miterlimit="10" stroke-width="1.6"/>
    <path id="Path_6485" data-name="Path 6485" d="M513.892-147.645h-6.755a1.475,1.475,0,0,1-1.351-1.576,1.475,1.475,0,0,1,1.351-1.576h6.755a1.476,1.476,0,0,1,1.351,1.576A1.475,1.475,0,0,1,513.892-147.645Z" transform="translate(-25.667 -51.343)" fill="none" stroke="#eb2127" stroke-miterlimit="10" stroke-width="1.6"/>
    <path id="Path_6486" data-name="Path 6486" d="M528.077-204.171v-28.377H556.45l7.881,18.919v15.258a18.92,18.92,0,0,0-10.088,8.386H528.077v-14.187Z" transform="translate(-38.501 -4.278)" fill="none" stroke="#eb2127" stroke-miterlimit="10" stroke-width="1.6"/>
    <path id="Path_6487" data-name="Path 6487" d="M604.178-87.194a14.19,14.19,0,0,0,12.7-7.882h5.123a18.927,18.927,0,0,1-17.843,12.61,18.851,18.851,0,0,1-15.352-7.881,18.531,18.531,0,0,1-2.475-4.729h5.123A14.206,14.206,0,0,0,604.178-87.194Z" transform="translate(-72.042 -83.423)" fill="none" stroke="#eb2127" stroke-miterlimit="10" stroke-width="1.6"/>
    <path id="Path_6488" data-name="Path 6488" d="M598.406-95.076h25.426a14.188,14.188,0,0,1-12.7,7.882,14.21,14.21,0,0,1-12.721-7.882Z" transform="translate(-78.991 -83.423)" fill="none" stroke="#eb2127" stroke-miterlimit="10" stroke-width="1.6"/>
    <path id="Path_6489" data-name="Path 6489" d="M538.132-111.736H509.459a14.068,14.068,0,0,0,1.482-6.305,14.179,14.179,0,0,0-12.628-14.092l.017-.095h20.5v9.458h9.455l7.377,6.3A18.552,18.552,0,0,0,538.132-111.736Z" transform="translate(-21.366 -62.034)" fill="none" stroke="#eb2127" stroke-miterlimit="10" stroke-width="1.6"/>
    <path id="Path_6490" data-name="Path 6490" d="M489.576-118.041a14.085,14.085,0,0,1-1.482,6.305,14.188,14.188,0,0,1-12.7,7.881A14.186,14.186,0,0,1,461.2-118.041c0-.236,0-.489.016-.725a14.193,14.193,0,0,1,14.171-13.462,12.5,12.5,0,0,1,1.559.095A14.179,14.179,0,0,1,489.576-118.041Zm-6.305,0a7.884,7.884,0,0,0-7.882-7.881,7.883,7.883,0,0,0-7.881,7.881,7.884,7.884,0,0,0,7.881,7.882A7.885,7.885,0,0,0,483.27-118.041Z" transform="translate(0 -62.034)" fill="none" stroke="#eb2127" stroke-miterlimit="10" stroke-width="1.6"/>
    <path id="Path_6491" data-name="Path 6491" d="M483.944-117.367a7.882,7.882,0,0,1,7.882,7.881,7.882,7.882,0,0,1-7.882,7.882,7.882,7.882,0,0,1-7.881-7.882A7.882,7.882,0,0,1,483.944-117.367Z" transform="translate(-8.556 -70.59)" fill="none" stroke="#eb2127" stroke-miterlimit="10" stroke-width="1.6"/>
    <path id="Path_6492" data-name="Path 6492" d="M557.457-236.826h-31.52a1.576,1.576,0,0,1-1.577-1.576,1.575,1.575,0,0,1,1.577-1.576h31.52a1.575,1.575,0,0,1,1.576,1.576A1.576,1.576,0,0,1,557.457-236.826Z" transform="translate(-36.362 0)" fill="none" stroke="#eb2127" stroke-miterlimit="10" stroke-width="1.6"/>
    <path id="Path_6493" data-name="Path 6493" d="M555.17-132.228c.52,0,.945.709.945,1.576v6.305c0,.867-.425,1.577-.945,1.577h-7.564c-.52,0-.945-.71-.945-1.577v-6.305c0-.867.426-1.576.945-1.576Z" transform="translate(-49.2 -62.034)" fill="none" stroke="#eb2127" stroke-miterlimit="10" stroke-width="1.6"/>
    <path id="Path_6494" data-name="Path 6494" d="M606.126-154.52a18.924,18.924,0,0,1,16.393,9.458H616.7a14.122,14.122,0,0,0-10.559-4.729,14.153,14.153,0,0,0-10.577,4.729H589.75a18.925,18.925,0,0,1,10.088-8.386,18.9,18.9,0,0,1,6.288-1.072Z" transform="translate(-74.008 -49.2)" fill="none" stroke="#eb2127" stroke-miterlimit="10" stroke-width="1.6"/>
    <path id="Path_6495" data-name="Path 6495" d="M624.6-138.645H603.459a14.153,14.153,0,0,1,10.577-4.729A14.12,14.12,0,0,1,624.6-138.645Z" transform="translate(-81.9 -55.617)" fill="none" stroke="#eb2127" stroke-miterlimit="10" stroke-width="1.6"/>
    <path id="Path_6496" data-name="Path 6496" d="M610.543-132.228h-41.6v14.187a1.576,1.576,0,0,0,1.577,1.576h48.865l1.576-15.763Z" transform="translate(-62.029 -62.034)" fill="none" stroke="#eb2127" stroke-miterlimit="10" stroke-width="1.6"/>
    <path id="Path_6497" data-name="Path 6497" d="M570.521-102.506a1.576,1.576,0,0,1,1.576,1.576,1.576,1.576,0,0,1-1.576,1.576,1.576,1.576,0,0,1-1.577-1.576A1.576,1.576,0,0,1,570.521-102.506Z" transform="translate(-62.029 -79.146)" fill="none" stroke="#eb2127" stroke-miterlimit="10" stroke-width="1.6"/>
  </g>
</svg>
