<svg xmlns="http://www.w3.org/2000/svg" width="73.957" height="69.435" viewBox="0 0 73.957 69.435">
  <g id="Group_6208" data-name="Group 6208" transform="translate(-2534.85 418.554)">
    <path id="Path_6757" data-name="Path 6757" d="M2756.933-140.7a2.1,2.1,0,0,1-2.12-2.12,2.1,2.1,0,0,1,2.12-2.12,2.1,2.1,0,0,1,2.12,2.12A2.1,2.1,0,0,1,2756.933-140.7Z" transform="translate(-185.104 -230.42)" fill="none" stroke="#fff" stroke-miterlimit="10" stroke-width="1.6"/>
    <path id="Path_6758" data-name="Path 6758" d="M2627.644-407.631a12.277,12.277,0,0,1,6.157-1.644,12.647,12.647,0,0,1,10.173,5.082,2.389,2.389,0,0,1,.174.273c.086.118.17.238.252.359v-5.714a8.488,8.488,0,0,0-8.479-8.479,8.52,8.52,0,0,0-8.258,6.616l-.9,4.025C2627.049-407.3,2627.342-407.472,2627.644-407.631Z" transform="translate(-76.953 0)" fill="none" stroke="#fff" stroke-miterlimit="10" stroke-width="1.6"/>
    <path id="Path_6759" data-name="Path 6759" d="M2796-403.934a1.909,1.909,0,0,1,.162-.259,12.914,12.914,0,0,1,10.314-5.082,12.386,12.386,0,0,1,6.239,1.689c.273.143.538.3.8.467l-.9-4.019a8.52,8.52,0,0,0-8.258-6.616,8.61,8.61,0,0,0-8.621,8.479v5.716Q2795.863-403.749,2796-403.934Z" transform="translate(-219.666 0)" fill="none" stroke="#fff" stroke-miterlimit="10" stroke-width="1.6"/>
    <path id="Path_6760" data-name="Path 6760" d="M2552.608-165.583a16.978,16.978,0,0,1-16.958-16.959,16.9,16.9,0,0,1,.679-4.747c.2-.652.391-1.223.629-1.795a16.95,16.95,0,0,1,15.65-10.417,16.978,16.978,0,0,1,16.959,16.959A16.978,16.978,0,0,1,2552.608-165.583Zm0-29.678a12.717,12.717,0,0,0-11.739,7.817,13.943,13.943,0,0,0-.479,1.372,12.659,12.659,0,0,0-.5,3.529,12.733,12.733,0,0,0,12.719,12.719,12.733,12.733,0,0,0,12.719-12.719A12.733,12.733,0,0,0,2552.608-195.26Z" transform="translate(0 -184.337)" fill="none" stroke="#fff" stroke-miterlimit="10" stroke-width="1.6"/>
    <path id="Path_6761" data-name="Path 6761" d="M2799.194-165.583a17.1,17.1,0,0,1-17.1-16.959,17.1,17.1,0,0,1,17.1-16.959,16.946,16.946,0,0,1,15.648,10.413c.24.576.431,1.147.623,1.766a17.026,17.026,0,0,1,.688,4.78A16.978,16.978,0,0,1,2799.194-165.583Zm0-29.678a12.854,12.854,0,0,0-12.86,12.719,12.854,12.854,0,0,0,12.86,12.719,12.733,12.733,0,0,0,12.719-12.719,12.767,12.767,0,0,0-.51-3.563,14.112,14.112,0,0,0-.472-1.344A12.715,12.715,0,0,0,2799.194-195.26Z" transform="translate(-208.146 -184.337)" fill="none" stroke="#fff" stroke-miterlimit="10" stroke-width="1.6"/>
    <g id="Group_6206" data-name="Group 6206" transform="translate(2569.05 -400.711)">
      <path id="Path_6762" data-name="Path 6762" d="M2755.474-303.927a12.747,12.747,0,0,1,.533-3.644,7.047,7.047,0,0,0-2.653-.511,7.02,7.02,0,0,0-2.778.565,12.754,12.754,0,0,1,.517,3.59v24.087a2.161,2.161,0,0,0,.141-.768,2.1,2.1,0,0,1,2.12-2.12,2.1,2.1,0,0,1,2.12,2.12Z" transform="translate(-2750.576 308.082)" fill="none" stroke="#fff" stroke-miterlimit="10" stroke-width="1.6"/>
    </g>
    <g id="Group_6207" data-name="Group 6207" transform="translate(2573.948 -409.275)">
      <path id="Path_6763" data-name="Path 6763" d="M2968.5-119.843l0-.011Z" transform="translate(-2939.527 157.669)" fill="none" stroke="#fff" stroke-miterlimit="10" stroke-width="1.6"/>
      <path id="Path_6764" data-name="Path 6764" d="M2799.194-337.752a16.946,16.946,0,0,1,15.648,10.413c.236.565.424,1.127.613,1.734l-8.287-28.418a12.281,12.281,0,0,0-5.974-7.477,12.386,12.386,0,0,0-6.239-1.689,12.914,12.914,0,0,0-10.314,5.082,1.907,1.907,0,0,0-.162.259,12.452,12.452,0,0,0-2.385,7.378v29.678A17.1,17.1,0,0,1,2799.194-337.752Z" transform="translate(-2782.094 363.19)" fill="none" stroke="#fff" stroke-miterlimit="10" stroke-width="1.6"/>
      <path id="Path_6765" data-name="Path 6765" d="M2968.882-118.715c-.1-.333-.209-.665-.334-1,.125.333.233.672.342,1.03a.035.035,0,0,1,0,.007C2968.889-118.688,2968.886-118.7,2968.882-118.715Z" transform="translate(-2939.572 157.548)" fill="none" stroke="#fff" stroke-miterlimit="10" stroke-width="1.6"/>
    </g>
    <path id="Path_6766" data-name="Path 6766" d="M2570.865-357.834a2.385,2.385,0,0,0-.174-.273,12.646,12.646,0,0,0-10.172-5.082,12.277,12.277,0,0,0-6.157,1.644,12.328,12.328,0,0,0-6.053,7.513L2540-325.542c0,.005,0,.011,0,.016l0-.014c.2-.652.391-1.223.629-1.795a16.949,16.949,0,0,1,15.65-10.417,16.978,16.978,0,0,1,16.958,16.959v-29.678A12.464,12.464,0,0,0,2570.865-357.834Z" transform="translate(-3.67 -46.085)" fill="none" stroke="#fff" stroke-miterlimit="10" stroke-width="1.6"/>
  </g>
</svg>
