<svg xmlns="http://www.w3.org/2000/svg" width="80.47" height="74.725" viewBox="0 0 80.47 74.725">
  <g id="Group_6219" data-name="Group 6219" transform="translate(434.643 -1415.666)">
    <path id="Path_6780" data-name="Path 6780" d="M-202.182,1667.18a18.507,18.507,0,0,1,26.173,0,18.507,18.507,0,0,1,0,26.173,18.508,18.508,0,0,1-26.173,0A18.507,18.507,0,0,1-202.182,1667.18Z" transform="translate(-193.511 -209.818)" fill="none" stroke="#fff" stroke-miterlimit="10" stroke-width="1.5"/>
    <path id="Path_6781" data-name="Path 6781" d="M-132.49,1434.725a5.238,5.238,0,0,1-1.947,1.567,1.262,1.262,0,0,1-.547.117,1.279,1.279,0,0,1-1.235-1,1.279,1.279,0,0,1,.69-1.43,2.724,2.724,0,0,0,1.21-1.12,2.684,2.684,0,0,0-.54-3.372,2.684,2.684,0,0,0-3.413-.114,1.278,1.278,0,0,1-1.789-.256,1.278,1.278,0,0,1,.256-1.79,5.2,5.2,0,0,1,2.918-1.048,9.532,9.532,0,0,0-9.052-7.469,5.243,5.243,0,0,1,.243,1.58,1.277,1.277,0,0,1-.374.9,1.278,1.278,0,0,1-.9.375,1.278,1.278,0,0,1-1.278-1.278,2.689,2.689,0,0,0-2.689-2.689,2.689,2.689,0,0,0-2.689,2.689,1.278,1.278,0,0,1-1.278,1.278,1.278,1.278,0,0,1-1.278-1.278,5.22,5.22,0,0,1,.851-2.864,7.414,7.414,0,0,0-3.932-1.113,7.549,7.549,0,0,0-6.493,3.694A5.042,5.042,0,0,0-168,1419.6a5.151,5.151,0,0,0-4.73,3.106,5.037,5.037,0,0,0-.367,1.231,5.259,5.259,0,0,1,.726-.053,5.188,5.188,0,0,1,4.2,2.121,1.278,1.278,0,0,1,.147,1.27,1.277,1.277,0,0,1-.7.679,24.47,24.47,0,0,1,7.071,17.043h0c0,.024,0,.049,0,.073s0,.071,0,.106h0a27.85,27.85,0,0,1-.229,3.329,6.7,6.7,0,0,0,2.605.522,6.6,6.6,0,0,0,4.359-1.623,5.7,5.7,0,0,0,.741-.729,10.835,10.835,0,0,0,4.014.767h.077a3.51,3.51,0,0,0,.371-.013,9.708,9.708,0,0,0,2.237-.409,1.278,1.278,0,0,1,1.274.263,1.278,1.278,0,0,1,.384,1.243,1.279,1.279,0,0,1-.9.936,10.781,10.781,0,0,1-2.365.473,9.615,9.615,0,0,0,4.486,2.505,6.994,6.994,0,0,1,3.17,2.1,2.707,2.707,0,0,0,3.132.805,2.669,2.669,0,0,0,1.611-2.441,2.6,2.6,0,0,0-.128-.818c-.128-.4-.268-.793-.435-1.176a10.012,10.012,0,0,1-2.991.972,1.114,1.114,0,0,1-.2.013,1.278,1.278,0,0,1-1.287-1.182,1.278,1.278,0,0,1,1.095-1.362,7.4,7.4,0,0,0,2.134-.665,9.972,9.972,0,0,1,.994,1.639,9.97,9.97,0,0,0-.993-1.639,9.549,9.549,0,0,0,3.463-3.2,7.406,7.406,0,0,1-2.057.281,8.067,8.067,0,0,1-3.643-.882,8.378,8.378,0,0,1-1.5-1.023,4.548,4.548,0,0,1-1.6.307,4.431,4.431,0,0,1-3.988-2.454,1.281,1.281,0,0,1,.074-1.278,1.281,1.281,0,0,1,1.144-.575,1.281,1.281,0,0,1,1.07.7,1.917,1.917,0,0,0,1.229.973,1.917,1.917,0,0,0,1.544-.27,1.875,1.875,0,0,0,.818-1.547,1.953,1.953,0,0,0-.192-.856,1.278,1.278,0,0,1,.6-1.632,1.278,1.278,0,0,1,1.672.482,4.5,4.5,0,0,1,.473,2.007,4.417,4.417,0,0,1-.805,2.493c.2.141.409.281.614.4a5.421,5.421,0,0,0,2.48.6,5.37,5.37,0,0,0,3.566-1.329,6.748,6.748,0,0,0,1.061-1.713,6.669,6.669,0,0,0,.562-2.672A6.77,6.77,0,0,0-132.49,1434.725Zm-29.831-3.482a1.278,1.278,0,0,1-1.278,1.278,1.278,1.278,0,0,1-1.278-1.278,5.886,5.886,0,0,1,5.88-5.88,1.278,1.278,0,0,1,1.278,1.278A1.278,1.278,0,0,1-159,1427.92a3.323,3.323,0,0,0-2.35.974A3.324,3.324,0,0,0-162.322,1431.243Zm16.335.752a7.632,7.632,0,0,1-3.169,4.865,7.7,7.7,0,0,1-3.138,1.277,6.339,6.339,0,0,1-5.955,4.1,1.278,1.278,0,0,1-1.278-1.278,1.278,1.278,0,0,1,1.278-1.278,3.808,3.808,0,0,0,3.111-1.6,7.708,7.708,0,0,1-4.1-2.362,1.28,1.28,0,0,1,.084-1.808,1.28,1.28,0,0,1,1.808.084,5.218,5.218,0,0,0,6.729.767,5.1,5.1,0,0,0,2.117-3.245,1.278,1.278,0,0,1,.833-.988,1.277,1.277,0,0,1,1.268.243A1.278,1.278,0,0,1-145.987,1431.995Z" transform="translate(-223.023 0)" fill="none" stroke="#fff" stroke-miterlimit="10" stroke-width="1.5"/>
    <path id="Path_6782" data-name="Path 6782" d="M-140.824,1720.175V1714.8a.97.97,0,0,0-.97-.969h-5.372a.97.97,0,0,0-.97.969v5.372a.97.97,0,0,1-.97.97h-5.372a.969.969,0,0,0-.97.97v5.372a.97.97,0,0,0,.97.969h5.372a.97.97,0,0,1,.97.97v5.372a.97.97,0,0,0,.97.97h5.372a.97.97,0,0,0,.97-.97v-5.372a.97.97,0,0,1,.97-.97h5.372a.97.97,0,0,0,.97-.969v-5.372a.969.969,0,0,0-.97-.97h-5.372A.97.97,0,0,1-140.824,1720.175Z" transform="translate(-238.116 -254.351)" fill="none" stroke="#fff" stroke-miterlimit="10" stroke-width="1.5"/>
    <path id="Path_6783" data-name="Path 6783" d="M-385.622,1477.036a27.854,27.854,0,0,0,.956-7.016h0c0-.035,0-.07,0-.106s0-.049,0-.073h0a24.575,24.575,0,0,0-25.866-24.336,24.467,24.467,0,0,0-23.227,24.968c.142,8.072,4.087,16.125,11.738,23.98-2.915,1.793-6.042,3.521-9.324,5.144a4.543,4.543,0,0,0-2.131,5.944l2.788,6.162a4.545,4.545,0,0,0,6.148,2.2,125.249,125.249,0,0,0,15.327-8.868,125.243,125.243,0,0,0,15.327,8.868,4.55,4.55,0,0,0,5.4-1.054,18.433,18.433,0,0,1-7.211-4.466,18.507,18.507,0,0,1,0-26.173A18.423,18.423,0,0,1-385.622,1477.036Zm-23.591,7.805c-5.621-5.339-8.711-10.588-8.711-14.821a8.72,8.72,0,0,1,8.711-8.71A8.72,8.72,0,0,1-400.5,1470C-400.513,1474.232-403.6,1479.51-409.213,1484.841Z" transform="translate(0 -24.848)" fill="none" stroke="#fff" stroke-miterlimit="10" stroke-width="1.5"/>
  </g>
</svg>
