<svg xmlns="http://www.w3.org/2000/svg" viewBox="0 0 80 80"><defs><style>.cls-1,.cls-2,.cls-3,.cls-4,.cls-5{fill:none;stroke:#fff;stroke-linecap:round;stroke-linejoin:round;stroke-width:2px;}.cls-2{stroke-dasharray:10.8 43.21;}.cls-3{stroke-dasharray:14.97 59.87;}.cls-4{stroke-dasharray:11.72 46.88;}.cls-5{stroke-dasharray:12 48;}</style></defs><g id="Layer_2" data-name="Layer 2"><g id="Layer_1-2" data-name="Layer 1"><path class="cls-1" d="M40,30h0a4.88,4.88,0,0,1,4.88,4.87V36.5a4.88,4.88,0,0,1-9.76,0V34.82A4.88,4.88,0,0,1,40,30Z"/><path class="cls-1" d="M37.89,41.38h4.22a8.67,8.67,0,0,1,8.67,8.67H29.22A8.67,8.67,0,0,1,37.89,41.38Z"/><path class="cls-1" d="M68.22,1h0a4.88,4.88,0,0,0-4.88,4.88V7.56a4.88,4.88,0,0,0,9.76,0V5.88A4.88,4.88,0,0,0,68.22,1Z"/><path class="cls-1" d="M75.35,21.11H79a8.68,8.68,0,0,0-8.67-8.68H66.11a8.68,8.68,0,0,0-8.67,8.68h3.65"/><path class="cls-1" d="M11.78,52.55h0A4.88,4.88,0,0,0,6.9,57.43v1.68a4.88,4.88,0,0,0,9.76,0V57.43A4.88,4.88,0,0,0,11.78,52.55Z"/><path class="cls-1" d="M13.89,64H9.67A8.68,8.68,0,0,0,1,72.66H22.56A8.68,8.68,0,0,0,13.89,64Z"/><path class="cls-1" d="M26.08,17.17l1-.11"/><path class="cls-2" d="M33.84,16.3l13.61-1.53"/><path class="cls-1" d="M50.85,14.39l.95-.11"/><path class="cls-1" d="M29.76,66l.94.11"/><path class="cls-3" d="M40.13,67.17l7.08.8"/><path class="cls-1" d="M51.92,68.49l.95.11"/><path class="cls-1" d="M68.22,31.06V32"/><path class="cls-4" d="M68.22,39.44V45"/><path class="cls-1" d="M68.22,48.73v1"/><path class="cls-5" d="M11.54,34.11V45.53"/><path class="cls-1" d="M55,26l-3.9,4"/><path class="cls-1" d="M54,55.89l3.64,3.78"/><path class="cls-1" d="M29.08,32.63,27.54,31.4"/><path class="cls-1" d="M24.24,54l-1.68,1.35"/><path class="cls-1" d="M68.22,21.11h0"/><path class="cls-1" d="M4.38,17.63h0a2.47,2.47,0,0,1-2.47-2.47V12.89H6.84v2.27A2.47,2.47,0,0,1,4.38,17.63Zm4.93,0h0a2.48,2.48,0,0,1-2.47-2.47V12.89h4.94v2.27A2.47,2.47,0,0,1,9.31,17.63Zm4.94,0h0a2.48,2.48,0,0,1-2.47-2.47V12.89h4.94v2.27A2.48,2.48,0,0,1,14.25,17.63Zm4.94,0h0a2.47,2.47,0,0,1-2.47-2.47V12.89h4.93v2.27A2.47,2.47,0,0,1,19.19,17.63ZM8.85,21.34h5.86v6.11H8.85Z"/><path class="cls-1" d="M21.65,12.89H1.91V11.5A2.11,2.11,0,0,1,4,9.39H19.54a2.11,2.11,0,0,1,2.11,2.11v1.39ZM3,17.3v7.64a2.51,2.51,0,0,0,2.51,2.51H18.09A2.5,2.5,0,0,0,20.6,25V17.3"/><path class="cls-1" d="M79,65.42H59.25V76.59A2.41,2.41,0,0,0,61.67,79H76.59A2.41,2.41,0,0,0,79,76.59Z"/><path class="cls-1" d="M72.83,65.42H65.42V63.59a1.87,1.87,0,0,1,1.87-1.87H71a1.87,1.87,0,0,1,1.87,1.87Z"/><path class="cls-1" d="M59.25,65.42c0,3.58,3.38,6.56,7.87,7.26"/><path class="cls-1" d="M71.14,72.68C75.62,72,79,69,79,65.42"/><path class="cls-1" d="M71.14,70.82v2a2,2,0,0,1-4,0v-2Z"/></g></g></svg>