<svg xmlns="http://www.w3.org/2000/svg" viewBox="0 0 61.21 80"><defs><style>.cls-1{fill:none;stroke:#fff;stroke-linecap:round;stroke-linejoin:round;stroke-width:2px;}</style></defs><g id="Layer_2" data-name="Layer 2"><g id="Layer_1-2" data-name="Layer 1"><path class="cls-1" d="M2.16,79a26,26,0,0,0-.42-5.64L1.67,73a39.24,39.24,0,0,1-.51-10.71l.32-3.62L2,53.18l.53-5.89A4,4,0,0,1,5,43.94l6.14-2.6a18.88,18.88,0,0,1,7.07-1.48m.37,15V6.25A5.26,5.26,0,0,1,23.82,1H55a5.26,5.26,0,0,1,5.26,5.25V65.34A5.27,5.27,0,0,1,55,70.6H24.71"/><path class="cls-1" d="M25.53,54.74v-5a3.37,3.37,0,0,1,3.37-3.37h21a3.37,3.37,0,0,1,3.37,3.37V60a3.36,3.36,0,0,1-3.37,3.36H30M33.19,6.71h6m4.24,0h0"/><path class="cls-1" d="M11.29,52.18l2.79,1.46a23.46,23.46,0,0,0,3.43,1.44l1.27.42a9.35,9.35,0,0,0,6.2-.13L31,53.09A16.86,16.86,0,0,1,36.92,52h2.67a5.62,5.62,0,0,1,5.66,5.57h0a1,1,0,0,1-1,1H39.93A12.47,12.47,0,0,0,32,61.42l-4.54,3.72a9.07,9.07,0,0,0-3,4.55h0A25.89,25.89,0,0,1,20,78.54h0l-.21.27-.12.19"/><rect class="cls-1" x="25.53" y="14.06" width="12.06" height="12.06" rx="2.19"/><rect class="cls-1" x="41.17" y="14.06" width="12.06" height="12.06" rx="2.19"/><rect class="cls-1" x="25.53" y="29.7" width="12.06" height="12.06" rx="2.19"/><path class="cls-1" d="M49.14,41.76H51a2.19,2.19,0,0,0,2.19-2.19V31.89A2.19,2.19,0,0,0,51,29.7H43.36a2.19,2.19,0,0,0-2.19,2.19v7.68a2.19,2.19,0,0,0,2.19,2.19h1.91"/><circle class="cls-1" cx="31.56" cy="18.64" r="1.68"/><path class="cls-1" d="M28.66,23.22a2.91,2.91,0,1,1,5.81,0M47.2,17a2.46,2.46,0,0,1,2.46,2.46c0,1.91-2.46,3.8-2.46,3.8s-2.46-1.89-2.46-3.8A2.46,2.46,0,0,1,47.2,17ZM32.46,38.85l-1.35-2.67-2.67-1.35,6.25-2.23Z"/><circle class="cls-1" cx="47.2" cy="35.73" r="3.13"/><path class="cls-1" d="M47.2,35.73h0"/></g></g></svg>