<svg xmlns="http://www.w3.org/2000/svg" width="68.132" height="76.906" viewBox="0 0 68.132 76.906">
  <g id="Group_6287" data-name="Group 6287" transform="translate(292.811 -831.018)">
    <g id="Group_6282" data-name="Group 6282" transform="translate(-267.984 869.168)">
      <path id="Path_7005" data-name="Path 7005" d="M-235.877,897.063v-3.92a12.243,12.243,0,0,1-7.437,2.527,12.245,12.245,0,0,1-7.437-2.526v3.919a4.057,4.057,0,0,1-1.8,3.306l9.239,6.905,9.239-6.905A4.056,4.056,0,0,1-235.877,897.063Z" transform="translate(252.553 -893.144)" fill="none" stroke="#fff" stroke-miterlimit="10" stroke-width="1.5"/>
    </g>
    <g id="Group_6283" data-name="Group 6283" transform="translate(-264.067 883.299)">
      <path id="Path_7006" data-name="Path 7006" d="M-240.276,916.334l-4.5,1.912,2.631,3.058h3.739l2.631-3.058Z" transform="translate(245.598 -916.334)" fill="none" stroke="#fff" stroke-miterlimit="10" stroke-width="1.5"/>
      <path id="Path_7007" data-name="Path 7007" d="M-238.933,924.49h-3.739l-3.453,18.9h10.644Z" transform="translate(246.124 -919.52)" fill="none" stroke="#fff" stroke-miterlimit="10" stroke-width="1.5"/>
    </g>
    <path id="Path_7008" data-name="Path 7008" d="M-211.542,925.656a2.092,2.092,0,0,1,2.092,2.093,2.091,2.091,0,0,1-2.092,2.091,2.092,2.092,0,0,1-2.091-2.091A2.092,2.092,0,0,1-211.542,925.656Z" transform="translate(-30.635 -36.676)" fill="#fff"/>
    <g id="Group_6284" data-name="Group 6284" transform="translate(-245.62 851.649)">
      <path id="Path_7009" data-name="Path 7009" d="M-215.8,867.15c-.016.012-.034.021-.05.034v0Z" transform="translate(215.852 -865.471)" fill="none" stroke="#fff" stroke-miterlimit="10" stroke-width="1.5"/>
      <path id="Path_7010" data-name="Path 7010" d="M-215,866.593c.093-.049.188-.094.281-.135C-214.811,866.5-214.906,866.544-215,866.593Z" transform="translate(215.519 -865.2)" fill="none" stroke="#fff" stroke-miterlimit="10" stroke-width="1.5"/>
      <path id="Path_7011" data-name="Path 7011" d="M-215.465,866.9c.038-.024.077-.046.116-.068C-215.388,866.859-215.427,866.88-215.465,866.9Z" transform="translate(215.701 -865.348)" fill="none" stroke="#fff" stroke-miterlimit="10" stroke-width="1.5"/>
      <path id="Path_7012" data-name="Path 7012" d="M-212.242,864.394v.771a6.006,6.006,0,0,0-2.262.478v4.9h1.774a2.236,2.236,0,0,0,2.236-2.236v-1.729A2.235,2.235,0,0,0-212.242,864.394Z" transform="translate(215.325 -864.394)" fill="none" stroke="#fff" stroke-miterlimit="10" stroke-width="1.5"/>
    </g>
    <path id="Path_7013" data-name="Path 7013" d="M-213.245,921.3a4.749,4.749,0,0,1,4.749,4.749,4.749,4.749,0,0,1-4.749,4.748,4.748,4.748,0,0,1-4.748-4.748A4.749,4.749,0,0,1-213.245,921.3Z" transform="translate(-28.932 -34.973)" fill="none" stroke="#fff" stroke-miterlimit="10" stroke-width="1.5"/>
    <path id="Path_7014" data-name="Path 7014" d="M-239.391,831.768h-16.781a7.818,7.818,0,0,0-7.818,7.818V852.42a5.4,5.4,0,0,1,3.536,1.32.458.458,0,0,0,.778-.329v-10.5a3.456,3.456,0,0,1,3.456-3.456h3.14a3.569,3.569,0,0,1,2.259.806l.308.252a4.315,4.315,0,0,0,2.731.974,4.317,4.317,0,0,0,2.732-.974l.308-.252a3.571,3.571,0,0,1,2.26-.806h3.14a3.456,3.456,0,0,1,3.455,3.456v10.5a.458.458,0,0,0,.778.328,5.4,5.4,0,0,1,3.537-1.32V839.586A7.818,7.818,0,0,0-239.391,831.768Z" transform="translate(-10.964 0)" fill="none" stroke="#fff" stroke-miterlimit="10" stroke-width="1.5"/>
    <g id="Group_6285" data-name="Group 6285" transform="translate(-276.701 851.65)">
      <path id="Path_7015" data-name="Path 7015" d="M-258.958,867.189v0c-.015-.01-.031-.02-.046-.03Z" transform="translate(263.79 -865.474)" fill="none" stroke="#fff" stroke-miterlimit="10" stroke-width="1.5"/>
      <path id="Path_7016" data-name="Path 7016" d="M-259.486,866.848l.1.058C-259.419,866.886-259.453,866.867-259.486,866.848Z" transform="translate(263.978 -865.353)" fill="none" stroke="#fff" stroke-miterlimit="10" stroke-width="1.5"/>
      <path id="Path_7017" data-name="Path 7017" d="M-262.848,865.643a6,6,0,0,0-2.261-.478v-.77a2.233,2.233,0,0,0-1.748,2.178V868.3a2.236,2.236,0,0,0,2.235,2.236h1.774Z" transform="translate(266.858 -864.395)" fill="none" stroke="#fff" stroke-miterlimit="10" stroke-width="1.5"/>
      <path id="Path_7018" data-name="Path 7018" d="M-260.241,866.459q.127.057.254.122Q-260.114,866.516-260.241,866.459Z" transform="translate(264.273 -865.201)" fill="none" stroke="#fff" stroke-miterlimit="10" stroke-width="1.5"/>
    </g>
    <path id="Path_7019" data-name="Path 7019" d="M-233.66,858.668a.458.458,0,0,1-.778-.329v-10.5a3.456,3.456,0,0,0-3.455-3.456h-3.14a3.571,3.571,0,0,0-2.259.806l-.308.252a4.317,4.317,0,0,1-2.732.974,4.315,4.315,0,0,1-2.731-.974l-.308-.252a3.569,3.569,0,0,0-2.259-.806h-3.14a3.456,3.456,0,0,0-3.456,3.456v10.5a.458.458,0,0,1-.778.329,4.164,4.164,0,0,0-1.275-.844v5.033c0,3.77,4.737,13.765,13.946,13.765s13.947-10,13.947-13.765v-5.033A4.164,4.164,0,0,0-233.66,858.668Z" transform="translate(-12.414 -4.928)" fill="none" stroke="#fff" stroke-miterlimit="10" stroke-width="1.5"/>
    <g id="Group_6286" data-name="Group 6286" transform="translate(-272.45 875.97)">
      <path id="Path_7020" data-name="Path 7020" d="M-257.2,904.39l-2.683.81,5.922,8.287a1.711,1.711,0,0,0,2.061.58l5.723-2.431h0l-9.284-6.939A1.957,1.957,0,0,0-257.2,904.39Z" transform="translate(259.882 -904.306)" fill="none" stroke="#fff" stroke-miterlimit="10" stroke-width="1.5"/>
      <path id="Path_7021" data-name="Path 7021" d="M-231.668,914.066a1.709,1.709,0,0,0,2.06-.58l5.922-8.287-.014,0-2.669-.806a1.959,1.959,0,0,0-1.738.306l-9.285,6.94h0Z" transform="translate(251.096 -904.306)" fill="none" stroke="#fff" stroke-miterlimit="10" stroke-width="1.5"/>
    </g>
    <path id="Path_7022" data-name="Path 7022" d="M-225.467,932.861l-3.436-20.119a4.623,4.623,0,0,0-3.221-3.646l-8.9-2.686v8.4a4.737,4.737,0,0,0-1.15-.146,4.745,4.745,0,0,0-1.124.14v-9.051c0-.009,0-.016,0-.025l-4.42-1.334a1.957,1.957,0,0,0-1.738.307l-9.285,6.939-9.284-6.94a1.959,1.959,0,0,0-1.738-.306l-4.42,1.334c0,.009,0,.016,0,.025v4.1a5.948,5.948,0,0,0-1.032-.1h-.23a5.81,5.81,0,0,0-1.013.1v-3.443l-8.9,2.685a4.622,4.622,0,0,0-3.22,3.646l-3.437,20.119a2.268,2.268,0,0,0,2.235,2.649H-227.7A2.267,2.267,0,0,0-225.467,932.861Z" transform="translate(0 -28.336)" fill="none" stroke="#fff" stroke-miterlimit="10" stroke-width="1.5"/>
    <path id="Path_7023" data-name="Path 7023" d="M-265.1,932.215h-1.418a1.138,1.138,0,0,1-1.138-1.137,1.138,1.138,0,0,1,1.138-1.138h1.418a.62.62,0,0,0,.453-.2.621.621,0,0,0,.162-.466l-.829-10.635a3.493,3.493,0,0,0-.266-1.092,3.409,3.409,0,0,0-3.177-2.037h-.214a3.441,3.441,0,0,0-3.22,2.192,3.511,3.511,0,0,0-.2.936l-.829,10.635a.614.614,0,0,0,.162.465.616.616,0,0,0,.452.2h1.419a1.137,1.137,0,0,1,1.137,1.138,1.137,1.137,0,0,1-1.137,1.137H-272.6a2.9,2.9,0,0,1-2.122-.928,2.9,2.9,0,0,1-.76-2.187l.828-10.635a5.76,5.76,0,0,1,.338-1.545,5.727,5.727,0,0,1,5.339-3.681h.23a5.676,5.676,0,0,1,5.271,3.425,5.77,5.77,0,0,1,.44,1.8l.829,10.635a2.9,2.9,0,0,1-.76,2.188A2.9,2.9,0,0,1-265.1,932.215Z" transform="translate(-6.469 -31.824)" fill="#fff"/>
    <line id="Line_468" data-name="Line 468" x1="3.594" y2="9.299" transform="translate(-255.741 885.642)" fill="none" stroke="#fff" stroke-miterlimit="10" stroke-width="1.5"/>
    <line id="Line_469" data-name="Line 469" x2="3.594" y2="9.299" transform="translate(-265.598 885.642)" fill="none" stroke="#fff" stroke-miterlimit="10" stroke-width="1.5"/>
    <path id="Path_7024" data-name="Path 7024" d="M-223.18,890.079a15.342,15.342,0,0,1-2.174,1.946,1.112,1.112,0,0,0,.43.107,8.054,8.054,0,0,1,7.68,8.058v9.051a4.745,4.745,0,0,1,1.124-.14,4.737,4.737,0,0,1,1.15.146v-9.058A10.318,10.318,0,0,0-223.18,890.079Z" transform="translate(-26.056 -22.778)" fill="none" stroke="#fff" stroke-miterlimit="10" stroke-width="1.5"/>
    <path id="Path_7025" data-name="Path 7025" d="M-258.258,890.08a10.325,10.325,0,0,0-8.211,10.111V904.3a5.815,5.815,0,0,1,1.013-.1h.23a5.948,5.948,0,0,1,1.032.1v-4.1a8.058,8.058,0,0,1,7.657-8.058,1.125,1.125,0,0,0,.443-.114A15.363,15.363,0,0,1-258.258,890.08Z" transform="translate(-9.995 -22.779)" fill="none" stroke="#fff" stroke-miterlimit="10" stroke-width="1.5"/>
  </g>
</svg>
