<svg xmlns="http://www.w3.org/2000/svg" width="84.048" height="84.137" viewBox="0 0 84.048 84.137">
  <g id="Group_6225" data-name="Group 6225" transform="translate(960.222 -1510.235)">
    <path id="Path_6785" data-name="Path 6785" d="M-916.086,1638.985h-11.386v1.423a4.253,4.253,0,0,0,1.088,2.847,4.253,4.253,0,0,0-1.088,2.846v2.847l2.734-4.556a4.26,4.26,0,0,0,1.536.286h7.116l5.693,4.27v-4.27A5.693,5.693,0,0,0-916.086,1638.985Z" transform="translate(-26.307 -105.228)" fill="none" stroke="#fff" stroke-miterlimit="10" stroke-width="1.5"/>
    <path id="Path_6786" data-name="Path 6786" d="M-923.2,1669.664a4.257,4.257,0,0,1-1.536-.286l-2.734,4.556v4.27a8.539,8.539,0,0,0,8.152,8.531c.128.006.258.009.388.009a8.539,8.539,0,0,0,8.539-8.54v-4.27l-5.693-4.27Z" transform="translate(-26.307 -130.214)" fill="none" stroke="#fff" stroke-miterlimit="10" stroke-width="1.5"/>
    <path id="Path_6787" data-name="Path 6787" d="M-956.625,1742.985h1.423a2.847,2.847,0,0,1,2.847,2.846v2.846h-7.116v-2.846A2.847,2.847,0,0,1-956.625,1742.985Z" transform="translate(0 -190.726)" fill="none" stroke="#fff" stroke-miterlimit="10" stroke-width="1.5"/>
    <path id="Path_6788" data-name="Path 6788" d="M-938.123,1829.217h-15.656a5.693,5.693,0,0,1-5.693-5.693v-8.54h8.539v7.116h8.539l4.27-1.423Z" transform="translate(0 -249.917)" fill="none" stroke="#fff" stroke-miterlimit="10" stroke-width="1.5"/>
    <path id="Path_6789" data-name="Path 6789" d="M-950.932,1762.371v7.116h8.539l4.27-1.423v1.423a5.67,5.67,0,0,1,1.423-3.764V1758.1a7.116,7.116,0,0,0-3.346-6.032,8.5,8.5,0,0,1-5.193,1.762c-.13,0-.26,0-.388-.009a8.517,8.517,0,0,1-5.975-2.838h-.754c-.127,0-.253,0-.378.01a2.829,2.829,0,0,1,.378,1.413v2.847h-6.522a7.09,7.09,0,0,0-.594,2.847v4.27h8.539Z" transform="translate(0 -197.303)" fill="none" stroke="#fff" stroke-miterlimit="10" stroke-width="1.5"/>
    <path id="Path_6790" data-name="Path 6790" d="M-905.24,1894.985h-14.232v14.321h11.351Z" transform="translate(-32.884 -315.684)" fill="none" stroke="#fff" stroke-miterlimit="10" stroke-width="1.5"/>
    <path id="Path_6791" data-name="Path 6791" d="M-846.935,1686.3v7.08a5.679,5.679,0,0,1,4.27-1.929h8.54a5.676,5.676,0,0,1,4.026,1.667c.085.085.165.172.244.263v-.506a5.67,5.67,0,0,1,1.423-3.764V1668.8a5.754,5.754,0,0,0-5.693-5.813h-12.809c-.06,0-.119,0-.178,0a5.963,5.963,0,0,1,.178,1.452v8.743a8.533,8.533,0,0,1-3.346,6.537A7.448,7.448,0,0,1-846.935,1686.3Z" transform="translate(-89.765 -124.958)" fill="none" stroke="#fff" stroke-miterlimit="10" stroke-width="1.5"/>
    <path id="Path_6792" data-name="Path 6792" d="M-719.561,1514.4a8.539,8.539,0,0,1,1.708,5.124v6.6a4.686,4.686,0,0,0,1.373,3.314,5.033,5.033,0,0,1,1.474,3.558,5.032,5.032,0,0,1-5.032,5.032h-18.4a5.032,5.032,0,0,1-5.032-5.032,5.032,5.032,0,0,1,1.474-3.558,4.687,4.687,0,0,0,1.373-3.314v-6.6a8.541,8.541,0,0,1,1.708-5.124,8.539,8.539,0,0,1,6.832-3.416h5.693A8.538,8.538,0,0,1-719.561,1514.4Z" transform="translate(-177.572)" fill="none" stroke="#fff" stroke-miterlimit="10" stroke-width="1.5"/>
    <path id="Path_6793" data-name="Path 6793" d="M-694.393,1547.794a8.539,8.539,0,0,1-8.539,8.539,8.628,8.628,0,0,1-1.932-.219,8.547,8.547,0,0,1-6.607-8.321v-7.116a9.209,9.209,0,0,0,8.239-5.092l.3-.6c.128,0,.256.005.383.016a4.823,4.823,0,0,1,4.44,4.8,4.943,4.943,0,0,1-.066.8l-.3,1.786a4.643,4.643,0,0,0,3.136,5.179,7.378,7.378,0,0,0,.943.229Z" transform="translate(-203.879 -19.73)" fill="none" stroke="#fff" stroke-miterlimit="10" stroke-width="1.5"/>
    <path id="Path_6794" data-name="Path 6794" d="M-822.932,1726.985a7.516,7.516,0,0,1-7.292,5.693h-1.248v2.846a8.539,8.539,0,0,0,8.54,8.539,8.539,8.539,0,0,0,8.539-8.539v-2.846h-1.248A7.516,7.516,0,0,1-822.932,1726.985Z" transform="translate(-105.228 -177.572)" fill="none" stroke="#fff" stroke-miterlimit="10" stroke-width="1.5"/>
    <path id="Path_6795" data-name="Path 6795" d="M-839.472,1519.723a3.045,3.045,0,0,1,3.045-3.045h.506a3.045,3.045,0,0,1,1.362.321l1.561.781a3.045,3.045,0,0,0,1.362.321h1.528a3.04,3.04,0,0,0,1.155-.228l2.363-.968a3.04,3.04,0,0,1,1.154-.228,3.045,3.045,0,0,1,3.045,3.045v-2.614a6.124,6.124,0,0,0-2.727-5.1,6.125,6.125,0,0,0-3.4-1.029h-4.831a6.124,6.124,0,0,0-3.4,1.029,6.124,6.124,0,0,0-2.727,5.1Z" transform="translate(-98.651)" fill="none" stroke="#fff" stroke-miterlimit="10" stroke-width="1.5"/>
    <path id="Path_6796" data-name="Path 6796" d="M-825.438,1542.985a3.037,3.037,0,0,0-1.154.228l-2.363.968a3.042,3.042,0,0,1-1.155.227h-1.528a3.046,3.046,0,0,1-1.362-.321l-1.561-.78a3.043,3.043,0,0,0-1.362-.322h-.506a3.045,3.045,0,0,0-3.045,3.045v5.495l2.575,2.575a3.326,3.326,0,0,0,3.839.623,3.329,3.329,0,0,1,1.487-.351h1.276a3.323,3.323,0,0,1,1.487.352,3.328,3.328,0,0,0,3.839-.623l2.575-2.575v-5.495A3.045,3.045,0,0,0-825.438,1542.985Z" transform="translate(-98.651 -26.307)" fill="none" stroke="#fff" stroke-miterlimit="10" stroke-width="1.5"/>
    <path id="Path_6797" data-name="Path 6797" d="M-839.472,1590.985l2.575,2.575a3.327,3.327,0,0,0,3.839.623,3.326,3.326,0,0,1,1.487-.351h1.276a3.324,3.324,0,0,1,1.487.351,3.327,3.327,0,0,0,3.839-.623l2.575-2.575v7.116a5.693,5.693,0,0,1-5.693,5.693h-5.693a5.693,5.693,0,0,1-5.693-5.693Z" transform="translate(-98.651 -65.768)" fill="none" stroke="#fff" stroke-miterlimit="10" stroke-width="1.5"/>
    <path id="Path_6798" data-name="Path 6798" d="M-814.393,1712.948h-1.248a7.516,7.516,0,0,1-7.292-5.693,7.516,7.516,0,0,1-7.292,5.693h-1.248v-1.423a8.54,8.54,0,0,1,8.54-8.54,8.54,8.54,0,0,1,8.539,8.54Z" transform="translate(-105.228 -157.842)" fill="none" stroke="#fff" stroke-miterlimit="10" stroke-width="1.5"/>
    <g id="Group_6220" data-name="Group 6220" transform="translate(-918.198 1538.027)">
      <path id="Path_6799" data-name="Path 6799" d="M-708.97,1673.447V1670.1a8.517,8.517,0,0,1,2.84-6.358,5.66,5.66,0,0,0-2.84-.758h-12.809a5.693,5.693,0,0,0-5.693,5.693v20.432a5.679,5.679,0,0,1,4.27-1.929h1.214a8.513,8.513,0,0,1-2.637-6.168v-2.847a8.591,8.591,0,0,1,.121-1.425v0h0c.028-.166.063-.33.1-.492q.017-.074.035-.147c.036-.144.075-.287.117-.428.006-.02.011-.041.018-.061.049-.156.1-.309.16-.46l.048-.123c.061-.153.124-.305.193-.454a8.515,8.515,0,0,1,1.3-2.007q.132-.153.272-.3l.006-.007c.093-.1.188-.192.285-.284a8.557,8.557,0,0,1,1.919-1.376h0a8.512,8.512,0,0,1,3.962-.975A8.531,8.531,0,0,1-708.97,1673.447Z" transform="translate(727.472 -1662.985)" fill="none" stroke="#fff" stroke-miterlimit="10" stroke-width="1.5"/>
    </g>
    <path id="Path_6800" data-name="Path 6800" d="M-527.472,1692.985v9.568c0,2.642,2.549,4.784,5.693,4.784v-9.568C-521.779,1695.127-524.328,1692.985-527.472,1692.985Z" transform="translate(-355.145 -149.621)" fill="none" stroke="#fff" stroke-miterlimit="10" stroke-width="1.5"/>
    <g id="Group_6221" data-name="Group 6221" transform="translate(-901.119 1556.529)">
      <path id="Path_6801" data-name="Path 6801" d="M-629,1772.678a5.684,5.684,0,0,1,5.693,5.675v4.287h9.963v-15.656h-.752a8.516,8.516,0,0,1-5.462,2.8,8.436,8.436,0,0,1-.9.048,8.516,8.516,0,0,1-6.363-2.847l-.747,0a10.388,10.388,0,0,1-2.625,5.69C-629.119,1772.688-629,1772.678-629,1772.678Z" transform="translate(630.419 -1766.985)" fill="none" stroke="#fff" stroke-miterlimit="10" stroke-width="1.5"/>
      <path id="Path_6802" data-name="Path 6802" d="M-611.547,1894.18l-.022-.174a5.7,5.7,0,0,1-1.4.174h-11.386v8.54h-5.693V1895.6h-1.423v12.809H-608.7Z" transform="translate(631.472 -1871.408)" fill="none" stroke="#fff" stroke-miterlimit="10" stroke-width="1.5"/>
    </g>
    <path id="Path_6803" data-name="Path 6803" d="M-623.472,1666.371s7.116,0,11.386-5.693a9.72,9.72,0,0,0,5.693,5.693v-2.846a8.54,8.54,0,0,0-8.539-8.54,8.54,8.54,0,0,0-8.539,8.54Z" transform="translate(-276.224 -118.381)" fill="none" stroke="#fff" stroke-miterlimit="10" stroke-width="1.5"/>
    <path id="Path_6804" data-name="Path 6804" d="M-581.532,1766.985v15.656H-591.5l.005,7.116h11.386a5.693,5.693,0,0,0,5.693-5.693V1774.1A7.116,7.116,0,0,0-581.532,1766.985Z" transform="translate(-302.508 -210.456)" fill="none" stroke="#fff" stroke-miterlimit="10" stroke-width="1.5"/>
    <path id="Path_6805" data-name="Path 6805" d="M-703.472,1902.985h14.232v12.809h-14.232Z" transform="translate(-210.456 -322.261)" fill="none" stroke="#fff" stroke-miterlimit="10" stroke-width="1.5"/>
    <path id="Path_6806" data-name="Path 6806" d="M-735.472,1854.985h5.693v15.656h-5.693Z" transform="translate(-184.149 -282.8)" fill="none" stroke="#fff" stroke-miterlimit="10" stroke-width="1.5"/>
    <path id="Path_6807" data-name="Path 6807" d="M-623.472,1854.985h5.693v15.656h-5.693Z" transform="translate(-276.224 -282.8)" fill="none" stroke="#fff" stroke-miterlimit="10" stroke-width="1.5"/>
    <path id="Path_6808" data-name="Path 6808" d="M-715.547,1798.985h-1.212a8.511,8.511,0,0,1-5.3,2.351q-.3.021-.6.021a8.509,8.509,0,0,1-5.9-2.372h-1.213a5.693,5.693,0,0,0-5.693,5.693v4.27h5.693v8.539h14.232v-8.539h5.693v-4.288A5.684,5.684,0,0,0-715.547,1798.985Z" transform="translate(-184.149 -236.763)" fill="none" stroke="#fff" stroke-miterlimit="10" stroke-width="1.5"/>
    <g id="Group_6222" data-name="Group 6222" transform="translate(-940.97 1566.492)">
      <path id="Path_6809" data-name="Path 6809" d="M-834.123,1844.334v-19.419c-.079-.09-.159-.178-.244-.263a5.675,5.675,0,0,0-4.026-1.667h-8.539a5.693,5.693,0,0,0-5.693,5.693v7.116l-.505,2.523-2.341,11.71h25.618l-1.139-5.693Z" transform="translate(855.472 -1822.985)" fill="none" stroke="#fff" stroke-miterlimit="10" stroke-width="1.5"/>
      <path id="Path_6810" data-name="Path 6810" d="M-838.049,1877.217h5.693l-1.423-14.232h-5.693Z" transform="translate(842.318 -1855.869)" fill="none" stroke="#fff" stroke-miterlimit="10" stroke-width="1.5"/>
      <path id="Path_6811" data-name="Path 6811" d="M-761.779,1877.217h-5.693l1.423-14.232h4.354Z" transform="translate(783.128 -1855.869)" fill="none" stroke="#fff" stroke-miterlimit="10" stroke-width="1.5"/>
    </g>
    <g id="Group_6223" data-name="Group 6223" transform="translate(-915.351 1544.669)">
      <path id="Path_6812" data-name="Path 6812" d="M-676.01,1701.693c.083-.023.167-.043.251-.063C-675.843,1701.65-675.927,1701.671-676.01,1701.693Z" transform="translate(682.319 -1701.397)" fill="none" stroke="#fff" stroke-miterlimit="10" stroke-width="1.5"/>
      <path id="Path_6813" data-name="Path 6813" d="M-673.8,1701.225c.078-.017.155-.033.234-.048Q-673.684,1701.2-673.8,1701.225Z" transform="translate(680.502 -1701.024)" fill="none" stroke="#fff" stroke-miterlimit="10" stroke-width="1.5"/>
      <path id="Path_6814" data-name="Path 6814" d="M-671.528,1700.847c.072-.012.145-.024.217-.034C-671.383,1700.823-671.456,1700.835-671.528,1700.847Z" transform="translate(678.634 -1700.725)" fill="none" stroke="#fff" stroke-miterlimit="10" stroke-width="1.5"/>
      <path id="Path_6815" data-name="Path 6815" d="M-669.18,1700.566c.065-.008.131-.016.2-.022C-669.049,1700.55-669.115,1700.558-669.18,1700.566Z" transform="translate(676.704 -1700.504)" fill="none" stroke="#fff" stroke-miterlimit="10" stroke-width="1.5"/>
      <path id="Path_6816" data-name="Path 6816" d="M-649.9,1702.279l.041.012Z" transform="translate(660.852 -1701.93)" fill="none" stroke="#fff" stroke-miterlimit="10" stroke-width="1.5"/>
      <path id="Path_6817" data-name="Path 6817" d="M-666.691,1700.389l.159-.011Z" transform="translate(674.658 -1700.368)" fill="none" stroke="#fff" stroke-miterlimit="10" stroke-width="1.5"/>
      <path id="Path_6818" data-name="Path 6818" d="M-699.14,1713.533q-.3.282-.566.591Q-699.437,1713.815-699.14,1713.533Z" transform="translate(701.799 -1711.182)" fill="none" stroke="#fff" stroke-miterlimit="10" stroke-width="1.5"/>
      <path id="Path_6819" data-name="Path 6819" d="M-690.919,1708.269q.108-.075.218-.148Q-690.811,1708.193-690.919,1708.269Z" transform="translate(694.576 -1706.733)" fill="none" stroke="#fff" stroke-miterlimit="10" stroke-width="1.5"/>
      <path id="Path_6820" data-name="Path 6820" d="M-692.639,1709.512c.067-.051.135-.1.2-.15C-692.5,1709.411-692.572,1709.461-692.639,1709.512Z" transform="translate(695.99 -1707.753)" fill="none" stroke="#fff" stroke-miterlimit="10" stroke-width="1.5"/>
      <path id="Path_6821" data-name="Path 6821" d="M-689.171,1707.111c.078-.05.158-.1.238-.146C-689.013,1707.012-689.093,1707.061-689.171,1707.111Z" transform="translate(693.138 -1705.783)" fill="none" stroke="#fff" stroke-miterlimit="10" stroke-width="1.5"/>
      <path id="Path_6822" data-name="Path 6822" d="M-687.418,1706.043c.088-.051.176-.1.265-.148C-687.242,1705.942-687.33,1705.992-687.418,1706.043Z" transform="translate(691.697 -1704.903)" fill="none" stroke="#fff" stroke-miterlimit="10" stroke-width="1.5"/>
      <path id="Path_6823" data-name="Path 6823" d="M-685.756,1703.263a8.516,8.516,0,0,1,1.3-.551A8.489,8.489,0,0,0-685.756,1703.263Z" transform="translate(690.331 -1702.287)" fill="none" stroke="#fff" stroke-miterlimit="10" stroke-width="1.5"/>
      <path id="Path_6824" data-name="Path 6824" d="M-678.165,1702.24c.091-.029.182-.056.275-.082C-677.982,1702.184-678.074,1702.211-678.165,1702.24Z" transform="translate(684.09 -1701.831)" fill="none" stroke="#fff" stroke-miterlimit="10" stroke-width="1.5"/>
      <path id="Path_6825" data-name="Path 6825" d="M-632.719,1711.472c.054.045.107.092.159.138C-632.612,1711.563-632.665,1711.517-632.719,1711.472Z" transform="translate(646.73 -1709.488)" fill="none" stroke="#fff" stroke-miterlimit="10" stroke-width="1.5"/>
      <path id="Path_6826" data-name="Path 6826" d="M-634.466,1710.08c.055.042.109.085.164.129C-634.357,1710.165-634.411,1710.122-634.466,1710.08Z" transform="translate(648.166 -1708.343)" fill="none" stroke="#fff" stroke-miterlimit="10" stroke-width="1.5"/>
      <path id="Path_6827" data-name="Path 6827" d="M-647.917,1702.91l.079.027Z" transform="translate(659.224 -1702.449)" fill="none" stroke="#fff" stroke-miterlimit="10" stroke-width="1.5"/>
      <path id="Path_6828" data-name="Path 6828" d="M-631.033,1712.946c.051.047.1.1.151.144C-630.932,1713.042-630.982,1712.993-631.033,1712.946Z" transform="translate(645.344 -1710.7)" fill="none" stroke="#fff" stroke-miterlimit="10" stroke-width="1.5"/>
      <path id="Path_6829" data-name="Path 6829" d="M-663.472,1700.319q.219,0,.436.011C-663.181,1700.323-663.326,1700.319-663.472,1700.319Z" transform="translate(672.011 -1700.319)" fill="none" stroke="#fff" stroke-miterlimit="10" stroke-width="1.5"/>
      <path id="Path_6830" data-name="Path 6830" d="M-629.416,1714.5c.046.047.091.1.137.143C-629.325,1714.594-629.37,1714.546-629.416,1714.5Z" transform="translate(644.014 -1711.976)" fill="none" stroke="#fff" stroke-miterlimit="10" stroke-width="1.5"/>
      <path id="Path_6831" data-name="Path 6831" d="M-636.271,1708.776c.056.038.11.077.164.117C-636.161,1708.853-636.215,1708.814-636.271,1708.776Z" transform="translate(649.65 -1707.271)" fill="none" stroke="#fff" stroke-miterlimit="10" stroke-width="1.5"/>
      <path id="Path_6832" data-name="Path 6832" d="M-638.125,1707.561l.161.1Z" transform="translate(651.174 -1706.273)" fill="none" stroke="#fff" stroke-miterlimit="10" stroke-width="1.5"/>
      <path id="Path_6833" data-name="Path 6833" d="M-643.931,1704.479l.127.057Z" transform="translate(655.947 -1703.739)" fill="none" stroke="#fff" stroke-miterlimit="10" stroke-width="1.5"/>
      <path id="Path_6834" data-name="Path 6834" d="M-645.92,1703.646l.106.042Z" transform="translate(657.582 -1703.054)" fill="none" stroke="#fff" stroke-miterlimit="10" stroke-width="1.5"/>
      <path id="Path_6835" data-name="Path 6835" d="M-641.963,1705.41l.143.073Z" transform="translate(654.329 -1704.504)" fill="none" stroke="#fff" stroke-miterlimit="10" stroke-width="1.5"/>
      <path id="Path_6836" data-name="Path 6836" d="M-640.025,1706.44l.154.088Z" transform="translate(652.736 -1705.351)" fill="none" stroke="#fff" stroke-miterlimit="10" stroke-width="1.5"/>
      <path id="Path_6837" data-name="Path 6837" d="M-703.7,1721.252c.043-.066.086-.13.13-.195C-703.618,1721.121-703.661,1721.186-703.7,1721.252Z" transform="translate(705.086 -1717.367)" fill="none" stroke="#fff" stroke-miterlimit="10" stroke-width="1.5"/>
      <path id="Path_6838" data-name="Path 6838" d="M-619.755,1728.505l-.055-.122Z" transform="translate(636.117 -1723.39)" fill="none" stroke="#fff" stroke-miterlimit="10" stroke-width="1.5"/>
      <path id="Path_6839" data-name="Path 6839" d="M-620.719,1726.506c-.019-.039-.039-.077-.059-.115C-620.758,1726.429-620.738,1726.468-620.719,1726.506Z" transform="translate(636.913 -1721.753)" fill="none" stroke="#fff" stroke-miterlimit="10" stroke-width="1.5"/>
      <path id="Path_6840" data-name="Path 6840" d="M-618.883,1730.554c-.017-.043-.034-.087-.051-.13C-618.916,1730.467-618.9,1730.511-618.883,1730.554Z" transform="translate(635.397 -1725.068)" fill="none" stroke="#fff" stroke-miterlimit="10" stroke-width="1.5"/>
      <path id="Path_6841" data-name="Path 6841" d="M-618.1,1732.651c-.016-.047-.031-.093-.047-.14C-618.133,1732.558-618.117,1732.6-618.1,1732.651Z" transform="translate(634.752 -1726.785)" fill="none" stroke="#fff" stroke-miterlimit="10" stroke-width="1.5"/>
      <path id="Path_6842" data-name="Path 6842" d="M-622.9,1722.677c-.021-.034-.044-.068-.065-.1C-622.947,1722.609-622.925,1722.642-622.9,1722.677Z" transform="translate(638.714 -1718.615)" fill="none" stroke="#fff" stroke-miterlimit="10" stroke-width="1.5"/>
      <path id="Path_6843" data-name="Path 6843" d="M-621.77,1724.561c-.02-.037-.042-.073-.063-.109C-621.812,1724.488-621.791,1724.524-621.77,1724.561Z" transform="translate(637.78 -1720.158)" fill="none" stroke="#fff" stroke-miterlimit="10" stroke-width="1.5"/>
      <path id="Path_6844" data-name="Path 6844" d="M-615.687,1743.855c-.006-.085-.011-.17-.019-.254C-615.7,1743.685-615.692,1743.77-615.687,1743.855Z" transform="translate(632.743 -1735.901)" fill="none" stroke="#fff" stroke-miterlimit="10" stroke-width="1.5"/>
      <path id="Path_6845" data-name="Path 6845" d="M-617.417,1734.8c-.014-.05-.028-.1-.043-.151C-617.445,1734.7-617.431,1734.746-617.417,1734.8Z" transform="translate(634.185 -1728.539)" fill="none" stroke="#fff" stroke-miterlimit="10" stroke-width="1.5"/>
      <path id="Path_6846" data-name="Path 6846" d="M-624.1,1720.875c-.02-.03-.042-.059-.063-.089C-624.143,1720.817-624.121,1720.846-624.1,1720.875Z" transform="translate(639.697 -1717.146)" fill="none" stroke="#fff" stroke-miterlimit="10" stroke-width="1.5"/>
      <path id="Path_6847" data-name="Path 6847" d="M-615.961,1741.51c-.009-.07-.016-.14-.027-.209C-615.978,1741.37-615.97,1741.44-615.961,1741.51Z" transform="translate(632.975 -1734.01)" fill="none" stroke="#fff" stroke-miterlimit="10" stroke-width="1.5"/>
      <path id="Path_6848" data-name="Path 6848" d="M-616.344,1739.224c-.01-.061-.021-.122-.033-.183C-616.365,1739.1-616.355,1739.163-616.344,1739.224Z" transform="translate(633.295 -1732.152)" fill="none" stroke="#fff" stroke-miterlimit="10" stroke-width="1.5"/>
      <path id="Path_6849" data-name="Path 6849" d="M-616.83,1736.987c-.012-.055-.025-.11-.038-.165C-616.854,1736.877-616.842,1736.932-616.83,1736.987Z" transform="translate(633.699 -1730.328)" fill="none" stroke="#fff" stroke-miterlimit="10" stroke-width="1.5"/>
      <path id="Path_6850" data-name="Path 6850" d="M-705.972,1724.89c.043-.082.088-.162.133-.243Q-705.907,1724.767-705.972,1724.89Z" transform="translate(706.951 -1720.319)" fill="none" stroke="#fff" stroke-miterlimit="10" stroke-width="1.5"/>
      <path id="Path_6851" data-name="Path 6851" d="M-625.217,1719.333l-.026-.032Z" transform="translate(640.584 -1715.924)" fill="none" stroke="#fff" stroke-miterlimit="10" stroke-width="1.5"/>
      <path id="Path_6852" data-name="Path 6852" d="M-704.882,1723.058q.064-.109.131-.216Q-704.818,1722.949-704.882,1723.058Z" transform="translate(706.055 -1718.836)" fill="none" stroke="#fff" stroke-miterlimit="10" stroke-width="1.5"/>
      <path id="Path_6853" data-name="Path 6853" d="M-702.442,1719.484c.043-.06.087-.12.131-.179C-702.355,1719.364-702.4,1719.424-702.442,1719.484Z" transform="translate(704.048 -1715.927)" fill="none" stroke="#fff" stroke-miterlimit="10" stroke-width="1.5"/>
      <path id="Path_6854" data-name="Path 6854" d="M-695.935,1712.236c.059-.054.119-.106.179-.159C-695.816,1712.13-695.876,1712.182-695.935,1712.236Z" transform="translate(698.699 -1709.986)" fill="none" stroke="#fff" stroke-miterlimit="10" stroke-width="1.5"/>
      <path id="Path_6855" data-name="Path 6855" d="M-701.1,1717.769c.045-.056.088-.112.134-.167C-701.017,1717.657-701.06,1717.713-701.1,1717.769Z" transform="translate(702.949 -1714.527)" fill="none" stroke="#fff" stroke-miterlimit="10" stroke-width="1.5"/>
      <path id="Path_6856" data-name="Path 6856" d="M-694.313,1710.836c.063-.052.126-.1.19-.154C-694.187,1710.733-694.25,1710.783-694.313,1710.836Z" transform="translate(697.366 -1708.838)" fill="none" stroke="#fff" stroke-miterlimit="10" stroke-width="1.5"/>
      <path id="Path_6857" data-name="Path 6857" d="M-627.779,1716.233c-.031-.035-.06-.071-.092-.106C-627.84,1716.161-627.81,1716.2-627.779,1716.233Z" transform="translate(642.744 -1713.314)" fill="none" stroke="#fff" stroke-miterlimit="10" stroke-width="1.5"/>
      <path id="Path_6858" data-name="Path 6858" d="M-615.521,1746.363c0-.142,0-.283-.011-.423C-615.525,1746.08-615.521,1746.221-615.521,1746.363Z" transform="translate(632.6 -1737.824)" fill="none" stroke="#fff" stroke-miterlimit="10" stroke-width="1.5"/>
      <path id="Path_6859" data-name="Path 6859" d="M-711.351,1715.557a8.584,8.584,0,0,0-.121,1.425v2.847a8.539,8.539,0,0,0,8.539,8.539q.3,0,.6-.021a8.539,8.539,0,0,0,7.937-8.518v-2.847C-700.086,1715.559-710.215,1715.535-711.351,1715.557Z" transform="translate(711.472 -1708.443)" fill="none" stroke="#fff" stroke-miterlimit="10" stroke-width="1.5"/>
      <path id="Path_6860" data-name="Path 6860" d="M-710.793,1730.295a8.538,8.538,0,0,1,.671-2.166A8.476,8.476,0,0,0-710.793,1730.295Z" transform="translate(710.914 -1723.181)" fill="none" stroke="#fff" stroke-miterlimit="10" stroke-width="1.5"/>
      <path id="Path_6861" data-name="Path 6861" d="M-706.97,1726.719c.044-.095.091-.188.139-.281C-706.879,1726.531-706.925,1726.624-706.97,1726.719Z" transform="translate(707.771 -1721.791)" fill="none" stroke="#fff" stroke-miterlimit="10" stroke-width="1.5"/>
    </g>
    <g id="Group_6224" data-name="Group 6224" transform="translate(-899.696 1542.296)">
      <path id="Path_6862" data-name="Path 6862" d="M-612.086,1686.985c-4.27,5.693-11.386,5.693-11.386,5.693v.5a8.5,8.5,0,0,1,1.423,4.72v2.347a8.53,8.53,0,0,0,7.116,3.82,8.372,8.372,0,0,0,.9-.048,8.539,8.539,0,0,0,7.637-8.491v-2.846A9.721,9.721,0,0,1-612.086,1686.985Z" transform="translate(623.472 -1686.985)" fill="none" stroke="#fff" stroke-miterlimit="10" stroke-width="1.5"/>
      <path id="Path_6863" data-name="Path 6863" d="M-620.675,1746.68l-.063-.024Z" transform="translate(621.224 -1736.04)" fill="none" stroke="#fff" stroke-miterlimit="10" stroke-width="1.5"/>
      <path id="Path_6864" data-name="Path 6864" d="M-617.516,1747.754l-.081-.025Z" transform="translate(618.642 -1736.922)" fill="none" stroke="#fff" stroke-miterlimit="10" stroke-width="1.5"/>
      <path id="Path_6865" data-name="Path 6865" d="M-619.148,1747.233l-.082-.028Z" transform="translate(619.985 -1736.491)" fill="none" stroke="#fff" stroke-miterlimit="10" stroke-width="1.5"/>
    </g>
    <path id="Path_6866" data-name="Path 6866" d="M-693.836,1708.858a8.54,8.54,0,0,0-8.539-8.54,8.54,8.54,0,0,0-8.419,7.115C-709.658,1707.411-699.529,1707.435-693.836,1708.858Z" transform="translate(-204.437 -155.65)" fill="none" stroke="#fff" stroke-miterlimit="10" stroke-width="1.5"/>
  </g>
</svg>
