<svg xmlns="http://www.w3.org/2000/svg" width="89.575" height="79.616" viewBox="0 0 89.575 79.616">
  <g id="Group_6336" data-name="Group 6336" transform="translate(-783.655 -2157.591)">
    <rect id="Rectangle_3185" data-name="Rectangle 3185" width="14.957" height="3.567" transform="translate(835.738 2207.151)" fill="none" stroke="#fff" stroke-miterlimit="10" stroke-width="1.7"/>
    <rect id="Rectangle_3186" data-name="Rectangle 3186" width="14.957" height="3.567" transform="translate(820.78 2216.413)" fill="none" stroke="#fff" stroke-miterlimit="10" stroke-width="1.7"/>
    <rect id="Rectangle_3187" data-name="Rectangle 3187" width="14.957" height="3.567" transform="translate(805.823 2207.151)" fill="none" stroke="#fff" stroke-miterlimit="10" stroke-width="1.7"/>
    <rect id="Rectangle_3188" data-name="Rectangle 3188" width="14.957" height="3.567" transform="translate(844.247 2223.526)" fill="none" stroke="#fff" stroke-miterlimit="10" stroke-width="1.7"/>
    <rect id="Rectangle_3189" data-name="Rectangle 3189" width="14.957" height="3.567" transform="translate(797.313 2223.526)" fill="none" stroke="#fff" stroke-miterlimit="10" stroke-width="1.7"/>
    <g id="Group_6334" data-name="Group 6334" transform="translate(785.713 2181.512)">
      <path id="Path_7111" data-name="Path 7111" d="M800.291,2266.887H790.153v13.462a10.106,10.106,0,0,0,5.3,1.5,9.906,9.906,0,0,0,4.836-1.262Z" transform="translate(-790.153 -2266.887)" fill="none" stroke="#fff" stroke-miterlimit="10" stroke-width="1.7"/>
      <path id="Path_7112" data-name="Path 7112" d="M886.176,2266.887H861.247v13.545a9.982,9.982,0,0,0,12.615-1.978,9.907,9.907,0,0,0,12.315,2.12Z" transform="translate(-846.123 -2266.887)" fill="none" stroke="#fff" stroke-miterlimit="10" stroke-width="1.7"/>
      <path id="Path_7113" data-name="Path 7113" d="M1026.8,2266.887h-24.929v13.545a9.982,9.982,0,0,0,12.615-1.978,9.806,9.806,0,0,0,7.479,3.39,9.906,9.906,0,0,0,4.836-1.262Z" transform="translate(-956.833 -2266.887)" fill="none" stroke="#fff" stroke-miterlimit="10" stroke-width="1.7"/>
      <path id="Path_7114" data-name="Path 7114" d="M1142.5,2266.887v13.545a9.93,9.93,0,0,0,5.136,1.412,10.15,10.15,0,0,0,5-1.346v-13.611Z" transform="translate(-1067.543 -2266.887)" fill="none" stroke="#fff" stroke-miterlimit="10" stroke-width="1.7"/>
    </g>
    <path id="Path_7115" data-name="Path 7115" d="M875.244,2323.306v41.233H790.153v-41.382a10.106,10.106,0,0,0,5.3,1.5,9.965,9.965,0,0,0,7.479-3.39,9.808,9.808,0,0,0,7.479,3.39,9.965,9.965,0,0,0,7.479-3.39,9.808,9.808,0,0,0,7.479,3.39,9.944,9.944,0,0,0,7.329-3.241l.15-.149a9.808,9.808,0,0,0,7.479,3.39,9.965,9.965,0,0,0,7.479-3.39,9.807,9.807,0,0,0,7.479,3.39,9.965,9.965,0,0,0,7.479-3.39,9.808,9.808,0,0,0,7.479,3.39A10.15,10.15,0,0,0,875.244,2323.306Z" transform="translate(-4.44 -128.182)" fill="none" stroke="#fff" stroke-miterlimit="10" stroke-width="1.7"/>
    <g id="Group_6335" data-name="Group 6335" transform="translate(795.851 2176.527)">
      <path id="Path_7116" data-name="Path 7116" d="M1121.7,2260.252a9.428,9.428,0,0,0,2.343,1.745v-18.549h-4.986v18.681A9.935,9.935,0,0,0,1121.7,2260.252Z" transform="translate(-1059.23 -2243.449)" fill="none" stroke="#fff" stroke-miterlimit="10" stroke-width="1.7"/>
      <path id="Path_7117" data-name="Path 7117" d="M980.928,2260.384l.15-.132a9.425,9.425,0,0,0,2.343,1.745v-18.549h-4.986v18.674A10.151,10.151,0,0,0,980.928,2260.384Z" transform="translate(-948.52 -2243.449)" fill="none" stroke="#fff" stroke-miterlimit="10" stroke-width="1.7"/>
      <path id="Path_7118" data-name="Path 7118" d="M840.453,2260.252A9.423,9.423,0,0,0,842.8,2262v-18.549H837.81v18.681A9.935,9.935,0,0,0,840.453,2260.252Z" transform="translate(-837.81 -2243.449)" fill="none" stroke="#fff" stroke-miterlimit="10" stroke-width="1.7"/>
    </g>
    <path id="Path_7119" data-name="Path 7119" d="M864.093,2160.722a.671.671,0,0,0-.523-.143,16.081,16.081,0,0,0-13.614,17.573A16.082,16.082,0,0,0,864.34,2161.2.668.668,0,0,0,864.093,2160.722Z" transform="translate(-51.452 -1.676)" fill="none" stroke="#fff" stroke-miterlimit="10" stroke-width="1.7"/>
    <path id="Path_7120" data-name="Path 7120" d="M785.383,2158.455a.671.671,0,0,0-.527.123h0a.669.669,0,0,0-.265.472,16.082,16.082,0,0,0,13.738,17.477A16.081,16.081,0,0,0,785.383,2158.455Z" transform="translate(0)" fill="none" stroke="#fff" stroke-miterlimit="10" stroke-width="1.7"/>
    <path id="Path_7121" data-name="Path 7121" d="M1002.972,2160.722a.671.671,0,0,0-.523-.143,16.081,16.081,0,0,0-13.614,17.573,16.082,16.082,0,0,0,14.383-16.949A.668.668,0,0,0,1002.972,2160.722Z" transform="translate(-160.788 -1.676)" fill="none" stroke="#fff" stroke-miterlimit="10" stroke-width="1.7"/>
    <path id="Path_7122" data-name="Path 7122" d="M924.263,2158.455a.67.67,0,0,0-.527.123h0a.669.669,0,0,0-.265.472,16.082,16.082,0,0,0,13.738,17.477A16.081,16.081,0,0,0,924.263,2158.455Z" transform="translate(-109.336)" fill="none" stroke="#fff" stroke-miterlimit="10" stroke-width="1.7"/>
    <path id="Path_7123" data-name="Path 7123" d="M1143.6,2160.722a.671.671,0,0,0-.523-.143,16.081,16.081,0,0,0-13.613,17.573,16.082,16.082,0,0,0,14.383-16.949A.668.668,0,0,0,1143.6,2160.722Z" transform="translate(-271.498 -1.676)" fill="none" stroke="#fff" stroke-miterlimit="10" stroke-width="1.7"/>
    <path id="Path_7124" data-name="Path 7124" d="M1064.888,2158.455a.67.67,0,0,0-.527.123h0a.669.669,0,0,0-.265.472,16.081,16.081,0,0,0,13.738,17.477A16.081,16.081,0,0,0,1064.888,2158.455Z" transform="translate(-220.046)" fill="none" stroke="#fff" stroke-miterlimit="10" stroke-width="1.7"/>
  </g>
</svg>
