<svg xmlns="http://www.w3.org/2000/svg" width="71.193" height="71.193" viewBox="0 0 71.193 71.193">
  <g id="Group_6022" data-name="Group 6022" transform="translate(1421.503 -212.478)">
    <path id="Path_6382" data-name="Path 6382" d="M-1351.281,240.166l-3.311-18.309a6.292,6.292,0,0,0-1.536-3.111,6.32,6.32,0,0,0-3.563-1.988l-18.309-3.31a6.328,6.328,0,0,0-5.6,1.752l-35.205,35.205a6.332,6.332,0,0,0,0,8.946l21.619,21.619a6.333,6.333,0,0,0,8.947,0l35.205-35.205A6.328,6.328,0,0,0-1351.281,240.166Zm-20.283-5.983q-.134-.118-.262-.245a5.585,5.585,0,0,1,0-7.888,5.585,5.585,0,0,1,7.889,0q.128.129.244.262a5.582,5.582,0,0,1-.246,7.625A5.582,5.582,0,0,1-1371.564,234.183Z" fill="none" stroke="#fff" stroke-miterlimit="10" stroke-width="1.7"/>
    <g id="Group_6021" data-name="Group 6021" transform="translate(-1404.61 233.318)">
      <path id="Path_6383" data-name="Path 6383" d="M-1384.655,290.653a.668.668,0,0,0-.152-.714l-3.148-3.148,1.843-1.843a.679.679,0,0,0,.206-.646,1.243,1.243,0,0,0-.354-.647l-.006-.006a1.261,1.261,0,0,0-.671-.366.686.686,0,0,0-.641.2l-1.842,1.843-2.062-2.062,3.16-3.16a.67.67,0,0,0,.177-.665,1.569,1.569,0,0,0-.445-.75,1.551,1.551,0,0,0-.721-.428.665.665,0,0,0-.671.183l-4.234,4.234a1.535,1.535,0,0,0-.433.739.686.686,0,0,0,.19.677l7.748,7.748A.672.672,0,0,0-1386,292a1.959,1.959,0,0,0,.823-.52A1.958,1.958,0,0,0-1384.655,290.653Z" transform="translate(1394.669 -258.143)" fill="#fff"/>
      <path id="Path_6384" data-name="Path 6384" d="M-1374.654,280.106l-2.941-2.94.806-.806,4.915,1.574a.9.9,0,0,0,.964-.256,1.77,1.77,0,0,0,.493-1.129,1.251,1.251,0,0,0-.286-1.055.532.532,0,0,0-.28-.159l-4.186-1.208a3.133,3.133,0,0,0,.281-1.537,3.919,3.919,0,0,0-1.282-2.415q-2.61-2.611-5.612.39l-2.526,2.526a.792.792,0,0,0-.25.591.79.79,0,0,0,.238.569l7.76,7.76a.668.668,0,0,0,.713.152,1.955,1.955,0,0,0,.823-.519,1.968,1.968,0,0,0,.52-.824A.67.67,0,0,0-1374.654,280.106Zm-4.4-4.4-2.27-2.27,1.208-1.208a1.633,1.633,0,0,1,1.079-.555,1.63,1.63,0,0,1,1.153.592,1.628,1.628,0,0,1,.591,1.153,1.634,1.634,0,0,1-.555,1.079Z" transform="translate(1390.8 -254.593)" fill="#fff"/>
      <path id="Path_6385" data-name="Path 6385" d="M-1359.052,264.8a1.536,1.536,0,0,0-.427-.719,1.58,1.58,0,0,0-.749-.446.669.669,0,0,0-.666.178l-3.269,3.269-2.074-2.075,1.829-1.829a.679.679,0,0,0,.207-.647,1.236,1.236,0,0,0-.354-.646l-.006-.006a1.269,1.269,0,0,0-.671-.367.686.686,0,0,0-.641.2l-1.829,1.829-2.062-2.062,3.269-3.269a.668.668,0,0,0,.178-.665,1.577,1.577,0,0,0-.446-.75,1.548,1.548,0,0,0-.721-.428.665.665,0,0,0-.671.184l-4.342,4.342a1.527,1.527,0,0,0-.434.738.684.684,0,0,0,.189.677l7.749,7.748a.68.68,0,0,0,.677.189,1.529,1.529,0,0,0,.738-.434l4.342-4.342A.664.664,0,0,0-1359.052,264.8Z" transform="translate(1386.361 -249.767)" fill="#fff"/>
      <path id="Path_6386" data-name="Path 6386" d="M-1348.4,254.148a1.548,1.548,0,0,0-.427-.719,1.552,1.552,0,0,0-.75-.445.665.665,0,0,0-.664.177l-3.27,3.269-2.075-2.074,1.831-1.83a.678.678,0,0,0,.206-.646,1.242,1.242,0,0,0-.353-.647l-.006-.006a1.258,1.258,0,0,0-.671-.366.684.684,0,0,0-.64.2l-1.831,1.83-2.062-2.062,3.271-3.27a.667.667,0,0,0,.177-.664,1.559,1.559,0,0,0-.445-.75,1.563,1.563,0,0,0-.721-.428.666.666,0,0,0-.671.183l-4.344,4.344a1.54,1.54,0,0,0-.433.738.687.687,0,0,0,.189.677l7.748,7.748a.684.684,0,0,0,.677.189,1.529,1.529,0,0,0,.737-.434l4.344-4.343A.663.663,0,0,0-1348.4,254.148Z" transform="translate(1382.287 -245.692)" fill="#fff"/>
    </g>
  </g>
</svg>
