<svg xmlns="http://www.w3.org/2000/svg" width="79.721" height="79.672" viewBox="0 0 79.721 79.672">
  <g id="Group_6234" data-name="Group 6234" transform="translate(2251.155 -2466.903)">
    <g id="Group_6230" data-name="Group 6230" transform="translate(-2250.305 2532.713)">
      <path id="Path_6881" data-name="Path 6881" d="M-1853.375,3061.043v1.225h33.78v-11.693C-1838.267,3050.575-1853.375,3055.188-1853.375,3061.043Z" transform="translate(1897.616 -3050.575)" fill="none" stroke="#fff" stroke-miterlimit="10" stroke-width="1.7"/>
      <path id="Path_6882" data-name="Path 6882" d="M-2250.3,3050.577v11.693h35.216v-1.226C-2215.089,3055.19-2231.634,3050.577-2250.3,3050.577Z" transform="translate(2250.305 -3050.577)" fill="none" stroke="#fff" stroke-miterlimit="10" stroke-width="1.7"/>
    </g>
    <path id="Path_6883" data-name="Path 6883" d="M-2045.012,2561c-10.046,0-18.189,7.634-18.189,17.052a16.587,16.587,0,0,0,10.394,15.634l.52.282,2.079,3.41h10.394l2.079-3.41.52-.282a16.586,16.586,0,0,0,10.393-15.634c0-9.418-8.143-17.052-18.189-17.052Z" transform="translate(-166.248 -82.858)" fill="none" stroke="#fff" stroke-miterlimit="10" stroke-width="1.7"/>
    <g id="Group_6231" data-name="Group 6231" transform="translate(-2221.273 2497.523)">
      <path id="Path_6884" data-name="Path 6884" d="M-1981.118,2751.885h-2.6v-9.943l-6.115-5.452,1.837-1.638,6.5,5.791a1.1,1.1,0,0,1,.381.818Z" transform="translate(1989.832 -2734.852)" fill="none" stroke="#fff" stroke-miterlimit="10" stroke-width="1.7"/>
      <path id="Path_6885" data-name="Path 6885" d="M-1885.74,2751.885h-2.6v-10.423a1.1,1.1,0,0,1,.381-.818l6.5-5.791,1.837,1.638-6.115,5.451Z" transform="translate(1899.651 -2734.852)" fill="none" stroke="#fff" stroke-miterlimit="10" stroke-width="1.7"/>
    </g>
    <path id="Path_6886" data-name="Path 6886" d="M-1967.336,2887.386h10.394a2.6,2.6,0,0,1,2.6,2.6h0a2.6,2.6,0,0,1-2.6,2.6h-10.394a2.6,2.6,0,0,1-2.6-2.6h0A2.6,2.6,0,0,1-1967.336,2887.386Z" transform="translate(-249.121 -372.862)" fill="none" stroke="#fff" stroke-miterlimit="10" stroke-width="1.7"/>
    <g id="Group_6232" data-name="Group 6232" transform="translate(-2250.305 2532.713)">
      <path id="Path_6887" data-name="Path 6887" d="M-1853.375,3061.043v1.225h.292c2.148-5.186,16.3-9.094,33.488-9.094v-2.6C-1838.267,3050.575-1853.375,3055.188-1853.375,3061.043Z" transform="translate(1897.616 -3050.575)" fill="none" stroke="#fff" stroke-miterlimit="10" stroke-width="1.7"/>
      <path id="Path_6888" data-name="Path 6888" d="M-2250.3,3050.577v2.6c17.184,0,32.555,3.909,34.9,9.095h.319v-1.226C-2215.089,3055.19-2231.634,3050.577-2250.3,3050.577Z" transform="translate(2250.305 -3050.577)" fill="none" stroke="#fff" stroke-miterlimit="10" stroke-width="1.7"/>
    </g>
    <path id="Path_6889" data-name="Path 6889" d="M-1967.336,2934.012h10.394a2.6,2.6,0,0,1,2.6,2.6h0a2.6,2.6,0,0,1-2.6,2.6h-10.394a2.6,2.6,0,0,1-2.6-2.6h0A2.6,2.6,0,0,1-1967.336,2934.012Z" transform="translate(-249.121 -414.291)" fill="none" stroke="#fff" stroke-miterlimit="10" stroke-width="1.7"/>
    <g id="Group_6233" data-name="Group 6233" transform="translate(-2243.74 2467.753)">
      <path id="Path_6890" data-name="Path 6890" d="M-2150,2552.9l1.162-2.324,7.8,3.9-1.162,2.325Z" transform="translate(2154.612 -2541.344)" fill="none" stroke="#fff" stroke-miterlimit="10" stroke-width="1.7"/>
      <path id="Path_6891" data-name="Path 6891" d="M-1733.072,2557.821l8.267-2.757.822,2.465-8.267,2.757Z" transform="translate(1784.157 -2545.333)" fill="none" stroke="#fff" stroke-miterlimit="10" stroke-width="1.7"/>
      <path id="Path_6892" data-name="Path 6892" d="M-2191.407,2700.882h7.8v2.6h-7.8Z" transform="translate(2191.407 -2674.898)" fill="none" stroke="#fff" stroke-miterlimit="10" stroke-width="1.7"/>
      <path id="Path_6893" data-name="Path 6893" d="M-1678.521,2700.882h7.8v2.6h-7.8Z" transform="translate(1735.686 -2674.898)" fill="none" stroke="#fff" stroke-miterlimit="10" stroke-width="1.7"/>
      <path id="Path_6894" data-name="Path 6894" d="M-2149.993,2845.883l7.8-3.9,1.162,2.324-7.8,3.9Z" transform="translate(2154.609 -2800.274)" fill="none" stroke="#fff" stroke-miterlimit="10" stroke-width="1.7"/>
      <path id="Path_6895" data-name="Path 6895" d="M-1730.4,2844.309l1.162-2.325,7.8,3.9-1.162,2.324Z" transform="translate(1781.779 -2800.273)" fill="none" stroke="#fff" stroke-miterlimit="10" stroke-width="1.7"/>
      <path id="Path_6896" data-name="Path 6896" d="M-1911.651,2467.753h2.6v6.5h-2.6Z" transform="translate(1942.832 -2467.753)" fill="none" stroke="#fff" stroke-miterlimit="10" stroke-width="1.7"/>
    </g>
    <path id="Path_6897" data-name="Path 6897" d="M-2250.3,3155.318h78.021v1.336H-2250.3Z" transform="translate(0 -610.93)" fill="none" stroke="#fff" stroke-miterlimit="10" stroke-width="1.7"/>
  </g>
</svg>
