<svg xmlns="http://www.w3.org/2000/svg" width="84.891" height="68.672" viewBox="0 0 84.891 68.672">
  <g id="Group_6323" data-name="Group 6323" transform="translate(-955.099 -846.149)">
    <g id="Group_6321" data-name="Group 6321" transform="translate(110.261 721.523)">
      <path id="Path_4290" data-name="Path 4290" d="M926.648,125.476H847.919a2.231,2.231,0,0,0-2.232,2.231v53.141a2.231,2.231,0,0,0,2.232,2.232h54.726l1.4-2.936a3.192,3.192,0,0,1,.467.716,3.218,3.218,0,0,0,3.23,1.865,3.21,3.21,0,0,1,1.78.354h4.507a3.209,3.209,0,0,1,1.78-.354,3.22,3.22,0,0,0,3.23-1.865,3.194,3.194,0,0,1,.466-.716l1.4,2.936h5.741a2.232,2.232,0,0,0,2.231-2.232V127.707A2.231,2.231,0,0,0,926.648,125.476Z" transform="translate(0 0)" fill="none" stroke="#fff" stroke-miterlimit="10" stroke-width="1.7"/>
      <path id="Path_4291" data-name="Path 4291" d="M905.019,180.163a3.225,3.225,0,0,0-.581-2.169,3.218,3.218,0,0,1,0-3.73,3.223,3.223,0,0,0,.581-2.168,3.217,3.217,0,0,1,1.865-3.23,3.221,3.221,0,0,0,1.588-1.588,3.217,3.217,0,0,1,3.23-1.865,3.219,3.219,0,0,0,2.168-.582,3.223,3.223,0,0,1,3.731,0,3.219,3.219,0,0,0,2.168.582,3.219,3.219,0,0,1,3.23,1.865,3.219,3.219,0,0,0,1.587,1.588,3.22,3.22,0,0,1,1.865,3.23,3.2,3.2,0,0,0,.363,1.8V142.167a.293.293,0,0,0-.3-.293h0a6.006,6.006,0,0,1-6-5.732.291.291,0,0,0-.292-.275H861.962a.291.291,0,0,0-.292.275,6.006,6.006,0,0,1-5.726,5.725.291.291,0,0,0-.275.292v32.476a.291.291,0,0,0,.275.292,6.006,6.006,0,0,1,5.726,5.725.291.291,0,0,0,.292.275h43.086A3.167,3.167,0,0,1,905.019,180.163Z" transform="translate(-3.958 -4.121)" fill="none" stroke="#fff" stroke-miterlimit="10" stroke-width="1.7"/>
      <g id="Group_4994" data-name="Group 4994" transform="translate(861.626 139.066)">
        <path id="Path_4292" data-name="Path 4292" d="M922.158,159.285h-48.8a1.256,1.256,0,1,0,0,2.513h48.8a1.256,1.256,0,1,0,0-2.513Z" transform="translate(-872.099 -152.473)" fill="#fff"/>
        <path id="Path_4293" data-name="Path 4293" d="M922.158,148h-48.8a1.256,1.256,0,1,0,0,2.513h48.8a1.256,1.256,0,1,0,0-2.513Z" transform="translate(-872.099 -147.996)" fill="#fff"/>
        <path id="Path_4294" data-name="Path 4294" d="M922.158,170.667h-48.8a1.256,1.256,0,1,0,0,2.513h48.8a1.256,1.256,0,1,0,0-2.513Z" transform="translate(-872.099 -156.986)" fill="#fff"/>
        <path id="Path_4295" data-name="Path 4295" d="M916.672,185.38h-16.8a1.256,1.256,0,1,0,0,2.512h16.8a1.256,1.256,0,0,0,0-2.512Z" transform="translate(-882.613 -162.821)" fill="#fff"/>
      </g>
      <path id="Path_4296" data-name="Path 4296" d="M949.256,183.477h0a3.218,3.218,0,0,0,2.167.582h0a3.219,3.219,0,0,1,3.23,1.865h0a3.218,3.218,0,0,0,1.587,1.588h0a3.219,3.219,0,0,1,1.865,3.23h0a3.216,3.216,0,0,0,.581,2.168h0a3.222,3.222,0,0,1,0,3.73h0a3.218,3.218,0,0,0-.581,2.168h0a3.22,3.22,0,0,1-1.865,3.23h0a3.216,3.216,0,0,0-1.587,1.587h0a3.22,3.22,0,0,1-3.23,1.865h0a3.214,3.214,0,0,0-2.167.581h0a3.221,3.221,0,0,1-3.731,0h0a3.215,3.215,0,0,0-2.168-.581h0a3.218,3.218,0,0,1-3.23-1.865h0a3.22,3.22,0,0,0-1.588-1.587h0a3.218,3.218,0,0,1-1.865-3.23h0a3.225,3.225,0,0,0-.581-2.168h0a3.218,3.218,0,0,1,0-3.73h0a3.223,3.223,0,0,0,.581-2.168h0a3.218,3.218,0,0,1,1.865-3.23h0a3.222,3.222,0,0,0,1.588-1.588h0a3.217,3.217,0,0,1,3.23-1.865h0a3.219,3.219,0,0,0,2.168-.582h0A3.223,3.223,0,0,1,949.256,183.477Z" transform="translate(-35.615 -22.765)" fill="none" stroke="#fff" stroke-miterlimit="10" stroke-width="1.7"/>
      <path id="Path_4298" data-name="Path 4298" d="M963.245,216.068a3.19,3.19,0,0,0-.467.716,3.22,3.22,0,0,1-3.23,1.865,3.215,3.215,0,0,0-2.167.581,3.208,3.208,0,0,1-1.394.559l4.032,8.448a.235.235,0,0,0,.414.022l2.3-3.769a.236.236,0,0,1,.239-.11l4.152.667a.236.236,0,0,0,.251-.334Z" transform="translate(-43.739 -35.925)" fill="none" stroke="#fff" stroke-miterlimit="10" stroke-width="1.7"/>
      <path id="Path_4299" data-name="Path 4299" d="M945.535,219.231a3.216,3.216,0,0,0-2.168-.581,3.218,3.218,0,0,1-3.23-1.865,3.2,3.2,0,0,0-.467-.716l-4.125,8.646a.236.236,0,0,0,.251.334l4.152-.667a.237.237,0,0,1,.24.11l2.295,3.769a.236.236,0,0,0,.414-.022l4.032-8.448A3.206,3.206,0,0,1,945.535,219.231Z" transform="translate(-35.624 -35.925)" fill="none" stroke="#fff" stroke-miterlimit="10" stroke-width="1.7"/>
    </g>
    <g id="Path_7095" data-name="Path 7095" transform="matrix(-0.574, 0.819, -0.819, -0.574, 2418.543, 2219.989)" fill="none" stroke-miterlimit="10">
      <path d="M-281.2,1903.208a2.865,2.865,0,0,0-2.964-2.7h-.458c-.041,0-.081.01-.122.01a5.854,5.854,0,0,0-5.577,4.447l-.163.631h2.015a6.68,6.68,0,0,1,2.971.7,2.982,2.982,0,0,0,.753.254,2.813,2.813,0,0,0,.58.061,2.833,2.833,0,0,0,2.9-2.322A3.486,3.486,0,0,0-281.2,1903.208Z" stroke="none"/>
      <path d="M -284.6215515136719 1900.509033203125 C -284.6622009277344 1900.509033203125 -284.7029724121094 1900.519165039062 -284.7436828613281 1900.519165039062 C -287.3894348144531 1900.570068359375 -289.6791076660156 1902.38134765625 -290.3201904296875 1904.966186523438 L -290.4830017089844 1905.59716796875 L -288.4681091308594 1905.59716796875 C -287.4403991699219 1905.59716796875 -286.4125366210938 1905.841186523438 -285.4966735839844 1906.299194335938 C -285.2524719238281 1906.42138671875 -284.9980773925781 1906.502807617188 -284.7436828613281 1906.553588867188 C -284.5503234863281 1906.59423828125 -284.3569946289062 1906.61474609375 -284.1636352539062 1906.61474609375 C -282.4964294433594 1906.61474609375 -281.5284423828125 1905.54052734375 -281.2596130371094 1904.293090820312 C -281.1375732421875 1903.40625 -281.194580078125 1903.65283203125 -281.1997985839844 1903.208374023438 C -281.3414306640625 1901.808471679688 -282.3291931152344 1900.509033203125 -284.1636352539062 1900.509033203125 L -284.6215515136719 1900.509033203125 M -284.6215515136719 1899.009033203125 L -284.1636352539062 1899.009033203125 C -282.9021301269531 1899.009033203125 -281.8012390136719 1899.448364257812 -280.97998046875 1900.279418945312 C -280.2676696777344 1901.000244140625 -279.8157348632812 1901.98681640625 -279.7074279785156 1903.057373046875 L -279.70068359375 1903.123901367188 L -279.6998901367188 1903.190795898438 C -279.6990356445312 1903.265747070312 -279.6964721679688 1903.297485351562 -279.6929321289062 1903.341552734375 C -279.6683349609375 1903.647338867188 -279.6803894042969 1903.820190429688 -279.7736206054688 1904.49755859375 L -279.7813415527344 1904.5537109375 L -279.7932739257812 1904.609130859375 C -280.2522277832031 1906.738647460938 -281.9676818847656 1908.11474609375 -284.1636352539062 1908.11474609375 C -284.4563598632812 1908.11474609375 -284.7526550292969 1908.083984375 -285.0444641113281 1908.023193359375 C -285.4429016113281 1907.942993164062 -285.8208618164062 1907.814331054688 -286.1679382324219 1907.640625 C -286.8787536621094 1907.28515625 -287.6742553710938 1907.09716796875 -288.4681091308594 1907.09716796875 L -290.4830017089844 1907.09716796875 L -292.4191589355469 1907.09716796875 L -291.9354248046875 1905.222412109375 L -291.774169921875 1904.597412109375 C -290.97607421875 1901.394165039062 -288.125 1899.108276367188 -284.8267517089844 1899.020751953125 C -284.7779846191406 1899.015258789062 -284.7063293457031 1899.009033203125 -284.6215515136719 1899.009033203125 Z" stroke="none" fill="#fff"/>
    </g>
    <g id="Group_6322" data-name="Group 6322" transform="matrix(-0.574, 0.819, -0.819, -0.574, 1023.809, 894.264)">
      <path id="Path_7092" data-name="Path 7092" d="M-176.728,1963.074l-.755.934a8.618,8.618,0,0,0-5.726-1.857,8.192,8.192,0,0,0-2.216.383l-.359-1.15a9.5,9.5,0,0,1,2.575-.431A9.862,9.862,0,0,1-176.728,1963.074Z" transform="translate(185.784 -1960.947)" fill="#fff"/>
    </g>
  </g>
</svg>
