<svg xmlns="http://www.w3.org/2000/svg" width="72.005" height="68.491" viewBox="0 0 72.005 68.491">
  <g id="Group_5191" data-name="Group 5191" transform="translate(-3242.004 501.788)">
    <line id="Line_331" data-name="Line 331" y2="13.754" transform="translate(3252.254 -468.493)" fill="none" stroke="#fff" stroke-miterlimit="10" stroke-width="1.6"/>
    <path id="Path_4746" data-name="Path 4746" d="M3303.184-282.682c-4.313,0-4.313-2.863-8.626-2.863s-4.313,2.863-8.626,2.863-4.313-2.863-8.626-2.863-4.312,2.863-8.625,2.863-4.313-2.863-8.626-2.863-4.313,2.863-8.626,2.863-4.312-2.863-8.625-2.863v10.4c4.313,0,4.313,2.864,8.625,2.864s4.313-2.864,8.626-2.864,4.313,2.864,8.626,2.864,4.313-2.864,8.625-2.864,4.313,2.864,8.626,2.864,4.313-2.864,8.626-2.864,4.313,2.864,8.626,2.864,4.313-2.864,8.626-2.864v-10.4C3307.5-285.545,3307.5-282.682,3303.184-282.682Z" transform="translate(0 -172.225)" fill="none" stroke="#fff" stroke-miterlimit="10" stroke-width="1.6"/>
    <path id="Path_4747" data-name="Path 4747" d="M3303.184-230.814c-4.313,0-4.313-2.864-8.626-2.864s-4.313,2.864-8.626,2.864-4.313-2.864-8.626-2.864-4.312,2.864-8.625,2.864-4.313-2.864-8.626-2.864-4.313,2.864-8.626,2.864-4.312-2.864-8.625-2.864v10.4c4.313,0,4.313,2.863,8.625,2.863s4.313-2.863,8.626-2.863,4.313,2.863,8.626,2.863,4.313-2.863,8.625-2.863,4.313,2.863,8.626,2.863,4.313-2.863,8.626-2.863,4.313,2.863,8.626,2.863,4.313-2.863,8.626-2.863v-10.4C3307.5-233.678,3307.5-230.814,3303.184-230.814Z" transform="translate(0 -213.687)" fill="none" stroke="#fff" stroke-miterlimit="10" stroke-width="1.6"/>
    <path id="Path_4748" data-name="Path 4748" d="M3264.378-405.663a3.4,3.4,0,0,0-1.588-2.875,8.769,8.769,0,0,1,.786-1.416v-.858a3.4,3.4,0,0,0-1.287-2.66,3.4,3.4,0,0,0,.429-1.631,3.432,3.432,0,0,0-3.433-3.433l-.023,0-.033,0a.547.547,0,0,0-.065,0,3.416,3.416,0,0,0-3.312-2.579h-.056a3.415,3.415,0,0,0-3.311,2.579.551.551,0,0,0-.065,0l-.033,0-.023,0a3.431,3.431,0,0,0-3.433,3.433,3.4,3.4,0,0,0,.429,1.631,3.4,3.4,0,0,0-1.287,2.66v.858a8.788,8.788,0,0,1,.786,1.416,3.4,3.4,0,0,0-1.588,2.875,3.42,3.42,0,0,0,1.948,3.081,3.339,3.339,0,0,0-.232,1.21,3.419,3.419,0,0,0,.2,1.158c-.01.029-.019.058-.029.087a3.436,3.436,0,0,0,3.2,2.188h.056a3.43,3.43,0,0,0,3.4-3.014,3.431,3.431,0,0,0,3.405,3.014h.056a3.435,3.435,0,0,0,3.2-2.188c-.01-.029-.019-.058-.029-.087a3.413,3.413,0,0,0,.2-1.158,3.34,3.34,0,0,0-.232-1.21A3.419,3.419,0,0,0,3264.378-405.663Z" transform="translate(-3.57 -63.854)" fill="none" stroke="#fff" stroke-miterlimit="10" stroke-width="1.6"/>
    <line id="Line_332" data-name="Line 332" y2="27.341" transform="translate(3269.171 -482.247)" fill="none" stroke="#fff" stroke-miterlimit="10" stroke-width="1.6"/>
    <path id="Path_4749" data-name="Path 4749" d="M3343.71-482.515a4.066,4.066,0,0,0-1.9-3.439,10.518,10.518,0,0,1,.94-1.693v-1.026a4.064,4.064,0,0,0-1.539-3.181,4.061,4.061,0,0,0,.513-1.95,4.1,4.1,0,0,0-4.105-4.105l-.028,0-.039,0a.675.675,0,0,0-.078.006,4.084,4.084,0,0,0-3.96-3.084h-.067a4.084,4.084,0,0,0-3.96,3.084.675.675,0,0,0-.078-.006l-.039,0-.028,0a4.1,4.1,0,0,0-4.1,4.105,4.061,4.061,0,0,0,.513,1.95,4.065,4.065,0,0,0-1.54,3.181v1.026a10.5,10.5,0,0,1,.94,1.693,4.066,4.066,0,0,0-1.9,3.439,4.089,4.089,0,0,0,2.33,3.684,3.993,3.993,0,0,0-.277,1.447,4.089,4.089,0,0,0,.244,1.384c-.011.034-.022.07-.034.1a4.108,4.108,0,0,0,3.828,2.617l.033,0,.034,0a4.1,4.1,0,0,0,4.072-3.6,4.1,4.1,0,0,0,4.072,3.6l.034,0,.033,0a4.108,4.108,0,0,0,3.828-2.617c-.012-.034-.022-.07-.034-.1a4.083,4.083,0,0,0,.244-1.384,4,4,0,0,0-.277-1.447A4.089,4.089,0,0,0,3343.71-482.515Z" transform="translate(-64.309)" fill="none" stroke="#fff" stroke-miterlimit="10" stroke-width="1.6"/>
    <line id="Line_333" data-name="Line 333" y2="13.754" transform="translate(3285.861 -468.493)" fill="none" stroke="#fff" stroke-miterlimit="10" stroke-width="1.6"/>
    <path id="Path_4750" data-name="Path 4750" d="M3432.911-405.663a3.4,3.4,0,0,0-1.588-2.875,8.75,8.75,0,0,1,.786-1.416v-.858a3.4,3.4,0,0,0-1.287-2.66,3.4,3.4,0,0,0,.429-1.631,3.432,3.432,0,0,0-3.433-3.433l-.023,0-.033,0a.555.555,0,0,0-.065,0,3.415,3.415,0,0,0-3.312-2.579h-.056a3.415,3.415,0,0,0-3.312,2.579.555.555,0,0,0-.065,0l-.033,0-.023,0a3.431,3.431,0,0,0-3.433,3.433,3.4,3.4,0,0,0,.429,1.631,3.4,3.4,0,0,0-1.287,2.66v.858a8.788,8.788,0,0,1,.786,1.416,3.4,3.4,0,0,0-1.588,2.875,3.419,3.419,0,0,0,1.948,3.081,3.345,3.345,0,0,0-.232,1.21,3.431,3.431,0,0,0,.2,1.158c-.01.029-.019.058-.028.087a3.435,3.435,0,0,0,3.2,2.188h.056a3.43,3.43,0,0,0,3.4-3.014,3.431,3.431,0,0,0,3.4,3.014h.056a3.435,3.435,0,0,0,3.2-2.188c-.01-.029-.019-.058-.028-.087a3.431,3.431,0,0,0,.2-1.158,3.334,3.334,0,0,0-.232-1.21A3.419,3.419,0,0,0,3432.911-405.663Z" transform="translate(-138.295 -63.854)" fill="none" stroke="#fff" stroke-miterlimit="10" stroke-width="1.6"/>
    <line id="Line_334" data-name="Line 334" y2="27.341" transform="translate(3302.979 -482.247)" fill="none" stroke="#fff" stroke-miterlimit="10" stroke-width="1.6"/>
    <path id="Path_4751" data-name="Path 4751" d="M3512.243-482.515a4.066,4.066,0,0,0-1.9-3.439,10.5,10.5,0,0,1,.939-1.693v-1.026a4.065,4.065,0,0,0-1.54-3.181,4.058,4.058,0,0,0,.513-1.95,4.1,4.1,0,0,0-4.1-4.105l-.028,0-.04,0a.683.683,0,0,0-.078.006,4.084,4.084,0,0,0-3.96-3.084h-.067a4.084,4.084,0,0,0-3.96,3.084.679.679,0,0,0-.078-.006l-.039,0-.028,0a4.1,4.1,0,0,0-4.1,4.105,4.061,4.061,0,0,0,.513,1.95,4.065,4.065,0,0,0-1.54,3.181v1.026a10.481,10.481,0,0,1,.94,1.693,4.066,4.066,0,0,0-1.9,3.439,4.089,4.089,0,0,0,2.33,3.684,3.993,3.993,0,0,0-.277,1.447,4.083,4.083,0,0,0,.244,1.384c-.011.034-.022.07-.034.1a4.108,4.108,0,0,0,3.828,2.617l.034,0,.033,0a4.1,4.1,0,0,0,4.072-3.6,4.1,4.1,0,0,0,4.072,3.6l.034,0,.033,0a4.108,4.108,0,0,0,3.828-2.617c-.012-.034-.022-.07-.034-.1a4.083,4.083,0,0,0,.245-1.384,3.993,3.993,0,0,0-.278-1.447A4.089,4.089,0,0,0,3512.243-482.515Z" transform="translate(-199.034)" fill="none" stroke="#fff" stroke-miterlimit="10" stroke-width="1.6"/>
  </g>
</svg>
