<svg xmlns="http://www.w3.org/2000/svg" width="87.65" height="84.965" viewBox="0 0 87.65 84.965">
  <g id="Group_6227" data-name="Group 6227" transform="translate(1613.508 -1540.15)">
    <circle id="Ellipse_216" data-name="Ellipse 216" cx="20.099" cy="20.099" r="20.099" transform="translate(-1592.934 1558.066)" fill="#fff" stroke="#eb2127" stroke-miterlimit="10" stroke-width="1.7"/>
    <path id="Path_6869" data-name="Path 6869" d="M-1276.4,1595.879c4.917,0,8.9,1.6,8.9,3.577v4.77H-1285.3v-4.77C-1285.3,1597.481-1281.318,1595.879-1276.4,1595.879Z" transform="translate(-266.632 -44.699)" fill="#fff" stroke="#eb2127" stroke-miterlimit="10" stroke-width="1.7"/>
    <circle id="Ellipse_217" data-name="Ellipse 217" cx="5.101" cy="5.101" r="5.101" transform="translate(-1548.133 1541)" fill="#fff" stroke="#eb2127" stroke-miterlimit="10" stroke-width="1.7"/>
    <path id="Path_6870" data-name="Path 6870" d="M-1442.546,1740.571c5.607,0,10.152,1.826,10.152,4.079v5.439h-20.3v-5.439C-1452.7,1742.4-1448.153,1740.571-1442.546,1740.571Z" transform="translate(-130.288 -162.552)" fill="#fff" stroke="#eb2127" stroke-miterlimit="10" stroke-width="1.7"/>
    <circle id="Ellipse_218" data-name="Ellipse 218" cx="5.816" cy="5.816" r="5.816" transform="translate(-1578.651 1566.413)" fill="#fff" stroke="#eb2127" stroke-miterlimit="10" stroke-width="1.7"/>
    <circle id="Ellipse_219" data-name="Ellipse 219" cx="5.445" cy="5.445" r="5.445" transform="translate(-1605.053 1542.855)" fill="#fff" stroke="#eb2127" stroke-miterlimit="10" stroke-width="1.7"/>
    <circle id="Ellipse_220" data-name="Ellipse 220" cx="5.445" cy="5.445" r="5.445" transform="translate(-1612.658 1572.534)" fill="#fff" stroke="#eb2127" stroke-miterlimit="10" stroke-width="1.7"/>
    <circle id="Ellipse_221" data-name="Ellipse 221" cx="5.445" cy="5.445" r="5.445" transform="translate(-1606.537 1599.245)" fill="#fff" stroke="#eb2127" stroke-miterlimit="10" stroke-width="1.7"/>
    <circle id="Ellipse_222" data-name="Ellipse 222" cx="5.445" cy="5.445" r="5.445" transform="translate(-1555.155 1595.721)" fill="#fff" stroke="#eb2127" stroke-miterlimit="10" stroke-width="1.7"/>
    <path id="Path_6871" data-name="Path 6871" d="M-1236.4,1736.879c4.917,0,8.9,1.6,8.9,3.577v4.77H-1245.3v-4.77C-1245.3,1738.481-1241.318,1736.879-1236.4,1736.879Z" transform="translate(-299.212 -159.544)" fill="#fff" stroke="#eb2127" stroke-miterlimit="10" stroke-width="1.7"/>
    <circle id="Ellipse_223" data-name="Ellipse 223" cx="5.101" cy="5.101" r="5.101" transform="translate(-1540.713 1567.155)" fill="#fff" stroke="#eb2127" stroke-miterlimit="10" stroke-width="1.7"/>
    <path id="Path_6872" data-name="Path 6872" d="M-1460.4,1944.879c4.917,0,8.9,1.6,8.9,3.577v4.77H-1469.3v-4.77C-1469.3,1946.481-1465.318,1944.879-1460.4,1944.879Z" transform="translate(-116.763 -328.961)" fill="#fff" stroke="#eb2127" stroke-miterlimit="10" stroke-width="1.7"/>
    <circle id="Ellipse_224" data-name="Ellipse 224" cx="5.101" cy="5.101" r="5.101" transform="translate(-1582.264 1605.738)" fill="#fff" stroke="#eb2127" stroke-miterlimit="10" stroke-width="1.7"/>
    <line id="Line_455" data-name="Line 455" y1="4.244" x2="6.515" transform="translate(-1558.495 1559.572)" fill="#fff" stroke="#eb2127" stroke-miterlimit="10" stroke-width="1.7"/>
    <line id="Line_456" data-name="Line 456" x2="8.493" y2="1.646" transform="translate(-1552.924 1580.169)" fill="#fff" stroke="#eb2127" stroke-miterlimit="10" stroke-width="1.7"/>
    <line id="Line_457" data-name="Line 457" y1="17.375" x2="15.149" transform="translate(-1568.141 1605.181)" fill="#fff" stroke="#eb2127" stroke-miterlimit="10" stroke-width="1.7"/>
    <line id="Line_458" data-name="Line 458" y1="11.563" x2="10.45" transform="translate(-1545.572 1585.828)" fill="#fff" stroke="#eb2127" stroke-miterlimit="10" stroke-width="1.7"/>
    <line id="Line_459" data-name="Line 459" y1="7.763" x2="0.54" transform="translate(-1576.056 1598.099)" fill="#fff" stroke="#eb2127" stroke-miterlimit="10" stroke-width="1.7"/>
    <line id="Line_460" data-name="Line 460" x1="3.459" y1="16.203" transform="translate(-1605.855 1583.166)" fill="#fff" stroke="#eb2127" stroke-miterlimit="10" stroke-width="1.7"/>
    <line id="Line_461" data-name="Line 461" x2="8.954" y2="1.312" transform="translate(-1601.734 1578.271)" fill="#fff" stroke="#eb2127" stroke-miterlimit="10" stroke-width="1.7"/>
    <line id="Line_462" data-name="Line 462" y1="2.51" x2="46.025" transform="translate(-1594.077 1545.557)" fill="#fff" stroke="#eb2127" stroke-miterlimit="10" stroke-width="1.7"/>
    <line id="Line_463" data-name="Line 463" x2="3.8" y2="7.946" transform="translate(-1541.437 1559.611)" fill="#fff" stroke="#eb2127" stroke-miterlimit="10" stroke-width="1.7"/>
    <line id="Line_464" data-name="Line 464" x2="9.53" y2="10.697" transform="translate(-1595.726 1552.439)" fill="#fff" stroke="#eb2127" stroke-miterlimit="10" stroke-width="1.7"/>
    <line id="Line_465" data-name="Line 465" x1="4.807" y2="19.098" transform="translate(-1605.858 1553.683)" fill="#fff" stroke="#eb2127" stroke-miterlimit="10" stroke-width="1.7"/>
    <line id="Line_466" data-name="Line 466" x2="11.13" y2="10.666" transform="translate(-1597.047 1608.242)" fill="#fff" stroke="#eb2127" stroke-miterlimit="10" stroke-width="1.7"/>
  </g>
</svg>
