<svg xmlns="http://www.w3.org/2000/svg" width="68.214" height="70.435" viewBox="0 0 68.214 70.435">
  <g id="Group_5088" data-name="Group 5088" transform="translate(-600.801 -437.157)">
    <path id="Path_4511" data-name="Path 4511" d="M664.447,496.41H610.5a2.412,2.412,0,0,0-2.412,2.412V505.3h58.766v-6.477A2.412,2.412,0,0,0,664.447,496.41Z" transform="translate(-3.874 -34.885)" fill="#fff" stroke="#eb2127" stroke-miterlimit="10" stroke-width="1.6"/>
    <path id="Path_4512" data-name="Path 4512" d="M648.747,455.9l-4.885,49.454a2.261,2.261,0,0,1-2.472,2.027l-24.752-2.445a2.26,2.26,0,0,1-2.027-2.471L619.5,453.01a2.26,2.26,0,0,1,2.471-2.027l24.752,2.445A2.26,2.26,0,0,1,648.747,455.9Z" transform="translate(-7.758 -7.765)" fill="#fff" stroke="#eb2127" stroke-miterlimit="10" stroke-width="1.6"/>
    <path id="Path_4513" data-name="Path 4513" d="M627.966,466.89,624.4,502.968a1.366,1.366,0,0,0,.632,1.294,6.632,6.632,0,0,1,2.67,3.224,1.363,1.363,0,0,0,1.14.86l12.832,1.268a1.364,1.364,0,0,0,1.286-.62,6.628,6.628,0,0,1,3.249-2.64,1.366,1.366,0,0,0,.874-1.145l3.564-36.078a1.364,1.364,0,0,0-.633-1.294,6.628,6.628,0,0,1-2.669-3.224,1.364,1.364,0,0,0-1.14-.86l-12.831-1.268a1.364,1.364,0,0,0-1.286.62,6.631,6.631,0,0,1-3.249,2.64A1.366,1.366,0,0,0,627.966,466.89Z" transform="translate(-13.605 -14.632)" fill="#fff" stroke="#eb2127" stroke-miterlimit="10" stroke-width="1.6"/>
    <path id="Path_4514" data-name="Path 4514" d="M655.1,467.836a6.628,6.628,0,0,1-2.669-3.224,1.364,1.364,0,0,0-1.14-.86l-12.832-1.268a1.365,1.365,0,0,0-1.286.62,6.629,6.629,0,0,1-3.249,2.64,1.365,1.365,0,0,0-.873,1.145l-.136,1.373,16.626,1.591a1.364,1.364,0,0,1,1.14.86,6.63,6.63,0,0,0,2.67,3.224,1.366,1.366,0,0,1,.633,1.294l-3.091,31.29c.133-.06.267-.117.4-.169a1.364,1.364,0,0,0,.873-1.145l3.564-36.078A1.365,1.365,0,0,0,655.1,467.836Z" transform="translate(-18.69 -14.632)" fill="#fff" stroke="#eb2127" stroke-miterlimit="10" stroke-width="1.6"/>
    <path id="Path_4515" data-name="Path 4515" d="M673.386,455.5,645.4,496.568a2.261,2.261,0,0,1-3.141.6l-20.554-14.007a2.261,2.261,0,0,1-.6-3.141L649.1,438.95a2.26,2.26,0,0,1,3.141-.6l20.553,14.008A2.259,2.259,0,0,1,673.386,455.5Z" transform="translate(-11.411 0)" fill="#fff" stroke="#eb2127" stroke-miterlimit="10" stroke-width="1.6"/>
    <path id="Path_4516" data-name="Path 4516" d="M657.907,456.557l-20.416,29.958a1.366,1.366,0,0,0-.065,1.439,6.622,6.622,0,0,1,.8,4.109,1.364,1.364,0,0,0,.589,1.3l10.655,7.261a1.362,1.362,0,0,0,1.426.072,6.631,6.631,0,0,1,4.117-.76,1.364,1.364,0,0,0,1.315-.587l20.416-29.958a1.365,1.365,0,0,0,.065-1.439,6.627,6.627,0,0,1-.8-4.109,1.364,1.364,0,0,0-.589-1.3l-10.655-7.261a1.364,1.364,0,0,0-1.426-.072,6.636,6.636,0,0,1-4.117.76A1.363,1.363,0,0,0,657.907,456.557Z" transform="translate(-21.278 -10.194)" fill="#fff" stroke="#eb2127" stroke-miterlimit="10" stroke-width="1.6"/>
    <path id="Path_4517" data-name="Path 4517" d="M701.314,467.953a6.627,6.627,0,0,1-.8-4.109,1.364,1.364,0,0,0-.589-1.3l-10.655-7.261a1.364,1.364,0,0,0-1.426-.072,6.636,6.636,0,0,1-4.117.76,1.363,1.363,0,0,0-1.315.587l-.851,1.248,13.316,8.976a1.364,1.364,0,0,1,.589,1.3,6.629,6.629,0,0,0,.8,4.109,1.365,1.365,0,0,1-.065,1.439l-17.889,26.251a6.634,6.634,0,0,1,1.205.056,1.364,1.364,0,0,0,1.315-.587l20.416-29.958A1.365,1.365,0,0,0,701.314,467.953Z" transform="translate(-45.785 -10.194)" fill="#fff" stroke="#eb2127" stroke-miterlimit="10" stroke-width="1.6"/>
    <path id="Path_4518" data-name="Path 4518" d="M683.457,486.852a7.312,7.312,0,1,1-7.312,7.312A7.312,7.312,0,0,1,683.457,486.852Z" transform="translate(-44.492 -29.18)" fill="#fff" stroke="#eb2127" stroke-miterlimit="10" stroke-width="1.6"/>
    <path id="Path_4519" data-name="Path 4519" d="M661.408,547.448h-56.33a3.477,3.477,0,0,1-3.477-3.477V509.557a3.477,3.477,0,0,1,3.477-3.478h56.33a3.477,3.477,0,0,1,3.477,3.478v34.414A3.477,3.477,0,0,1,661.408,547.448Z" transform="translate(0 -40.655)" fill="#fff" stroke="#eb2127" stroke-miterlimit="10" stroke-width="1.6"/>
    <path id="Path_4520" data-name="Path 4520" d="M735.1,540.9H722.421a6.647,6.647,0,0,0-6.647,6.647h0a6.647,6.647,0,0,0,6.647,6.647H735.1a1.26,1.26,0,0,0,1.26-1.26V542.158A1.26,1.26,0,0,0,735.1,540.9Z" transform="translate(-68.144 -61.437)" fill="#fff" stroke="#eb2127" stroke-miterlimit="10" stroke-width="1.6"/>
    <path id="Path_4521" data-name="Path 4521" d="M661.408,506.079h-56.33a3.477,3.477,0,0,0-3.477,3.478v3.811h63.284v-3.811A3.477,3.477,0,0,0,661.408,506.079Z" transform="translate(0 -40.655)" fill="#fff" stroke="#eb2127" stroke-miterlimit="10" stroke-width="1.6"/>
    <path id="Path_4522" data-name="Path 4522" d="M605.078,597.9h56.33a3.477,3.477,0,0,0,3.477-3.477v-3.811H601.6v3.811A3.477,3.477,0,0,0,605.078,597.9Z" transform="translate(0 -91.111)" fill="#fff" stroke="#eb2127" stroke-miterlimit="10" stroke-width="1.6"/>
    <path id="Path_4523" data-name="Path 4523" d="M728.279,549.732a3.087,3.087,0,1,1-3.086,3.087A3.086,3.086,0,0,1,728.279,549.732Z" transform="translate(-73.766 -66.71)" fill="#fff" stroke="#eb2127" stroke-miterlimit="10" stroke-width="1.6"/>
  </g>
</svg>
