<svg xmlns="http://www.w3.org/2000/svg" width="79.067" height="67.855" viewBox="0 0 79.067 67.855">
  <g id="Group_6281" data-name="Group 6281" transform="translate(531.644 -1038.685)">
    <path id="Path_7003" data-name="Path 7003" d="M-493.4,1050.094l-4.7-4.813a18.831,18.831,0,0,0-27.085,0,19.96,19.96,0,0,0,0,27.746l31.047,31.8a2.819,2.819,0,0,0,4.054,0l31.047-31.8a19.959,19.959,0,0,0,0-27.746,18.831,18.831,0,0,0-27.085,0l-4.7,4.813A1.794,1.794,0,0,1-493.4,1050.094Z" transform="translate(0 0)" fill="none" stroke="#fff" stroke-miterlimit="10" stroke-width="1.7"/>
    <g id="Group_6280" data-name="Group 6280" transform="translate(-507.917 1056.808)">
      <circle id="Ellipse_230" data-name="Ellipse 230" cx="13.776" cy="13.776" r="13.776" transform="matrix(0.16, -0.987, 0.987, 0.16, 0, 27.197)" fill="none" stroke="#fff" stroke-miterlimit="10" stroke-width="1.7"/>
      <path id="Path_7004" data-name="Path 7004" d="M-459.283,1090.261h-5.37a.468.468,0,0,1-.467-.467v-5.371a.934.934,0,0,0-.934-.934h-2.8a.934.934,0,0,0-.934.934v5.371a.468.468,0,0,1-.467.467h-5.37a.934.934,0,0,0-.934.933v2.8a.934.934,0,0,0,.934.934h5.37a.467.467,0,0,1,.467.467v5.371a.934.934,0,0,0,.934.934h2.8a.934.934,0,0,0,.934-.934V1095.4a.467.467,0,0,1,.467-.467h5.37a.934.934,0,0,0,.934-.934v-2.8a.934.934,0,0,0-.934-.933Z" transform="translate(483.261 -1076.791)" fill="#fff"/>
    </g>
  </g>
</svg>
