<svg xmlns="http://www.w3.org/2000/svg" width="87.131" height="64.346" viewBox="0 0 87.131 64.346">
  <g id="Group_6304" data-name="Group 6304" transform="translate(402.046 -1217.752)">
    <circle id="Ellipse_231" data-name="Ellipse 231" cx="31.323" cy="31.323" r="31.323" transform="translate(-378.41 1218.602)" fill="none" stroke="#fff" stroke-miterlimit="10" stroke-width="1.7"/>
    <g id="Group_6288" data-name="Group 6288" transform="translate(-395.883 1229.301)">
      <path id="Path_7026" data-name="Path 7026" d="M-372.007,1250.393H-385.4a1.27,1.27,0,0,1-1.27-1.27,1.27,1.27,0,0,1,1.27-1.27h13.394a1.27,1.27,0,0,1,1.27,1.27A1.27,1.27,0,0,1-372.007,1250.393Z" transform="translate(386.671 -1247.853)" fill="none" stroke="#fff" stroke-miterlimit="10" stroke-width="1.7"/>
    </g>
    <g id="Group_6289" data-name="Group 6289" transform="translate(-388.24 1237.956)">
      <path id="Path_7027" data-name="Path 7027" d="M-359.212,1274.056H-364.5a1.27,1.27,0,0,1-1.27-1.27,1.27,1.27,0,0,1,1.27-1.27h5.291a1.269,1.269,0,0,1,1.27,1.27A1.27,1.27,0,0,1-359.212,1274.056Z" transform="translate(365.773 -1271.516)" fill="none" stroke="#fff" stroke-miterlimit="10" stroke-width="1.7"/>
    </g>
    <g id="Group_6290" data-name="Group 6290" transform="translate(-401.196 1244.223)">
      <path id="Path_7028" data-name="Path 7028" d="M-386.969,1291.19h-12.957a1.27,1.27,0,0,1-1.27-1.27,1.27,1.27,0,0,1,1.27-1.27h12.956a1.27,1.27,0,0,1,1.27,1.27A1.27,1.27,0,0,1-386.969,1291.19Z" transform="translate(401.196 -1288.65)" fill="none" stroke="#fff" stroke-miterlimit="10" stroke-width="1.7"/>
    </g>
    <g id="Group_6291" data-name="Group 6291" transform="translate(-395.883 1268.009)">
      <path id="Path_7029" data-name="Path 7029" d="M-372.007,1356.22H-385.4a1.27,1.27,0,0,1-1.27-1.27,1.27,1.27,0,0,1,1.27-1.27h13.394a1.27,1.27,0,0,1,1.27,1.27A1.27,1.27,0,0,1-372.007,1356.22Z" transform="translate(386.671 -1353.68)" fill="none" stroke="#fff" stroke-miterlimit="10" stroke-width="1.7"/>
    </g>
    <g id="Group_6292" data-name="Group 6292" transform="translate(-388.24 1259.354)">
      <path id="Path_7030" data-name="Path 7030" d="M-359.212,1332.559H-364.5a1.27,1.27,0,0,1-1.27-1.27,1.27,1.27,0,0,1,1.27-1.27h5.291a1.27,1.27,0,0,1,1.27,1.27A1.27,1.27,0,0,1-359.212,1332.559Z" transform="translate(365.773 -1330.019)" fill="none" stroke="#fff" stroke-miterlimit="10" stroke-width="1.7"/>
    </g>
    <g id="Group_6293" data-name="Group 6293" transform="translate(-401.196 1253.087)">
      <path id="Path_7031" data-name="Path 7031" d="M-386.969,1315.425h-12.957a1.27,1.27,0,0,1-1.27-1.27,1.27,1.27,0,0,1,1.27-1.27h12.956a1.27,1.27,0,0,1,1.27,1.27A1.27,1.27,0,0,1-386.969,1315.425Z" transform="translate(401.196 -1312.885)" fill="none" stroke="#fff" stroke-miterlimit="10" stroke-width="1.7"/>
    </g>
    <path id="Path_7032" data-name="Path 7032" d="M-325.894,1222.4h-26.029a1.27,1.27,0,0,0-1.27,1.27,1.27,1.27,0,0,0,1.27,1.27h20.091A31.121,31.121,0,0,1-325.894,1222.4Z" transform="translate(-30.445 -2.41)" fill="none" stroke="#fff" stroke-miterlimit="10" stroke-width="1.7"/>
    <circle id="Ellipse_232" data-name="Ellipse 232" cx="24.052" cy="24.052" r="24.052" transform="matrix(0.151, -0.989, 0.989, 0.151, -374.492, 1270.073)" fill="none" stroke="#fff" stroke-miterlimit="10" stroke-width="1.7"/>
    <g id="Group_6302" data-name="Group 6302" transform="translate(-366.835 1230.177)">
      <g id="Group_6294" data-name="Group 6294" transform="translate(18.478)">
        <path id="Path_7033" data-name="Path 7033" d="M-255.464,1254.727a1.27,1.27,0,0,1-1.27-1.27v-1.939a1.27,1.27,0,0,1,1.27-1.27,1.27,1.27,0,0,1,1.27,1.27v1.939A1.27,1.27,0,0,1-255.464,1254.727Z" transform="translate(256.734 -1250.248)" fill="#fff"/>
      </g>
      <g id="Group_6295" data-name="Group 6295" transform="translate(30.172 5.412)">
        <path id="Path_7034" data-name="Path 7034" d="M-223.49,1268.956a1.268,1.268,0,0,1-.9-.372,1.27,1.27,0,0,1,0-1.8l1.37-1.371a1.271,1.271,0,0,1,1.8,0,1.27,1.27,0,0,1,0,1.8l-1.371,1.371a1.266,1.266,0,0,1-.9.372Z" transform="translate(224.76 -1265.045)" fill="#fff"/>
      </g>
      <g id="Group_6296" data-name="Group 6296" transform="translate(35.017 18.478)">
        <path id="Path_7035" data-name="Path 7035" d="M-208.308,1303.307h-1.938a1.271,1.271,0,0,1-1.27-1.27,1.27,1.27,0,0,1,1.27-1.27h1.938a1.27,1.27,0,0,1,1.27,1.27A1.27,1.27,0,0,1-208.308,1303.307Z" transform="translate(211.516 -1300.767)" fill="#fff"/>
      </g>
      <g id="Group_6297" data-name="Group 6297" transform="translate(30.172 30.173)">
        <path id="Path_7036" data-name="Path 7036" d="M-222.119,1336.653a1.267,1.267,0,0,1-.9-.372l-1.37-1.371a1.27,1.27,0,0,1,0-1.8,1.27,1.27,0,0,1,1.8,0l1.371,1.371a1.27,1.27,0,0,1,0,1.8,1.265,1.265,0,0,1-.9.372Z" transform="translate(224.76 -1332.742)" fill="#fff"/>
      </g>
      <g id="Group_6298" data-name="Group 6298" transform="translate(18.478 35.017)">
        <path id="Path_7037" data-name="Path 7037" d="M-255.464,1350.464a1.27,1.27,0,0,1-1.27-1.27v-1.938a1.27,1.27,0,0,1,1.27-1.27,1.27,1.27,0,0,1,1.27,1.27v1.938A1.27,1.27,0,0,1-255.464,1350.464Z" transform="translate(256.734 -1345.985)" fill="#fff"/>
      </g>
      <g id="Group_6299" data-name="Group 6299" transform="translate(5.412 30.173)">
        <path id="Path_7038" data-name="Path 7038" d="M-291.186,1336.653a1.267,1.267,0,0,1-.9-.372,1.271,1.271,0,0,1,0-1.8l1.371-1.371a1.271,1.271,0,0,1,1.8,0,1.27,1.27,0,0,1,0,1.8l-1.371,1.371A1.265,1.265,0,0,1-291.186,1336.653Z" transform="translate(292.456 -1332.742)" fill="#fff"/>
      </g>
      <g id="Group_6300" data-name="Group 6300" transform="translate(0 18.478)">
        <path id="Path_7039" data-name="Path 7039" d="M-304.044,1303.307h-1.939a1.27,1.27,0,0,1-1.27-1.27,1.27,1.27,0,0,1,1.27-1.27h1.939a1.27,1.27,0,0,1,1.27,1.27,1.27,1.27,0,0,1-1.27,1.27Z" transform="translate(307.252 -1300.767)" fill="#fff"/>
      </g>
      <g id="Group_6301" data-name="Group 6301" transform="translate(5.412 5.412)">
        <path id="Path_7040" data-name="Path 7040" d="M-289.815,1268.956a1.266,1.266,0,0,1-.9-.372l-1.371-1.371a1.271,1.271,0,0,1,0-1.8,1.271,1.271,0,0,1,1.8,0l1.371,1.371a1.27,1.27,0,0,1,0,1.8,1.268,1.268,0,0,1-.9.372Z" transform="translate(292.456 -1265.045)" fill="#fff"/>
      </g>
    </g>
    <g id="Group_6303" data-name="Group 6303" transform="translate(-348.357 1237.956)">
      <path id="Path_7041" data-name="Path 7041" d="M-249.9,1284.755h-5.559a1.27,1.27,0,0,1-1.27-1.27v-10.7a1.269,1.269,0,0,1,1.27-1.27,1.269,1.269,0,0,1,1.27,1.27v9.43h4.289a1.27,1.27,0,0,1,1.27,1.27A1.271,1.271,0,0,1-249.9,1284.755Z" transform="translate(256.734 -1271.515)" fill="#fff"/>
    </g>
    <path id="Path_7042" data-name="Path 7042" d="M-331.832,1379.132h-20.091a1.269,1.269,0,0,0-1.27,1.27,1.269,1.269,0,0,0,1.27,1.27h26.032A31.131,31.131,0,0,1-331.832,1379.132Z" transform="translate(-30.445 -101.814)" fill="none" stroke="#fff" stroke-miterlimit="10" stroke-width="1.7"/>
  </g>
</svg>
