<svg xmlns="http://www.w3.org/2000/svg" width="81.035" height="66.018" viewBox="0 0 81.035 66.018">
  <g id="Group_5962" data-name="Group 5962" transform="translate(-2773.32 -341.43)">
    <g id="Group_5164" data-name="Group 5164" transform="translate(2797.841 350.978)">
      <path id="Path_4657" data-name="Path 4657" d="M2866.57,379.616c-.658,0-1.191-.363-1.191-.811v-2.922c0-.448.534-.811,1.191-.811s1.192.363,1.192.811V378.8C2867.762,379.253,2867.229,379.616,2866.57,379.616Z" transform="translate(-2865.379 -375.072)" fill="#fff"/>
    </g>
    <g id="Group_5165" data-name="Group 5165" transform="translate(2793.011 350.978)">
      <path id="Path_4658" data-name="Path 4658" d="M2848.438,379.616c-.658,0-1.192-.363-1.192-.811v-2.922c0-.448.533-.811,1.192-.811s1.191.363,1.191.811V378.8C2849.629,379.253,2849.1,379.616,2848.438,379.616Z" transform="translate(-2847.246 -375.072)" fill="#fff"/>
    </g>
    <g id="Group_5166" data-name="Group 5166" transform="translate(2832.281 350.978)">
      <path id="Path_4659" data-name="Path 4659" d="M2995.865,379.616c-.658,0-1.191-.363-1.191-.811v-2.922c0-.448.533-.811,1.191-.811s1.192.363,1.192.811V378.8C2997.057,379.253,2996.523,379.616,2995.865,379.616Z" transform="translate(-2994.674 -375.072)" fill="#fff"/>
    </g>
    <g id="Group_5167" data-name="Group 5167" transform="translate(2827.451 350.978)">
      <path id="Path_4660" data-name="Path 4660" d="M2977.732,379.616c-.658,0-1.191-.363-1.191-.811v-2.922c0-.448.533-.811,1.191-.811s1.192.363,1.192.811V378.8C2978.924,379.253,2978.391,379.616,2977.732,379.616Z" transform="translate(-2976.541 -375.072)" fill="#fff"/>
    </g>
    <g id="Group_5168" data-name="Group 5168" transform="translate(2787.153 342.23)">
      <path id="Path_4661" data-name="Path 4661" d="M2875.17,350.876h-48.259a1.658,1.658,0,0,1-1.658-1.658v-5.33a1.658,1.658,0,0,1,1.658-1.658h48.259a1.658,1.658,0,0,1,1.658,1.658v5.33A1.658,1.658,0,0,1,2875.17,350.876Z" transform="translate(-2825.254 -342.23)" fill="none" stroke="#fff" stroke-miterlimit="10" stroke-width="1.6"/>
    </g>
    <g id="Group_5169" data-name="Group 5169" transform="translate(2780.668 363.913)">
      <path id="Path_4662" data-name="Path 4662" d="M2800.908,423.633h66.338v41.012h-66.338Z" transform="translate(-2800.908 -423.633)" fill="none" stroke="#fff" stroke-miterlimit="10" stroke-width="1.6"/>
    </g>
    <g id="Group_5170" data-name="Group 5170" transform="translate(2778.029 355.516)">
      <path id="Path_4663" data-name="Path 4663" d="M2860.538,400.507h-67.461a2.078,2.078,0,0,1-2.078-2.078v-4.241a2.078,2.078,0,0,1,2.078-2.078h67.461a2.078,2.078,0,0,1,2.078,2.078v4.241A2.078,2.078,0,0,1,2860.538,400.507Z" transform="translate(-2790.999 -392.11)" fill="none" stroke="#fff" stroke-miterlimit="10" stroke-width="1.6"/>
    </g>
    <g id="Group_5171" data-name="Group 5171" transform="translate(2800.378 373.327)">
      <path id="Path_4664" data-name="Path 4664" d="M2901.823,490.575H2874.9v-29.2a2.4,2.4,0,0,1,2.4-2.4h22.121a2.4,2.4,0,0,1,2.4,2.4Z" transform="translate(-2874.904 -458.977)" fill="none" stroke="#fff" stroke-miterlimit="10" stroke-width="1.6"/>
    </g>
    <g id="Group_5172" data-name="Group 5172" transform="translate(2813.828 373.327)">
      <path id="Path_4665" data-name="Path 4665" d="M2936.468,458.977H2925.4v31.6h13.469v-29.2A2.4,2.4,0,0,0,2936.468,458.977Z" transform="translate(-2925.398 -458.977)" fill="none" stroke="#fff" stroke-miterlimit="10" stroke-width="1.6"/>
    </g>
    <g id="Group_5173" data-name="Group 5173" transform="translate(2780.668 373.327)">
      <path id="Path_4666" data-name="Path 4666" d="M2810.615,481.778h-9.707v-22.8h9.707a2.3,2.3,0,0,1,2.3,2.3v18.207a2.3,2.3,0,0,1-2.3,2.3Z" transform="translate(-2800.908 -458.977)" fill="none" stroke="#fff" stroke-miterlimit="10" stroke-width="1.6"/>
    </g>
    <g id="Group_5174" data-name="Group 5174" transform="translate(2835.004 373.327)">
      <path id="Path_4667" data-name="Path 4667" d="M3016.9,481.778h-9.706a2.3,2.3,0,0,1-2.3-2.3V461.274a2.3,2.3,0,0,1,2.3-2.3h9.706Z" transform="translate(-3004.897 -458.977)" fill="none" stroke="#fff" stroke-miterlimit="10" stroke-width="1.6"/>
    </g>
    <g id="Group_5175" data-name="Group 5175" transform="translate(2773.32 405.065)">
      <path id="Path_4668" data-name="Path 4668" d="M2853.163,580.513h-78.651a1.192,1.192,0,1,1,0-2.383h78.651a1.192,1.192,0,1,1,0,2.383Z" transform="translate(-2773.32 -578.13)" fill="#fff"/>
    </g>
    <g id="Group_5176" data-name="Group 5176" transform="translate(2806.641 387.925)">
      <path id="Path_4669" data-name="Path 4669" d="M2899.608,518.276a1.192,1.192,0,0,1-1.192-1.192v-2.11a1.192,1.192,0,1,1,2.383,0v2.11A1.191,1.191,0,0,1,2899.608,518.276Z" transform="translate(-2898.416 -513.783)" fill="#fff"/>
    </g>
    <g id="Group_5177" data-name="Group 5177" transform="translate(2818.65 387.925)">
      <path id="Path_4670" data-name="Path 4670" d="M2944.694,518.276a1.192,1.192,0,0,1-1.192-1.192v-2.11a1.192,1.192,0,0,1,2.384,0v2.11A1.192,1.192,0,0,1,2944.694,518.276Z" transform="translate(-2943.502 -513.783)" fill="#fff"/>
    </g>
  </g>
</svg>
