<svg xmlns="http://www.w3.org/2000/svg" width="76.43" height="68.524" viewBox="0 0 76.43 68.524">
  <g id="Group_5979" data-name="Group 5979" transform="translate(150.828 -1153.683)">
    <rect id="Rectangle_1213" data-name="Rectangle 1213" width="2.302" height="12.43" transform="translate(-110.027 1177.428)" fill="none" stroke="#fff" stroke-miterlimit="10" stroke-width="1.6"/>
    <path id="Path_4549" data-name="Path 4549" d="M-48.664,1199.74H-46.5v-2.162a15.306,15.306,0,0,0-6.205-12.319,15.616,15.616,0,0,0-1.489-.977,15.26,15.26,0,0,0-7.638-2.035H-64v2.161a15.345,15.345,0,0,0,.7,4.582,15.217,15.217,0,0,0,.572,1.533,15.366,15.366,0,0,0,3.335,4.84,15.1,15.1,0,0,0,1.631,1.388A15.256,15.256,0,0,0-48.664,1199.74Z" transform="translate(-63.525 -20.514)" fill="none" stroke="#fff" stroke-miterlimit="10" stroke-width="1.6"/>
    <path id="Path_4550" data-name="Path 4550" d="M-47.616,1199.74H-46.5v-1.113l-6.831-6.831.626-6.537a15.65,15.65,0,0,0-1.489-.977l-.581,6.07-8.1-8.105H-64v1.113l5.272,5.272-4.575.357a15.343,15.343,0,0,0,.572,1.533l5.468-.425,4.475,4.474-6.607.792a15.025,15.025,0,0,0,1.631,1.388l6.394-.762Z" transform="translate(-63.524 -20.514)" fill="#fff"/>
    <path id="Path_4551" data-name="Path 4551" d="M5.83,1177.428H2.994v-2.836a20.076,20.076,0,0,1,8.139-16.159,20.547,20.547,0,0,1,1.953-1.281,20.016,20.016,0,0,1,10.019-2.669h2.834v2.834a20.13,20.13,0,0,1-.913,6.009,20.061,20.061,0,0,1-.75,2.011,20.156,20.156,0,0,1-4.375,6.348,19.781,19.781,0,0,1-2.139,1.821A20.011,20.011,0,0,1,5.83,1177.428Z" transform="translate(-113.021)" fill="none" stroke="#fff" stroke-miterlimit="10" stroke-width="1.6"/>
    <path id="Path_4552" data-name="Path 4552" d="M-28.647,1294.846a3.889,3.889,0,0,1,2.485,2.4,3.806,3.806,0,0,1-.173.617,3.906,3.906,0,0,1-4.714,2.4l-14.6-4.09a3.641,3.641,0,0,0-.981-.136,3.622,3.622,0,0,0-3.543,2.893,3.6,3.6,0,0,0,.166,2.023.237.237,0,0,0-.008.033,3.62,3.62,0,0,0,2.546,4.207l16.742,4.811a6.841,6.841,0,0,0,4.508-.255l18.447-7.648A41.3,41.3,0,0,0-35.215,1289.8a33.444,33.444,0,0,0-7.875.42h0Z" transform="translate(-73.681 -99.942)" fill="none" stroke="#fff" stroke-miterlimit="10" stroke-width="1.6"/>
    <path id="Path_4553" data-name="Path 4553" d="M4.455,1177.428H2.995v-1.46l8.96-8.96-.821-8.575a20.522,20.522,0,0,1,1.953-1.281l.762,7.962,10.629-10.631H25.94v1.46l-6.915,6.915,6,.468a19.963,19.963,0,0,1-.75,2.011l-7.172-.558-5.869,5.869,8.666,1.038a19.806,19.806,0,0,1-2.139,1.821l-8.386-1Z" transform="translate(-113.022)" fill="#fff"/>
    <path id="Path_4554" data-name="Path 4554" d="M-75.216,1296.695a4.657,4.657,0,0,1-2.578,3.514l-24.04,11.66a11.173,11.173,0,0,1-7.769.739l-26.06-6.988a5.633,5.633,0,0,0-4,.418l-3.229,1.64a38.534,38.534,0,0,1-7.074-17.469l11.757-8.828a14.167,14.167,0,0,1,12.306-2.415c.171.049.342.1.512.155l23.067,7.386a3.889,3.889,0,0,1,2.485,2.4,3.8,3.8,0,0,1-.173.617,3.906,3.906,0,0,1-4.714,2.4l-14.6-4.09a3.641,3.641,0,0,0-.981-.136,3.622,3.622,0,0,0-3.543,2.893,3.6,3.6,0,0,0,.166,2.023.247.247,0,0,0-.008.033,3.62,3.62,0,0,0,2.546,4.207l16.742,4.811a6.84,6.84,0,0,0,4.508-.255l18.447-7.648a4.633,4.633,0,0,1,1.782-.356,4.661,4.661,0,0,1,4.186,2.608A4.751,4.751,0,0,1-75.216,1296.695Z" transform="translate(0 -91.603)" fill="none" stroke="#fff" stroke-miterlimit="10" stroke-width="1.6"/>
  </g>
</svg>
