<svg xmlns="http://www.w3.org/2000/svg" width="84.691" height="68.472" viewBox="0 0 84.691 68.472">
  <g id="Group_5958" data-name="Group 5958" transform="translate(-844.938 -124.726)">
    <path id="Path_4290" data-name="Path 4290" d="M926.648,125.476H847.919a2.231,2.231,0,0,0-2.232,2.231v53.141a2.231,2.231,0,0,0,2.232,2.232h54.726l1.4-2.936a3.192,3.192,0,0,1,.467.716,3.218,3.218,0,0,0,3.23,1.865,3.21,3.21,0,0,1,1.78.354h4.507a3.209,3.209,0,0,1,1.78-.354,3.22,3.22,0,0,0,3.23-1.865,3.194,3.194,0,0,1,.466-.716l1.4,2.936h5.741a2.232,2.232,0,0,0,2.231-2.232V127.707A2.231,2.231,0,0,0,926.648,125.476Z" transform="translate(0 0)" fill="none" stroke="#fff" stroke-miterlimit="10" stroke-width="1.5"/>
    <path id="Path_4291" data-name="Path 4291" d="M905.019,180.163a3.225,3.225,0,0,0-.581-2.169,3.218,3.218,0,0,1,0-3.73,3.223,3.223,0,0,0,.581-2.168,3.217,3.217,0,0,1,1.865-3.23,3.221,3.221,0,0,0,1.588-1.588,3.217,3.217,0,0,1,3.23-1.865,3.219,3.219,0,0,0,2.168-.582,3.223,3.223,0,0,1,3.731,0,3.219,3.219,0,0,0,2.168.582,3.219,3.219,0,0,1,3.23,1.865,3.219,3.219,0,0,0,1.587,1.588,3.22,3.22,0,0,1,1.865,3.23,3.2,3.2,0,0,0,.363,1.8V142.167a.293.293,0,0,0-.3-.293h0a6.006,6.006,0,0,1-6-5.732.291.291,0,0,0-.292-.275H861.962a.291.291,0,0,0-.292.275,6.006,6.006,0,0,1-5.726,5.725.291.291,0,0,0-.275.292v32.476a.291.291,0,0,0,.275.292,6.006,6.006,0,0,1,5.726,5.725.291.291,0,0,0,.292.275h43.086A3.167,3.167,0,0,1,905.019,180.163Z" transform="translate(-3.958 -4.121)" fill="none" stroke="#fff" stroke-miterlimit="10" stroke-width="1.5"/>
    <g id="Group_4994" data-name="Group 4994" transform="translate(861.626 139.066)">
      <path id="Path_4292" data-name="Path 4292" d="M922.158,159.285h-48.8a1.256,1.256,0,1,0,0,2.513h48.8a1.256,1.256,0,1,0,0-2.513Z" transform="translate(-872.099 -152.473)" fill="#fff"/>
      <path id="Path_4293" data-name="Path 4293" d="M922.158,148h-48.8a1.256,1.256,0,1,0,0,2.513h48.8a1.256,1.256,0,1,0,0-2.513Z" transform="translate(-872.099 -147.996)" fill="#fff"/>
      <path id="Path_4294" data-name="Path 4294" d="M922.158,170.667h-48.8a1.256,1.256,0,1,0,0,2.513h48.8a1.256,1.256,0,1,0,0-2.513Z" transform="translate(-872.099 -156.986)" fill="#fff"/>
      <path id="Path_4295" data-name="Path 4295" d="M916.672,185.38h-16.8a1.256,1.256,0,1,0,0,2.512h16.8a1.256,1.256,0,0,0,0-2.512Z" transform="translate(-882.613 -162.821)" fill="#fff"/>
    </g>
    <path id="Path_4296" data-name="Path 4296" d="M949.256,183.477h0a3.218,3.218,0,0,0,2.167.582h0a3.219,3.219,0,0,1,3.23,1.865h0a3.218,3.218,0,0,0,1.587,1.588h0a3.219,3.219,0,0,1,1.865,3.23h0a3.216,3.216,0,0,0,.581,2.168h0a3.222,3.222,0,0,1,0,3.73h0a3.218,3.218,0,0,0-.581,2.168h0a3.22,3.22,0,0,1-1.865,3.23h0a3.216,3.216,0,0,0-1.587,1.587h0a3.22,3.22,0,0,1-3.23,1.865h0a3.214,3.214,0,0,0-2.167.581h0a3.221,3.221,0,0,1-3.731,0h0a3.215,3.215,0,0,0-2.168-.581h0a3.218,3.218,0,0,1-3.23-1.865h0a3.22,3.22,0,0,0-1.588-1.587h0a3.218,3.218,0,0,1-1.865-3.23h0a3.225,3.225,0,0,0-.581-2.168h0a3.218,3.218,0,0,1,0-3.73h0a3.223,3.223,0,0,0,.581-2.168h0a3.218,3.218,0,0,1,1.865-3.23h0a3.222,3.222,0,0,0,1.588-1.588h0a3.217,3.217,0,0,1,3.23-1.865h0a3.219,3.219,0,0,0,2.168-.582h0A3.223,3.223,0,0,1,949.256,183.477Z" transform="translate(-35.615 -22.765)" fill="none" stroke="#fff" stroke-miterlimit="10" stroke-width="1.5"/>
    <path id="Path_4297" data-name="Path 4297" d="M950.75,191.734a6.549,6.549,0,1,1-6.55,6.55A6.55,6.55,0,0,1,950.75,191.734Z" transform="translate(-39.065 -26.275)" fill="none" stroke="#fff" stroke-miterlimit="10" stroke-width="1.5"/>
    <path id="Path_4298" data-name="Path 4298" d="M963.245,216.068a3.19,3.19,0,0,0-.467.716,3.22,3.22,0,0,1-3.23,1.865,3.215,3.215,0,0,0-2.167.581,3.208,3.208,0,0,1-1.394.559l4.032,8.448a.235.235,0,0,0,.414.022l2.3-3.769a.236.236,0,0,1,.239-.11l4.152.667a.236.236,0,0,0,.251-.334Z" transform="translate(-43.739 -35.925)" fill="none" stroke="#fff" stroke-miterlimit="10" stroke-width="1.5"/>
    <path id="Path_4299" data-name="Path 4299" d="M945.535,219.231a3.216,3.216,0,0,0-2.168-.581,3.218,3.218,0,0,1-3.23-1.865,3.2,3.2,0,0,0-.467-.716l-4.125,8.646a.236.236,0,0,0,.251.334l4.152-.667a.237.237,0,0,1,.24.11l2.295,3.769a.236.236,0,0,0,.414-.022l4.032-8.448A3.206,3.206,0,0,1,945.535,219.231Z" transform="translate(-35.624 -35.925)" fill="none" stroke="#fff" stroke-miterlimit="10" stroke-width="1.5"/>
  </g>
</svg>
