<svg xmlns="http://www.w3.org/2000/svg" width="74.789" height="74.776" viewBox="0 0 74.789 74.776">
  <g id="Group_5116" data-name="Group 5116" transform="translate(-1081.406 -4.912)">
    <g id="Group_5104" data-name="Group 5104" transform="translate(1124.892 15.469)">
      <path id="Path_4570" data-name="Path 4570" d="M1253.43,40.389a2.446,2.446,0,0,1,2.439,2.439,2.458,2.458,0,0,1-2.439,2.439h-17.075a2.447,2.447,0,0,1-2.439-2.439,2.457,2.457,0,0,1,2.439-2.439Z" transform="translate(-1233.916 -40.389)" fill="none" stroke="#fff" stroke-miterlimit="10" stroke-width="1.6"/>
    </g>
    <g id="Group_5105" data-name="Group 5105" transform="translate(1116.367 20.347)">
      <path id="Path_4571" data-name="Path 4571" d="M1242.62,72.362h-21.941v30.49a13.407,13.407,0,0,0-7.318-11.952V72.362h-9.745a4.847,4.847,0,0,1,2.159-3.89l8.805-5.866V57.727h17.075v4.878l8.805,5.866A4.848,4.848,0,0,1,1242.62,72.362Z" transform="translate(-1203.617 -57.727)" fill="none" stroke="#fff" stroke-miterlimit="10" stroke-width="1.6"/>
    </g>
    <g id="Group_5106" data-name="Group 5106" transform="translate(1130.368 65.472)">
      <path id="Path_4572" data-name="Path 4572" d="M1278.393,219.325v2.439a4.877,4.877,0,0,1-4.878,4.879h-20.135a13.355,13.355,0,0,0,3.061-8.537v1.22Z" transform="translate(-1253.379 -218.105)" fill="none" stroke="#fff" stroke-miterlimit="10" stroke-width="1.6"/>
    </g>
    <g id="Group_5107" data-name="Group 5107" transform="translate(1121.233 5.712)">
      <path id="Path_4573" data-name="Path 4573" d="M1245.3,5.712h2.439a2.446,2.446,0,0,1,2.439,2.439v4.878a2.447,2.447,0,0,1-2.439,2.439h-24.392a2.447,2.447,0,0,1-2.439-2.439V8.151a2.447,2.447,0,0,1,2.439-2.439H1245.3Z" transform="translate(-1220.912 -5.712)" fill="none" stroke="#fff" stroke-miterlimit="10" stroke-width="1.6"/>
    </g>
    <g id="Group_5108" data-name="Group 5108" transform="translate(1115.014 34.982)">
      <path id="Path_4574" data-name="Path 4574" d="M1209.905,109.741v18.538a13.315,13.315,0,0,0-6.1-1.463,13.138,13.138,0,0,0-5,.976v-.012a13.222,13.222,0,0,0,1.341-5.842V109.912a.815.815,0,0,1,.012-.171Z" transform="translate(-1198.807 -109.741)" fill="none" stroke="#fff" stroke-miterlimit="10" stroke-width="1.6"/>
    </g>
    <g id="Group_5109" data-name="Group 5109" transform="translate(1133.429 34.982)">
      <path id="Path_4575" data-name="Path 4575" d="M1286.211,109.912v31.539h-21.953v-31.71H1286.2a.815.815,0,0,1,.012.171Z" transform="translate(-1264.258 -109.741)" fill="none" stroke="#fff" stroke-miterlimit="10" stroke-width="1.6"/>
    </g>
    <g id="Group_5110" data-name="Group 5110" transform="translate(1089.523 47.178)">
      <path id="Path_4576" data-name="Path 4576" d="M1108.213,153.087h26.831a13.222,13.222,0,0,1-1.341,5.842v.012a13.329,13.329,0,0,0-7.184,6.866,13.42,13.42,0,0,0-17.013-6.952A13.418,13.418,0,0,1,1108.213,153.087Z" transform="translate(-1108.213 -153.087)" fill="none" stroke="#fff" stroke-miterlimit="10" stroke-width="1.6"/>
    </g>
    <g id="Group_5111" data-name="Group 5111" transform="translate(1089.523 33.763)">
      <path id="Path_4577" data-name="Path 4577" d="M1135.044,118.823h-26.831a13.416,13.416,0,0,1,26.831,0Z" transform="translate(-1108.213 -105.407)" fill="none" stroke="#fff" stroke-miterlimit="10" stroke-width="1.6"/>
    </g>
    <g id="Group_5112" data-name="Group 5112" transform="translate(1110.537 55.984)">
      <path id="Path_4578" data-name="Path 4578" d="M1205.79,193.872a13.4,13.4,0,0,1-22.892,9.477l18.965-18.965A13.372,13.372,0,0,1,1205.79,193.872Z" transform="translate(-1182.898 -184.384)" fill="none" stroke="#fff" stroke-miterlimit="10" stroke-width="1.6"/>
    </g>
    <g id="Group_5113" data-name="Group 5113" transform="translate(1082.206 52.057)">
      <path id="Path_4579" data-name="Path 4579" d="M1095.622,170.426a13.416,13.416,0,1,1-13.416,13.415A13.415,13.415,0,0,1,1095.622,170.426Z" transform="translate(-1082.206 -170.426)" fill="none" stroke="#fff" stroke-miterlimit="10" stroke-width="1.6"/>
    </g>
    <g id="Group_5114" data-name="Group 5114" transform="translate(1107.83 52.057)">
      <path id="Path_4580" data-name="Path 4580" d="M1194.948,174.353l-18.965,18.965a13.175,13.175,0,0,1-2.708-3.9,13.467,13.467,0,0,0,0-11.147,13.33,13.33,0,0,1,7.184-6.866,13.138,13.138,0,0,1,5-.976,13.411,13.411,0,0,1,9.489,3.927Z" transform="translate(-1173.275 -170.426)" fill="none" stroke="#fff" stroke-miterlimit="10" stroke-width="1.6"/>
    </g>
    <g id="Group_5115" data-name="Group 5115" transform="translate(1138.308 39.861)">
      <path id="Path_4581" data-name="Path 4581" d="M1293.793,130.739v4.878h-3.659v3.659h-4.878v-3.659H1281.6v-4.878h3.659V127.08h4.878v3.659Z" transform="translate(-1281.597 -127.08)" fill="none" stroke="#fff" stroke-miterlimit="10" stroke-width="1.6"/>
    </g>
  </g>
</svg>
