<svg xmlns="http://www.w3.org/2000/svg" width="55.975" height="76.04" viewBox="0 0 55.975 76.04">
  <g id="Group_6201" data-name="Group 6201" transform="translate(-1363.142 543.937)">
    <path id="Path_6743" data-name="Path 6743" d="M1391.129-543.087a27.168,27.168,0,0,0-27.137,27.138c0,20.522,24.357,45.444,25.393,46.48a2.46,2.46,0,0,0,1.744.723,2.46,2.46,0,0,0,1.744-.723c1.036-1.036,25.393-25.958,25.393-46.48A27.168,27.168,0,0,0,1391.129-543.087Z" transform="translate(0 0)" fill="none" stroke="#eb2027" stroke-miterlimit="10" stroke-width="1.7"/>
    <path id="Path_6745" data-name="Path 6745" d="M1466.327-419.333l-12.335,8.169v13.82a2.334,2.334,0,0,0,2.467,2.229H1476.2a2.334,2.334,0,0,0,2.467-2.229v-13.875Z" transform="translate(-75.198 -103.4)" fill="none" stroke="#eb2027" stroke-miterlimit="10" stroke-width="1.7"/>
    <path id="Path_6746" data-name="Path 6746" d="M1457.428-442.81l-14.8-9.868a2.459,2.459,0,0,0-1.368-.416,2.459,2.459,0,0,0-1.368.416l-14.8,9.868a2.465,2.465,0,0,0-.684,3.421,2.474,2.474,0,0,0,3.421.684l13.434-8.955,13.434,8.955a2.468,2.468,0,0,0,3.421-.684,2.465,2.465,0,0,0-.684-3.421Z" transform="translate(-50.128 -75.192)" fill="none" stroke="#eb2027" stroke-miterlimit="10" stroke-width="1.7"/>
    <rect id="Rectangle_3158" data-name="Rectangle 3158" width="5.48" height="4.75" transform="translate(1384.785 -515.716)" fill="none" stroke="#eb2027" stroke-miterlimit="10" stroke-width="1.7"/>
    <rect id="Rectangle_3159" data-name="Rectangle 3159" width="5.48" height="4.75" transform="translate(1392.204 -515.716)" fill="none" stroke="#eb2027" stroke-miterlimit="10" stroke-width="1.7"/>
    <rect id="Rectangle_3160" data-name="Rectangle 3160" width="5.48" height="4.75" transform="translate(1384.785 -509.457)" fill="none" stroke="#eb2027" stroke-miterlimit="10" stroke-width="1.7"/>
    <rect id="Rectangle_3161" data-name="Rectangle 3161" width="5.48" height="4.75" transform="translate(1392.204 -509.457)" fill="none" stroke="#eb2027" stroke-miterlimit="10" stroke-width="1.7"/>
  </g>
</svg>
