<svg xmlns="http://www.w3.org/2000/svg" width="83.573" height="74.284" viewBox="0 0 83.573 74.284">
  <g id="Group_6278" data-name="Group 6278" transform="translate(604.926 -197.956)">
    <path id="Path_6986" data-name="Path 6986" d="M-573.222,244.816A3.812,3.812,0,0,1-569.41,241h15.779a17.434,17.434,0,0,0,1.709-7.55,17.506,17.506,0,0,0-17.506-17.506,17.507,17.507,0,0,0-17.506,17.506,17.51,17.51,0,0,0,13.712,17.09Z" transform="translate(-11.178 -11.178)" fill="none" stroke="#fff" stroke-miterlimit="10" stroke-width="1.7"/>
    <path id="Path_6987" data-name="Path 6987" d="M-415.194,291.865h-18.13v-3.9H-418.2a3.007,3.007,0,0,1,3.007,3.007Z" transform="translate(-111.347 -58.143)" fill="none" stroke="#fff" stroke-miterlimit="10" stroke-width="1.7"/>
    <path id="Path_6988" data-name="Path 6988" d="M-557.721,360.954a2.9,2.9,0,0,0-2.9,2.9,2.9,2.9,0,0,0,2.9,2.9h7.813a6.627,6.627,0,0,1,5.484-2.9,6.627,6.627,0,0,1,5.483,2.9h22.607v-5.8Z" transform="translate(-28.337 -105.736)" fill="none" stroke="#fff" stroke-miterlimit="10" stroke-width="1.7"/>
    <path id="Path_6989" data-name="Path 6989" d="M-411.192,308.325l-4.378-4.968-3.69-4.188h-14.064v27.3h4.1a6.628,6.628,0,0,1,5.484-2.9,6.629,6.629,0,0,1,5.484,2.9h6.049a1.348,1.348,0,0,0,1.349-1.348v-15.9A1.349,1.349,0,0,0-411.192,308.325Z" transform="translate(-111.347 -65.446)" fill="none" stroke="#fff" stroke-miterlimit="10" stroke-width="1.7"/>
    <path id="Path_6990" data-name="Path 6990" d="M-469.975,381.966H-481.1a1.312,1.312,0,0,1-1.312-1.313v-3.025h13.749v3.025a1.313,1.313,0,0,1-1.313,1.313Z" transform="translate(-79.337 -116.609)" fill="none" stroke="#fff" stroke-miterlimit="10" stroke-width="1.7"/>
    <path id="Path_6991" data-name="Path 6991" d="M-401.16,317.066V322.4h-16.018a1.277,1.277,0,0,1-1.277-1.277v-8.637a1.278,1.278,0,0,1,1.277-1.277h11.3l4.378,4.968A1.348,1.348,0,0,1-401.16,317.066Z" transform="translate(-121.042 -73.296)" fill="none" stroke="#fff" stroke-miterlimit="10" stroke-width="1.7"/>
    <path id="Path_6992" data-name="Path 6992" d="M-538.93,229.219a1.235,1.235,0,0,0,1.235-1.235v-.606a1.235,1.235,0,0,0-1.235-1.235,1.235,1.235,0,0,0-1.236,1.235v.606A1.235,1.235,0,0,0-538.93,229.219Z" transform="translate(-41.675 -17.826)" fill="#fff"/>
    <path id="Path_6993" data-name="Path 6993" d="M-513.426,239.392l.429-.429a1.236,1.236,0,0,0,0-1.747,1.236,1.236,0,0,0-1.748,0l-.428.428a1.236,1.236,0,0,0,0,1.748A1.235,1.235,0,0,0-513.426,239.392Z" transform="translate(-57.737 -24.811)" fill="#fff"/>
    <path id="Path_6994" data-name="Path 6994" d="M-504.1,265.187h.606a1.235,1.235,0,0,0,1.235-1.235,1.235,1.235,0,0,0-1.235-1.235h-.606a1.235,1.235,0,0,0-1.236,1.235A1.235,1.235,0,0,0-504.1,265.187Z" transform="translate(-64.39 -41.676)" fill="#fff"/>
    <path id="Path_6995" data-name="Path 6995" d="M-574.9,262.717h-.606a1.235,1.235,0,0,0-1.235,1.235,1.235,1.235,0,0,0,1.235,1.235h.606a1.235,1.235,0,0,0,1.236-1.235A1.235,1.235,0,0,0-574.9,262.717Z" transform="translate(-17.825 -41.676)" fill="#fff"/>
    <path id="Path_6996" data-name="Path 6996" d="M-565.238,287.709l-.428.428a1.236,1.236,0,0,0,0,1.748,1.236,1.236,0,0,0,1.748,0l.428-.429a1.236,1.236,0,0,0,0-1.747A1.236,1.236,0,0,0-565.238,287.709Z" transform="translate(-24.811 -57.737)" fill="#fff"/>
    <path id="Path_6997" data-name="Path 6997" d="M-563.919,237.217a1.236,1.236,0,0,0-1.748,0,1.235,1.235,0,0,0,0,1.747l.429.429a1.235,1.235,0,0,0,1.747,0,1.236,1.236,0,0,0,0-1.748Z" transform="translate(-24.811 -24.811)" fill="#fff"/>
    <path id="Path_6998" data-name="Path 6998" d="M-538.93,252.1h3.605a1.235,1.235,0,0,0,1.236-1.235,1.235,1.235,0,0,0-1.236-1.235h-2.37v-5.746a1.236,1.236,0,0,0-1.235-1.236,1.236,1.236,0,0,0-1.236,1.236v6.981A1.235,1.235,0,0,0-538.93,252.1Z" transform="translate(-41.675 -28.589)" fill="#fff"/>
    <path id="Path_6999" data-name="Path 6999" d="M-584.4,233.638a3.812,3.812,0,0,1,3.812-3.812h22.2a23.43,23.43,0,0,0,1.248-7.55,23.47,23.47,0,0,0-23.47-23.47,23.47,23.47,0,0,0-23.47,23.47,23.473,23.473,0,0,0,19.676,23.16Z" fill="none" stroke="#fff" stroke-miterlimit="10" stroke-width="1.7"/>
    <path id="Path_7000" data-name="Path 7000" d="M-507.791,313.361H-547.52v-21.58a3.812,3.812,0,0,1,3.812-3.812h35.917Z" transform="translate(-36.88 -58.143)" fill="none" stroke="#fff" stroke-miterlimit="10" stroke-width="1.7"/>
    <path id="Path_7001" data-name="Path 7001" d="M-418.206,369.292a6.635,6.635,0,0,1,6.636,6.636,6.636,6.636,0,0,1-6.636,6.636,6.636,6.636,0,0,1-6.636-6.636A6.636,6.636,0,0,1-418.206,369.292Z" transform="translate(-116.878 -111.173)" fill="none" stroke="#fff" stroke-miterlimit="10" stroke-width="1.7"/>
    <path id="Path_7002" data-name="Path 7002" d="M-526.5,369.292a6.636,6.636,0,0,1,6.636,6.636,6.636,6.636,0,0,1-6.636,6.636,6.636,6.636,0,0,1-6.636-6.636A6.636,6.636,0,0,1-526.5,369.292Z" transform="translate(-46.257 -111.173)" fill="none" stroke="#fff" stroke-miterlimit="10" stroke-width="1.7"/>
  </g>
</svg>
