<svg xmlns="http://www.w3.org/2000/svg" width="73.273" height="73.345" viewBox="0 0 73.273 73.345">
  <g id="Group_6277" data-name="Group 6277" transform="translate(218.837 -599.478)">
    <path id="Path_6980" data-name="Path 6980" d="M-203.2,715.154a6.553,6.553,0,0,0,1.92-4.639V701.57l-15.5,15.5h8.944A6.555,6.555,0,0,0-203.2,715.154Z" transform="translate(0 -53.53)" fill="none" stroke="#fff" stroke-miterlimit="10" stroke-width="1.7"/>
    <path id="Path_6981" data-name="Path 6981" d="M-194.126,681.938v10.733a6.553,6.553,0,0,0,1.92,4.639,6.553,6.553,0,0,0,4.639,1.92h8.944v7.156h-38.162V699.23h8.944a6.555,6.555,0,0,0,4.639-1.92,6.553,6.553,0,0,0,1.92-4.639V681.938a6.554,6.554,0,0,0-1.92-4.639,6.553,6.553,0,0,0-4.639-1.92h-8.944v-7.155h38.162v7.155h-8.944a6.555,6.555,0,0,0-4.639,1.92A6.554,6.554,0,0,0-194.126,681.938Z" transform="translate(0 -35.687)" fill="none" stroke="#fff" stroke-miterlimit="10" stroke-width="1.7"/>
    <path id="Path_6982" data-name="Path 6982" d="M-147.616,601.53h-38.162l-31.007,31.006h38.162Z" transform="translate(0)" fill="none" stroke="#fff" stroke-miterlimit="10" stroke-width="1.7"/>
    <path id="Path_6983" data-name="Path 6983" d="M-134.7,632.537v7.155l31.007-31.007V601.53Z" transform="translate(-43.923)" fill="none" stroke="#fff" stroke-miterlimit="10" stroke-width="1.7"/>
    <path id="Path_6984" data-name="Path 6984" d="M-128.692,665.264l7.155-7.155h-9.541a6.555,6.555,0,0,1-4.639-1.92,6.556,6.556,0,0,1-1.92-4.639l-14.907,14.907h-8.944a6.556,6.556,0,0,0-4.639,1.92,6.554,6.554,0,0,0-1.92,4.639v10.733a6.553,6.553,0,0,0,1.92,4.639,6.553,6.553,0,0,0,4.639,1.92h8.944Z" transform="translate(-26.079 -26.765)" fill="none" stroke="#fff" stroke-miterlimit="10" stroke-width="1.7"/>
    <path id="Path_6985" data-name="Path 6985" d="M-110.849,672.813-134.7,697.857v7.155l23.851-25.044,7.155-7.155v-7.155Z" transform="translate(-43.923 -34.314)" fill="none" stroke="#fff" stroke-miterlimit="10" stroke-width="1.7"/>
  </g>
</svg>
