<svg xmlns="http://www.w3.org/2000/svg" width="78.563" height="78.286" viewBox="0 0 78.563 78.286">
  <g id="Group_6272" data-name="Group 6272" transform="translate(-267.241 -1489.065)">
    <path id="Path_6908" data-name="Path 6908" d="M423.5,1889.149H380.05a7.667,7.667,0,1,1,0-15.334H423.5a7.667,7.667,0,1,1,0,15.334Z" transform="translate(-87.388 -322.663)" fill="none" stroke="#fff" stroke-miterlimit="10" stroke-width="1.5"/>
    <path id="Path_6933" data-name="Path 6933" d="M443.664,1905.482H400.217a3.834,3.834,0,1,1,0-7.667h43.447a3.834,3.834,0,1,1,0,7.667Z" transform="translate(-107.554 -342.829)" fill="none" stroke="#fff" stroke-miterlimit="10" stroke-width="1.5"/>
    <g id="Group_6261" data-name="Group 6261" transform="translate(297.993 1557.011)">
      <path id="Path_6939" data-name="Path 6939" d="M446.19,1909.423a1.807,1.807,0,1,1,1.807-1.807A1.809,1.809,0,0,1,446.19,1909.423Zm0-1.808v0Z" transform="translate(-444.383 -1905.808)" fill="#fff"/>
    </g>
    <g id="Group_6262" data-name="Group 6262" transform="translate(307.993 1557.011)">
      <path id="Path_6940" data-name="Path 6940" d="M510.19,1909.423a1.807,1.807,0,1,1,1.807-1.807A1.809,1.809,0,0,1,510.19,1909.423Zm0-1.808v0Z" transform="translate(-508.383 -1905.808)" fill="#fff"/>
    </g>
    <g id="Group_6263" data-name="Group 6263" transform="translate(316.993 1557.011)">
      <path id="Path_6941" data-name="Path 6941" d="M574.19,1909.423a1.807,1.807,0,1,1,1.807-1.807A1.809,1.809,0,0,1,574.19,1909.423Zm0-1.808v0Z" transform="translate(-572.383 -1905.808)" fill="#fff"/>
    </g>
    <g id="Group_6264" data-name="Group 6264" transform="translate(326.993 1557.011)">
      <path id="Path_6942" data-name="Path 6942" d="M638.19,1909.423a1.807,1.807,0,1,1,1.807-1.807A1.809,1.809,0,0,1,638.19,1909.423Zm0-1.808v0Z" transform="translate(-636.383 -1905.808)" fill="#fff"/>
    </g>
    <path id="Path_6943" data-name="Path 6943" d="M468.383,1841.815H496.5v5.112H468.383Z" transform="translate(-168.054 -295.774)" fill="none" stroke="#fff" stroke-miterlimit="10" stroke-width="1.5"/>
    <path id="Path_6944" data-name="Path 6944" d="M652.383,1689.482v-2.556a5.112,5.112,0,0,1,5.111-5.111h2.556v3.833h-2.556a1.278,1.278,0,0,0-1.278,1.278v2.556" transform="translate(-322.663 -161.331)" fill="none" stroke="#fff" stroke-miterlimit="10" stroke-width="1.5"/>
    <path id="Path_6945" data-name="Path 6945" d="M636.383,1734.927v-5.112h10.223v5.112" transform="translate(-309.219 -201.664)" fill="none" stroke="#fff" stroke-miterlimit="10" stroke-width="1.5"/>
    <path id="Path_6946" data-name="Path 6946" d="M624.829,1774.594H604.383v-12.779H621a6.39,6.39,0,0,1,6.389,6.389v3.834A2.555,2.555,0,0,1,624.829,1774.594Z" transform="translate(-282.33 -228.553)" fill="none" stroke="#fff" stroke-miterlimit="10" stroke-width="1.5"/>
    <path id="Path_6947" data-name="Path 6947" d="M443.052,1814.927H414.939a2.556,2.556,0,0,1,0-5.112h28.113Z" transform="translate(-120.999 -268.886)" fill="none" stroke="#fff" stroke-miterlimit="10" stroke-width="1.5"/>
    <path id="Path_6948" data-name="Path 6948" d="M456.5,1661.928H428.383v-15.334a12.778,12.778,0,0,1,12.779-12.779H453.94a2.555,2.555,0,0,1,2.556,2.556Z" transform="translate(-134.443 -120.999)" fill="none" stroke="#fff" stroke-miterlimit="10" stroke-width="1.5"/>
    <path id="Path_6950" data-name="Path 6950" d="M282.439,1778.76v6.389l3.834-5.111v-6.389l-5.111-3.833h-7.667l-5.111,3.833v6.389l3.834,5.111v-6.389l2.556-2.556h5.111Z" transform="translate(0 -235.275)" fill="none" stroke="#fff" stroke-miterlimit="10" stroke-width="1.5"/>
    <path id="Path_6951" data-name="Path 6951" d="M447.67,1548.318l2.836-2.836-1.278-5.111-5.111-2.556-1.278,2.556h-3.834l-1.022,2.045,6.673,3.336A8.266,8.266,0,0,1,447.67,1548.318Z" transform="translate(-142.509 -40.333)" fill="none" stroke="#fff" stroke-miterlimit="10" stroke-width="1.5"/>
    <path id="Path_6952" data-name="Path 6952" d="M350.842,1536.726a12.739,12.739,0,0,1,9.036-3.743,8.271,8.271,0,0,0-4.572-7.4l-23.541-11.77-.118.036,2.673,8.909,16.612,14.056Z" transform="translate(-53.159 -20.166)" fill="none" stroke="#fff" stroke-miterlimit="10" stroke-width="1.5"/>
    <path id="Path_6953" data-name="Path 6953" d="M437.328,1673.149h11.5a2.555,2.555,0,0,0,2.556-2.556v-10.223a2.555,2.555,0,0,0-2.556-2.556H432.043a12.731,12.731,0,0,0-3.66,8.945v15.334h5.111v-5.111A3.833,3.833,0,0,1,437.328,1673.149Z" transform="translate(-134.443 -141.165)" fill="none" stroke="#fff" stroke-miterlimit="10" stroke-width="1.5"/>
    <path id="Path_6954" data-name="Path 6954" d="M286.768,1528.151l1.278-25.557-3.087-10.292a3.489,3.489,0,0,0-6.652-.1,33.691,33.691,0,0,0-.814,18.461l4.165,17.489" transform="translate(-6.884)" fill="none" stroke="#fff" stroke-miterlimit="10" stroke-width="1.5"/>
    <path id="Path_6961" data-name="Path 6961" d="M273.494,1905.815l-5.111,3.834,3.834,3.833v2.556l8.945-1.278-2.556-3.833,2.556-3.834Z" transform="translate(0 -349.552)" fill="none" stroke="#fff" stroke-miterlimit="10" stroke-width="1.5"/>
    <path id="Path_6962" data-name="Path 6962" d="M308.05,1729.482h-7.667v-3.834a3.834,3.834,0,1,1,7.667,0Z" transform="translate(-26.889 -194.942)" fill="none" stroke="#fff" stroke-miterlimit="10" stroke-width="1.5"/>
    <path id="Path_6963" data-name="Path 6963" d="M428.383,1666.76v15.334h5.111v-5.111a3.833,3.833,0,0,1,3.834-3.834h8.879a17.035,17.035,0,0,0-2.158-15.334H432.043a12.731,12.731,0,0,0-3.66,8.945Z" transform="translate(-134.443 -141.165)" fill="none" stroke="#fff" stroke-miterlimit="10" stroke-width="1.5"/>
  </g>
</svg>
