<svg xmlns="http://www.w3.org/2000/svg" width="76.276" height="67.687" viewBox="0 0 76.276 67.687">
  <g id="Group_6028" data-name="Group 6028" transform="translate(133.418 83.998)">
    <path id="Path_6402" data-name="Path 6402" d="M-56.065-24.8-50.1-7.779H-85.9l2.258-6.444,3.689-10.56c.909,1.721,1.914,3.236,3.677,3.236,4.13,0,4.13-8.261,8.26-8.261s4.13,8.261,8.274,8.261C-57.98-21.547-56.96-23.061-56.065-24.8Z" transform="translate(-8.167 -9.333)" fill="none" stroke="#fff" stroke-miterlimit="10" stroke-width="1.6"/>
    <path id="Path_6403" data-name="Path 6403" d="M-117.928-30.727c.813,1.4,1.776,2.506,3.277,2.506,4.131,0,4.131-8.26,8.261-8.26s4.131,8.26,8.274,8.26c1.515,0,2.465-1.115,3.277-2.518l4.489,15.35-2.258,6.444h-31.667Z" transform="translate(-1.458 -8.166)" fill="none" stroke="#fff" stroke-miterlimit="10" stroke-width="1.6"/>
    <path id="Path_6404" data-name="Path 6404" d="M-73.787-58.4l5.081,17.417a12.008,12.008,0,0,0-2-.165A11.631,11.631,0,0,0-77.436-39a11.623,11.623,0,0,0-4.254,5.644l-.964,2.74-3.689,10.56-4.489-15.35-.963-3.319A11.013,11.013,0,0,0-101.35-46.6l1.624-5.563,1.818-6.222c.923,1.816,1.941,3.469,3.786,3.469,4.131,0,4.131-8.261,8.261-8.261s4.13,8.261,8.274,8.261C-75.742-54.916-74.723-56.569-73.787-58.4Z" transform="translate(-5.466 -3.5)" fill="none" stroke="#fff" stroke-miterlimit="10" stroke-width="1.6"/>
    <g id="Group_6027" data-name="Group 6027" transform="translate(-132.618 -83.198)">
      <path id="Path_6405" data-name="Path 6405" d="M-55.755-28.69l.95,2.727c-.895,1.735-1.914,3.249-3.676,3.249-4.144,0-4.144-8.261-8.274-8.261s-4.13,8.261-8.26,8.261c-1.763,0-2.768-1.514-3.677-3.236l.964-2.74a11.623,11.623,0,0,1,4.254-5.644,11.631,11.631,0,0,1,6.734-2.147,12.008,12.008,0,0,1,2,.165v.013A11.619,11.619,0,0,1-55.755-28.69Z" transform="translate(123.192 75.032)" fill="none" stroke="#fff" stroke-miterlimit="10" stroke-width="1.6"/>
      <path id="Path_6406" data-name="Path 6406" d="M-113.307-29.387c-1.5,0-2.464-1.1-3.277-2.506l.978-3.331a11.1,11.1,0,0,1,3.965-5.727,11.014,11.014,0,0,1,6.609-2.2,8.293,8.293,0,0,1,1.019.054,11.013,11.013,0,0,1,9.555,7.876l.963,3.319c-.812,1.4-1.762,2.518-3.277,2.518-4.143,0-4.143-8.26-8.274-8.26S-109.176-29.387-113.307-29.387Z" transform="translate(129.815 76.198)" fill="none" stroke="#fff" stroke-miterlimit="10" stroke-width="1.6"/>
      <path id="Path_6407" data-name="Path 6407" d="M-74.544-65.258l1.486,5.108c-.937,1.831-1.955,3.484-3.8,3.484-4.144,0-4.144-8.261-8.274-8.261s-4.13,8.261-8.261,8.261c-1.845,0-2.863-1.653-3.786-3.469l1.486-5.123a11.1,11.1,0,0,1,3.966-5.727A10.779,10.779,0,0,1-89.194-72.4a10.889,10.889,0,0,1,4.075-.786A11.021,11.021,0,0,1-74.544-65.258Z" transform="translate(126.423 81.448)" fill="none" stroke="#fff" stroke-miterlimit="10" stroke-width="1.6"/>
      <path id="Path_6408" data-name="Path 6408" d="M-125.389-69.417a11.4,11.4,0,0,1-.344-2.767A11.011,11.011,0,0,1-114.719-83.2a11.018,11.018,0,0,1,10.463,7.571,8.249,8.249,0,0,1,3.3-.687,8.155,8.155,0,0,1,5.563,2.162,10.779,10.779,0,0,0-2.533,1.418,11.1,11.1,0,0,0-3.966,5.727l-1.486,5.123-1.818,6.222h-20.542a6.887,6.887,0,0,1-6.885-6.884,6.887,6.887,0,0,1,6.885-6.884A3,3,0,0,1-125.389-69.417Z" transform="translate(132.618 83.198)" fill="none" stroke="#fff" stroke-miterlimit="10" stroke-width="1.6"/>
    </g>
  </g>
</svg>
