<svg xmlns="http://www.w3.org/2000/svg" width="67.474" height="75.063" viewBox="0 0 67.474 75.063">
  <g id="Group_6358" data-name="Group 6358" transform="translate(-1177.22 -849.506)">
    <g id="Group_6355" data-name="Group 6355" transform="translate(1178.07 908.54)">
      <path id="Path_7156" data-name="Path 7156" d="M-593.139,641.151h3.795l1.18-12.649h-6.156Z" transform="translate(597.018 -625.972)" fill="none" stroke="#fff" stroke-miterlimit="10" stroke-width="1.7"/>
      <rect id="Rectangle_3191" data-name="Rectangle 3191" width="11.384" height="2.53" transform="translate(0 0)" fill="none" stroke="#fff" stroke-miterlimit="10" stroke-width="1.7"/>
    </g>
    <g id="Group_6356" data-name="Group 6356" transform="translate(1180.601 879.448)">
      <path id="Path_7157" data-name="Path 7157" d="M-595.655,371.912h-.028v1.237C-595.683,372.734-595.672,372.322-595.655,371.912Z" transform="translate(595.683 -371.912)" fill="none" stroke="#fff" stroke-miterlimit="10" stroke-width="1.7"/>
      <path id="Path_7158" data-name="Path 7158" d="M-595.683,382.412v27.8h6.325V400.93A30.223,30.223,0,0,1-595.683,382.412Z" transform="translate(595.683 -381.118)" fill="none" stroke="#fff" stroke-miterlimit="10" stroke-width="1.7"/>
    </g>
    <g id="Group_6357" data-name="Group 6357" transform="translate(1232.461 913.6)">
      <rect id="Rectangle_3192" data-name="Rectangle 3192" width="11.384" height="5.059" transform="translate(0 5.059)" fill="none" stroke="#fff" stroke-miterlimit="10" stroke-width="1.7"/>
      <rect id="Rectangle_3193" data-name="Rectangle 3193" width="6.325" height="5.059" transform="translate(2.529 0)" fill="none" stroke="#fff" stroke-miterlimit="10" stroke-width="1.7"/>
    </g>
    <path id="Path_7159" data-name="Path 7159" d="M-485.69,231.277a14.574,14.574,0,0,0-14.575,14.575,14.574,14.574,0,0,0,14.575,14.575,14.574,14.574,0,0,0,14.575-14.575A14.592,14.592,0,0,0-485.69,231.277Z" transform="translate(1696.647 634.861)" fill="none" stroke="#fff" stroke-miterlimit="10" stroke-width="1.7"/>
    <path id="Path_7160" data-name="Path 7160" d="M-528.815,179.96a22.768,22.768,0,0,0-22.768,22.768A22.768,22.768,0,0,0-528.815,225.5a22.768,22.768,0,0,0,22.768-22.768A22.8,22.8,0,0,0-528.815,179.96Z" transform="translate(1739.772 677.985)" fill="none" stroke="#fff" stroke-miterlimit="10" stroke-width="1.7"/>
    <path id="Path_7161" data-name="Path 7161" d="M-154.36,400.794v19.4h6.325V382.257A30.224,30.224,0,0,1-154.36,400.794Z" transform="translate(1389.35 498.465)" fill="none" stroke="#fff" stroke-miterlimit="10" stroke-width="1.7"/>
    <path id="Path_7162" data-name="Path 7162" d="M-565.329,135.857a30.357,30.357,0,0,0-30.357,30.357,30.357,30.357,0,0,0,30.357,30.357,30.357,30.357,0,0,0,30.357-30.357A30.357,30.357,0,0,0-565.329,135.857Z" transform="translate(1776.286 714.499)" fill="none" stroke="#fff" stroke-miterlimit="10" stroke-width="1.7"/>
    <g id="Ellipse_234" data-name="Ellipse 234" transform="translate(1206 875)" fill="none" stroke="#fff" stroke-width="1.7">
      <circle cx="5.5" cy="5.5" r="5.5" stroke="none"/>
      <circle cx="5.5" cy="5.5" r="4.65" fill="none"/>
    </g>
  </g>
</svg>
