<svg xmlns="http://www.w3.org/2000/svg" width="78.071" height="77.913" viewBox="0 0 78.071 77.913">
  <g id="Group_5972" data-name="Group 5972" transform="translate(-1173.852 -354.627)">
    <g id="Group_5141" data-name="Group 5141" transform="translate(1193.82 356.639)">
      <path id="Path_4601" data-name="Path 4601" d="M1304.005,384.605l-2.542,1.271a8.53,8.53,0,0,0-3.813,11.441h-.369a8.535,8.535,0,0,0-8.339,6.725,10.144,10.144,0,0,0-2.733-.369,9.963,9.963,0,0,0-5.275,1.488l-.064-.1a8.838,8.838,0,0,0-7.373-3.928h2.542a16.524,16.524,0,1,0-13.017-6.344,8.726,8.726,0,0,0-5.632,2.276,10.344,10.344,0,0,0-2.072-3.063,8.5,8.5,0,0,0-4.7-8.123l-2.542-1.271,2.542-1.271a8.531,8.531,0,0,0,3.813-11.441h.369a8.523,8.523,0,0,0,8.53-8.53v-.369a8.521,8.521,0,0,0,11.441-3.814l1.271-2.542,1.271,2.542a8.53,8.53,0,0,0,11.441,3.814v.369a8.523,8.523,0,0,0,8.53,8.53h.368a8.521,8.521,0,0,0,3.814,11.441Z" transform="translate(-1248.073 -356.639)" fill="none" stroke="#fff" stroke-miterlimit="10" stroke-width="1.8"/>
    </g>
    <g id="Group_5142" data-name="Group 5142" transform="translate(1205.26 368.08)">
      <path id="Path_4602" data-name="Path 4602" d="M1306.049,433.683a8.319,8.319,0,0,0-1.6.153,8.915,8.915,0,0,0-8.568-6.509,2.438,2.438,0,0,0-.3.013,16.526,16.526,0,1,1,13.017,6.344Z" transform="translate(-1292.066 -400.632)" fill="none" stroke="#fff" stroke-miterlimit="10" stroke-width="1.8"/>
    </g>
    <g id="Group_5143" data-name="Group 5143" transform="translate(1174.752 390.961)">
      <path id="Path_4603" data-name="Path 4603" d="M1226.68,502.816a10.058,10.058,0,0,0-4.043,4.614,8.81,8.81,0,0,0-5.936-2.288,8.915,8.915,0,0,0-8.568,6.508,8.348,8.348,0,0,0-1.6-.153,8.861,8.861,0,0,0-8.034,5.085H1183.65a8.9,8.9,0,0,1,0-17.8,10.167,10.167,0,0,1,17.415-7.132,10.344,10.344,0,0,1,2.072,3.064,8.726,8.726,0,0,1,5.632-2.276,2.445,2.445,0,0,1,.305-.013,8.915,8.915,0,0,1,8.568,6.509,8.33,8.33,0,0,1,1.6-.153,8.838,8.838,0,0,1,7.373,3.928Z" transform="translate(-1174.752 -488.617)" fill="none" stroke="#fff" stroke-miterlimit="10" stroke-width="1.8"/>
    </g>
    <g id="Group_5144" data-name="Group 5144" transform="translate(1197.633 403.673)">
      <path id="Path_4604" data-name="Path 4604" d="M1307.229,547.668a8.9,8.9,0,0,1,0,17.8h-35.593a8.892,8.892,0,0,1-8.9-8.9,8.7,8.7,0,0,1,.864-3.813,8.861,8.861,0,0,1,8.034-5.085,8.346,8.346,0,0,1,1.6.153,8.915,8.915,0,0,1,8.568-6.509,8.81,8.81,0,0,1,5.937,2.288,10.19,10.19,0,0,1,12.051-5.733A10.174,10.174,0,0,1,1307.229,547.668Z" transform="translate(-1262.737 -537.498)" fill="none" stroke="#fff" stroke-miterlimit="10" stroke-width="1.8"/>
    </g>
  </g>
</svg>
