<svg xmlns="http://www.w3.org/2000/svg" width="79.942" height="72.177" viewBox="0 0 79.942 72.177">
  <g id="Group_6138" data-name="Group 6138" transform="translate(574.833 829.5)">
    <path id="Path_6546" data-name="Path 6546" d="M-289.326-573H-301a1.3,1.3,0,0,0-1.294,1.294v10.353A1.3,1.3,0,0,0-301-560.059h14.235a1.3,1.3,0,0,0,1.294-1.294v-10.353A1.3,1.3,0,0,0-286.763-573Z" transform="translate(-228.033 -214.588)" fill="none" stroke="#fff" stroke-miterlimit="10" stroke-width="1"/>
    <rect id="Rectangle_2986" data-name="Rectangle 2986" width="2.612" height="9.06" transform="translate(-573.042 -770.764)" fill="none" stroke="#fff" stroke-miterlimit="10" stroke-width="1"/>
    <rect id="Rectangle_2987" data-name="Rectangle 2987" width="5.177" height="6.342" transform="translate(-555.571 -797.941)" fill="none" stroke="#fff" stroke-miterlimit="10" stroke-width="1"/>
    <path id="Path_6547" data-name="Path 6547" d="M-570.324-410.4h-2.588a1.293,1.293,0,0,1-1.294-1.294,1.293,1.293,0,0,1,1.294-1.294h2.588a1.293,1.293,0,0,1,1.294,1.294A1.294,1.294,0,0,1-570.324-410.4Z" transform="translate(-0.106 -348.713)" fill="none" stroke="#fff" stroke-miterlimit="10" stroke-width="1"/>
    <path id="Path_6548" data-name="Path 6548" d="M-217.173-813.008a5.183,5.183,0,0,0-5.177,5.177v33.649h2.588v-33.649a2.592,2.592,0,0,1,2.588-2.588h0v-2.588Z" transform="translate(-295.044 -13.405)" fill="none" stroke="#fff" stroke-miterlimit="10" stroke-width="1"/>
    <path id="Path_6549" data-name="Path 6549" d="M-449.056-663.817a1.186,1.186,0,0,1-1.294-1.035v-3.105a1.186,1.186,0,0,1,1.294-1.035,1.186,1.186,0,0,1,1.294,1.035v3.105A1.186,1.186,0,0,1-449.056-663.817Z" transform="translate(-103.927 -134.124)" fill="none" stroke="#fff" stroke-miterlimit="10" stroke-width="1"/>
    <path id="Path_6550" data-name="Path 6550" d="M-547.156-581.591a1.3,1.3,0,0,1-1.294,1.294h-24.588a1.3,1.3,0,0,1-1.294-1.294V-595.85a1.3,1.3,0,0,1,1.294-1.294h24.588a1.3,1.3,0,0,1,1.294,1.294Z" transform="translate(0 -194.35)" fill="none" stroke="#fff" stroke-miterlimit="10" stroke-width="1"/>
    <path id="Path_6551" data-name="Path 6551" d="M-443.745-445a2.587,2.587,0,0,1,2.588,2.588,2.578,2.578,0,0,1-2.588,2.588,2.587,2.587,0,0,1-2.588-2.588A2.6,2.6,0,0,1-443.745-445Z" transform="translate(-107.294 -321.882)" fill="none" stroke="#fff" stroke-miterlimit="10" stroke-width="1"/>
    <path id="Path_6552" data-name="Path 6552" d="M-323.745-445a2.6,2.6,0,0,1,2.588,2.588,2.588,2.588,0,0,1-2.588,2.588,2.587,2.587,0,0,1-2.588-2.588A2.6,2.6,0,0,1-323.745-445Z" transform="translate(-207.882 -321.882)" fill="none" stroke="#fff" stroke-miterlimit="10" stroke-width="1"/>
    <path id="Path_6553" data-name="Path 6553" d="M-239.862-493h-6.471a1.3,1.3,0,0,1,1.294,1.294v2.588h5.176a1.3,1.3,0,0,0,1.294-1.294v-1.294A1.3,1.3,0,0,0-239.862-493Z" transform="translate(-274.941 -281.647)" fill="none" stroke="#fff" stroke-miterlimit="10" stroke-width="1"/>
    <path id="Path_6554" data-name="Path 6554" d="M-155.853-805.08a1.24,1.24,0,0,1,1.167,1.294v6.484a1.24,1.24,0,0,1-1.167,1.294h-9.313a1.238,1.238,0,0,1-1.167-1.294v-6.484a1.238,1.238,0,0,1,1.167-1.294Z" transform="translate(-341.999 -20.051)" fill="none" stroke="#fff" stroke-miterlimit="10" stroke-width="1"/>
    <path id="Path_6555" data-name="Path 6555" d="M-215.039-429a1.3,1.3,0,0,1,1.294,1.294v2.588a1.3,1.3,0,0,1-1.294,1.294h-22a1.3,1.3,0,0,1-1.294-1.294v-2.588A1.3,1.3,0,0,1-237.039-429h22Z" transform="translate(-281.647 -335.294)" fill="none" stroke="#fff" stroke-miterlimit="10" stroke-width="1"/>
    <path id="Path_6556" data-name="Path 6556" d="M-526.82-562.4h-14.235a1.293,1.293,0,0,1-1.294-1.294,1.293,1.293,0,0,1,1.294-1.294h14.235a1.293,1.293,0,0,1,1.294,1.294A1.293,1.293,0,0,1-526.82-562.4Z" transform="translate(-26.809 -221.301)" fill="#fff"/>
    <path id="Path_6557" data-name="Path 6557" d="M-526.82-538.412h-14.235a1.293,1.293,0,0,1-1.294-1.294A1.293,1.293,0,0,1-541.056-541h14.235a1.293,1.293,0,0,1,1.294,1.294A1.293,1.293,0,0,1-526.82-538.412Z" transform="translate(-26.809 -241.411)" fill="#fff"/>
    <g id="Group_6134" data-name="Group 6134" transform="translate(-504.45 -816.059)">
      <path id="Path_6558" data-name="Path 6558" d="M-138.453-555.356a1.3,1.3,0,0,1-.409-.067l-3.471-1.158v1.228a1.278,1.278,0,0,1,.41.067l3.472,1.158v-1.228Z" transform="translate(142.333 587.708)" fill="none" stroke="#fff" stroke-miterlimit="10" stroke-width="1"/>
      <path id="Path_6559" data-name="Path 6559" d="M-141.923-531.261l3.472,1.158v-1.228h0a1.3,1.3,0,0,1-.409-.067l-3.471-1.158v1.229A1.289,1.289,0,0,1-141.923-531.261Z" transform="translate(142.333 567.569)" fill="none" stroke="#fff" stroke-miterlimit="10" stroke-width="1"/>
      <path id="Path_6560" data-name="Path 6560" d="M-138.862-579.446l-3.471-1.158v1.229a1.292,1.292,0,0,1,.41.066l3.472,1.158v-1.228h0A1.3,1.3,0,0,1-138.862-579.446Z" transform="translate(142.333 607.845)" fill="none" stroke="#fff" stroke-miterlimit="10" stroke-width="1"/>
      <path id="Path_6561" data-name="Path 6561" d="M-141.923-507.237l3.472,1.158v-1.228h0a1.3,1.3,0,0,1-.409-.067l-3.471-1.158v1.229A1.287,1.287,0,0,1-141.923-507.237Z" transform="translate(142.333 547.432)" fill="none" stroke="#fff" stroke-miterlimit="10" stroke-width="1"/>
      <path id="Path_6562" data-name="Path 6562" d="M-138.453-483.283a1.291,1.291,0,0,1-.409-.067l-3.471-1.158v1.227l1.941,2.588,1.941-2.588v0Z" transform="translate(142.333 527.294)" fill="none" stroke="#fff" stroke-miterlimit="10" stroke-width="1"/>
      <path id="Path_6563" data-name="Path 6563" d="M-138.862-603.478l-3.471-1.158v1.23a1.288,1.288,0,0,1,.41.066l3.472,1.158v-1.23h0A1.3,1.3,0,0,1-138.862-603.478Z" transform="translate(142.333 627.989)" fill="none" stroke="#fff" stroke-miterlimit="10" stroke-width="1"/>
      <path id="Path_6564" data-name="Path 6564" d="M-141.923-728.24l3.472,1.158V-749h-3.882v20.7A1.3,1.3,0,0,1-141.923-728.24Z" transform="translate(142.333 749)" fill="none" stroke="#fff" stroke-miterlimit="10" stroke-width="1"/>
    </g>
    <g id="Group_6135" data-name="Group 6135" transform="translate(-505.743 -795.364)">
      <path id="Path_6565" data-name="Path 6565" d="M-145.154-497.057a1.29,1.29,0,0,1-.409-.067l-3.88-1.294a1.293,1.293,0,0,1-.817-1.637,1.293,1.293,0,0,1,1.636-.818l3.88,1.294a1.3,1.3,0,0,1,.819,1.637,1.3,1.3,0,0,1-1.23.885Z" transform="translate(150.327 520.373)" fill="none" stroke="#fff" stroke-miterlimit="10" stroke-width="1"/>
      <path id="Path_6566" data-name="Path 6566" d="M-145.154-521.084a1.3,1.3,0,0,1-.409-.067l-3.88-1.294a1.293,1.293,0,0,1-.817-1.637,1.292,1.292,0,0,1,1.636-.818l3.88,1.294a1.3,1.3,0,0,1,.819,1.637,1.3,1.3,0,0,1-1.23.885Z" transform="translate(150.327 540.514)" fill="none" stroke="#fff" stroke-miterlimit="10" stroke-width="1"/>
      <path id="Path_6567" data-name="Path 6567" d="M-145.154-545.11a1.3,1.3,0,0,1-.409-.067l-3.88-1.294a1.293,1.293,0,0,1-.817-1.637,1.291,1.291,0,0,1,1.636-.818l3.88,1.294a1.3,1.3,0,0,1,.819,1.637,1.3,1.3,0,0,1-1.23.885Z" transform="translate(150.327 560.654)" fill="none" stroke="#fff" stroke-miterlimit="10" stroke-width="1"/>
      <path id="Path_6568" data-name="Path 6568" d="M-145.154-569.13a1.3,1.3,0,0,1-.409-.067l-3.88-1.294a1.293,1.293,0,0,1-.817-1.637,1.293,1.293,0,0,1,1.636-.818l3.88,1.294a1.3,1.3,0,0,1,.819,1.637,1.3,1.3,0,0,1-1.23.885Z" transform="translate(150.327 580.787)" fill="none" stroke="#fff" stroke-miterlimit="10" stroke-width="1"/>
      <path id="Path_6569" data-name="Path 6569" d="M-145.154-593.156a1.3,1.3,0,0,1-.409-.067l-3.88-1.294a1.293,1.293,0,0,1-.817-1.637,1.292,1.292,0,0,1,1.636-.818l3.88,1.294a1.3,1.3,0,0,1,.819,1.637,1.3,1.3,0,0,1-1.23.885Z" transform="translate(150.327 600.927)" fill="none" stroke="#fff" stroke-miterlimit="10" stroke-width="1"/>
      <path id="Path_6570" data-name="Path 6570" d="M-145.154-617.184a1.3,1.3,0,0,1-.409-.067l-3.88-1.294a1.293,1.293,0,0,1-.817-1.637,1.3,1.3,0,0,1,1.636-.819l3.88,1.294a1.3,1.3,0,0,1,.819,1.638,1.3,1.3,0,0,1-1.23.885Z" transform="translate(150.327 621.067)" fill="none" stroke="#fff" stroke-miterlimit="10" stroke-width="1"/>
    </g>
    <path id="Path_6571" data-name="Path 6571" d="M-186.451-829v64.706h-3.882V-829Z" transform="translate(-321.882)" fill="none" stroke="#fff" stroke-miterlimit="10" stroke-width="1"/>
    <g id="Group_6136" data-name="Group 6136" transform="translate(-557.509 -770.764)">
      <path id="Path_6572" data-name="Path 6572" d="M-461.274-462.529a2.587,2.587,0,0,0-2.588-2.588,2.6,2.6,0,0,0-2.588,2.588,2.587,2.587,0,0,0,2.588,2.588A2.579,2.579,0,0,0-461.274-462.529ZM-463.862-469a6.473,6.473,0,0,1,6.471,6.471,6.465,6.465,0,0,1-6.471,6.471,6.465,6.465,0,0,1-6.471-6.471A6.473,6.473,0,0,1-463.862-469Z" transform="translate(470.333 469)" fill="none" stroke="#fff" stroke-miterlimit="10" stroke-width="1"/>
      <path id="Path_6573" data-name="Path 6573" d="M-350.333-462.529A6.481,6.481,0,0,1-343.862-469a6.481,6.481,0,0,1,6.471,6.471,6.473,6.473,0,0,1-6.471,6.471A6.473,6.473,0,0,1-350.333-462.529Zm6.471-2.588a2.6,2.6,0,0,0-2.588,2.588,2.587,2.587,0,0,0,2.588,2.588,2.588,2.588,0,0,0,2.588-2.588A2.6,2.6,0,0,0-343.862-465.118Z" transform="translate(369.745 469)" fill="none" stroke="#fff" stroke-miterlimit="10" stroke-width="1"/>
    </g>
    <path id="Path_6574" data-name="Path 6574" d="M-561.392-491.706A1.3,1.3,0,0,1-560.1-493h-12.941a1.3,1.3,0,0,0-1.294,1.294v1.294c0,.712.291,1.294.647,1.294h12.294Z" transform="translate(0 -281.647)" fill="none" stroke="#fff" stroke-miterlimit="10" stroke-width="1"/>
    <g id="Group_6137" data-name="Group 6137" transform="translate(-561.392 -774.647)">
      <path id="Path_6575" data-name="Path 6575" d="M-323.745-445a2.6,2.6,0,0,0-2.588,2.588h5.177A2.6,2.6,0,0,0-323.745-445Z" transform="translate(353.51 452.765)" fill="none" stroke="#fff" stroke-miterlimit="10" stroke-width="1"/>
      <path id="Path_6576" data-name="Path 6576" d="M-443.745-445a2.6,2.6,0,0,0-2.588,2.588h5.177A2.587,2.587,0,0,0-443.745-445Z" transform="translate(454.098 452.765)" fill="none" stroke="#fff" stroke-miterlimit="10" stroke-width="1"/>
      <path id="Path_6577" data-name="Path 6577" d="M-454.215-493h-38.824a1.3,1.3,0,0,0-1.294,1.294v7.765a1.3,1.3,0,0,0,1.294,1.294h2.588a6.473,6.473,0,0,1,6.471-6.471,6.473,6.473,0,0,1,6.471,6.471h6.471a6.481,6.481,0,0,1,6.471-6.471,6.481,6.481,0,0,1,6.471,6.471h3.882a1.3,1.3,0,0,0,1.294-1.294v-7.765A1.3,1.3,0,0,0-454.215-493Z" transform="translate(494.333 493)" fill="none" stroke="#fff" stroke-miterlimit="10" stroke-width="1"/>
    </g>
    <path id="Path_6578" data-name="Path 6578" d="M-329.366-573h-11.673a1.3,1.3,0,0,0-1.294,1.294v10.353a1.3,1.3,0,0,0,1.294,1.294H-326.8a1.3,1.3,0,0,0,1.294-1.294v-10.353A1.3,1.3,0,0,0-326.8-573Z" transform="translate(-194.47 -214.588)" fill="none" stroke="#fff" stroke-miterlimit="10" stroke-width="1"/>
    <path id="Path_6579" data-name="Path 6579" d="M-335.794-613.15h-6.476a6.474,6.474,0,0,1,5.179,2.589h1.3a3.9,3.9,0,0,1,3.893,3.893s0,.009,0,.013h2.587s0-.009,0-.013A6.488,6.488,0,0,0-335.794-613.15Z" transform="translate(-194.523 -180.932)" fill="none" stroke="#fff" stroke-miterlimit="10" stroke-width="1"/>
    <path id="Path_6580" data-name="Path 6580" d="M-379.745-593.715v-12.954a3.9,3.9,0,0,1,3.893-3.894,3.9,3.9,0,0,1,3.893,3.894s0,.009,0,.013h2.587s0-.009,0-.013a6.488,6.488,0,0,0-6.481-6.482,6.488,6.488,0,0,0-6.481,6.482v12.954Z" transform="translate(-160.941 -180.932)" fill="none" stroke="#fff" stroke-miterlimit="10" stroke-width="1"/>
  </g>
</svg>
