<svg xmlns="http://www.w3.org/2000/svg" width="74.941" height="81.776" viewBox="0 0 74.941 81.776">
  <g id="Group_4908" data-name="Group 4908" transform="translate(-204.735 -688.793)">
    <path id="Path_4159" data-name="Path 4159" d="M300.668,796.16l5.835,16.656H271.465l2.21-6.307,3.611-10.336c.89,1.684,1.873,3.166,3.6,3.166,4.043,0,4.043-8.086,8.086-8.086s4.043,8.086,8.1,8.086C298.795,799.34,299.792,797.857,300.668,796.16Z" transform="translate(-28.096 -43.147)" fill="#fff" stroke="#eb2127" stroke-miterlimit="10" stroke-width="1.8"/>
    <path id="Path_4160" data-name="Path 4160" d="M223.6,787.483c.8,1.375,1.739,2.453,3.208,2.453,4.043,0,4.043-8.086,8.086-8.086s4.043,8.086,8.1,8.086c1.483,0,2.413-1.092,3.208-2.467L250.6,802.5l-2.21,6.307h-31Z" transform="translate(-5.017 -39.134)" fill="#fff" stroke="#eb2127" stroke-miterlimit="10" stroke-width="1.8"/>
    <path id="Path_4161" data-name="Path 4161" d="M276.674,748.909l4.973,17.048a11.637,11.637,0,0,0-1.954-.162,11.408,11.408,0,0,0-10.754,7.626L268,776.1l-3.611,10.336-4.394-15.026-.943-3.248a10.779,10.779,0,0,0-9.352-7.708l1.589-5.445,1.779-6.091c.9,1.779,1.9,3.4,3.706,3.4,4.043,0,4.043-8.086,8.086-8.086s4.043,8.086,8.1,8.086C274.76,752.319,275.758,750.7,276.674,748.909Z" transform="translate(-18.805 -23.079)" fill="#fff" stroke="#eb2127" stroke-miterlimit="10" stroke-width="1.8"/>
    <g id="Group_4907" data-name="Group 4907" transform="translate(205.635 704.983)">
      <path id="Path_4162" data-name="Path 4162" d="M304.073,789.478l.93,2.669c-.876,1.7-1.873,3.18-3.6,3.18-4.056,0-4.056-8.086-8.1-8.086s-4.043,8.086-8.086,8.086c-1.725,0-2.709-1.482-3.6-3.166l.944-2.683a11.407,11.407,0,0,1,10.754-7.626,11.648,11.648,0,0,1,1.954.162v.013A11.373,11.373,0,0,1,304.073,789.478Z" transform="translate(-238.065 -744.117)" fill="#fff" stroke="#eb2127" stroke-miterlimit="10" stroke-width="1.8"/>
      <path id="Path_4163" data-name="Path 4163" d="M231.436,785.923c-1.469,0-2.413-1.079-3.208-2.453l.957-3.262a10.784,10.784,0,0,1,10.35-7.762,8.08,8.08,0,0,1,1,.054,10.779,10.779,0,0,1,9.352,7.708l.943,3.248c-.8,1.375-1.725,2.466-3.208,2.466-4.056,0-4.056-8.086-8.1-8.086S235.479,785.923,231.436,785.923Z" transform="translate(-215.278 -740.103)" fill="#fff" stroke="#eb2127" stroke-miterlimit="10" stroke-width="1.8"/>
      <path id="Path_4164" data-name="Path 4164" d="M277.728,737.889l1.455,5c-.916,1.792-1.914,3.41-3.72,3.41-4.056,0-4.056-8.086-8.1-8.086s-4.043,8.086-8.086,8.086c-1.806,0-2.8-1.618-3.706-3.4l1.455-5.014a10.865,10.865,0,0,1,3.882-5.605,10.833,10.833,0,0,1,6.469-2.156A10.787,10.787,0,0,1,277.728,737.889Z" transform="translate(-226.948 -722.041)" fill="#fff" stroke="#eb2127" stroke-miterlimit="10" stroke-width="1.8"/>
      <path id="Path_4165" data-name="Path 4165" d="M212.71,729.51a11.213,11.213,0,0,1-.336-2.708,10.782,10.782,0,0,1,21.023-3.369,8.071,8.071,0,0,1,3.234-.674,7.982,7.982,0,0,1,5.445,2.116,10.6,10.6,0,0,0-2.48,1.388,10.865,10.865,0,0,0-3.882,5.605l-1.455,5.014-1.779,6.091H212.374a6.738,6.738,0,1,1,0-13.476A2.872,2.872,0,0,1,212.71,729.51Z" transform="translate(-205.635 -716.021)" fill="#fff" stroke="#eb2127" stroke-miterlimit="10" stroke-width="1.8"/>
    </g>
    <path id="Path_4166" data-name="Path 4166" d="M295.034,698.245l-18.867,6.738V690.158Z" transform="translate(-30.103)" fill="#fff" stroke="#eb2127" stroke-miterlimit="10" stroke-width="1.8"/>
    <line id="Line_306" data-name="Line 306" y1="8.671" transform="translate(246.064 704.398)" fill="#fff" stroke="#eb2127" stroke-miterlimit="10" stroke-width="1.8"/>
  </g>
</svg>
