<svg xmlns="http://www.w3.org/2000/svg" width="71.297" height="72.5" viewBox="0 0 71.297 72.5">
  <g id="Group_5961" data-name="Group 5961" transform="translate(524.75 -802.25)">
    <path id="Path_4451" data-name="Path 4451" d="M-471.525,808.83h2.407v7.221h-2.407Z" transform="translate(-30.814 -3.423)" fill="none" stroke="#fff" stroke-miterlimit="10" stroke-width="1.5"/>
    <path id="Path_4452" data-name="Path 4452" d="M-467.915,873.339a3.61,3.61,0,0,1-3.61-3.61h0v-8.424h2.407v8.424a1.2,1.2,0,0,0,1.2,1.2,1.2,1.2,0,0,0,1.2-1.2v-2.407h2.407v2.407a3.61,3.61,0,0,1-3.61,3.61Z" transform="translate(-30.814 -34.237)" fill="none" stroke="#fff" stroke-miterlimit="10" stroke-width="1.5"/>
    <path id="Path_4453" data-name="Path 4453" d="M-360.746,899.2h2.407v6.017h-2.407Z" transform="translate(-95.864 -56.491)" fill="none" stroke="#fff" stroke-miterlimit="10" stroke-width="1.5"/>
    <path id="Path_4454" data-name="Path 4454" d="M-524,861.305h4.814v28.882H-524Z" transform="translate(0 -34.237)" fill="none" stroke="#fff" stroke-miterlimit="10" stroke-width="1.5"/>
    <path id="Path_4455" data-name="Path 4455" d="M-518.169,942.932h3.61v13.237h-3.61Z" transform="translate(-3.424 -82.169)" fill="none" stroke="#fff" stroke-miterlimit="10" stroke-width="1.5"/>
    <path id="Path_4456" data-name="Path 4456" d="M-372.407,942.932h3.61v13.237h-3.61Z" transform="translate(-89.017 -82.169)" fill="none" stroke="#fff" stroke-miterlimit="10" stroke-width="1.5"/>
    <path id="Path_4457" data-name="Path 4457" d="M-524,931.272h69.8v4.813H-524Z" transform="translate(0 -75.322)" fill="none" stroke="#fff" stroke-miterlimit="10" stroke-width="1.5"/>
    <path id="Path_4458" data-name="Path 4458" d="M-366.9,919.1V921h-8.424v-7.221h8.424Z" transform="translate(-87.305 -65.05)" fill="none" stroke="#fff" stroke-miterlimit="10" stroke-width="1.5"/>
    <path id="Path_4459" data-name="Path 4459" d="M-462.78,913.779h36.1V921h-36.1Z" transform="translate(-35.949 -65.05)" fill="none" stroke="#fff" stroke-miterlimit="10" stroke-width="1.5"/>
    <path id="Path_4460" data-name="Path 4460" d="M-512.339,913.779h20.458V921h-20.458Z" transform="translate(-6.847 -65.05)" fill="none" stroke="#fff" stroke-miterlimit="10" stroke-width="1.5"/>
    <path id="Path_4461" data-name="Path 4461" d="M-496.695,899.9a3.61,3.61,0,0,1-3.61,3.61h-12.034v-7.22H-500.3A3.61,3.61,0,0,1-496.695,899.9Z" transform="translate(-6.847 -54.78)" fill="none" stroke="#fff" stroke-miterlimit="10" stroke-width="1.5"/>
    <path id="Path_4462" data-name="Path 4462" d="M-492.39,803h-22.865v2.407h7.22v36.1h2.407v-36.1h13.237Z" transform="translate(-5.136)" fill="none" stroke="#fff" stroke-miterlimit="10" stroke-width="1.5"/>
    <path id="Path_4463" data-name="Path 4463" d="M-477.356,833.627v-7.3h7.221v7.136a7.317,7.317,0,0,0-1.613-.156c-2,0-2,.482-4.007.482A6.562,6.562,0,0,1-477.356,833.627Z" transform="translate(-27.39 -13.695)" fill="none" stroke="#fff" stroke-miterlimit="10" stroke-width="1.5"/>
    <path id="Path_4464" data-name="Path 4464" d="M-470.135,843.364v4.694a2.874,2.874,0,0,1-3.057,2.632H-474.3a2.873,2.873,0,0,1-3.057-2.632v-4.549a7.579,7.579,0,0,0,1.6.135c2.01,0,2.01-.414,4.007-.414A8.393,8.393,0,0,1-470.135,843.364Z" transform="translate(-27.39 -23.622)" fill="none" stroke="#fff" stroke-miterlimit="10" stroke-width="1.5"/>
  </g>
</svg>
