<svg xmlns="http://www.w3.org/2000/svg" width="76.896" height="76.901" viewBox="0 0 76.896 76.901">
  <g id="Group_6018" data-name="Group 6018" transform="translate(-1587.513 -809.464)">
    <path id="Path_6356" data-name="Path 6356" d="M1660.91,818.225h-69.9a2.749,2.749,0,0,1-2.749-2.749v-2.513a2.749,2.749,0,0,1,2.749-2.749h69.9a2.749,2.749,0,0,1,2.749,2.749v2.513A2.749,2.749,0,0,1,1660.91,818.225Z" fill="none" stroke="#fff" stroke-miterlimit="10" stroke-width="1.5"/>
    <path id="Path_6357" data-name="Path 6357" d="M1620.153,866.969l-11.57,11.57-4.572-6.546a6.892,6.892,0,0,1,9.6-9.6Z" transform="translate(-10.446 -36.684)" fill="none" stroke="#fff" stroke-miterlimit="10" stroke-width="1.5"/>
    <path id="Path_6358" data-name="Path 6358" d="M1635.727,881.617l-12.5,12.5a2.033,2.033,0,0,1-2.875-2.874l12.5-12.5a2.033,2.033,0,0,1,2.875,2.875Z" transform="translate(-22.683 -48.92)" fill="none" stroke="#fff" stroke-miterlimit="10" stroke-width="1.5"/>
    <path id="Path_6359" data-name="Path 6359" d="M1614.918,845.083h-.933c-1.037,0-1.878-.418-1.878-.934v-5.312h4.689v5.312C1616.8,844.665,1615.956,845.083,1614.918,845.083Z" transform="translate(-17.171 -20.612)" fill="none" stroke="#fff" stroke-miterlimit="10" stroke-width="1.5"/>
    <path id="Path_6360" data-name="Path 6360" d="M1647.527,897.068l-8.845,8.845,28.512,37.3a12.581,12.581,0,1,0,17.635-17.636Z" transform="translate(-36.308 -62.546)" fill="none" stroke="#fff" stroke-miterlimit="10" stroke-width="1.5"/>
    <path id="Path_6361" data-name="Path 6361" d="M1666.94,897.068l8.845,8.845-28.512,37.3a12.581,12.581,0,1,1-17.635-17.636Z" transform="translate(-26.237 -62.546)" fill="none" stroke="#fff" stroke-miterlimit="10" stroke-width="1.5"/>
    <path id="Path_6362" data-name="Path 6362" d="M1781.038,866.969l11.57,11.57,4.572-6.546a6.892,6.892,0,0,0-9.6-9.6Z" transform="translate(-138.823 -36.684)" fill="none" stroke="#fff" stroke-miterlimit="10" stroke-width="1.5"/>
    <path id="Path_6363" data-name="Path 6363" d="M1767.58,881.617l12.5,12.5a2.033,2.033,0,0,0,2.875-2.874l-12.5-12.5a2.033,2.033,0,0,0-2.875,2.875Z" transform="translate(-128.702 -48.92)" fill="none" stroke="#fff" stroke-miterlimit="10" stroke-width="1.5"/>
    <path id="Path_6364" data-name="Path 6364" d="M1818.938,845.083h.933c1.038,0,1.878-.418,1.878-.934v-5.312h-4.689v5.312C1817.06,844.665,1817.9,845.083,1818.938,845.083Z" transform="translate(-164.763 -20.612)" fill="none" stroke="#fff" stroke-miterlimit="10" stroke-width="1.5"/>
    <path id="Path_6365" data-name="Path 6365" d="M1827.583,975.715a1.1,1.1,0,0,1-.781-1.885l3.562-3.562a1.1,1.1,0,0,1,1.562,1.562l-3.562,3.562A1.1,1.1,0,0,1,1827.583,975.715Z" transform="translate(-171.546 -115.026)" fill="#fff"/>
    <path id="Path_6366" data-name="Path 6366" d="M1831.146,975.715a1.1,1.1,0,0,1-.781-.324l-3.562-3.562a1.1,1.1,0,0,1,1.562-1.562l3.562,3.562a1.1,1.1,0,0,1-.781,1.885Z" transform="translate(-171.546 -115.026)" fill="#fff"/>
    <path id="Path_6367" data-name="Path 6367" d="M1604.963,969.516h-5.038a1.1,1.1,0,1,1,0-2.208h5.038a1.1,1.1,0,1,1,0,2.208Z" transform="translate(-7.602 -113.128)" fill="#fff"/>
    <path id="Path_6368" data-name="Path 6368" d="M1608.928,965.554a1.1,1.1,0,0,1-1.1-1.1v-5.038a1.1,1.1,0,0,1,2.209,0v5.038A1.1,1.1,0,0,1,1608.928,965.554Z" transform="translate(-14.086 -106.646)" fill="#fff"/>
    <path id="Path_6369" data-name="Path 6369" d="M1725.623,886.175h-5.038a1.1,1.1,0,1,1,0-2.209h5.038a1.1,1.1,0,1,1,0,2.209Z" transform="translate(-94.494 -53.111)" fill="#fff"/>
    <path id="Path_6370" data-name="Path 6370" d="M1729.584,882.212a1.1,1.1,0,0,1-1.1-1.1V876.07a1.1,1.1,0,0,1,2.208,0v5.038A1.1,1.1,0,0,1,1729.584,882.212Z" transform="translate(-100.974 -46.63)" fill="#fff"/>
    <path id="Path_6371" data-name="Path 6371" d="M1687.66,965.766l13.72-17.95-13.72-10.487-13.719,10.487Z" transform="translate(-61.699 -91.54)" fill="none" stroke="#fff" stroke-miterlimit="10" stroke-width="1.8"/>
  </g>
</svg>
