<svg xmlns="http://www.w3.org/2000/svg" width="70.445" height="82.911" viewBox="0 0 70.445 82.911">
  <g id="Group_6014" data-name="Group 6014" transform="translate(-1647.888 -469.142)">
    <path id="Path_6334" data-name="Path 6334" d="M1827.442,725.444l13.571,14.178h-11.622c-6.743-9.3-4.527-6.248-10.273-14.178Z" transform="translate(-124.788 -188.469)" fill="none" stroke="#fff" stroke-miterlimit="10" stroke-width="1.8"/>
    <path id="Path_6335" data-name="Path 6335" d="M1722.491,481.462V530.38a6.6,6.6,0,0,1-6.594,6.594h-46.161a6.594,6.594,0,0,1-6.594-6.594V481.449a9.893,9.893,0,0,1,7.951-9.7,88.034,88.034,0,0,1,17.236-1.706h8.709a89.834,89.834,0,0,1,17.485,1.718,9.888,9.888,0,0,1,7.968,9.7Z" transform="translate(-9.688)" fill="none" stroke="#fff" stroke-miterlimit="10" stroke-width="1.8"/>
    <path id="Path_6336" data-name="Path 6336" d="M1831.648,656.246a4.946,4.946,0,1,1-4.946,4.946A4.946,4.946,0,0,1,1831.648,656.246Z" transform="translate(-130.384 -137.406)" fill="none" stroke="#fff" stroke-miterlimit="10" stroke-width="1.8"/>
    <path id="Path_6337" data-name="Path 6337" d="M1688.3,520.367v27.367h46.161V520.367Z" transform="translate(-28.256 -37.136)" fill="none" stroke="#fff" stroke-miterlimit="10" stroke-width="1.8"/>
    <path id="Path_6338" data-name="Path 6338" d="M1672.073,725.444,1661.8,739.622h-11.787l13.736-14.178Z" transform="translate(0 -188.469)" fill="none" stroke="#fff" stroke-miterlimit="10" stroke-width="1.8"/>
    <path id="Path_6339" data-name="Path 6339" d="M1693.253,656.246a4.946,4.946,0,1,1-4.946,4.946A4.946,4.946,0,0,1,1693.253,656.246Z" transform="translate(-28.258 -137.406)" fill="none" stroke="#fff" stroke-miterlimit="10" stroke-width="1.8"/>
    <path id="Path_6340" data-name="Path 6340" d="M1822.056,492.211a1.649,1.649,0,1,0-1.648-1.649A1.649,1.649,0,0,0,1822.056,492.211Z" transform="translate(-125.74 -13.926)" fill="none" stroke="#fff" stroke-miterlimit="10" stroke-width="1.8"/>
    <path id="Path_6341" data-name="Path 6341" d="M1721.406,492.211a1.649,1.649,0,1,0-1.649-1.649A1.649,1.649,0,0,0,1721.406,492.211Z" transform="translate(-51.466 -13.926)" fill="none" stroke="#fff" stroke-miterlimit="10" stroke-width="1.8"/>
    <path id="Path_6342" data-name="Path 6342" d="M1746.568,492.211h13.189a1.649,1.649,0,1,0,0-3.3h-13.189a1.649,1.649,0,0,0,0,3.3Z" transform="translate(-70.035 -13.926)" fill="none" stroke="#fff" stroke-miterlimit="10" stroke-width="1.8"/>
    <path id="Path_6343" data-name="Path 6343" d="M1759.757,656.246h-13.189a1.649,1.649,0,0,0,0,3.3h13.189a1.649,1.649,0,0,0,0-3.3Z" transform="translate(-70.035 -137.406)" fill="none" stroke="#fff" stroke-miterlimit="10" stroke-width="1.8"/>
    <path id="Path_6344" data-name="Path 6344" d="M1759.757,681.409h-13.189a1.649,1.649,0,0,0,0,3.3h13.189a1.649,1.649,0,1,0,0-3.3Z" transform="translate(-70.035 -155.974)" fill="none" stroke="#fff" stroke-miterlimit="10" stroke-width="1.8"/>
    <line id="Line_448" data-name="Line 448" x2="30.013" transform="translate(1668.156 542.275)" fill="none" stroke="#fff" stroke-miterlimit="10" stroke-width="1.8"/>
  </g>
</svg>
