<svg xmlns="http://www.w3.org/2000/svg" width="77.703" height="83.864" viewBox="0 0 77.703 83.864">
  <g id="Group_6171" data-name="Group 6171" transform="translate(-3689.149 -145.05)">
    <path id="Path_6632" data-name="Path 6632" d="M3983.014,334.121h-4.228v-35.1h2.22a2.367,2.367,0,0,1,2.008,2.606Z" transform="translate(-221.46 -117.345)" fill="none" stroke="#fff" stroke-miterlimit="10" stroke-width="1.7"/>
    <path id="Path_6633" data-name="Path 6633" d="M3707.08,334.2h4.607V299.02h-2.051a2.636,2.636,0,0,0-2.556,2.71Z" transform="translate(-13.099 -117.345)" fill="none" stroke="#fff" stroke-miterlimit="10" stroke-width="1.7"/>
    <path id="Path_6634" data-name="Path 6634" d="M3756.209,171.511a.188.188,0,0,0-.233,0l-29.344,23.074v41.7h58.922v-41.7Z" transform="translate(-28.092 -19.532)" fill="none" stroke="#fff" stroke-miterlimit="10" stroke-width="1.7"/>
    <path id="Path_6635" data-name="Path 6635" d="M3765.123,460.807h-74.244a.879.879,0,0,1-.879-.879v-9.548a.879.879,0,0,1,.879-.879h74.244a.879.879,0,0,1,.879.879v9.548A.879.879,0,0,1,3765.123,460.807Z" transform="translate(0 -232.743)" fill="none" stroke="#fff" stroke-miterlimit="10" stroke-width="1.7"/>
    <path id="Path_6636" data-name="Path 6636" d="M3802.354,324.213H3758.11V287.819a1.7,1.7,0,0,1,1.695-1.695h40.855a1.694,1.694,0,0,1,1.694,1.695Z" transform="translate(-52.232 -107.456)" fill="none" stroke="#fff" stroke-miterlimit="10" stroke-width="1.7"/>
    <path id="Path_6637" data-name="Path 6637" d="M3902.148,403.759h10.664v10.664h-10.664Z" transform="translate(-162.689 -197.666)" fill="none" stroke="#fff" stroke-miterlimit="10" stroke-width="1.7"/>
    <path id="Path_6638" data-name="Path 6638" d="M3856.406,403.759h10.664v10.664h-10.664Z" transform="translate(-127.612 -197.666)" fill="none" stroke="#fff" stroke-miterlimit="10" stroke-width="1.7"/>
    <g id="Group_6164" data-name="Group 6164" transform="translate(3732.888 206.093)">
      <path id="Path_6639" data-name="Path 6639" d="M3876.442,403.759v1.972a1.239,1.239,0,0,1-2.477,0v-1.972Z" transform="translate(-3873.965 -403.759)" fill="none" stroke="#fff" stroke-miterlimit="10" stroke-width="1.7"/>
    </g>
    <path id="Path_6640" data-name="Path 6640" d="M3889.753,358.019a.189.189,0,0,1,.189.189v10.475h-10.664V358.019Z" transform="translate(-145.152 -162.59)" fill="none" stroke="#fff" stroke-miterlimit="10" stroke-width="1.7"/>
    <g id="Group_6165" data-name="Group 6165" transform="translate(3738.22 195.429)">
      <path id="Path_6641" data-name="Path 6641" d="M3899.312,358.019v1.972a1.239,1.239,0,0,1-2.477,0v-1.972Z" transform="translate(-3896.835 -358.019)" fill="none" stroke="#fff" stroke-miterlimit="10" stroke-width="1.7"/>
    </g>
    <path id="Path_6642" data-name="Path 6642" d="M3844.206,358.019v10.664h-10.662V358.208a.189.189,0,0,1,.189-.189Z" transform="translate(-110.079 -162.59)" fill="none" stroke="#fff" stroke-miterlimit="10" stroke-width="1.7"/>
    <g id="Group_6166" data-name="Group 6166" transform="translate(3727.558 195.429)">
      <path id="Path_6643" data-name="Path 6643" d="M3853.579,358.019v1.972a1.238,1.238,0,0,1-2.477,0v-1.972Z" transform="translate(-3851.102 -358.019)" fill="none" stroke="#fff" stroke-miterlimit="10" stroke-width="1.7"/>
    </g>
    <path id="Path_6644" data-name="Path 6644" d="M3821.336,403.759v10.664h-10.662V403.948a.189.189,0,0,1,.188-.189Z" transform="translate(-92.541 -197.666)" fill="none" stroke="#fff" stroke-miterlimit="10" stroke-width="1.7"/>
    <g id="Group_6167" data-name="Group 6167" transform="translate(3722.226 206.093)">
      <path id="Path_6645" data-name="Path 6645" d="M3830.708,403.759v1.972a1.239,1.239,0,0,1-2.477,0v-1.972Z" transform="translate(-3828.231 -403.759)" fill="none" stroke="#fff" stroke-miterlimit="10" stroke-width="1.7"/>
    </g>
    <g id="Group_6168" data-name="Group 6168" transform="translate(3709.098 221.205)">
      <path id="Path_6646" data-name="Path 6646" d="M3808.487,471.058h-35.329a1.239,1.239,0,0,1,0-2.477h35.329a1.239,1.239,0,0,1,0,2.477Z" transform="translate(-3771.92 -468.581)" fill="none" stroke="#fff" stroke-miterlimit="10" stroke-width="1.7"/>
    </g>
    <g id="Group_6169" data-name="Group 6169" transform="translate(3743.552 206.093)">
      <path id="Path_6647" data-name="Path 6647" d="M3922.184,403.759v1.972a1.238,1.238,0,1,1-2.477,0v-1.972Z" transform="translate(-3919.707 -403.759)" fill="none" stroke="#fff" stroke-miterlimit="10" stroke-width="1.7"/>
    </g>
    <g id="Group_6170" data-name="Group 6170" transform="translate(3693.795 146)">
      <path id="Path_6648" data-name="Path 6648" d="M3772.1,176.041a2.577,2.577,0,0,1-1.6-.554l-29.9-23.508a.188.188,0,0,0-.234,0l-29.9,23.508a2.591,2.591,0,1,1-3.2-4.072l31.615-24.86a2.591,2.591,0,0,1,3.2,0l31.615,24.86a2.591,2.591,0,0,1-1.6,4.627Z" transform="translate(-3706.282 -146)" fill="none" stroke="#fff" stroke-miterlimit="10" stroke-width="1.7"/>
    </g>
  </g>
</svg>
