<svg xmlns="http://www.w3.org/2000/svg" width="62.127" height="76.597" viewBox="0 0 62.127 76.597">
  <g id="Group_5137" data-name="Group 5137" transform="translate(-55.899 -460.289)">
    <path id="Path_4591" data-name="Path 4591" d="M102.711,502.96a23.858,23.858,0,1,0-31.5,0L57.767,526.249l11.352-3.059,3.027,11.361L86.954,508.9h.015l14.808,25.648L104.8,523.19l11.353,3.059Z" transform="translate(0 0)" fill="none" stroke="#ec2227" stroke-miterlimit="10" stroke-width="1.8"/>
    <circle id="Ellipse_199" data-name="Ellipse 199" cx="17.297" cy="17.297" r="17.297" transform="translate(66.261 498.077) rotate(-77.188)" fill="none" stroke="#ec2227" stroke-miterlimit="10" stroke-width="1.8"/>
    <path id="Path_4592" data-name="Path 4592" d="M98.513,485.041l1.821,3.688,4.071.59a1.193,1.193,0,0,1,.662,2.034l-2.945,2.872.7,4.054a1.192,1.192,0,0,1-1.73,1.258l-3.641-1.913-3.64,1.915a1.193,1.193,0,0,1-1.731-1.258l.694-4.054-2.946-2.87a1.193,1.193,0,0,1,.661-2.035l4.07-.592,1.82-3.689a1.193,1.193,0,0,1,2.139,0Z" transform="translate(-10.482 -7.668)" fill="none" stroke="#ec2227" stroke-miterlimit="10" stroke-width="1.8"/>
    <path id="Path_4593" data-name="Path 4593" d="M89.777,461.329a23.7,23.7,0,1,1-23.7,23.7A23.7,23.7,0,0,1,89.777,461.329Z" transform="translate(-2.749 -0.046)" fill="none" stroke="#ec2227" stroke-miterlimit="10" stroke-width="1.8"/>
  </g>
</svg>
