<svg xmlns="http://www.w3.org/2000/svg" width="69.522" height="74.561" viewBox="0 0 69.522 74.561">
  <g id="Group_6037" data-name="Group 6037" transform="translate(-324.994 -668.835)">
    <g id="Group_4930" data-name="Group 4930" transform="translate(377.391 669.585)">
      <path id="Path_4225" data-name="Path 4225" d="M463.115,669.585H454.3l-.144,5.039h9.105Z" transform="translate(-453.038 -669.585)" fill="none" stroke="#fff" stroke-miterlimit="10" stroke-width="1.5"/>
      <path id="Path_4226" data-name="Path 4226" d="M452.555,681.848l-1.116,39.05h11.337l-1.116-39.05Z" transform="translate(-451.439 -676.809)" fill="none" stroke="#fff" stroke-miterlimit="10" stroke-width="1.5"/>
    </g>
    <g id="Group_4931" data-name="Group 4931" transform="translate(377.391 674.624)">
      <path id="Path_4227" data-name="Path 4227" d="M463.228,684.367l-.072-2.519h-9.105l-.071,2.519Z" transform="translate(-452.936 -681.848)" fill="none" stroke="#fff" stroke-miterlimit="10" stroke-width="1.5"/>
      <path id="Path_4228" data-name="Path 4228" d="M451.576,755.971l-.137,4.823h11.337l-.321-11.223Z" transform="translate(-451.439 -721.745)" fill="none" stroke="#fff" stroke-miterlimit="10" stroke-width="1.5"/>
    </g>
    <path id="Path_4229" data-name="Path 4229" d="M371.092,761.89v-12.6l-22.673,12.6v-12.6l-22.675,12.6V789.6h68.022v-40.31Z" transform="translate(0 -46.957)" fill="none" stroke="#fff" stroke-miterlimit="10" stroke-width="1.5"/>
    <g id="Group_4932" data-name="Group 4932" transform="translate(332.043 719.972)">
      <path id="Path_4230" data-name="Path 4230" d="M341.073,792.213h10.078v5.039H341.073Z" transform="translate(-341.073 -792.213)" fill="none" stroke="#fff" stroke-miterlimit="10" stroke-width="1.5"/>
      <path id="Path_4231" data-name="Path 4231" d="M396.256,792.213h10.077v5.039H396.256Z" transform="translate(-373.582 -792.213)" fill="none" stroke="#fff" stroke-miterlimit="10" stroke-width="1.5"/>
      <path id="Path_4232" data-name="Path 4232" d="M451.439,792.213h10.077v5.039H451.439Z" transform="translate(-406.09 -792.213)" fill="none" stroke="#fff" stroke-miterlimit="10" stroke-width="1.5"/>
    </g>
    <g id="Group_4933" data-name="Group 4933" transform="translate(349.678 733.828)">
      <path id="Path_4233" data-name="Path 4233" d="M383.992,825.935H394.07v8.818H383.992Z" transform="translate(-383.992 -825.935)" fill="none" stroke="#fff" stroke-miterlimit="10" stroke-width="1.5"/>
      <path id="Path_4234" data-name="Path 4234" d="M408.519,825.935H418.6v8.818H408.519Z" transform="translate(-398.441 -825.935)" fill="none" stroke="#fff" stroke-miterlimit="10" stroke-width="1.5"/>
    </g>
    <path id="Path_4235" data-name="Path 4235" d="M405.452,825.935h2.52v8.818h-2.52Z" transform="translate(-46.957 -92.107)" fill="none" stroke="#fff" stroke-miterlimit="10" stroke-width="1.5"/>
  </g>
</svg>
