<svg xmlns="http://www.w3.org/2000/svg" width="84.773" height="77.38" viewBox="0 0 84.773 77.38">
  <g id="Group_5010" data-name="Group 5010" transform="translate(-640.539 -129.207)">
    <g id="Group_5000" data-name="Group 5000" transform="translate(701.879 130.438)">
      <path id="Path_4307" data-name="Path 4307" d="M728.644,132.2l2.252-1.5,10.832,16.239-2.252,1.5Z" transform="translate(-728.644 -130.698)" fill="#f5f5f5" stroke="#eb2127" stroke-miterlimit="10" stroke-width="1.3"/>
    </g>
    <g id="Group_5001" data-name="Group 5001" transform="translate(670.528 132.64)">
      <path id="Path_4308" data-name="Path 4308" d="M687.761,145.915l-4.507-1.291,30.68-10.738.894,2.555Z" transform="translate(-683.254 -133.886)" fill="#f5f5f5" stroke="#eb2127" stroke-miterlimit="10" stroke-width="1.3"/>
    </g>
    <path id="Path_4309" data-name="Path 4309" d="M698.949,149.45H647.522l-5.414,5.414h54.134" transform="translate(0 -6.06)" fill="#f5f5f5" stroke="#eb2127" stroke-miterlimit="10" stroke-width="1.3"/>
    <rect id="Rectangle_1159" data-name="Rectangle 1159" width="8.12" height="41.545" transform="translate(698.949 152.864)" fill="#f5f5f5" stroke="#eb2127" stroke-miterlimit="10" stroke-width="1.3"/>
    <g id="Group_5002" data-name="Group 5002" transform="translate(663.762 166.398)">
      <path id="Path_4310" data-name="Path 4310" d="M677.518,197.647a4.065,4.065,0,0,1-4.06-4.061h2.707a1.353,1.353,0,1,0,1.353-1.353,1.351,1.351,0,0,1-1.353-1.353v-8.12h2.706v7a4.06,4.06,0,0,1-1.353,7.889Z" transform="translate(-673.458 -182.76)" fill="#f5f5f5" stroke="#eb2127" stroke-miterlimit="10" stroke-width="1.3"/>
    </g>
    <path id="Path_4311" data-name="Path 4311" d="M726.314,197.588l6.206-5.443v-3.356l-6.206-5.444,6.206-5.444v-3.357l-5.53-4.85,5.53-4.85v-1.678h-1.913l-5.572,4.886a1.5,1.5,0,0,0-.634-.127v3.538a1.476,1.476,0,0,0,.634-.128l5.572,4.888-6.206,5.443v3.357l6.206,5.443L724.4,195.91v3.357l6.206,5.443h1.913v-1.678Z" transform="translate(-25.452 -10.302)" fill="#f5f5f5" stroke="#eb2127" stroke-miterlimit="10" stroke-width="1.3"/>
    <g id="Group_5003" data-name="Group 5003" transform="translate(663.762 152.864)">
      <path id="Path_4312" data-name="Path 4312" d="M673.458,163.166h2.707V176.7h-2.707Z" transform="translate(-673.458 -163.166)" fill="#f5f5f5" stroke="#eb2127" stroke-miterlimit="10" stroke-width="1.3"/>
    </g>
    <g id="Group_5004" data-name="Group 5004" transform="translate(669.175 152.864)">
      <path id="Path_4313" data-name="Path 4313" d="M681.295,163.166H684V176.7h-2.707Z" transform="translate(-681.295 -163.166)" fill="#f5f5f5" stroke="#eb2127" stroke-miterlimit="10" stroke-width="1.3"/>
    </g>
    <g id="Group_5005" data-name="Group 5005" transform="translate(662.408 165.044)">
      <path id="Path_4314" data-name="Path 4314" d="M671.5,180.8h10.827v2.707H671.5Z" transform="translate(-671.498 -180.8)" fill="#f5f5f5" stroke="#eb2127" stroke-miterlimit="10" stroke-width="1.3"/>
    </g>
    <path id="Path_4315" data-name="Path 4315" d="M727.955,238.509V235.8H726.6v-4.06H715.775v4.06h-1.353v2.706l-13.533,1.354v4.06h40.6v-4.06Z" transform="translate(-18.18 -37.986)" fill="#f5f5f5" stroke="#eb2127" stroke-miterlimit="10" stroke-width="1.3"/>
    <rect id="Rectangle_1160" data-name="Rectangle 1160" width="10.827" height="4.06" transform="translate(662.408 148.804)" fill="#f5f5f5" stroke="#eb2127" stroke-miterlimit="10" stroke-width="1.3"/>
    <g id="Group_5007" data-name="Group 5007" transform="translate(694.888 151.511)">
      <path id="Path_4318" data-name="Path 4318" d="M718.522,161.207h16.241v2.706H718.522Z" transform="translate(-718.522 -161.207)" fill="#f5f5f5" stroke="#eb2127" stroke-miterlimit="10" stroke-width="1.3"/>
    </g>
    <g id="Group_5008" data-name="Group 5008" transform="translate(648.864 129.857)">
      <path id="Path_4319" data-name="Path 4319" d="M721.324,146.1l-15.79-13.533h-.681l-42.1,10.826H651.889L704.343,129.9a1.42,1.42,0,0,1,.337-.042h1.353a1.341,1.341,0,0,1,.88.327l18.946,16.24Z" transform="translate(-651.889 -129.857)" fill="#f5f5f5" stroke="#eb2127" stroke-miterlimit="10" stroke-width="1.3"/>
    </g>
    <path id="Path_4320" data-name="Path 4320" d="M731.167,144l-2.707-12.18h-1.353L724.7,142.643h0L724.4,144Z" transform="translate(-25.452 -0.606)" fill="#f5f5f5" stroke="#eb2127" stroke-miterlimit="10" stroke-width="1.3"/>
    <path id="Path_4321" data-name="Path 4321" d="M722.583,149.45l-4.06,4.061,2.707,5.413h10.826V149.45Z" transform="translate(-23.634 -6.06)" fill="#f5f5f5" stroke="#eb2127" stroke-miterlimit="10" stroke-width="1.3"/>
    <path id="Path_4322" data-name="Path 4322" d="M750.013,155.329h-4.06v8.119h8.12v-8.119Z" transform="translate(-32.118 -7.878)" fill="#f5f5f5" stroke="#eb2127" stroke-miterlimit="10" stroke-width="1.3"/>
    <g id="Group_5009" data-name="Group 5009" transform="translate(708.422 146.097)">
      <path id="Path_4323" data-name="Path 4323" d="M738.116,153.369h16.24v2.707h-16.24Z" transform="translate(-738.116 -153.369)" fill="#f5f5f5" stroke="#eb2127" stroke-miterlimit="10" stroke-width="1.3"/>
    </g>
  </g>
</svg>
