<svg xmlns="http://www.w3.org/2000/svg" width="72.01" height="74.832" viewBox="0 0 72.01 74.832">
  <g id="Group_6038" data-name="Group 6038" transform="translate(-761.75 -1265.341)">
    <path id="Path_6462" data-name="Path 6462" d="M554.9,309.52v-4.2a.1.1,0,0,0-.03.01c-.309-2.551-9.056-2.688-10.839-2.688s-10.531.139-10.838,2.688a.153.153,0,0,0-.032-.01v4.2A26.425,26.425,0,0,0,554.9,309.52Zm-19.377-4.088c.866-.491,3.759-1.2,8.471-1.2s7.6.712,8.471,1.2c-.864.491-3.758,1.2-8.471,1.2S536.387,305.922,535.52,305.431Z" transform="translate(229.342 1027.447)" fill="#fff" stroke="#ec2227" stroke-miterlimit="10" stroke-width="1.5"/>
    <path id="Path_6463" data-name="Path 6463" d="M554.9,309.52v-4.2a.1.1,0,0,0-.03.01c-.309-2.551-9.056-2.688-10.839-2.688s-10.531.139-10.838,2.688a.153.153,0,0,0-.032-.01v4.2A26.425,26.425,0,0,0,554.9,309.52Zm-19.377-4.088c.866-.491,3.759-1.2,8.471-1.2s7.6.712,8.471,1.2c-.864.491-3.758,1.2-8.471,1.2S536.387,305.922,535.52,305.431Z" transform="translate(253.342 1020.447)" fill="#fff" stroke="#ec2227" stroke-miterlimit="10" stroke-width="1.5"/>
    <path id="Path_6464" data-name="Path 6464" d="M555.667,309.52v-4.2a.1.1,0,0,0-.031.01c-.32-2.551-9.377-2.688-11.223-2.688s-10.9.139-11.222,2.688a.162.162,0,0,0-.033-.01v4.2A28.246,28.246,0,0,0,555.667,309.52ZM535.6,305.431c.9-.491,3.892-1.2,8.771-1.2s7.872.712,8.771,1.2c-.894.491-3.891,1.2-8.771,1.2S536.5,305.922,535.6,305.431Z" transform="translate(277.342 1013.447)" fill="#fff" stroke="#ec2227" stroke-miterlimit="10" stroke-width="1.5"/>
    <path id="Path_4510" data-name="Path 4510" d="M553.9,339.52v-34.2a.1.1,0,0,0-.03.01c-.309-2.551-8.056-2.688-9.839-2.688s-9.531.139-9.838,2.688a.153.153,0,0,0-.032-.01v34.2C541.07,342.638,546.987,342.638,553.9,339.52Zm24.139-6.605V293.921a.132.132,0,0,1-.035.014c-.306-2.552-8.053-2.69-9.835-2.69s-9.531.137-9.839,2.69a.146.146,0,0,1-.03-.014v38.993C565.21,336.031,571.127,336.031,578.036,332.914Zm24.137-6.609V277.727l-.032.012c-.3-2.55-8.052-2.686-9.836-2.686s-9.54.136-9.846,2.686c0,0-.02-.008-.025-.012V326.3C589.351,329.425,595.27,329.425,602.173,326.3Z" transform="translate(229.342 992.448)" fill="#fff" stroke="#ec2227" stroke-miterlimit="10" stroke-width="1.5"/>
    <path id="Path_6459" data-name="Path 6459" d="M554.9,309.52v-4.2a.1.1,0,0,0-.03.01c-.309-2.551-9.056-2.688-10.839-2.688s-10.531.139-10.838,2.688a.153.153,0,0,0-.032-.01v4.2A26.425,26.425,0,0,0,554.9,309.52Zm-19.377-4.088c.866-.491,3.759-1.2,8.471-1.2s7.6.712,8.471,1.2c-.864.491-3.758,1.2-8.471,1.2S536.387,305.922,535.52,305.431Z" transform="translate(229.342 991.447)" fill="#fff" stroke="#ec2227" stroke-miterlimit="10" stroke-width="1.5"/>
    <path id="Path_6460" data-name="Path 6460" d="M554.9,309.52v-4.2a.1.1,0,0,0-.03.01c-.309-2.551-9.056-2.688-10.839-2.688s-10.531.139-10.838,2.688a.153.153,0,0,0-.032-.01v4.2A26.425,26.425,0,0,0,554.9,309.52Zm-19.377-4.088c.866-.491,3.759-1.2,8.471-1.2s7.6.712,8.471,1.2c-.864.491-3.758,1.2-8.471,1.2S536.387,305.922,535.52,305.431Z" transform="translate(253.342 976.447)" fill="#fff" stroke="#ec2227" stroke-miterlimit="10" stroke-width="1.5"/>
    <path id="Path_6461" data-name="Path 6461" d="M555.667,309.52v-4.2a.1.1,0,0,0-.031.01c-.32-2.551-9.377-2.688-11.223-2.688s-10.9.139-11.222,2.688a.163.163,0,0,0-.033-.01v4.2A28.246,28.246,0,0,0,555.667,309.52ZM535.6,305.431c.9-.491,3.892-1.2,8.771-1.2s7.872.712,8.771,1.2c-.894.491-3.891,1.2-8.771,1.2S536.5,305.922,535.6,305.431Z" transform="translate(277.342 963.447)" fill="#fff" stroke="#ec2227" stroke-miterlimit="10" stroke-width="1.5"/>
  </g>
</svg>
