<svg xmlns="http://www.w3.org/2000/svg" width="73.276" height="73.341" viewBox="0 0 73.276 73.341">
  <g id="Group_5043" data-name="Group 5043" transform="translate(-607.1 -304.747)">
    <path id="Path_4371" data-name="Path 4371" d="M634.728,397.746a57.856,57.856,0,0,1-5.926,5.49,1.049,1.049,0,0,1-1.284,0,57.785,57.785,0,0,1-5.927-5.491c-3.338.907-5.831,2.547-5.831,4.85,0,3.686,6.389,5.675,12.4,5.675s12.4-1.989,12.4-5.675C640.559,400.292,638.065,398.652,634.728,397.746Z" transform="translate(-2.619 -31.082)" fill="none" stroke="#fff" stroke-miterlimit="10" stroke-width="1.8"/>
    <path id="Path_4372" data-name="Path 4372" d="M696.757,352.028c-.334-.136-.693-.256-1.063-.369a45.291,45.291,0,0,1-4.859,4.539,1.049,1.049,0,0,1-1.284,0,45.292,45.292,0,0,1-4.859-4.539c-.37.113-.73.234-1.064.37-2.069.843-3.209,2.081-3.209,3.486s1.14,2.641,3.209,3.485a19.814,19.814,0,0,0,13.129,0c2.069-.843,3.208-2.081,3.208-3.485S698.826,352.87,696.757,352.028Z" transform="translate(-24.441 -15.528)" fill="none" stroke="#fff" stroke-miterlimit="10" stroke-width="1.8"/>
    <path id="Path_4373" data-name="Path 4373" d="M658.5,389.533a1.049,1.049,0,0,1,0-2.1l1.385-.005h.005a1.049,1.049,0,0,1,0,2.1l-1.386.006Zm5.543-.025a1.049,1.049,0,0,1-.005-2.1l1.386-.006h0a1.048,1.048,0,0,1,0,2.1l-1.385.007Zm5.542-.025a1.049,1.049,0,0,1,0-2.1l1.385-.006h0a1.049,1.049,0,0,1,0,2.1l-1.385.007Zm5.542-.025a1.049,1.049,0,0,1,0-2.1l1.386-.007h0a1.049,1.049,0,0,1,0,2.1l-1.385.007Zm5.543-.025a1.049,1.049,0,0,1,0-2.1l1.386-.007h0a1.049,1.049,0,0,1,0,2.1l-1.385.007Zm5.542-.025a1.049,1.049,0,0,1-.005-2.1h.2a7.844,7.844,0,0,0,1.046-.074,1.049,1.049,0,1,1,.287,2.078,10.1,10.1,0,0,1-1.323.094h-.2Zm5.219-1.581a1.049,1.049,0,0,1-.6-1.911,7.9,7.9,0,0,0,.947-.772,1.049,1.049,0,0,1,1.448,1.519,9.958,9.958,0,0,1-1.2.977A1.044,1.044,0,0,1,691.436,387.826Zm3.318-4.326a1.023,1.023,0,0,1-.352-.062,1.048,1.048,0,0,1-.636-1.34,7.884,7.884,0,0,0,.319-1.179,1.049,1.049,0,0,1,2.061.388,9.829,9.829,0,0,1-.4,1.494A1.048,1.048,0,0,1,694.754,383.5Zm.17-5.45a1.05,1.05,0,0,1-1.008-.76,7.857,7.857,0,0,0-.428-1.143,1.049,1.049,0,0,1,1.9-.888,10.01,10.01,0,0,1,.543,1.452,1.051,1.051,0,0,1-1.009,1.339Zm-3.043-4.526a1.044,1.044,0,0,1-.65-.226,7.92,7.92,0,0,0-1.013-.68,1.049,1.049,0,0,1,1.03-1.829,9.988,9.988,0,0,1,1.284.862,1.049,1.049,0,0,1-.651,1.872Zm-5.107-1.9h-.047c-.118-.005-.236-.008-.354-.008h-.984a1.049,1.049,0,1,1,0-2.1h.984c.148,0,.3,0,.447.01a1.049,1.049,0,0,1-.046,2.1Zm-5.543-.009h-1.386a1.049,1.049,0,1,1,0-2.1h1.386a1.049,1.049,0,1,1,0,2.1Zm-5.542,0H674.3a1.049,1.049,0,1,1,0-2.1h1.386a1.049,1.049,0,0,1,0,2.1Zm-5.543,0H668.76a1.049,1.049,0,1,1,0-2.1h1.385a1.049,1.049,0,1,1,0,2.1Zm-5.344-1.043a1.045,1.045,0,0,1-.558-.162,7.935,7.935,0,0,1-1.256-.983,1.049,1.049,0,1,1,1.454-1.513,5.728,5.728,0,0,0,.922.721,1.049,1.049,0,0,1-.561,1.936Zm-3.05-4.444a1.049,1.049,0,0,1-1.028-.848,7.915,7.915,0,0,1-.145-1.507v-.083a1.049,1.049,0,0,1,1.049-1.037h.013a1.05,1.05,0,0,1,1.037,1.061v.058a5.741,5.741,0,0,0,.107,1.105,1.05,1.05,0,0,1-.83,1.231A1,1,0,0,1,661.752,366.127Zm1.147-5.265a1.049,1.049,0,0,1-.851-1.661,7.849,7.849,0,0,1,1.057-1.2,1.049,1.049,0,1,1,1.422,1.542,5.774,5.774,0,0,0-.775.877A1.049,1.049,0,0,1,662.9,360.862Zm4.619-2.777A1.049,1.049,0,0,1,667.38,356a7.92,7.92,0,0,1,1.042-.069h.479a1.049,1.049,0,0,1,0,2.1h-.479a5.881,5.881,0,0,0-.765.05A.9.9,0,0,1,667.518,358.086Z" transform="translate(-16.691 -16.969)" fill="#fff"/>
    <path id="Path_4374" data-name="Path 4374" d="M625.541,338.105A17.561,17.561,0,0,0,608,355.647c0,6,2.857,12.462,8.491,19.19a60.488,60.488,0,0,0,8.409,8.271,1.049,1.049,0,0,0,1.284,0,60.505,60.505,0,0,0,8.408-8.271c5.635-6.728,8.491-13.185,8.491-19.19A17.561,17.561,0,0,0,625.541,338.105Zm0,24.119a6.578,6.578,0,1,1,6.577-6.577A6.578,6.578,0,0,1,625.541,362.224Z" transform="translate(0 -10.954)" fill="none" stroke="#fff" stroke-miterlimit="10" stroke-width="1.8"/>
    <path id="Path_4375" data-name="Path 4375" d="M688.181,305.647a13.74,13.74,0,0,0-13.725,13.724c0,4.674,2.215,9.689,6.583,14.905a46.739,46.739,0,0,0,6.5,6.393,1.049,1.049,0,0,0,1.284,0,46.746,46.746,0,0,0,6.5-6.393c4.368-5.217,6.582-10.231,6.582-14.905A13.74,13.74,0,0,0,688.181,305.647Zm5.056,13.724a5.056,5.056,0,1,1-5.056-5.056A5.056,5.056,0,0,1,693.236,319.371Z" transform="translate(-22.428)" fill="none" stroke="#fff" stroke-miterlimit="10" stroke-width="1.8"/>
  </g>
</svg>
