<svg xmlns="http://www.w3.org/2000/svg" width="74.566" height="74.561" viewBox="0 0 74.566 74.561">
  <g id="Group_6133" data-name="Group 6133" transform="translate(4.923 681.764)">
    <path id="Path_6530" data-name="Path 6530" d="M172.51-471.208h34.1v26.789h-34.1Z" transform="translate(-137.712 -163.534)" fill="none" stroke="#fff" stroke-miterlimit="10" stroke-width="1.5"/>
    <path id="Path_6531" data-name="Path 6531" d="M10.444-570.59h2.435a8.488,8.488,0,0,0-7.7,4.871H-2.95a1.221,1.221,0,0,1-1.218-1.218v-2.435A1.221,1.221,0,0,1-2.95-570.59H10.444Z" transform="translate(0 -86.07)" fill="none" stroke="#fff" stroke-miterlimit="10" stroke-width="1.5"/>
    <path id="Path_6532" data-name="Path 6532" d="M80.434-570.59h47.49a1.221,1.221,0,0,1,1.218,1.218v2.435a1.221,1.221,0,0,1-1.218,1.218h-47.1a8.488,8.488,0,0,0-7.7-4.871Z" transform="translate(-60.249 -86.07)" fill="none" stroke="#fff" stroke-miterlimit="10" stroke-width="1.5"/>
    <path id="Path_6533" data-name="Path 6533" d="M12.4-394.428l.037-.146a4.752,4.752,0,0,0,1.181.146H19.7v9.742H12.4Z" transform="translate(-12.91 -223.266)" fill="none" stroke="#fff" stroke-miterlimit="10" stroke-width="1.5"/>
    <path id="Path_6534" data-name="Path 6534" d="M13.051-493.293A17.051,17.051,0,0,1,30.1-476.245v14.612H24.01V-479.9l-6.088-6.088H6.963v8.524H-3.948A17.018,17.018,0,0,1,1-488.3,17.04,17.04,0,0,1,13.051-493.293Z" transform="translate(-0.171 -146.32)" fill="none" stroke="#fff" stroke-miterlimit="10" stroke-width="1.5"/>
    <path id="Path_6535" data-name="Path 6535" d="M62.57-454.078v18.265H45.523v-9.742H51a3.047,3.047,0,0,0,2.155-.889,3.047,3.047,0,0,0,.889-2.155A3.046,3.046,0,0,0,51-451.642h-5.48v-8.524H56.482v6.088Z" transform="translate(-38.732 -172.14)" fill="none" stroke="#fff" stroke-miterlimit="10" stroke-width="1.5"/>
    <path id="Path_6536" data-name="Path 6536" d="M101.3-454.078H95.213v-6.088Z" transform="translate(-77.463 -172.14)" fill="none" stroke="#fff" stroke-miterlimit="10" stroke-width="1.5"/>
    <path id="Path_6537" data-name="Path 6537" d="M12.271-421.518a3.046,3.046,0,0,1,3.044,3.044,3.047,3.047,0,0,1-.889,2.155,3.047,3.047,0,0,1-2.155.889H.7a4.75,4.75,0,0,1-1.181-.146,4.872,4.872,0,0,1-3.69-4.725c0-.414.012-.816.049-1.218h16.39Z" transform="translate(0 -202.265)" fill="none" stroke="#fff" stroke-miterlimit="10" stroke-width="1.5"/>
    <path id="Path_6538" data-name="Path 6538" d="M50.7-565.719a8.332,8.332,0,0,1,.828,3.653A8.518,8.518,0,0,1,43-553.542a8.518,8.518,0,0,1-8.524-8.524,8.335,8.335,0,0,1,.828-3.653A8.488,8.488,0,0,1,43-570.59,8.488,8.488,0,0,1,50.7-565.719Z" transform="translate(-30.124 -86.07)" fill="none" stroke="#fff" stroke-miterlimit="10" stroke-width="1.5"/>
    <path id="Path_6539" data-name="Path 6539" d="M172.51-681.014h29.225v24.354H172.51Z" transform="translate(-137.712)" fill="none" stroke="#fff" stroke-miterlimit="10" stroke-width="1.5"/>
    <path id="Path_6540" data-name="Path 6540" d="M17.917-681.014H47.141v24.354H17.917Z" transform="translate(-17.214)" fill="none" stroke="#fff" stroke-miterlimit="10" stroke-width="1.5"/>
    <g id="Group_6132" data-name="Group 6132" transform="translate(10.444 -681.014)">
      <path id="Path_6541" data-name="Path 6541" d="M71.828-592.675v4.871H62.086v-4.871Z" transform="translate(-62.086 612.158)" fill="none" stroke="#fff" stroke-miterlimit="10" stroke-width="1.5"/>
      <path id="Path_6542" data-name="Path 6542" d="M62.086-681.014h9.742v4.871H62.086Z" transform="translate(-62.086 681.014)" fill="none" stroke="#fff" stroke-miterlimit="10" stroke-width="1.5"/>
      <path id="Path_6543" data-name="Path 6543" d="M216.68-681.014h9.742v4.871H216.68Z" transform="translate(-182.585 681.014)" fill="none" stroke="#fff" stroke-miterlimit="10" stroke-width="1.5"/>
      <path id="Path_6544" data-name="Path 6544" d="M216.68-592.675h9.742v4.871H216.68Z" transform="translate(-182.585 612.158)" fill="none" stroke="#fff" stroke-miterlimit="10" stroke-width="1.5"/>
      <path id="Path_6545" data-name="Path 6545" d="M227.722-471.208h9.742v4.871h-9.742Z" transform="translate(-191.191 517.48)" fill="none" stroke="#fff" stroke-miterlimit="10" stroke-width="1.5"/>
    </g>
  </g>
</svg>
