<svg xmlns="http://www.w3.org/2000/svg" width="78.086" height="88.131" viewBox="0 0 78.086 88.131">
  <g id="Group_5069" data-name="Group 5069" transform="translate(292.962 -830.868)">
    <path id="Path_4425" data-name="Path 4425" d="M-237.962,909.588l9.17-8.613-3.64-.676c-1.757-.354-3.022-2.391-3.022-4.185v-7.987h-17.029v7.987c0,1.793-1.264,3.831-3.022,4.185l-3.641.676,9.17,8.613A8.774,8.774,0,0,0-237.962,909.588Z" transform="translate(-9.951 -17.04)" fill="#fff" stroke="#eb2127" stroke-miterlimit="10" stroke-width="1.8"/>
    <path id="Path_4426" data-name="Path 4426" d="M-243.289,904.753l-10.63,7.945-10.629-7.945a2.242,2.242,0,0,0-1.99-.35L-284.4,909.79a5.291,5.291,0,0,0-3.687,4.175L-292.018,937a2.6,2.6,0,0,0,2.559,3.033h71.081A2.6,2.6,0,0,0-215.82,937l-3.934-23.034a5.292,5.292,0,0,0-3.688-4.175L-241.3,904.4A2.241,2.241,0,0,0-243.289,904.753Z" transform="translate(0 -21.932)" fill="#fff" stroke="#eb2127" stroke-miterlimit="10" stroke-width="1.8"/>
    <g id="Group_5065" data-name="Group 5065" transform="translate(-269.61 882.374)">
      <path id="Path_4427" data-name="Path 4427" d="M-256.81,904.4l-3.072.927,6.78,9.487a1.959,1.959,0,0,0,2.359.664l6.552-2.783h0l-10.629-7.945A2.241,2.241,0,0,0-256.81,904.4Z" transform="translate(259.882 -904.306)" fill="#fff" stroke="#eb2127" stroke-miterlimit="10" stroke-width="1.8"/>
      <path id="Path_4428" data-name="Path 4428" d="M-230.839,915.48a1.957,1.957,0,0,0,2.359-.664l6.78-9.487-.016,0-3.056-.922a2.243,2.243,0,0,0-1.99.351l-10.63,7.945h0Z" transform="translate(253.082 -904.306)" fill="#fff" stroke="#eb2127" stroke-miterlimit="10" stroke-width="1.8"/>
    </g>
    <g id="Group_5066" data-name="Group 5066" transform="translate(-260.012 890.765)">
      <path id="Path_4429" data-name="Path 4429" d="M-239.624,916.334l-5.152,2.189,3.012,3.5h4.281l3.012-3.5Z" transform="translate(245.717 -916.334)" fill="#fff" stroke="#eb2127" stroke-miterlimit="10" stroke-width="1.8"/>
      <path id="Path_4430" data-name="Path 4430" d="M-237.891,924.49h-4.281l-3.953,21.643h12.186Z" transform="translate(246.125 -918.8)" fill="#fff" stroke="#eb2127" stroke-miterlimit="10" stroke-width="1.8"/>
    </g>
    <path id="Path_4431" data-name="Path 4431" d="M-253.919,936.054s-11.937-31.817-12.619-31.611l-17.858,5.389a5.291,5.291,0,0,0-3.687,4.175l-3.935,23.034a2.6,2.6,0,0,0,2.559,3.033h71.081a2.6,2.6,0,0,0,2.558-3.033l-3.934-23.034a5.292,5.292,0,0,0-3.688-4.175l-17.858-5.389C-241.981,904.237-253.919,936.054-253.919,936.054Z" transform="translate(0 -21.973)" fill="#fff" stroke="#eb2127" stroke-miterlimit="10" stroke-width="1.8"/>
    <g id="Group_5067" data-name="Group 5067" transform="translate(-274.205 872.197)">
      <path id="Path_4432" data-name="Path 4432" d="M-215.092,917.631a1.3,1.3,0,0,1-1.3-1.3V901.547a9.221,9.221,0,0,0-8.792-9.226,1.3,1.3,0,0,1-1.239-1.362,1.3,1.3,0,0,1,1.362-1.239,11.82,11.82,0,0,1,11.274,11.827v14.782A1.3,1.3,0,0,1-215.092,917.631Z" transform="translate(254.362 -889.718)" fill="#fff" stroke="#eb2127" stroke-miterlimit="10" stroke-width="1.8"/>
      <path id="Path_4433" data-name="Path 4433" d="M-265.167,907.994a1.3,1.3,0,0,1-1.3-1.3v-5.144a11.828,11.828,0,0,1,11.242-11.826,1.3,1.3,0,0,1,1.365,1.236,1.3,1.3,0,0,1-1.236,1.365,9.226,9.226,0,0,0-8.767,9.225v5.144A1.3,1.3,0,0,1-265.167,907.994Z" transform="translate(266.469 -889.718)" fill="#fff" stroke="#eb2127" stroke-miterlimit="10" stroke-width="1.8"/>
    </g>
    <path id="Path_4434" data-name="Path 4434" d="M-212.557,921.3a5.437,5.437,0,0,1,5.437,5.437,5.437,5.437,0,0,1-5.437,5.436,5.436,5.436,0,0,1-5.436-5.436A5.436,5.436,0,0,1-212.557,921.3Z" transform="translate(-22.393 -27.07)" fill="#fff" stroke="#eb2127" stroke-miterlimit="10" stroke-width="1.8"/>
    <path id="Path_4435" data-name="Path 4435" d="M-211.239,925.656a2.4,2.4,0,0,1,2.4,2.4,2.394,2.394,0,0,1-2.4,2.394,2.4,2.4,0,0,1-2.394-2.394A2.4,2.4,0,0,1-211.239,925.656Z" transform="translate(-23.711 -28.387)" fill="#fff" stroke="#eb2127" stroke-miterlimit="10" stroke-width="1.8"/>
    <path id="Path_4436" data-name="Path 4436" d="M-263.588,934.964h-1.623a1.3,1.3,0,0,1-1.3-1.3,1.3,1.3,0,0,1,1.3-1.3h1.623a.709.709,0,0,0,.518-.226.712.712,0,0,0,.186-.534l-.949-12.176a4,4,0,0,0-.3-1.25,3.9,3.9,0,0,0-3.637-2.332h-.245a3.939,3.939,0,0,0-3.686,2.509,4.022,4.022,0,0,0-.234,1.072l-.949,12.176a.7.7,0,0,0,.186.533.706.706,0,0,0,.518.227h1.624a1.3,1.3,0,0,1,1.3,1.3,1.3,1.3,0,0,1-1.3,1.3h-1.624a3.319,3.319,0,0,1-2.43-1.063,3.317,3.317,0,0,1-.87-2.5l.948-12.176a6.6,6.6,0,0,1,.387-1.769,6.557,6.557,0,0,1,6.112-4.215h.263a6.5,6.5,0,0,1,6.035,3.921,6.608,6.608,0,0,1,.5,2.064l.949,12.176a3.317,3.317,0,0,1-.871,2.5A3.318,3.318,0,0,1-263.588,934.964Z" transform="translate(-5.007 -24.632)" fill="#fff" stroke="#eb2127" stroke-miterlimit="10" stroke-width="1.8"/>
    <g id="Group_5068" data-name="Group 5068" transform="translate(-274.477 854.465)">
      <path id="Path_4437" data-name="Path 4437" d="M-261.326,869.174V864.3H-264.3a2.559,2.559,0,0,0-2.559,2.56v1.979a2.559,2.559,0,0,0,2.559,2.56h2.973Z" transform="translate(266.858 -864.301)" fill="#fff" stroke="#eb2127" stroke-miterlimit="10" stroke-width="1.8"/>
      <path id="Path_4438" data-name="Path 4438" d="M-212.88,864.3h-2.972v7.1h2.972a2.56,2.56,0,0,0,2.56-2.56v-1.979A2.559,2.559,0,0,0-212.88,864.3Z" transform="translate(251.436 -864.301)" fill="#fff" stroke="#eb2127" stroke-miterlimit="10" stroke-width="1.8"/>
    </g>
    <path id="Path_4439" data-name="Path 4439" d="M-233.384,839.595c-2.563-2.207-6.166-2.064-10.927-2.117-4.759.053-8.363-.091-10.926,2.117a14.884,14.884,0,0,0-5.041,11.311v12.541c0,4.316,5.423,15.76,15.967,15.76s15.967-11.444,15.967-15.76V850.906A14.881,14.881,0,0,0-233.384,839.595Z" transform="translate(-9.608 -1.726)" fill="#fff" stroke="#eb2127" stroke-miterlimit="10" stroke-width="1.8"/>
    <path id="Path_4440" data-name="Path 4440" d="M-235.827,831.768h-19.212a8.95,8.95,0,0,0-8.95,8.951v14.693a6.18,6.18,0,0,1,4.048,1.512.524.524,0,0,0,.89-.377V844.525a3.956,3.956,0,0,1,3.956-3.956h3.595a4.087,4.087,0,0,1,2.586.922l.353.288a4.941,4.941,0,0,0,3.127,1.115,4.943,4.943,0,0,0,3.128-1.115l.352-.288a4.089,4.089,0,0,1,2.587-.922h3.595a3.956,3.956,0,0,1,3.956,3.956v12.023a.524.524,0,0,0,.89.376,6.182,6.182,0,0,1,4.049-1.512V840.719A8.951,8.951,0,0,0-235.827,831.768Z" transform="translate(-8.486 0)" fill="#fff" stroke="#eb2127" stroke-miterlimit="10" stroke-width="1.8"/>
  </g>
</svg>
