<svg xmlns="http://www.w3.org/2000/svg" width="65.519" height="78.897" viewBox="0 0 65.519 78.897">
  <g id="Group_6006" data-name="Group 6006" transform="translate(-414.516 -669.917)">
    <g id="Group_6004" data-name="Group 6004" transform="translate(436.573 675.918)">
      <path id="Path_6277" data-name="Path 6277" d="M487.975,703.939l1.527-1.528a13.381,13.381,0,0,0,3.919-9.46v-3.824a4.014,4.014,0,0,0-4.014-4.014h-5.352a4.014,4.014,0,0,0-4.013,4.014h-4.014a2.676,2.676,0,0,0-2.676,2.676v1.338a5.351,5.351,0,0,0,5.352,5.351h2.007a2.007,2.007,0,1,1,0,4.014H478.7a2.676,2.676,0,1,0,0,5.351h6.557A13.374,13.374,0,0,1,487.975,703.939Z" transform="translate(-473.353 -685.113)" fill="none" stroke="#fff" stroke-miterlimit="10" stroke-width="1.3"/>
    </g>
    <path id="Path_6278" data-name="Path 6278" d="M498.81,692.387h2.675v2.676H498.81Z" transform="translate(-52.871 -13.793)" fill="none" stroke="#fff" stroke-miterlimit="10" stroke-width="1.3"/>
    <g id="Group_6005" data-name="Group 6005" transform="translate(447.276 713.38)">
      <path id="Path_6279" data-name="Path 6279" d="M538.813,786.94h2.675v2.676h-2.675Z" transform="translate(-525.434 -786.94)" fill="none" stroke="#fff" stroke-miterlimit="10" stroke-width="1.3"/>
      <path id="Path_6280" data-name="Path 6280" d="M542.448,801.485h2.676v2.676h-2.676Z" transform="translate(-527.731 -796.134)" fill="none" stroke="#fff" stroke-miterlimit="10" stroke-width="1.3"/>
      <path id="Path_6281" data-name="Path 6281" d="M538.813,816.032h2.675v2.676h-2.675Z" transform="translate(-525.434 -805.329)" fill="none" stroke="#fff" stroke-miterlimit="10" stroke-width="1.3"/>
      <path id="Path_6282" data-name="Path 6282" d="M553.358,816.032h2.676v2.676h-2.676Z" transform="translate(-534.628 -805.329)" fill="none" stroke="#fff" stroke-miterlimit="10" stroke-width="1.3"/>
      <path id="Path_6283" data-name="Path 6283" d="M546.085,830.578h2.676v2.676h-2.676Z" transform="translate(-530.03 -814.524)" fill="none" stroke="#fff" stroke-miterlimit="10" stroke-width="1.3"/>
      <path id="Path_6284" data-name="Path 6284" d="M553.358,845.125h2.676V847.8h-2.676Z" transform="translate(-534.628 -823.719)" fill="none" stroke="#fff" stroke-miterlimit="10" stroke-width="1.3"/>
      <path id="Path_6285" data-name="Path 6285" d="M538.813,845.125h2.675V847.8h-2.675Z" transform="translate(-525.434 -823.719)" fill="none" stroke="#fff" stroke-miterlimit="10" stroke-width="1.3"/>
      <path id="Path_6286" data-name="Path 6286" d="M546.085,859.672h2.676v2.675h-2.676Z" transform="translate(-530.03 -832.915)" fill="none" stroke="#fff" stroke-miterlimit="10" stroke-width="1.3"/>
      <path id="Path_6287" data-name="Path 6287" d="M531.539,859.672h2.676v2.675h-2.676Z" transform="translate(-520.836 -832.915)" fill="none" stroke="#fff" stroke-miterlimit="10" stroke-width="1.3"/>
      <path id="Path_6288" data-name="Path 6288" d="M516.992,859.672h2.676v2.675h-2.676Z" transform="translate(-511.64 -832.915)" fill="none" stroke="#fff" stroke-miterlimit="10" stroke-width="1.3"/>
      <path id="Path_6289" data-name="Path 6289" d="M502.445,859.672h2.676v2.675h-2.676Z" transform="translate(-502.445 -832.915)" fill="none" stroke="#fff" stroke-miterlimit="10" stroke-width="1.3"/>
    </g>
    <path id="Path_6290" data-name="Path 6290" d="M417.843,732.183h-2.676a10.715,10.715,0,0,1,10.7-10.7h9.365v2.676H425.87A8.035,8.035,0,0,0,417.843,732.183Z" transform="translate(0 -32.183)" fill="none" stroke="#fff" stroke-miterlimit="10" stroke-width="1.3"/>
    <path id="Path_6291" data-name="Path 6291" d="M432.389,741.377h-2.675a5.357,5.357,0,0,1,5.351-5.351h9.365V738.7h-9.365A2.679,2.679,0,0,0,432.389,741.377Z" transform="translate(-9.195 -41.377)" fill="none" stroke="#fff" stroke-miterlimit="10" stroke-width="1.3"/>
    <path id="Path_6292" data-name="Path 6292" d="M415.167,757.846h2.676v2.676h-2.676Z" transform="translate(0 -55.17)" fill="none" stroke="#fff" stroke-miterlimit="10" stroke-width="1.3"/>
    <path id="Path_6293" data-name="Path 6293" d="M429.714,757.846h2.675v2.676h-2.675Z" transform="translate(-9.195 -55.17)" fill="none" stroke="#fff" stroke-miterlimit="10" stroke-width="1.3"/>
    <path id="Path_6294" data-name="Path 6294" d="M511.981,782.782v-6.69l-1.73-1.73a1.332,1.332,0,0,1-2.138-.35l-2.821,1.411v2.007a1.338,1.338,0,0,1-1.338,1.338v1.338l-5.352,1.338a5.352,5.352,0,0,1,5.352,5.352,2.676,2.676,0,0,1-2.676,2.676H498.6a5.352,5.352,0,0,1,5.352,5.351v1.338a5.352,5.352,0,0,1-5.352,5.351h-2.676a2.676,2.676,0,0,1-2.676-2.676v-4.013H487.9v4.014a14.717,14.717,0,1,0,29.433,0V784.12Z" transform="translate(-45.975 -65.389)" fill="none" stroke="#fff" stroke-miterlimit="10" stroke-width="1.3"/>
    <path id="Path_6295" data-name="Path 6295" d="M496.1,790.746h2.676a2.676,2.676,0,0,0,2.676-2.676,5.348,5.348,0,0,0-9.54-3.325,1.325,1.325,0,0,1,.175.649v4.014a1.338,1.338,0,1,1-2.675,0v-4.014a1.336,1.336,0,0,1,1.295-1.333,16.059,16.059,0,0,0-1.652-6.07l-.275-.55a2.554,2.554,0,0,0-4.656,2.091l.126.316a16.058,16.058,0,0,1,1.149,5.963V796.1h8.027a2.676,2.676,0,0,1,2.676,2.676v1.338a2.676,2.676,0,0,1-2.676,2.676H496.1a5.352,5.352,0,0,0,5.352-5.351V796.1A5.352,5.352,0,0,0,496.1,790.746Z" transform="translate(-43.47 -66.663)" fill="none" stroke="#fff" stroke-miterlimit="10" stroke-width="1.3"/>
    <path id="Path_6296" data-name="Path 6296" d="M500.147,797.85h0a1.338,1.338,0,0,1,1.338,1.337V803.2a1.338,1.338,0,0,1-1.338,1.338h0a1.338,1.338,0,0,1-1.337-1.338v-4.014A1.338,1.338,0,0,1,500.147,797.85Z" transform="translate(-52.871 -80.457)" fill="none" stroke="#fff" stroke-miterlimit="10" stroke-width="1.3"/>
    <path id="Path_6297" data-name="Path 6297" d="M529.239,727.172a1.338,1.338,0,0,1-1.338-1.338v-7.007a22,22,0,0,1,2.177-9.706,17.611,17.611,0,0,0,1.837-7.777v-7.62a1.338,1.338,0,0,1,2.675,0v7.007a22,22,0,0,1-2.177,9.706,17.6,17.6,0,0,0-1.836,7.777v7.62A1.338,1.338,0,0,1,529.239,727.172Z" transform="translate(-71.26 -13.793)" fill="none" stroke="#fff" stroke-miterlimit="10" stroke-width="1.3"/>
    <path id="Path_6298" data-name="Path 6298" d="M543.786,757.846h0a1.338,1.338,0,0,1,1.338,1.338V763.2a1.338,1.338,0,0,1-1.338,1.338h0a1.338,1.338,0,0,1-1.338-1.338v-4.014A1.338,1.338,0,0,1,543.786,757.846Z" transform="translate(-80.455 -55.17)" fill="none" stroke="#fff" stroke-miterlimit="10" stroke-width="1.3"/>
    <path id="Path_6299" data-name="Path 6299" d="M560.232,717.865a7.491,7.491,0,0,1-3.237-6.271v-3.323a1.338,1.338,0,0,1,2.676,0v2.782a5.838,5.838,0,0,0,1.458,3.976c1.929,2.087,4.255,1.324,4.994-.305a5.361,5.361,0,0,1-3.777-5.115v-1.338a1.338,1.338,0,0,1,2.676,0v1.338a2.72,2.72,0,0,0,2.717,2.676,1.338,1.338,0,0,1,1.3,1.338C569.036,717.681,564.5,720.7,560.232,717.865Z" transform="translate(-89.651 -22.988)" fill="none" stroke="#fff" stroke-miterlimit="10" stroke-width="1.3"/>
    <path id="Path_6300" data-name="Path 6300" d="M560.232,754.232a7.493,7.493,0,0,1-3.237-6.271v-3.324a1.338,1.338,0,0,1,2.676,0v2.782a5.838,5.838,0,0,0,1.458,3.976c1.929,2.087,4.255,1.325,4.994-.3a5.362,5.362,0,0,1-3.777-5.115v-1.338a1.338,1.338,0,0,1,2.676,0v1.338a2.72,2.72,0,0,0,2.717,2.676,1.338,1.338,0,0,1,1.3,1.338c0,4.058-4.538,7.074-8.8,4.243Z" transform="translate(-89.651 -45.975)" fill="none" stroke="#fff" stroke-miterlimit="10" stroke-width="1.3"/>
    <path id="Path_6301" data-name="Path 6301" d="M522.317,709.363a6.213,6.213,0,0,1-3.462-1.106,7.493,7.493,0,0,1-3.237-6.271v-3.324a1.338,1.338,0,0,1,2.676,0v2.782a5.838,5.838,0,0,0,1.458,3.976c1.929,2.087,4.255,1.325,4.994-.3A5.362,5.362,0,0,1,520.969,700v-1.338a1.338,1.338,0,0,1,1.338-1.338v-1.34a6.217,6.217,0,0,1-3.452-1.107,7.491,7.491,0,0,1-3.237-6.271v-3.323a1.338,1.338,0,0,1,2.676,0v2.782a5.838,5.838,0,0,0,1.458,3.976c1.929,2.087,4.255,1.324,4.994-.305a5.361,5.361,0,0,1-3.777-5.115v-1.338a1.338,1.338,0,0,1,1.338-1.338,13.379,13.379,0,0,0-13.378-13.379H500.9a9.366,9.366,0,0,0-9.365,9.365,4.014,4.014,0,0,1,4.013-4.014H500.9a4.014,4.014,0,0,1,4.014,4.014v3.824a13.381,13.381,0,0,1-3.919,9.46l-1.527,1.528a13.378,13.378,0,0,0-3.919,9.46v13.189l10.7-2.676V713.38a1.338,1.338,0,0,1-1.338-1.338v-7.007a22,22,0,0,1,2.177-9.706,17.611,17.611,0,0,0,1.837-7.776v-7.62a1.338,1.338,0,0,1,2.675,0v7.007a22,22,0,0,1-2.177,9.706,17.6,17.6,0,0,0-1.836,7.777v5.613l2.821-1.411a1.327,1.327,0,0,1-.146-.6v-4.014a1.338,1.338,0,0,1,2.676,0v4.014a1.331,1.331,0,0,1-.392.946l1.73,1.73v6.69l10.7,2.675-.134-.268A24.078,24.078,0,0,1,522.317,709.363Z" transform="translate(-48.273 0)" fill="none" stroke="#fff" stroke-miterlimit="10" stroke-width="1.3"/>
  </g>
</svg>
