<svg xmlns="http://www.w3.org/2000/svg" width="76.725" height="76.725" viewBox="0 0 76.725 76.725">
  <g id="Group_5987" data-name="Group 5987" transform="translate(-646.578 -632.484)">
    <path id="Path_6206" data-name="Path 6206" d="M711.622,657.852v34.536a5.181,5.181,0,0,1-5.181,5.18H671.906a5.179,5.179,0,0,1-5.18-5.18V657.852a5.179,5.179,0,0,1,5.18-5.18h34.535A5.181,5.181,0,0,1,711.622,657.852Zm-5.181,31.082V661.306a3.452,3.452,0,0,0-3.453-3.454H675.36a3.453,3.453,0,0,0-3.454,3.454v27.628a3.454,3.454,0,0,0,3.454,3.454h27.628A3.453,3.453,0,0,0,706.441,688.934Z" transform="translate(-4.233 -4.242)" fill="#fff" stroke="#eb2127" stroke-miterlimit="10" stroke-width="1.5"/>
    <path id="Path_6207" data-name="Path 6207" d="M707.887,662.752V690.38a3.453,3.453,0,0,1-3.453,3.454H676.806a3.454,3.454,0,0,1-3.454-3.454V662.752a3.453,3.453,0,0,1,3.454-3.454h27.628A3.452,3.452,0,0,1,707.887,662.752Zm-10.965,19.087V669.265c0-.456-.437-.645-.949-.645-.494,0-.95.189-.95.645v12.575c0,.436.456.664.95.664C696.485,682.5,696.922,682.275,696.922,681.839Zm-3.473-.173a.531.531,0,0,0-.037-.17l-3.761-12.308a1.3,1.3,0,0,0-1.291-.684,1.267,1.267,0,0,0-1.273.684L683.306,681.5a.573.573,0,0,0-.019.171c0,.494.7.836,1.254.836a.648.648,0,0,0,.7-.421l.779-2.7h4.692l.779,2.7a.637.637,0,0,0,.684.419C692.747,682.5,693.449,682.142,693.449,681.667Z" transform="translate(-5.68 -5.688)" fill="#fff" stroke="#eb2127" stroke-miterlimit="10" stroke-width="1.5"/>
    <path id="Path_6208" data-name="Path 6208" d="M702.972,671.867v12.575c0,.436-.437.664-.949.664-.494,0-.95-.228-.95-.664V671.867c0-.456.456-.645.95-.645C702.535,671.222,702.972,671.411,702.972,671.867Z" transform="translate(-11.729 -8.291)" fill="#eb2127"/>
    <path id="Path_6209" data-name="Path 6209" d="M696.185,684.067a.532.532,0,0,1,.037.17c0,.475-.7.835-1.272.835a.637.637,0,0,1-.684-.419l-.779-2.7H688.8l-.779,2.7a.648.648,0,0,1-.7.421c-.551,0-1.254-.342-1.254-.836a.574.574,0,0,1,.019-.171l3.781-12.308a1.267,1.267,0,0,1,1.273-.684,1.3,1.3,0,0,1,1.291.684Zm-3.153-3.667-1.9-6.515-1.9,6.515Z" transform="translate(-8.453 -8.259)" fill="#eb2127"/>
    <path id="Path_6210" data-name="Path 6210" d="M692.019,674.669l1.9,6.515h-3.8Z" transform="translate(-9.339 -9.043)" fill="#fff"/>
    <g id="Group_5986" data-name="Group 5986" transform="translate(647.328 633.234)">
      <path id="Path_6211" data-name="Path 6211" d="M699.927,726.47a1.036,1.036,0,0,1-1.036-1.036V716.8a1.036,1.036,0,1,1,2.072,0v8.634A1.036,1.036,0,0,1,699.927,726.47Z" transform="translate(-658.581 -651.246)" fill="#fff" stroke="#eb2127" stroke-miterlimit="10" stroke-width="1.5"/>
      <path id="Path_6212" data-name="Path 6212" d="M690.376,726.47a1.037,1.037,0,0,1-1.037-1.036V716.8a1.036,1.036,0,0,1,2.072,0v8.634A1.036,1.036,0,0,1,690.376,726.47Z" transform="translate(-656.497 -651.246)" fill="#fff" stroke="#eb2127" stroke-miterlimit="10" stroke-width="1.5"/>
      <path id="Path_6213" data-name="Path 6213" d="M680.827,726.47a1.037,1.037,0,0,1-1.037-1.036V716.8a1.036,1.036,0,0,1,2.072,0v8.634A1.036,1.036,0,0,1,680.827,726.47Z" transform="translate(-654.413 -651.246)" fill="#fff" stroke="#eb2127" stroke-miterlimit="10" stroke-width="1.5"/>
      <path id="Path_6214" data-name="Path 6214" d="M709.476,726.47a1.036,1.036,0,0,1-1.037-1.036V716.8a1.036,1.036,0,0,1,2.072,0v8.634A1.036,1.036,0,0,1,709.476,726.47Z" transform="translate(-660.665 -651.246)" fill="#fff" stroke="#eb2127" stroke-miterlimit="10" stroke-width="1.5"/>
      <path id="Path_6215" data-name="Path 6215" d="M690.376,643.94a1.037,1.037,0,0,1-1.037-1.037v-8.633a1.036,1.036,0,1,1,2.072,0V642.9A1.036,1.036,0,0,1,690.376,643.94Z" transform="translate(-656.497 -633.234)" fill="#fff" stroke="#eb2127" stroke-miterlimit="10" stroke-width="1.5"/>
      <path id="Path_6216" data-name="Path 6216" d="M699.927,643.94a1.036,1.036,0,0,1-1.036-1.037v-8.633a1.036,1.036,0,1,1,2.072,0V642.9A1.036,1.036,0,0,1,699.927,643.94Z" transform="translate(-658.581 -633.234)" fill="#fff" stroke="#eb2127" stroke-miterlimit="10" stroke-width="1.5"/>
      <path id="Path_6217" data-name="Path 6217" d="M709.476,643.94a1.036,1.036,0,0,1-1.037-1.037v-8.633a1.036,1.036,0,1,1,2.072,0V642.9A1.036,1.036,0,0,1,709.476,643.94Z" transform="translate(-660.665 -633.234)" fill="#fff" stroke="#eb2127" stroke-miterlimit="10" stroke-width="1.5"/>
      <path id="Path_6218" data-name="Path 6218" d="M680.827,643.94a1.037,1.037,0,0,1-1.037-1.037v-8.633a1.036,1.036,0,1,1,2.072,0V642.9A1.036,1.036,0,0,1,680.827,643.94Z" transform="translate(-654.413 -633.234)" fill="#fff" stroke="#eb2127" stroke-miterlimit="10" stroke-width="1.5"/>
      <path id="Path_6219" data-name="Path 6219" d="M739.528,677.318h-8.634a1.037,1.037,0,0,1,0-2.073h8.634a1.037,1.037,0,0,1,0,2.073Z" transform="translate(-665.34 -642.403)" fill="#fff" stroke="#eb2127" stroke-miterlimit="10" stroke-width="1.5"/>
      <path id="Path_6220" data-name="Path 6220" d="M739.528,686.869h-8.634a1.036,1.036,0,0,1,0-2.072h8.634a1.036,1.036,0,1,1,0,2.072Z" transform="translate(-665.34 -644.487)" fill="#fff" stroke="#eb2127" stroke-miterlimit="10" stroke-width="1.5"/>
      <path id="Path_6221" data-name="Path 6221" d="M739.528,696.418h-8.634a1.036,1.036,0,0,1,0-2.072h8.634a1.036,1.036,0,1,1,0,2.072Z" transform="translate(-665.34 -646.571)" fill="#fff" stroke="#eb2127" stroke-miterlimit="10" stroke-width="1.5"/>
      <path id="Path_6222" data-name="Path 6222" d="M739.528,667.77h-8.634a1.036,1.036,0,0,1,0-2.073h8.634a1.036,1.036,0,1,1,0,2.073Z" transform="translate(-665.34 -640.319)" fill="#fff" stroke="#eb2127" stroke-miterlimit="10" stroke-width="1.5"/>
      <path id="Path_6223" data-name="Path 6223" d="M657,686.869h-8.634a1.036,1.036,0,0,1,0-2.072H657a1.036,1.036,0,0,1,0,2.072Z" transform="translate(-647.328 -644.487)" fill="#fff" stroke="#eb2127" stroke-miterlimit="10" stroke-width="1.5"/>
      <path id="Path_6224" data-name="Path 6224" d="M657,677.318h-8.634a1.037,1.037,0,0,1,0-2.073H657a1.037,1.037,0,0,1,0,2.073Z" transform="translate(-647.328 -642.403)" fill="#fff" stroke="#eb2127" stroke-miterlimit="10" stroke-width="1.5"/>
      <path id="Path_6225" data-name="Path 6225" d="M657,667.77h-8.634a1.036,1.036,0,0,1,0-2.073H657a1.036,1.036,0,0,1,0,2.073Z" transform="translate(-647.328 -640.319)" fill="#fff" stroke="#eb2127" stroke-miterlimit="10" stroke-width="1.5"/>
      <path id="Path_6226" data-name="Path 6226" d="M657,696.418h-8.634a1.036,1.036,0,0,1,0-2.072H657a1.036,1.036,0,0,1,0,2.072Z" transform="translate(-647.328 -646.571)" fill="#fff" stroke="#eb2127" stroke-miterlimit="10" stroke-width="1.5"/>
    </g>
  </g>
</svg>
