<svg xmlns="http://www.w3.org/2000/svg" width="85.347" height="82.801" viewBox="0 0 85.347 82.801">
  <g id="Group_6032" data-name="Group 6032" transform="translate(336.794 -115.827)">
    <path id="Path_6422" data-name="Path 6422" d="M-233.241,200h2.793v26.535h-2.793Z" transform="translate(-62.276 -51.154)" fill="#fff"/>
    <path id="Path_6423" data-name="Path 6423" d="M-233.241,131.209h2.793v4.19h-2.793Z" transform="translate(-62.276 -8.896)" fill="#fff"/>
    <path id="Path_6424" data-name="Path 6424" d="M-233.241,163.795h2.793v8.38h-2.793Z" transform="translate(-62.276 -28.913)" fill="#fff"/>
    <path id="Path_6425" data-name="Path 6425" d="M-276.948,166.9a6.983,6.983,0,0,1-6.983-6.983,6.983,6.983,0,0,1,6.983-6.983,9.786,9.786,0,0,1,9.776,9.776V165.5h-2.793V162.71a6.991,6.991,0,0,0-6.983-6.983,4.19,4.19,0,0,0-4.19,4.19,4.19,4.19,0,0,0,4.19,4.19,1.4,1.4,0,0,0,1.4-1.4,1.4,1.4,0,0,0-1.4-1.4V158.52a4.19,4.19,0,0,1,4.19,4.19A4.19,4.19,0,0,1-276.948,166.9Z" transform="translate(-31.138 -22.241)" fill="#fff"/>
    <path id="Path_6426" data-name="Path 6426" d="M-208.982,166.9a4.19,4.19,0,0,1-4.19-4.19,4.19,4.19,0,0,1,4.19-4.19v2.793a1.4,1.4,0,0,0-1.4,1.4,1.4,1.4,0,0,0,1.4,1.4,4.19,4.19,0,0,0,4.19-4.19,4.19,4.19,0,0,0-4.19-4.19,6.991,6.991,0,0,0-6.983,6.983V165.5h-2.793V162.71a9.786,9.786,0,0,1,9.776-9.776A6.983,6.983,0,0,1-202,159.917,6.983,6.983,0,0,1-208.982,166.9Z" transform="translate(-71.172 -22.241)" fill="#fff"/>
    <path id="Path_6427" data-name="Path 6427" d="M-334.621,247.071l5.586,5.586h2.793l5.586-5.586Z" transform="translate(0 -80.068)" fill="none" stroke="#fff" stroke-miterlimit="10" stroke-width="1.8"/>
    <path id="Path_6428" data-name="Path 6428" d="M-321.492,214.485a15.618,15.618,0,0,0-2.82,12.434l.027.135h5.586l.027-.135a15.618,15.618,0,0,0-2.82-12.434Z" transform="translate(-6.146 -60.051)" fill="none" stroke="#fff" stroke-miterlimit="10" stroke-width="1.8"/>
    <path id="Path_6429" data-name="Path 6429" d="M-146.862,247.071l-5.586,5.586h-2.793l-5.586-5.586Z" transform="translate(-106.758 -80.068)" fill="none" stroke="#fff" stroke-miterlimit="10" stroke-width="1.8"/>
    <path id="Path_6430" data-name="Path 6430" d="M-147.7,214.485a15.618,15.618,0,0,1,2.82,12.434l-.027.135h-5.586l-.027-.135a15.618,15.618,0,0,1,2.82-12.434Z" transform="translate(-112.904 -60.051)" fill="none" stroke="#fff" stroke-miterlimit="10" stroke-width="1.8"/>
    <path id="Path_6431" data-name="Path 6431" d="M-291.172,232.589l5.586,5.586h2.793l5.586-5.586Z" transform="translate(-26.69 -71.172)" fill="none" stroke="#fff" stroke-miterlimit="10" stroke-width="1.8"/>
    <path id="Path_6432" data-name="Path 6432" d="M-278.043,200a15.618,15.618,0,0,0-2.82,12.434l.027.136h5.586l.027-.136A15.618,15.618,0,0,0-278.043,200Z" transform="translate(-32.836 -51.154)" fill="none" stroke="#fff" stroke-miterlimit="10" stroke-width="1.8"/>
    <path id="Path_6433" data-name="Path 6433" d="M-204.276,232.589l5.586,5.586h2.793l5.586-5.586Z" transform="translate(-80.068 -71.172)" fill="none" stroke="#fff" stroke-miterlimit="10" stroke-width="1.8"/>
    <path id="Path_6434" data-name="Path 6434" d="M-191.147,200a15.618,15.618,0,0,0-2.82,12.434l.027.136h5.586l.027-.136A15.619,15.619,0,0,0-191.147,200Z" transform="translate(-86.215 -51.154)" fill="none" stroke="#fff" stroke-miterlimit="10" stroke-width="1.8"/>
    <path id="Path_6435" data-name="Path 6435" d="M-187,252.2v-5.13h-2.793v4.289A9.711,9.711,0,0,1-187,252.2Z" transform="translate(-88.965 -80.068)" fill="none" stroke="#fff" stroke-miterlimit="10" stroke-width="1.8"/>
    <path id="Path_6436" data-name="Path 6436" d="M-198.69,265.537v5.447a1.4,1.4,0,0,1-1.4,1.4,1.4,1.4,0,0,1-1.4-1.4v-5.445a6.934,6.934,0,0,0-2.793,1.265v4.18a4.2,4.2,0,0,0,4.19,4.19,4.2,4.2,0,0,0,4.19-4.19V266.8A6.933,6.933,0,0,0-198.69,265.537Z" transform="translate(-80.068 -91.411)" fill="none" stroke="#fff" stroke-miterlimit="10" stroke-width="1.8"/>
    <path id="Path_6437" data-name="Path 6437" d="M-273.9,251.36v-4.289h-2.793v5.13A9.717,9.717,0,0,1-273.9,251.36Z" transform="translate(-35.586 -80.068)" fill="none" stroke="#fff" stroke-miterlimit="10" stroke-width="1.8"/>
    <path id="Path_6438" data-name="Path 6438" d="M-271.1,265.539v5.445a1.4,1.4,0,0,1-1.4,1.4,1.4,1.4,0,0,1-1.4-1.4v-5.447a6.935,6.935,0,0,0-2.793,1.266v4.181a4.2,4.2,0,0,0,4.19,4.19,4.2,4.2,0,0,0,4.19-4.19V266.8A6.941,6.941,0,0,0-271.1,265.539Z" transform="translate(-35.586 -91.411)" fill="none" stroke="#fff" stroke-miterlimit="10" stroke-width="1.8"/>
    <path id="Path_6439" data-name="Path 6439" d="M-236.551,191.106h-8.38l-2.793-5.586h13.966Z" transform="translate(-53.379 -42.258)" fill="none" stroke="#fff" stroke-miterlimit="10" stroke-width="1.8"/>
    <g id="Group_6030" data-name="Group 6030" transform="translate(-289.93 167.003)">
      <path id="Path_6440" data-name="Path 6440" d="M-211.585,271.736a1.4,1.4,0,0,1,.026.262A1.4,1.4,0,0,0-211.585,271.736Z" transform="translate(214.352 -262.222)" fill="none" stroke="#fff" stroke-miterlimit="10" stroke-width="1.8"/>
      <path id="Path_6441" data-name="Path 6441" d="M-214.568,247.071a4.19,4.19,0,0,0-4.19,4.19v4.189h1.4a1.394,1.394,0,0,1,.33.044h0a9.827,9.827,0,0,1,1.068-1.292v-2.94a1.4,1.4,0,0,1,1.4-1.4,1.4,1.4,0,0,1,1.4,1.4v.946a9.691,9.691,0,0,1,2.793-.842v-.1A4.19,4.19,0,0,0-214.568,247.071Z" transform="translate(218.758 -247.071)" fill="none" stroke="#fff" stroke-miterlimit="10" stroke-width="1.8"/>
      <path id="Path_6442" data-name="Path 6442" d="M-211.771,271.105a1.435,1.435,0,0,1,.049.156A1.524,1.524,0,0,0-211.771,271.105Z" transform="translate(214.466 -261.835)" fill="none" stroke="#fff" stroke-miterlimit="10" stroke-width="1.8"/>
      <path id="Path_6443" data-name="Path 6443" d="M-212.421,270.045c.024.028.048.055.069.084C-212.374,270.1-212.4,270.073-212.421,270.045Z" transform="translate(214.865 -261.184)" fill="none" stroke="#fff" stroke-miterlimit="10" stroke-width="1.8"/>
      <path id="Path_6444" data-name="Path 6444" d="M-212.056,270.538c.023.038.044.077.064.117C-212.012,270.615-212.033,270.576-212.056,270.538Z" transform="translate(214.641 -261.486)" fill="none" stroke="#fff" stroke-miterlimit="10" stroke-width="1.8"/>
      <path id="Path_6445" data-name="Path 6445" d="M-212.773,269.7c-.018-.017-.038-.032-.057-.047C-212.811,269.664-212.791,269.678-212.773,269.7Z" transform="translate(215.117 -260.94)" fill="none" stroke="#fff" stroke-miterlimit="10" stroke-width="1.8"/>
    </g>
    <path id="Path_6446" data-name="Path 6446" d="M-236.293,150.45a4.189,4.189,0,0,1-4.19-4.189,4.19,4.19,0,0,1,4.19-4.19,4.19,4.19,0,0,1,4.19,4.19A4.194,4.194,0,0,1-236.293,150.45Zm0-5.586a1.4,1.4,0,0,0-1.4,1.4,1.4,1.4,0,0,0,1.4,1.4,1.4,1.4,0,0,0,1.4-1.4A1.4,1.4,0,0,0-236.293,144.864Z" transform="translate(-57.827 -15.568)" fill="none" stroke="#fff" stroke-miterlimit="10" stroke-width="1.8"/>
    <path id="Path_6447" data-name="Path 6447" d="M-247.724,116.727h13.966a5.586,5.586,0,0,1-5.586,5.586h-2.793a5.586,5.586,0,0,1-5.586-5.586Z" transform="translate(-53.379)" fill="none" stroke="#fff" stroke-miterlimit="10" stroke-width="1.8"/>
    <path id="Path_6448" data-name="Path 6448" d="M-292.207,264.746v-1.225a1.394,1.394,0,0,1,1.068-1.354,9.762,9.762,0,0,0-8.05-4.231h0a9.711,9.711,0,0,0-6.846,2.8,9.981,9.981,0,0,0-2.93,7.137v1.236a4.2,4.2,0,0,1-4.118,4.189,4.268,4.268,0,0,1-4.261-4.285v-9.681h-2.793v9.645a7.069,7.069,0,0,0,6.814,7.112l.153,0a6.99,6.99,0,0,0,7-6.983v-1.262a7.155,7.155,0,0,1,1.964-4.988,6.941,6.941,0,0,1,5.019-2.128,6.983,6.983,0,0,1,6.983,6.983,1.393,1.393,0,0,0,1.149,1.37A8.728,8.728,0,0,1-292.207,264.746Z" transform="translate(-8.897 -86.743)" fill="#fff"/>
    <path id="Path_6449" data-name="Path 6449" d="M-188.208,259.332v9.776a4.2,4.2,0,0,1-4.118,4.189,4.269,4.269,0,0,1-4.262-4.285v-1.141a9.983,9.983,0,0,0-2.931-7.139,9.711,9.711,0,0,0-6.845-2.8,9.764,9.764,0,0,0-8.05,4.231,1.4,1.4,0,0,1,1.068,1.354v1.225a8.736,8.736,0,0,1-1.149,4.337,1.394,1.394,0,0,0,1.149-1.371,6.982,6.982,0,0,1,6.982-6.982h0a6.942,6.942,0,0,1,5.021,2.13,7.157,7.157,0,0,1,1.963,4.987v1.131a7.069,7.069,0,0,0,6.814,7.112l.153,0a6.99,6.99,0,0,0,7-6.983v-9.776Z" transform="translate(-73.791 -86.743)" fill="#fff"/>
    <g id="Group_6031" data-name="Group 6031" transform="translate(-306.69 167.003)">
      <path id="Path_6450" data-name="Path 6450" d="M-247.547,271.105a1.416,1.416,0,0,0-.049.157A1.416,1.416,0,0,1-247.547,271.105Z" transform="translate(253.232 -261.835)" fill="none" stroke="#fff" stroke-miterlimit="10" stroke-width="1.8"/>
      <path id="Path_6451" data-name="Path 6451" d="M-247.7,271.736a1.4,1.4,0,0,0-.026.262A1.4,1.4,0,0,1-247.7,271.736Z" transform="translate(253.31 -262.222)" fill="none" stroke="#fff" stroke-miterlimit="10" stroke-width="1.8"/>
      <path id="Path_6452" data-name="Path 6452" d="M-256.621,254.2a9.843,9.843,0,0,1,1.068,1.293h0a1.387,1.387,0,0,1,.332-.044h1.4v-4.189a4.19,4.19,0,0,0-4.19-4.19,4.19,4.19,0,0,0-4.19,4.19v.1a9.7,9.7,0,0,1,2.793.841v-.945a1.4,1.4,0,0,1,1.4-1.4,1.4,1.4,0,0,1,1.4,1.4Z" transform="translate(262.207 -247.071)" fill="none" stroke="#fff" stroke-miterlimit="10" stroke-width="1.8"/>
      <path id="Path_6453" data-name="Path 6453" d="M-246.563,269.693c.02-.018.041-.034.061-.051C-246.522,269.659-246.543,269.674-246.563,269.693Z" transform="translate(252.597 -260.936)" fill="none" stroke="#fff" stroke-miterlimit="10" stroke-width="1.8"/>
      <path id="Path_6454" data-name="Path 6454" d="M-246.931,270.042c-.025.028-.049.056-.071.086C-246.98,270.1-246.955,270.07-246.931,270.042Z" transform="translate(252.867 -261.182)" fill="none" stroke="#fff" stroke-miterlimit="10" stroke-width="1.8"/>
      <path id="Path_6455" data-name="Path 6455" d="M-247.287,270.535c-.024.039-.044.078-.064.119C-247.331,270.613-247.31,270.574-247.287,270.535Z" transform="translate(253.081 -261.484)" fill="none" stroke="#fff" stroke-miterlimit="10" stroke-width="1.8"/>
    </g>
    <path id="Path_6456" data-name="Path 6456" d="M-240.741,279.968a1.393,1.393,0,0,1-.339-.042,8.759,8.759,0,0,1-6.644-8.51v-1.225a1.4,1.4,0,0,1,1.4-1.4h11.173a1.4,1.4,0,0,1,1.4,1.4v1.225a8.759,8.759,0,0,1-6.644,8.51A1.4,1.4,0,0,1-240.741,279.968Z" transform="translate(-53.379 -93.413)" fill="none" stroke="#fff" stroke-miterlimit="10" stroke-width="1.8"/>
    <path id="Path_6457" data-name="Path 6457" d="M-230.448,302.156v-5.393a8.771,8.771,0,0,1-1.058.343,1.4,1.4,0,0,1-.339.042,1.394,1.394,0,0,1-.339-.042,8.77,8.77,0,0,1-1.058-.343v5.393c.7-1.2,1.4-2.215,1.4-2.215S-231.146,300.952-230.448,302.156Z" transform="translate(-62.276 -110.593)" fill="#fff"/>
    <path id="Path_6458" data-name="Path 6458" d="M-231.276,310.588c0-1.542-2.793-5.586-2.793-5.586s-2.793,4.044-2.793,5.586a2.793,2.793,0,0,0,2.793,2.793A2.793,2.793,0,0,0-231.276,310.588Z" transform="translate(-60.051 -115.654)" fill="none" stroke="#fff" stroke-miterlimit="10" stroke-width="1.8"/>
  </g>
</svg>
