<svg xmlns="http://www.w3.org/2000/svg" width="66.373" height="73.122" viewBox="0 0 66.373 73.122">
  <g id="Group_6177" data-name="Group 6177" transform="translate(958.768 1013.868)">
    <path id="Path_6658" data-name="Path 6658" d="M-943.811-1013.018h38.45V-941.6h-52.557v-57.315Z" transform="translate(0)" fill="none" stroke="#fff" stroke-miterlimit="10" stroke-width="1.7"/>
    <path id="Path_6659" data-name="Path 6659" d="M-714.171-940.9h5.824v34.757h-5.824Z" transform="translate(-185.24 -54.804)" fill="none" stroke="#fff" stroke-miterlimit="10" stroke-width="1.7"/>
    <path id="Path_6660" data-name="Path 6660" d="M-708.347-796.1l-2.912,8.451-2.912-8.451Z" transform="translate(-185.24 -164.85)" fill="none" stroke="#fff" stroke-miterlimit="10" stroke-width="1.7"/>
    <path id="Path_6661" data-name="Path 6661" d="M-714.171-961.184l.942-6.405h3.94l.942,6.405Z" transform="translate(-185.24 -34.525)" fill="none" stroke="#fff" stroke-miterlimit="10" stroke-width="1.7"/>
    <g id="Path_6662" data-name="Path 6662" transform="translate(0)" fill="none" stroke-miterlimit="10">
      <path d="M-943.811-998.911h-14.107l14.107-14.107Z" stroke="none"/>
      <path d="M -945.5114135742188 -1000.611145019531 L -945.5114135742188 -1008.913818359375 L -953.81396484375 -1000.611145019531 L -945.5114135742188 -1000.611145019531 M -943.8114013671875 -998.9111328125 L -957.9180908203125 -998.9111328125 L -943.8114013671875 -1013.018005371094 L -943.8114013671875 -998.9111328125 Z" stroke="none" fill="#fff"/>
    </g>
    <g id="Group_6177-2" data-name="Group 6177" transform="translate(-947.098 -970.68)">
      <path id="Path_6663" data-name="Path 6663" d="M-912.842-790.571h4.131v9.312h-4.131Z" transform="translate(912.842 801.627)" fill="none" stroke="#fff" stroke-miterlimit="10" stroke-width="1.7"/>
      <path id="Path_6664" data-name="Path 6664" d="M-875.645-817.831h4.132v15.855h-4.132Z" transform="translate(884.573 822.344)" fill="none" stroke="#fff" stroke-miterlimit="10" stroke-width="1.7"/>
      <path id="Path_6665" data-name="Path 6665" d="M-838.447-807.309h4.132v13.33h-4.132Z" transform="translate(856.304 814.347)" fill="none" stroke="#fff" stroke-miterlimit="10" stroke-width="1.7"/>
      <path id="Path_6666" data-name="Path 6666" d="M-801.249-836.632h4.132v20.368h-4.132Z" transform="translate(828.035 836.632)" fill="none" stroke="#fff" stroke-miterlimit="10" stroke-width="1.7"/>
    </g>
    <path id="Path_6667" data-name="Path 6667" d="M-714.163-853.644h5.824v2.166h-5.824Z" transform="translate(-185.246 -121.119)" fill="none" stroke="#fff" stroke-miterlimit="10" stroke-width="1.7"/>
    <path id="Path_6668" data-name="Path 6668" d="M-885.354-893.35h-30.917a1.083,1.083,0,0,1-1.083-1.083,1.083,1.083,0,0,1,1.083-1.083h30.917a1.083,1.083,0,0,1,1.083,1.083A1.083,1.083,0,0,1-885.354-893.35Z" transform="translate(-30.827 -89.297)" fill="#fff"/>
    <path id="Path_6669" data-name="Path 6669" d="M-885.354-865.17h-30.917a1.083,1.083,0,0,1-1.083-1.083,1.083,1.083,0,0,1,1.083-1.083h30.917a1.083,1.083,0,0,1,1.083,1.083A1.083,1.083,0,0,1-885.354-865.17Z" transform="translate(-30.827 -110.714)" fill="#fff"/>
    <path id="Path_6670" data-name="Path 6670" d="M-885.354-921.538h-30.917a1.083,1.083,0,0,1-1.083-1.083,1.083,1.083,0,0,1,1.083-1.083h30.917a1.083,1.083,0,0,1,1.083,1.083A1.084,1.084,0,0,1-885.354-921.538Z" transform="translate(-30.827 -67.875)" fill="#fff"/>
    <path id="Path_6671" data-name="Path 6671" d="M-839.549-979.054H-856a1.083,1.083,0,0,1-1.083-1.083A1.083,1.083,0,0,1-856-981.22h16.45a1.083,1.083,0,0,1,1.083,1.083A1.083,1.083,0,0,1-839.549-979.054Z" transform="translate(-76.632 -24.166)" fill="#fff"/>
  </g>
</svg>
