<svg xmlns="http://www.w3.org/2000/svg" width="89.369" height="83.474" viewBox="0 0 89.369 83.474">
  <g id="Group_6183" data-name="Group 6183" transform="translate(2507.165 1646.566)">
    <path id="Path_6687" data-name="Path 6687" d="M-2405.981-1544.926v40.22c1.207-.739,22.536-14.325,22.536-40.22Z" transform="translate(-60.03 -59.903)" fill="none" stroke="#fff" stroke-miterlimit="10" stroke-width="1.7"/>
    <path id="Path_6688" data-name="Path 6688" d="M-2405.981-1645.049v40.22h22.536C-2383.445-1630.724-2404.774-1644.31-2405.981-1645.049Z" transform="translate(-60.03)" fill="none" stroke="#fff" stroke-miterlimit="10" stroke-width="1.7"/>
    <path id="Path_6689" data-name="Path 6689" d="M-2383.445-1544.926c0,25.9-21.33,39.481-22.536,40.22a40.22,40.22,0,0,0,40.22-40.22Z" transform="translate(-60.03 -59.903)" fill="none" stroke="#fff" stroke-miterlimit="10" stroke-width="1.7"/>
    <path id="Path_6690" data-name="Path 6690" d="M-2488.632-1604.373c0-25.895,21.33-39.48,22.537-40.22a40.22,40.22,0,0,0-40.22,40.22Z" transform="translate(0 -0.273)" fill="none" stroke="#fff" stroke-miterlimit="10" stroke-width="1.7"/>
    <path id="Path_6691" data-name="Path 6691" d="M-2439.547-1544.926v40.22c-1.208-.739-22.537-14.325-22.537-40.22Z" transform="translate(-26.463 -59.903)" fill="none" stroke="#fff" stroke-miterlimit="10" stroke-width="1.7"/>
    <path id="Path_6692" data-name="Path 6692" d="M-2439.547-1645.049v40.22h-22.537C-2462.084-1630.724-2440.754-1644.31-2439.547-1645.049Z" transform="translate(-26.463)" fill="none" stroke="#fff" stroke-miterlimit="10" stroke-width="1.7"/>
    <path id="Path_6693" data-name="Path 6693" d="M-2488.421-1544.926c0,25.9,21.33,39.481,22.537,40.22a40.22,40.22,0,0,1-40.22-40.22Z" transform="translate(-0.126 -59.903)" fill="none" stroke="#fff" stroke-miterlimit="10" stroke-width="1.7"/>
    <path id="Path_6694" data-name="Path 6694" d="M-2369.421-1617.842a2.785,2.785,0,0,1-3.937,0,2.78,2.78,0,0,1,0-3.937,2.78,2.78,0,0,1,3.8-.124,40.179,40.179,0,0,0-2.509-4.555,6.658,6.658,0,0,0-4.048,1.923,1.485,1.485,0,0,1-2.1,0,1.484,1.484,0,0,1,0-2.1,9.6,9.6,0,0,1,4.29-2.484,40.424,40.424,0,0,0-3.382-3.909,14.448,14.448,0,0,0-4.322,2.98,1.486,1.486,0,0,1-2.1,0,1.485,1.485,0,0,1,0-2.1,17.481,17.481,0,0,1,4.111-3.054,40.063,40.063,0,0,0-26.364-9.846c1.207.739,22.536,14.325,22.536,40.22h17.684a40.112,40.112,0,0,0-2.848-14.889A2.766,2.766,0,0,1-2369.421-1617.842Z" transform="translate(-60.03)" fill="none" stroke="#fff" stroke-miterlimit="10" stroke-width="1.7"/>
    <g id="Group_6182" data-name="Group 6182" transform="translate(-2444.193 -1637.264)">
      <path id="Path_6695" data-name="Path 6695" d="M-2322.051-1584.4a2.786,2.786,0,0,1-3.938,0,2.78,2.78,0,0,1,0-3.937,2.786,2.786,0,0,1,4.543.9A2.787,2.787,0,0,1-2322.051-1584.4Z" transform="translate(2336.793 1603.823)" fill="none" stroke="#fff" stroke-miterlimit="10" stroke-width="1.7"/>
      <path id="Path_6696" data-name="Path 6696" d="M-2325.958-1601.326a6.679,6.679,0,0,0-9.451,0,1.485,1.485,0,0,1-2.1,0,1.485,1.485,0,0,1,0-2.1,9.647,9.647,0,0,1,13.651,0,1.485,1.485,0,0,1,0,2.1A1.484,1.484,0,0,1-2325.958-1601.326Z" transform="translate(2343.457 1614.054)" fill="none" stroke="#fff" stroke-miterlimit="10" stroke-width="1.7"/>
      <path id="Path_6697" data-name="Path 6697" d="M-2328.656-1618.454a14.47,14.47,0,0,0-20.477,0,1.485,1.485,0,0,1-2.1,0,1.485,1.485,0,0,1,0-2.1,17.438,17.438,0,0,1,24.676,0,1.484,1.484,0,0,1,0,2.1A1.485,1.485,0,0,1-2328.656-1618.454Z" transform="translate(2351.668 1625.669)" fill="none" stroke="#fff" stroke-miterlimit="10" stroke-width="1.7"/>
    </g>
  </g>
</svg>
