<svg xmlns="http://www.w3.org/2000/svg" width="63.648" height="63.62" viewBox="0 0 63.648 63.62">
  <g id="Group_6013" data-name="Group 6013" transform="translate(-1277.178 -661.25)">
    <path id="Path_6326" data-name="Path 6326" d="M1495.551,882.12l-2.563-2.563a1.812,1.812,0,1,1,2.563-2.562l2.563,2.563a1.812,1.812,0,0,1-2.563,2.563Z" transform="translate(-167.329 -167.277)" fill="#fff"/>
    <path id="Path_6327" data-name="Path 6327" d="M1320.4,706.972l-2.563-2.563a1.812,1.812,0,0,1,2.562-2.563l2.563,2.563a1.812,1.812,0,0,1-2.562,2.563Z" transform="translate(-30.621 -30.57)" fill="#fff"/>
    <path id="Path_6328" data-name="Path 6328" d="M1522.435,825.985a1.812,1.812,0,0,1,2.22-1.281l3.5.938a1.812,1.812,0,1,1-.938,3.5l-3.5-.938A1.813,1.813,0,0,1,1522.435,825.985Z" transform="translate(-190.679 -126.829)" fill="#fff"/>
    <path id="Path_6329" data-name="Path 6329" d="M1283.18,761.878a1.812,1.812,0,0,1,2.22-1.281l3.5.939a1.812,1.812,0,0,1-.938,3.5l-3.5-.938A1.813,1.813,0,0,1,1283.18,761.878Z" transform="translate(-3.934 -76.791)" fill="#fff"/>
    <path id="Path_6330" data-name="Path 6330" d="M1441.636,912.159l-.938-3.5a1.812,1.812,0,0,1,3.5-.938l.939,3.5a1.812,1.812,0,0,1-3.5.938Z" transform="translate(-126.88 -190.625)" fill="#fff"/>
    <path id="Path_6331" data-name="Path 6331" d="M1377.529,672.908l-.938-3.5a1.812,1.812,0,1,1,3.5-.938l.938,3.5a1.812,1.812,0,1,1-3.5.938Z" transform="translate(-76.843 -3.883)" fill="#fff"/>
    <path id="Path_6332" data-name="Path 6332" d="M1319.33,766.181h0a16.172,16.172,0,0,0-3.921-6.33,15.925,15.925,0,0,0-6.329-3.921l-.077.077a7.27,7.27,0,0,0,0,10.251,7.27,7.27,0,0,1,0,10.25h0l-.077.077h0l-9.423,9.4a7.248,7.248,0,0,1-10.251-10.251l9.423-9.4a16.423,16.423,0,0,1,0-10.4,15.924,15.924,0,0,0-6.329,3.921l-9.5,9.5a16.3,16.3,0,0,0,23.064,23.04l9.5-9.476a16.169,16.169,0,0,0,3.921-6.33h0A16.422,16.422,0,0,0,1319.33,766.181Z" transform="translate(0 -73.198)" fill="none" stroke="#fff" stroke-miterlimit="10" stroke-width="1.8"/>
    <path id="Path_6333" data-name="Path 6333" d="M1405.4,666.926a16.31,16.31,0,0,0-23.064,0l-9.5,9.476a16.175,16.175,0,0,0-3.921,6.33,16.422,16.422,0,0,0,0,10.4,16.273,16.273,0,0,0,10.251,10.251l.077-.077a7.27,7.27,0,0,0,0-10.251,7.27,7.27,0,0,1,0-10.251l9.5-9.476a7.124,7.124,0,0,1,5.125-2.1,1.171,1.171,0,0,1,.589.026,6.92,6.92,0,0,1,4.536,2.076,7.27,7.27,0,0,1,0,10.251l-9.423,9.4a16.422,16.422,0,0,1,0,10.4,16.522,16.522,0,0,0,6.33-3.921l9.5-9.476A16.334,16.334,0,0,0,1405.4,666.926Z" transform="translate(-70.241)" fill="none" stroke="#fff" stroke-miterlimit="10" stroke-width="1.8"/>
  </g>
</svg>
