<svg xmlns="http://www.w3.org/2000/svg" width="66.433" height="72.589" viewBox="0 0 66.433 72.589">
  <g id="Group_5099" data-name="Group 5099" transform="translate(-454.268 -1251.026)">
    <path id="Path_4555" data-name="Path 4555" d="M503.119,1347.479h-4.767c-.339,0-.614.464-.614,1.038v22.213c0,.574.275,1.04.614,1.04h4.767c.339,0,.613-.465.613-1.04v-22.213C503.734,1347.943,503.459,1347.479,503.119,1347.479Z" transform="translate(-23.029 -51.691)" fill="none" stroke="#fff" stroke-miterlimit="10" stroke-width="1.8"/>
    <path id="Path_4556" data-name="Path 4556" d="M476.541,1275.9a1.93,1.93,0,0,0-1.569-1.323l-4.724-.686-2.113-4.282a1.944,1.944,0,0,0-3.485,0l-2.113,4.282-4.724.686a1.944,1.944,0,0,0-1.077,3.315l3.419,3.332-.807,4.7a1.941,1.941,0,0,0,2.819,2.049l4.226-2.221,4.225,2.221a1.943,1.943,0,0,0,2.82-2.049l-.807-4.7,3.419-3.332A1.934,1.934,0,0,0,476.541,1275.9Z" transform="translate(-0.53 -8.979)" fill="none" stroke="#fff" stroke-miterlimit="10" stroke-width="1.8"/>
    <path id="Path_4557" data-name="Path 4557" d="M524.151,1259.3a1.931,1.931,0,0,0-1.568-1.323l-4.724-.686-2.113-4.28a1.943,1.943,0,0,0-3.485,0l-2.113,4.28-4.724.686a1.944,1.944,0,0,0-1.077,3.315l3.419,3.334-.807,4.7a1.943,1.943,0,0,0,2.819,2.048l4.225-2.221,4.226,2.221a1.955,1.955,0,0,0,.906.224,1.945,1.945,0,0,0,1.913-2.273l-.807-4.7,3.419-3.334A1.932,1.932,0,0,0,524.151,1259.3Z" transform="translate(-26.286)" fill="none" stroke="#fff" stroke-miterlimit="10" stroke-width="1.8"/>
    <path id="Path_4558" data-name="Path 4558" d="M571.674,1275.9a1.928,1.928,0,0,0-1.568-1.323l-4.724-.686-2.113-4.282a1.945,1.945,0,0,0-3.486,0l-2.112,4.282-4.724.686a1.944,1.944,0,0,0-1.077,3.315l3.418,3.332-.807,4.7a1.943,1.943,0,0,0,2.82,2.049l4.225-2.221,4.225,2.221a1.943,1.943,0,0,0,2.82-2.049l-.807-4.7,3.419-3.332A1.933,1.933,0,0,0,571.674,1275.9Z" transform="translate(-51.993 -8.979)" fill="none" stroke="#fff" stroke-miterlimit="10" stroke-width="1.8"/>
    <path id="Path_4559" data-name="Path 4559" d="M473.671,1342.772H456.207a1.039,1.039,0,0,0-1.039,1.04v26.533a1.04,1.04,0,0,0,1.039,1.04h17.465a1.039,1.039,0,0,0,1.038-1.04v-26.533A1.039,1.039,0,0,0,473.671,1342.772Z" transform="translate(0 -49.144)" fill="none" stroke="#fff" stroke-miterlimit="10" stroke-width="1.8"/>
    <path id="Path_4560" data-name="Path 4560" d="M481.509,1387.6a1.654,1.654,0,1,1-1.654,1.653A1.654,1.654,0,0,1,481.509,1387.6Z" transform="translate(-13.355 -73.396)" fill="none" stroke="#fff" stroke-miterlimit="10" stroke-width="1.8"/>
    <path id="Path_4561" data-name="Path 4561" d="M532.654,1355.452c-2.08,0-3.773-1.21-3.773-2.7s1.693-2.7,3.773-2.7c-2.08,0-3.772-1.225-3.772-2.732s1.692-2.733,3.772-2.733h-.291c-1.92,0-3.481-1.132-3.481-2.523v-.422c0-1.391,1.562-2.523,3.481-2.523-1.92,0-3.481-1.131-3.481-2.522v-.422c0-1.391,1.562-2.522,3.481-2.522h.373l-1.291-.6,2.174-10.96a11.72,11.72,0,0,0,.1-4.2c-.368-2.242-1.552-4.915-5.1-4.915a1.038,1.038,0,0,0-1.023.865l-.682,4.012a31.088,31.088,0,0,1-1.1,4.488c-1.273,3.855-2.877,5.833-5.725,7.052-1.368.585-2.479,1.086-2.923,1.287h-5.325a1.038,1.038,0,0,0-1.039,1.038v18.819a1.038,1.038,0,0,0,1.039,1.038h5.183l2.232,1.807a10.592,10.592,0,0,0,6.646,2.354h6.33a1.033,1.033,0,0,0,.72-.292Z" transform="translate(-30.093 -33.03)" fill="none" stroke="#fff" stroke-miterlimit="10" stroke-width="1.8"/>
    <path id="Path_4562" data-name="Path 4562" d="M565.761,1363.485H564.5c1.92,0,3.481-1.132,3.481-2.522v-.422c0-1.391-1.562-2.522-3.481-2.522H553.675c-1.92,0-3.481,1.131-3.481,2.522v.422c0,1.391,1.562,2.522,3.481,2.522-1.92,0-3.481,1.132-3.481,2.523v.422c0,1.391,1.562,2.523,3.481,2.523h.292c-2.08,0-3.772,1.225-3.772,2.733s1.692,2.732,3.772,2.732c-2.08,0-3.773,1.211-3.773,2.7s1.693,2.7,3.773,2.7h7.421c2.08,0,3.772-1.21,3.772-2.7s-1.692-2.7-3.772-2.7h2.819c2.08,0,3.772-1.225,3.772-2.732s-1.693-2.733-3.772-2.733h1.554c1.92,0,3.481-1.132,3.481-2.523v-.422C569.243,1364.617,567.681,1363.485,565.761,1363.485Z" transform="translate(-51.406 -57.392)" fill="none" stroke="#fff" stroke-miterlimit="10" stroke-width="1.8"/>
    <line id="Line_314" data-name="Line 314" x1="7.993" y1="0.035" transform="translate(501.989 1316.991)" fill="none" stroke="#fff" stroke-miterlimit="10" stroke-width="1.8"/>
    <line id="Line_315" data-name="Line 315" x1="10.531" transform="translate(502.27 1311.561)" fill="none" stroke="#fff" stroke-miterlimit="10" stroke-width="1.8"/>
    <line id="Line_316" data-name="Line 316" x1="11.448" transform="translate(502.27 1306.05)" fill="none" stroke="#fff" stroke-miterlimit="10" stroke-width="1.8"/>
  </g>
</svg>
