<svg xmlns="http://www.w3.org/2000/svg" width="68.153" height="69.023" viewBox="0 0 68.153 69.023">
  <g id="Group_5231" data-name="Group 5231" transform="translate(-711.139 -1138.874)">
    <path id="Path_4563" data-name="Path 4563" d="M743.082,1206.027v-2.613h-.587a1.073,1.073,0,0,1-1.073-1.073v-2.211a4.056,4.056,0,0,1,4.056-4.056h6.485v-.576a8.362,8.362,0,0,1,2.1-5.487,8.361,8.361,0,0,0,2.1-5.486v-.034a9.735,9.735,0,0,0-2.587-6.463,6.75,6.75,0,0,1-1.761-4.51,7.141,7.141,0,0,1,4.039-6.268h0c.052-.027.106-.05.159-.076.1-.049.2-.1.3-.145h0a8.867,8.867,0,0,1,3.974-.745,8.744,8.744,0,0,1,3.108.706v-13.135a3.412,3.412,0,0,0-.307-1.413l-.2-.159h-7.739a4.5,4.5,0,0,1-4.055-4.476v-7.448a3.414,3.414,0,0,0-1.59-.394H716.543a4.5,4.5,0,0,0-4.5,4.5v58.023a4.5,4.5,0,0,0,4.5,4.5h28.072C743.768,1207,743.082,1206.562,743.082,1206.027Z" transform="translate(0)" fill="none" stroke="#fff" stroke-miterlimit="10" stroke-width="1.8"/>
    <path id="Path_4564" data-name="Path 4564" d="M754.476,1185.4h-13.7a1.953,1.953,0,0,1-1.953-1.953v-13.7a1.953,1.953,0,0,1,1.953-1.953h13.7a1.953,1.953,0,0,1,1.953,1.953v13.7A1.953,1.953,0,0,1,754.476,1185.4Z" transform="translate(-20.989 -21.805)" fill="none" stroke="#fff" stroke-miterlimit="10" stroke-width="1.8"/>
    <g id="Group_5100" data-name="Group 5100" transform="translate(721.652 1150.253)">
      <path id="Path_4565" data-name="Path 4565" d="M760.857,1196.266a1,1,0,0,1-.6-.2l-3.4-2.513a1.012,1.012,0,0,1,1.2-1.627l2.609,1.929,4.681-5.976a1.012,1.012,0,0,1,1.593,1.248l-5.287,6.75A1.01,1.01,0,0,1,760.857,1196.266Z" transform="translate(-756.446 -1187.493)" fill="#fff"/>
    </g>
    <g id="Group_5102" data-name="Group 5102" transform="translate(741.422 1166.274)">
      <path id="Path_4566" data-name="Path 4566" d="M907.625,1279.754v-.022a9.374,9.374,0,0,1,2.5-6.38,6.749,6.749,0,0,0,1.842-4.888c-.159-3.734-3.532-6.78-7.7-6.951a8.867,8.867,0,0,0-3.974.745h0c-.1.046-.2.1-.3.145-.053.026-.107.049-.159.076h0a7.14,7.14,0,0,0-4.039,6.268,6.75,6.75,0,0,0,1.761,4.51,9.735,9.735,0,0,1,2.587,6.463v.034a8.361,8.361,0,0,1-2.1,5.487,8.363,8.363,0,0,0-2.1,5.487v.844h15.888v-.844a8.362,8.362,0,0,0-2.1-5.487A8.361,8.361,0,0,1,907.625,1279.754Z" transform="translate(-885.398 -1261.504)" fill="none" stroke="#fff" stroke-miterlimit="10" stroke-width="1.8"/>
      <g id="Group_5101" data-name="Group 5101" transform="translate(0 29.798)">
        <path id="Path_4567" data-name="Path 4567" d="M880.927,1433.068H855.439v2.613c0,.535.687.969,1.534.969h30.583c.847,0,1.534-.434,1.534-.969v-2.613Z" transform="translate(-853.779 -1425.727)" fill="none" stroke="#fff" stroke-miterlimit="10" stroke-width="1.8"/>
        <path id="Path_4568" data-name="Path 4568" d="M880.687,1399.158H851.828a4.056,4.056,0,0,0-4.056,4.056v2.211a1.073,1.073,0,0,0,1.073,1.074H883.67a1.073,1.073,0,0,0,1.073-1.074v-2.211A4.056,4.056,0,0,0,880.687,1399.158Z" transform="translate(-847.772 -1399.158)" fill="none" stroke="#fff" stroke-miterlimit="10" stroke-width="1.8"/>
      </g>
    </g>
    <path id="Path_4569" data-name="Path 4569" d="M903.135,1152.554l-10.478-10.478a3.41,3.41,0,0,0-1-.692v7.664a4.5,4.5,0,0,0,4.5,4.5h7.665A3.412,3.412,0,0,0,903.135,1152.554Z" transform="translate(-140.736 -1.113)" fill="none" stroke="#fff" stroke-miterlimit="10" stroke-width="1.8"/>
  </g>
</svg>
