<svg xmlns="http://www.w3.org/2000/svg" width="73.36" height="75.077" viewBox="0 0 73.36 75.077">
  <g id="Group_5218" data-name="Group 5218" transform="translate(-1663.43 -948.148)">
    <path id="Path_4771" data-name="Path 4771" d="M1688.064,994.077l-4.415-3.556a3.175,3.175,0,0,1-.473-.468,3.128,3.128,0,1,1,5.211-3.4l.529,1.026-.911-4.309-5.275-9.918a9.132,9.132,0,1,0-16.125,8.578l10.525,19.786h7.109c-.023-.251-.038-.5-.038-.762A8.23,8.23,0,0,1,1688.064,994.077Z" transform="translate(-1.036 -16.878)" fill="none" stroke="#fff" stroke-miterlimit="10" stroke-width="1.5"/>
    <g id="Group_5213" data-name="Group 5213" transform="translate(1703.327 968.779)">
      <path id="Path_4772" data-name="Path 4772" d="M1965.414,1087.242h10.949a1.31,1.31,0,0,1,1.31,1.31v4.435H1964.1v-4.435A1.309,1.309,0,0,1,1965.414,1087.242Z" transform="translate(-1960.028 -1087.242)" fill="none" stroke="#fff" stroke-miterlimit="10" stroke-width="1.5"/>
      <g id="Group_5212" data-name="Group 5212" transform="translate(0 5.744)">
        <path id="Path_4773" data-name="Path 4773" d="M1957.461,1137.632v-5.294l-4.075-5.123h-13.569l-4.076,5.123v5.294Z" transform="translate(-1935.74 -1127.215)" fill="none" stroke="#fff" stroke-miterlimit="10" stroke-width="1.5"/>
      </g>
    </g>
    <path id="Path_4774" data-name="Path 4774" d="M1729.116,1136.677c-.73-1.372-4.081-1.016-7.485.794-.37.2-.725.4-1.063.616l2.6,4.89q.548-.243,1.1-.537C1727.678,1140.629,1729.846,1138.049,1729.116,1136.677Z" transform="translate(-48.162 -160.079)" fill="none" stroke="#fff" stroke-miterlimit="10" stroke-width="1.5"/>
    <path id="Path_4775" data-name="Path 4775" d="M1685.6,1069.74q-.556.3-1.063.616l2.6,4.89q.548-.243,1.1-.538c3.4-1.81,5.573-4.39,4.843-5.762S1689.008,1067.929,1685.6,1069.74Z" transform="translate(-17.312 -102.081)" fill="none" stroke="#fff" stroke-miterlimit="10" stroke-width="1.5"/>
    <path id="Path_4776" data-name="Path 4776" d="M1910.826,951.661v6.178a.331.331,0,0,0,.331.331h9.082a.331.331,0,0,0,.331-.331v-6.178a2.763,2.763,0,0,0-2.763-2.763h-4.219A2.763,2.763,0,0,0,1910.826,951.661Z" transform="translate(-211.079)" fill="none" stroke="#fff" stroke-miterlimit="10" stroke-width="1.5"/>
    <g id="Group_5214" data-name="Group 5214" transform="translate(1683.823 997.948)">
      <path id="Path_4777" data-name="Path 4777" d="M1803.724,1295.748a1.855,1.855,0,1,1-3.71,0v-3.673a1.855,1.855,0,1,1,3.71,0Z" transform="translate(-1800.014 -1290.219)" fill="none" stroke="#fff" stroke-miterlimit="10" stroke-width="1.5"/>
      <path id="Path_4778" data-name="Path 4778" d="M1853.939,1379.271a1.855,1.855,0,0,1-3.71,0V1375.6a1.855,1.855,0,0,1,3.71,0Z" transform="translate(-1843.013 -1361.739)" fill="none" stroke="#fff" stroke-miterlimit="10" stroke-width="1.5"/>
      <path id="Path_4779" data-name="Path 4779" d="M1904.157,1295.748a1.855,1.855,0,1,1-3.71,0v-3.673a1.855,1.855,0,1,1,3.71,0Z" transform="translate(-1886.014 -1290.219)" fill="none" stroke="#fff" stroke-miterlimit="10" stroke-width="1.5"/>
      <path id="Path_4780" data-name="Path 4780" d="M1954.372,1379.271a1.855,1.855,0,0,1-3.711,0V1375.6a1.855,1.855,0,0,1,3.711,0Z" transform="translate(-1929.013 -1361.739)" fill="none" stroke="#fff" stroke-miterlimit="10" stroke-width="1.5"/>
      <path id="Path_4781" data-name="Path 4781" d="M2004.591,1295.748a1.855,1.855,0,1,1-3.71,0v-3.673a1.855,1.855,0,1,1,3.71,0Z" transform="translate(-1972.015 -1290.219)" fill="none" stroke="#fff" stroke-miterlimit="10" stroke-width="1.5"/>
    </g>
    <path id="Path_4782" data-name="Path 4782" d="M1772.172,1253.5h-36.637l-8.45,14.081,1.438,12.288a3.887,3.887,0,0,0,3.86,3.435h42.94a3.887,3.887,0,0,0,3.86-3.435l1.438-12.288Z" transform="translate(-53.743 -260.832)" fill="none" stroke="#fff" stroke-miterlimit="10" stroke-width="1.5"/>
    <path id="Path_4783" data-name="Path 4783" d="M2079.148,1260.78l.851-7.276h-5.217Z" transform="translate(-351.474 -260.832)" fill="none" stroke="#fff" stroke-miterlimit="10" stroke-width="1.5"/>
    <path id="Path_4784" data-name="Path 4784" d="M1716.474,1260.781l4.367-7.277h-5.218l.613,5.244Z" transform="translate(-43.928 -260.832)" fill="none" stroke="#fff" stroke-miterlimit="10" stroke-width="1.5"/>
    <g id="Group_5215" data-name="Group 5215" transform="translate(1664.323 987.582)">
      <path id="Path_4785" data-name="Path 4785" d="M2047.851,1246.806a2.094,2.094,0,0,1-2.088-1l-14.735-24.556a2.092,2.092,0,1,1,3.588-2.153l14.735,24.556a2.093,2.093,0,0,1-1.5,3.148Z" transform="translate(-1978.075 -1218.087)" fill="none" stroke="#fff" stroke-miterlimit="10" stroke-width="1.5"/>
      <path id="Path_4786" data-name="Path 4786" d="M1666.122,1246.806a2.094,2.094,0,0,0,2.088-1l14.735-24.556a2.092,2.092,0,1,0-3.587-2.153l-14.736,24.556a2.093,2.093,0,0,0,1.5,3.148Z" transform="translate(-1664.323 -1218.087)" fill="none" stroke="#fff" stroke-miterlimit="10" stroke-width="1.5"/>
    </g>
    <path id="Path_4787" data-name="Path 4787" d="M1896.463,1023.274c-.593-1.114-2.715-2.612-4.128-3.524a2.884,2.884,0,0,1-1.316-2.423v-3.9h-8.138v3.9a2.883,2.883,0,0,1-1.316,2.423,20.6,20.6,0,0,0-3.565,2.773l-.747,3.533.53-1.027a3.128,3.128,0,1,1,4.738,3.866l-4.415,3.556a8.23,8.23,0,0,1,3.863,6.979c0,.258-.014.511-.038.762h3.726V1034.9l4.076-5.123v-4.435a1.309,1.309,0,0,1,1.31-1.31h5.755A6.671,6.671,0,0,0,1896.463,1023.274Z" transform="translate(-182.332 -55.252)" fill="none" stroke="#fff" stroke-miterlimit="10" stroke-width="1.5"/>
    <path id="Path_4788" data-name="Path 4788" d="M1689.661,1207.434h7.19l2.445-4.074a2.092,2.092,0,1,1,3.587,2.153l-1.153,1.921h36.637l-1.153-1.921a2.092,2.092,0,1,1,3.588-2.153l2.444,4.074h7.19a2.054,2.054,0,0,0,2.053-2.053v-3.624a2.054,2.054,0,0,0-2.053-2.054h-60.776a2.054,2.054,0,0,0-2.054,2.054v3.624A2.054,2.054,0,0,0,1689.661,1207.434Z" transform="translate(-19.938 -214.763)" fill="none" stroke="#fff" stroke-miterlimit="10" stroke-width="1.5"/>
    <path id="Path_4789" data-name="Path 4789" d="M2034.923,1157.519h-5.488a1.078,1.078,0,1,1,0-2.156h5.488a1.078,1.078,0,1,1,0,2.156Z" transform="translate(-311.72 -176.795)" fill="none" stroke="#fff" stroke-miterlimit="10" stroke-width="1.5"/>
    <g id="Group_5217" data-name="Group 5217" transform="translate(1681.436 959.384)">
      <g id="Group_5216" data-name="Group 5216" transform="translate(1.728 16.556)">
        <path id="Path_4790" data-name="Path 4790" d="M1811.869,1146.078c.023-.251.038-.5.038-.762a8.237,8.237,0,0,0-16.474,0c0,.258.014.511.038.762Z" transform="translate(-1795.432 -1137.078)" fill="none" stroke="#fff" stroke-miterlimit="10" stroke-width="1.5"/>
      </g>
      <path id="Path_4791" data-name="Path 4791" d="M1791.379,1092.263h0v0c0-.005,0-.01,0-.015l-1.524-7.21-.529-1.026a3.128,3.128,0,1,0-5.211,3.4,3.177,3.177,0,0,0,.473.468l6.624,5.336.008.006h0a1.323,1.323,0,0,0,.977.284A2.038,2.038,0,0,1,1791.379,1092.263Z" transform="translate(-1783.407 -1073.618)" fill="none" stroke="#fff" stroke-miterlimit="10" stroke-width="1.5"/>
      <path id="Path_4792" data-name="Path 4792" d="M1826.077,1040.511l0-.015c.8-3.8.807-3.816,2.706-12.8a4.811,4.811,0,1,0-9.406,0l2.706,12.8s0,.01,0,.015v0h0a2.037,2.037,0,0,0,3.986,0Z" transform="translate(-1814.118 -1021.867)" fill="none" stroke="#fff" stroke-miterlimit="10" stroke-width="1.5"/>
      <path id="Path_4793" data-name="Path 4793" d="M1868.587,1083.007a3.126,3.126,0,0,0-4.764,1l-.53,1.027-1.524,7.209,0,.015v0a2.038,2.038,0,0,1-.815,1.24,1.322,1.322,0,0,0,.977-.284h0l.008-.006,6.624-5.336a3.128,3.128,0,0,0,.026-4.869Z" transform="translate(-1849.807 -1073.618)" fill="none" stroke="#fff" stroke-miterlimit="10" stroke-width="1.5"/>
    </g>
  </g>
</svg>
