<svg xmlns="http://www.w3.org/2000/svg" width="82.272" height="84.217" viewBox="0 0 82.272 84.217">
  <g id="Group_4910" data-name="Group 4910" transform="translate(-361.249 -638.796)">
    <path id="Path_4167" data-name="Path 4167" d="M403.241,655.415h16.711v33.423H403.241Z" transform="translate(-18.109 -6.961)" fill="none" stroke="#fff" stroke-miterlimit="10" stroke-width="1.5"/>
    <g id="Group_4909" data-name="Group 4909" transform="translate(387.917 652.631)">
      <path id="Path_4168" data-name="Path 4168" d="M417.955,665.649H409.6a1.393,1.393,0,0,1,0-2.786h8.356a1.393,1.393,0,0,1,0,2.786Z" transform="translate(-408.206 -662.863)" fill="none" stroke="#fff" stroke-miterlimit="10" stroke-width="1.5"/>
      <path id="Path_4169" data-name="Path 4169" d="M417.955,675.58H409.6a1.393,1.393,0,0,1,0-2.786h8.356a1.393,1.393,0,0,1,0,2.786Z" transform="translate(-408.206 -667.224)" fill="none" stroke="#fff" stroke-miterlimit="10" stroke-width="1.5"/>
      <path id="Path_4170" data-name="Path 4170" d="M417.955,685.51H409.6a1.392,1.392,0,1,1,0-2.784h8.356a1.392,1.392,0,1,1,0,2.784Z" transform="translate(-408.206 -671.585)" fill="none" stroke="#fff" stroke-miterlimit="10" stroke-width="1.5"/>
      <path id="Path_4171" data-name="Path 4171" d="M417.955,695.442H409.6a1.393,1.393,0,1,1,0-2.785h8.356a1.393,1.393,0,0,1,0,2.785Z" transform="translate(-408.206 -675.945)" fill="none" stroke="#fff" stroke-miterlimit="10" stroke-width="1.5"/>
      <path id="Path_4172" data-name="Path 4172" d="M417.955,705.373H409.6a1.393,1.393,0,0,1,0-2.786h8.356a1.393,1.393,0,0,1,0,2.786Z" transform="translate(-408.206 -680.305)" fill="none" stroke="#fff" stroke-miterlimit="10" stroke-width="1.5"/>
    </g>
    <path id="Path_4173" data-name="Path 4173" d="M463.965,665.347h18.1V693.2h-18.1Z" transform="translate(-44.771 -11.322)" fill="none" stroke="#fff" stroke-miterlimit="10" stroke-width="1.5"/>
    <path id="Path_4174" data-name="Path 4174" d="M379.925,655.014a2.561,2.561,0,0,1-2.611,2.507,2.665,2.665,0,0,1-1.321-.346,4.48,4.48,0,0,1-6.062,0,2.664,2.664,0,0,1-1.32.346,2.509,2.509,0,1,1,0-5.014,2.644,2.644,0,0,1,.352.023,4.427,4.427,0,0,1,8,0,2.653,2.653,0,0,1,.353-.023A2.562,2.562,0,0,1,379.925,655.014Z" transform="translate(-1.756 -4.584)" fill="none" stroke="#fff" stroke-miterlimit="10" stroke-width="1.5"/>
    <path id="Path_4175" data-name="Path 4175" d="M481.616,644.575A2.561,2.561,0,0,1,479,647.082a2.667,2.667,0,0,1-1.321-.346,4.48,4.48,0,0,1-6.062,0,2.665,2.665,0,0,1-1.321.346,2.509,2.509,0,1,1,0-5.014,2.741,2.741,0,0,1,.353.023,4.426,4.426,0,0,1,8,0,2.755,2.755,0,0,1,.353-.023,2.561,2.561,0,0,1,2.611,2.507Z" transform="translate(-46.406)" fill="none" stroke="#fff" stroke-miterlimit="10" stroke-width="1.5"/>
    <path id="Path_4176" data-name="Path 4176" d="M408.206,645.483h11.141v5.571H408.206Z" transform="translate(-20.289 -2.6)" fill="none" stroke="#fff" stroke-miterlimit="10" stroke-width="1.5"/>
    <path id="Path_4177" data-name="Path 4177" d="M373.447,685.208h16.712V701.92H373.447Z" transform="translate(-5.027 -20.043)" fill="none" stroke="#fff" stroke-miterlimit="10" stroke-width="1.5"/>
    <path id="Path_4178" data-name="Path 4178" d="M433.551,685.208h16.711V701.92H433.551Z" transform="translate(-31.417 -20.043)" fill="none" stroke="#fff" stroke-miterlimit="10" stroke-width="1.5"/>
    <path id="Path_4179" data-name="Path 4179" d="M390.827,705.19V694.049a1.392,1.392,0,1,1,2.785,0V705.19Z" transform="translate(-12.658 -23.313)" fill="none" stroke="#fff" stroke-miterlimit="10" stroke-width="1.5"/>
    <path id="Path_4180" data-name="Path 4180" d="M380.9,705.19V694.049a1.392,1.392,0,1,1,2.785,0V705.19Z" transform="translate(-8.297 -23.313)" fill="none" stroke="#fff" stroke-miterlimit="10" stroke-width="1.5"/>
    <path id="Path_4181" data-name="Path 4181" d="M447.963,695.442h-5.571a1.393,1.393,0,1,1,0-2.785h5.571a1.393,1.393,0,0,1,0,2.785Z" transform="translate(-34.687 -23.313)" fill="none" stroke="#fff" stroke-miterlimit="10" stroke-width="1.5"/>
    <path id="Path_4182" data-name="Path 4182" d="M479.769,695.649h-6.963a1.393,1.393,0,0,1,0-2.786h6.963a1.393,1.393,0,0,1,0,2.786Z" transform="translate(-48.042 -23.404)" fill="none" stroke="#fff" stroke-miterlimit="10" stroke-width="1.5"/>
    <path id="Path_4183" data-name="Path 4183" d="M479.769,705.58h-6.963a1.393,1.393,0,0,1,0-2.786h6.963a1.393,1.393,0,0,1,0,2.786Z" transform="translate(-48.042 -27.764)" fill="none" stroke="#fff" stroke-miterlimit="10" stroke-width="1.5"/>
    <path id="Path_4184" data-name="Path 4184" d="M479.769,685.717h-6.963a1.392,1.392,0,0,1,0-2.784h6.963a1.392,1.392,0,1,1,0,2.784Z" transform="translate(-48.042 -19.044)" fill="none" stroke="#fff" stroke-miterlimit="10" stroke-width="1.5"/>
    <path id="Path_4185" data-name="Path 4185" d="M479.769,675.58h-6.963a1.392,1.392,0,0,1,0-2.785h6.963a1.392,1.392,0,0,1,0,2.785Z" transform="translate(-48.042 -14.593)" fill="none" stroke="#fff" stroke-miterlimit="10" stroke-width="1.5"/>
    <path id="Path_4186" data-name="Path 4186" d="M373.447,677.577l8.356-9.749,8.356,9.749Z" transform="translate(-5.027 -12.412)" fill="none" stroke="#fff" stroke-miterlimit="10" stroke-width="1.5"/>
    <path id="Path_4187" data-name="Path 4187" d="M443.482,705.069h5.57v5.571h-5.57Z" transform="translate(-35.778 -28.763)" fill="none" stroke="#fff" stroke-miterlimit="10" stroke-width="1.5"/>
    <path id="Path_4188" data-name="Path 4188" d="M450.263,678.667H433.551a8.356,8.356,0,1,1,16.711,0Z" transform="translate(-31.417 -13.502)" fill="none" stroke="#fff" stroke-miterlimit="10" stroke-width="1.5"/>
    <path id="Path_4189" data-name="Path 4189" d="M396.815,715H362a40.386,40.386,0,1,0,80.772,0Z" transform="translate(0 -33.124)" fill="none" stroke="#fff" stroke-miterlimit="10" stroke-width="1.5"/>
    <path id="Path_4190" data-name="Path 4190" d="M408.671,754.9A40.427,40.427,0,0,1,362,715h34.816s1.393,5.571,11.142,9.749c8.592,3.681,11.066,18.182.715,30.152Z" transform="translate(0 -33.124)" fill="none" stroke="#fff" stroke-miterlimit="10" stroke-width="1.5"/>
    <path id="Path_4191" data-name="Path 4191" d="M490.737,715a40.279,40.279,0,0,1-13.266,29.926c-2.78-4.62-3.325-8.892-.66-16,4.178-11.141-5.57-13.927-5.57-13.927Z" transform="translate(-47.966 -33.124)" fill="none" stroke="#fff" stroke-miterlimit="10" stroke-width="1.5"/>
  </g>
</svg>
