<svg xmlns="http://www.w3.org/2000/svg" width="55.648" height="74.384" viewBox="0 0 55.648 74.384">
  <g id="Group_6007" data-name="Group 6007" transform="translate(-666.86 -38.804)">
    <path id="Path_6302" data-name="Path 6302" d="M693.05,39.759a26.358,26.358,0,0,0-5.14.817,27.145,27.145,0,0,0-20.149,26.285c.145,16.759,16.3,26.063,23.751,43.364a3.469,3.469,0,0,0,6.347-.007c7.483-17.374,23.748-26.683,23.748-43.584A26.926,26.926,0,0,0,693.05,39.759Zm1.635,45.605a18.73,18.73,0,1,1,18.729-18.73A18.73,18.73,0,0,1,694.685,85.364Z" transform="translate(0 0)" fill="none" stroke="#fff" stroke-miterlimit="10" stroke-width="1.8"/>
    <path id="Path_6303" data-name="Path 6303" d="M706,63.766h-6.8L697.1,57.3a1.171,1.171,0,0,0-2.227,0l-2.1,6.471h-6.8a1.17,1.17,0,0,0-.688,2.117l5.5,4-2.1,6.471a1.171,1.171,0,0,0,1.8,1.309l5.5-4,5.5,4a1.17,1.17,0,0,0,1.8-1.309l-2.1-6.471,5.5-4A1.17,1.17,0,0,0,706,63.766Z" transform="translate(-1.301 -1.281)" fill="#fff"/>
  </g>
</svg>
