<svg xmlns="http://www.w3.org/2000/svg" width="73.662" height="73.662" viewBox="0 0 73.662 73.662">
  <g id="Group_6044" data-name="Group 6044" transform="translate(-407.329 -291.977)">
    <path id="Path_4272" data-name="Path 4272" d="M422.768,345.231l-10.415,9.91Z" transform="translate(-0.976 -11.996)" fill="none" stroke="#fff" stroke-miterlimit="10" stroke-width="1.5"/>
    <path id="Path_4273" data-name="Path 4273" d="M470.416,359.92l18.672-31.8a9.44,9.44,0,0,0-8.153-14.195,11.1,11.1,0,0,0-3.557.75l-12.967,15.846-11.989,14.061s8.466-2.862,14.1,2.877A13.81,13.81,0,0,1,470.416,359.92Z" transform="translate(-10.131 -4.844)" fill="none" stroke="#fff" stroke-miterlimit="10" stroke-width="1.5"/>
    <path id="Path_4274" data-name="Path 4274" d="M451.665,334.684l22.484-26.865h0a9.438,9.438,0,0,0-13.984-12.564h0l-29.213,23.981s9.69-6.954,17.156,0A13.756,13.756,0,0,1,451.665,334.684Z" transform="translate(-5.226)" fill="none" stroke="#fff" stroke-miterlimit="10" stroke-width="1.5"/>
    <g id="Group_4975" data-name="Group 4975" transform="translate(408.079 316.104)">
      <g id="Group_4972" data-name="Group 4972" transform="translate(13.067 0)">
        <path id="Path_4275" data-name="Path 4275" d="M438.083,323.026a13.067,13.067,0,1,1-13.067,13.067A13.067,13.067,0,0,1,438.083,323.026Z" transform="translate(-425.016 -323.026)" fill="none" stroke="#fff" stroke-miterlimit="10" stroke-width="1.5"/>
        <path id="Path_4276" data-name="Path 4276" d="M429.833,335.653a9.436,9.436,0,1,1,7.8,10.825A9.436,9.436,0,0,1,429.833,335.653Z" transform="translate(-426.088 -324.1)" fill="none" stroke="#fff" stroke-miterlimit="10" stroke-width="1.5"/>
      </g>
      <g id="Group_4973" data-name="Group 4973" transform="translate(0 22.651)">
        <path id="Path_4277" data-name="Path 4277" d="M421.146,352.385a13.067,13.067,0,1,1-13.067,13.067A13.067,13.067,0,0,1,421.146,352.385Z" transform="translate(-408.079 -352.385)" fill="none" stroke="#fff" stroke-miterlimit="10" stroke-width="1.5"/>
        <path id="Path_4278" data-name="Path 4278" d="M412.9,365.005a9.436,9.436,0,1,1,7.8,10.824A9.437,9.437,0,0,1,412.9,365.005Z" transform="translate(-409.152 -353.457)" fill="none" stroke="#fff" stroke-miterlimit="10" stroke-width="1.5"/>
      </g>
      <g id="Group_4974" data-name="Group 4974" transform="translate(26.134 22.651)">
        <path id="Path_4279" data-name="Path 4279" d="M455.019,352.385a13.067,13.067,0,1,1-13.067,13.067A13.067,13.067,0,0,1,455.019,352.385Z" transform="translate(-441.952 -352.385)" fill="none" stroke="#fff" stroke-miterlimit="10" stroke-width="1.5"/>
        <path id="Path_4280" data-name="Path 4280" d="M452.508,357.8a9.439,9.439,0,1,1-5.105,12.334A9.44,9.44,0,0,1,452.508,357.8Z" transform="translate(-443.033 -353.457)" fill="none" stroke="#fff" stroke-miterlimit="10" stroke-width="1.5"/>
      </g>
    </g>
  </g>
</svg>
