<svg xmlns="http://www.w3.org/2000/svg" width="76.384" height="76.882" viewBox="0 0 76.384 76.882">
  <g id="Group_6017" data-name="Group 6017" transform="translate(-1873.845 -756.061)">
    <path id="Path_6345" data-name="Path 6345" d="M1906.625,813.625l-5.116-1.462v-2.5h-.013a6.224,6.224,0,0,0,2.509-4.992v-4.992s-2.156.308-5.387-1.456l-.853.441a9.856,9.856,0,0,1-6.24,1.015v4.992a6.224,6.224,0,0,0,2.508,4.992h-.012v2.5l-5.116,1.462a4.993,4.993,0,0,0-3.62,4.8v7.467h24.961v-7.467A4.992,4.992,0,0,0,1906.625,813.625Z" transform="translate(-6.945 -27.396)" fill="none" stroke="#fff" stroke-miterlimit="10" stroke-width="1.5"/>
    <path id="Path_6346" data-name="Path 6346" d="M1949.118,910.185V893.96a2.5,2.5,0,0,0-4.993,0v6.24a2.5,2.5,0,1,1-4.992,0v-3.744a2.5,2.5,0,0,0-4.993,0v7.489a2.5,2.5,0,1,1-4.992,0V891.464h-47.426v26.21a2.5,2.5,0,0,0,2.5,2.5h64.9a2.5,2.5,0,0,0,2.5-2.5v-4.992A2.5,2.5,0,0,1,1949.118,910.185Z" transform="translate(-4.631 -87.976)" fill="none" stroke="#fff" stroke-miterlimit="10" stroke-width="1.5"/>
    <path id="Path_6347" data-name="Path 6347" d="M1904.711,764.617a10.277,10.277,0,0,1,8.736,4.507v-.763a8.736,8.736,0,0,0-17.473,0v.763A10.277,10.277,0,0,1,1904.711,764.617Z" transform="translate(-13.891 -2.316)" fill="none" stroke="#fff" stroke-miterlimit="10" stroke-width="1.5"/>
    <rect id="Rectangle_2920" data-name="Rectangle 2920" width="24.961" height="3.744" transform="translate(1878.339 794.751)" fill="none" stroke="#fff" stroke-miterlimit="10" stroke-width="1.5"/>
    <rect id="Rectangle_2921" data-name="Rectangle 2921" width="12.481" height="7.488" transform="translate(1884.579 791.007)" fill="none" stroke="#fff" stroke-miterlimit="10" stroke-width="1.5"/>
    <rect id="Rectangle_2922" data-name="Rectangle 2922" width="29.953" height="4.992" transform="translate(1897.06 827.201)" fill="none" stroke="#fff" stroke-miterlimit="10" stroke-width="1.5"/>
    <rect id="Rectangle_2923" data-name="Rectangle 2923" width="24.961" height="4.992" transform="translate(1899.556 822.209)" fill="none" stroke="#fff" stroke-miterlimit="10" stroke-width="1.5"/>
    <rect id="Rectangle_2924" data-name="Rectangle 2924" width="49.923" height="4.992" transform="translate(1874.595 798.495)" fill="none" stroke="#fff" stroke-miterlimit="10" stroke-width="1.5"/>
    <rect id="Rectangle_2925" data-name="Rectangle 2925" width="12.481" height="3.744" transform="translate(1884.579 794.751)" fill="none" stroke="#fff" stroke-miterlimit="10" stroke-width="1.5"/>
    <path id="Path_6348" data-name="Path 6348" d="M2065.942,804.9c0-1.544.749-2.273,2.07-3.431,1.3-1.14,2.923-2.557,2.923-5.307s-1.62-4.168-2.923-5.309c-1.321-1.157-2.07-1.888-2.07-3.431s.749-2.27,2.07-3.426c1.3-1.14,2.923-2.558,2.923-5.307v-1.248h-2.5v1.248c0,1.542-.748,2.27-2.069,3.427-1.3,1.139-2.923,2.557-2.923,5.305s1.62,4.169,2.923,5.309c1.321,1.157,2.069,1.887,2.069,3.431s-.748,2.273-2.069,3.43c-1.3,1.14-2.923,2.557-2.923,5.308v1.248h2.5Z" transform="translate(-122.704 -13.891)" fill="#fff"/>
    <path id="Path_6349" data-name="Path 6349" d="M2023.183,783.518c0-1.544.749-2.272,2.069-3.431,1.3-1.14,2.923-2.556,2.923-5.307s-1.62-4.168-2.923-5.308c-1.321-1.158-2.069-1.888-2.069-3.431s.749-2.27,2.069-3.426c1.3-1.139,2.923-2.557,2.923-5.307v-1.248h-2.5v1.248c0,1.541-.748,2.27-2.07,3.427-1.3,1.138-2.923,2.556-2.923,5.306s1.621,4.168,2.923,5.308c1.321,1.157,2.07,1.887,2.07,3.431s-.748,2.273-2.07,3.43c-1.3,1.14-2.923,2.557-2.923,5.308v1.248h2.5Z" transform="translate(-94.921)" fill="#fff"/>
    <path id="Path_6350" data-name="Path 6350" d="M1980.425,804.9c0-1.544.749-2.273,2.069-3.431,1.3-1.14,2.923-2.557,2.923-5.307s-1.62-4.168-2.923-5.309c-1.321-1.157-2.069-1.888-2.069-3.431s.749-2.27,2.069-3.426c1.3-1.14,2.923-2.558,2.923-5.307v-1.248h-2.5v1.248c0,1.542-.749,2.27-2.069,3.427-1.3,1.139-2.923,2.557-2.923,5.305s1.62,4.169,2.923,5.309c1.32,1.157,2.069,1.887,2.069,3.431s-.749,2.273-2.069,3.43c-1.3,1.14-2.923,2.557-2.923,5.308v1.248h2.5Z" transform="translate(-67.14 -13.891)" fill="#fff"/>
    <g id="Group_6016" data-name="Group 6016" transform="translate(1877.091 803.488)">
      <path id="Path_6351" data-name="Path 6351" d="M1929.148,891.464h-47.427v3.745h4.992v24.961h4.993V895.208h37.442Z" transform="translate(-1881.722 -891.464)" fill="none" stroke="#fff" stroke-miterlimit="10" stroke-width="1.5"/>
      <path id="Path_6352" data-name="Path 6352" d="M2032.337,899.839h4.32a2.493,2.493,0,0,0-4.32,0Z" transform="translate(-1979.582 -896.095)" fill="none" stroke="#fff" stroke-miterlimit="10" stroke-width="1.5"/>
      <path id="Path_6353" data-name="Path 6353" d="M2060.245,893.96a2.5,2.5,0,0,0-4.993,0v6.24a2.5,2.5,0,0,1-2.5,2.5v17.473h4.992V895.208h2.5Z" transform="translate(-1992.849 -891.464)" fill="none" stroke="#fff" stroke-miterlimit="10" stroke-width="1.5"/>
    </g>
    <path id="Path_6354" data-name="Path 6354" d="M2042.085,879.707v21.217a2.5,2.5,0,0,1-2.5,2.5h0a2.5,2.5,0,0,1-2.5-2.5V884.7a2.5,2.5,0,0,0-2.5-2.5h0a2.5,2.5,0,0,0-2.5,2.5v6.24a2.5,2.5,0,0,1-2.5,2.5h0a2.5,2.5,0,0,1-2.5-2.5V887.2a2.5,2.5,0,0,0-2.5-2.5h0a2.5,2.5,0,0,0-2.5,2.5v7.489a2.5,2.5,0,0,1-2.5,2.5h0a2.5,2.5,0,0,1-2.5-2.5V877.211h22.465A2.5,2.5,0,0,1,2042.085,879.707Z" transform="translate(-92.606 -78.716)" fill="none" stroke="#fff" stroke-miterlimit="10" stroke-width="1.5"/>
    <path id="Path_6355" data-name="Path 6355" d="M1896.155,789.435h.03c-.018-.191-.03-.385-.03-.58v-4.992a9.858,9.858,0,0,0,6.24-1.015l.853-.441c3.232,1.765,5.387,1.456,5.387,1.456v4.992c0,.2-.012.388-.029.579h.029a8.366,8.366,0,0,0,3.744-6.82c0-4.825-4.471-8.736-9.984-8.736s-9.985,3.911-9.985,8.736A8.37,8.37,0,0,0,1896.155,789.435Z" transform="translate(-11.576 -11.576)" fill="none" stroke="#fff" stroke-miterlimit="10" stroke-width="1.5"/>
  </g>
</svg>
