<svg xmlns="http://www.w3.org/2000/svg" width="80.028" height="75.497" viewBox="0 0 80.028 75.497">
  <g id="Group_6184" data-name="Group 6184" transform="translate(2810.369 1874.808)">
    <circle id="Ellipse_214" data-name="Ellipse 214" cx="20.229" cy="20.229" r="20.229" transform="translate(-2781.574 -1809.629) rotate(-76.718)" fill="none" stroke="#fff" stroke-miterlimit="10" stroke-width="1.7"/>
    <path id="Path_6698" data-name="Path 6698" d="M-2752.386-1837.794a20.164,20.164,0,0,0,1.407-7.412,20.229,20.229,0,0,0-20.229-20.229,20.229,20.229,0,0,0-20.229,20.229,20.23,20.23,0,0,0,20.229,20.229,20.164,20.164,0,0,0,7.413-1.408A20.285,20.285,0,0,1-2752.386-1837.794Z" transform="translate(-12.265 -5.697)" fill="none" stroke="#fff" stroke-miterlimit="10" stroke-width="1.7"/>
    <path id="Path_6699" data-name="Path 6699" d="M-2782.589-1718.5a31.728,31.728,0,0,1-17.092-16.876l3.107-1.285-10.226-6.82-2.422,12.05,3.114-1.288a38.643,38.643,0,0,0,20.854,20.642Z" transform="translate(0 -89.799)" fill="none" stroke="#fff" stroke-miterlimit="10" stroke-width="1.7"/>
    <path id="Path_6700" data-name="Path 6700" d="M-2644.585-1867.274a31.727,31.727,0,0,1,17.092,16.876l-3.107,1.285,10.226,6.82,2.422-12.05-3.115,1.288a38.642,38.642,0,0,0-20.854-20.642Z" transform="translate(-113.536 0)" fill="none" stroke="#fff" stroke-miterlimit="10" stroke-width="1.7"/>
    <path id="Path_6702" data-name="Path 6702" d="M-2665.955-1731.666a1.58,1.58,0,0,0-.153,1.656,1.581,1.581,0,0,0,1.415.876h11.721a1.58,1.58,0,0,0,1.58-1.58,1.58,1.58,0,0,0-1.58-1.58h-8.565a7.565,7.565,0,0,0,1.639-5.886h2.515a1.58,1.58,0,0,0,1.58-1.58,1.58,1.58,0,0,0-1.58-1.58h-3.293a8.45,8.45,0,0,1-1.491-3.987,2.158,2.158,0,0,1,1.2-2.017,4.855,4.855,0,0,1,4.374-.028,3.9,3.9,0,0,1,1.768,1.986,1.58,1.58,0,0,0,1.952,1.088,1.58,1.58,0,0,0,1.088-1.951,6.927,6.927,0,0,0-3.167-3.823,7.913,7.913,0,0,0-7.569-.023,5.276,5.276,0,0,0-2.807,4.767,9.428,9.428,0,0,0,1.027,3.988h-1.314a1.58,1.58,0,0,0-1.581,1.58,1.58,1.58,0,0,0,1.581,1.58h2.541l0,.039c.2,1.825.1,2.5-1.372,4.469Z" transform="translate(-97.944 -84.581)" fill="#fff"/>
    <text id="RM" transform="translate(-2798.76 -1844.698)" fill="#fff" font-size="20" font-family="Arial-BoldMT, Arial" font-weight="700"><tspan x="0" y="0">RM</tspan></text>
  </g>
</svg>
