<svg xmlns="http://www.w3.org/2000/svg" width="80.633" height="92.512" viewBox="0 0 80.633 92.512">
  <g id="Group_5021" data-name="Group 5021" transform="translate(-531.238 -151.192)">
    <path id="Path_4332" data-name="Path 4332" d="M610.971,219.153V175.638a3.054,3.054,0,0,0-1.577-2.681l-36.263-20.5a3.669,3.669,0,0,0-3.153,0L533.715,172.8a3.251,3.251,0,0,0-1.577,2.679v43.674a3.054,3.054,0,0,0,1.577,2.681l36.263,20.339a3.676,3.676,0,0,0,3.153,0l36.263-20.339A2.877,2.877,0,0,0,610.971,219.153Z" fill="#fff" stroke="#eb2127" stroke-miterlimit="10" stroke-width="1.8"/>
    <path id="Path_4333" data-name="Path 4333" d="M569.978,195.03a3.669,3.669,0,0,0,3.153,0L610.5,174.06a2.488,2.488,0,0,0-1.1-1.1l-36.263-20.339a3.683,3.683,0,0,0-3.153,0L533.715,172.8a2.488,2.488,0,0,0-1.1,1.1Z" fill="#fff" stroke="#eb2127" stroke-miterlimit="10" stroke-width="1.8"/>
    <path id="Path_4334" data-name="Path 4334" d="M547.905,200.549V174.691a1.4,1.4,0,0,1,.788-1.26l11.194-6.938a1.434,1.434,0,0,1,1.577,0l1.576.788a2.187,2.187,0,0,0,1.42,0l16.555-9.3v23.651Z" fill="#fff" stroke="#eb2127" stroke-miterlimit="10" stroke-width="1.8"/>
    <path id="Path_4335" data-name="Path 4335" d="M558.941,208.432V181a1.406,1.406,0,0,1,.788-1.261l11.2-6.937a1.428,1.428,0,0,1,1.576,0l1.577.788a2.2,2.2,0,0,0,1.419,0l16.555-9.3v26.8Z" fill="#fff" stroke="#eb2127" stroke-miterlimit="10" stroke-width="1.8"/>
    <path id="Path_4336" data-name="Path 4336" d="M584.956,179.579a1.861,1.861,0,0,1-1.576.158l-1.577-.789a1.843,1.843,0,0,0-1.576,0l-11.2,6.938a1.606,1.606,0,0,0-.788,1.261v18.131l33.109-18.92V169.016Z" fill="#fff" stroke="#eb2127" stroke-miterlimit="10" stroke-width="1.8"/>
    <path id="Path_4337" data-name="Path 4337" d="M569.978,195.03l-37.367-20.97a2.672,2.672,0,0,0-.473,1.578V219.31a3.05,3.05,0,0,0,1.577,2.681l36.263,20.339a2.66,2.66,0,0,0,1.577.474V195.5C570.924,195.346,570.451,195.188,569.978,195.03Z" fill="#fff" stroke="#eb2127" stroke-miterlimit="10" stroke-width="1.8"/>
    <g id="Group_5020" data-name="Group 5020">
      <path id="Path_4338" data-name="Path 4338" d="M540.494,185.57l-8.356-3.784v3.469l6.938,3.153a1.815,1.815,0,0,1,.945,1.419v5.991h3.154v-5.991A4.933,4.933,0,0,0,540.494,185.57Z" fill="#fff" stroke="#eb2127" stroke-miterlimit="10" stroke-width="1.8"/>
      <path id="Path_4339" data-name="Path 4339" d="M571.555,214.424l-14.979-8.041a1.657,1.657,0,0,1-.788-1.419V197.4h-3.153v7.568a4.547,4.547,0,0,0,2.522,4.1l16.4,8.987Z" fill="#fff" stroke="#eb2127" stroke-miterlimit="10" stroke-width="1.8"/>
      <path id="Path_4340" data-name="Path 4340" d="M571.555,233.185,556.576,225.3a1.657,1.657,0,0,1-.788-1.419V218.05a4.906,4.906,0,0,0-2.365-4.1l-9.46-5.36-1.576,2.681,9.46,5.36a1.657,1.657,0,0,1,.788,1.419v5.834a4.545,4.545,0,0,0,2.522,4.1l16.4,8.672Z" fill="#fff" stroke="#eb2127" stroke-miterlimit="10" stroke-width="1.8"/>
    </g>
    <circle id="Ellipse_178" data-name="Ellipse 178" cx="3.153" cy="3.153" r="3.153" transform="translate(540.021 206.855)" fill="#fff" stroke="#eb2127" stroke-miterlimit="10" stroke-width="1.8"/>
    <circle id="Ellipse_179" data-name="Ellipse 179" cx="3.153" cy="3.153" r="3.153" transform="translate(551.058 194.242)" fill="#fff" stroke="#eb2127" stroke-miterlimit="10" stroke-width="1.8"/>
    <path id="Path_4341" data-name="Path 4341" d="M541.6,192.665a3.154,3.154,0,1,1-3.153,3.153A3.153,3.153,0,0,1,541.6,192.665Z" fill="#fff" stroke="#eb2127" stroke-miterlimit="10" stroke-width="1.8"/>
    <path id="Path_4342" data-name="Path 4342" d="M573.131,195.03,610.5,174.06a2.672,2.672,0,0,1,.473,1.578V219.31a3.05,3.05,0,0,1-1.577,2.681L573.131,242.33a2.659,2.659,0,0,1-1.576.474V195.5C572.027,195.346,572.658,195.188,573.131,195.03Z" fill="#fff" stroke="#eb2127" stroke-miterlimit="10" stroke-width="1.8"/>
    <path id="Path_4343" data-name="Path 4343" d="M579.123,201.337l-7.568,3.784v3.469l8.986-4.415Z" fill="#fff" stroke="#eb2127" stroke-miterlimit="10" stroke-width="1.8"/>
    <path id="Path_4344" data-name="Path 4344" d="M600.88,199.13,590,204.49a4.748,4.748,0,0,0-2.68,4.257v5.677a1.657,1.657,0,0,1-.788,1.419l-14.978,8.041v3.626l16.4-8.829a4.549,4.549,0,0,0,2.523-4.1V208.9a1.516,1.516,0,0,1,.945-1.419l10.88-5.361Z" fill="#fff" stroke="#eb2127" stroke-miterlimit="10" stroke-width="1.8"/>
    <path id="Path_4345" data-name="Path 4345" d="M610.971,206.7l-13.244,6.623,1.262,2.838,11.982-5.992Z" fill="#fff" stroke="#eb2127" stroke-miterlimit="10" stroke-width="1.8"/>
    <path id="Path_4346" data-name="Path 4346" d="M601.511,197.4a3.153,3.153,0,1,1-3.153,3.153A3.154,3.154,0,0,1,601.511,197.4Z" fill="#fff" stroke="#eb2127" stroke-miterlimit="10" stroke-width="1.8"/>
    <circle id="Ellipse_180" data-name="Ellipse 180" cx="3.153" cy="3.153" r="3.153" transform="translate(595.205 211.585)" fill="#fff" stroke="#eb2127" stroke-miterlimit="10" stroke-width="1.8"/>
    <path id="Path_4347" data-name="Path 4347" d="M581.015,198.972a3.153,3.153,0,1,1-3.154,3.153A3.153,3.153,0,0,1,581.015,198.972Z" fill="#fff" stroke="#eb2127" stroke-miterlimit="10" stroke-width="1.8"/>
  </g>
</svg>
