<svg xmlns="http://www.w3.org/2000/svg" width="82.675" height="82.675" viewBox="0 0 82.675 82.675">
  <g id="Group_5055" data-name="Group 5055" transform="translate(397.152 -374.328)">
    <path id="Shape" d="M-211.3,489.6v33.79h-22.393V489.8Z" transform="translate(-105.327 -74.132)" fill="none" stroke="#fff" stroke-miterlimit="10" stroke-width="1.5"/>
    <path id="Shape-2" data-name="Shape" d="M-370.041,489.8v33.589h-22.393V489.6Z" transform="translate(-2.569 -74.132)" fill="none" stroke="#fff" stroke-miterlimit="10" stroke-width="1.5"/>
    <path id="Rectangle-path" d="M-328.938,490.165h33.59v33.59h-33.59Z" transform="translate(-43.672 -74.499)" fill="none" stroke="#fff" stroke-miterlimit="10" stroke-width="1.5"/>
    <path id="Shape-3" data-name="Shape" d="M-295.79,533.818h8.4a1.4,1.4,0,0,1,1.4,1.4v16.795h-11.2V535.218A1.4,1.4,0,0,1-295.79,533.818Z" transform="translate(-64.224 -102.757)" fill="none" stroke="#fff" stroke-miterlimit="10" stroke-width="1.5"/>
    <g id="Group_5054" data-name="Group 5054" transform="translate(-389.404 419.865)">
      <path id="Shape-4" data-name="Shape" d="M-295.79,507.669a1.4,1.4,0,0,1-1.4-1.4v-2.8a1.4,1.4,0,0,1,1.4-1.4,1.4,1.4,0,0,1,1.4,1.4v2.8A1.4,1.4,0,0,1-295.79,507.669Z" transform="translate(325.18 -502.071)" fill="none" stroke="#fff" stroke-miterlimit="10" stroke-width="1.5"/>
      <path id="Shape-5" data-name="Shape" d="M-351.349,511.637a1.4,1.4,0,0,1-1.4-1.4v-2.8a1.4,1.4,0,0,1,1.4-1.4,1.4,1.4,0,0,1,1.4,1.4v2.8A1.4,1.4,0,0,1-351.349,511.637Z" transform="translate(361.146 -504.64)" fill="none" stroke="#fff" stroke-miterlimit="10" stroke-width="1.5"/>
      <path id="Shape-6" data-name="Shape" d="M-375.16,511.637a1.4,1.4,0,0,1-1.4-1.4v-2.8a1.4,1.4,0,0,1,1.4-1.4,1.4,1.4,0,0,1,1.4,1.4v2.8A1.4,1.4,0,0,1-375.16,511.637Z" transform="translate(376.56 -504.64)" fill="none" stroke="#fff" stroke-miterlimit="10" stroke-width="1.5"/>
      <path id="Shape-7" data-name="Shape" d="M-351.349,535.449a1.4,1.4,0,0,1-1.4-1.4v-2.8a1.4,1.4,0,0,1,1.4-1.4,1.4,1.4,0,0,1,1.4,1.4v2.8A1.4,1.4,0,0,1-351.349,535.449Z" transform="translate(361.146 -520.054)" fill="none" stroke="#fff" stroke-miterlimit="10" stroke-width="1.5"/>
      <path id="Shape-8" data-name="Shape" d="M-375.16,535.449a1.4,1.4,0,0,1-1.4-1.4v-2.8a1.4,1.4,0,0,1,1.4-1.4,1.4,1.4,0,0,1,1.4,1.4v2.8A1.4,1.4,0,0,1-375.16,535.449Z" transform="translate(376.56 -520.054)" fill="none" stroke="#fff" stroke-miterlimit="10" stroke-width="1.5"/>
      <path id="Shape-9" data-name="Shape" d="M-351.349,559.26a1.4,1.4,0,0,1-1.4-1.4v-2.8a1.4,1.4,0,0,1,1.4-1.4,1.4,1.4,0,0,1,1.4,1.4v2.8A1.4,1.4,0,0,1-351.349,559.26Z" transform="translate(361.146 -535.468)" fill="none" stroke="#fff" stroke-miterlimit="10" stroke-width="1.5"/>
      <path id="Shape-10" data-name="Shape" d="M-375.16,559.26a1.4,1.4,0,0,1-1.4-1.4v-2.8a1.4,1.4,0,0,1,1.4-1.4,1.4,1.4,0,0,1,1.4,1.4v2.8A1.4,1.4,0,0,1-375.16,559.26Z" transform="translate(376.56 -535.468)" fill="none" stroke="#fff" stroke-miterlimit="10" stroke-width="1.5"/>
      <path id="Shape-11" data-name="Shape" d="M-192.608,511.637a1.4,1.4,0,0,1-1.4-1.4v-2.8a1.4,1.4,0,0,1,1.4-1.4,1.4,1.4,0,0,1,1.4,1.4v2.8A1.4,1.4,0,0,1-192.608,511.637Z" transform="translate(258.388 -504.64)" fill="none" stroke="#fff" stroke-miterlimit="10" stroke-width="1.5"/>
      <path id="Shape-12" data-name="Shape" d="M-216.42,511.637a1.4,1.4,0,0,1-1.4-1.4v-2.8a1.4,1.4,0,0,1,1.4-1.4,1.4,1.4,0,0,1,1.4,1.4v2.8A1.4,1.4,0,0,1-216.42,511.637Z" transform="translate(273.802 -504.64)" fill="none" stroke="#fff" stroke-miterlimit="10" stroke-width="1.5"/>
      <path id="Shape-13" data-name="Shape" d="M-192.608,535.449a1.4,1.4,0,0,1-1.4-1.4v-2.8a1.4,1.4,0,0,1,1.4-1.4,1.4,1.4,0,0,1,1.4,1.4v2.8A1.4,1.4,0,0,1-192.608,535.449Z" transform="translate(258.388 -520.054)" fill="none" stroke="#fff" stroke-miterlimit="10" stroke-width="1.5"/>
      <path id="Shape-14" data-name="Shape" d="M-216.42,535.449a1.4,1.4,0,0,1-1.4-1.4v-2.8a1.4,1.4,0,0,1,1.4-1.4,1.4,1.4,0,0,1,1.4,1.4v2.8A1.4,1.4,0,0,1-216.42,535.449Z" transform="translate(273.802 -520.054)" fill="none" stroke="#fff" stroke-miterlimit="10" stroke-width="1.5"/>
      <path id="Shape-15" data-name="Shape" d="M-192.608,559.26a1.4,1.4,0,0,1-1.4-1.4v-2.8a1.4,1.4,0,0,1,1.4-1.4,1.4,1.4,0,0,1,1.4,1.4v2.8A1.4,1.4,0,0,1-192.608,559.26Z" transform="translate(258.388 -535.468)" fill="none" stroke="#fff" stroke-miterlimit="10" stroke-width="1.5"/>
      <path id="Shape-16" data-name="Shape" d="M-216.42,559.26a1.4,1.4,0,0,1-1.4-1.4v-2.8a1.4,1.4,0,0,1,1.4-1.4,1.4,1.4,0,0,1,1.4,1.4v2.8A1.4,1.4,0,0,1-216.42,559.26Z" transform="translate(273.802 -535.468)" fill="none" stroke="#fff" stroke-miterlimit="10" stroke-width="1.5"/>
      <path id="Shape-17" data-name="Shape" d="M-271.979,507.669a1.4,1.4,0,0,1-1.4-1.4v-2.8a1.4,1.4,0,0,1,1.4-1.4,1.4,1.4,0,0,1,1.4,1.4v2.8A1.4,1.4,0,0,1-271.979,507.669Z" transform="translate(309.767 -502.071)" fill="none" stroke="#fff" stroke-miterlimit="10" stroke-width="1.5"/>
    </g>
    <path id="Shape-18" data-name="Shape" d="M-316.627,585.409H-395a1.4,1.4,0,0,0-1.4,1.4v2.8a1.4,1.4,0,0,0,1.4,1.4h19.594a1.4,1.4,0,0,0,1.4,1.4h36.389a1.4,1.4,0,0,0,1.4-1.4h19.594a1.4,1.4,0,0,0,1.4-1.4v-2.8A1.4,1.4,0,0,0-316.627,585.409Z" transform="translate(0 -136.154)" fill="none" stroke="#fff" stroke-miterlimit="10" stroke-width="1.5"/>
    <path id="Shape-19" data-name="Shape" d="M-297.686,585.409v5.6a1.4,1.4,0,0,1-1.4,1.4h-36.389a1.4,1.4,0,0,1-1.4-1.4v-5.6Z" transform="translate(-38.534 -136.154)" fill="none" stroke="#fff" stroke-miterlimit="10" stroke-width="1.5"/>
    <path id="Shape-20" data-name="Shape" d="M-317.487,447.355a2.8,2.8,0,0,0-2.505-1.553h-10.861V443l-7.572-7.572a2.807,2.807,0,0,0-1.987-.826h-26.913a2.781,2.781,0,0,0-2.156,1.008l-6.158,7.39v2.8H-386.5a2.8,2.8,0,0,0-2.5,1.553l-3.429,6.844h78.376Z" transform="translate(-2.569 -38.533)" fill="none" stroke="#fff" stroke-miterlimit="10" stroke-width="1.5"/>
    <path id="Shape-21" data-name="Shape" d="M-300.025,458.417v4.2a1.4,1.4,0,0,1-1.4,1.4h-41.987a1.4,1.4,0,0,1-1.4-1.4v-4.2Z" transform="translate(-33.397 -53.948)" fill="none" stroke="#fff" stroke-miterlimit="10" stroke-width="1.5"/>
    <path id="Rectangle-path-2" data-name="Rectangle-path" d="M-336.874,474.291h39.188v5.6h-39.188Z" transform="translate(-38.534 -64.224)" fill="none" stroke="#fff" stroke-miterlimit="10" stroke-width="1.5"/>
    <path id="Path_4385" data-name="Path 4385" d="M-304.786,404.639l-12.246-3.289v11.728h25.192V401.35l-12.246,3.289A1.476,1.476,0,0,1-304.786,404.639Z" transform="translate(-51.379 -17.006)" fill="none" stroke="#fff" stroke-miterlimit="10" stroke-width="1.5"/>
    <path id="Shape-22" data-name="Shape" d="M-229.844,402.8a1.4,1.4,0,0,1-1.162.63,1.309,1.309,0,0,1-.77-.238,4.264,4.264,0,0,1-1.917-3.569V394.77l1.764-.476a1.359,1.359,0,0,0,1.035-1.358v6.69a1.492,1.492,0,0,0,.672,1.246,1.383,1.383,0,0,1,.593.887A1.384,1.384,0,0,1-229.844,402.8Z" transform="translate(-105.327 -11.56)" fill="none" stroke="#fff" stroke-miterlimit="10" stroke-width="1.5"/>
    <path id="Shape-23" data-name="Shape" d="M-297.73,381.376a1.359,1.359,0,0,1-1.035,1.358l-1.764.476-4.2,1.134-12.246,3.289a1.477,1.477,0,0,1-.7,0l-12.246-3.289-5.962-1.61a1.4,1.4,0,0,1-1.059-1.358,1.4,1.4,0,0,1,1.059-1.357l18.209-4.9a1.485,1.485,0,0,1,.7,0l16.445,4.423,1.764.476A1.359,1.359,0,0,1-297.73,381.376Z" transform="translate(-38.491)" fill="none" stroke="#fff" stroke-miterlimit="10" stroke-width="1.5"/>
  </g>
</svg>
