<svg xmlns="http://www.w3.org/2000/svg" width="104.094" height="59.311" viewBox="0 0 104.094 59.311">
  <g id="Group_6223" data-name="Group 6223" transform="translate(-1237.25 -694)">
    <g id="Group_6042" data-name="Group 6042" transform="translate(1338.041 723.036) rotate(180)">
      <path id="Path_40" data-name="Path 40" d="M235.472,2627.693H140.12" transform="translate(-140.016 -2620.566)" fill="none" stroke="#fff" stroke-width="2"/>
      <path id="Path_41" data-name="Path 41" d="M8.02,2612.624,0,2604.953l8.02-7.088" transform="translate(0 -2597.865)" fill="none" stroke="#fff" stroke-width="2"/>
      <path id="Path_6466" data-name="Path 6466" d="M0,2612.623l8.02-7.67L0,2597.865" transform="translate(89.02 -2598.107)" fill="none" stroke="#fff" stroke-width="2"/>
    </g>
    <text id="_55m" data-name="55m" transform="translate(1274 705)" fill="#fff" font-size="15" font-family="UniversLTStd-Bold, Univers LT Std" font-weight="700" letter-spacing="0.02em"><tspan x="0" y="0">55m</tspan></text>
    <g id="Group_6043" data-name="Group 6043" transform="translate(-12.78 -31)">
      <path id="Path_4510" data-name="Path 4510" d="M24.38,98.305V5.13l-.039.023C23.965.262,14.4,0,12.192,0S.409.262.031,5.153C.026,5.144.007,5.138,0,5.13V98.305C8.542,104.289,15.854,104.289,24.38,98.305Z" transform="translate(1250.78 783.561) rotate(-90)" fill="none" stroke="#fff" stroke-miterlimit="10" stroke-width="1.5"/>
      <path id="Path_6468" data-name="Path 6468" d="M0,1.64C.948.971,4.116,0,9.275,0S17.6.971,18.55,1.639c-.946.669-4.115,1.64-9.275,1.64S.949,2.309,0,1.64Z" transform="translate(1256.534 761.949) rotate(90)" fill="none" stroke="#fff" stroke-miterlimit="10" stroke-width="1.5"/>
    </g>
  </g>
</svg>
