<svg xmlns="http://www.w3.org/2000/svg" width="91.005" height="60.104" viewBox="0 0 91.005 60.104">
  <g id="Group_6029" data-name="Group 6029" transform="translate(330.125 -368.577)">
    <path id="Path_6409" data-name="Path 6409" d="M-323.894,472.453h83.272v3.879h-83.272Z" transform="translate(-2.364 -48.551)" fill="none" stroke="#fff" stroke-miterlimit="10" stroke-width="1.8"/>
    <path id="Path_6410" data-name="Path 6410" d="M-310.563,444.847h69.18V413.9h-69.18Z" transform="translate(-8.65 -20.944)" fill="none" stroke="#fff" stroke-miterlimit="10" stroke-width="1.8"/>
    <path id="Path_6411" data-name="Path 6411" d="M-258.392,369.477h-42.025l-17.425,23.479h76.874Z" transform="translate(-5.218)" fill="none" stroke="#fff" stroke-miterlimit="10" stroke-width="1.8"/>
    <path id="Path_6412" data-name="Path 6412" d="M-299.944,426.111h17.829v6.482h-17.829Z" transform="translate(-13.656 -26.702)" fill="none" stroke="#fff" stroke-miterlimit="10" stroke-width="1.8"/>
    <path id="Path_6413" data-name="Path 6413" d="M-299.944,447.7h17.829v6.483h-17.829Z" transform="translate(-13.656 -36.88)" fill="none" stroke="#fff" stroke-miterlimit="10" stroke-width="1.8"/>
    <path id="Path_6414" data-name="Path 6414" d="M-224.021,426.111h17.828v6.482h-17.828Z" transform="translate(-49.452 -26.702)" fill="none" stroke="#fff" stroke-miterlimit="10" stroke-width="1.8"/>
    <path id="Path_6415" data-name="Path 6415" d="M-255.272,426.111h10.735v6.482h-10.735Z" transform="translate(-34.718 -26.702)" fill="none" stroke="#fff" stroke-miterlimit="10" stroke-width="1.8"/>
    <path id="Path_6416" data-name="Path 6416" d="M-224.021,447.7h17.828v6.483h-17.828Z" transform="translate(-49.452 -36.88)" fill="none" stroke="#fff" stroke-miterlimit="10" stroke-width="1.8"/>
    <path id="Path_6417" data-name="Path 6417" d="M-321.84,462.227h2.612v5.4h-2.612Z" transform="translate(-3.333 -43.729)" fill="none" stroke="#fff" stroke-miterlimit="10" stroke-width="1.8"/>
    <path id="Path_6418" data-name="Path 6418" d="M-245.844,445.131h-8.12a1.307,1.307,0,0,0-1.307,1.308v13.133h10.735V446.439A1.308,1.308,0,0,0-245.844,445.131Z" transform="translate(-34.719 -35.669)" fill="none" stroke="#fff" stroke-miterlimit="10" stroke-width="1.8"/>
    <path id="Path_6419" data-name="Path 6419" d="M-323.867,447.51h-5.042l2.522-8.249,2.521-8.249,2.521,8.249,2.522,8.249Z" transform="translate(0 -29.013)" fill="none" stroke="#fff" stroke-miterlimit="10" stroke-width="1.8"/>
    <path id="Path_6420" data-name="Path 6420" d="M-175.362,447.51H-180.4l2.522-8.249,2.521-8.249,2.521,8.249,2.522,8.249Z" transform="translate(-70.016 -29.013)" fill="none" stroke="#fff" stroke-miterlimit="10" stroke-width="1.8"/>
    <path id="Path_6421" data-name="Path 6421" d="M-173.336,462.227h2.612v5.4h-2.612Z" transform="translate(-73.349 -43.729)" fill="none" stroke="#fff" stroke-miterlimit="10" stroke-width="1.8"/>
  </g>
</svg>
