<svg xmlns="http://www.w3.org/2000/svg" width="80.38" height="80.5" viewBox="0 0 80.38 80.5">
  <g id="Group_5959" data-name="Group 5959" transform="translate(-865.97 -638.97)">
    <path id="Path_4300" data-name="Path 4300" d="M897.859,650.705c0,5.985-10.834,20.314-10.834,20.314s-6.758-8.938-9.6-15.642a12.971,12.971,0,0,1-1.233-4.672,10.834,10.834,0,0,1,21.669,0Z" transform="translate(-2.543)" fill="none" stroke="#fff" stroke-miterlimit="10" stroke-width="1.8"/>
    <path id="Path_4301" data-name="Path 4301" d="M930.512,648.525a39.259,39.259,0,0,0-38.836-5.732,10.8,10.8,0,0,1,3.635,8.08c0,5.985-10.834,20.314-10.834,20.314s-6.758-8.938-9.6-15.642l0,0a39.284,39.284,0,1,0,55.639-7.016Z" transform="translate(0 -0.046)" fill="none" stroke="#fff" stroke-miterlimit="10" stroke-width="1.8"/>
    <path id="Path_4302" data-name="Path 4302" d="M949.27,652a10.507,10.507,0,0,1-.473,1.449v.017a11.156,11.156,0,0,1-5.362,5.964c-2.993,1.354-4.645-.244-6.771,1.354-2.627,1.978-3.683,7.1-1.354,10.834,1.648,2.632,4.6,3.294,7.937,4.022h0l.189.04c4.645,1.016,6.446-1.137,10.834,0a16.521,16.521,0,0,1,5.416,2.709,12.593,12.593,0,0,1,4,5.943c.03-.624.06-1.248.06-1.881A39.189,39.189,0,0,0,949.27,652Z" transform="translate(-18.326 -3.311)" fill="none" stroke="#fff" stroke-miterlimit="10" stroke-width="1.8"/>
    <path id="Path_4303" data-name="Path 4303" d="M893.629,651.385a4.063,4.063,0,1,1-4.062-4.063A4.063,4.063,0,0,1,893.629,651.385Z" transform="translate(-5.085 -2.033)" fill="none" stroke="#fff" stroke-miterlimit="10" stroke-width="1.8"/>
    <path id="Path_4304" data-name="Path 4304" d="M953.736,700.994a18.342,18.342,0,0,1-2.424,7.191,108.484,108.484,0,0,1-8.41,13.123s-3.548-4.7-6.6-9.846a51.945,51.945,0,0,1-3.005-5.8,12.965,12.965,0,0,1-1.233-4.672,10.834,10.834,0,0,1,21.669,0Z" transform="translate(-17.793 -13.724)" fill="none" stroke="#fff" stroke-miterlimit="10" stroke-width="1.8"/>
    <path id="Path_4305" data-name="Path 4305" d="M934.719,694.587a108.48,108.48,0,0,1-8.348,13.013s-3.548-4.7-6.6-9.846v0c-2.992,2.786-3.815,6.052-5.591,5.786-1.408-.2-2.18-2.478-2.708-4.063-1.21-3.608-.553-6.049-.565-8.072a4.493,4.493,0,0,0-.79-2.761c-1.395-1.95-3.995-2.316-6.771-2.708-5.823-.813-8.112,1.693-10.834,0a6.43,6.43,0,0,1-2.708-6.771c1.138-3.4,6.108-2.247,12.187-6.771,1.965-1.449,6.636-4.929,6.772-9.48.135-4.456-4.211-5.729-5.417-10.834-.524-2.2.453-7.258,2.93-12.148a39.223,39.223,0,0,0-13.315,2.732,10.8,10.8,0,0,1,3.614,8.061c0,5.985-10.834,20.314-10.834,20.314s-6.752-8.929-9.6-15.632a39.217,39.217,0,0,0-4.013,6.492v.012a39.9,39.9,0,0,0,.067,14.544c.827,5.459,1.584,10.415,5.418,14.9,1.68,1.978,4.266,4.985,8.126,5.418,4.279.474,9.926-2.263,10.834-2.709a8.351,8.351,0,0,1,4.062-1.354,7.723,7.723,0,0,1,5.094,2.373c.14.137.254.258.323.334,2.682,2.966,3.385,7.977,1.355,10.834-1.653,2.33-3.914,1.531-5.418,4.063a7.145,7.145,0,0,0,0,6.771,6.077,6.077,0,0,0,.745,1.07,39.683,39.683,0,0,0,4.674.285,39.259,39.259,0,0,0,34.41-20.34A26.912,26.912,0,0,0,934.719,694.587Z" transform="translate(-1.263 -0.016)" fill="none" stroke="#fff" stroke-miterlimit="10" stroke-width="1.8"/>
    <path id="Path_4306" data-name="Path 4306" d="M949.506,701.674a4.063,4.063,0,1,1-4.063-4.063A4.063,4.063,0,0,1,949.506,701.674Z" transform="translate(-20.335 -15.758)" fill="none" stroke="#fff" stroke-miterlimit="10" stroke-width="1.8"/>
  </g>
</svg>
