<svg xmlns="http://www.w3.org/2000/svg" width="100.79" height="54.55" viewBox="0 0 100.79 54.55">
  <g id="Group_6163" data-name="Group 6163" transform="translate(-3276.339 77.119)">
    <g id="Group_6161" data-name="Group 6161" transform="translate(3277.189 -76.269)">
      <path id="Path_6624" data-name="Path 6624" d="M3314.578,60.919a23.493,23.493,0,0,0,9.909,0V46.584h-9.909Z" transform="translate(-3303.018 -8.599)" fill="none" stroke="#fff" stroke-miterlimit="10" stroke-width="1.7"/>
      <path id="Path_6625" data-name="Path 6625" d="M3330.216-52.225q-2.406,2.595-4.954,5.033V-28.28h6.606v-22.2Q3331.035-51.347,3330.216-52.225Z" transform="translate(-3310.398 59.659)" fill="none" stroke="#fff" stroke-miterlimit="10" stroke-width="1.7"/>
      <path id="Path_6626" data-name="Path 6626" d="M3288.749-65.236q3.131-2.923,6.037-6.079h-2.734v-4.955h-3.3v4.319a115.477,115.477,0,0,1-11.56,11.076v4.258a118.608,118.608,0,0,0,11.56-10.507Z" transform="translate(-3277.189 76.269)" fill="none" stroke="#fff" stroke-miterlimit="10" stroke-width="1.7"/>
    </g>
    <path id="Path_6627" data-name="Path 6627" d="M3549.213-52.225q-2.409,2.595-4.954,5.031V-28.28h6.606v-22.2Q3550.032-51.346,3549.213-52.225Z" transform="translate(-184.495 -16.61)" fill="none" stroke="#fff" stroke-miterlimit="10" stroke-width="1.7"/>
    <path id="Path_6628" data-name="Path 6628" d="M3533.576,61.235a23.409,23.409,0,0,0,3.3.212,18.858,18.858,0,0,0,6.606-1.02V46.584h-9.909Z" transform="translate(-177.115 -84.868)" fill="none" stroke="#fff" stroke-miterlimit="10" stroke-width="1.7"/>
    <g id="Group_6162" data-name="Group 6162" transform="translate(3319.738 -76.269)">
      <path id="Path_6629" data-name="Path 6629" d="M3417.757,18.788l-2.954,1.478h6.606l.91-.456c-1.05-.571-2.086-1.161-3.116-1.761C3418.723,18.3,3418.242,18.546,3417.757,18.788Z" transform="translate(-3414.803 11.112)" fill="none" stroke="#fff" stroke-miterlimit="10" stroke-width="1.7"/>
      <path id="Path_6630" data-name="Path 6630" d="M3441.47-48.193q.961.523,1.935,1.026.974-.505,1.938-1.026c.06-.032.12-.067.18-.1A118.144,118.144,0,0,0,3469-67.116v1.888c.383-.358.762-.722,1.14-1.085.161-.155.324-.308.484-.463q.618-.6,1.225-1.211l.314-.314q.675-.681,1.339-1.374l.125-.131q.714-.748,1.416-1.508h-2.74v-4.955H3469v4.319a114.758,114.758,0,0,1-28.9,23C3440.558-48.7,3441.012-48.442,3441.47-48.193Z" transform="translate(-3432.281 76.269)" fill="none" stroke="#fff" stroke-miterlimit="10" stroke-width="1.7"/>
    </g>
    <path id="Path_6631" data-name="Path 6631" d="M3376.279-57.937v-4.325a115.2,115.2,0,0,1-9.909-9.662v-4.344h-3.3v4.342A114.874,114.874,0,0,1,3332.8-48.193q-.964.522-1.938,1.026-.973-.5-1.935-1.026a114.889,114.889,0,0,1-30.268-23.733v-4.342h-3.3v4.339a114.847,114.847,0,0,1-18.167,16.167v4.034q2.526-1.73,4.954-3.588V-44.89h-4.954v6.606h99.09V-44.89h-3.3V-60.759Q3374.6-59.318,3376.279-57.937Zm-87.53,13.047h-3.3V-57.937q1.677-1.379,3.3-2.822Zm13.212,0h-9.909V-63.8q2.549-2.438,4.955-5.033,2.409,2.6,4.955,5.031Zm6.606,0h-3.3V-60.761q1.625,1.443,3.3,2.824Zm6.606,0h-3.3V-55.317q1.628,1.247,3.3,2.436Zm11.17,0h-7.867v-5.727q1.885,1.25,3.823,2.423,2.437,1.483,4.954,2.848Zm16.905,0h-9.618q2.953-1.572,5.8-3.3,1.937-1.176,3.823-2.423Zm6.606,0h-3.3v-7.991q1.674-1.189,3.3-2.436Zm6.606,0h-3.3V-57.937q1.677-1.378,3.3-2.824Zm13.212,0h-9.909V-63.8q2.545-2.436,4.954-5.031,2.41,2.6,4.955,5.033Z" fill="none" stroke="#fff" stroke-miterlimit="10" stroke-width="1.7"/>
  </g>
</svg>
