<svg xmlns="http://www.w3.org/2000/svg" width="80.388" height="80.388" viewBox="0 0 80.388 80.388">
  <g id="Group_5980" data-name="Group 5980" transform="translate(60.775 -1241.54)">
    <g id="Group_5980-2" data-name="Group 5980" transform="translate(-52.016 1242.44)">
      <path id="Path_6200" data-name="Path 6200" d="M-6.7,1277.883l.393.066a17.652,17.652,0,0,0-.393,3.785H-34.206a6.325,6.325,0,0,1,1.847-4.466l6.012-6.012h-7.859a6.324,6.324,0,0,1,1.847-4.466l6.012-6.012h-7.859v-1.323a2.532,2.532,0,0,1,1.087-2.069,35.717,35.717,0,0,0,11.474-13.753,2.046,2.046,0,0,1,1.847-1.192,2.046,2.046,0,0,1,1.847,1.192,35.722,35.722,0,0,0,11.474,13.753,2.532,2.532,0,0,1,1.087,2.069v1.323h-7.859l6.012,6.012a6.323,6.323,0,0,1,1.847,4.466h-7.859l6.012,6.012A6.182,6.182,0,0,1-6.7,1277.883Z" transform="translate(34.206 -1242.44)" fill="none" stroke="#fff" stroke-miterlimit="10" stroke-width="1.8"/>
    </g>
    <g id="Group_5981" data-name="Group 5981" transform="translate(-8.793 1255.538)">
      <path id="Path_6201" data-name="Path 6201" d="M118.763,1315.347a5.241,5.241,0,0,1-10.125,1.9,17.655,17.655,0,0,0,.956-5.828,16.292,16.292,0,0,0-2.619-9.169v-1.31a5.188,5.188,0,0,1,1.965-4.06,5.184,5.184,0,0,1-.655-2.489,5.238,5.238,0,0,1,5.239-5.239c.066,0,.118.013.184.013a5.213,5.213,0,0,1,10.111,0c.065,0,.118-.013.183-.013a5.238,5.238,0,0,1,5.24,5.239,5.184,5.184,0,0,1-.655,2.489,5.174,5.174,0,0,1,.707,7.44,5.2,5.2,0,0,1-.406,9.182,5.1,5.1,0,0,1,.354,1.847,5.239,5.239,0,0,1-10.479,0Z" transform="translate(-106.975 -1285.222)" fill="none" stroke="#fff" stroke-miterlimit="10" stroke-width="1.8"/>
    </g>
    <g id="Group_5982" data-name="Group 5982" transform="translate(-24.51 1268.636)">
      <path id="Path_6202" data-name="Path 6202" d="M71.354,1331.933a16.291,16.291,0,0,1,2.619,9.169,17.658,17.658,0,0,1-.956,5.829c-1.506,4.309-4.61,7.269-8.212,7.269-5.069,0-9.169-5.868-9.169-13.1a17.652,17.652,0,0,1,.393-3.785c1.14-5.383,4.637-9.313,8.776-9.313C67.372,1328,69.69,1329.51,71.354,1331.933Z" transform="translate(-55.636 -1328.003)" fill="none" stroke="#fff" stroke-miterlimit="10" stroke-width="1.8"/>
    </g>
    <g id="Group_5983" data-name="Group 5983" transform="translate(-12.722 1296.141)">
      <path id="Path_6203" data-name="Path 6203" d="M109.7,1423.372c.078-.026.144-.052.222-.078a3.879,3.879,0,0,1,1.245-.21,3.924,3.924,0,0,1,3.93,3.93H94.141a3.923,3.923,0,0,1,2.646-3.694c0-.078-.026-.157-.026-.236a5.221,5.221,0,0,1,9.784-2.554A3.881,3.881,0,0,1,109.7,1423.372Z" transform="translate(-94.141 -1417.845)" fill="none" stroke="#fff" stroke-miterlimit="10" stroke-width="1.8"/>
    </g>
    <g id="Group_5984" data-name="Group 5984" transform="translate(-48.087 1289.593)">
      <path id="Path_6204" data-name="Path 6204" d="M-.414,1401.693a5.238,5.238,0,0,1,5.239,5.239,5.227,5.227,0,0,1-1.768,3.929l-1,1.31H-18.384l-1.219-1.31a5.228,5.228,0,0,1-1.768-3.929,5.213,5.213,0,0,1,3.943-5.056c0-.065-.013-.118-.013-.183a5.238,5.238,0,0,1,5.239-5.239,4.789,4.789,0,0,1,1.31.171,5.177,5.177,0,0,1,3.235,2.515,6.184,6.184,0,0,1,.694-.066,5.218,5.218,0,0,1,4.7,2.974A5.088,5.088,0,0,1-.414,1401.693Z" transform="translate(21.371 -1396.454)" fill="none" stroke="#fff" stroke-miterlimit="10" stroke-width="1.8"/>
    </g>
    <g id="Group_5985" data-name="Group 5985" transform="translate(-59.875 1305.31)">
      <path id="Path_6205" data-name="Path 6205" d="M.376,1458.271H4.305a2.562,2.562,0,0,1,1.847.773,2.561,2.561,0,0,1,.773,1.846,2.627,2.627,0,0,1-2.62,2.62H-46.777a2.561,2.561,0,0,1-1.847-.773,2.561,2.561,0,0,1-.773-1.847,2.627,2.627,0,0,1,2.619-2.619H-57.255a2.628,2.628,0,0,1-2.62-2.62,2.558,2.558,0,0,1,.773-1.846,2.56,2.56,0,0,1,1.847-.773h3.93a2.627,2.627,0,0,0,2.619-2.62,2.56,2.56,0,0,1,.773-1.847,2.558,2.558,0,0,1,1.847-.773H16.094a2.627,2.627,0,0,1,2.619,2.619,2.637,2.637,0,0,1-2.619,2.62H.376a2.628,2.628,0,0,0-2.62,2.62,2.561,2.561,0,0,0,.773,1.847A2.561,2.561,0,0,0,.376,1458.271Z" transform="translate(59.875 -1447.793)" fill="none" stroke="#fff" stroke-miterlimit="10" stroke-width="1.8"/>
    </g>
    <line id="Line_443" data-name="Line 443" y2="24.633" transform="translate(-15.342 1280.677)" fill="none" stroke="#fff" stroke-miterlimit="10" stroke-width="1.8"/>
    <line id="Line_444" data-name="Line 444" y2="21.403" transform="translate(-37.608 1268.36)" fill="none" stroke="#fff" stroke-miterlimit="10" stroke-width="1.8"/>
    <line id="Line_445" data-name="Line 445" y2="20.992" transform="translate(3.038 1280.677)" fill="none" stroke="#fff" stroke-miterlimit="10" stroke-width="1.8"/>
  </g>
</svg>
