<svg xmlns="http://www.w3.org/2000/svg" width="67.504" height="76.392" viewBox="0 0 67.504 76.392">
  <g id="Group_6181" data-name="Group 6181" transform="translate(2390.651 1835.449)">
    <path id="Path_6684" data-name="Path 6684" d="M-2324.092-1816.989l-2.957,16.756a52.49,52.49,0,0,1-20.2,32.87l-9.652,7.24-9.936-7.55a52.492,52.492,0,0,1-19.938-32.68l-2.933-16.636,32.808-17.5Z" transform="translate(0 0)" fill="none" stroke="#fff" stroke-miterlimit="10" stroke-width="1.7"/>
    <path id="Path_6685" data-name="Path 6685" d="M-2348.306-1761.137a43.625,43.625,0,0,1-16.613-27.232l-1.831-10.387,23.088-12.313,23.088,12.313-1.852,10.5a43.6,43.6,0,0,1-16.833,27.392l-4.37,3.279Z" transform="translate(-13.237 -13.502)" fill="none" stroke="#fff" stroke-miterlimit="10" stroke-width="1.7"/>
    <path id="Path_6686" data-name="Path 6686" d="M-2328.7-1754.772h-.083a2.188,2.188,0,0,1-1.667-.872l-6.562-8.749,3.5-2.625,4.943,6.59,13.534-15.468,3.292,2.88-15.31,17.5A2.192,2.192,0,0,1-2328.7-1754.772Z" transform="translate(-30.382 -33.783)" fill="#fff"/>
  </g>
</svg>
