<svg xmlns="http://www.w3.org/2000/svg" width="73.139" height="73.139" viewBox="0 0 73.139 73.139">
  <g id="Group_5063" data-name="Group 5063" transform="translate(405.062 -584.042)">
    <path id="Path_4409" data-name="Path 4409" d="M-335.05,584.692h-66.884a2.477,2.477,0,0,0-2.477,2.477V630.52h71.839V587.169A2.476,2.476,0,0,0-335.05,584.692Z" fill="none" stroke="#fff" stroke-miterlimit="10" stroke-width="1.3"/>
    <path id="Path_4410" data-name="Path 4410" d="M-404.412,674.314a2.476,2.476,0,0,0,2.477,2.476h66.884a2.476,2.476,0,0,0,2.477-2.476v-7.432h-71.839Z" transform="translate(0 -36.362)" fill="none" stroke="#fff" stroke-miterlimit="10" stroke-width="1.3"/>
    <path id="Path_4411" data-name="Path 4411" d="M-340.894,684.652l3.716,11.148h-27.249l3.716-11.148Z" transform="translate(-17.69 -44.223)" fill="none" stroke="#fff" stroke-miterlimit="10" stroke-width="1.3"/>
    <path id="Path_4412" data-name="Path 4412" d="M-388.862,704.646h56.976V709.6h-56.976Z" transform="translate(-6.879 -53.069)" fill="none" stroke="#fff" stroke-miterlimit="10" stroke-width="1.3"/>
    <path id="Path_4413" data-name="Path 4413" d="M-371.091,633.561h4.954v13.625h-4.954Z" transform="translate(-14.742 -21.62)" fill="none" stroke="#fff" stroke-miterlimit="10" stroke-width="1.3"/>
    <g id="Group_5061" data-name="Group 5061" transform="translate(-375.924 594.601)">
      <path id="Path_4414" data-name="Path 4414" d="M-353.321,622.455h4.955v19.818h-4.955Z" transform="translate(353.321 -611.308)" fill="none" stroke="#fff" stroke-miterlimit="10" stroke-width="1.3"/>
      <path id="Path_4415" data-name="Path 4415" d="M-335.55,613.57h4.954v24.772h-4.954Z" transform="translate(345.459 -607.377)" fill="none" stroke="#fff" stroke-miterlimit="10" stroke-width="1.3"/>
      <path id="Path_4416" data-name="Path 4416" d="M-317.779,602.463h4.954v30.965h-4.954Z" transform="translate(337.597 -602.463)" fill="none" stroke="#fff" stroke-miterlimit="10" stroke-width="1.3"/>
    </g>
    <g id="Group_5062" data-name="Group 5062" transform="translate(-400.696 593.362)">
      <path id="Path_4417" data-name="Path 4417" d="M-397.748,600.241h12.386v2.478h-12.386Z" transform="translate(397.748 -600.241)" fill="none" stroke="#fff" stroke-miterlimit="10" stroke-width="1.3"/>
      <path id="Path_4418" data-name="Path 4418" d="M-397.748,609.127h12.386V611.6h-12.386Z" transform="translate(397.748 -604.172)" fill="none" stroke="#fff" stroke-miterlimit="10" stroke-width="1.3"/>
      <path id="Path_4419" data-name="Path 4419" d="M-397.748,618.012h6.193v2.477h-6.193Z" transform="translate(397.748 -608.103)" fill="none" stroke="#fff" stroke-miterlimit="10" stroke-width="1.3"/>
      <path id="Path_4420" data-name="Path 4420" d="M-295.566,638.005h7.432v2.477h-7.432Z" transform="translate(352.542 -616.948)" fill="none" stroke="#fff" stroke-miterlimit="10" stroke-width="1.3"/>
      <path id="Path_4421" data-name="Path 4421" d="M-295.566,646.89h7.432v2.477h-7.432Z" transform="translate(352.542 -620.879)" fill="none" stroke="#fff" stroke-miterlimit="10" stroke-width="1.3"/>
      <path id="Path_4422" data-name="Path 4422" d="M-295.566,655.775h7.432v2.477h-7.432Z" transform="translate(352.542 -624.81)" fill="none" stroke="#fff" stroke-miterlimit="10" stroke-width="1.3"/>
    </g>
    <path id="Path_4423" data-name="Path 4423" d="M-404.412,589.646h71.839v-2.477a2.476,2.476,0,0,0-2.477-2.477h-66.884a2.477,2.477,0,0,0-2.477,2.477Z" fill="none" stroke="#fff" stroke-miterlimit="10" stroke-width="1.3"/>
    <path id="Path_4424" data-name="Path 4424" d="M-342.214,673.547h2.477v2.476h-2.477Z" transform="translate(-27.517 -39.31)" fill="none" stroke="#fff" stroke-miterlimit="10" stroke-width="1.3"/>
  </g>
</svg>
