<svg xmlns="http://www.w3.org/2000/svg" width="82.482" height="74.364" viewBox="0 0 82.482 74.364">
  <g id="Group_6011" data-name="Group 6011" transform="translate(-86.372 -941.098)">
    <path id="Path_6311" data-name="Path 6311" d="M188.194,1128.86c-2.693,0-4.877-1.874-4.877-4.185v-1.468h9.753v1.468c0,2.311-2.183,4.185-4.876,4.185Z" transform="translate(-60.581 -114.299)" fill="none" stroke="#fff" stroke-miterlimit="10" stroke-width="1.8"/>
    <path id="Path_6312" data-name="Path 6312" d="M189.257,1100.564H179.48a2.116,2.116,0,0,1-2.228-1.985v-11.271h14.233v11.271a2.117,2.117,0,0,1-2.228,1.985Z" transform="translate(-56.755 -91.656)" fill="none" stroke="#fff" stroke-miterlimit="10" stroke-width="1.8"/>
    <path id="Path_6313" data-name="Path 6313" d="M189.152,1097.733H174.206a1.218,1.218,0,1,1,0-2.435h14.946a1.218,1.218,0,0,1,0,2.435Z" transform="translate(-54.066 -96.695)" fill="#fff"/>
    <path id="Path_6314" data-name="Path 6314" d="M189.152,1109.018H174.206a1.218,1.218,0,1,1,0-2.435h14.946a1.218,1.218,0,0,1,0,2.435Z" transform="translate(-54.066 -103.813)" fill="#fff"/>
    <path id="Path_6315" data-name="Path 6315" d="M180.587,964.5a22.5,22.5,0,0,0-45.007,0c0,6.468,2.729,12.077,7.1,16.739a21.025,21.025,0,0,1,5.522,11.924,2.8,2.8,0,0,0,2.767,2.489H165.2a2.8,2.8,0,0,0,2.766-2.489,21.023,21.023,0,0,1,5.522-11.924C177.858,976.577,180.587,970.969,180.587,964.5Z" transform="translate(-30.471 0)" fill="none" stroke="#fff" stroke-miterlimit="10" stroke-width="1.8"/>
    <path id="Path_6316" data-name="Path 6316" d="M180.979,993.676l-3.564,9.981a.711.711,0,0,0,.669.95h2.272a.711.711,0,0,0,.6-.329l9.651-15.159a1.038,1.038,0,0,0-.876-1.6h-3.646a1.039,1.039,0,0,1-.978-1.388l3.038-8.507a1.039,1.039,0,0,0-.978-1.388h-6.241a1.038,1.038,0,0,0-.978.689l-5.36,15.008a1.039,1.039,0,0,0,.979,1.388h5.166a.263.263,0,0,1,.247.351Z" transform="translate(-55.036 -21.598)" fill="none" stroke="#fff" stroke-miterlimit="10" stroke-width="1.8"/>
    <g id="Group_6010" data-name="Group 6010" transform="translate(87.272 942.647)">
      <path id="Path_6317" data-name="Path 6317" d="M270.494,998.523a2.435,2.435,0,0,1,2.435-2.436h8.158a2.435,2.435,0,0,1,0,4.87h-8.158a2.435,2.435,0,0,1-2.435-2.435Z" transform="translate(-202.84 -976.765)" fill="none" stroke="#fff" stroke-miterlimit="10" stroke-width="1.8"/>
      <path id="Path_6318" data-name="Path 6318" d="M262.509,950.273a2.433,2.433,0,0,1,1.218-2.111l7.065-4.079a2.435,2.435,0,0,1,2.435,4.218l-7.065,4.078a2.436,2.436,0,0,1-3.653-2.107Z" transform="translate(-197.804 -943.757)" fill="none" stroke="#fff" stroke-miterlimit="10" stroke-width="1.8"/>
      <path id="Path_6319" data-name="Path 6319" d="M262.509,1039.805a2.436,2.436,0,0,1,3.653-2.107l7.065,4.079a2.435,2.435,0,0,1-2.435,4.218l-7.065-4.079A2.434,2.434,0,0,1,262.509,1039.805Z" transform="translate(-197.804 -1002.805)" fill="none" stroke="#fff" stroke-miterlimit="10" stroke-width="1.8"/>
      <path id="Path_6320" data-name="Path 6320" d="M100.3,998.523a2.435,2.435,0,0,0-2.436-2.436H89.707a2.435,2.435,0,0,0,0,4.87h8.158A2.435,2.435,0,0,0,100.3,998.523Z" transform="translate(-87.272 -976.765)" fill="none" stroke="#fff" stroke-miterlimit="10" stroke-width="1.8"/>
      <path id="Path_6321" data-name="Path 6321" d="M110.151,950.273a2.433,2.433,0,0,0-1.218-2.111l-7.065-4.079a2.435,2.435,0,0,0-2.435,4.218l7.065,4.079a2.436,2.436,0,0,0,3.653-2.107Z" transform="translate(-94.174 -943.756)" fill="none" stroke="#fff" stroke-miterlimit="10" stroke-width="1.8"/>
      <path id="Path_6322" data-name="Path 6322" d="M110.15,1039.805a2.436,2.436,0,0,0-3.653-2.107l-7.065,4.079a2.435,2.435,0,0,0,2.435,4.218l7.065-4.079A2.434,2.434,0,0,0,110.15,1039.805Z" transform="translate(-94.174 -1002.805)" fill="none" stroke="#fff" stroke-miterlimit="10" stroke-width="1.8"/>
    </g>
  </g>
</svg>
