<svg xmlns="http://www.w3.org/2000/svg" width="63.056" height="75.703" viewBox="0 0 63.056 75.703">
  <g id="Group_5187" data-name="Group 5187" transform="translate(-2051.647 -298.6)">
    <path id="Path_4633" data-name="Path 4633" d="M2113.756,450.678h-61.161l2.548-49.694h56.064Z" transform="translate(0 -77.275)" fill="none" stroke="#fff" stroke-miterlimit="10" stroke-width="1.8"/>
    <g id="Group_5153" data-name="Group 5153" transform="translate(2073.44 299.5)">
      <path id="Path_4634" data-name="Path 4634" d="M2157.85,308.8l2.652.62a10.827,10.827,0,0,0-20.524-3.833l3.236-.383a8.275,8.275,0,0,1,14.637,3.6Z" transform="translate(-2139.977 -299.5)" fill="none" stroke="#fff" stroke-miterlimit="10" stroke-width="1.8"/>
      <path id="Path_4635" data-name="Path 4635" d="M2213.152,368.935h0l.613,2.549h0Z" transform="translate(-2195.696 -352.371)" fill="none" stroke="#fff" stroke-miterlimit="10" stroke-width="1.8"/>
    </g>
    <g id="Group_5154" data-name="Group 5154" transform="translate(2055.143 317.339)">
      <path id="Path_4636" data-name="Path 4636" d="M2067.1,374.278l-3.823,6.371h6.925l-.753-6.371Z" transform="translate(-2063.276 -374.278)" fill="none" stroke="#fff" stroke-miterlimit="10" stroke-width="1.8"/>
      <path id="Path_4637" data-name="Path 4637" d="M2265.468,374.278h-3.773l-1.49,6.371h9.086Z" transform="translate(-2213.226 -374.278)" fill="none" stroke="#fff" stroke-miterlimit="10" stroke-width="1.8"/>
    </g>
    <path id="Path_4638" data-name="Path 4638" d="M2147.118,366.818l-2.574-10.7-20.529,4.937,1.387,5.768Z" transform="translate(-54.382 -43.108)" fill="none" stroke="#fff" stroke-miterlimit="10" stroke-width="1.8"/>
    <path id="Path_4639" data-name="Path 4639" d="M2194.367,334.75l-1.421,6.079,4.085-.982,2.574,10.7h9.386l2.745-11.739Z" transform="translate(-106.869 -26.841)" fill="none" stroke="#fff" stroke-miterlimit="10" stroke-width="1.8"/>
    <path id="Path_4640" data-name="Path 4640" d="M2106.621,331.237l-1.2-10.173-21.312,2.519,1.956,16.546h8.951l-1.387-5.768Z" transform="translate(-23.994 -16.42)" fill="none" stroke="#fff" stroke-miterlimit="10" stroke-width="1.8"/>
    <path id="Path_4641" data-name="Path 4641" d="M2208.644,424.653a3.823,3.823,0,1,1,3.823-3.823A3.827,3.827,0,0,1,2208.644,424.653Zm0-5.1a1.274,1.274,0,1,0,1.274,1.274A1.275,1.275,0,0,0,2208.644,419.556Z" transform="translate(-115.912 -89.476)" fill="#fff"/>
    <path id="Path_4642" data-name="Path 4642" d="M2128.525,424.653a3.823,3.823,0,1,1,3.823-3.823A3.827,3.827,0,0,1,2128.525,424.653Zm0-5.1a1.274,1.274,0,1,0,1.274,1.274A1.275,1.275,0,0,0,2128.525,419.556Z" transform="translate(-54.906 -89.476)" fill="#fff"/>
    <path id="Path_4643" data-name="Path 4643" d="M2146.216,452.146a10.842,10.842,0,0,1-10.831-10.83v-7.008a1.274,1.274,0,1,1,2.548,0v7.008a8.282,8.282,0,1,0,16.565,0V434.8a1.276,1.276,0,0,1,1.176-1.766h.1a1.275,1.275,0,0,1,1.274,1.274v7.008A10.843,10.843,0,0,1,2146.216,452.146Z" transform="translate(-63.04 -101.678)" fill="none" stroke="#fff" stroke-miterlimit="10" stroke-width="1.8"/>
  </g>
</svg>
