<svg xmlns="http://www.w3.org/2000/svg" width="77.508" height="77.508" viewBox="0 0 77.508 77.508">
  <g id="Group_5060" data-name="Group 5060" transform="translate(247.532 -657.762)">
    <path id="Shape" d="M-213.651,682.286v44.373a41.327,41.327,0,0,1-15.726-2.162V680.124a41.065,41.065,0,0,0,15.726,2.162Z" transform="translate(-9.542 -11.849)" fill="none" stroke="#fff" stroke-miterlimit="10" stroke-width="1.5"/>
    <path id="Shape-2" data-name="Shape" d="M-97.614,676.159v41.647a1.312,1.312,0,0,1-.543,1.044,1.312,1.312,0,0,1-1.161.188,42.457,42.457,0,0,0-14.022-1.625V673.054a41.56,41.56,0,0,1,14.834,1.861A1.3,1.3,0,0,1-97.614,676.159Z" transform="translate(-73.161 -7.937)" fill="none" stroke="#fff" stroke-miterlimit="10" stroke-width="1.5"/>
    <path id="Shape-3" data-name="Shape" d="M-166.774,707.257l.013,0v-.013Z" transform="translate(-43.865 -26.717)" fill="none" stroke="#fff" stroke-miterlimit="10" stroke-width="1.5"/>
    <path id="Shape-4" data-name="Shape" d="M-166.774,707.257l.013,0v-.013Z" transform="translate(-43.865 -26.717)" fill="none" stroke="#fff" stroke-miterlimit="10" stroke-width="1.5"/>
    <path id="Path_4407" data-name="Path 4407" d="M-194.566,678.309v44.372c12.227-.458,24.467-4.862,36.693-5.333v-44.36C-170.1,673.447-182.339,677.85-194.566,678.309Zm32.644,18.957c-.629.56-1.245,1.139-1.861,1.713q-2.581,2.416-5.176,4.962c-.328.318-.354.441-.21.807.092.232.183.477.276.722.183.477.38.965.563,1.469l-.131.022c-1.066-.019-3.749-.1-6.448-.158v6.708a1.311,1.311,0,0,1-1.311,1.311,1.311,1.311,0,0,1-1.311-1.311V707.37c-2.211.934-4.283,1.792-5.045,2.054-.5.179-1.009.347-1.507.525a.279.279,0,0,1,.026-.188c.262-.75.524-1.5.773-2.26.157-.462.131-.574-.223-.786-1.206-.77-2.424-1.552-3.63-2.359-1.127-.754-2.254-1.514-3.381-2.312-.17-.111-.157-.164.039-.262.42-.225.852-.468,1.271-.728s.511-.454.367-.892c-.432-1.278-.878-2.571-1.31-3.857a.4.4,0,0,1-.053-.262c1.363.143,2.713.25,4.063.332.407.032.577-.09.734-.492.223-.558.445-1.1.668-1.662.1-.265.1-.265.289-.1q1.514,1.357,3.027,2.7a.5.5,0,0,0,.682.055.639.639,0,0,0,.236-.71c-.5-2.49-1-4.97-1.494-7.461-.026-.086-.079-.168,0-.286a.292.292,0,0,0,.144.078c.747.293,1.481.585,2.228.871.419.154.668.026.878-.432q1.218-2.607,2.411-5.216c.039-.059.117-.14.065-.222l.105-.021c-.053.076.013.115.039.163.812,1.441,1.638,2.882,2.45,4.324.2.327.459.354.826.075.511-.385,1.022-.787,1.533-1.18a8.231,8.231,0,0,0,.891-.7.142.142,0,0,1,.027.1.823.823,0,0,1-.027.188c-.432,2.258-.852,4.516-1.284,6.791-.079.43-.17.878-.249,1.311a.44.44,0,0,0,.262.551.593.593,0,0,0,.629-.249c.039-.046.079-.106.118-.152,1-1.242,1.992-2.478,2.975-3.712.157-.183.2-.15.275.02.223.5.446,1,.682,1.5.157.314.327.375.694.244.826-.309,1.652-.594,2.477-.881.538-.181,1.075-.347,1.638-.524-.026.1-.052.181-.079.262-.432,1.39-.878,2.8-1.323,4.212-.131.407-.04.6.34.728.433.158.865.317,1.311.468C-161.778,697.068-161.751,697.117-161.922,697.266Z" transform="translate(-28.628 -7.937)" fill="none" stroke="#fff" stroke-miterlimit="10" stroke-width="1.5"/>
    <path id="Path_4408" data-name="Path 4408" d="M-238.412,680.58a5.162,5.162,0,0,1-2.568-.683v63.692a2.64,2.64,0,0,0,2.621,2.621,2.629,2.629,0,0,0,2.621-2.621V679.832A5.155,5.155,0,0,1-238.412,680.58Z" transform="translate(-3.181 -11.689)" fill="none" stroke="#fff" stroke-miterlimit="10" stroke-width="1.5"/>
    <path id="Shape-5" data-name="Shape" d="M-236.4,663.7a5.189,5.189,0,0,1-5.19,5.189,5.189,5.189,0,0,1-5.189-5.189,5.189,5.189,0,0,1,5.189-5.19A5.191,5.191,0,0,1-236.4,663.7Z" transform="translate(0)" fill="none" stroke="#fff" stroke-miterlimit="10" stroke-width="1.5"/>
  </g>
</svg>
