<svg xmlns="http://www.w3.org/2000/svg" width="70.511" height="62.402" viewBox="0 0 70.511 62.402">
  <g id="Group_5160" data-name="Group 5160" transform="translate(-2545.057 -837.082)">
    <path id="Path_4646" data-name="Path 4646" d="M2663.088,879.983a5.437,5.437,0,0,0-2.917-1.651l.319-.92a6.138,6.138,0,0,1,3.256,1.915Z" transform="translate(-84.255 -29.087)" fill="none" stroke="#ec2227" stroke-miterlimit="10" stroke-width="1.8"/>
    <path id="Path_4647" data-name="Path 4647" d="M2642.16,882.071a2.26,2.26,0,1,1-4.033-1.131Z" transform="translate(-67.644 -31.69)" fill="none" stroke="#ec2227" stroke-miterlimit="10" stroke-width="1.8"/>
    <path id="Path_4648" data-name="Path 4648" d="M2608.252,872.561a2.261,2.261,0,1,1-4.033-1.131Z" transform="translate(-42.629 -24.675)" fill="none" stroke="#ec2227" stroke-miterlimit="10" stroke-width="1.8"/>
    <path id="Path_4649" data-name="Path 4649" d="M2617.619,857.141l-.667,2.378-14.9-4.177,1.309-4.668a.964.964,0,0,1,1.189-.668l10.749,3.014A3.342,3.342,0,0,1,2617.619,857.141Z" transform="translate(-41.384 -8.844)" fill="none" stroke="#ec2227" stroke-miterlimit="10" stroke-width="1.8"/>
    <path id="Path_4650" data-name="Path 4650" d="M2627.613,837.982a2.381,2.381,0,1,1-2.365,2.4A2.38,2.38,0,0,1,2627.613,837.982Z" transform="translate(-58.492 0)" fill="none" stroke="#ec2227" stroke-miterlimit="10" stroke-width="1.8"/>
    <path id="Path_4651" data-name="Path 4651" d="M2692.881,921.917a2.261,2.261,0,1,1-2.948-2.974Z" transform="translate(-105.184 -59.725)" fill="none" stroke="#ec2227" stroke-miterlimit="10" stroke-width="1.8"/>
    <path id="Path_4652" data-name="Path 4652" d="M2668.087,896.908a2.26,2.26,0,1,1-2.948-2.974Z" transform="translate(-86.894 -41.276)" fill="none" stroke="#ec2227" stroke-miterlimit="10" stroke-width="1.8"/>
    <path id="Path_4653" data-name="Path 4653" d="M2679.139,890.217l-1.754,1.739-10.892-10.987,3.442-3.413a.965.965,0,0,1,1.365.006l7.858,7.927A3.342,3.342,0,0,1,2679.139,890.217Z" transform="translate(-88.92 -28.988)" fill="none" stroke="#ec2227" stroke-miterlimit="10" stroke-width="1.8"/>
    <path id="Path_4654" data-name="Path 4654" d="M2699.393,877.867a2.381,2.381,0,1,1-2.365,2.4A2.381,2.381,0,0,1,2699.393,877.867Z" transform="translate(-111.444 -29.423)" fill="none" stroke="#ec2227" stroke-miterlimit="10" stroke-width="1.8"/>
    <path id="Path_4655" data-name="Path 4655" d="M2614.668,923.079a34.355,34.355,0,0,1-30.452-18.358l-.309-.585a30.158,30.158,0,0,0-26.732-16.115h-11.219v-4.207h11.219a34.354,34.354,0,0,1,30.452,18.358l.309.585a30.157,30.157,0,0,0,26.732,16.115v4.207Z" transform="translate(0 -33.811)" fill="none" stroke="#ec2227" stroke-miterlimit="10" stroke-width="1.8"/>
    <line id="Line_319" data-name="Line 319" y2="45.14" transform="translate(2547.009 854.342)" fill="none" stroke="#ec2227" stroke-miterlimit="10" stroke-width="1.8"/>
    <line id="Line_320" data-name="Line 320" y2="45.14" transform="translate(2553.063 854.342)" fill="none" stroke="#ec2227" stroke-miterlimit="10" stroke-width="1.8"/>
    <line id="Line_321" data-name="Line 321" y2="45.14" transform="translate(2559.119 854.342)" fill="none" stroke="#ec2227" stroke-miterlimit="10" stroke-width="1.8"/>
    <line id="Line_322" data-name="Line 322" y2="44.316" transform="translate(2565.174 855.166)" fill="none" stroke="#ec2227" stroke-miterlimit="10" stroke-width="1.8"/>
    <line id="Line_323" data-name="Line 323" y2="41.819" transform="translate(2571.229 857.663)" fill="none" stroke="#ec2227" stroke-miterlimit="10" stroke-width="1.8"/>
    <line id="Line_324" data-name="Line 324" x1="0.1" y2="37.8" transform="translate(2577.233 861.681)" fill="none" stroke="#ec2227" stroke-miterlimit="10" stroke-width="1.8"/>
    <line id="Line_325" data-name="Line 325" y2="30.478" transform="translate(2583.289 869.004)" fill="none" stroke="#ec2227" stroke-miterlimit="10" stroke-width="1.8"/>
    <line id="Line_326" data-name="Line 326" y2="21.384" transform="translate(2589.344 878.098)" fill="none" stroke="#ec2227" stroke-miterlimit="10" stroke-width="1.8"/>
    <line id="Line_327" data-name="Line 327" y2="16.045" transform="translate(2595.399 883.437)" fill="none" stroke="#ec2227" stroke-miterlimit="10" stroke-width="1.8"/>
    <line id="Line_328" data-name="Line 328" y2="12.726" transform="translate(2601.454 886.756)" fill="none" stroke="#ec2227" stroke-miterlimit="10" stroke-width="1.8"/>
    <line id="Line_329" data-name="Line 329" y2="10.987" transform="translate(2607.508 888.495)" fill="none" stroke="#ec2227" stroke-miterlimit="10" stroke-width="1.8"/>
    <line id="Line_330" data-name="Line 330" y2="10.232" transform="translate(2613.563 889.25)" fill="none" stroke="#ec2227" stroke-miterlimit="10" stroke-width="1.8"/>
  </g>
</svg>
