<svg xmlns="http://www.w3.org/2000/svg" width="81.458" height="81.457" viewBox="0 0 81.458 81.457">
  <g id="Group_4774" data-name="Group 4774" transform="translate(-617.171 -102.597)">
    <path id="Path_4013" data-name="Path 4013" d="M682.588,112.109a39.8,39.8,0,1,0,14.125,40.019A39.8,39.8,0,0,0,682.588,112.109Z" fill="none" stroke="#ec2227" stroke-miterlimit="10" stroke-width="1.8"/>
    <g id="Group_4762" data-name="Group 4762" transform="translate(621.488 103.549)">
      <path id="Path_4014" data-name="Path 4014" d="M700.683,115.642a10.7,10.7,0,0,1-.479,1.468l0,.017a11.3,11.3,0,0,1-5.435,6.045c-3.033,1.373-4.708-.246-6.863,1.373-2.663,2-3.734,7.193-1.372,10.982,1.67,2.667,4.664,3.338,8.045,4.075h0l.192.041c4.709,1.03,6.535-1.153,10.982,0a16.76,16.76,0,0,1,5.49,2.745,12.768,12.768,0,0,1,4.056,6.025c.03-.632.062-1.265.062-1.907A39.724,39.724,0,0,0,700.683,115.642Z" transform="translate(-639.149 -106.742)" fill="none" stroke="#ec2227" stroke-miterlimit="10" stroke-width="1.8"/>
      <path id="Path_4015" data-name="Path 4015" d="M672.833,161.175c-4.049,2.966-4.846,7.166-6.864,6.863-1.427-.206-2.209-2.512-2.745-4.118-1.226-3.657-.561-6.131-.573-8.182a4.554,4.554,0,0,0-.8-2.8c-1.413-1.977-4.049-2.347-6.863-2.745-5.9-.824-8.222,1.716-10.982,0a6.519,6.519,0,0,1-2.745-6.863c1.153-3.445,6.191-2.278,12.354-6.863,1.991-1.468,6.726-5,6.863-9.609.137-4.516-4.269-5.806-5.49-10.981-.531-2.229.459-7.356,2.97-12.313a39.8,39.8,0,0,0-34.61,22.266v.013a40.461,40.461,0,0,0,.068,14.742c.839,5.532,1.607,10.556,5.491,15.1,1.7,2,4.324,5.052,8.236,5.49,4.338.481,10.062-2.292,10.982-2.745a8.468,8.468,0,0,1,4.118-1.372,7.825,7.825,0,0,1,5.163,2.406c.141.139.258.262.328.339,2.717,3.006,3.431,8.085,1.372,10.981-1.674,2.362-3.966,1.551-5.49,4.118a7.24,7.24,0,0,0,0,6.863,6.178,6.178,0,0,0,.754,1.083,40.366,40.366,0,0,0,4.736.29,39.8,39.8,0,0,0,34.879-20.616c-2.5-1.671-6.4-3.88-10.171-4.092A16.861,16.861,0,0,0,672.833,161.175Z" transform="translate(-622.705 -103.565)" fill="none" stroke="#ec2227" stroke-miterlimit="10" stroke-width="1.8"/>
    </g>
    <path id="Path_4016" data-name="Path 4016" d="M649.358,114.49c0,6.068-10.982,20.59-10.982,20.59s-6.85-9.06-9.732-15.855a13.147,13.147,0,0,1-1.25-4.736,10.982,10.982,0,0,1,21.963,0Z" transform="translate(-2.45 -0.001)" fill="#fff" stroke="#ec2227" stroke-miterlimit="10" stroke-width="1.8"/>
    <path id="Path_4017" data-name="Path 4017" d="M644.945,115.077a4.118,4.118,0,1,1-4.118-4.118A4.118,4.118,0,0,1,644.945,115.077Z" transform="translate(-4.9 -1.961)" fill="#fff" stroke="#ec2227" stroke-miterlimit="10" stroke-width="1.8"/>
    <path id="Path_4018" data-name="Path 4018" d="M705.235,164.78a18.593,18.593,0,0,1-2.457,7.289,110.008,110.008,0,0,1-8.525,13.3s-3.6-4.763-6.685-9.979a52.464,52.464,0,0,1-3.047-5.875,13.146,13.146,0,0,1-1.25-4.735,10.982,10.982,0,1,1,21.963,0Z" transform="translate(-17.147 -13.228)" fill="#fff" stroke="#ec2227" stroke-miterlimit="10" stroke-width="1.8"/>
    <path id="Path_4019" data-name="Path 4019" d="M700.821,165.366a4.118,4.118,0,1,1-4.118-4.118A4.118,4.118,0,0,1,700.821,165.366Z" transform="translate(-19.597 -15.188)" fill="none" stroke="#ec2227" stroke-miterlimit="10" stroke-width="1.8"/>
  </g>
</svg>
