<svg xmlns="http://www.w3.org/2000/svg" width="75.132" height="78.724" viewBox="0 0 75.132 78.724">
  <g id="Group_4905" data-name="Group 4905" transform="translate(-564.08 -304.357)">
    <path id="Path_4136" data-name="Path 4136" d="M693.65,370.009a5.749,5.749,0,0,1,4.916,5.124l.176,1.772,4.5.252,10.228-6.845V318.4H683.216v50.41Z" transform="translate(-85.765 -9.532)" fill="#fff" stroke="#ec2227" stroke-miterlimit="10" stroke-width="1.8"/>
    <path id="Path_4137" data-name="Path 4137" d="M709.389,305.257H676.072a.354.354,0,0,0-.354.354v2.9a.354.354,0,0,0,.354.354h33.317a.354.354,0,0,0,.354-.354v-2.9A.354.354,0,0,0,709.389,305.257Z" transform="translate(-80.326)" fill="#fff" stroke="#ec2227" stroke-miterlimit="10" stroke-width="1.8"/>
    <g id="Group_4903" data-name="Group 4903" transform="translate(601.212 314.171)">
      <path id="Path_4138" data-name="Path 4138" d="M701.659,343.654h-4.447a.3.3,0,0,1-.3-.3v-5.337a.3.3,0,0,1,.3-.3h4.447a.3.3,0,0,1,.3.3v5.337A.3.3,0,0,1,701.659,343.654Z" transform="translate(-696.91 -337.715)" fill="#fff" stroke="#ec2227" stroke-miterlimit="10" stroke-width="1.8"/>
      <path id="Path_4139" data-name="Path 4139" d="M733.856,343.654h-4.447a.3.3,0,0,1-.3-.3v-5.337a.3.3,0,0,1,.3-.3h4.447a.3.3,0,0,1,.3.3v5.337A.3.3,0,0,1,733.856,343.654Z" transform="translate(-720.266 -337.715)" fill="#fff" stroke="#ec2227" stroke-miterlimit="10" stroke-width="1.8"/>
      <path id="Path_4140" data-name="Path 4140" d="M766.054,343.654h-4.447a.3.3,0,0,1-.3-.3v-5.337a.3.3,0,0,1,.3-.3h4.447a.3.3,0,0,1,.3.3v5.337A.3.3,0,0,1,766.054,343.654Z" transform="translate(-743.621 -337.715)" fill="#fff" stroke="#ec2227" stroke-miterlimit="10" stroke-width="1.8"/>
      <path id="Path_4141" data-name="Path 4141" d="M701.659,391.909h-4.447a.3.3,0,0,1-.3-.3v-5.337a.3.3,0,0,1,.3-.3h4.447a.3.3,0,0,1,.3.3v5.337A.3.3,0,0,1,701.659,391.909Z" transform="translate(-696.91 -372.718)" fill="#fff" stroke="#ec2227" stroke-miterlimit="10" stroke-width="1.8"/>
      <path id="Path_4142" data-name="Path 4142" d="M733.856,391.909h-4.447a.3.3,0,0,1-.3-.3v-5.337a.3.3,0,0,1,.3-.3h4.447a.3.3,0,0,1,.3.3v5.337A.3.3,0,0,1,733.856,391.909Z" transform="translate(-720.266 -372.718)" fill="#fff" stroke="#ec2227" stroke-miterlimit="10" stroke-width="1.8"/>
      <path id="Path_4143" data-name="Path 4143" d="M766.054,391.909h-4.447a.3.3,0,0,1-.3-.3v-5.337a.3.3,0,0,1,.3-.3h4.447a.3.3,0,0,1,.3.3v5.337A.3.3,0,0,1,766.054,391.909Z" transform="translate(-743.621 -372.718)" fill="#fff" stroke="#ec2227" stroke-miterlimit="10" stroke-width="1.8"/>
      <path id="Path_4144" data-name="Path 4144" d="M701.659,440.165h-4.447a.3.3,0,0,1-.3-.3v-5.337a.3.3,0,0,1,.3-.3h4.447a.3.3,0,0,1,.3.3v5.337A.3.3,0,0,1,701.659,440.165Z" transform="translate(-696.91 -407.721)" fill="#fff" stroke="#ec2227" stroke-miterlimit="10" stroke-width="1.8"/>
      <path id="Path_4145" data-name="Path 4145" d="M733.856,440.165h-4.447a.3.3,0,0,1-.3-.3v-5.337a.3.3,0,0,1,.3-.3h4.447a.3.3,0,0,1,.3.3v5.337A.3.3,0,0,1,733.856,440.165Z" transform="translate(-720.266 -407.721)" fill="#fff" stroke="#ec2227" stroke-miterlimit="10" stroke-width="1.8"/>
      <path id="Path_4146" data-name="Path 4146" d="M766.054,440.165h-4.447a.3.3,0,0,1-.3-.3v-5.337a.3.3,0,0,1,.3-.3h4.447a.3.3,0,0,1,.3.3v5.337A.3.3,0,0,1,766.054,440.165Z" transform="translate(-743.621 -407.721)" fill="#fff" stroke="#ec2227" stroke-miterlimit="10" stroke-width="1.8"/>
      <path id="Path_4147" data-name="Path 4147" d="M733.856,488.42h-4.447a.3.3,0,0,1-.3-.3v-5.337a.3.3,0,0,1,.3-.3h4.447a.3.3,0,0,1,.3.3v5.337A.3.3,0,0,1,733.856,488.42Z" transform="translate(-720.266 -442.724)" fill="#fff" stroke="#ec2227" stroke-miterlimit="10" stroke-width="1.8"/>
      <path id="Path_4148" data-name="Path 4148" d="M701.659,488.42h-4.447a.3.3,0,0,1-.3-.3v-5.337a.3.3,0,0,1,.3-.3h4.447a.3.3,0,0,1,.3.3v5.337A.3.3,0,0,1,701.659,488.42Z" transform="translate(-696.91 -442.724)" fill="#fff" stroke="#ec2227" stroke-miterlimit="10" stroke-width="1.8"/>
      <path id="Path_4149" data-name="Path 4149" d="M766.054,488.42h-4.447a.3.3,0,0,1-.3-.3v-5.337a.3.3,0,0,1,.3-.3h4.447a.3.3,0,0,1,.3.3v5.337A.3.3,0,0,1,766.054,488.42Z" transform="translate(-743.621 -442.724)" fill="#fff" stroke="#ec2227" stroke-miterlimit="10" stroke-width="1.8"/>
    </g>
    <path id="Path_4150" data-name="Path 4150" d="M626.568,410.232a21.612,21.612,0,0,0,7.884,2.744l12.057,1.388a5.734,5.734,0,0,1,3.41,1.788V380.247a.7.7,0,0,0-.7-.7h-30.29a.7.7,0,0,0-.7.7v27.184A21.612,21.612,0,0,1,626.568,410.232Z" transform="translate(-38.625 -53.887)" fill="#fff" stroke="#ec2227" stroke-miterlimit="10" stroke-width="1.8"/>
    <path id="Path_4151" data-name="Path 4151" d="M639.992,362.959H631.45c-.349,0-.632.165-.632.368v3.9c0,.2.283.368.632.368h8.542c.349,0,.632-.165.632-.368v-3.9C640.623,363.124,640.34,362.959,639.992,362.959Z" transform="translate(-47.757 -41.855)" fill="#fff" stroke="#ec2227" stroke-miterlimit="10" stroke-width="1.8"/>
    <g id="Group_4904" data-name="Group 4904" transform="translate(583.35 331.459)">
      <path id="Path_4152" data-name="Path 4152" d="M654.586,471.843H632.064a.2.2,0,0,1-.2-.2v-3.416a.2.2,0,0,1,.2-.2h22.521a.2.2,0,0,1,.2.2v3.416A.2.2,0,0,1,654.586,471.843Z" transform="translate(-631.869 -449.535)" fill="#fff" stroke="#ec2227" stroke-miterlimit="10" stroke-width="1.8"/>
      <path id="Path_4153" data-name="Path 4153" d="M654.586,438.158H632.064a.2.2,0,0,1-.2-.2v-3.416a.2.2,0,0,1,.2-.195h22.521a.2.2,0,0,1,.2.195v3.416A.2.2,0,0,1,654.586,438.158Z" transform="translate(-631.869 -425.101)" fill="#fff" stroke="#ec2227" stroke-miterlimit="10" stroke-width="1.8"/>
      <path id="Path_4154" data-name="Path 4154" d="M654.586,404.473H632.064a.2.2,0,0,1-.2-.195v-3.416a.2.2,0,0,1,.2-.2h22.521a.2.2,0,0,1,.2.2v3.416A.2.2,0,0,1,654.586,404.473Z" transform="translate(-631.869 -400.667)" fill="#fff" stroke="#ec2227" stroke-miterlimit="10" stroke-width="1.8"/>
    </g>
    <path id="Path_4155" data-name="Path 4155" d="M656.713,484.647l-15.1,10.105-4.5-.252-.176-1.772a5.749,5.749,0,0,0-4.916-5.124l-12.057-1.388a21.611,21.611,0,0,1-7.884-2.744h0a21.613,21.613,0,0,0-10.912-2.957h-2.914v22.032l17.2,6.512a6.258,6.258,0,0,0,2.671.178l.016,0,23.13-3.334a10.233,10.233,0,0,0,4.856-2.176l14.95-13.446a3.569,3.569,0,0,0,.581-4.677h0A3.569,3.569,0,0,0,656.713,484.647Z" transform="translate(-24.136 -127.127)" fill="#fff" stroke="#ec2227" stroke-miterlimit="10" stroke-width="1.8"/>
    <path id="Path_4156" data-name="Path 4156" d="M571.268,495.032h-3.439a2.849,2.849,0,0,1-2.849-2.849V466.729a2.849,2.849,0,0,1,2.849-2.849h3.44a2.849,2.849,0,0,1,2.849,2.849v25.454A2.849,2.849,0,0,1,571.268,495.032Z" transform="translate(0 -115.061)" fill="#fff" stroke="#ec2227" stroke-miterlimit="10" stroke-width="1.8"/>
    <path id="Path_4157" data-name="Path 4157" d="M583.336,463.88h-1.719v31.152h1.72a2.849,2.849,0,0,0,2.849-2.849V466.729A2.849,2.849,0,0,0,583.336,463.88Z" transform="translate(-12.068 -115.061)" fill="#fff" stroke="#ec2227" stroke-miterlimit="10" stroke-width="1.8"/>
    <path id="Path_4158" data-name="Path 4158" d="M612.58,367.625l-16.561-1.073" fill="none" stroke="#ec2227" stroke-width="1.8"/>
  </g>
</svg>
