<svg xmlns="http://www.w3.org/2000/svg" width="114.729" height="78.451" viewBox="0 0 114.729 78.451">
  <g id="Group_6176" data-name="Group 6176" transform="translate(2492.095 2260.39)">
    <path id="Path_6649" data-name="Path 6649" d="M-2378.614-2212.644c-8.773-12.183-14.252-12.518-22.058-12.606l-5.61-.062-1.3-5.457c-2.644-11.078-13.977-19.119-26.946-19.119s-24.3,8.041-26.947,19.119l-1.3,5.457-5.61.063c-7.806.088-13.284.423-22.057,12.606,1.643,7.094,6.89,16.52,17.465,28.92a9.294,9.294,0,0,0,10.086,2.774c5.487-1.889,14.993-4.233,28.365-4.233s22.877,2.345,28.365,4.233a9.3,9.3,0,0,0,10.086-2.774c10.543-12.364,15.79-21.771,17.45-28.857Z" transform="translate(-0.2 -2.463)" fill="none" stroke="#fff" stroke-miterlimit="10" stroke-width="1.7"/>
    <path id="Path_6650" data-name="Path 6650" d="M-2405.011-2205.69a15.763,15.763,0,0,0-15.764-15.763,15.763,15.763,0,0,0-15.763,15.763c0,4.94,2.273,7.428,5.829,8.658v2.632a2.484,2.484,0,0,0,2.484,2.484,2.484,2.484,0,0,0,2.483-2.484,2.484,2.484,0,0,0,2.484,2.484,2.484,2.484,0,0,0,2.484-2.484,2.484,2.484,0,0,0,2.483,2.484,2.484,2.484,0,0,0,2.484-2.484,2.484,2.484,0,0,0,2.483,2.484,2.483,2.483,0,0,0,2.484-2.484v-2.632C-2407.285-2198.262-2405.011-2200.751-2405.011-2205.69Z" transform="translate(-13.956 -9.719)" fill="none" stroke="#fff" stroke-miterlimit="10" stroke-width="1.7"/>
    <path id="Path_6651" data-name="Path 6651" d="M-2400.791-2234.9c-3.362-14.082-17.279-24.639-33.939-24.639s-30.578,10.557-33.939,24.639c-12.582.141-25.483,4.659-21.977,19.794,8.773-12.184,14.251-12.518,22.057-12.606l5.61-.062,1.3-5.457c2.644-11.078,13.977-19.119,26.947-19.119s24.3,8.041,26.946,19.119l1.3,5.457,5.61.063c7.8.088,13.284.423,22.057,12.606C-2375.308-2230.241-2388.21-2234.76-2400.791-2234.9Z" fill="none" stroke="#fff" stroke-miterlimit="10" stroke-width="1.7"/>
    <g id="Group_6174" data-name="Group 6174" transform="translate(-2456.993 -2238.666)">
      <path id="Path_6652" data-name="Path 6652" d="M-2432.593-2185.192a2.469,2.469,0,0,1-.343-1.256v-2.632a10.176,10.176,0,0,1-2.456-1.21l-4.009,4.009a3.442,3.442,0,0,0-4.855.012,3.442,3.442,0,0,0,0,4.868,3.433,3.433,0,0,0,2.957.965,3.434,3.434,0,0,0,.964,2.957,3.443,3.443,0,0,0,4.87,0,3.443,3.443,0,0,0,.013-4.854Z" transform="translate(2445.264 2220.995)" fill="none" stroke="#fff" stroke-miterlimit="10" stroke-width="1.7"/>
      <path id="Path_6653" data-name="Path 6653" d="M-2391.244-2226.585a3.43,3.43,0,0,0-2.956-.965,3.437,3.437,0,0,0-.965-2.957,3.443,3.443,0,0,0-4.869,0,3.442,3.442,0,0,0-.013,4.855l-4.056,4.056a15.83,15.83,0,0,1,4.127,3.769l3.877-3.877a3.442,3.442,0,0,0,4.854-.013A3.442,3.442,0,0,0-2391.244-2226.585Z" transform="translate(2434.761 2231.515)" fill="none" stroke="#fff" stroke-miterlimit="10" stroke-width="1.7"/>
    </g>
    <path id="Path_6654" data-name="Path 6654" d="M-2427.143-2199.654a1.706,1.706,0,0,0-1.706,1.705v1.51a1.706,1.706,0,0,0,1.706,1.7,1.705,1.705,0,0,0,1.7-1.7v-1.51A1.7,1.7,0,0,0-2427.143-2199.654Z" transform="translate(-15.918 -15.281)" fill="none" stroke="#fff" stroke-miterlimit="10" stroke-width="1.7"/>
    <path id="Path_6655" data-name="Path 6655" d="M-2403.03-2196.438v-1.51a1.7,1.7,0,0,0-1.7-1.705,1.7,1.7,0,0,0-1.705,1.705v1.51a1.7,1.7,0,0,0,1.705,1.7A1.705,1.705,0,0,0-2403.03-2196.438Z" transform="translate(-21.636 -15.281)" fill="none" stroke="#fff" stroke-miterlimit="10" stroke-width="1.7"/>
    <g id="Group_6175" data-name="Group 6175" transform="translate(-2456.993 -2238.666)">
      <path id="Path_6656" data-name="Path 6656" d="M-2390.834-2186.269a3.442,3.442,0,0,0-4.855-.012l-4.008-4.009a10.18,10.18,0,0,1-2.456,1.21v2.632a2.469,2.469,0,0,1-.344,1.256l2.86,2.86a3.442,3.442,0,0,0,.012,4.854,3.443,3.443,0,0,0,4.869,0,3.437,3.437,0,0,0,.965-2.957,3.431,3.431,0,0,0,2.956-.965A3.442,3.442,0,0,0-2390.834-2186.269Z" transform="translate(2434.351 2220.995)" fill="none" stroke="#fff" stroke-miterlimit="10" stroke-width="1.7"/>
      <path id="Path_6657" data-name="Path 6657" d="M-2431.4-2221.6l-4.055-4.056a3.443,3.443,0,0,0-.013-4.855,3.444,3.444,0,0,0-4.87,0,3.434,3.434,0,0,0-.964,2.957,3.431,3.431,0,0,0-2.957.965,3.443,3.443,0,0,0,0,4.869,3.442,3.442,0,0,0,4.855.013l3.876,3.877A15.843,15.843,0,0,1-2431.4-2221.6Z" transform="translate(2445.264 2231.515)" fill="none" stroke="#fff" stroke-miterlimit="10" stroke-width="1.7"/>
    </g>
  </g>
</svg>
