<svg xmlns="http://www.w3.org/2000/svg" width="61.577" height="69.285" viewBox="0 0 61.577 69.285">
  <g id="Group_5159" data-name="Group 5159" transform="translate(-896.831 -886.529)">
    <path id="Shape" d="M991.12,965.442l13.707-.578a3.464,3.464,0,0,1,3.579,3.037l1.64,13.06a3.468,3.468,0,0,1-6.882.866l-1.236-9.9-4.035.568Z" transform="translate(-52.419 -43.415)" fill="none" stroke="#fff" stroke-miterlimit="10" stroke-width="1.5"/>
    <path id="Shape-2" data-name="Shape" d="M935.466,907.957a1.156,1.156,0,0,1-.816-.339l-10.392-10.392a1.155,1.155,0,0,1,1.633-1.633l10.392,10.392a1.155,1.155,0,0,1-.816,1.971Z" transform="translate(-14.768 -4.416)" fill="none" stroke="#fff" stroke-miterlimit="10" stroke-width="1.5"/>
    <path id="Shape-3" data-name="Shape" d="M942.826,894.3a1.158,1.158,0,0,1-.816-.338l-4.618-4.619a1.155,1.155,0,0,1,1.633-1.633l4.619,4.619a1.155,1.155,0,0,1-.816,1.971Z" transform="translate(-22.128 0)" fill="none" stroke="#fff" stroke-miterlimit="10" stroke-width="1.5"/>
    <path id="Path_4507" data-name="Path 4507" d="M897.6,922.837l-.023-2.333.023,26.086a1.165,1.165,0,0,0,.335.808l6.594,6.593v-3.464a3.464,3.464,0,1,1,6.928,0V960.92l12.367,12.367a1.163,1.163,0,0,0,.808.335h23.753Z" transform="translate(0 -18.558)" fill="none" stroke="#fff" stroke-miterlimit="10" stroke-width="1.5"/>
    <path id="Shape-4" data-name="Shape" d="M956.029,965.138h-7.61l-50.785-50.785v-7.61a1.155,1.155,0,0,1,1.974-.808l57.229,57.229a1.155,1.155,0,0,1-.808,1.974Z" transform="translate(-0.03 -10.202)" fill="none" stroke="#fff" stroke-miterlimit="10" stroke-width="1.5"/>
    <path id="Path_4508" data-name="Path 4508" d="M971.8,955.218l-5.912-5.912a1.276,1.276,0,0,1-.092.173,3.289,3.289,0,0,1-.878.912,3.464,3.464,0,0,1-4.931-.993l-5.439-8.268a3.412,3.412,0,0,1-.439-2.609l.185-.809-.231-.231a4.693,4.693,0,0,0-6.64-.116,4.619,4.619,0,0,0-.67,5.624L966.3,962.538a4.642,4.642,0,0,0,5.612-.681,4.692,4.692,0,0,0-.116-6.64Z" transform="translate(-27.185 -27.267)" fill="none" stroke="#fff" stroke-miterlimit="10" stroke-width="1.5"/>
    <path id="Shape-5" data-name="Shape" d="M976.72,902.007a6.351,6.351,0,0,1-8.938.047l-.047-.047a6.351,6.351,0,1,1,8.984,0Z" transform="translate(-38.273 -2.117)" fill="none" stroke="#fff" stroke-miterlimit="10" stroke-width="1.5"/>
    <path id="Shape-6" data-name="Shape" d="M976.428,936.509a3.377,3.377,0,0,1-.439,1.525,1.282,1.282,0,0,1-.092.173,3.289,3.289,0,0,1-.878.912,3.464,3.464,0,0,1-4.931-.993l-5.439-8.268a3.411,3.411,0,0,1-.439-2.609l.185-.808,1.824-7.967.578-2.541a6.34,6.34,0,0,0,6.8,1.362l-.6,2.621-1.513,6.536a2.366,2.366,0,0,0,.3,1.744l4.076,6.085a3.772,3.772,0,0,1,.566,2.228Z" transform="translate(-37.288 -15.995)" fill="none" stroke="#fff" stroke-miterlimit="10" stroke-width="1.5"/>
    <path id="Shape-7" data-name="Shape" d="M920.322,983.093v20.785a2.316,2.316,0,0,1-2.309,2.309H915.7a2.316,2.316,0,0,1-2.31-2.309V983.093a3.464,3.464,0,1,1,6.928,0Z" transform="translate(-8.862 -51.691)" fill="none" stroke="#fff" stroke-miterlimit="10" stroke-width="1.5"/>
  </g>
</svg>
