<svg xmlns="http://www.w3.org/2000/svg" width="50.639" height="82.573" viewBox="0 0 50.639 82.573">
  <g id="Group_6012" data-name="Group 6012" transform="translate(1082.483 -1491.5)">
    <rect id="Rectangle_2899" data-name="Rectangle 2899" width="15.423" height="52.695" transform="translate(-1081.583 1520.478)" fill="none" stroke="#fff" stroke-miterlimit="10" stroke-width="1.8"/>
    <rect id="Rectangle_2900" data-name="Rectangle 2900" width="10.282" height="8.996" transform="translate(-1079.012 1511.482)" fill="none" stroke="#fff" stroke-miterlimit="10" stroke-width="1.8"/>
    <path id="Path_6323" data-name="Path 6323" d="M-1067.214,1518.529h-7.711v-5.141l3.855-5.141,3.856,5.141Z" transform="translate(-2.802 -7.047)" fill="none" stroke="#fff" stroke-miterlimit="10" stroke-width="1.8"/>
    <rect id="Rectangle_2901" data-name="Rectangle 2901" width="7.711" height="2.571" transform="translate(-1077.727 1524.334)" fill="#fff"/>
    <rect id="Rectangle_2902" data-name="Rectangle 2902" width="7.711" height="2.57" transform="translate(-1077.727 1529.475)" fill="#fff"/>
    <rect id="Rectangle_2903" data-name="Rectangle 2903" width="7.711" height="2.571" transform="translate(-1077.727 1534.615)" fill="#fff"/>
    <rect id="Rectangle_2904" data-name="Rectangle 2904" width="7.711" height="2.571" transform="translate(-1077.727 1539.756)" fill="#fff"/>
    <rect id="Rectangle_2905" data-name="Rectangle 2905" width="7.711" height="2.571" transform="translate(-1077.727 1544.898)" fill="#fff"/>
    <rect id="Rectangle_2906" data-name="Rectangle 2906" width="7.711" height="2.57" transform="translate(-1077.727 1550.039)" fill="#fff"/>
    <rect id="Rectangle_2907" data-name="Rectangle 2907" width="7.711" height="2.571" transform="translate(-1077.727 1555.179)" fill="#fff"/>
    <rect id="Rectangle_2908" data-name="Rectangle 2908" width="7.711" height="2.571" transform="translate(-1077.727 1560.32)" fill="#fff"/>
    <rect id="Rectangle_2909" data-name="Rectangle 2909" width="15.423" height="52.695" transform="translate(-1048.167 1520.478)" fill="none" stroke="#fff" stroke-miterlimit="10" stroke-width="1.8"/>
    <rect id="Rectangle_2910" data-name="Rectangle 2910" width="10.282" height="8.996" transform="translate(-1045.597 1511.482)" fill="none" stroke="#fff" stroke-miterlimit="10" stroke-width="1.8"/>
    <path id="Path_6324" data-name="Path 6324" d="M-1009.52,1518.529h-7.712v-5.141l3.856-5.141,3.856,5.141Z" transform="translate(-27.08 -7.047)" fill="none" stroke="#fff" stroke-miterlimit="10" stroke-width="1.8"/>
    <rect id="Rectangle_2911" data-name="Rectangle 2911" width="7.712" height="2.571" transform="translate(-1044.311 1524.334)" fill="#fff"/>
    <rect id="Rectangle_2912" data-name="Rectangle 2912" width="7.712" height="2.57" transform="translate(-1044.311 1529.475)" fill="#fff"/>
    <rect id="Rectangle_2913" data-name="Rectangle 2913" width="7.712" height="2.571" transform="translate(-1044.311 1534.615)" fill="#fff"/>
    <rect id="Rectangle_2914" data-name="Rectangle 2914" width="7.712" height="2.571" transform="translate(-1044.311 1539.756)" fill="#fff"/>
    <rect id="Rectangle_2915" data-name="Rectangle 2915" width="7.712" height="2.571" transform="translate(-1044.311 1544.898)" fill="#fff"/>
    <rect id="Rectangle_2916" data-name="Rectangle 2916" width="7.712" height="2.57" transform="translate(-1044.311 1550.039)" fill="#fff"/>
    <rect id="Rectangle_2917" data-name="Rectangle 2917" width="7.712" height="2.571" transform="translate(-1044.311 1555.179)" fill="#fff"/>
    <rect id="Rectangle_2918" data-name="Rectangle 2918" width="7.712" height="2.571" transform="translate(-1044.311 1560.32)" fill="#fff"/>
    <rect id="Rectangle_2919" data-name="Rectangle 2919" width="17.993" height="3.856" transform="translate(-1066.16 1541.042)" fill="none" stroke="#fff" stroke-miterlimit="10" stroke-width="1.8"/>
    <line id="Line_446" data-name="Line 446" y2="10.279" transform="translate(-1073.871 1491.5)" fill="none" stroke="#fff" stroke-miterlimit="10" stroke-width="1.8"/>
    <line id="Line_447" data-name="Line 447" y2="10.279" transform="translate(-1040.456 1491.5)" fill="none" stroke="#fff" stroke-miterlimit="10" stroke-width="1.8"/>
    <path id="Path_6325" data-name="Path 6325" d="M-1055.148,1591.856l9.3-8.162,8.832,8.5" transform="translate(-11.124 -38.797)" fill="none" stroke="#fff" stroke-miterlimit="10" stroke-width="1.8"/>
  </g>
</svg>
