<svg xmlns="http://www.w3.org/2000/svg" width="60.1" height="80.385" viewBox="0 0 60.1 80.385">
  <g id="Group_5011" data-name="Group 5011" transform="translate(-666.86 -38.803)">
    <path id="Path_4324" data-name="Path 4324" d="M695.141,39.763a28.537,28.537,0,0,0-5.565.885,29.39,29.39,0,0,0-21.815,28.458c.157,18.145,17.651,28.218,25.715,46.949a3.755,3.755,0,0,0,6.872-.008c8.1-18.81,25.712-28.889,25.712-47.187A29.153,29.153,0,0,0,695.141,39.763Zm1.77,49.376A20.278,20.278,0,1,1,717.188,68.86,20.278,20.278,0,0,1,696.911,89.139Z" fill="none" stroke="#eb2127" stroke-miterlimit="10" stroke-width="1.8"/>
    <path id="Path_4325" data-name="Path 4325" d="M707.758,64.368h-7.366l-2.276-7.006a1.267,1.267,0,0,0-2.411,0l-2.277,7.006h-7.366a1.267,1.267,0,0,0-.745,2.292l5.96,4.33L689,78a1.268,1.268,0,0,0,1.951,1.417l5.96-4.33,5.959,4.33A1.267,1.267,0,0,0,704.82,78l-2.277-7.006,5.96-4.33A1.267,1.267,0,0,0,707.758,64.368Z" fill="#ec2227"/>
  </g>
</svg>
