<svg xmlns="http://www.w3.org/2000/svg" width="72.5" height="72.5" viewBox="0 0 72.5 72.5">
  <g id="Group_5077" data-name="Group 5077" transform="translate(149.583 -1013.906)">
    <path id="Path_4468" data-name="Path 4468" d="M-109.239,1014.656h4.16v4.16h-4.16Z" transform="translate(-14.494)" fill="none" stroke="#fff" stroke-miterlimit="10" stroke-width="1.5"/>
    <path id="Path_4469" data-name="Path 4469" d="M-96.114,1100.188h4.16v4.16h-4.16Z" transform="translate(-19.299 -31.311)" fill="none" stroke="#fff" stroke-miterlimit="10" stroke-width="1.5"/>
    <path id="Path_4470" data-name="Path 4470" d="M-102.677,1106.75H-90.2v8.459h-12.481Z" transform="translate(-16.896 -33.713)" fill="none" stroke="#fff" stroke-miterlimit="10" stroke-width="1.5"/>
    <path id="Path_4474" data-name="Path 4474" d="M-115.8,1087.063v8.32h29.121v-8.32Z" transform="translate(-12.092 -26.506)" fill="none" stroke="#fff" stroke-miterlimit="10" stroke-width="1.5"/>
    <path id="Path_4475" data-name="Path 4475" d="M-59.343,1060.813a10.419,10.419,0,0,0-10.191,8.32h4.315a6.245,6.245,0,0,1,5.876-4.16h6.379v4.16h4.16v-8.32Z" transform="translate(-29.029 -16.897)" fill="none" stroke="#fff" stroke-miterlimit="10" stroke-width="1.5"/>
    <path id="Path_4476" data-name="Path 4476" d="M-128.927,1120.094h45.762v4.16h-45.762Z" transform="translate(-7.287 -38.598)" fill="none" stroke="#fff" stroke-miterlimit="10" stroke-width="1.5"/>
    <path id="Path_4477" data-name="Path 4477" d="M-110.206,1021.219h-8.32a10.4,10.4,0,0,0-10.4,10.4V1038h29.121v-6.379A10.4,10.4,0,0,0-110.206,1021.219Z" transform="translate(-7.287 -2.403)" fill="none" stroke="#fff" stroke-miterlimit="10" stroke-width="1.5"/>
    <path id="Path_4478" data-name="Path 4478" d="M-148.833,1073.938v8.32h71v-8.32Z" transform="translate(0 -21.702)" fill="none" stroke="#fff" stroke-miterlimit="10" stroke-width="1.5"/>
  </g>
</svg>
