<svg xmlns="http://www.w3.org/2000/svg" width="75.434" height="67.617" viewBox="0 0 75.434 67.617">
  <g id="Group_6009" data-name="Group 6009" transform="translate(-250.865 -1822.484)">
    <path id="Path_6304" data-name="Path 6304" d="M344.66,1949.073a32.877,32.877,0,0,1-21.487,7.952h40.1a.721.721,0,0,0,.721-.721v-6.51a.721.721,0,0,0-.721-.721Z" transform="translate(-38.5 -67.725)" fill="none" stroke="#fff" stroke-miterlimit="10" stroke-width="1.6"/>
    <path id="Path_6305" data-name="Path 6305" d="M284.673,1823.284a33.008,33.008,0,1,0,33.008,33.008A33.008,33.008,0,0,0,284.673,1823.284Zm0,7.132a7.211,7.211,0,0,1,7.211,7.211q0,.336-.031.664a7.21,7.21,0,0,1-14.359,0q-.032-.328-.031-.664a7.211,7.211,0,0,1,7.211-7.211Zm-24.584,17.609a7.211,7.211,0,0,1,9.148-4.506q.332.114.648.256a7.211,7.211,0,0,1-4.557,13.6,6.928,6.928,0,0,1-.732-.208,7.21,7.21,0,0,1-4.506-9.147Zm18.416,26.64a7.061,7.061,0,0,1-.508.672,7.211,7.211,0,1,1-10.977-9.355,7.6,7.6,0,0,1,.549-.579,7.212,7.212,0,0,1,10.935,9.262Zm6.169-14.034a4.338,4.338,0,1,1,4.338-4.338,4.338,4.338,0,0,1-4.338,4.338Zm16.841,15.517a7.212,7.212,0,0,1-10.165-.812,7.04,7.04,0,0,1-.508-.671,7.212,7.212,0,0,1,10.935-9.263,7.793,7.793,0,0,1,.549.579,7.212,7.212,0,0,1-.812,10.166Zm3.238-18.976a7.21,7.21,0,0,1-5.29-13.4q.314-.143.647-.256a7.211,7.211,0,1,1,4.643,13.653Z" transform="translate(0 0)" fill="none" stroke="#fff" stroke-miterlimit="10" stroke-width="1.6"/>
    <g id="Group_6008" data-name="Group 6008" transform="translate(265.297 1836.917)">
      <path id="Path_6306" data-name="Path 6306" d="M281.228,1881.279c-.019-.361-.03-.722-.03-1.087a19.3,19.3,0,0,1,4.586-12.518,7.211,7.211,0,0,1-4.556,13.6Z" transform="translate(-281.198 -1860.816)" fill="#fff" stroke="#fff" stroke-miterlimit="10" stroke-width="1.6"/>
      <path id="Path_6307" data-name="Path 6307" d="M297.054,1921.509a19.422,19.422,0,0,1-10.935-9.262,7.212,7.212,0,0,1,10.935,9.262Z" transform="translate(-283.847 -1883.762)" fill="#fff" stroke="#fff" stroke-miterlimit="10" stroke-width="1.6"/>
      <path id="Path_6308" data-name="Path 6308" d="M314.8,1860.738a7.211,7.211,0,0,1-7.18-6.547,19.449,19.449,0,0,1,14.359,0,7.211,7.211,0,0,1-7.179,6.547Z" transform="translate(-295.423 -1852.817)" fill="#fff" stroke="#fff" stroke-miterlimit="10" stroke-width="1.6"/>
      <path id="Path_6309" data-name="Path 6309" d="M346.055,1912.247a19.422,19.422,0,0,1-10.935,9.262,7.212,7.212,0,0,1,10.935-9.262Z" transform="translate(-309.575 -1883.762)" fill="#fff" stroke="#fff" stroke-miterlimit="10" stroke-width="1.6"/>
    </g>
    <path id="Path_6310" data-name="Path 6310" d="M354.848,1880.191c0,.365-.011.727-.03,1.087a7.211,7.211,0,0,1-4.557-13.6A19.3,19.3,0,0,1,354.848,1880.191Z" transform="translate(-50.799 -23.899)" fill="#fff" stroke="#fff" stroke-miterlimit="10" stroke-width="1.6"/>
  </g>
</svg>
