<svg xmlns="http://www.w3.org/2000/svg" width="79.585" height="82.68" viewBox="0 0 79.585 82.68">
  <g id="Group_5969" data-name="Group 5969" transform="translate(-217.546 -1112.407)">
    <path id="Path_4530" data-name="Path 4530" d="M294.074,1183.5a4.528,4.528,0,0,0-3.9,2.284.7.7,0,0,1-1.155-.008,4.48,4.48,0,0,0-8.366,2.212c.005,5.006,4.42,8.959,8.756,11.006a.483.483,0,0,0,.411,0,20.906,20.906,0,0,0,4.286-2.763c2.955-2.483,4.451-5.262,4.448-8.261A4.482,4.482,0,0,0,294.074,1183.5Z" transform="translate(-32.261 -36.344)" fill="none" stroke="#fff" stroke-miterlimit="10" stroke-width="1.8"/>
    <path id="Path_4531" data-name="Path 4531" d="M256.251,1237.353a6.366,6.366,0,0,0-3.314,1.49l-1.474,1.273L242.725,1230a45.883,45.883,0,0,1,6.954-4.935c2.761-1.589,3.871-1.752,9.755-2.383h0c1.926-.169,2.885.249,10.8,2.494a2.987,2.987,0,0,1,2.225,3.563l12.816-5.284c.251-.125,3.227-1.784,4.873.9,1.443,2.533-1,4.367-1.491,4.687l-16.329,9.347h0a7.878,7.878,0,0,1-6.05,1l-6.339-1.8A8.115,8.115,0,0,0,256.251,1237.353Z" transform="translate(-12.592 -56.648)" fill="none" stroke="#fff" stroke-miterlimit="10" stroke-width="1.8"/>
    <path id="Path_4532" data-name="Path 4532" d="M240.145,1247.314,229.169,1234.6a1.273,1.273,0,0,0-1.795-.131l-8.514,7.351a1.194,1.194,0,0,0-.117,1.69l11.221,12.787a1.121,1.121,0,0,0,1.557.142l.011-.009,8.482-7.324A1.273,1.273,0,0,0,240.145,1247.314Z" transform="translate(0 -62.621)" fill="none" stroke="#fff" stroke-miterlimit="10" stroke-width="1.8"/>
    <path id="Path_4533" data-name="Path 4533" d="M220.538,1247.069l-1.677,1.448a1.194,1.194,0,0,0-.117,1.69l11.221,12.787a1.121,1.121,0,0,0,1.557.142l.01-.008,1.762-1.521Z" transform="translate(0 -69.315)" fill="none" stroke="#fff" stroke-miterlimit="10" stroke-width="1.8"/>
    <path id="Path_4534" data-name="Path 4534" d="M293.972,1136.726l1.474-1.273,8.738,10.119a45.912,45.912,0,0,1-6.955,4.935c-2.761,1.589-3.871,1.752-9.755,2.383h0c-1.926.169-2.885-.25-10.8-2.494a2.986,2.986,0,0,1-2.225-3.562l-12.816,5.284c-.251.125-3.227,1.784-4.873-.9-1.443-2.532,1-4.366,1.491-4.686l16.329-9.346h0a7.878,7.878,0,0,1,6.05-1l6.339,1.8A7.526,7.526,0,0,0,293.972,1136.726Z" transform="translate(-19.639 -11.426)" fill="none" stroke="#fff" stroke-miterlimit="10" stroke-width="1.8"/>
    <path id="Path_4535" data-name="Path 4535" d="M334.63,1122.8l10.976,12.712a1.273,1.273,0,0,0,1.795.131l8.514-7.351a1.194,1.194,0,0,0,.116-1.69l-11.221-12.788a1.122,1.122,0,0,0-1.557-.142l-.011.01-8.482,7.324A1.272,1.272,0,0,0,334.63,1122.8Z" transform="translate(-60.097)" fill="none" stroke="#fff" stroke-miterlimit="10" stroke-width="1.8"/>
    <path id="Path_4536" data-name="Path 4536" d="M336.469,1126.116l-1.706,1.474a1.272,1.272,0,0,0-.131,1.795l10.976,12.712a1.273,1.273,0,0,0,1.795.131l1.706-1.474Z" transform="translate(-60.097 -6.583)" fill="none" stroke="#fff" stroke-miterlimit="10" stroke-width="1.8"/>
  </g>
</svg>
