<svg xmlns="http://www.w3.org/2000/svg" width="79.192" height="62.173" viewBox="0 0 79.192 62.173">
  <g id="Group_5186" data-name="Group 5186" transform="translate(-3057.343 308.447)">
    <g id="Group_5182" data-name="Group 5182" transform="translate(3070.462 -300.669)">
      <path id="Path_4679" data-name="Path 4679" d="M3097.434-265.5c-.019.083-.038.164-.055.247C3097.4-265.336,3097.416-265.417,3097.434-265.5Z" transform="translate(-3086.198 283.912)" fill="none" stroke="#fff" stroke-miterlimit="10" stroke-width="1.8"/>
      <path id="Path_4680" data-name="Path 4680" d="M3097.137-246.416c.039.247.085.481.129.719C3097.222-245.935,3097.176-246.169,3097.137-246.416Z" transform="translate(-3086.101 276.238)" fill="none" stroke="#fff" stroke-miterlimit="10" stroke-width="1.8"/>
      <path id="Path_4681" data-name="Path 4681" d="M3098.512-240.4c.078.252.161.493.245.734C3098.674-239.9,3098.59-240.146,3098.512-240.4Z" transform="translate(-3086.655 273.819)" fill="none" stroke="#fff" stroke-miterlimit="10" stroke-width="1.8"/>
      <path id="Path_4682" data-name="Path 4682" d="M3097.982-242.277c.065.251.135.491.2.732C3098.117-241.786,3098.047-242.026,3097.982-242.277Z" transform="translate(-3086.441 274.574)" fill="none" stroke="#fff" stroke-miterlimit="10" stroke-width="1.8"/>
      <path id="Path_4683" data-name="Path 4683" d="M3097.523-244.281c.051.248.109.485.165.725C3097.632-243.8,3097.574-244.033,3097.523-244.281Z" transform="translate(-3086.257 275.38)" fill="none" stroke="#fff" stroke-miterlimit="10" stroke-width="1.8"/>
      <path id="Path_4684" data-name="Path 4684" d="M3096.448-258.244c-.019.386-.031.771-.031,1.158C3096.417-257.473,3096.429-257.858,3096.448-258.244Z" transform="translate(-3085.812 280.994)" fill="none" stroke="#fff" stroke-miterlimit="10" stroke-width="1.8"/>
      <path id="Path_4685" data-name="Path 4685" d="M3096.829-248.68c.027.241.063.469.095.7C3096.892-248.211,3096.857-248.439,3096.829-248.68Z" transform="translate(-3085.978 277.149)" fill="none" stroke="#fff" stroke-miterlimit="10" stroke-width="1.8"/>
      <path id="Path_4686" data-name="Path 4686" d="M3090.71-280.832a45.468,45.468,0,0,1,4.664-9.83,72.453,72.453,0,0,0-14.494-5.633,75.513,75.513,0,0,0-2.2,12.592A29.394,29.394,0,0,1,3090.71-280.832Z" transform="translate(-3078.68 296.294)" fill="none" stroke="#fff" stroke-miterlimit="10" stroke-width="1.8"/>
      <path id="Path_4687" data-name="Path 4687" d="M3096.576-260.151c-.023.231-.039.464-.055.7C3096.537-259.687,3096.553-259.92,3096.576-260.151Z" transform="translate(-3085.854 281.761)" fill="none" stroke="#fff" stroke-miterlimit="10" stroke-width="1.8"/>
      <path id="Path_4688" data-name="Path 4688" d="M3097.083-263.818q-.039.208-.074.417C3097.032-263.541,3097.058-263.679,3097.083-263.818Z" transform="translate(-3086.05 283.236)" fill="none" stroke="#fff" stroke-miterlimit="10" stroke-width="1.8"/>
      <path id="Path_4689" data-name="Path 4689" d="M3096.791-262.017c-.026.182-.048.364-.07.547C3096.743-261.653,3096.765-261.835,3096.791-262.017Z" transform="translate(-3085.934 282.511)" fill="none" stroke="#fff" stroke-miterlimit="10" stroke-width="1.8"/>
      <path id="Path_4690" data-name="Path 4690" d="M3103.4-230.859q-.26-.309-.51-.644Q3103.138-231.168,3103.4-230.859Z" transform="translate(-3088.414 270.242)" fill="none" stroke="#fff" stroke-miterlimit="10" stroke-width="1.8"/>
      <path id="Path_4691" data-name="Path 4691" d="M3096.6-251.081c.016.224.041.436.061.655C3096.645-250.645,3096.62-250.857,3096.6-251.081Z" transform="translate(-3085.887 278.114)" fill="none" stroke="#fff" stroke-miterlimit="10" stroke-width="1.8"/>
      <path id="Path_4692" data-name="Path 4692" d="M3102.5-232.053c-.159-.216-.315-.438-.467-.67C3102.188-232.491,3102.344-232.269,3102.5-232.053Z" transform="translate(-3088.071 270.733)" fill="none" stroke="#fff" stroke-miterlimit="10" stroke-width="1.8"/>
      <path id="Path_4693" data-name="Path 4693" d="M3104.709-229.342q.284.3.578.569h0Q3104.993-229.045,3104.709-229.342Z" transform="translate(-3089.146 269.373)" fill="none" stroke="#fff" stroke-miterlimit="10" stroke-width="1.8"/>
      <path id="Path_4694" data-name="Path 4694" d="M3104.328-229.766q-.279-.292-.549-.611Q3104.049-230.058,3104.328-229.766Z" transform="translate(-3088.772 269.789)" fill="none" stroke="#fff" stroke-miterlimit="10" stroke-width="1.8"/>
      <path id="Path_4695" data-name="Path 4695" d="M3101.651-233.35c-.145-.224-.286-.454-.423-.693C3101.365-233.8,3101.506-233.574,3101.651-233.35Z" transform="translate(-3087.746 271.263)" fill="none" stroke="#fff" stroke-miterlimit="10" stroke-width="1.8"/>
      <path id="Path_4696" data-name="Path 4696" d="M3100.467-235.466c.122.245.249.48.378.71C3100.716-234.986,3100.589-235.221,3100.467-235.466Z" transform="translate(-3087.44 271.836)" fill="none" stroke="#fff" stroke-miterlimit="10" stroke-width="1.8"/>
      <path id="Path_4697" data-name="Path 4697" d="M3096.465-253.621c.007.184.02.357.029.538C3096.485-253.264,3096.472-253.437,3096.465-253.621Z" transform="translate(-3085.831 279.135)" fill="none" stroke="#fff" stroke-miterlimit="10" stroke-width="1.8"/>
      <path id="Path_4698" data-name="Path 4698" d="M3099.392-237.911c-.1-.239-.2-.479-.287-.729C3099.2-238.389,3099.294-238.149,3099.392-237.911Z" transform="translate(-3086.893 273.112)" fill="none" stroke="#fff" stroke-miterlimit="10" stroke-width="1.8"/>
      <path id="Path_4699" data-name="Path 4699" d="M3100.091-236.274c-.114-.235-.226-.474-.333-.722C3099.865-236.747,3099.977-236.509,3100.091-236.274Z" transform="translate(-3087.155 272.451)" fill="none" stroke="#fff" stroke-miterlimit="10" stroke-width="1.8"/>
    </g>
    <g id="Group_5183" data-name="Group 5183" transform="translate(3106.719 -300.669)">
      <path id="Path_4700" data-name="Path 4700" d="M3149.486-257.085c0-.386-.012-.772-.031-1.157C3149.474-257.857,3149.486-257.471,3149.486-257.085Z" transform="translate(-3143.396 280.994)" fill="none" stroke="#fff" stroke-miterlimit="10" stroke-width="1.8"/>
      <path id="Path_4701" data-name="Path 4701" d="M3149.366-259.449c-.015-.233-.031-.465-.054-.7C3149.335-259.914,3149.351-259.682,3149.366-259.449Z" transform="translate(-3143.338 281.759)" fill="none" stroke="#fff" stroke-miterlimit="10" stroke-width="1.8"/>
      <path id="Path_4702" data-name="Path 4702" d="M3148.868-263.387c-.023-.137-.047-.273-.072-.409Q3148.834-263.592,3148.868-263.387Z" transform="translate(-3143.13 283.227)" fill="none" stroke="#fff" stroke-miterlimit="10" stroke-width="1.8"/>
      <path id="Path_4703" data-name="Path 4703" d="M3149.157-261.462c-.022-.182-.044-.363-.07-.545C3149.113-261.826,3149.135-261.644,3149.157-261.462Z" transform="translate(-3143.248 282.507)" fill="none" stroke="#fff" stroke-miterlimit="10" stroke-width="1.8"/>
      <path id="Path_4704" data-name="Path 4704" d="M3145.486-236.263h0c.172-.348.336-.714.493-1.092C3145.822-236.977,3145.658-236.611,3145.486-236.263Z" transform="translate(-3141.799 272.595)" fill="none" stroke="#fff" stroke-miterlimit="10" stroke-width="1.8"/>
      <path id="Path_4705" data-name="Path 4705" d="M3148.514-265.227c-.016-.074-.033-.147-.049-.221C3148.481-265.374,3148.5-265.3,3148.514-265.227Z" transform="translate(-3142.997 283.891)" fill="none" stroke="#fff" stroke-miterlimit="10" stroke-width="1.8"/>
      <path id="Path_4706" data-name="Path 4706" d="M3147.19-240.555c.132-.4.256-.81.371-1.238Q3147.388-241.151,3147.19-240.555Z" transform="translate(-3142.484 274.38)" fill="none" stroke="#fff" stroke-miterlimit="10" stroke-width="1.8"/>
      <path id="Path_4707" data-name="Path 4707" d="M3149.48-256.307c0,.628-.016,1.232-.04,1.822C3149.464-255.076,3149.48-255.679,3149.48-256.307Z" transform="translate(-3143.389 280.216)" fill="none" stroke="#fff" stroke-miterlimit="10" stroke-width="1.8"/>
      <path id="Path_4708" data-name="Path 4708" d="M3146.812-239.381q-.185.54-.388,1.045Q3146.627-238.84,3146.812-239.381Z" transform="translate(-3142.177 273.41)" fill="none" stroke="#fff" stroke-miterlimit="10" stroke-width="1.8"/>
      <path id="Path_4709" data-name="Path 4709" d="M3147.842-242.882q.185-.7.34-1.454Q3148.027-243.582,3147.842-242.882Z" transform="translate(-3142.746 275.402)" fill="none" stroke="#fff" stroke-miterlimit="10" stroke-width="1.8"/>
      <path id="Path_4710" data-name="Path 4710" d="M3156.022-283.7a75.152,75.152,0,0,0-2.207-12.592,72.469,72.469,0,0,0-14.5,5.63,45.435,45.435,0,0,1,4.674,9.859A29.477,29.477,0,0,1,3156.022-283.7Z" transform="translate(-3139.32 296.294)" fill="none" stroke="#fff" stroke-miterlimit="10" stroke-width="1.8"/>
      <path id="Path_4711" data-name="Path 4711" d="M3149.254-251.165c.033-.392.06-.795.083-1.2C3149.313-251.959,3149.287-251.556,3149.254-251.165Z" transform="translate(-3143.314 278.632)" fill="none" stroke="#fff" stroke-miterlimit="10" stroke-width="1.8"/>
      <path id="Path_4712" data-name="Path 4712" d="M3148.441-245.42c.088-.441.167-.9.237-1.366C3148.607-246.317,3148.529-245.861,3148.441-245.42Z" transform="translate(-3142.988 276.387)" fill="none" stroke="#fff" stroke-miterlimit="10" stroke-width="1.8"/>
      <path id="Path_4713" data-name="Path 4713" d="M3148.94-248.3c.051-.37.1-.749.135-1.138Q3149.016-248.852,3148.94-248.3Z" transform="translate(-3143.188 277.452)" fill="none" stroke="#fff" stroke-miterlimit="10" stroke-width="1.8"/>
    </g>
    <g id="Group_5184" data-name="Group 5184" transform="translate(3059.183 -264.201)">
      <path id="Path_4714" data-name="Path 4714" d="M3068.438-235.3a23.714,23.714,0,0,0-1.928,1.723l-6.7,6.714,1.594,1.593a23.837,23.837,0,0,0,16.905,6.993,23.671,23.671,0,0,0,16.91-6.83l2.347-2.35H3088.5A29.6,29.6,0,0,1,3068.438-235.3Z" transform="translate(-3059.815 235.299)" fill="none" stroke="#fff" stroke-miterlimit="10" stroke-width="1.8"/>
      <path id="Path_4715" data-name="Path 4715" d="M3154.022-233.575a24.114,24.114,0,0,0-1.926-1.726,29.6,29.6,0,0,1-20.066,7.846h-9.069l2.347,2.35a23.676,23.676,0,0,0,16.908,6.83,23.839,23.839,0,0,0,16.017-6.146q.454-.409.89-.847l1.6-1.6h0Z" transform="translate(-3085.206 235.301)" fill="none" stroke="#fff" stroke-miterlimit="10" stroke-width="1.8"/>
    </g>
    <g id="Group_5185" data-name="Group 5185" transform="translate(3058.243 -288.097)">
      <path id="Path_4716" data-name="Path 4716" d="M3081.067-263.931a27.673,27.673,0,0,1,1.429-8.445,29.43,29.43,0,0,0-12.765-2.892h-11.488V-273a29.639,29.639,0,0,0,29.627,29.475h9.069C3091.011-243.526,3081.067-246.176,3081.067-263.931Z" transform="translate(-3058.243 275.268)" fill="none" stroke="#fff" stroke-miterlimit="10" stroke-width="1.8"/>
      <path id="Path_4717" data-name="Path 4717" d="M3150.17-275.268a29.454,29.454,0,0,0-12.757,2.92,27.626,27.626,0,0,1,1.421,8.417c0,17.755-9.945,20.405-15.872,20.405h9.069A29.639,29.639,0,0,0,3161.658-273v-2.267Z" transform="translate(-3084.266 275.268)" fill="none" stroke="#fff" stroke-miterlimit="10" stroke-width="1.8"/>
    </g>
    <path id="Path_4718" data-name="Path 4718" d="M3113.892-305.571l-1.6-1.6-1.6,1.6c-.582.582-14.268,14.435-14.268,28.811,0,17.755,9.944,20.405,15.872,20.405s15.872-2.65,15.872-20.405C3128.16-291.137,3114.473-304.989,3113.892-305.571Z" transform="translate(-15.349)" fill="none" stroke="#fff" stroke-miterlimit="10" stroke-width="1.8"/>
  </g>
</svg>
