<svg xmlns="http://www.w3.org/2000/svg" width="60.568" height="94.328" viewBox="0 0 60.568 94.328">
  <g id="Group_6180" data-name="Group 6180" transform="translate(2531.933 2026.709)">
    <path id="Path_6672" data-name="Path 6672" d="M-2468.061-1892.614v-5.33l-1.8-3.968a15.644,15.644,0,0,1,5.664-19.556v-10.718a4.839,4.839,0,0,1,4.839-4.839,4.7,4.7,0,0,1,1.961.428v-7.109l6.616.6,8.086,22-6.984,18.563v9.924Z" transform="translate(-29.573 -40.617)" fill="none" stroke="#fff" stroke-miterlimit="10" stroke-width="1.7"/>
    <path id="Path_6673" data-name="Path 6673" d="M-2493.774-1962.086V-1972.8a4.839,4.839,0,0,1,4.839-4.839,4.7,4.7,0,0,1,1.961.428v-43.131a5.514,5.514,0,0,0-5.514-5.514h-33.081a5.514,5.514,0,0,0-5.514,5.514v66.163a5.514,5.514,0,0,0,5.514,5.514h24.731A15.645,15.645,0,0,1-2493.774-1962.086Z" transform="translate(0 0)" fill="none" stroke="#fff" stroke-miterlimit="10" stroke-width="1.7"/>
    <path id="Path_6674" data-name="Path 6674" d="M-2496.613-1948.914a15.642,15.642,0,0,1,1.288-1.225l.125-.1q.267-.222.547-.434c.057-.044.114-.088.171-.13.231-.17.466-.336.708-.5v-10.718a4.839,4.839,0,0,1,4.839-4.839,4.7,4.7,0,0,1,1.961.428v-37.617h-44.109v55.136h34.47Z" transform="translate(0 -10.783)" fill="none" stroke="#fff" stroke-miterlimit="10" stroke-width="1.7"/>
    <path id="Path_6675" data-name="Path 6675" d="M-2517.633-1952.751v-33.081a3.676,3.676,0,0,1,3.676-3.676h23.157a3.676,3.676,0,0,1,3.676,3.676v33.081a3.676,3.676,0,0,1-3.676,3.676h-23.157A3.676,3.676,0,0,1-2517.633-1952.751Z" transform="translate(-6.65 -17.972)" fill="none" stroke="#fff" stroke-miterlimit="10" stroke-width="1.7"/>
    <path id="Path_6676" data-name="Path 6676" d="M-2501.275-1989.508h7.352v40.432h-7.352Z" transform="translate(-14.737 -17.972)" fill="none" stroke="#fff" stroke-miterlimit="10" stroke-width="1.7"/>
    <path id="Path_6677" data-name="Path 6677" d="M-2468.165-1970.333h-2.757v-2.756h2.757Zm0-5.513h-2.757v-2.756h2.757Z" transform="translate(-29.744 -23.364)" fill="none" stroke="#fff" stroke-miterlimit="10" stroke-width="1.7"/>
    <g id="Group_6179" data-name="Group 6179" transform="translate(-2497.802 -1982.965)">
      <path id="Path_6678" data-name="Path 6678" d="M-2444.173-1941.02v5.75a4.718,4.718,0,0,1,2.757,4.291v16.943a5.514,5.514,0,0,0,5.514-5.514v-11.429A10.248,10.248,0,0,0-2444.173-1941.02Z" transform="translate(2454.833 1941.02)" fill="none" stroke="#fff" stroke-miterlimit="10" stroke-width="1.7"/>
      <path id="Path_6679" data-name="Path 6679" d="M-2465.257-1853.556h18.379v5.514h-18.379Z" transform="translate(2465.257 1897.777)" fill="none" stroke="#fff" stroke-miterlimit="10" stroke-width="1.7"/>
    </g>
    <path id="Path_6680" data-name="Path 6680" d="M-2456.806-1865.007h2.757v2.757h-2.757Z" transform="translate(-36.723 -79.527)" fill="none" stroke="#fff" stroke-miterlimit="10" stroke-width="1.7"/>
    <path id="Path_6681" data-name="Path 6681" d="M-2493.774-1902.777v-3.124h-37.309v5.513h34.469A15.638,15.638,0,0,1-2493.774-1902.777Z" transform="translate(0 -59.309)" fill="none" stroke="#fff" stroke-miterlimit="10" stroke-width="1.7"/>
    <path id="Path_6682" data-name="Path 6682" d="M-2499.955-1889.483h-25.615a5.514,5.514,0,0,1-5.514-5.514v5.514a5.514,5.514,0,0,0,5.514,5.514h24.731A15.678,15.678,0,0,1-2499.955-1889.483Z" transform="translate(0 -64.7)" fill="none" stroke="#fff" stroke-miterlimit="10" stroke-width="1.7"/>
  </g>
</svg>
