<svg xmlns="http://www.w3.org/2000/svg" width="71.186" height="79.386" viewBox="0 0 71.186 79.386">
  <g id="Group_5148" data-name="Group 5148" transform="translate(-1309.94 -738.917)">
    <g id="Group_5147" data-name="Group 5147" transform="translate(1310.84 739.817)">
      <path id="Path_4605" data-name="Path 4605" d="M1343.359,754.588h6.872V743.216a3.436,3.436,0,0,0-6.872,0v11.371Z" transform="translate(-1312.102 -739.817)" fill="none" stroke="#ec2227" stroke-miterlimit="10" stroke-width="1.8"/>
      <path id="Path_4606" data-name="Path 4606" d="M1342.7,754.725V743.353h-3.007c-3.66,0-5.31.8-7.387,4.359l-5.932,10.167h11.172a3.163,3.163,0,0,1,3.154-3.154Z" transform="translate(-1311.443 -739.954)" fill="none" stroke="#ec2227" stroke-miterlimit="10" stroke-width="1.8"/>
      <path id="Path_4607" data-name="Path 4607" d="M1337.421,767.118v-8.653h-11.172l-1.371,2.347c-2.565,4.4-2.212,6.679.588,9.647l5.084,5.385h6.87v-8.635C1337.422,767.178,1337.421,767.148,1337.421,767.118Z" transform="translate(-1311.318 -740.541)" fill="none" stroke="#ec2227" stroke-miterlimit="10" stroke-width="1.8"/>
      <g id="Group_5146" data-name="Group 5146" transform="translate(19.233 3.399)">
        <path id="Path_4608" data-name="Path 4608" d="M1337.72,776.545h-6.87v11.76a3.427,3.427,0,0,0,3.435,3.4h3.435v-15.16Z" transform="translate(-1330.849 -744.641)" fill="none" stroke="#ec2227" stroke-miterlimit="10" stroke-width="1.8"/>
        <path id="Path_4609" data-name="Path 4609" d="M1338,767.084a8.589,8.589,0,0,0,17.177,0v-8.743a3.162,3.162,0,0,0-3.154-3.154h-10.871a3.163,3.163,0,0,0-3.154,3.154v8.746Z" transform="translate(-1331.126 -743.812)" fill="none" stroke="#ec2227" stroke-miterlimit="10" stroke-width="1.8"/>
        <path id="Path_4610" data-name="Path 4610" d="M1352.507,754.725a3.162,3.162,0,0,1,3.154,3.154h11.173l-5.932-10.167c-2.077-3.559-3.727-4.359-7.387-4.359h-3.006v11.372Z" transform="translate(-1331.612 -743.353)" fill="none" stroke="#ec2227" stroke-miterlimit="10" stroke-width="1.8"/>
      </g>
      <path id="Path_4611" data-name="Path 4611" d="M1367.042,758.465h-11.173v17.378h6.873l5.083-5.385c2.8-2.967,3.154-5.249.588-9.647Z" transform="translate(-1312.587 -740.541)" fill="none" stroke="#ec2227" stroke-miterlimit="10" stroke-width="1.8"/>
      <path id="Path_4612" data-name="Path 4612" d="M1362.742,776.545h-6.873V791.7h3.436a3.428,3.428,0,0,0,3.436-3.4V776.545Z" transform="translate(-1312.587 -741.242)" fill="none" stroke="#ec2227" stroke-miterlimit="10" stroke-width="1.8"/>
      <path id="Path_4613" data-name="Path 4613" d="M1354.5,782.19a15.507,15.507,0,0,1-17.178,0v9.734h-3.435a3.427,3.427,0,0,1-3.435-3.4V782.19c-1.735,0-2.555,1.526-3.155,3.155l-6.616,17.934h21.683v-9.462h7.1v9.462h21.683l-6.617-17.934c-.6-1.628-1.42-3.155-3.154-3.155v6.334a3.428,3.428,0,0,1-3.437,3.4H1354.5V782.19Z" transform="translate(-1311.222 -741.461)" fill="none" stroke="#ec2227" stroke-miterlimit="10" stroke-width="1.8"/>
      <path id="Path_4614" data-name="Path 4614" d="M1342.239,804.13h-21.683a3.163,3.163,0,0,0-3.155,3.154v3.154h9.462a3.163,3.163,0,0,1,3.154,3.155v1.576h31.54v-1.576a3.163,3.163,0,0,1,3.154-3.155h9.462v-3.154a3.163,3.163,0,0,0-3.154-3.154h-28.78Z" transform="translate(-1311.095 -742.313)" fill="none" stroke="#ec2227" stroke-miterlimit="10" stroke-width="1.8"/>
      <path id="Path_4615" data-name="Path 4615" d="M1343.242,794.286h7.1v9.462h-7.1Z" transform="translate(-1312.098 -741.931)" fill="none" stroke="#ec2227" stroke-miterlimit="10" stroke-width="1.8"/>
      <path id="Path_4616" data-name="Path 4616" d="M1329.763,813.847a3.163,3.163,0,0,0-3.154-3.155h-12.616a3.163,3.163,0,0,0-3.154,3.155v6.307h18.923v-6.307Z" transform="translate(-1310.84 -742.568)" fill="none" stroke="#ec2227" stroke-miterlimit="10" stroke-width="1.8"/>
      <path id="Path_4617" data-name="Path 4617" d="M1363.34,813.847v6.307h18.923v-6.307a3.163,3.163,0,0,0-3.154-3.155h-12.616A3.163,3.163,0,0,0,1363.34,813.847Z" transform="translate(-1312.877 -742.568)" fill="none" stroke="#ec2227" stroke-miterlimit="10" stroke-width="1.8"/>
      <path id="Path_4618" data-name="Path 4618" d="M1346.587,776.06a8.614,8.614,0,0,1-8.589-8.5v14.058a15.507,15.507,0,0,0,17.178,0V767.561a8.615,8.615,0,0,1-8.588,8.5Z" transform="translate(-1311.894 -740.894)" fill="none" stroke="#ec2227" stroke-miterlimit="10" stroke-width="1.8"/>
    </g>
    <line id="Line_317" data-name="Line 317" x2="2.989" transform="translate(1340.49 761.86)" fill="none" stroke="#ec2227" stroke-miterlimit="10" stroke-width="1.8"/>
    <line id="Line_318" data-name="Line 318" x2="2.989" transform="translate(1348.015 761.86)" fill="none" stroke="#ec2227" stroke-miterlimit="10" stroke-width="1.8"/>
  </g>
</svg>
