<svg xmlns="http://www.w3.org/2000/svg" width="75.819" height="78.307" viewBox="0 0 75.819 78.307">
  <g id="Group_4912" data-name="Group 4912" transform="translate(-770.646 -612.344)">
    <path id="Path_4192" data-name="Path 4192" d="M871.811,657.244a3.828,3.828,0,0,1-3.844,3.787H843.622v-3.844l5.125-1.709,2.563-.854.837-4.183a5.128,5.128,0,0,1,2.389-3.39l1.9-1.139,3.727-2.236,3.961,1.98,3.6,1.8a5.128,5.128,0,0,1,2.292,2.29l.08.16A16.3,16.3,0,0,1,871.811,657.244Z" transform="translate(-28.659 -12.135)" fill="none" stroke="#fff" stroke-miterlimit="10" stroke-width="1.5"/>
    <path id="Path_4193" data-name="Path 4193" d="M872.552,645.656v9.93l-6.407,1.6v3.844h-1.281v-15.12l3.727-2.236Z" transform="translate(-37.088 -12.135)" fill="none" stroke="#fff" stroke-miterlimit="10" stroke-width="1.5"/>
    <path id="Path_4194" data-name="Path 4194" d="M859.477,634.718a3.11,3.11,0,0,1-3.11-3.109h0a3.117,3.117,0,0,1,.328-1.391l.953-1.906v-1.506a7.458,7.458,0,0,1,7.454-7.463h.2a7.7,7.7,0,0,1,7.725,7.668v1.3l.953,1.9a3.11,3.11,0,0,1-2.781,4.5H859.477Z" transform="translate(-33.717 -2.479)" fill="none" stroke="#fff" stroke-miterlimit="10" stroke-width="1.5"/>
    <path id="Path_4195" data-name="Path 4195" d="M829.19,716.386h38.441V683.07h-41Z" transform="translate(-21.916 -27.766)" fill="none" stroke="#fff" stroke-miterlimit="10" stroke-width="1.5"/>
    <path id="Path_4196" data-name="Path 4196" d="M826.627,672.449h41v6.407h-41Z" transform="translate(-21.916 -23.552)" fill="none" stroke="#fff" stroke-miterlimit="10" stroke-width="1.5"/>
    <path id="Path_4197" data-name="Path 4197" d="M815.2,621.591v3.844a3.844,3.844,0,1,1-7.688,0v-3.844Z" transform="translate(-14.33 -3.372)" fill="none" stroke="#fff" stroke-miterlimit="10" stroke-width="1.5"/>
    <path id="Path_4198" data-name="Path 4198" d="M807.509,618.219H815.2v-2.175a2.95,2.95,0,0,0-2.951-2.95h0a2.948,2.948,0,0,0-1.636.5l-3.1,2.067Z" transform="translate(-14.33 0)" fill="none" stroke="#fff" stroke-miterlimit="10" stroke-width="1.5"/>
    <path id="Path_4199" data-name="Path 4199" d="M812.482,637.837l-3.624-3.625h-5.125l-4.27,4.27a5.122,5.122,0,0,0-1.238,2l-3.461,10.384,1.281-3.844,7.688,2.562-1.281,2.563v6.407h11.532v-17.1A5.126,5.126,0,0,0,812.482,637.837Z" transform="translate(-9.272 -8.38)" fill="none" stroke="#fff" stroke-miterlimit="10" stroke-width="1.5"/>
    <path id="Path_4200" data-name="Path 4200" d="M826.627,655.455l7.688,7.688-2.563,2.562-5.125-2.562Z" transform="translate(-21.916 -16.809)" fill="none" stroke="#fff" stroke-miterlimit="10" stroke-width="1.5"/>
    <path id="Path_4201" data-name="Path 4201" d="M775.644,736.616h0a1.282,1.282,0,0,0,2.563,0v-2.562h-2.563Z" transform="translate(-1.686 -47.997)" fill="none" stroke="#fff" stroke-miterlimit="10" stroke-width="1.5"/>
    <path id="Path_4202" data-name="Path 4202" d="M864.864,630.4l2.563-2.563,2.562,2.563h2.563v3.844a3.844,3.844,0,0,1-7.688,0Z" transform="translate(-37.088 -5.851)" fill="none" stroke="#fff" stroke-miterlimit="10" stroke-width="1.5"/>
    <path id="Path_4203" data-name="Path 4203" d="M848.747,663.243V668.8h-5.125v-3.844Z" transform="translate(-28.659 -19.899)" fill="none" stroke="#fff" stroke-miterlimit="10" stroke-width="1.5"/>
    <g id="Group_4911" data-name="Group 4911" transform="translate(825.213 675.806)">
      <path id="Path_4204" data-name="Path 4204" d="M860.615,725.557h2.563v2.562h-2.563Z" transform="translate(-860.615 -720.431)" fill="none" stroke="#fff" stroke-miterlimit="10" stroke-width="1.5"/>
      <path id="Path_4205" data-name="Path 4205" d="M869.113,725.557h10.251v2.562H869.113Z" transform="translate(-863.987 -720.431)" fill="none" stroke="#fff" stroke-miterlimit="10" stroke-width="1.5"/>
      <path id="Path_4206" data-name="Path 4206" d="M873.361,717.059h7.688v2.563h-7.688Z" transform="translate(-865.673 -717.059)" fill="none" stroke="#fff" stroke-miterlimit="10" stroke-width="1.5"/>
    </g>
    <path id="Path_4207" data-name="Path 4207" d="M804.98,685.194H803.7v15.377l-2.563,16.658h3.844l5.643-14.4Z" transform="translate(-11.801 -28.609)" fill="none" stroke="#fff" stroke-miterlimit="10" stroke-width="1.5"/>
    <path id="Path_4208" data-name="Path 4208" d="M872.113,663.952v5.125h-5.125v-3.844Z" transform="translate(-37.931 -20.18)" fill="none" stroke="#fff" stroke-miterlimit="10" stroke-width="1.5"/>
    <path id="Path_4209" data-name="Path 4209" d="M803.733,658.017l-1.281,2.563v12.813h-3.844L794.763,659.3l1.281-3.844Z" transform="translate(-9.272 -16.809)" fill="none" stroke="#fff" stroke-miterlimit="10" stroke-width="1.5"/>
    <path id="Path_4210" data-name="Path 4210" d="M819.041,674.573l2.563,38.441H817.76L807.509,680.98v-6.407Z" transform="translate(-14.33 -24.395)" fill="none" stroke="#fff" stroke-miterlimit="10" stroke-width="1.5"/>
    <path id="Path_4211" data-name="Path 4211" d="M786.739,698.008h-2.563V687.757h-3.844v10.251h-2.562V686.476a1.281,1.281,0,0,1,1.281-1.282h6.407a1.282,1.282,0,0,1,1.282,1.282h0Z" transform="translate(-2.529 -28.609)" fill="none" stroke="#fff" stroke-miterlimit="10" stroke-width="1.5"/>
    <path id="Path_4212" data-name="Path 4212" d="M790.514,736.616h0a1.281,1.281,0,0,0,2.563,0v-2.562h-2.563Z" transform="translate(-7.586 -47.997)" fill="none" stroke="#fff" stroke-miterlimit="10" stroke-width="1.5"/>
    <path id="Path_4213" data-name="Path 4213" d="M784.209,700.065v3.844h-2.563v-3.844H777.8v3.844H775.24v-3.844H771.4v20.5h16.658v-20.5Z" transform="translate(0 -34.51)" fill="none" stroke="#fff" stroke-miterlimit="10" stroke-width="1.5"/>
  </g>
</svg>
