<svg xmlns="http://www.w3.org/2000/svg" width="71.086" height="72.483" viewBox="0 0 71.086 72.483">
  <g id="Group_6147" data-name="Group 6147" transform="translate(66.268 1139.224)">
    <path id="Path_6581" data-name="Path 6581" d="M48.873-1012.872a16.156,16.156,0,0,0,4.1-10.64,16.273,16.273,0,0,0-16.07-16.362,16.219,16.219,0,0,0-16.367,16.352,16.264,16.264,0,0,0,15.887,16.082,16.2,16.2,0,0,0,5.786-.937l4.844,2.153a1.291,1.291,0,0,0,1.816-1.18v-5.468Z" transform="translate(-67.429 -77.843)" fill="none" stroke="#fff" stroke-miterlimit="10" stroke-width="1.5"/>
    <g id="Group_6142" data-name="Group 6142" transform="translate(-60.962 -1139.224)">
      <g id="Group_6139" data-name="Group 6139" transform="translate(35.621 49.504)">
        <path id="Path_6582" data-name="Path 6582" d="M121.133-889.446a1.052,1.052,0,0,1-1.052-1.052,1.052,1.052,0,0,1,1.052-1.052c10.67,0,20.27-7.308,21.707-18.071a1.053,1.053,0,0,1,1.182-.9,1.052,1.052,0,0,1,.9,1.182C143.351-897.545,132.854-889.446,121.133-889.446Z" transform="translate(-120.081 910.535)" fill="#fff"/>
      </g>
      <g id="Group_6140" data-name="Group 6140" transform="translate(0)">
        <path id="Path_6583" data-name="Path 6583" d="M-43.42-1108.676a1.049,1.049,0,0,1-.161-.013,1.052,1.052,0,0,1-.88-1.2c2.252-14.643,15.574-25.335,30.225-25.335s27.973,10.693,30.226,25.335a1.052,1.052,0,0,1-.88,1.2,1.053,1.053,0,0,1-1.2-.88c-2.1-13.63-14.52-23.551-28.145-23.551s-26.049,9.922-28.145,23.551A1.053,1.053,0,0,1-43.42-1108.676Z" transform="translate(44.473 1135.224)" fill="#fff"/>
      </g>
      <text id="_24" data-name="24" transform="translate(20.507 43.177)" fill="#fff" font-size="17" font-family="Arial-BoldMT, Arial" font-weight="700"><tspan x="0" y="0">24</tspan></text>
    </g>
    <g id="Group_6143" data-name="Group 6143" transform="translate(-65.518 -1115.143)">
      <path id="Path_6586" data-name="Path 6586" d="M-56.736-992.571h-3.426a5.458,5.458,0,0,1-5.356-5.555v-12.885a5.459,5.459,0,0,1,5.356-5.555h3.426Z" transform="translate(65.518 1019.036)" fill="none" stroke="#fff" stroke-miterlimit="10" stroke-width="1.5"/>
      <path id="Path_6587" data-name="Path 6587" d="M-20.406-1001.312a2.27,2.27,0,0,1-2.27,2.27h0a2.27,2.27,0,0,1-2.271-2.27v-24.4a2.27,2.27,0,0,1,2.271-2.27h0a2.27,2.27,0,0,1,2.27,2.27Z" transform="translate(33.729 1027.978)" fill="none" stroke="#fff" stroke-miterlimit="10" stroke-width="1.5"/>
    </g>
    <g id="Group_6144" data-name="Group 6144" transform="translate(-9.255 -1115.143)">
      <path id="Path_6588" data-name="Path 6588" d="M213.219-1016.566h3.507a5.421,5.421,0,0,1,5.275,5.555v12.885a5.421,5.421,0,0,1-5.275,5.555h-3.507v-24Z" transform="translate(-208.678 1019.036)" fill="none" stroke="#fff" stroke-miterlimit="10" stroke-width="1.5"/>
      <path id="Path_6589" data-name="Path 6589" d="M194.4-1025.708a2.27,2.27,0,0,1,2.271-2.27h0a2.27,2.27,0,0,1,2.27,2.27v24.4a2.27,2.27,0,0,1-2.27,2.27h0a2.27,2.27,0,0,1-2.271-2.27Z" transform="translate(-194.396 1027.978)" fill="none" stroke="#fff" stroke-miterlimit="10" stroke-width="1.5"/>
    </g>
    <g id="Group_6146" data-name="Group 6146" transform="translate(-37.038 -1072.031)">
      <g id="Group_6145" data-name="Group 6145" transform="translate(0 0)">
        <path id="Path_6590" data-name="Path 6590" d="M68.164-824.28a2.2,2.2,0,0,1-2.115-2.27h0a2.2,2.2,0,0,1,2.115-2.27H75.6a2.2,2.2,0,0,1,2.116,2.27h0a2.2,2.2,0,0,1-2.116,2.27Z" transform="translate(-66.049 828.821)" fill="none" stroke="#fff" stroke-miterlimit="10" stroke-width="1.5"/>
      </g>
    </g>
  </g>
</svg>
