<svg xmlns="http://www.w3.org/2000/svg" width="98.279" height="35.505" viewBox="0 0 98.279 35.505">
  <g id="Group_6159" data-name="Group 6159" transform="translate(2527.85 2724.456)">
    <path id="Path_6602" data-name="Path 6602" d="M-2440.02-2660.368c-1.685-5.7-1.543-11.919.044-18.529a1.138,1.138,0,0,1,.137-.335h-43.482v-6.809c-.41,3.771-10.027,6.788-21.832,6.788-12.066,0-21.847-3.151-21.847-7.039v19.925h.092c.921,3.614,10.3,6.456,21.756,6.456h65.4A1.163,1.163,0,0,1-2440.02-2660.368Z" transform="translate(0 -30.276)" fill="none" stroke="#fff" stroke-miterlimit="10" stroke-width="1.7"/>
    <ellipse id="Ellipse_212" data-name="Ellipse 212" cx="21.847" cy="7.039" rx="21.847" ry="7.039" transform="translate(-2527 -2723.606)" fill="none" stroke="#fff" stroke-miterlimit="10" stroke-width="1.7"/>
    <g id="Group_6158" data-name="Group 6158" transform="translate(-2505.378 -2706.811)">
      <path id="Path_6603" data-name="Path 6603" d="M-2412.375-2634.568h1.2v6.963h-1.2Z" transform="translate(2412.375 2634.568)" fill="#fff"/>
      <path id="Path_6604" data-name="Path 6604" d="M-2390.35-2634.568h1.2v3.719h-1.2Z" transform="translate(2394.505 2634.568)" fill="#fff"/>
      <path id="Path_6605" data-name="Path 6605" d="M-2366.28-2634.568h1.2v6.963h-1.2Z" transform="translate(2374.975 2634.568)" fill="#fff"/>
      <path id="Path_6606" data-name="Path 6606" d="M-2344.253-2634.568h1.2v3.719h-1.2Z" transform="translate(2357.103 2634.568)" fill="#fff"/>
      <path id="Path_6607" data-name="Path 6607" d="M-2320.183-2634.568h1.2v6.963h-1.2Z" transform="translate(2337.573 2634.568)" fill="#fff"/>
      <path id="Path_6608" data-name="Path 6608" d="M-2298.158-2634.568h1.2v3.719h-1.2Z" transform="translate(2319.703 2634.568)" fill="#fff"/>
      <path id="Path_6609" data-name="Path 6609" d="M-2274.087-2634.568h1.2v6.963h-1.2Z" transform="translate(2300.172 2634.568)" fill="#fff"/>
      <path id="Path_6610" data-name="Path 6610" d="M-2252.063-2634.568h1.2v3.719h-1.2Z" transform="translate(2282.303 2634.568)" fill="#fff"/>
      <path id="Path_6611" data-name="Path 6611" d="M-2227.992-2634.568h1.2v6.963h-1.2Z" transform="translate(2262.772 2634.568)" fill="#fff"/>
      <path id="Path_6612" data-name="Path 6612" d="M-2205.966-2634.568h1.2v3.719h-1.2Z" transform="translate(2244.901 2634.568)" fill="#fff"/>
      <path id="Path_6613" data-name="Path 6613" d="M-2181.9-2634.568h1.2v6.963h-1.2Z" transform="translate(2225.371 2634.568)" fill="#fff"/>
      <path id="Path_6614" data-name="Path 6614" d="M-2159.87-2634.568h1.2v3.719h-1.2Z" transform="translate(2207.5 2634.568)" fill="#fff"/>
      <path id="Path_6615" data-name="Path 6615" d="M-2135.8-2634.568h1.2v6.963h-1.2Z" transform="translate(2187.97 2634.568)" fill="#fff"/>
      <path id="Path_6616" data-name="Path 6616" d="M-2113.774-2634.568h1.2v3.719h-1.2Z" transform="translate(2170.099 2634.568)" fill="#fff"/>
      <path id="Path_6617" data-name="Path 6617" d="M-2089.7-2634.568h1.2v6.963h-1.2Z" transform="translate(2150.57 2634.568)" fill="#fff"/>
    </g>
    <path id="Path_6618" data-name="Path 6618" d="M-2062.875-2651.966h-6.983a1.2,1.2,0,0,0-1.171.919c-1.587,6.61-1.729,12.827-.043,18.529a1.212,1.212,0,0,0,1.16.842h7.037a1.4,1.4,0,0,0,1.4-1.4v-17.49a1.4,1.4,0,0,0-1.4-1.4Zm-5.144,12.63a.867.867,0,0,1-.865.865.874.874,0,0,1-.865-.865v-4.969a.874.874,0,0,1,.865-.865.867.867,0,0,1,.865.865Z" transform="translate(-368.947 -58.127)" fill="none" stroke="#fff" stroke-miterlimit="10" stroke-width="1.7"/>
    <path id="Path_6619" data-name="Path 6619" d="M-2465.763-2707.966c7.008,0,12.69,1.83,12.69,4.088s-5.682,4.089-12.69,4.089-12.69-1.831-12.69-4.089S-2472.771-2707.966-2465.763-2707.966Z" transform="translate(-39.39 -12.69)" fill="none" stroke="#fff" stroke-miterlimit="10" stroke-width="1.7"/>
  </g>
</svg>
