<svg xmlns="http://www.w3.org/2000/svg" width="75.333" height="74.457" viewBox="0 0 75.333 74.457">
  <g id="Group_6024" data-name="Group 6024" transform="translate(-67.527 -593.063)">
    <path id="Path_6387" data-name="Path 6387" d="M141.043,660.462l-5.305-3.1.275.547a1.275,1.275,0,0,1-.571,1.711l-2.55,1.275a1.275,1.275,0,0,1-.569.134h-5.1v-2.549h4.8l1.14-.57-1.348-2.7a20.379,20.379,0,0,0-8.413-1.828H80.061l-6.374-12.746h-5.1l2.549,15.3-1.132.565a2.568,2.568,0,0,0,.8,4.844l23.277,3.207.12.017,2.43-3.534,14.021,1.275-4.376,3.89,10.7.973a65.029,65.029,0,0,0,11.552-.195l3.369-.421a24.166,24.166,0,0,0,6.517-1.767l2.422-1.038a1.844,1.844,0,0,0,.2-3.288Z" transform="translate(0 -25.004)" fill="none" stroke="#fff" stroke-miterlimit="10" stroke-width="1.8"/>
    <path id="Path_6388" data-name="Path 6388" d="M141.165,648.254l-15.14-17.191-5.254.094,7.648,17.1" transform="translate(-27.963 -19.874)" fill="none" stroke="#fff" stroke-miterlimit="10" stroke-width="1.8"/>
    <g id="Group_6023" data-name="Group 6023" transform="translate(83.885 630.214)">
      <path id="Path_6389" data-name="Path 6389" d="M199.708,675.313h-4.8v2.549h5.1a1.261,1.261,0,0,0,.569-.128l2.55-1.275a1.275,1.275,0,0,0,.571-1.711l-.275-.546-2.064-1.2a20.184,20.184,0,0,0-1.862-.95l1.349,2.7Z" transform="translate(-151.573 -672.048)" fill="#fff" stroke="#fff" stroke-miterlimit="10" stroke-width="1.8"/>
      <path id="Path_6390" data-name="Path 6390" d="M101.549,673.588H104.1v2.55h-2.549Z" transform="translate(-101.549 -672.873)" fill="#fff"/>
      <path id="Path_6391" data-name="Path 6391" d="M112.532,673.588h2.55v2.55h-2.55Z" transform="translate(-107.434 -672.873)" fill="#fff"/>
      <path id="Path_6392" data-name="Path 6392" d="M123.517,673.588h2.549v2.55h-2.549Z" transform="translate(-113.32 -672.873)" fill="#fff"/>
      <path id="Path_6393" data-name="Path 6393" d="M134.5,673.588h2.549v2.55H134.5Z" transform="translate(-119.204 -672.873)" fill="#fff"/>
      <path id="Path_6394" data-name="Path 6394" d="M145.484,673.588h2.549v2.55h-2.549Z" transform="translate(-125.09 -672.873)" fill="#fff"/>
      <path id="Path_6395" data-name="Path 6395" d="M156.468,673.588h2.549v2.55h-2.549Z" transform="translate(-130.975 -672.873)" fill="#fff"/>
      <path id="Path_6396" data-name="Path 6396" d="M167.452,673.588H170v2.55h-2.549Z" transform="translate(-136.86 -672.873)" fill="#fff"/>
    </g>
    <path id="Path_6397" data-name="Path 6397" d="M201.575,617.45a3.187,3.187,0,0,0-3.187-3.187,3.154,3.154,0,0,0-1.983.712,3.818,3.818,0,0,0-7.469-1.574,2.529,2.529,0,0,0-3.658,1.011,3.143,3.143,0,0,0-4.1,3.039,3.188,3.188,0,0,0,2.549,3.124v.063h15.3v-.063A3.188,3.188,0,0,0,201.575,617.45Z" transform="translate(-60.331 -8.828)" fill="none" stroke="#fff" stroke-miterlimit="10" stroke-width="1.8"/>
    <path id="Path_6398" data-name="Path 6398" d="M146.657,735.525a3.187,3.187,0,0,0-3.186-3.186,3.152,3.152,0,0,0-1.984.712,3.818,3.818,0,0,0-7.469-1.574,2.53,2.53,0,0,0-3.659,1.011,3.143,3.143,0,0,0-4.1,3.038,3.187,3.187,0,0,0,2.549,3.124v.064h15.3v-.064A3.188,3.188,0,0,0,146.657,735.525Z" transform="translate(-30.906 -72.093)" fill="none" stroke="#fff" stroke-miterlimit="10" stroke-width="1.8"/>
    <path id="Path_6399" data-name="Path 6399" d="M91.737,600.975a3.187,3.187,0,0,0-3.186-3.187,3.151,3.151,0,0,0-1.984.712,3.818,3.818,0,0,0-7.469-1.575,2.53,2.53,0,0,0-3.658,1.011,3.143,3.143,0,0,0-4.1,3.039,3.187,3.187,0,0,0,2.55,3.123v.064h15.3V604.1A3.187,3.187,0,0,0,91.737,600.975Z" transform="translate(-1.479 0)" fill="none" stroke="#fff" stroke-miterlimit="10" stroke-width="1.8"/>
    <path id="Path_6400" data-name="Path 6400" d="M80.07,653.384H70.723L68.6,640.638h5.1Z" transform="translate(-0.009 -25.004)" fill="none" stroke="#fff" stroke-miterlimit="10" stroke-width="1.8"/>
    <path id="Path_6401" data-name="Path 6401" d="M112.825,684.572l14.021,1.275L103.9,706.241l-5.1-1.274Z" transform="translate(-16.193 -48.544)" fill="none" stroke="#fff" stroke-miterlimit="10" stroke-width="1.8"/>
  </g>
</svg>
