<svg xmlns="http://www.w3.org/2000/svg" width="67.608" height="68.113" viewBox="0 0 67.608 68.113">
  <g id="Group_5149" data-name="Group 5149" transform="translate(-1122.311 -871.514)">
    <g id="Group_5138" data-name="Group 5138" transform="translate(1123.232 872.264)">
      <path id="Path_4594" data-name="Path 4594" d="M1270.425,938.877l-11.943-66.613h2.6l13.83,66.613Z" transform="translate(-1209.146 -872.264)" fill="none" stroke="#fff" stroke-miterlimit="10" stroke-width="1.5"/>
      <path id="Path_4595" data-name="Path 4595" d="M1127.718,938.877l11.943-66.613h-2.6l-13.83,66.613Z" transform="translate(-1123.232 -872.264)" fill="none" stroke="#fff" stroke-miterlimit="10" stroke-width="1.5"/>
    </g>
    <g id="Group_5139" data-name="Group 5139" transform="translate(1153.057 872.264)">
      <path id="Path_4596" data-name="Path 4596" d="M1207.343,916.116l-.189,9.774h4.539l-.188-9.774Z" transform="translate(-1206.366 -900.12)" fill="none" stroke="#fff" stroke-miterlimit="10" stroke-width="1.5"/>
      <path id="Path_4597" data-name="Path 4597" d="M1211.11,1020.117h-6.118l.245-12.66.14-7.3h5.347l.257,13.249Z" transform="translate(-1204.992 -953.504)" fill="none" stroke="#fff" stroke-miterlimit="10" stroke-width="1.5"/>
      <path id="Path_4598" data-name="Path 4598" d="M1212,876.379h-3.7l.08-4.115h3.544Z" transform="translate(-1207.093 -872.264)" fill="none" stroke="#fff" stroke-miterlimit="10" stroke-width="1.5"/>
      <path id="Path_4599" data-name="Path 4599" d="M1211.876,896.626h-4.044l.124-6.373h3.8Z" transform="translate(-1206.796 -883.691)" fill="none" stroke="#fff" stroke-miterlimit="10" stroke-width="1.5"/>
      <path id="Path_4600" data-name="Path 4600" d="M1211.463,965.41l-.24-12.438h-4.682l-.24,12.438Z" transform="translate(-1205.823 -923.531)" fill="none" stroke="#fff" stroke-miterlimit="10" stroke-width="1.5"/>
    </g>
  </g>
</svg>
