<svg xmlns="http://www.w3.org/2000/svg" width="77.002" height="80.05" viewBox="0 0 77.002 80.05">
  <g id="Group_6058" data-name="Group 6058" transform="translate(-426.214 -46.018)">
    <path id="Path_6473" data-name="Path 6473" d="M524.57,88.552v7.126H505.079V87.537a8.1,8.1,0,0,0-1.376-4.53,7.1,7.1,0,0,1,4.3-1.58,6.135,6.135,0,0,0,9.68.238,1.493,1.493,0,0,1,.2-.226A7.127,7.127,0,0,1,524.57,88.552Z" transform="translate(-25.908 -11.674)" fill="none" stroke="#fff" stroke-miterlimit="10" stroke-width="1.8"/>
    <path id="Path_6474" data-name="Path 6474" d="M520.563,60.239v3.168a6.334,6.334,0,0,1-12.667,0V60.239a6.334,6.334,0,0,1,12.667,0Z" transform="translate(-27.326 -2.364)" fill="none" stroke="#fff" stroke-miterlimit="10" stroke-width="1.8"/>
    <path id="Path_6475" data-name="Path 6475" d="M490.672,81.969a8.1,8.1,0,0,1,1.376,4.53v11.76H465.18V86.5a8.139,8.139,0,0,1,7.937-8.14,7.01,7.01,0,0,0,11.06.273,1.94,1.94,0,0,1,.228-.26A8.146,8.146,0,0,1,490.672,81.969Z" transform="translate(-12.877 -10.636)" fill="none" stroke="#fff" stroke-miterlimit="10" stroke-width="1.8"/>
    <path id="Path_6476" data-name="Path 6476" d="M489.018,54.153v3.618a7.235,7.235,0,1,1-14.471,0V54.153a7.235,7.235,0,1,1,14.471,0Z" transform="translate(-16.045)" fill="none" stroke="#fff" stroke-miterlimit="10" stroke-width="1.8"/>
    <path id="Path_6477" data-name="Path 6477" d="M456.266,82.79l.286.255a8.1,8.1,0,0,0-1.351,4.492v8.141H435.68V88.552a7.127,7.127,0,0,1,6.947-7.124,6.137,6.137,0,0,0,9.682.238,1.546,1.546,0,0,1,.2-.226A7.07,7.07,0,0,1,456.266,82.79Z" transform="translate(-2.898 -11.674)" fill="none" stroke="#fff" stroke-miterlimit="10" stroke-width="1.8"/>
    <path id="Path_6478" data-name="Path 6478" d="M456.547,60.239v3.168a6.333,6.333,0,0,1-12.667,0V60.239a6.333,6.333,0,1,1,12.667,0Z" transform="translate(-5.671 -2.364)" fill="none" stroke="#fff" stroke-miterlimit="10" stroke-width="1.8"/>
    <path id="Path_6479" data-name="Path 6479" d="M501.226,124.783l-15.485,10.363-4.615-.259-.181-1.816a5.9,5.9,0,0,0-5.042-5.255l-12.364-1.423a22.163,22.163,0,0,1-8.085-2.814h0a22.162,22.162,0,0,0-11.19-3.033h-2.988V143.14l17.635,6.678a6.423,6.423,0,0,0,2.74.183l.017,0,23.72-3.42a10.5,10.5,0,0,0,4.98-2.231L505.7,130.558a3.661,3.661,0,0,0,.6-4.8h0A3.66,3.66,0,0,0,501.226,124.783Z" transform="translate(-4.791 -24.906)" fill="none" stroke="#fff" stroke-miterlimit="10" stroke-width="1.8"/>
    <path id="Path_6480" data-name="Path 6480" d="M433.563,145.413h-3.527a2.922,2.922,0,0,1-2.922-2.922v-26.1a2.922,2.922,0,0,1,2.922-2.922h3.527a2.922,2.922,0,0,1,2.922,2.922v26.1A2.922,2.922,0,0,1,433.563,145.413Z" transform="translate(0 -22.512)" fill="none" stroke="#fff" stroke-miterlimit="10" stroke-width="1.8"/>
    <line id="Line_449" data-name="Line 449" x1="21.686" y1="1.391" transform="translate(454.649 108.591)" fill="#fff" stroke="#fff" stroke-miterlimit="10" stroke-width="1.8"/>
  </g>
</svg>
