<svg xmlns="http://www.w3.org/2000/svg" width="94.161" height="65" viewBox="0 0 94.161 65">
  <g id="Group_5126" data-name="Group 5126" transform="translate(-5.945 -1046.953)">
    <path id="Path_4487" data-name="Path 4487" d="M87.81,1055.372a3.6,3.6,0,0,0,0-5.091l-1.272-1.273a3.6,3.6,0,0,0-5.091,0l-5.665,5.666a46.39,46.39,0,0,1-7.063,5.79,46.254,46.254,0,0,0-7.063,5.791l-1.5,1.5H33.6a.9.9,0,0,0-.9.9v2.7c0,.574.02,1.146.057,1.71.014.206.042.407.062.611.034.358.06.717.108,1.071.031.222.075.44.112.66.053.33.1.661.166.987.048.23.109.456.162.683.071.309.137.619.219.924.061.227.138.446.205.668.091.3.176.6.278.9.075.215.164.426.243.639l.088.228a4.562,4.562,0,0,1,2.028.9l21.529,16.849a4.538,4.538,0,0,1,1.425,1.972h9.544a3.6,3.6,0,0,0,3.6-3.6v-3.5a25.185,25.185,0,0,0,12.375-21.7v-2.7a.9.9,0,0,0-.9-.9H76.592a46.336,46.336,0,0,1,5.554-6.718Z" transform="translate(10.24)" fill="none" stroke="#fff" stroke-miterlimit="10" stroke-width="2"/>
    <path id="Path_4488" data-name="Path 4488" d="M34.337,1092.395h0a10.8,10.8,0,0,1-15.273,0h0a1.8,1.8,0,0,1,0-2.546h0a10.8,10.8,0,0,1,15.273,0h0A1.8,1.8,0,0,1,34.337,1092.395Z" transform="translate(4.608 15.396)" fill="none" stroke="#fff" stroke-miterlimit="10" stroke-width="2"/>
    <path id="Path_4489" data-name="Path 4489" d="M6.945,1093.53h0a10.8,10.8,0,0,1,10.8-10.8h0a1.8,1.8,0,0,1,1.8,1.8h0a10.8,10.8,0,0,1-10.8,10.8h0A1.8,1.8,0,0,1,6.945,1093.53Z" transform="translate(0 13.824)" fill="none" stroke="#fff" stroke-miterlimit="10" stroke-width="2"/>
    <path id="Path_4490" data-name="Path 4490" d="M65.015,1088.964l-21.529-16.848a4.58,4.58,0,0,0-5.645,0l-21.52,16.843a1.546,1.546,0,0,1,.036.177,10.73,10.73,0,0,1-1.4,5.3,4.575,4.575,0,0,0,4.176,2.714h.85a1.771,1.771,0,0,1,.5-1.122,10.8,10.8,0,0,1,15.273,0,1.764,1.764,0,0,1,.5,1.122H62.192a4.579,4.579,0,0,0,2.823-8.185Z" transform="translate(3.187 9.218)" fill="none" stroke="#fff" stroke-miterlimit="10" stroke-width="2"/>
    <line id="Line_309" data-name="Line 309" x1="21.312" transform="translate(68.163 1067.754)" fill="none" stroke="#fff" stroke-miterlimit="10" stroke-width="2"/>
  </g>
</svg>
