<svg xmlns="http://www.w3.org/2000/svg" viewBox="0 0 80 70.76"><defs><style>.cls-1{fill:none;stroke:#fff;stroke-linecap:round;stroke-linejoin:round;stroke-width:2px;}</style></defs><g id="Layer_2" data-name="Layer 2"><g id="Layer_1-2" data-name="Layer 1"><path class="cls-1" d="M54.94,37.23a2.6,2.6,0,0,1,0-3.71l1.63-1.62A2.58,2.58,0,0,0,57,28.72l-2.49-4.15a2.81,2.81,0,0,0-3.07-1.25l-2.28.55A2.78,2.78,0,0,1,45.8,22l-.64-2.17a2.76,2.76,0,0,0-2.67-1.93h-5a2.76,2.76,0,0,0-2.67,1.93L34.2,22a2.78,2.78,0,0,1-3.34,1.86l-2.28-.55a2.81,2.81,0,0,0-3.07,1.25L23,28.72a2.58,2.58,0,0,0,.41,3.18l1.63,1.62a2.6,2.6,0,0,1,0,3.71l-1.63,1.62A2.59,2.59,0,0,0,23,42l2.49,4.15a2.81,2.81,0,0,0,3.07,1.25l2.28-.55a2.78,2.78,0,0,1,3.34,1.86l.64,2.17a2.76,2.76,0,0,0,2.67,1.93h5a2.76,2.76,0,0,0,2.67-1.93l.64-2.17a2.78,2.78,0,0,1,3.34-1.86l2.28.55a2.81,2.81,0,0,0,3.07-1.25L57,42a2.59,2.59,0,0,0-.41-3.19Z"/><circle class="cls-1" cx="40" cy="35.38" r="5.81"/><path class="cls-1" d="M27.1,5.51A4.51,4.51,0,0,1,22.59,10a4.4,4.4,0,0,1-2.13-.54l-12.7,22a4.5,4.5,0,0,1,0,7.81l12.7,22a4.52,4.52,0,0,1,6.64,4H52.9a4.52,4.52,0,0,1,6.64-4l12.7-22a4.5,4.5,0,0,1,0-7.81l-12.7-22a4.44,4.44,0,0,1-2.13.54A4.51,4.51,0,0,1,52.9,5.51Z"/><circle class="cls-1" cx="5.51" cy="35.38" r="4.51"/><circle class="cls-1" cx="22.59" cy="5.51" r="4.51"/><circle class="cls-1" cx="74.49" cy="35.38" r="4.51"/><circle class="cls-1" cx="57.41" cy="5.51" r="4.51"/><circle class="cls-1" cx="22.59" cy="65.25" r="4.51"/><circle class="cls-1" cx="57.41" cy="65.25" r="4.51"/><path class="cls-1" d="M50.83,54l4.31,7.38M24.86,9.41l4.5,7.71m21.32-.42,4.25-7.42M25.07,61.48l4.44-7.75m-11-18.26L10,35.38m60,0-8.84-.09"/></g></g></svg>