<svg xmlns="http://www.w3.org/2000/svg" width="63.619" height="78.951" viewBox="0 0 63.619 78.951">
  <g id="Group_6274" data-name="Group 6274" transform="translate(-1273.581 -2111.459)">
    <path id="Path_6972" data-name="Path 6972" d="M1412.725,2120.93l-7.771-7.771a2.258,2.258,0,0,0-3.194,0l-5.245,5.245,10.964,10.965,5.245-5.245A2.258,2.258,0,0,0,1412.725,2120.93Z" transform="translate(-77.036)" fill="none" stroke="#fff" stroke-miterlimit="10" stroke-width="1.7"/>
    <path id="Path_6973" data-name="Path 6973" d="M1333.062,2137.086l-15.845-15.845a2.259,2.259,0,0,0-1.6-.661h0l-34.406.012a6.793,6.793,0,0,0-6.783,6.784v60.5a6.8,6.8,0,0,0,6.783,6.784h0l45.724-.011a6.793,6.793,0,0,0,6.784-6.784v-49.181A2.257,2.257,0,0,0,1333.062,2137.086Zm-10.629,4.229a2.258,2.258,0,0,1-2.086,1.395H1285.72a2.258,2.258,0,0,1-2.258-2.258v-9.033a2.259,2.259,0,0,1,2.258-2.258h25.593a2.258,2.258,0,0,1,1.6.662l9.033,9.033A2.257,2.257,0,0,1,1322.433,2141.315Z" transform="translate(0 -5.099)" fill="none" stroke="#fff" stroke-miterlimit="10" stroke-width="1.7"/>
    <path id="Path_6974" data-name="Path 6974" d="M1335.264,2229.748V2216.64l5.963-5.962a2.258,2.258,0,0,0-3.193-3.194l-6.038,6.038h-16.872l-6.037-6.038a2.258,2.258,0,0,0-3.194,3.194l5.888,5.887v13.108l-5.888,5.887a2.258,2.258,0,1,0,3.194,3.193l6.113-6.113h16.571l6.113,6.113a2.258,2.258,0,0,0,3.193-3.193Zm-4.534-1.624H1316.3v-10.063l.026-.023h14.427v10.07Z" transform="translate(-19.435 -59.519)" fill="none" stroke="#fff" stroke-miterlimit="10" stroke-width="1.7"/>
  </g>
</svg>
