<svg xmlns="http://www.w3.org/2000/svg" width="72.685" height="72.602" viewBox="0 0 72.685 72.602">
  <g id="Group_5125" data-name="Group 5125" transform="translate(-129.738 -1012.388)">
    <path id="Path_4479" data-name="Path 4479" d="M167.255,1044.647H139.072a8.584,8.584,0,0,0-8.584,8.583v38.914a4.292,4.292,0,0,0,4.292,4.292h36.768a4.281,4.281,0,0,0,1.245-.185,25.86,25.86,0,0,1-22.786-24.521,1.079,1.079,0,0,1,.315-.812h0a1.079,1.079,0,0,1,.811-.314,25.857,25.857,0,0,1,24.52,22.785,4.281,4.281,0,0,0,.185-1.245V1053.23A8.584,8.584,0,0,0,167.255,1044.647Z" transform="translate(0 -12.195)" fill="none" stroke="#fff" stroke-miterlimit="10" stroke-width="1.5"/>
    <path id="Path_4480" data-name="Path 4480" d="M168.384,1034.144H144.492v6.438h28.184v-6.438Z" transform="translate(-5.42 -8.13)" fill="none" stroke="#fff" stroke-miterlimit="10" stroke-width="1.5"/>
    <path id="Path_4481" data-name="Path 4481" d="M170.021,1013.138H152.568a.983.983,0,0,0-1.073.858v7.726h19.6V1014A.984.984,0,0,0,170.021,1013.138Z" transform="translate(-8.131 0)" fill="none" stroke="#fff" stroke-miterlimit="10" stroke-width="1.5"/>
    <path id="Path_4482" data-name="Path 4482" d="M166.8,1034.144H151.495v6.438h19.6v-6.438Z" transform="translate(-8.131 -8.13)" fill="none" stroke="#fff" stroke-miterlimit="10" stroke-width="1.5"/>
    <path id="Path_4483" data-name="Path 4483" d="M172.112,1027.142H139.636a2.146,2.146,0,1,0,0,4.292h32.476a2.146,2.146,0,1,0,0-4.292Z" transform="translate(-2.71 -5.42)" fill="none" stroke="#fff" stroke-miterlimit="10" stroke-width="1.5"/>
    <path id="Path_4484" data-name="Path 4484" d="M229.993,1087.308a1.079,1.079,0,0,0-.812-.315,25.858,25.858,0,0,0-24.705,25.832,25.858,25.858,0,0,0,25.832-24.706A1.074,1.074,0,0,0,229.993,1087.308Z" transform="translate(-28.637 -28.585)" fill="none" stroke="#fff" stroke-miterlimit="10" stroke-width="1.5"/>
    <path id="Path_4485" data-name="Path 4485" d="M152.717,1077.15a1.079,1.079,0,0,1,.315-.812h0a1.078,1.078,0,0,1,.811-.314,25.832,25.832,0,0,1,20.414,11.567V1058.65a7.346,7.346,0,0,0-4.293,1.243,7.982,7.982,0,0,1-4.9,1.618c-4.6,0-4.6-2.861-9.192-2.861s-4.6,2.861-9.192,2.861-4.6-2.861-9.191-2.861v38.914h26.795A25.837,25.837,0,0,1,152.717,1077.15Z" transform="translate(-2.71 -17.615)" fill="none" stroke="#fff" stroke-miterlimit="10" stroke-width="1.5"/>
    <path id="Path_4486" data-name="Path 4486" d="M163.459,1086.993a1.079,1.079,0,0,0-.811.314h0a1.079,1.079,0,0,0-.315.812,25.859,25.859,0,0,0,25.832,24.706A25.858,25.858,0,0,0,163.459,1086.993Z" transform="translate(-12.325 -28.585)" fill="none" stroke="#fff" stroke-miterlimit="10" stroke-width="1.5"/>
  </g>
</svg>
