<?xml version="1.0" encoding="UTF-8"?>
<svg xmlns="http://www.w3.org/2000/svg" viewBox="0 0 80 71.68">
  <defs>
    <style>.cls-1{fill:none;stroke:#fff;stroke-linecap:round;stroke-linejoin:round;stroke-width:2px;}</style>
  </defs>
  <g id="Layer_2" data-name="Layer 2">
    <g id="Layer_1-2" data-name="Layer 1">
      <path class="cls-1" d="M57.24,41.23l6.46,6.46a5.39,5.39,0,0,1,1.57,3.78V62.74a2.59,2.59,0,0,1-2.59,2.59H3.59A2.59,2.59,0,0,1,1,62.74V51.47a5.34,5.34,0,0,1,1.57-3.78L9,41.23Z"></path>
      <path class="cls-1" d="M17.07,54.62H11.7a5.35,5.35,0,0,1-5.34-5.35V43.9l8,5.3h8Zm32.13,0,5.4,0a5.35,5.35,0,0,0,5.31-5.35V43.9l-8,5.3h-8ZM4.29,65.33H17.07V68.1a2.59,2.59,0,0,1-2.59,2.58H6.88A2.59,2.59,0,0,1,4.29,68.1Zm44.91,0H62V68.1a2.59,2.59,0,0,1-2.59,2.58h-7.6A2.59,2.59,0,0,1,49.2,68.1ZM9,41.23,13.71,31a5.33,5.33,0,0,1,4.86-3.13H47.7A5.34,5.34,0,0,1,52.56,31l4.67,10.26Z"></path>
      <path class="cls-1" d="M57.23,41.23h5.36a2.68,2.68,0,0,0,2.68-2.68h0a2.68,2.68,0,0,0-2.68-2.68H54.8ZM9,41.23H3.68A2.68,2.68,0,0,1,1,38.55H1a2.68,2.68,0,0,1,2.68-2.68h7.79Zm13.39,8H43.85m21.44,5.36H68.2a5.35,5.35,0,0,0,5.34-5.35V17.07m.1,0h0a5.36,5.36,0,0,1-5.35-5.36V6.36H79v5.35A5.36,5.36,0,0,1,73.64,17.07ZM71,1V6.36M76.32,1V6.36M33.13,1l-8,13.39h8v8L41.17,9h-8ZM17.07,65.33V54.62M49.2,65.33V54.62M22.42,60H43.85M25.1,54.56H41.17"></path>
    </g>
  </g>
</svg>
