<svg xmlns="http://www.w3.org/2000/svg" width="79.399" height="79.399" viewBox="0 0 79.399 79.399">
  <g id="Group_6218" data-name="Group 6218" transform="translate(149.683 -1013.806)">
    <path id="Path_4468" data-name="Path 4468" d="M-109.239,1014.656h4.552v4.553h-4.552Z" transform="translate(-12.126 0)" fill="none" stroke="#ec2227" stroke-miterlimit="10" stroke-width="1.7"/>
    <path id="Path_4469" data-name="Path 4469" d="M-96.114,1100.188h4.552v4.552h-4.552Z" transform="translate(-16.145 -26.195)" fill="none" stroke="#ec2227" stroke-miterlimit="10" stroke-width="1.7"/>
    <path id="Path_4470" data-name="Path 4470" d="M-102.677,1106.75h13.658v9.257h-13.658Z" transform="translate(-14.136 -28.204)" fill="none" stroke="#ec2227" stroke-miterlimit="10" stroke-width="1.7"/>
    <path id="Path_4474" data-name="Path 4474" d="M-115.8,1087.063v9.105h31.869v-9.105Z" transform="translate(-10.116 -22.175)" fill="none" stroke="#ec2227" stroke-miterlimit="10" stroke-width="1.7"/>
    <path id="Path_4475" data-name="Path 4475" d="M-58.381,1060.813a11.4,11.4,0,0,0-11.153,9.106h4.722a6.834,6.834,0,0,1,6.43-4.553H-51.4v4.553h4.552v-9.106Z" transform="translate(-24.286 -14.136)" fill="none" stroke="#ec2227" stroke-miterlimit="10" stroke-width="1.7"/>
    <path id="Path_4476" data-name="Path 4476" d="M-128.927,1120.094h50.08v4.552h-50.08Z" transform="translate(-6.096 -32.291)" fill="none" stroke="#ec2227" stroke-miterlimit="10" stroke-width="1.7"/>
    <path id="Path_4477" data-name="Path 4477" d="M-108.439,1021.219h-9.105a11.386,11.386,0,0,0-11.382,11.381v6.981h31.869V1032.6A11.385,11.385,0,0,0-108.439,1021.219Z" transform="translate(-6.096 -2.01)" fill="none" stroke="#ec2227" stroke-miterlimit="10" stroke-width="1.7"/>
    <path id="Path_4478" data-name="Path 4478" d="M-148.833,1073.938v9.105h77.7v-9.105Z" transform="translate(0 -18.155)" fill="none" stroke="#ec2227" stroke-miterlimit="10" stroke-width="1.7"/>
  </g>
</svg>
