<svg xmlns="http://www.w3.org/2000/svg" width="82.411" height="70.161" viewBox="0 0 82.411 70.161">
  <g id="Group_6229" data-name="Group 6229" transform="translate(1650.85 -1879.398)">
    <path id="Path_6873" data-name="Path 6873" d="M-1570.589,2174.156l-.372-.617a8.488,8.488,0,0,0-5.615-3.945l-10.741-2.136a17.329,17.329,0,0,1-6.08-2.85l-7.784-5.259a16.669,16.669,0,0,0-9.331-2.856H-1624.8a16.668,16.668,0,0,0-11.765,4.86,16.665,16.665,0,0,1-8.347,4.506l-1.69.354a4.276,4.276,0,0,0-3.4,4.186v11.4a2.267,2.267,0,0,0,1.346,2.072l5.228,2.323.047.02c-.021-.218-.033-.438-.033-.662a6.631,6.631,0,0,1,6.631-6.631,6.631,6.631,0,0,1,6.631,6.631,6.685,6.685,0,0,1-.068.941h40.982a6.667,6.667,0,0,1-.068-.941,6.631,6.631,0,0,1,6.631-6.631,6.631,6.631,0,0,1,6.631,6.631,6.667,6.667,0,0,1-.068.941h3.181a3.187,3.187,0,0,0,3.187-3.187v-6.1A5.9,5.9,0,0,0-1570.589,2174.156Z" transform="translate(0 -244.573)" fill="none" stroke="#fff" stroke-miterlimit="10" stroke-width="1.7"/>
    <circle id="Ellipse_225" data-name="Ellipse 225" cx="6.631" cy="6.631" r="6.631" transform="matrix(0.16, -0.987, 0.987, 0.16, -1644.388, 1946.46)" fill="none" stroke="#fff" stroke-miterlimit="10" stroke-width="1.7"/>
    <circle id="Ellipse_226" data-name="Ellipse 226" cx="6.631" cy="6.631" r="6.631" transform="translate(-1590.281 1946.46) rotate(-80.783)" fill="none" stroke="#fff" stroke-miterlimit="10" stroke-width="1.7"/>
    <path id="Path_6874" data-name="Path 6874" d="M-1074.356,2110.631h3.787V2128.2l-3.787-.728Z" transform="translate(-509.644 -203.969)" fill="none" stroke="#fff" stroke-miterlimit="10" stroke-width="1.7"/>
    <g id="Group_6228" data-name="Group 6228" transform="translate(-1594.925 1880.248)">
      <path id="Path_6875" data-name="Path 6875" d="M-1145.707,1906.686h-22.224a1.733,1.733,0,0,1-1.706-1.759v-22.92a1.733,1.733,0,0,1,1.706-1.759h22.224a1.733,1.733,0,0,1,1.706,1.759v22.92A1.733,1.733,0,0,1-1145.707,1906.686Z" transform="translate(1169.637 -1880.248)" fill="none" stroke="#fff" stroke-miterlimit="10" stroke-width="1.7"/>
      <path id="Path_6876" data-name="Path 6876" d="M-1145.707,1880.248h-22.224a1.733,1.733,0,0,0-1.706,1.759v22.92a1.733,1.733,0,0,0,1.706,1.759h22.224a1.733,1.733,0,0,0,1.706-1.759v-22.92A1.733,1.733,0,0,0-1145.707,1880.248Z" transform="translate(1169.637 -1880.248)" fill="none" stroke="#fff" stroke-miterlimit="10" stroke-width="1.7"/>
    </g>
    <path id="Path_6877" data-name="Path 6877" d="M-1562.764,2201.187a1.884,1.884,0,0,1,1.017-1.672,20.252,20.252,0,0,0,4.965-3.632,12.978,12.978,0,0,1,9.217-3.808h14.287a13.061,13.061,0,0,1,7.311,2.238l7.784,5.259q.773.523,1.585.968a2.235,2.235,0,0,1,1.168,1.955h0a.578.578,0,0,1-.578.578h-44.871a1.885,1.885,0,0,1-1.885-1.885Z" transform="translate(-77.234 -276.075)" fill="none" stroke="#fff" stroke-miterlimit="10" stroke-width="1.7"/>
    <path id="Path_6878" data-name="Path 6878" d="M-1553.208,2389.021a2.4,2.4,0,0,1,2.4,2.4,2.4,2.4,0,0,1-2.4,2.4,2.4,2.4,0,0,1-2.4-2.4A2.4,2.4,0,0,1-1553.208,2389.021Z" transform="translate(-83.573 -450.44)" fill="none" stroke="#fff" stroke-miterlimit="10" stroke-width="1.7"/>
    <path id="Path_6879" data-name="Path 6879" d="M-1081.284,2389.021a2.4,2.4,0,0,1,2.4,2.4,2.4,2.4,0,0,1-2.4,2.4,2.4,2.4,0,0,1-2.4-2.4A2.4,2.4,0,0,1-1081.284,2389.021Z" transform="translate(-501.39 -450.44)" fill="none" stroke="#fff" stroke-miterlimit="10" stroke-width="1.7"/>
    <path id="Path_6880" data-name="Path 6880" d="M-1099.573,1936.727a.884.884,0,0,1,.983-.8h4.032c2.548,0,4.554,1.224,4.554,4.514v.12c0,3.29-2.066,4.554-4.714,4.554h-2.247v4.654c0,.542-.662.823-1.3.823-.662,0-1.3-.281-1.3-.823v-13.04Zm2.608,1.484v4.855h2.247c1.3,0,2.106-.742,2.106-2.307v-.241c0-1.565-.8-2.307-2.106-2.307Z" transform="translate(-487.318 -49.293)" fill="#fff"/>
    <rect id="Rectangle_3177" data-name="Rectangle 3177" width="2.354" height="12.103" transform="translate(-1621.771 1915.448)" fill="#fff"/>
  </g>
</svg>
