<svg xmlns="http://www.w3.org/2000/svg" width="78.547" height="78.463" viewBox="0 0 78.547 78.463">
  <g id="Group_6348" data-name="Group 6348" transform="translate(-589.973 364.184)">
    <path id="Path_7135" data-name="Path 7135" d="M608.968-277.356l-18.145-7.8v32.27l7.266,3.114a1.2,1.2,0,0,0,1.591-.666l9.932-25.38A1.2,1.2,0,0,0,608.968-277.356Z" transform="translate(0 -54.11)" fill="none" stroke="#eb2127" stroke-miterlimit="10" stroke-width="1.7"/>
    <g id="Group_6348-2" data-name="Group 6348" transform="translate(606.266 -315.353)">
      <path id="Path_7136" data-name="Path 7136" d="M649.5-203.2a3.6,3.6,0,0,1,4.9-1.21,3.668,3.668,0,0,1,1.191,5.062l-6.263,10.15a3.6,3.6,0,0,1-4.957,1.174h0a3.6,3.6,0,0,1-1.174-4.957Z" transform="translate(-642.655 204.907)" fill="none" stroke="#eb2127" stroke-miterlimit="10" stroke-width="1.7"/>
      <path id="Path_7137" data-name="Path 7137" d="M668.814-183.64a3.6,3.6,0,0,1,4.9-1.21,3.668,3.668,0,0,1,1.191,5.062l-5,8.106a3.6,3.6,0,0,1-4.957,1.174h0a3.6,3.6,0,0,1-1.174-4.957Z" transform="translate(-657.102 191.177)" fill="none" stroke="#eb2127" stroke-miterlimit="10" stroke-width="1.7"/>
      <path id="Path_7138" data-name="Path 7138" d="M688.132-164.083a3.6,3.6,0,0,1,4.9-1.21,3.667,3.667,0,0,1,1.191,5.062l-3.741,6.062a3.6,3.6,0,0,1-4.957,1.174h0a3.6,3.6,0,0,1-1.174-4.957Z" transform="translate(-671.549 177.448)" fill="none" stroke="#eb2127" stroke-miterlimit="10" stroke-width="1.7"/>
      <path id="Path_7139" data-name="Path 7139" d="M707.448-144.527a3.6,3.6,0,0,1,4.9-1.21,3.667,3.667,0,0,1,1.191,5.062l-2.479,4.018a3.6,3.6,0,0,1-4.957,1.174h0a3.6,3.6,0,0,1-1.174-4.957Z" transform="translate(-685.995 163.718)" fill="none" stroke="#eb2127" stroke-miterlimit="10" stroke-width="1.7"/>
    </g>
    <path id="Path_7140" data-name="Path 7140" d="M680.056-231.077l-1.96-1.2h0l-19.569-12.025-.693-.426-.779-.479-.046.075a4.787,4.787,0,0,0-.854-.234l-2.559-.457-10.26,4.673a3.6,3.6,0,0,1-4.771-1.785,3.6,3.6,0,0,1,1.785-4.771l.863-.326-7.578-1.352L625.8-229.359l6.561,3.532,5.3-8.595a3.6,3.6,0,0,1,4.9-1.21,3.668,3.668,0,0,1,1.191,5.062l-1.217,1.973a3.6,3.6,0,0,1,4.9-1.208,3.668,3.668,0,0,1,1.191,5.062l-3.658,5.928h0l2.439-3.953a3.6,3.6,0,0,1,4.9-1.21,3.667,3.667,0,0,1,1.191,5.062l-1.219,1.975a3.6,3.6,0,0,1,4.9-1.21,3.667,3.667,0,0,1,1.191,5.062l-1.122,1.818,1.59.977a3.6,3.6,0,0,0,4.955-1.183,3.6,3.6,0,0,0-1.183-4.955l2.046,1.257a3.6,3.6,0,0,0,4.955-1.183,3.6,3.6,0,0,0-1.183-4.955l2.046,1.258a3.6,3.6,0,0,0,4.955-1.183,3.6,3.6,0,0,0-1.183-4.955l2.046,1.257a3.6,3.6,0,0,0,4.955-1.183A3.6,3.6,0,0,0,680.056-231.077Z" transform="translate(-24.555 -79.219)" fill="none" stroke="#eb2127" stroke-miterlimit="10" stroke-width="1.7"/>
    <path id="Path_7141" data-name="Path 7141" d="M753.329-334.181l20.808,20.531a1.2,1.2,0,0,0,1.658.027l5.712-5.276v-43.327l-28.154,26.313A1.2,1.2,0,0,0,753.329-334.181Z" transform="translate(-113.836)" fill="none" stroke="#eb2127" stroke-miterlimit="10" stroke-width="1.7"/>
    <path id="Path_7142" data-name="Path 7142" d="M694.176-265.39l-1.458,1.166-11.272.325a4.8,4.8,0,0,0-1.852.43l-9.179,4.18.107.019-.863.326a3.6,3.6,0,0,0-1.785,4.771,3.6,3.6,0,0,0,4.771,1.785l10.26-4.673,2.559.457a4.787,4.787,0,0,1,.854.234l.046-.075.779.479.693.426,19.569,12.025,4.342-4.536Z" transform="translate(-53.865 -67.984)" fill="none" stroke="#eb2127" stroke-miterlimit="10" stroke-width="1.7"/>
    <line id="Line_474" data-name="Line 474" x1="8.423" y1="5.627" transform="translate(641.26 -311.042)" fill="none" stroke="#eb2127" stroke-miterlimit="10" stroke-width="1.7"/>
    <line id="Line_475" data-name="Line 475" x1="8.254" y1="5.648" transform="translate(636.734 -305.415)" fill="none" stroke="#eb2127" stroke-miterlimit="10" stroke-width="1.7"/>
    <line id="Line_476" data-name="Line 476" x1="5.474" y1="3.746" transform="translate(632.874 -299.214)" fill="none" stroke="#eb2127" stroke-miterlimit="10" stroke-width="1.7"/>
  </g>
</svg>
