<svg xmlns="http://www.w3.org/2000/svg" width="83.898" height="83.731" viewBox="0 0 83.898 83.731">
  <g id="Group_6351" data-name="Group 6351" transform="translate(-885.487 475.412)">
    <path id="Path_7143" data-name="Path 7143" d="M905.745-388.041l-19.407-8.339v34.517l7.772,3.331a1.284,1.284,0,0,0,1.7-.713l10.623-27.147A1.284,1.284,0,0,0,905.745-388.041Z" transform="translate(0 -52.511)" fill="none" stroke="#fff" stroke-miterlimit="10" stroke-width="1.7"/>
    <g id="Group_6350" data-name="Group 6350" transform="translate(902.856 -423.317)">
      <path id="Path_7144" data-name="Path 7144" d="M945.487-314.3a3.853,3.853,0,0,1,5.238-1.294A3.923,3.923,0,0,1,952-310.184l-6.7,10.856a3.853,3.853,0,0,1-5.3,1.256h0a3.853,3.853,0,0,1-1.255-5.3Z" transform="translate(-938.169 316.135)" fill="none" stroke="#fff" stroke-miterlimit="10" stroke-width="1.7"/>
      <path id="Path_7145" data-name="Path 7145" d="M964.717-294.748a3.853,3.853,0,0,1,5.238-1.294,3.923,3.923,0,0,1,1.274,5.415l-5.35,8.67a3.853,3.853,0,0,1-5.3,1.256h0a3.853,3.853,0,0,1-1.256-5.3Z" transform="translate(-952.189 302.811)" fill="none" stroke="#fff" stroke-miterlimit="10" stroke-width="1.7"/>
      <path id="Path_7146" data-name="Path 7146" d="M983.946-275.192a3.853,3.853,0,0,1,5.239-1.294,3.923,3.923,0,0,1,1.274,5.414l-4,6.484a3.853,3.853,0,0,1-5.3,1.256h0a3.853,3.853,0,0,1-1.256-5.3Z" transform="translate(-966.209 289.487)" fill="none" stroke="#fff" stroke-miterlimit="10" stroke-width="1.7"/>
      <path id="Path_7147" data-name="Path 7147" d="M1003.175-255.635a3.853,3.853,0,0,1,5.238-1.294,3.923,3.923,0,0,1,1.274,5.415l-2.652,4.3a3.853,3.853,0,0,1-5.3,1.256h0a3.853,3.853,0,0,1-1.256-5.3Z" transform="translate(-980.228 276.163)" fill="none" stroke="#fff" stroke-miterlimit="10" stroke-width="1.7"/>
    </g>
    <path id="Path_7148" data-name="Path 7148" d="M979.347-341.03l-2.1-1.288h0l-20.932-12.862-.741-.455-.833-.512-.049.081a5.117,5.117,0,0,0-.914-.25l-2.737-.489-10.975,5a3.854,3.854,0,0,1-5.1-1.91,3.853,3.853,0,0,1,1.91-5.1l.923-.348-8.106-1.446-8.38,21.421,7.018,3.778L934-344.609a3.853,3.853,0,0,1,5.238-1.294,3.923,3.923,0,0,1,1.274,5.415l-1.3,2.11a3.853,3.853,0,0,1,5.237-1.292,3.923,3.923,0,0,1,1.274,5.415l-3.912,6.341h0l2.609-4.229a3.853,3.853,0,0,1,5.239-1.294,3.923,3.923,0,0,1,1.274,5.414l-1.3,2.112a3.853,3.853,0,0,1,5.238-1.294,3.923,3.923,0,0,1,1.274,5.415l-1.2,1.944,1.7,1.045a3.853,3.853,0,0,0,5.3-1.266,3.853,3.853,0,0,0-1.266-5.3l2.188,1.345a3.853,3.853,0,0,0,5.3-1.266,3.853,3.853,0,0,0-1.266-5.3l2.189,1.345a3.853,3.853,0,0,0,5.3-1.266,3.853,3.853,0,0,0-1.266-5.3l2.188,1.345a3.853,3.853,0,0,0,5.3-1.266A3.853,3.853,0,0,0,979.347-341.03Z" transform="translate(-23.829 -76.878)" fill="none" stroke="#fff" stroke-miterlimit="10" stroke-width="1.7"/>
    <path id="Path_7149" data-name="Path 7149" d="M1048.867-443.457l22.256,21.96a1.284,1.284,0,0,0,1.773.029l6.11-5.643v-46.343l-30.114,28.145A1.284,1.284,0,0,0,1048.867-443.457Z" transform="translate(-110.472 0)" fill="none" stroke="#fff" stroke-miterlimit="10" stroke-width="1.7"/>
    <path id="Path_7150" data-name="Path 7150" d="M991.543-376.618l-1.56,1.247-12.057.347a5.135,5.135,0,0,0-1.981.46l-9.817,4.471.114.02-.923.348a3.853,3.853,0,0,0-1.91,5.1,3.854,3.854,0,0,0,5.1,1.91l10.975-5,2.737.489a5.116,5.116,0,0,1,.914.25l.049-.081.833.512.741.455,20.932,12.862,4.644-4.852Z" transform="translate(-52.273 -65.975)" fill="none" stroke="#fff" stroke-miterlimit="10" stroke-width="1.7"/>
    <line id="Line_477" data-name="Line 477" x1="9.01" y1="6.019" transform="translate(940.285 -418.706)" fill="none" stroke="#fff" stroke-miterlimit="10" stroke-width="1.7"/>
    <line id="Line_478" data-name="Line 478" x1="8.829" y1="6.041" transform="translate(935.444 -412.687)" fill="none" stroke="#fff" stroke-miterlimit="10" stroke-width="1.7"/>
    <line id="Line_479" data-name="Line 479" x1="5.855" y1="4.006" transform="translate(931.316 -406.055)" fill="none" stroke="#fff" stroke-miterlimit="10" stroke-width="1.7"/>
  </g>
</svg>
