<svg xmlns="http://www.w3.org/2000/svg" width="80.968" height="81.116" viewBox="0 0 80.968 81.116">
  <path id="Path_6784" data-name="Path 6784" d="M204.5,46.117a1.189,1.189,0,0,0-1.68-.057L198,50.563,175.923,28.781,204.439,2.056A1.188,1.188,0,1,0,202.814.322L173.4,27.892a1.2,1.2,0,0,0-.022,1.713l1.953,1.926-.623.551-13.052-1.124a1.192,1.192,0,0,0-.594.1l-10.341,4.71c-.03-.008-.06-.015-.091-.021l-5.948-1.05.481-1.23a1.188,1.188,0,0,0-.665-1.536l-19.014-7.606a1.188,1.188,0,0,0-.882,2.207L142.514,33.7l-10.56,26.985-6.521-2.31a1.188,1.188,0,0,0-.793,2.24l7.606,2.694a1.2,1.2,0,0,0,1.5-.687l1.765-4.51,4.624,2.591-.51.827a4.989,4.989,0,0,0,5.787,7.366,4.987,4.987,0,0,0,6.473,3.994,4.988,4.988,0,0,0,6.473,4,4.988,4.988,0,0,0,9.181,1.868l.811-1.314.668.41a4.982,4.982,0,0,0,6.866-1.639,4.961,4.961,0,0,0,.727-2.912,4.924,4.924,0,0,0,1.153.14,5.03,5.03,0,0,0,4.262-2.38,4.954,4.954,0,0,0,.73-2.912,4.928,4.928,0,0,0,1.15.139,5.031,5.031,0,0,0,4.262-2.38,4.955,4.955,0,0,0,.729-2.914,4.99,4.99,0,0,0,3.773-9.1l-.814-.5,2.731-2.854,2.555,2.521a1.2,1.2,0,0,0,1.646.022l5.651-5.282A1.189,1.189,0,0,0,204.5,46.117Zm-58.4,19.41a2.614,2.614,0,0,1-4.45-2.746l6.656-10.788a2.627,2.627,0,0,1,3.554-.879,2.7,2.7,0,0,1,.851,3.7Zm6.472,3.994a2.614,2.614,0,1,1-4.45-2.746l5.325-8.63A2.627,2.627,0,0,1,157,57.266a2.7,2.7,0,0,1,.851,3.7Zm6.473,3.994a2.615,2.615,0,0,1-3.6.852,2.639,2.639,0,0,1-.852-3.6l3.994-6.473a2.627,2.627,0,0,1,3.554-.879,2.7,2.7,0,0,1,.851,3.7Zm9.09-.248-2.618,4.242a2.614,2.614,0,1,1-4.45-2.746l2.662-4.315a2.627,2.627,0,0,1,3.554-.878A2.7,2.7,0,0,1,168.135,73.266ZM192.284,59.51a2.618,2.618,0,0,1-3.6.859l-9.413-5.784a1.188,1.188,0,1,0-1.244,2.025l7.253,4.457a2.614,2.614,0,1,1-2.737,4.455l-6.573-4.039a1.188,1.188,0,0,0-1.244,2.025l4.413,2.711a2.614,2.614,0,0,1-2.737,4.455s-3.881-2.382-3.917-2.4a1.188,1.188,0,0,0-1.138,2.083L173,71.372a2.614,2.614,0,0,1-2.738,4.455l-.663-.408.559-.906a5.145,5.145,0,0,0,.608-3.912,4.913,4.913,0,0,0-5.129-3.753,5.15,5.15,0,0,0-.012-2.4A4.913,4.913,0,0,0,160.5,60.7a5.059,5.059,0,0,0-2.284-5.477,4.947,4.947,0,0,0-2.857-.674,4.975,4.975,0,0,0-9.07-3.8l-4.9,7.937-5-2.8,7.4-18.923,4.032.712a4.99,4.99,0,0,0,5.95,7.677l6.527-2.973,4.28-1.747,2.755.486,10.82,6.649h0l4.492,2.76h0l8.777,5.393A2.618,2.618,0,0,1,192.284,59.51Zm-2.5-7.394-5.891-3.62h0l-4.491-2.76h0l-11.013-6.767a1.213,1.213,0,0,0-.444-.163L164.5,38.2a1.16,1.16,0,0,0-.41,0l0-.02s-4.249,1.8-4.333,1.834l-1.152.525-.212.091,0,0-5.6,2.55a2.614,2.614,0,1,1-2.167-4.759l11.137-5.072,13.248,1.141q.051,0,.1,0a1.189,1.189,0,0,0,.787-.3l1.128-1,15.873,15.661Z" transform="translate(-123.847 -0.001)" fill="#fff"/>
</svg>
