<svg xmlns="http://www.w3.org/2000/svg" width="83.7" height="55.939" viewBox="0 0 83.7 55.939">
  <g id="Group_5963" data-name="Group 5963" transform="translate(-348.776 -802.038)">
    <path id="Path_4491" data-name="Path 4491" d="M578.789,910.453v5.3h-5.3v-5.3h5.3Z" transform="translate(-151.131 -82.423)" fill="none" stroke="#ec2227" stroke-miterlimit="10" stroke-width="1.7"/>
    <path id="Path_4492" data-name="Path 4492" d="M376.374,891.331v2.632H361.839V886.04h9.245v-.013a5.292,5.292,0,0,1,5.29,5.3Z" transform="translate(-8.245 -65.932)" fill="none" stroke="#ec2227" stroke-miterlimit="10" stroke-width="1.7"/>
    <path id="Path_4493" data-name="Path 4493" d="M380.342,910.453v5.3h-18.5v-5.3h18.5Z" transform="translate(-8.245 -82.423)" fill="none" stroke="#ec2227" stroke-miterlimit="10" stroke-width="1.7"/>
    <path id="Path_4494" data-name="Path 4494" d="M430.6,926.777v6.613a1.327,1.327,0,0,1-1.323,1.323H381.664a1.327,1.327,0,0,1-1.323-1.323v-6.613h-18.5v15.871H435.9V926.777Z" transform="translate(-8.245 -93.443)" fill="none" stroke="#ec2227" stroke-miterlimit="10" stroke-width="1.7"/>
    <path id="Path_4495" data-name="Path 4495" d="M431.045,906.382h42.322v10.58H431.045Z" transform="translate(-54.967 -79.674)" fill="none" stroke="#ec2227" stroke-miterlimit="10" stroke-width="1.7"/>
    <path id="Path_4497" data-name="Path 4497" d="M592.455,890.139a1.327,1.327,0,0,1,1.323,1.323v33.052a1.327,1.327,0,0,1-1.323,1.323h-1.323a1.326,1.326,0,0,1-1.323-1.323V891.462a1.326,1.326,0,0,1,1.323-1.323Z" transform="translate(-162.152 -68.709)" fill="none" stroke="#ec2227" stroke-miterlimit="10" stroke-width="1.7"/>
    <path id="Path_4498" data-name="Path 4498" d="M353.594,848.962v37.019a1.326,1.326,0,0,1-1.323,1.323h-1.323a1.326,1.326,0,0,1-1.323-1.323V834.387a1.326,1.326,0,0,1,1.323-1.322h1.323a1.326,1.326,0,0,1,1.323,1.322Z" transform="translate(0 -30.177)" fill="none" stroke="#ec2227" stroke-miterlimit="10" stroke-width="1.7"/>
    <path id="Path_4500" data-name="Path 4500" d="M469.049,911.685v7.936a1.327,1.327,0,0,1-1.323,1.323H420.114a1.327,1.327,0,0,1-1.323-1.323V907.7a1.326,1.326,0,0,1,1.323-1.323h47.613a1.327,1.327,0,0,1,1.323,1.323Z" transform="translate(-46.694 -79.674)" fill="none" stroke="#ec2227" stroke-miterlimit="10" stroke-width="1.7"/>
  </g>
</svg>
