<svg xmlns="http://www.w3.org/2000/svg" width="72.575" height="71.461" viewBox="0 0 72.575 71.461">
  <g id="Group_5993" data-name="Group 5993" transform="translate(-1100.209 -858.992)">
    <path id="Path_6233" data-name="Path 6233" d="M1175.469,890.147v4.51l-4.454-.055v-4.455Z" transform="translate(-44.54 -19.367)" fill="none" stroke="#fff" stroke-miterlimit="10" stroke-width="1.3"/>
    <path id="Path_6234" data-name="Path 6234" d="M1196.535,944.532a1.113,1.113,0,0,1-1.114-1.114v-3.335a1.114,1.114,0,0,1,2.228,0v3.335A1.113,1.113,0,0,1,1196.535,944.532Z" transform="translate(-60.036 -50.363)" fill="#fff"/>
    <path id="Path_6235" data-name="Path 6235" d="M1245.347,944.532a1.113,1.113,0,0,1-1.114-1.114v-3.335a1.114,1.114,0,0,1,2.227,0v3.335A1.113,1.113,0,0,1,1245.347,944.532Z" transform="translate(-91.026 -50.363)" fill="#fff"/>
    <path id="Path_6236" data-name="Path 6236" d="M1147.747,944.532a1.113,1.113,0,0,1-1.114-1.114v-3.335a1.114,1.114,0,1,1,2.227,0v3.335A1.113,1.113,0,0,1,1147.747,944.532Z" transform="translate(-29.061 -50.363)" fill="#fff"/>
    <path id="Path_6237" data-name="Path 6237" d="M1146.933,914.548a1.037,1.037,0,0,1,1.114.928v9.292a1.037,1.037,0,0,1-1.114.928h-2.227a1.037,1.037,0,0,1-1.114-.928v-9.292a1.037,1.037,0,0,1,1.114-.928Z" transform="translate(-27.131 -34.859)" fill="none" stroke="#fff" stroke-miterlimit="10" stroke-width="1.3"/>
    <path id="Path_6238" data-name="Path 6238" d="M1244.509,914.548a1.037,1.037,0,0,1,1.114.928v9.292a1.037,1.037,0,0,1-1.114.928h-2.227a1.037,1.037,0,0,1-1.114-.928v-9.292a1.037,1.037,0,0,1,1.114-.928Z" transform="translate(-89.08 -34.859)" fill="none" stroke="#fff" stroke-miterlimit="10" stroke-width="1.3"/>
    <path id="Path_6239" data-name="Path 6239" d="M1195.706,914.548a1.037,1.037,0,0,1,1.113.928v9.292a1.037,1.037,0,0,1-1.113.928h-2.228a1.037,1.037,0,0,1-1.114-.928v-9.292a1.037,1.037,0,0,1,1.114-.928Z" transform="translate(-58.095 -34.859)" fill="none" stroke="#fff" stroke-miterlimit="10" stroke-width="1.3"/>
    <path id="Path_6240" data-name="Path 6240" d="M1185.831,1039.6a1.117,1.117,0,0,1,1.114,1.114v2.228a1.117,1.117,0,0,1-1.114,1.114h-28.955a1.117,1.117,0,0,1-1.114-1.114v-2.228a1.117,1.117,0,0,1,1.114-1.114h28.955Z" transform="translate(-34.857 -114.254)" fill="none" stroke="#fff" stroke-miterlimit="10" stroke-width="1.3"/>
    <path id="Path_6241" data-name="Path 6241" d="M1148.456,972.5h23.387a1.117,1.117,0,0,1,1.114,1.114v3.341a1.117,1.117,0,0,1-1.114,1.114h-66.821a1.117,1.117,0,0,1-1.114-1.114v-3.341a1.117,1.117,0,0,1,1.114-1.114h43.433Z" transform="translate(-1.936 -71.651)" fill="none" stroke="#fff" stroke-miterlimit="10" stroke-width="1.3"/>
    <path id="Path_6242" data-name="Path 6242" d="M1180.164,1003h13.364v13.364h-13.364Z" transform="translate(-50.349 -91.016)" fill="none" stroke="#fff" stroke-miterlimit="10" stroke-width="1.3"/>
    <path id="Path_6243" data-name="Path 6243" d="M1167.963,987.746V992.2a1.117,1.117,0,0,0,1.114,1.114h20.046a1.117,1.117,0,0,0,1.114-1.114v-4.456Z" transform="translate(-42.603 -81.331)" fill="none" stroke="#fff" stroke-miterlimit="10" stroke-width="1.3"/>
    <path id="Path_6244" data-name="Path 6244" d="M1156.956,902.348a1.117,1.117,0,0,1,1.114,1.113v2.228a1.117,1.117,0,0,1-1.114,1.114h-12.25a1.117,1.117,0,0,1-1.114-1.114v-2.228a1.117,1.117,0,0,1,1.114-1.113h12.25Z" transform="translate(-27.131 -27.113)" fill="none" stroke="#fff" stroke-miterlimit="10" stroke-width="1.3"/>
    <path id="Path_6245" data-name="Path 6245" d="M1191.06,877.945V882.4h-20.046v-4.455Z" transform="translate(-44.54 -11.62)" fill="none" stroke="#fff" stroke-miterlimit="10" stroke-width="1.3"/>
    <path id="Path_6246" data-name="Path 6246" d="M1192.364,890.147h4.455V894.6h-4.455Z" transform="translate(-58.095 -19.367)" fill="none" stroke="#fff" stroke-miterlimit="10" stroke-width="1.3"/>
    <path id="Path_6247" data-name="Path 6247" d="M1192.364,902.348h4.455V906.8h-4.455Z" transform="translate(-58.095 -27.113)" fill="#fff"/>
    <path id="Path_6248" data-name="Path 6248" d="M1218.171,890.147V894.6l-4.455.055v-4.51Z" transform="translate(-71.651 -19.367)" fill="none" stroke="#fff" stroke-miterlimit="10" stroke-width="1.3"/>
    <path id="Path_6249" data-name="Path 6249" d="M1227.08,902.348a1.117,1.117,0,0,1,1.114,1.113v2.228a1.117,1.117,0,0,1-1.114,1.114h-12.25a1.117,1.117,0,0,1-1.114-1.114v-2.228a1.117,1.117,0,0,1,1.114-1.113h12.25Z" transform="translate(-71.651 -27.113)" fill="none" stroke="#fff" stroke-miterlimit="10" stroke-width="1.3"/>
    <g id="Group_5992" data-name="Group 5992" transform="translate(1113.109 861.87)">
      <path id="Path_6250" data-name="Path 6250" d="M1171.014,865.745h20.046V870.2h-20.046Z" transform="translate(-1157.65 -865.745)" fill="none" stroke="#fff" stroke-miterlimit="10" stroke-width="1.3"/>
      <path id="Path_6251" data-name="Path 6251" d="M1135.525,974.722a1.113,1.113,0,0,0,1.114-1.114V972.5h-2.228v1.109A1.112,1.112,0,0,0,1135.525,974.722Z" transform="translate(-1134.411 -933.521)" fill="#fff"/>
      <path id="Path_6252" data-name="Path 6252" d="M1166.026,974.722a1.113,1.113,0,0,0,1.114-1.114V972.5h-2.228v1.109A1.113,1.113,0,0,0,1166.026,974.722Z" transform="translate(-1153.776 -933.521)" fill="#fff"/>
      <path id="Path_6253" data-name="Path 6253" d="M1196.528,974.722a1.113,1.113,0,0,0,1.114-1.114V972.5h-2.228v1.109A1.113,1.113,0,0,0,1196.528,974.722Z" transform="translate(-1173.141 -933.521)" fill="#fff"/>
      <path id="Path_6254" data-name="Path 6254" d="M1227.031,974.722a1.113,1.113,0,0,0,1.114-1.114V972.5h-2.227v1.109A1.112,1.112,0,0,0,1227.031,974.722Z" transform="translate(-1192.507 -933.521)" fill="#fff"/>
      <path id="Path_6255" data-name="Path 6255" d="M1257.532,974.722a1.113,1.113,0,0,0,1.114-1.114V972.5h-2.228v1.109A1.113,1.113,0,0,0,1257.532,974.722Z" transform="translate(-1211.871 -933.521)" fill="#fff"/>
    </g>
    <path id="Path_6256" data-name="Path 6256" d="M1171.021,861.869h-69.048a1.114,1.114,0,1,1,0-2.227h69.048a1.114,1.114,0,0,1,0,2.227Z" fill="none" stroke="#fff" stroke-miterlimit="10" stroke-width="1.3"/>
  </g>
</svg>
