<?xml version="1.0" encoding="UTF-8"?>
<svg xmlns="http://www.w3.org/2000/svg" viewBox="0 0 80 77.13">
  <defs>
    <style>.cls-1{fill:none;stroke:#fff;stroke-linecap:round;stroke-linejoin:round;stroke-width:2px;}</style>
  </defs>
  <g id="Layer_2" data-name="Layer 2">
    <g id="Layer_1-2" data-name="Layer 1">
      <path class="cls-1" d="M32.41,36.43,21.08,47.77A15.29,15.29,0,0,0,9,75.73V64.35a6.87,6.87,0,1,1,13.74,0V76.13a15.27,15.27,0,0,0,8-18.64l4.58-4.58"></path>
      <path class="cls-1" d="M37.87,31,49.21,19.64A15.27,15.27,0,0,1,57.25,1V12.78a6.87,6.87,0,1,0,13.74,0V1.4a15.29,15.29,0,0,1-12.07,28l-4.57,4.57"></path>
      <path class="cls-1" d="M51.6,40.56a10,10,0,0,1,7.46,2.92L73.34,57.76A10,10,0,0,1,59.2,71.9L44.92,57.62A10,10,0,0,1,42,50.16"></path>
      <path class="cls-1" d="M48.31,33.07,34.51,46.88a3.81,3.81,0,0,0,5.39,5.39L53.7,38.46a3.81,3.81,0,0,0-5.39-5.39Z"></path>
      <path class="cls-1" d="M9.33,2.3,3.74,7.89,9.27,19l5.55,0,.07-.07L38.68,42.7l5.46-5.46L20.35,13.45l.06-.06.05-5.55Z"></path>
    </g>
  </g>
</svg>
