<svg xmlns="http://www.w3.org/2000/svg" width="83.6" height="82.257" viewBox="0 0 83.6 82.257">
  <g id="Group_6205" data-name="Group 6205" transform="translate(-1750.199 473.133)">
    <path id="Path_6747" data-name="Path 6747" d="M2164.442-377.612a4.019,4.019,0,0,0-2.877-3.845,4.02,4.02,0,0,0-3.845-2.877,4.019,4.019,0,0,0-3.844,2.877,4.019,4.019,0,0,0-2.877,3.845,4.019,4.019,0,0,0,2.877,3.845,4.02,4.02,0,0,0,3.844,2.877,4.02,4.02,0,0,0,3.845-2.877A4.019,4.019,0,0,0,2164.442-377.612Z" transform="translate(-332.786 -73.213)" fill="none" stroke="#fff" stroke-miterlimit="10" stroke-width="1.6"/>
    <path id="Path_6748" data-name="Path 6748" d="M2100.442-465.612a4.019,4.019,0,0,0-2.877-3.845,4.02,4.02,0,0,0-3.845-2.877,4.019,4.019,0,0,0-3.844,2.877,4.02,4.02,0,0,0-2.877,3.845,4.02,4.02,0,0,0,2.877,3.844,4.02,4.02,0,0,0,3.844,2.877,4.02,4.02,0,0,0,3.845-2.877A4.019,4.019,0,0,0,2100.442-465.612Z" transform="translate(-279.54 0)" fill="none" stroke="#fff" stroke-miterlimit="10" stroke-width="1.6"/>
    <path id="Path_6749" data-name="Path 6749" d="M1841.288-338.693a32.271,32.271,0,0,1-31.817,26.886,32.271,32.271,0,0,1-31.816-26.886v-10.756a32.271,32.271,0,0,1,31.816-26.884,32.271,32.271,0,0,1,31.817,26.886Z" transform="translate(-22.177 -79.869)" fill="none" stroke="#fff" stroke-miterlimit="10" stroke-width="1.6"/>
    <path id="Path_6750" data-name="Path 6750" d="M1810.2-322.824a26.894,26.894,0,0,1,26.348-21.509,26.766,26.766,0,0,1,15.353,4.811l-37.427,37.428a26.732,26.732,0,0,1-4.265-9.934Z" transform="translate(-49.252 -106.491)" fill="none" stroke="#fff" stroke-miterlimit="10" stroke-width="1.6"/>
    <path id="Path_6751" data-name="Path 6751" d="M1775.2-205.579h-22.853a1.345,1.345,0,0,1-1.344-1.344v-8.066a1.345,1.345,0,0,1,1.344-1.344h33.607Z" transform="translate(0 -212.983)" fill="none" stroke="#fff" stroke-miterlimit="10" stroke-width="1.6"/>
    <path id="Path_6752" data-name="Path 6752" d="M1767.13-216.333v10.754h-14.787a1.345,1.345,0,0,1-1.344-1.344v-8.066a1.345,1.345,0,0,1,1.344-1.344Z" transform="translate(0 -212.983)" fill="none" stroke="#fff" stroke-miterlimit="10" stroke-width="1.6"/>
    <path id="Path_6753" data-name="Path 6753" d="M1902.537-269.7a26.9,26.9,0,0,1-26.348,21.509,26.787,26.787,0,0,1-18.341-7.228l.015.013,38-38a26.818,26.818,0,0,1,6.677,12.95V-269.7Z" transform="translate(-88.895 -148.861)" fill="none" stroke="#fff" stroke-miterlimit="10" stroke-width="1.6"/>
    <path id="Path_6754" data-name="Path 6754" d="M1943-205.579h38.984a1.345,1.345,0,0,0,1.344-1.344v-8.066a1.345,1.345,0,0,0-1.344-1.344h-28.23Z" transform="translate(-159.737 -212.983)" fill="none" stroke="#fff" stroke-miterlimit="10" stroke-width="1.6"/>
    <g id="Group_6203" data-name="Group 6203" transform="translate(1823.589 -440.069)">
      <path id="Path_6755" data-name="Path 6755" d="M2187.025-266.884v-2.689a2.675,2.675,0,0,0,1.9-.786,2.669,2.669,0,0,0,.786-1.9,2.69,2.69,0,0,0-2.687-2.689,4.037,4.037,0,0,1-4.033-4.033v-1.344h2.688v1.344a1.346,1.346,0,0,0,1.344,1.344,5.382,5.382,0,0,1,5.377,5.377,5.346,5.346,0,0,1-1.574,3.8A5.351,5.351,0,0,1,2187.025-266.884Z" transform="translate(-2182.991 280.326)" fill="none" stroke="#fff" stroke-miterlimit="10" stroke-width="1.6"/>
    </g>
    <g id="Group_6204" data-name="Group 6204" transform="translate(1827.622 -423.938)">
      <path id="Path_6756" data-name="Path 6756" d="M2206.992-177.606v-2.689a2.675,2.675,0,0,0,1.9-.786,2.67,2.67,0,0,0,.787-1.9v-1.344h2.688v1.344a5.343,5.343,0,0,1-1.574,3.8A5.34,5.34,0,0,1,2206.992-177.606Z" transform="translate(-2206.991 184.326)" fill="none" stroke="#fff" stroke-miterlimit="10" stroke-width="1.6"/>
    </g>
  </g>
</svg>
