<svg xmlns="http://www.w3.org/2000/svg" width="72.326" height="43.26" viewBox="0 0 72.326 43.26">
  <g id="Group_6349" data-name="Group 6349" transform="translate(-761.989 -641.325)">
    <path id="Path_6228" data-name="Path 6228" d="M-97.909,258.6l1.837,3.722a.829.829,0,0,0,.623.453l4.107.6a1.714,1.714,0,0,1,.949,2.923l-2.972,2.9a.827.827,0,0,0-.238.732l.7,4.09a1.713,1.713,0,0,1-2.486,1.806l-3.673-1.931a.828.828,0,0,0-.771,0l-3.673,1.931a1.714,1.714,0,0,1-2.486-1.806l.7-4.09a.828.828,0,0,0-.239-.732l-2.971-2.9a1.713,1.713,0,0,1,.949-2.922l4.107-.6a.826.826,0,0,0,.623-.453l1.837-3.721a1.714,1.714,0,0,1,3.073,0Z" transform="translate(871.878 384.986)" fill="none" stroke="#fff" stroke-miterlimit="10" stroke-width="1.7"/>
    <path id="Path_6231" data-name="Path 6231" d="M-97.909,258.6l1.837,3.722a.829.829,0,0,0,.623.453l4.107.6a1.714,1.714,0,0,1,.949,2.923l-2.972,2.9a.827.827,0,0,0-.238.732l.7,4.09a1.713,1.713,0,0,1-2.486,1.806l-3.673-1.931a.828.828,0,0,0-.771,0l-3.673,1.931a1.714,1.714,0,0,1-2.486-1.806l.7-4.09a.828.828,0,0,0-.239-.732l-2.971-2.9a1.713,1.713,0,0,1,.949-2.922l4.107-.6a.826.826,0,0,0,.623-.453l1.837-3.721a1.714,1.714,0,0,1,3.073,0Z" transform="translate(884.701 407.682)" fill="none" stroke="#fff" stroke-miterlimit="10" stroke-width="1.7"/>
    <path id="Path_6229" data-name="Path 6229" d="M-97.909,258.6l1.837,3.722a.829.829,0,0,0,.623.453l4.107.6a1.714,1.714,0,0,1,.949,2.923l-2.972,2.9a.827.827,0,0,0-.238.732l.7,4.09a1.713,1.713,0,0,1-2.486,1.806l-3.673-1.931a.828.828,0,0,0-.771,0l-3.673,1.931a1.714,1.714,0,0,1-2.486-1.806l.7-4.09a.828.828,0,0,0-.239-.732l-2.971-2.9a1.713,1.713,0,0,1,.949-2.922l4.107-.6a.826.826,0,0,0,.623-.453l1.837-3.721a1.714,1.714,0,0,1,3.073,0Z" transform="translate(923.317 384.986)" fill="none" stroke="#fff" stroke-miterlimit="10" stroke-width="1.7"/>
    <path id="Path_6230" data-name="Path 6230" d="M-97.909,258.6l1.837,3.722a.829.829,0,0,0,.623.453l4.107.6a1.714,1.714,0,0,1,.949,2.923l-2.972,2.9a.827.827,0,0,0-.238.732l.7,4.09a1.713,1.713,0,0,1-2.486,1.806l-3.673-1.931a.828.828,0,0,0-.771,0l-3.673,1.931a1.714,1.714,0,0,1-2.486-1.806l.7-4.09a.828.828,0,0,0-.239-.732l-2.971-2.9a1.713,1.713,0,0,1,.949-2.922l4.107-.6a.826.826,0,0,0,.623-.453l1.837-3.721a1.714,1.714,0,0,1,3.073,0Z" transform="translate(910.494 407.682)" fill="none" stroke="#fff" stroke-miterlimit="10" stroke-width="1.7"/>
    <path id="Path_6232" data-name="Path 6232" d="M-97.909,258.6l1.837,3.722a.829.829,0,0,0,.623.453l4.107.6a1.714,1.714,0,0,1,.949,2.923l-2.972,2.9a.827.827,0,0,0-.238.732l.7,4.09a1.713,1.713,0,0,1-2.486,1.806l-3.673-1.931a.828.828,0,0,0-.771,0l-3.673,1.931a1.714,1.714,0,0,1-2.486-1.806l.7-4.09a.828.828,0,0,0-.239-.732l-2.971-2.9a1.713,1.713,0,0,1,.949-2.922l4.107-.6a.826.826,0,0,0,.623-.453l1.837-3.721a1.714,1.714,0,0,1,3.073,0Z" transform="translate(897.598 384.525)" fill="none" stroke="#fff" stroke-miterlimit="10" stroke-width="1.7"/>
  </g>
</svg>
