<svg xmlns="http://www.w3.org/2000/svg" width="74.74" height="78.74" viewBox="0 0 74.74 78.74">
  <g id="Group_6276" data-name="Group 6276" transform="translate(-138.15 -339.166)">
    <g id="Group_6275" data-name="Group 6275" transform="translate(151.74 340.279)">
      <path id="Path_6975" data-name="Path 6975" d="M149.771,340.279l54.3,1.983,6,10.5-1.049,58.279-51.854,5.975-7.393-7.711Z" transform="translate(-149.771 -340.279)" fill="#fff" stroke="#eb2127" stroke-miterlimit="10" stroke-width="1.7"/>
    </g>
    <path id="Path_6976" data-name="Path 6976" d="M159.133,417.013l-13.922-3.642L139,406.518V343.763l12.74-3.484v67.951l7.393,8.782" fill="#fff" stroke="#eb2127" stroke-miterlimit="10" stroke-width="1.7"/>
    <line id="Line_467" data-name="Line 467" x2="12.74" y2="1.713" transform="translate(139 406.518)" fill="#fff" stroke="#eb2127" stroke-miterlimit="10" stroke-width="1.7"/>
    <path id="Path_6977" data-name="Path 6977" d="M139,387.565l9.659.538V379.75H139Z" transform="translate(0 7.214)" fill="#fff" stroke="#eb2127" stroke-miterlimit="10" stroke-width="1.7"/>
    <path id="Path_6978" data-name="Path 6978" d="M139,373.48l9.659-.148v-9.019L139,365.489Z" transform="translate(0 4.393)" fill="#fff" stroke="#eb2127" stroke-miterlimit="10" stroke-width="1.7"/>
    <path id="Path_6979" data-name="Path 6979" d="M139,359.143l9.659-1.406v-9.071l-9.659,2.3Z" transform="translate(0 1.533)" fill="#fff" stroke="#eb2127" stroke-miterlimit="10" stroke-width="1.7"/>
  </g>
</svg>
