<svg xmlns="http://www.w3.org/2000/svg" width="80.038" height="80.038" viewBox="0 0 80.038 80.038">
  <g id="Group_6347" data-name="Group 6347" transform="translate(-601.708 -89.279)">
    <g id="Group_6337" data-name="Group 6337" transform="translate(643.18 104.219)">
      <path id="Path_7125" data-name="Path 7125" d="M673.233,115.087v0a4.851,4.851,0,1,0-9.7,0v0a7.781,7.781,0,1,0,9.7,0Z" transform="translate(-660.602 -110.234)" fill="none" stroke="#eb2127" stroke-miterlimit="10" stroke-width="1.9"/>
    </g>
    <g id="Group_6338" data-name="Group 6338" transform="translate(602.658 129.298)">
      <path id="Path_7126" data-name="Path 7126" d="M680.8,146.1a39.069,39.069,0,0,1-78.138,0Z" transform="translate(-602.658 -146.096)" fill="none" stroke="#eb2127" stroke-miterlimit="10" stroke-width="1.9"/>
    </g>
    <g id="Group_6339" data-name="Group 6339" transform="translate(630.451 129.298)">
      <path id="Path_7127" data-name="Path 7127" d="M686.777,146.1a3.539,3.539,0,0,1-.957,1.683l-7.437,7.437a3.561,3.561,0,0,1-2.52,1.043h-5.107a3.556,3.556,0,0,0-2.518,1.043L662.544,163a3.572,3.572,0,0,0-1.043,2.519v2.614a3.563,3.563,0,0,1-1.043,2.519l-2.79,2.79a3.562,3.562,0,0,1-5.039,0L649,169.809a3.559,3.559,0,0,1-1.043-2.519v-7.531a3.561,3.561,0,0,0-1.043-2.519l-3.471-3.471a3.556,3.556,0,0,1-1.044-2.519V146.1Z" transform="translate(-642.4 -146.096)" fill="none" stroke="#eb2127" stroke-miterlimit="10" stroke-width="1.9"/>
    </g>
    <g id="Group_6340" data-name="Group 6340" transform="translate(602.658 129.298)">
      <path id="Path_7128" data-name="Path 7128" d="M618.635,159.656v5.183a3.824,3.824,0,0,1-1.12,2.705l-4.761,4.761a38.933,38.933,0,0,1-10.1-26.209h12.419c-.048.244,0,6.832,0,6.832a3.827,3.827,0,0,0,1.12,2.7l1.318,1.318A3.821,3.821,0,0,1,618.635,159.656Z" transform="translate(-602.658 -146.096)" fill="none" stroke="#eb2127" stroke-miterlimit="10" stroke-width="1.9"/>
    </g>
    <g id="Group_6341" data-name="Group 6341" transform="translate(606.625 109.692)">
      <path id="Path_7129" data-name="Path 7129" d="M608.33,118.06h18.293v19.606H608.33Z" transform="translate(-608.33 -118.06)" fill="none" stroke="#eb2127" stroke-miterlimit="10" stroke-width="1.9"/>
    </g>
    <g id="Group_6342" data-name="Group 6342" transform="translate(624.918 116.571)">
      <path id="Path_7130" data-name="Path 7130" d="M634.488,133.112l5.531-5.216,5.53,5.216v7.512H634.488Z" transform="translate(-634.488 -127.896)" fill="none" stroke="#eb2127" stroke-miterlimit="10" stroke-width="1.9"/>
    </g>
    <g id="Group_6343" data-name="Group 6343" transform="translate(606.625 103.585)">
      <path id="Path_7131" data-name="Path 7131" d="M608.33,109.328H617.8v6.107H608.33Z" transform="translate(-608.33 -109.328)" fill="none" stroke="#eb2127" stroke-miterlimit="10" stroke-width="1.9"/>
    </g>
    <g id="Group_6344" data-name="Group 6344" transform="translate(624.918 90.229)">
      <path id="Path_7132" data-name="Path 7132" d="M646.021,92.356a3.65,3.65,0,0,0-2.39.887,4.733,4.733,0,1,0-4.409,6.451h6.8a3.669,3.669,0,0,0,0-7.337Z" transform="translate(-634.488 -90.229)" fill="none" stroke="#eb2127" stroke-miterlimit="10" stroke-width="1.9"/>
    </g>
    <g id="Group_6345" data-name="Group 6345" transform="translate(656.497 94.754)">
      <path id="Path_7133" data-name="Path 7133" d="M691.177,98.827a3.651,3.651,0,0,0-2.39.887,4.732,4.732,0,1,0-4.41,6.451h6.8a3.669,3.669,0,1,0,0-7.337Z" transform="translate(-679.645 -96.7)" fill="none" stroke="#eb2127" stroke-miterlimit="10" stroke-width="1.9"/>
    </g>
    <g id="Group_6346" data-name="Group 6346" transform="translate(664.097 110.947)">
      <path id="Path_7134" data-name="Path 7134" d="M694.382,120.687l-3.764,9.037a1.352,1.352,0,0,0,1.248,1.872h7.543a1.353,1.353,0,0,0,1.248-1.874l-3.778-9.037a1.352,1.352,0,0,0-2.5,0Z" transform="translate(-690.513 -119.855)" fill="none" stroke="#eb2127" stroke-miterlimit="10" stroke-width="1.9"/>
    </g>
    <line id="Line_470" data-name="Line 470" x2="10.745" transform="translate(610.399 116.571)" fill="none" stroke="#eb2127" stroke-miterlimit="10" stroke-width="1.9"/>
    <line id="Line_471" data-name="Line 471" y2="14.274" transform="translate(650.96 115.024)" fill="none" stroke="#eb2127" stroke-miterlimit="10" stroke-width="1.9"/>
    <line id="Line_472" data-name="Line 472" y2="7.664" transform="translate(669.221 122.161)" fill="none" stroke="#eb2127" stroke-miterlimit="10" stroke-width="1.9"/>
    <line id="Line_473" data-name="Line 473" x2="10.745" transform="translate(610.399 122.688)" fill="none" stroke="#eb2127" stroke-miterlimit="10" stroke-width="1.9"/>
  </g>
</svg>
