<svg xmlns="http://www.w3.org/2000/svg" width="79.633" height="77.847" viewBox="0 0 79.633 77.847">
  <g id="Group_6320" data-name="Group 6320" transform="translate(377.771 -1900.896)">
    <path id="Path_7088" data-name="Path 7088" d="M-266.723,1913.232a28.813,28.813,0,0,0-7.794,1.348l-1.264-4.044a33.426,33.426,0,0,1,9.058-1.517,34.925,34.925,0,0,1,14.671,2.666c-.586-5.8-4.676-11.176-12.27-11.176h-1.9c-.168,0-.337.042-.506.042a24.237,24.237,0,0,0-23.086,18.411l-.674,2.612h8.341a27.656,27.656,0,0,1,12.3,2.907,12.374,12.374,0,0,0,3.117,1.053,11.64,11.64,0,0,0,2.4.253,11.728,11.728,0,0,0,12.022-9.611A30.73,30.73,0,0,0-266.723,1913.232Z" transform="translate(-71.252 1.237)" fill="none" stroke="#fff" stroke-miterlimit="10" stroke-width="1.7"/>
    <path id="Path_7089" data-name="Path 7089" d="M-43.438,2109.1l-1.94-1.876-4.165,7.214a27.684,27.684,0,0,1-8.685,9.224,12.418,12.418,0,0,0-3.886,4.125,11.673,11.673,0,0,0,2.382,15.192,30.219,30.219,0,0,0,9.1-9.809,29.948,29.948,0,0,0,3.725-10.758l4.172.6a34.207,34.207,0,0,1-4.248,12.264,34.407,34.407,0,0,1-8.954,10.155c5.3,2.353,11.959,1.5,15.708-5l.95-1.641A24.322,24.322,0,0,0-43.438,2109.1Z" transform="translate(-263.002 -172.445)" fill="none" stroke="#fff" stroke-miterlimit="10" stroke-width="1.7"/>
    <path id="Path_7090" data-name="Path 7090" d="M-366.168,2135.272a34.212,34.212,0,0,1-4.248-12.264l4.172-.6a29.948,29.948,0,0,0,3.725,10.758,30.218,30.218,0,0,0,9.111,9.814,11.679,11.679,0,0,0,2.376-15.2,12.427,12.427,0,0,0-3.886-4.125,27.682,27.682,0,0,1-8.685-9.224l-4.166-7.215-1.94,1.876a24.322,24.322,0,0,0-4.161,29.688l.946,1.638c3.755,6.51,10.413,7.366,15.718,5.011A34.41,34.41,0,0,1-366.168,2135.272Z" transform="translate(0.237 -172.445)" fill="none" stroke="#fff" stroke-miterlimit="10" stroke-width="1.7"/>
    <g id="Group_6316" data-name="Group 6316" transform="translate(-350.514 1932.151)">
      <path id="Path_7091" data-name="Path 7091" d="M-196.277,2118.573v-8.367l-10.334-5.166,14.742-14.742v8.366l10.334,5.166Z" transform="translate(206.611 -2090.298)" fill="none" stroke="#fff" stroke-miterlimit="10" stroke-width="1.7"/>
    </g>
    <g id="Group_6317" data-name="Group 6317" transform="translate(-347.032 1910.234)">
      <path id="Path_7092" data-name="Path 7092" d="M-153.935,1968.427l-2.654,3.286a30.3,30.3,0,0,0-20.138-6.53,28.814,28.814,0,0,0-7.794,1.348l-1.264-4.044a33.416,33.416,0,0,1,9.058-1.517A34.685,34.685,0,0,1-153.935,1968.427Z" transform="translate(185.784 -1960.947)" fill="none" stroke="#fff" stroke-miterlimit="10" stroke-width="1.7"/>
    </g>
    <g id="Group_6318" data-name="Group 6318" transform="translate(-328.758 1949.962)">
      <path id="Path_7093" data-name="Path 7093" d="M-75.471,2243.049l-1.535-3.925a30.244,30.244,0,0,0,15.128-13,29.953,29.953,0,0,0,3.725-10.759l4.172.6a34.205,34.205,0,0,1-4.248,12.264,34.473,34.473,0,0,1-17.242,14.815Z" transform="translate(77.007 -2215.369)" fill="none" stroke="#fff" stroke-miterlimit="10" stroke-width="1.7"/>
    </g>
    <g id="Group_6319" data-name="Group 6319" transform="translate(-370.179 1949.962)">
      <path id="Path_7094" data-name="Path 7094" d="M-307.753,2243.049A34.475,34.475,0,0,1-325,2228.234a34.211,34.211,0,0,1-4.248-12.264l4.172-.6a29.954,29.954,0,0,0,3.725,10.759,30.244,30.244,0,0,0,15.128,13Z" transform="translate(329.244 -2215.369)" fill="none" stroke="#fff" stroke-miterlimit="10" stroke-width="1.7"/>
    </g>
  </g>
</svg>
