<svg xmlns="http://www.w3.org/2000/svg" width="76.713" height="76.713" viewBox="0 0 76.713 76.713">
  <g id="Group_5205" data-name="Group 5205" transform="translate(-889.411 -587.64)">
    <g id="Group_5199" data-name="Group 5199" transform="translate(897.722 588.44)">
      <path id="Path_4758" data-name="Path 4758" d="M942.17,622.316l.376.063A16.849,16.849,0,0,0,942.17,626H915.88a6.044,6.044,0,0,1,1.765-4.269l5.746-5.746H915.88a6.043,6.043,0,0,1,1.765-4.269l5.746-5.746H915.88V604.7a2.421,2.421,0,0,1,1.039-1.978,34.139,34.139,0,0,0,10.966-13.145,1.937,1.937,0,0,1,3.53,0,34.142,34.142,0,0,0,10.967,13.145,2.421,2.421,0,0,1,1.039,1.978v1.264H935.91l5.746,5.746a6.044,6.044,0,0,1,1.765,4.269H935.91l5.746,5.746A5.907,5.907,0,0,1,942.17,622.316Z" transform="translate(-915.88 -588.44)" fill="none" stroke="#ec2227" stroke-miterlimit="10" stroke-width="1.6"/>
    </g>
    <g id="Group_5200" data-name="Group 5200" transform="translate(939.034 600.959)">
      <path id="Path_4759" data-name="Path 4759" d="M1068.328,660.015a5.009,5.009,0,0,1-9.677,1.815,16.878,16.878,0,0,0,.914-5.571,15.568,15.568,0,0,0-2.5-8.763v-1.252a4.908,4.908,0,0,0,1.252-6.259,5.006,5.006,0,0,1,5.007-5.008c.063,0,.113.013.176.013a4.982,4.982,0,0,1,9.664,0c.062,0,.113-.013.175-.013a5.007,5.007,0,0,1,5.008,5.008,4.907,4.907,0,0,0,1.251,6.259,4.99,4.99,0,0,1-1.2,3.23,4.969,4.969,0,0,1-.388,8.776,4.874,4.874,0,0,1,.338,1.765,5.008,5.008,0,0,1-10.015,0Z" transform="translate(-1057.06 -631.222)" fill="none" stroke="#ec2227" stroke-miterlimit="10" stroke-width="1.6"/>
    </g>
    <g id="Group_5201" data-name="Group 5201" transform="translate(924.012 613.477)">
      <path id="Path_4760" data-name="Path 4760" d="M1020.745,677.759a15.568,15.568,0,0,1,2.5,8.763,16.874,16.874,0,0,1-.914,5.571c-1.44,4.119-4.406,6.948-7.849,6.948-4.845,0-8.763-5.609-8.763-12.519a16.856,16.856,0,0,1,.376-3.618c1.089-5.145,4.431-8.9,8.388-8.9A7.75,7.75,0,0,1,1020.745,677.759Z" transform="translate(-1005.722 -674.003)" fill="none" stroke="#ec2227" stroke-miterlimit="10" stroke-width="1.6"/>
    </g>
    <g id="Group_5202" data-name="Group 5202" transform="translate(935.279 639.767)">
      <path id="Path_4761" data-name="Path 4761" d="M1059.1,769.128c.075-.025.138-.05.212-.075a3.706,3.706,0,0,1,1.19-.2,3.751,3.751,0,0,1,3.756,3.756h-20.03a3.75,3.75,0,0,1,2.529-3.53c0-.075-.025-.15-.025-.225a4.99,4.99,0,0,1,9.352-2.441A3.709,3.709,0,0,1,1059.1,769.128Z" transform="translate(-1044.227 -763.845)" fill="none" stroke="#ec2227" stroke-miterlimit="10" stroke-width="1.6"/>
    </g>
    <g id="Group_5203" data-name="Group 5203" transform="translate(901.478 633.508)">
      <path id="Path_4762" data-name="Path 4762" d="M948.745,747.462a5.011,5.011,0,0,1,3.317,8.763l-.951,1.252H931.569l-1.165-1.252a5,5,0,0,1,2.078-8.588c0-.063-.013-.113-.013-.175a5.006,5.006,0,0,1,5.007-5.008,4.577,4.577,0,0,1,1.252.163,4.948,4.948,0,0,1,3.092,2.4,5.933,5.933,0,0,1,.663-.063,4.988,4.988,0,0,1,4.495,2.842A4.861,4.861,0,0,1,948.745,747.462Z" transform="translate(-928.715 -742.454)" fill="none" stroke="#ec2227" stroke-miterlimit="10" stroke-width="1.6"/>
    </g>
    <g id="Group_5204" data-name="Group 5204" transform="translate(890.211 648.53)">
      <path id="Path_4763" data-name="Path 4763" d="M947.8,803.808h3.755a2.521,2.521,0,0,1,2.5,2.5,2.511,2.511,0,0,1-2.5,2.5H902.73a2.522,2.522,0,0,1-2.5-2.5,2.511,2.511,0,0,1,2.5-2.5H892.715a2.511,2.511,0,0,1-2.5-2.5,2.523,2.523,0,0,1,2.5-2.5h3.755a2.511,2.511,0,0,0,2.5-2.5,2.522,2.522,0,0,1,2.5-2.5h61.343a2.511,2.511,0,0,1,2.5,2.5,2.521,2.521,0,0,1-2.5,2.5H947.8a2.512,2.512,0,0,0-2.5,2.5,2.523,2.523,0,0,0,2.5,2.5Z" transform="translate(-890.211 -793.793)" fill="none" stroke="#ec2227" stroke-miterlimit="10" stroke-width="1.6"/>
    </g>
    <line id="Line_336" data-name="Line 336" y2="23.544" transform="translate(932.775 624.986)" fill="none" stroke="#ec2227" stroke-miterlimit="10" stroke-width="1.6"/>
    <line id="Line_337" data-name="Line 337" y2="20.456" transform="translate(911.493 613.214)" fill="none" stroke="#ec2227" stroke-miterlimit="10" stroke-width="1.6"/>
    <line id="Line_338" data-name="Line 338" y2="20.064" transform="translate(950.342 624.986)" fill="none" stroke="#ec2227" stroke-miterlimit="10" stroke-width="1.6"/>
  </g>
</svg>
