<svg xmlns="http://www.w3.org/2000/svg" viewBox="0 0 80 70.53"><defs><style>.cls-1{fill:none;stroke:#fff;stroke-miterlimit:10;stroke-width:2px;}</style></defs><g id="Layer_2" data-name="Layer 2"><g id="Layer_1-2" data-name="Layer 1"><path class="cls-1" d="M71.18,39.5V20.75a5.62,5.62,0,0,0-5.61-5.62H26.49a.52.52,0,0,0-.17.19l-1.7,3.1a.55.55,0,0,1-1,0L22,15.32a.61.61,0,0,0-.17-.19H14.43a5.62,5.62,0,0,0-5.61,5.62V39.5M3.76,61.8h7.31v7.73H3.76Zm65.17,0h7.31v7.73H68.93Z"/><path class="cls-1" d="M65.65,39.36a3.58,3.58,0,0,0,.29-1.4V29.74a3.61,3.61,0,0,0-3.61-3.61H46.66a3.61,3.61,0,0,0-3.61,3.61V38a3.64,3.64,0,0,0,.28,1.4m-6.66,0A3.57,3.57,0,0,0,37,38V29.74a3.61,3.61,0,0,0-3.61-3.61H17.67a3.61,3.61,0,0,0-3.61,3.61V38a3.47,3.47,0,0,0,.29,1.4Zm-26.52,0a6.39,6.39,0,0,0-6.39,6.39v3.36H76.24V45.75a6.39,6.39,0,0,0-6.39-6.39ZM76.65,61.8A2.35,2.35,0,0,0,79,59.45v-8a2.35,2.35,0,0,0-2.35-2.35H3.35A2.35,2.35,0,0,0,1,51.46v8A2.35,2.35,0,0,0,3.35,61.8Zm2.35-6H1M24.62,7.41l1.7,3.11a.52.52,0,0,0,.22.22l3.1,1.7a.55.55,0,0,1,0,1l-3.1,1.7a.52.52,0,0,0-.22.22l-1.7,3.1a.55.55,0,0,1-1,0L22,15.32a.52.52,0,0,0-.22-.22l-3.1-1.7a.55.55,0,0,1,0-1l3.1-1.7a.52.52,0,0,0,.22-.22l1.7-3.11A.56.56,0,0,1,24.62,7.41Zm9.77-5.72V6.63M31.92,4.16h4.94m7.57,3.65v3.37M42.75,9.5h3.37M56.66,1.29,58,3.7a.58.58,0,0,0,.22.22l2.41,1.32a.55.55,0,0,1,0,1L58.2,7.52a.58.58,0,0,0-.22.22l-1.32,2.41a.55.55,0,0,1-1,0L54.37,7.74a.52.52,0,0,0-.22-.22L51.74,6.2a.55.55,0,0,1,0-1l2.41-1.32a.52.52,0,0,0,.22-.22l1.32-2.41A.55.55,0,0,1,56.66,1.29ZM1,69.53H79"/></g></g></svg>