<svg xmlns="http://www.w3.org/2000/svg" viewBox="0 0 80 56.84"><defs><style>.cls-1{fill:none;stroke:#fff;stroke-linecap:round;stroke-linejoin:round;stroke-width:2px;}</style></defs><g id="Layer_2" data-name="Layer 2"><g id="Layer_1-2" data-name="Layer 1"><path class="cls-1" d="M64.66,34.69A107.23,107.23,0,0,0,63.1,21.74"/><path class="cls-1" d="M26.7,46.82a54.65,54.65,0,0,0,6.89,1.46"/><path class="cls-1" d="M16.92,21.64c-.34,1.83-.71,4.09-1,6.73l-.48,5.17q-.26,3.54-.28,7.09A1.62,1.62,0,0,0,15.82,42a26.12,26.12,0,0,0,3.1,1.85"/><path class="cls-1" d="M77.89,16.43a1.62,1.62,0,0,0,0-3.07L41,1.16a3.38,3.38,0,0,0-2,0L2.11,13.36a1.62,1.62,0,0,0,0,3.07L39,28.62a3.24,3.24,0,0,0,2,0Z"/><path class="cls-1" d="M44.12,13c0,1.56-1.85,2.18-4.14,2.18s-4.13-.62-4.13-2.18S37.7,10.19,40,10.19,44.12,11.46,44.12,13Z"/><path class="cls-1" d="M36.41,14.28l-13.6,9v4.79"/><path class="cls-1" d="M20.94,34.36c-1,3.38-2,9.15-2,18.69a.78.78,0,0,0,.59.76,13.81,13.81,0,0,0,6.6,0,.78.78,0,0,0,.59-.76c0-9.52-1-15.29-2-18.67"/><path class="cls-1" d="M26.08,31.34a3.27,3.27,0,1,1-3.27-3.27A3.26,3.26,0,0,1,26.08,31.34Z"/><path class="cls-1" d="M39.05,55.74l38.41-14c1.56-.57,2-3.26,1-6s-3.08-4.52-4.64-3.95l-38.41,14"/><path class="cls-1" d="M40.06,49.73c1,2.75.54,5.44-1,6s-3.64-1.2-4.64-4-.55-5.44,1-6S39.05,47,40.06,49.73Z"/><path class="cls-1" d="M57.24,49.12c1.56-.57,2-3.26,1-6s-3.08-4.52-4.64-4L59,37.21c1.56-.56,3.64,1.2,4.64,3.95s.54,5.44-1,6c0,0,5.13-.74,7.22,3.23a.78.78,0,0,1-.43,1.09l-5.41,2A.78.78,0,0,1,63,53C62.39,51.39,60.69,47.86,57.24,49.12Z"/><path class="cls-1" d="M62.59,47.17l-5.35,1.95"/></g></g></svg>