<svg xmlns="http://www.w3.org/2000/svg" width="73.186" height="73.148" viewBox="0 0 73.186 73.148">
  <g id="Group_5052" data-name="Group 5052" transform="translate(195.68 -257.65)">
    <path id="Path_4378" data-name="Path 4378" d="M-168,364h-12.391v-16.89a.718.718,0,0,1,.718-.718h10.954a.718.718,0,0,1,.718.718V364Z" transform="translate(-6.304 -38.736)" fill="none" stroke="#fff" stroke-miterlimit="10" stroke-width="1.7"/>
    <path id="Path_4379" data-name="Path 4379" d="M-130,354.872H-142.4V326.2a.719.719,0,0,1,.718-.718h10.955a.719.719,0,0,1,.718.718v28.675Z" transform="translate(-22.887 -29.606)" fill="none" stroke="#fff" stroke-miterlimit="10" stroke-width="1.7"/>
    <path id="Path_4380" data-name="Path 4380" d="M-92.012,344.3H-104.4V301.987a.718.718,0,0,1,.718-.718h10.954a.718.718,0,0,1,.718.718V344.3Z" transform="translate(-39.47 -19.039)" fill="none" stroke="#fff" stroke-miterlimit="10" stroke-width="1.7"/>
    <path id="Path_4381" data-name="Path 4381" d="M-174.794,306.653l1.688,3.42a.763.763,0,0,0,.573.416l3.774.548a1.574,1.574,0,0,1,.872,2.685l-2.731,2.663a.758.758,0,0,0-.219.672l.645,3.759a1.574,1.574,0,0,1-2.284,1.659l-3.375-1.774a.762.762,0,0,0-.707,0l-3.376,1.774a1.574,1.574,0,0,1-2.284-1.659l.645-3.759a.757.757,0,0,0-.219-.672l-2.73-2.663a1.574,1.574,0,0,1,.872-2.685l3.774-.548a.763.763,0,0,0,.573-.416l1.688-3.42A1.574,1.574,0,0,1-174.794,306.653Z" transform="translate(-4.29 -21.007)" fill="none" stroke="#fff" stroke-miterlimit="10" stroke-width="1.7"/>
    <path id="Path_4382" data-name="Path 4382" d="M-136.8,283.386l1.688,3.421a.76.76,0,0,0,.573.416l3.774.548a1.574,1.574,0,0,1,.872,2.685l-2.731,2.662a.761.761,0,0,0-.218.673l.644,3.759a1.574,1.574,0,0,1-2.284,1.66l-3.375-1.775a.76.76,0,0,0-.708,0l-3.375,1.775a1.574,1.574,0,0,1-2.284-1.66l.645-3.759a.761.761,0,0,0-.219-.673l-2.731-2.662a1.574,1.574,0,0,1,.872-2.685l3.774-.548a.76.76,0,0,0,.573-.416l1.688-3.421A1.575,1.575,0,0,1-136.8,283.386Z" transform="translate(-20.873 -10.851)" fill="#fff"/>
    <path id="Path_4383" data-name="Path 4383" d="M-98.81,258.527l1.688,3.42a.761.761,0,0,0,.573.416l3.774.548A1.575,1.575,0,0,1-91.9,265.6l-2.731,2.661a.759.759,0,0,0-.219.673l.645,3.759a1.574,1.574,0,0,1-2.284,1.66l-3.375-1.774a.761.761,0,0,0-.708,0l-3.375,1.774a1.575,1.575,0,0,1-2.284-1.66l.645-3.759a.76.76,0,0,0-.219-.673l-2.73-2.662a1.574,1.574,0,0,1,.872-2.685l3.774-.548a.759.759,0,0,0,.573-.416l1.688-3.419a1.575,1.575,0,0,1,2.824,0Z" transform="translate(-37.456)" fill="#fff"/>
    <path id="Path_4384" data-name="Path 4384" d="M-124.062,382.174h-70.05a.718.718,0,0,1-.718-.719v-3.436a.719.719,0,0,1,.718-.718h70.049a.718.718,0,0,1,.718.718v3.436A.717.717,0,0,1-124.062,382.174Z" transform="translate(0 -52.226)" fill="none" stroke="#fff" stroke-miterlimit="10" stroke-width="1.7"/>
  </g>
</svg>
