<svg xmlns="http://www.w3.org/2000/svg" width="103.496" height="76.618" viewBox="0 0 103.496 76.618">
  <g id="Group_6273" data-name="Group 6273" transform="translate(-873.288 -1835.727)">
    <circle id="Ellipse_228" data-name="Ellipse 228" cx="10.531" cy="10.531" r="10.531" transform="translate(882.062 1896.251) rotate(-45)" fill="none" stroke="#fff" stroke-miterlimit="10" stroke-width="1.7"/>
    <path id="Path_6964" data-name="Path 6964" d="M886.68,2012.168v7.021a3.52,3.52,0,0,0,3.51,3.51h5.265a10.531,10.531,0,0,1,21.061,0h35.1v-10.531Z" transform="translate(-9.032 -126.448)" fill="none" stroke="#fff" stroke-miterlimit="10" stroke-width="1.7"/>
    <path id="Path_6965" data-name="Path 6965" d="M946.63,2037.253a3.51,3.51,0,1,1-3.51,3.51A3.51,3.51,0,0,1,946.63,2037.253Z" transform="translate(-49.676 -144.512)" fill="none" stroke="#fff" stroke-miterlimit="10" stroke-width="1.7"/>
    <circle id="Ellipse_229" data-name="Ellipse 229" cx="10.531" cy="10.531" r="10.531" transform="translate(940.449 1904.08) rotate(-76.717)" fill="none" stroke="#fff" stroke-miterlimit="10" stroke-width="1.7"/>
    <path id="Path_6966" data-name="Path 6966" d="M1147.305,2037.253a3.51,3.51,0,1,1-3.51,3.51A3.51,3.51,0,0,1,1147.305,2037.253Z" transform="translate(-194.188 -144.512)" fill="none" stroke="#fff" stroke-miterlimit="10" stroke-width="1.7"/>
    <path id="Path_6967" data-name="Path 6967" d="M1143.025,1915.834v17.551a3.52,3.52,0,0,1-3.51,3.51h-8.776a10.539,10.539,0,0,0-10.531-10.531h-14.041v-33.346h14.041v19.306a3.52,3.52,0,0,0,3.51,3.51Z" transform="translate(-167.092 -40.645)" fill="none" stroke="#fff" stroke-miterlimit="10" stroke-width="1.7"/>
    <path id="Path_6968" data-name="Path 6968" d="M974.968,2012.169V2022.7h-8.776a10.539,10.539,0,0,0-10.531-10.531Z" transform="translate(-58.708 -126.449)" fill="none" stroke="#fff" stroke-miterlimit="10" stroke-width="1.7"/>
    <path id="Path_6969" data-name="Path 6969" d="M942.587,1840.087v45.632H874.138v-45.632a3.521,3.521,0,0,1,3.51-3.51h61.429A3.521,3.521,0,0,1,942.587,1840.087Z" transform="translate(0 0)" fill="none" stroke="#fff" stroke-miterlimit="10" stroke-width="1.7"/>
    <path id="Path_6970" data-name="Path 6970" d="M1179.154,1910.148v5.686h-19.306a3.521,3.521,0,0,1-3.51-3.51v-19.306h7.2a3.511,3.511,0,0,1,2.632,1.176l12.093,13.619a3.5,3.5,0,0,1,.895,2.335Z" transform="translate(-203.22 -40.645)" fill="none" stroke="#fff" stroke-miterlimit="10" stroke-width="1.7"/>
    <path id="Path_6971" data-name="Path 6971" d="M1102.145,2012.169a10.539,10.539,0,0,0-10.531,10.531h-10.531v-10.531Z" transform="translate(-149.028 -126.449)" fill="none" stroke="#fff" stroke-miterlimit="10" stroke-width="1.7"/>
  </g>
</svg>
