<svg xmlns="http://www.w3.org/2000/svg" width="67.346" height="80.422" viewBox="0 0 67.346 80.422">
  <g id="Group_6216" data-name="Group 6216" transform="translate(2538.266 -1555.248)">
    <path id="Path_6767" data-name="Path 6767" d="M-2537.416,1556.1h65.646v78.722h-65.646Z" transform="translate(0 0)" fill="#fff" stroke="#eb2127" stroke-miterlimit="10" stroke-width="1.7"/>
    <g id="Group_6209" data-name="Group 6209" transform="translate(-2528.571 1598.036)">
      <path id="Path_6768" data-name="Path 6768" d="M-2504.278,1732.038l4.361,2.04-4.41,9.462-1.165-3.2-3.2,1.164Z" transform="translate(2509.146 -1717.034)" fill="#fff" stroke="#eb2127" stroke-miterlimit="10" stroke-width="1.7"/>
      <path id="Path_6769" data-name="Path 6769" d="M-2473.464,1740l-1.165,3.2-4.41-9.462,4.362-2.04,4.417,9.463Z" transform="translate(2489.087 -1716.808)" fill="#fff" stroke="#eb2127" stroke-miterlimit="10" stroke-width="1.7"/>
      <path id="Path_6770" data-name="Path 6770" d="M-2500.447,1685.678a9.639,9.639,0,0,1,9.639,9.639,9.639,9.639,0,0,1-9.639,9.639,9.639,9.639,0,0,1-9.639-9.639A9.639,9.639,0,0,1-2500.447,1685.678Z" transform="translate(2510.086 -1685.678)" fill="#fff" stroke="#eb2127" stroke-miterlimit="10" stroke-width="1.7"/>
      <path id="Path_6771" data-name="Path 6771" d="M-2489.734,1698.47c.321.764,1.727,1.35,1.727,2.217s-1.406,1.454-1.727,2.217c-.322.779.249,2.193-.345,2.779s-2,.024-2.78.345c-.763.322-1.349,1.727-2.217,1.727s-1.454-1.406-2.217-1.727c-.779-.321-2.193.249-2.779-.345s-.024-2-.345-2.779c-.321-.763-1.727-1.349-1.727-2.217s1.406-1.454,1.727-2.217-.249-2.193.345-2.779,2-.024,2.779-.345c.763-.321,1.35-1.727,2.217-1.727s1.454,1.406,2.217,1.727c.779.321,2.193-.249,2.78.345s.024,2,.345,2.779Z" transform="translate(2504.714 -1691.049)" fill="#fff" stroke="#eb2127" stroke-miterlimit="10" stroke-width="1.7"/>
      <path id="Path_6772" data-name="Path 6772" d="M-2494.215,1743.559l-3.414,7.333-1.165-3.2,2.225-4.78A9.378,9.378,0,0,0-2494.215,1743.559Z" transform="translate(2502.448 -1724.386)" fill="#fff" stroke="#eb2127" stroke-miterlimit="10" stroke-width="1.7"/>
      <path id="Path_6773" data-name="Path 6773" d="M-2473.608,1742.909l2.225,4.78-1.165,3.2-3.414-7.333A9.38,9.38,0,0,0-2473.608,1742.909Z" transform="translate(2487.005 -1724.386)" fill="#fff" stroke="#eb2127" stroke-miterlimit="10" stroke-width="1.7"/>
    </g>
    <g id="Group_6210" data-name="Group 6210" transform="translate(-2531.817 1566.284)">
      <path id="Path_6774" data-name="Path 6774" d="M-2462.287,1587.571h17.015v3.4h-17.015Z" transform="translate(2481.003 -1587.571)" fill="#fff" stroke="#eb2127" stroke-miterlimit="10" stroke-width="1.7"/>
      <path id="Path_6775" data-name="Path 6775" d="M-2520.115,1619.114h54.447v3.4h-54.447Z" transform="translate(2520.115 -1608.905)" fill="#fff" stroke="#eb2127" stroke-miterlimit="10" stroke-width="1.7"/>
      <path id="Path_6776" data-name="Path 6776" d="M-2520.115,1650.657h54.447v3.4h-54.447Z" transform="translate(2520.115 -1630.239)" fill="#fff" stroke="#eb2127" stroke-miterlimit="10" stroke-width="1.7"/>
    </g>
    <g id="Group_6215" data-name="Group 6215" transform="translate(-2500.771 1597.588)">
      <g id="Group_6211" data-name="Group 6211">
        <path id="Path_6777" data-name="Path 6777" d="M-2413.754,1711.7l-10.437-7.063v-20.339h20.873v20.339Zm9.633-7.493h0Z" transform="translate(2424.191 -1684.294)" fill="#fff" stroke="#eb2127" stroke-miterlimit="10" stroke-width="1.7"/>
      </g>
      <g id="Group_6214" data-name="Group 6214" transform="translate(4.131 5.833)">
        <g id="Group_6213" data-name="Group 6213" transform="translate(0 0)">
          <path id="Path_6779" data-name="Path 6779" d="M-2401.226,1705.984l-3.9-2.049-3.9,2.049.744-4.34-3.152-3.073,4.356-.633,1.949-3.949,1.949,3.949,4.357.633-3.152,3.073Z" transform="translate(2411.428 -1693.988)" fill="#fff" stroke="#eb2127" stroke-miterlimit="10" stroke-width="1.7"/>
        </g>
      </g>
    </g>
  </g>
</svg>
