<svg xmlns="http://www.w3.org/2000/svg" width="101.165" height="67.726" viewBox="0 0 101.165 67.726">
  <g id="Group_5085" data-name="Group 5085" transform="translate(-626.293 -962.221)">
    <path id="Path_4501" data-name="Path 4501" d="M687.716,980.139l1.782,30.225,2.387,1.091a28.6,28.6,0,0,0,10.813,2.135h3.944v-33.45Z" transform="translate(-31.195 -8.588)" fill="none" stroke="#fff" stroke-miterlimit="10" stroke-width="1.9"/>
    <path id="Path_4502" data-name="Path 4502" d="M767.852,996.675a28.63,28.63,0,0,0,13.045-3.807l3.415-1.972.548.949L773.93,963.57l-17.167,9.284,10.942,24.01Z" transform="translate(-66.983 0)" fill="none" stroke="#fff" stroke-miterlimit="10" stroke-width="1.9"/>
    <path id="Path_4503" data-name="Path 4503" d="M627.532,1076.549l6.994,1.819h40.922v3.215H634.341l-6.808-1.766Z" transform="translate(0 -58.559)" fill="none" stroke="#fff" stroke-miterlimit="10" stroke-width="1.9"/>
    <path id="Path_4504" data-name="Path 4504" d="M740.949,1069.072l6.964-1.926,35.424-20.488,1.609,2.784-35.584,20.579-6.779,1.88Z" transform="translate(-58.786 -43.066)" fill="none" stroke="#fff" stroke-miterlimit="10" stroke-width="1.9"/>
    <path id="Path_4505" data-name="Path 4505" d="M675.448,1060.92v-14.807H671.5a28.62,28.62,0,0,1-13.2-3.226l-15.238,6.294a8.363,8.363,0,0,1-3.2.632l-3.084,0a8.426,8.426,0,0,0-7.96,5.629l-1.289,3.664,6.994,1.819Z" transform="translate(0 -41.111)" fill="none" stroke="#fff" stroke-miterlimit="10" stroke-width="1.9"/>
    <path id="Path_4506" data-name="Path 4506" d="M782.77,1033.124l-7.4-12.824-3.415,1.972a28.627,28.627,0,0,1-13.045,3.807l-10.051,13.069a8.346,8.346,0,0,1-2.454,2.148l-2.673,1.538a8.426,8.426,0,0,0-4.079,8.855l.714,3.818,6.967-1.922Z" transform="translate(-58.038 -29.404)" fill="none" stroke="#fff" stroke-miterlimit="10" stroke-width="1.9"/>
    <line id="Line_310" data-name="Line 310" x2="5.032" y2="3.181" transform="translate(651.49 1004.59)" fill="none" stroke="#fff" stroke-miterlimit="10" stroke-width="1.9"/>
    <line id="Line_311" data-name="Line 311" x2="5.032" y2="3.181" transform="translate(647.36 1006.181)" fill="none" stroke="#fff" stroke-miterlimit="10" stroke-width="1.9"/>
    <line id="Line_312" data-name="Line 312" x2="5.747" y2="1.551" transform="translate(696.303 1002.856)" fill="none" stroke="#fff" stroke-miterlimit="10" stroke-width="1.9"/>
    <line id="Line_313" data-name="Line 313" x2="5.747" y2="1.551" transform="translate(693.791 1006.078)" fill="none" stroke="#fff" stroke-miterlimit="10" stroke-width="1.9"/>
  </g>
</svg>
