<svg xmlns="http://www.w3.org/2000/svg" width="104.469" height="80.019" viewBox="0 0 104.469 80.019">
  <g id="Group_6333" data-name="Group 6333" transform="translate(-1327.95 -1682.657)">
    <path id="Path_7096" data-name="Path 7096" d="M1459.184,1770.576l2.782-40.761h-50.06l2.669,39.108,4.886,11.095a9.711,9.711,0,0,1-3.318,11.877l.119,1.752h41.346l.15-2.195a9.7,9.7,0,0,1-2.733-11.435Z" transform="translate(-57.059 -31.822)" fill="none" stroke="#fff" stroke-miterlimit="10" stroke-width="1.7"/>
    <g id="Group_6324" data-name="Group 6324" transform="translate(1354.848 1683.507)">
      <path id="Path_7097" data-name="Path 7097" d="M1457.61,1683.507h-41.346a4.357,4.357,0,0,0-4.357,4.357v2.466h50.06v-2.466a4.357,4.357,0,0,0-4.357-4.357Z" transform="translate(-1411.908 -1683.507)" fill="none" stroke="#fff" stroke-miterlimit="10" stroke-width="1.7"/>
    </g>
    <g id="Group_6325" data-name="Group 6325" transform="translate(1347.823 1690.329)">
      <path id="Path_7098" data-name="Path 7098" d="M1449.729,1712.98h-56.445a3.832,3.832,0,0,1,0-7.664h56.445a3.832,3.832,0,0,1,0,7.664Z" transform="translate(-1389.452 -1705.316)" fill="none" stroke="#fff" stroke-miterlimit="10" stroke-width="1.7"/>
    </g>
    <path id="Path_7099" data-name="Path 7099" d="M1498.877,1775.138a.79.79,0,0,1,1-.569l4.788,1.47-5.269-9.109a1.582,1.582,0,0,0-1.369-.789h-3.652L1492,1770.31l5.676,9.794Z" transform="translate(-112.096 -56.784)" fill="none" stroke="#fff" stroke-miterlimit="10" stroke-width="1.7"/>
    <g id="Group_6326" data-name="Group 6326" transform="translate(1339.684 1722.307)">
      <path id="Path_7100" data-name="Path 7100" d="M1370.81,1809.884l4.119-2.238a.841.841,0,0,1,1.13,1.16l-2.38,4.124h-7.745l-2.38-4.124a.841.841,0,0,1,1.13-1.16l4.119,2.238a2.106,2.106,0,0,0,2.008,0Z" transform="translate(-1363.435 -1807.54)" fill="none" stroke="#fff" stroke-miterlimit="10" stroke-width="1.7"/>
    </g>
    <g id="Group_6327" data-name="Group 6327" transform="translate(1407.88 1722.307)">
      <path id="Path_7101" data-name="Path 7101" d="M1588.81,1809.884l4.119-2.238a.841.841,0,0,1,1.13,1.16l-2.38,4.124h-7.745l-2.381-4.124a.841.841,0,0,1,1.13-1.16l4.119,2.238a2.106,2.106,0,0,0,2.008,0Z" transform="translate(-1581.435 -1807.54)" fill="none" stroke="#fff" stroke-miterlimit="10" stroke-width="1.7"/>
    </g>
    <path id="Path_7102" data-name="Path 7102" d="M1362.4,1850.426l-5.173-11.746a11.962,11.962,0,0,0-6.576-6.406,1.318,1.318,0,0,1-.984.443h-7.229a1.318,1.318,0,0,1-.984-.443,11.964,11.964,0,0,0-6.577,6.406l-5.173,11.746a9.715,9.715,0,0,0,8.891,13.63h14.914A9.715,9.715,0,0,0,1362.4,1850.426Z" transform="translate(0 -102.229)" fill="none" stroke="#fff" stroke-miterlimit="10" stroke-width="1.7"/>
    <g id="Group_6328" data-name="Group 6328" transform="translate(1409.372 1727.833)">
      <path id="Path_7103" data-name="Path 7103" d="M1587.531,1827.86h7.23a1.327,1.327,0,1,0,0-2.655h-7.23a1.327,1.327,0,1,0,0,2.655Z" transform="translate(-1586.204 -1825.205)" fill="none" stroke="#fff" stroke-miterlimit="10" stroke-width="1.7"/>
    </g>
    <g id="Group_6329" data-name="Group 6329" transform="translate(1341.113 1727.833)">
      <path id="Path_7104" data-name="Path 7104" d="M1376.558,1827.86h-7.229a1.327,1.327,0,1,1,0-2.655h7.229a1.327,1.327,0,1,1,0,2.655Z" transform="translate(-1368.001 -1825.205)" fill="none" stroke="#fff" stroke-miterlimit="10" stroke-width="1.7"/>
    </g>
    <path id="Path_7105" data-name="Path 7105" d="M1580.606,1850.426l-5.173-11.746a11.964,11.964,0,0,0-6.577-6.406,1.316,1.316,0,0,1-.983.443h-7.23a1.319,1.319,0,0,1-.984-.443,11.964,11.964,0,0,0-6.577,6.406l-5.173,11.746a9.715,9.715,0,0,0,8.891,13.63h14.914A9.715,9.715,0,0,0,1580.606,1850.426Z" transform="translate(-149.944 -102.229)" fill="none" stroke="#fff" stroke-miterlimit="10" stroke-width="1.7"/>
    <path id="Path_7106" data-name="Path 7106" d="M1442.024,1803.544a.79.79,0,0,1-.986-.555l-1.293-4.863-5.178,8.889a1.582,1.582,0,0,0-.016,1.563l1.841,3.316h4.773l5.667-9.76Z" transform="translate(-72.483 -78.763)" fill="none" stroke="#fff" stroke-miterlimit="10" stroke-width="1.7"/>
    <g id="Group_6330" data-name="Group 6330" transform="translate(1384.818 1717.75)">
      <path id="Path_7107" data-name="Path 7107" d="M1520.6,1803.614l-3.18-5.981,1.3-.778a.79.79,0,0,0-.175-1.433l-7.864-2.415a.791.791,0,0,0-1,.569l-1.939,8a.79.79,0,0,0,1.161.872l1.353-.777,6.142,10.772,4.179-7.3A1.582,1.582,0,0,0,1520.6,1803.614Z" transform="translate(-1507.714 -1792.971)" fill="none" stroke="#fff" stroke-miterlimit="10" stroke-width="1.7"/>
    </g>
    <path id="Path_7108" data-name="Path 7108" d="M1502.633,1842.136h-11.475l3.593,3.475a.789.789,0,0,1,0,1.134l-3.67,3.574h10.623a1.581,1.581,0,0,0,1.372-.8l1.887-3.3Z" transform="translate(-111.468 -109.006)" fill="none" stroke="#fff" stroke-miterlimit="10" stroke-width="1.7"/>
    <g id="Group_6331" data-name="Group 6331" transform="translate(1363.909 1730.859)">
      <path id="Path_7109" data-name="Path 7109" d="M1440.873,1837.146l4.235,7.389a1.58,1.58,0,0,0,1.371.794h6.719v1.421a.79.79,0,0,0,1.342.566l5.709-5.561a.79.79,0,0,0,0-1.134l-5.71-5.523a.791.791,0,0,0-1.34.568v1.48Z" transform="translate(-1440.873 -1834.875)" fill="none" stroke="#fff" stroke-miterlimit="10" stroke-width="1.7"/>
    </g>
    <g id="Group_6332" data-name="Group 6332" transform="translate(1366.286 1709.357)">
      <path id="Path_7110" data-name="Path 7110" d="M1464.464,1766.141h-8.634a1.58,1.58,0,0,0-1.379.808l-3.17,5.658-1.633-.92a.79.79,0,0,0-1.152.892l2.241,8.43a.79.79,0,0,0,.986.555l8.144-2.389a.79.79,0,0,0,.181-1.438l-1.643-.974Z" transform="translate(-1448.47 -1766.141)" fill="none" stroke="#fff" stroke-miterlimit="10" stroke-width="1.7"/>
    </g>
  </g>
</svg>
