<svg xmlns="http://www.w3.org/2000/svg" width="69.602" height="67.593" viewBox="0 0 69.602 67.593">
  <g id="Group_6313" data-name="Group 6313" transform="translate(697.305 -1016.73)">
    <path id="Path_7043" data-name="Path 7043" d="M-518.729,1179.24h-5.446c-.027,0-.052.006-.079.008a7.184,7.184,0,0,1,.079,1.007,7.185,7.185,0,0,1-.079,1.007c.026,0,.052.008.079.008h5.446a1.015,1.015,0,0,0,1.016-1.015A1.016,1.016,0,0,0-518.729,1179.24Z" transform="translate(-110.64 -103.874)" fill="none" stroke="#fff" stroke-miterlimit="10" stroke-width="1.3"/>
    <path id="Path_7044" data-name="Path 7044" d="M-545.82,1153.451a7.166,7.166,0,0,1,1.007.079c0-.026.008-.052.008-.079v-4.832h-2.031v4.832c0,.027.006.053.008.079A7.175,7.175,0,0,1-545.82,1153.451Z" transform="translate(-96.148 -84.223)" fill="none" stroke="#fff" stroke-miterlimit="10" stroke-width="1.3"/>
    <g id="Group_6305" data-name="Group 6305" transform="translate(-644.443 1073.91)">
      <path id="Path_7045" data-name="Path 7045" d="M-548.435,1180.123a2.473,2.473,0,0,0,2.471-2.475,2.47,2.47,0,0,0-2.471-2.471,2.473,2.473,0,0,0-2.476,2.471A2.476,2.476,0,0,0-548.435,1180.123Z" transform="translate(550.911 -1175.176)" fill="none" stroke="#fff" stroke-miterlimit="10" stroke-width="1.3"/>
    </g>
    <path id="Path_7046" data-name="Path 7046" d="M-688.386,1017.38h-7.253a1.015,1.015,0,0,0-1.015,1.015,1.015,1.015,0,0,0,1.015,1.016h7.617Z" fill="none" stroke="#fff" stroke-miterlimit="10" stroke-width="1.3"/>
    <g id="Group_6306" data-name="Group 6306" transform="translate(-686.982 1017.38)">
      <path id="Path_7047" data-name="Path 7047" d="M-661.318,1034.788l-2.7-15.087a2.508,2.508,0,0,0-2.322-2.321h-3.312a2.5,2.5,0,0,1,2.322,2.321l2.705,15.087Z" transform="translate(669.653 -1017.38)" fill="none" stroke="#fff" stroke-miterlimit="10" stroke-width="1.3"/>
    </g>
    <g id="Group_6307" data-name="Group 6307" transform="translate(-681.056 1039.804)">
      <path id="Path_7048" data-name="Path 7048" d="M-648.1,1089.472l-1.7-9.5h-3.312l1.666,10.016A17.173,17.173,0,0,1-648.1,1089.472Z" transform="translate(653.113 -1079.973)" fill="none" stroke="#fff" stroke-miterlimit="10" stroke-width="1.3"/>
    </g>
    <path id="Path_7049" data-name="Path 7049" d="M-654.024,1089.472l-1.7-9.5h-6.62l1.988,11.087A17.092,17.092,0,0,1-654.024,1089.472Z" transform="translate(-22.017 -40.169)" fill="none" stroke="#fff" stroke-miterlimit="10" stroke-width="1.3"/>
    <g id="Group_6308" data-name="Group 6308" transform="translate(-687.692 1053.881)">
      <path id="Path_7050" data-name="Path 7050" d="M-646.444,1131.863a12.593,12.593,0,0,0-12.6-12.6,12.593,12.593,0,0,0-12.6,12.6,12.6,12.6,0,0,0,12.6,12.6A12.6,12.6,0,0,0-646.444,1131.863Z" transform="translate(671.635 -1119.268)" fill="none" stroke="#fff" stroke-miterlimit="10" stroke-width="1.3"/>
    </g>
    <g id="Group_6309" data-name="Group 6309" transform="translate(-679.957 1061.615)">
      <path id="Path_7051" data-name="Path 7051" d="M-645.183,1150.579a4.866,4.866,0,0,1-4.861-4.861,4.866,4.866,0,0,1,4.861-4.861,4.866,4.866,0,0,1,4.861,4.861A4.866,4.866,0,0,1-645.183,1150.579Zm0-7.691a2.833,2.833,0,0,0-2.83,2.83,2.833,2.833,0,0,0,2.83,2.83,2.833,2.833,0,0,0,2.83-2.83A2.833,2.833,0,0,0-645.183,1142.888Z" transform="translate(650.044 -1140.857)" fill="none" stroke="#fff" stroke-miterlimit="10" stroke-width="1.3"/>
    </g>
    <path id="Path_7052" data-name="Path 7052" d="M-670.453,1034.788h6.619l-2.7-15.087a2.508,2.508,0,0,0-2.322-2.321h-4.717l3.12,17.408Z" transform="translate(-14.812)" fill="none" stroke="#fff" stroke-miterlimit="10" stroke-width="1.3"/>
    <path id="Path_7053" data-name="Path 7053" d="M-573.68,1072.142a1.011,1.011,0,0,0,.207.021h2.138a1.942,1.942,0,0,1,1.94,1.94v10.857h2.031V1074.1a3.975,3.975,0,0,0-3.97-3.97h-2.138a1.021,1.021,0,0,0-.208.021,2.482,2.482,0,0,1,.208.994A2.486,2.486,0,0,1-573.68,1072.142Z" transform="translate(-78.919 -33.855)" fill="none" stroke="#fff" stroke-miterlimit="10" stroke-width="1.3"/>
    <g id="Group_6310" data-name="Group 6310" transform="translate(-692.293 1049.279)">
      <path id="Path_7054" data-name="Path 7054" d="M-652.458,1114.9a17.3,17.3,0,0,0-7.1-6.647,17.117,17.117,0,0,0-7.726-1.827q-.478,0-.944.023a17.1,17.1,0,0,0-6.336,1.589,17.194,17.194,0,0,0-9.917,15.585,17.2,17.2,0,0,0,17.2,17.2,17.2,17.2,0,0,0,17.2-17.2,17.753,17.753,0,0,0-.123-2.08A17.119,17.119,0,0,0-652.458,1114.9Zm-14.825-3.872a12.594,12.594,0,0,1,12.6,12.6,12.6,12.6,0,0,1-12.6,12.6,12.6,12.6,0,0,1-12.6-12.6,12.594,12.594,0,0,1,12.6-12.6Z" transform="translate(684.48 -1106.423)" fill="none" stroke="#fff" stroke-miterlimit="10" stroke-width="1.3"/>
    </g>
    <path id="Path_7055" data-name="Path 7055" d="M-595.094,1130.076a17.117,17.117,0,0,1,2.249,6.643h17.07v-6.643Z" transform="translate(-65.177 -72.323)" fill="none" stroke="#fff" stroke-miterlimit="10" stroke-width="1.3"/>
    <g id="Group_6311" data-name="Group 6311" transform="translate(-688.306 1034.788)">
      <path id="Path_7056" data-name="Path 7056" d="M-662.788,1070.988h22.846a2.515,2.515,0,0,0,2.506-2.51,2.514,2.514,0,0,0-2.506-2.506h-30.9a2.514,2.514,0,0,0-2.506,2.506,2.515,2.515,0,0,0,2.506,2.51h8.055Z" transform="translate(673.349 -1065.973)" fill="none" stroke="#fff" stroke-miterlimit="10" stroke-width="1.3"/>
    </g>
    <path id="Path_7057" data-name="Path 7057" d="M-591.809,1111.522h-23.1a17.3,17.3,0,0,1,7.1,6.647h19.319v-3.331A3.326,3.326,0,0,0-591.809,1111.522Z" transform="translate(-52.459 -60.416)" fill="none" stroke="#fff" stroke-miterlimit="10" stroke-width="1.3"/>
    <g id="Group_6312" data-name="Group 6312" transform="translate(-649.125 1069.228)">
      <path id="Path_7058" data-name="Path 7058" d="M-549.669,1169.26a7.156,7.156,0,0,0-7.154-7.153,7.157,7.157,0,0,0-7.157,7.153,7.157,7.157,0,0,0,7.157,7.157,7.157,7.157,0,0,0,7.154-7.157Z" transform="translate(563.98 -1162.107)" fill="none" stroke="#fff" stroke-miterlimit="10" stroke-width="1.3"/>
    </g>
  </g>
</svg>
