<svg xmlns="http://www.w3.org/2000/svg" width="81.121" height="79.242" viewBox="0 0 81.121 79.242">
  <g id="Group_6236" data-name="Group 6236" transform="translate(1383.726 -2752.178)">
    <path id="Path_6898" data-name="Path 6898" d="M-1356.661,2878.049a4,4,0,0,1,1.339.229v-7.332l-2.678-1.533v8.865A4,4,0,0,1-1356.661,2878.049Z" transform="translate(-19.983 -96.927)" fill="none" stroke="#fff" stroke-miterlimit="10" stroke-width="1.5"/>
    <path id="Path_6899" data-name="Path 6899" d="M-1305.12,3092.538a2.619,2.619,0,0,1,.79,1.888,2.686,2.686,0,0,1-2.678,2.678h-62.939A12.052,12.052,0,0,1-1382,3085.052,12.052,12.052,0,0,1-1369.948,3073h62.939a2.7,2.7,0,0,1,2.678,2.678,2.686,2.686,0,0,1-2.678,2.678h-1.339v13.391h1.339A2.619,2.619,0,0,1-1305.12,3092.538Z" transform="translate(0 -266.435)" fill="none" stroke="#fff" stroke-miterlimit="10" stroke-width="1.5"/>
    <path id="Path_6900" data-name="Path 6900" d="M-1268.383,3105v13.391H-1327.3a6.7,6.7,0,0,1-6.7-6.7,6.7,6.7,0,0,1,6.7-6.7Z" transform="translate(-39.965 -293.078)" fill="none" stroke="#fff" stroke-miterlimit="10" stroke-width="1.5"/>
    <path id="Path_6901" data-name="Path 6901" d="M-1343.165,2761.035a22.772,22.772,0,0,1,22.253,17.95l16.581-8.576L-1343.165,2753-1382,2770.409l16.582,8.576A22.772,22.772,0,0,1-1343.165,2761.035Z" fill="none" stroke="#fff" stroke-miterlimit="10" stroke-width="1.5"/>
    <g id="Group_6235" data-name="Group 6235" transform="translate(-1365.93 2761.035)">
      <path id="Path_6902" data-name="Path 6902" d="M-1142.578,2865.347a22.73,22.73,0,0,1-3.388,24.091l-5.3-1.326-4.017,2.678h-5.356v-4.018l-5.357-2.678,1.339-8.035,4.017-2.678,6.7-2.678,4.017-4.018,5.611-4.486A20.018,20.018,0,0,1-1142.578,2865.347Z" transform="translate(1186.087 -2851.955)" fill="none" stroke="#fff" stroke-miterlimit="10" stroke-width="1.5"/>
      <path id="Path_6903" data-name="Path 6903" d="M-1209.116,2805.793l-3.241,3.241-4.017,1.339-2.678,4.018-8.035-1.339-5.356-2.679-5.316-3.99A22.72,22.72,0,0,1-1209.116,2805.793Z" transform="translate(1245.835 -2800.999)" fill="none" stroke="#fff" stroke-miterlimit="10" stroke-width="1.5"/>
      <path id="Path_6904" data-name="Path 6904" d="M-1268.591,2898.339l1.339,5.356-2.678,1.339-5.356,5.356v12.615A22.72,22.72,0,0,1-1286,2903.7a22.493,22.493,0,0,1,.857-6.187l5.839.831,5.356-1.339Z" transform="translate(1286 -2880.93)" fill="none" stroke="#fff" stroke-miterlimit="10" stroke-width="1.5"/>
    </g>
    <path id="Path_6905" data-name="Path 6905" d="M-1037.965,3145v4.018l-4.017-2.009-4.017,2.009V3145Z" transform="translate(-279.756 -326.382)" fill="none" stroke="#fff" stroke-miterlimit="10" stroke-width="1.5"/>
    <path id="Path_6906" data-name="Path 6906" d="M-1294,3129h54.9v2.678H-1294Z" transform="translate(-73.27 -313.061)" fill="none" stroke="#fff" stroke-miterlimit="10" stroke-width="1.5"/>
    <ellipse id="Ellipse_227" data-name="Ellipse 227" cx="23" cy="22.5" rx="23" ry="22.5" transform="translate(-1366.161 2760.831)" fill="none" stroke="#fff" stroke-miterlimit="10" stroke-width="1.5"/>
    <path id="Path_6907" data-name="Path 6907" d="M-1369.983,2921a4.017,4.017,0,0,1,4.018,4.017v4.017H-1374v-4.017A4.017,4.017,0,0,1-1369.983,2921Z" transform="translate(-6.661 -139.878)" fill="none" stroke="#fff" stroke-miterlimit="10" stroke-width="1.5"/>
  </g>
</svg>
