<?xml version="1.0" encoding="utf-8"?>
<!-- Generator: Adobe Illustrator 16.0.0, SVG Export Plug-In . SVG Version: 6.00 Build 0)  -->
<!DOCTYPE svg PUBLIC "-//W3C//DTD SVG 1.1//EN" "http://www.w3.org/Graphics/SVG/1.1/DTD/svg11.dtd">
<svg version="1.1" id="Layer_1" xmlns="http://www.w3.org/2000/svg" xmlns:xlink="http://www.w3.org/1999/xlink" x="0px" y="0px"
	 width="136px" height="136px" viewBox="0 0 136 136" enable-background="new 0 0 136 136" xml:space="preserve">
<g id="Group_8523" transform="translate(24614 -3721)">
	<g id="Group_8520" transform="translate(-327.999 171)">
		<g id="Group_8519" transform="translate(-24249 3577)">
			<path id="Path_65160" fill="none" stroke="#EC2227" stroke-width="2.3201" d="M52.4,37.349h21.306
				c-0.055-0.177-0.081-0.361-0.085-0.546V18.032c0.001-0.263,0.055-0.521,0.153-0.764H51.525c1.065,1.992,1.621,4.217,1.619,6.476
				v9.167C53.142,34.422,52.892,35.921,52.4,37.349z"/>
			<path id="Path_65161" fill="none" stroke="#EC2227" stroke-width="2.3201" d="M11.553,23.74c-0.003-2.26,0.554-4.484,1.62-6.477
				h-0.41C5.519,16.976-1.56,19.471-7.021,24.237c-3.909,3.606-8.567,10.349-8.567,21.987v9.631c0.29-0.157,0.615-0.242,0.945-0.244
				H4.128c0.122,0.002,0.244,0.014,0.364,0.039v-9.426c0-2.411,0.363-5.623,2.102-7.225c1.472-1.096,3.26-1.688,5.095-1.686
				l0.596,0.025c-0.485-1.426-0.732-2.922-0.732-4.428V23.74z"/>
			<path id="Path_65162" fill="none" stroke="#EC2227" stroke-width="2.3201" d="M36.504,5.892v-17.519
				c-2.079,2.346-5.668,2.56-8.013,0.48c-0.097-0.086-0.191-0.175-0.282-0.268V5.892H36.504z"/>
			<path id="Rectangle_5781" fill="none" stroke="#EC2227" stroke-width="2.3201" d="M27.555,8.274h9.562
				c8.542,0,15.468,6.925,15.468,15.467v9.166c0,8.542-6.926,15.468-15.468,15.468h-9.562c-8.542,0-15.467-6.926-15.467-15.468
				v-9.166C12.088,15.199,19.013,8.274,27.555,8.274z"/>
			<path id="Path_65163" fill="#EC2227" d="M26.563,7.47h11.57c2.497,0.005,4.938,0.742,7.021,2.121
				c-1.341-3.171-4.445-5.236-7.889-5.245h-9.468c-3.312,0.008-6.323,1.925-7.733,4.921C22.029,8.094,24.275,7.473,26.563,7.47z"/>
			<path id="Path_65164" fill="none" stroke="#EC2227" stroke-width="2.3201" d="M26.729-15.011
				c-0.133,3.053,2.235,5.635,5.287,5.767c3.055,0.133,5.636-2.235,5.767-5.287c0.133-3.053-2.233-5.635-5.286-5.767
				c-0.082-0.003-0.16-0.005-0.241-0.005C29.269-20.367,26.795-17.997,26.729-15.011z"/>
			<path id="Path_65165" fill="none" stroke="#EC2227" stroke-width="2.3201" d="M50.245-15.742c0.003-1.311,0.396-2.591,1.13-3.676
				l-11.111,1.32c-1.253,0.18-2.338,0.277-3.229,0.432c1.007,1.642,0.998,3.711-0.025,5.344c0.814,0.174,1.831,0.309,3.094,0.487
				l12.481,1.139C51.107-11.957,50.254-13.799,50.245-15.742z"/>
			<path id="Path_65166" fill="none" stroke="#EC2227" stroke-width="2.3201" d="M50.248-15.737c0.172,3.933,3.503,6.98,7.437,6.807
				c3.689-0.163,6.644-3.118,6.808-6.807c-0.175-3.934-3.505-6.981-7.438-6.807C53.364-22.381,50.412-19.427,50.248-15.737z"/>
			<path id="Path_65167" fill="none" stroke="#EC2227" stroke-width="2.3201" d="M26.731-15.011
				c0.001-0.946,0.267-1.873,0.766-2.677c-0.864-0.14-1.901-0.238-3.094-0.407l-11.107-1.319c0.734,1.085,1.128,2.365,1.129,3.677
				c-0.009,1.942-0.864,3.785-2.341,5.045l12.48-1.14c1.192-0.167,2.166-0.298,2.955-0.464
				C27.006-13.109,26.733-14.049,26.731-15.011z"/>
			<path id="Path_65168" fill="none" stroke="#EC2227" stroke-width="2.3201" d="M14.429-15.737
				c-0.175,3.933-3.504,6.98-7.438,6.807c-3.689-0.163-6.643-3.118-6.807-6.807c0.174-3.934,3.503-6.981,7.437-6.807
				C11.311-22.381,14.265-19.427,14.429-15.737z"/>
			<path id="Path_65169" fill="none" stroke="#EC2227" stroke-width="2.3201" d="M-16.681,57.649c0,1.127,0.913,2.037,2.037,2.037
				l0,0H4.131c1.125,0,2.037-0.91,2.037-2.037l0,0l0,0c0-1.124-0.912-2.036-2.037-2.036l0,0h-18.775
				C-15.769,55.613-16.681,56.525-16.681,57.649L-16.681,57.649z"/>
			<path id="Path_65170" fill="none" stroke="#EC2227" stroke-width="2.3201" d="M75.664,38.839c1.126,0,2.038-0.911,2.038-2.036
				c0,0,0-0.001,0-0.001V18.028c0-1.126-0.91-2.038-2.036-2.038h-0.002l0,0c-1.125,0-2.036,0.912-2.036,2.038l0,0v18.773
				C73.628,37.927,74.539,38.839,75.664,38.839L75.664,38.839z"/>
		</g>
		<path id="Path_65171" fill="none" stroke="#EC2227" stroke-width="2.3201" d="M-24253.859,3646.662l-10.223,17.707
			c-3.26,5.646-1.324,12.866,4.32,16.126c5.646,3.26,12.865,1.324,16.125-4.321c2.109-3.652,2.109-8.152,0-11.805
			L-24253.859,3646.662z"/>
	</g>
</g>
</svg>
