<svg xmlns="http://www.w3.org/2000/svg" width="133.219" height="130.719" viewBox="0 0 133.219 130.719">
  <g id="Group_8481" data-name="Group 8481" transform="translate(2.5 1.25)">
    <g id="Path_65229" data-name="Path 65229" transform="translate(0 -60.682)" fill="none">
      <path d="M107.418,111.88h-.659a2.639,2.639,0,0,1-2.5-1.8A25.222,25.222,0,0,0,72.591,94.235a2.629,2.629,0,0,1-2.951-.991,29.282,29.282,0,0,0-53.129,16.992v.021a2.64,2.64,0,0,1-1.844,2.543A20.8,20.8,0,0,0,20.8,153.481H43.382a22.9,22.9,0,0,1,41.455,0h22.581a20.8,20.8,0,1,0,0-41.6Z" stroke="none"/>
      <path d="M 45.79212188720703 80.95498657226562 C 29.62053680419922 80.95498657226562 16.51117706298828 94.06484985351562 16.51117706298828 110.2362213134766 L 16.51117706298828 110.2572402954102 C 16.51191711425781 111.4194717407227 15.77792358398438 112.4577484130859 14.66726684570312 112.7998199462891 C 6.173027038574219 115.4170379638672 0 123.3275451660156 0 132.6807556152344 C 0 144.1686096191406 9.312629699707031 153.4814910888672 20.80048370361328 153.4814910888672 L 43.38175964355469 153.4814910888672 C 44.49541473388672 151.1031646728516 46.0252685546875 148.9114379882812 47.93753814697266 146.9994201660156 C 52.25715637207031 142.6798095703125 58.00019073486328 140.3007507324219 64.109375 140.3007507324219 C 70.21828460693359 140.3007507324219 75.96135711669922 142.6798095703125 80.28097534179688 146.9994201660156 C 82.19297790527344 148.9114379882812 83.72282409667969 151.1034240722656 84.83673858642578 153.4814910888672 L 107.4177551269531 153.4814910888672 C 118.9058685302734 153.4814910888672 128.2187347412109 144.1686096191406 128.2187347412109 132.6807556152344 C 128.2187347412109 121.1926574707031 118.9056091308594 111.8800048828125 107.4177551269531 111.8800048828125 L 106.7586517333984 111.8800048828125 C 105.6254501342773 111.8800048828125 104.6275024414062 111.1525115966797 104.2628860473633 110.079948425293 C 100.8858642578125 100.1457366943359 91.47955322265625 92.998291015625 80.40317535400391 92.998291015625 C 77.67601013183594 92.998291015625 75.050048828125 93.43252563476562 72.59059143066406 94.23464965820312 C 72.32698059082031 94.32063293457031 72.05758666992188 94.3619384765625 71.79133605957031 94.3619384765625 C 70.95404052734375 94.3619384765625 70.14681243896484 93.95382690429688 69.64006042480469 93.24394226074219 C 64.33050537109375 85.80528259277344 55.62841033935547 80.95498657226562 45.79212188720703 80.95498657226562 M 45.79212188720703 78.45498657226562 C 48.40892028808594 78.45498657226562 51.01170349121094 78.77421569824219 53.52817535400391 79.40382385253906 C 55.97303009033203 80.01551818847656 58.34506225585938 80.92193603515625 60.57839202880859 82.09786987304688 C 64.95686340332031 84.40336608886719 68.79397583007812 87.75538635253906 71.67488098144531 91.79153442382812 C 71.71195983886719 91.84347534179688 71.76078796386719 91.86192321777344 71.79133605957031 91.86192321777344 C 71.79939270019531 91.86192321777344 71.80680847167969 91.86067199707031 71.81537628173828 91.85787963867188 C 74.58155822753906 90.95573425292969 77.47090148925781 90.498291015625 80.40317535400391 90.498291015625 C 86.30375671386719 90.498291015625 91.93639373779297 92.32916259765625 96.692138671875 95.79298400878906 C 98.97979736328125 97.45918273925781 100.9934844970703 99.45759582519531 102.6772613525391 101.7327270507812 C 104.3814086914062 104.0353851318359 105.7112655639648 106.5730743408203 106.6298675537109 109.2753295898438 C 106.6514663696289 109.3389129638672 106.7020263671875 109.3800048828125 106.7586517333984 109.3800048828125 L 107.4177551269531 109.3800048828125 C 110.5622100830078 109.3800048828125 113.6139526367188 109.9963989257812 116.4882125854492 111.2120971679688 C 119.2631759643555 112.3857650756836 121.7548141479492 114.0654754638672 123.8939361572266 116.2045516967773 C 126.0330810546875 118.343635559082 127.7128448486328 120.8352584838867 128.8865814208984 123.6101837158203 C 130.102294921875 126.4844589233398 130.7187347412109 129.5362396240234 130.7187347412109 132.6807556152344 C 130.7187347412109 135.8252258300781 130.1023254394531 138.876953125 128.8866119384766 141.7511901855469 C 127.7129058837891 144.526123046875 126.0331573486328 147.0177459716797 123.8940505981445 149.1568298339844 C 121.7549362182617 151.2959289550781 119.2632827758789 152.9756774902344 116.4883422851562 154.1493682861328 C 113.6140441894531 155.3650817871094 110.5622634887695 155.9814910888672 107.4177551269531 155.9814910888672 L 84.83673858642578 155.9814910888672 L 83.24708557128906 155.9814910888672 L 82.57279205322266 154.5419464111328 C 81.56997680664062 152.4010314941406 80.20413970947266 150.4581298828125 78.51319885253906 148.7671813964844 C 74.66567993164062 144.919677734375 69.55030059814453 142.8007507324219 64.109375 142.8007507324219 C 58.66830444335938 142.8007507324219 53.55282592773438 144.919677734375 49.70529937744141 148.7671813964844 C 48.01390075683594 150.4583740234375 46.64813995361328 152.4011535644531 45.64582824707031 154.5416564941406 L 44.97162628173828 155.9814910888672 L 43.38175964355469 155.9814910888672 L 20.80048370361328 155.9814910888672 C 17.65602874755859 155.9814910888672 14.60430145263672 155.3650817871094 11.73006439208984 154.1493682861328 C 8.955177307128906 152.9756469726562 6.463577270507812 151.2959289550781 4.324501037597656 149.1568298339844 C 2.185447692871094 147.0177307128906 0.5057601928710938 144.5261077880859 -0.667938232421875 141.7511596679688 C -1.88360595703125 138.8769226074219 -2.5 135.8251953125 -2.5 132.6807556152344 C -2.5 130.11865234375 -2.086273193359375 127.5996017456055 -1.270294189453125 125.1935806274414 C -0.481292724609375 122.8670959472656 0.6688461303710938 120.6871871948242 2.148178100585938 118.7144393920898 C 3.610008239746094 116.765022277832 5.35919189453125 115.0627288818359 7.347137451171875 113.6548767089844 C 9.363189697265625 112.2270965576172 11.57837677001953 111.1355819702148 13.93112182617188 110.4106597900391 C 13.97766876220703 110.3963317871094 14.01123046875 110.3325119018555 14.01117706298828 110.2588424682617 L 14.01117706298828 110.2362213134766 C 14.01117706298828 105.9469299316406 14.85179138183594 101.7846069335938 16.50968170166016 97.8648681640625 C 18.11048126220703 94.080078125 20.40164947509766 90.68153381347656 23.31951904296875 87.76358032226562 C 26.23741149902344 84.84564208984375 29.63594055175781 82.55442810058594 33.42068481445312 80.95356750488281 C 37.34043121337891 79.29563903808594 41.50279235839844 78.45498657226562 45.79212188720703 78.45498657226562 Z" stroke="none" fill="#20ab60"/>
    </g>
    <g id="Group_8480" data-name="Group 8480" transform="translate(31.875 49.624)">
      <g id="Group_8476" data-name="Group 8476">
        <g id="Group_8475" data-name="Group 8475">
          <path id="Path_65230" data-name="Path 65230" d="M139.98,223.554a12.7,12.7,0,1,1,7.1-23.225,1.935,1.935,0,1,1-2.166,3.206,8.828,8.828,0,1,0-4.934,16.149,6.546,6.546,0,0,0,5.3-2.347,1.935,1.935,0,0,1,2.965,2.486,10.4,10.4,0,0,1-8.263,3.73Z" transform="translate(-127.283 -198.159)" fill="#20ab60"/>
        </g>
      </g>
      <g id="Group_8478" data-name="Group 8478" transform="translate(52.383 14.826)">
        <g id="Group_8477" data-name="Group 8477">
          <path id="Path_65231" data-name="Path 65231" d="M341.818,276.482c-2.962,0-3.189-.076-3.443-.161a2,2,0,0,1-1.3-1.319c-.325-1.058.156-1.688,1.114-2.942.758-.993,2.17-2.842,4.536-6.222a8.216,8.216,0,0,0,1.27-2.489l.042-.328a1.892,1.892,0,0,0-3.746-.267,1.935,1.935,0,0,1-3.8-.746,5.762,5.762,0,0,1,11.415,1.115,1.955,1.955,0,0,1-.016.245l-.074.578a1.878,1.878,0,0,1-.035.193,11.6,11.6,0,0,1-1.89,3.918c-1.4,1.993-2.466,3.466-3.271,4.55,1.223,0,2.629-.016,3.96-.033h.025a1.935,1.935,0,0,1,.024,3.87C344.513,276.471,342.962,276.482,341.818,276.482Z" transform="translate(-336.457 -257.361)" fill="#20ab60"/>
        </g>
      </g>
      <g id="Group_8479" data-name="Group 8479" transform="translate(24.035)">
        <path id="Path_65232" data-name="Path 65232" d="M235.955,223.554a12.7,12.7,0,1,1,12.7-12.7A12.712,12.712,0,0,1,235.955,223.554Zm0-21.525a8.828,8.828,0,1,0,8.828,8.828A8.837,8.837,0,0,0,235.955,202.029Z" transform="translate(-223.258 -198.159)" fill="#20ab60"/>
      </g>
    </g>
    <path id="Path_65233" data-name="Path 65233" d="M444.409,434.736a9.674,9.674,0,1,1-9.674,9.674A9.675,9.675,0,0,1,444.409,434.736Z" transform="translate(-325.866 -325.866)" fill="none" stroke="#20ab60" stroke-width="2.5"/>
    <path id="Path_65234" data-name="Path 65234" d="M9.675,0A9.675,9.675,0,1,1,0,9.675,9.675,9.675,0,0,1,9.675,0Z" fill="none" stroke="#20ab60" stroke-width="2.5"/>
    <path id="Path_65235" data-name="Path 65235" d="M203.716,324.632a22.87,22.87,0,1,0,6.7,16.172A22.72,22.72,0,0,0,203.716,324.632Zm-29.607,2.736a19,19,0,0,1,25.433-1.3L172.81,352.8a19,19,0,0,1,1.3-25.433Zm26.871,26.871a19.027,19.027,0,0,1-25.433,1.3l26.733-26.732a19,19,0,0,1-1.3,25.433Z" transform="translate(-123.435 -238.314)" fill="#20ab60"/>
  </g>
</svg>
