<svg xmlns="http://www.w3.org/2000/svg" width="124.3" height="124.355" viewBox="0 0 124.3 124.355">
  <g id="Group_8469" data-name="Group 8469" transform="translate(-372.506 215.008)">
    <path id="Path_65215" data-name="Path 65215" d="M417.374-125.084c-12.043-12.043-27.183,9.988-27.183,9.988l5.642-1.728L383.518-102.3l8.109-2.179L378.106-85.816l18.666-13.52-2.18,8.109,14.521-12.317L407.385-97.9S429.417-113.04,417.374-125.084Z" transform="translate(0 -10.436)" fill="#fff" stroke="#f69421" stroke-miterlimit="10" stroke-width="2.5"/>
    <path id="Path_65216" data-name="Path 65216" d="M417.374-124.58,378.106-85.312l18.666-13.52-2.18,8.109,14.521-12.317L407.385-97.4S429.417-112.536,417.374-124.58Z" transform="translate(0 -10.939)" fill="#fff" stroke="#f69421" stroke-miterlimit="10" stroke-width="2.5"/>
    <path id="Path_65217" data-name="Path 65217" d="M421.862-158.313l-29.686-5,15.6-15.6,29.686,5Z" transform="translate(-1.727 -4.27)" fill="#fff" stroke="#f69421" stroke-miterlimit="10" stroke-width="2.5"/>
    <path id="Path_65218" data-name="Path 65218" d="M453.72-129.909l5,29.686,15.6-15.6-5-29.686Z" transform="translate(-9.281 -8.371)" fill="#fff" stroke="#f69421" stroke-miterlimit="10" stroke-width="2.5"/>
    <path id="Path_65219" data-name="Path 65219" d="M488.958-177.024c9.8-16.89,10.683-36.676,10.683-36.677s-19.786.883-36.677,10.683a53.163,53.163,0,0,0-10.952,8.31l-36.764,36.764c-5.573,5.572-5.712,15.743,3.591,25.046s19.472,9.164,25.046,3.591l36.764-36.764A53.162,53.162,0,0,0,488.958-177.024Z" transform="translate(-4.085)" fill="#fff" stroke="#f69421" stroke-miterlimit="10" stroke-width="2.5"/>
    <path id="Path_65220" data-name="Path 65220" d="M506.858-213.7s-19.786.883-36.677,10.683l13,13,13,13C505.976-193.914,506.858-213.7,506.858-213.7Z" transform="translate(-11.302)" fill="#fff" stroke="#f69421" stroke-miterlimit="10" stroke-width="2.5"/>
    <path id="Path_65221" data-name="Path 65221" d="M429.566-135.823l-14.318-14.319c-5.573,5.572-5.713,15.743,3.591,25.046s19.473,9.164,25.046,3.591Z" transform="translate(-4.085 -7.802)" fill="#fff" stroke="#f69421" stroke-miterlimit="10" stroke-width="2.5"/>
    <path id="Path_65222" data-name="Path 65222" d="M444.927-119.5,430.608-133.82l-10.727,10.727C429.184-113.79,439.354-113.929,444.927-119.5Z" transform="translate(-5.128 -9.805)" fill="#fff" stroke="#f69421" stroke-miterlimit="10" stroke-width="2.5"/>
    <path id="Path_65223" data-name="Path 65223" d="M466.995-180.674a9.351,9.351,0,0,1,9.351,9.352,9.35,9.35,0,0,1-9.351,9.351,9.35,9.35,0,0,1-9.351-9.351A9.351,9.351,0,0,1,466.995-180.674Z" transform="translate(-9.763 -4.054)" fill="#fff" stroke="#f69421" stroke-miterlimit="10" stroke-width="2.5"/>
    <path id="Path_65224" data-name="Path 65224" d="M443.686-151.218h0L419.409-133.9l-17.315,24.277h0l24.278-17.315Z" transform="translate(-2.944 -7.67)" fill="#fff" stroke="#f69421" stroke-miterlimit="10" stroke-width="2.5"/>
  </g>
</svg>
