<svg xmlns="http://www.w3.org/2000/svg" width="140.269" height="140.166" viewBox="0 0 140.269 140.166">
  <g id="Group_8467" data-name="Group 8467" transform="translate(-13.722 -550.095)">
    <path id="Path_65150" data-name="Path 65150" d="M98.124,611.308l3.3-6.317,2.211-4.222,3.308-6.322,2.178-4.161c.011-.02.02-.041.032-.062a10.915,10.915,0,0,1,1.469-2.113c.011-.2.023-.4.023-.6a10.958,10.958,0,0,0-21.807-1.53l-.014.1-.667,4.712-1,7.079-.668,4.712-1,7.082-.667,4.714-1.593,11.25h7.4l5.284-10.1Z" transform="translate(-8.328 -3.077)" fill="none" stroke="#f69421" stroke-miterlimit="10" stroke-width="2.5"/>
    <path id="Path_65151" data-name="Path 65151" d="M80.976,608.407l1-7.082.668-4.712,1-7.079.421-2.97c-.1-.108-.2-.218-.306-.32a6.037,6.037,0,0,1-1.337-6.7,10.251,10.251,0,0,0-5-13.289c-12.446,2.987-23.172,11.283-30.3,22.717a6.031,6.031,0,0,1-.047,4.6,10.255,10.255,0,0,0,3.068,12.1,6.251,6.251,0,0,1,2.153,6.722,10.21,10.21,0,0,0-.227,4.942c.427,2.138,2.251,4.588,4.69,7.033h21.96l1.593-11.25Z" transform="translate(-3.813 -1.82)" fill="none" stroke="#f69421" stroke-miterlimit="10" stroke-width="2.5"/>
    <g id="Group_8462" data-name="Group 8462" transform="translate(34.062 598.831)">
      <path id="Path_65152" data-name="Path 65152" d="M51.13,617.178a6.251,6.251,0,0,0-2.153-6.722,10.232,10.232,0,0,1-3.433-5.01,10.222,10.222,0,0,0-5.686,1.392,64.1,64.1,0,0,0-3.147,19.943c0,.8.018,1.586.047,2.373H55.593c-2.439-2.445-4.263-4.9-4.69-7.033A10.21,10.21,0,0,1,51.13,617.178Z" transform="translate(-36.712 -605.433)" fill="none" stroke="#f69421" stroke-miterlimit="10" stroke-width="2.5"/>
    </g>
    <path id="Path_65153" data-name="Path 65153" d="M50.912,564.882a2.738,2.738,0,0,1,.1.4,59.676,59.676,0,0,1,17.435-10.3,10.252,10.252,0,0,0-17.533,9.9Z" transform="translate(-4.318 -0.001)" fill="none" stroke="#f69421" stroke-miterlimit="10" stroke-width="2.5"/>
    <path id="Path_65154" data-name="Path 65154" d="M35.913,577.628l-.015.014a2.612,2.612,0,0,1-3.591.091A10.257,10.257,0,1,0,20.6,594.359a2.679,2.679,0,0,1,1.252,3.446l-.011.021a10.209,10.209,0,0,0,.251,8.632A10.355,10.355,0,0,1,24.119,606c-.2.879-.381,1.767-.551,2.66h0a71.479,71.479,0,0,1,15.8-33.207A10.243,10.243,0,0,0,35.913,577.628Z" transform="translate(-0.011 -2.888)" fill="none" stroke="#f69421" stroke-miterlimit="10" stroke-width="2.5"/>
    <path id="Path_65155" data-name="Path 65155" d="M121.664,598.053l-2.569,3.99-8.851-5.7,2.178-4.161c.011-.02.02-.041.032-.062Z" transform="translate(-11.625 -4.977)" fill="none" stroke="#f69421" stroke-miterlimit="10" stroke-width="2.5"/>
    <path id="Path_65156" data-name="Path 65156" d="M114.575,609.564,112,613.552l-8.041-5.195,2.211-4.222Z" transform="translate(-10.858 -6.443)" fill="none" stroke="#f69421" stroke-miterlimit="10" stroke-width="2.5"/>
    <path id="Path_65157" data-name="Path 65157" d="M107.489,621.073l-2.585,3.982-7.227-4.691,2.211-4.225Z" transform="translate(-10.091 -7.908)" fill="none" stroke="#f69421" stroke-miterlimit="10" stroke-width="2.5"/>
    <path id="Path_65158" data-name="Path 65158" d="M146.62,645.969,146,650.716l-.308,2.373-.62,4.747-.929,7.122-.617,4.746-.929,7.121-.62,4.747-.32,2.457a18.986,18.986,0,0,1-18.828,16.532H46.986a18.97,18.97,0,0,1-18.828-16.532l-.32-2.457-.62-4.747-.929-7.121-.617-4.746-.929-7.122-.62-4.747-.308-2.373-.621-4.747Z" transform="translate(-1 -11.549)" fill="none" stroke="#f69421" stroke-miterlimit="10" stroke-width="2.5"/>
    <g id="Group_8463" data-name="Group 8463" transform="translate(23.123 641.54)">
      <path id="Path_65159" data-name="Path 65159" d="M82.672,654.079h18.989v4.747H82.672Z" transform="translate(-31.382 -654.079)" fill="none" stroke="#f69421" stroke-miterlimit="10" stroke-width="2.5"/>
      <path id="Path_65160" data-name="Path 65160" d="M50.23,654.079H69.218v4.747H50.23Z" transform="translate(-27.423 -654.079)" fill="none" stroke="#f69421" stroke-miterlimit="10" stroke-width="2.5"/>
      <path id="Path_65161" data-name="Path 65161" d="M37.565,654.079v4.747H24.872l-.62-4.747Z" transform="translate(-24.252 -654.079)" fill="none" stroke="#f69421" stroke-miterlimit="10" stroke-width="2.5"/>
      <path id="Path_65162" data-name="Path 65162" d="M115.115,654.079H134.1v4.747H115.115Z" transform="translate(-35.342 -654.079)" fill="none" stroke="#f69421" stroke-miterlimit="10" stroke-width="2.5"/>
      <path id="Path_65163" data-name="Path 65163" d="M160.87,654.079l-.62,4.747H147.558v-4.747Z" transform="translate(-39.302 -654.079)" fill="none" stroke="#f69421" stroke-miterlimit="10" stroke-width="2.5"/>
      <path id="Path_65164" data-name="Path 65164" d="M82.672,667.6h18.989v4.746H82.672Z" transform="translate(-31.382 -655.729)" fill="none" stroke="#f69421" stroke-miterlimit="10" stroke-width="2.5"/>
      <path id="Path_65165" data-name="Path 65165" d="M50.23,667.6H69.218v4.746H50.23Z" transform="translate(-27.423 -655.729)" fill="none" stroke="#f69421" stroke-miterlimit="10" stroke-width="2.5"/>
      <path id="Path_65166" data-name="Path 65166" d="M37.78,667.6v4.746H26.633l-.617-4.746Z" transform="translate(-24.467 -655.729)" fill="none" stroke="#f69421" stroke-miterlimit="10" stroke-width="2.5"/>
      <path id="Path_65167" data-name="Path 65167" d="M115.115,667.6H134.1v4.746H115.115Z" transform="translate(-35.342 -655.729)" fill="none" stroke="#f69421" stroke-miterlimit="10" stroke-width="2.5"/>
      <path id="Path_65168" data-name="Path 65168" d="M159.322,667.6l-.617,4.746H147.558V667.6Z" transform="translate(-39.302 -655.729)" fill="none" stroke="#f69421" stroke-miterlimit="10" stroke-width="2.5"/>
      <path id="Path_65169" data-name="Path 65169" d="M82.672,681.115h18.989v4.747H82.672Z" transform="translate(-31.382 -657.379)" fill="none" stroke="#f69421" stroke-miterlimit="10" stroke-width="2.5"/>
      <path id="Path_65170" data-name="Path 65170" d="M50.23,681.115H69.218v4.747H50.23Z" transform="translate(-27.423 -657.379)" fill="none" stroke="#f69421" stroke-miterlimit="10" stroke-width="2.5"/>
      <path id="Path_65171" data-name="Path 65171" d="M38,681.115v4.747H28.4l-.62-4.747Z" transform="translate(-24.682 -657.379)" fill="none" stroke="#f69421" stroke-miterlimit="10" stroke-width="2.5"/>
      <path id="Path_65172" data-name="Path 65172" d="M115.115,681.115H134.1v4.747H115.115Z" transform="translate(-35.342 -657.379)" fill="none" stroke="#f69421" stroke-miterlimit="10" stroke-width="2.5"/>
      <path id="Path_65173" data-name="Path 65173" d="M157.776,681.115H147.558v4.747h9.6Z" transform="translate(-39.302 -657.379)" fill="none" stroke="#f69421" stroke-miterlimit="10" stroke-width="2.5"/>
      <path id="Path_65174" data-name="Path 65174" d="M82.672,694.633h18.989v4.747H82.672Z" transform="translate(-31.382 -659.029)" fill="none" stroke="#f69421" stroke-miterlimit="10" stroke-width="2.5"/>
      <path id="Path_65175" data-name="Path 65175" d="M50.23,694.633H69.218v4.747H50.23Z" transform="translate(-27.423 -659.029)" fill="none" stroke="#f69421" stroke-miterlimit="10" stroke-width="2.5"/>
      <path id="Path_65176" data-name="Path 65176" d="M38.3,694.633v4.747H33.023a19.043,19.043,0,0,1-2.782-4.747Z" transform="translate(-24.983 -659.029)" fill="none" stroke="#f69421" stroke-miterlimit="10" stroke-width="2.5"/>
      <path id="Path_65177" data-name="Path 65177" d="M115.115,694.633H134.1v4.747H115.115Z" transform="translate(-35.342 -659.029)" fill="none" stroke="#f69421" stroke-miterlimit="10" stroke-width="2.5"/>
      <path id="Path_65178" data-name="Path 65178" d="M155.612,694.633a19.019,19.019,0,0,1-2.783,4.747h-5.271v-4.747Z" transform="translate(-39.302 -659.029)" fill="none" stroke="#f69421" stroke-miterlimit="10" stroke-width="2.5"/>
    </g>
    <g id="Group_8464" data-name="Group 8464" transform="translate(116.429 601.981)">
      <path id="Path_65179" data-name="Path 65179" d="M148.559,629.591V617.145a8.124,8.124,0,0,0-8.124-8.124h-1.78a8.124,8.124,0,0,0-8.125,8.123v12.447Z" transform="translate(-130.53 -609.021)" fill="none" stroke="#f69421" stroke-miterlimit="10" stroke-width="2.5"/>
    </g>
    <path id="Path_65180" data-name="Path 65180" d="M130.16,612.436a8.339,8.339,0,0,0-6.775-3.414,8.074,8.074,0,0,0-8.155,9.295l1.946,11.275h11.473V617.144A8.088,8.088,0,0,1,130.16,612.436Z" transform="translate(-12.22 -7.04)" fill="none" stroke="#f69421" stroke-miterlimit="10" stroke-width="2.5"/>
    <path id="Path_65181" data-name="Path 65181" d="M125.492,582.807a10.866,10.866,0,0,1,4.281,1.576h0a10.912,10.912,0,0,1,3.269,3.177c.086.125.166.252.243.38h0L147.184,570.1l-6.026-3.794-6.024-3.794-10.085,20.236C125.2,582.766,125.344,582.785,125.492,582.807Z" transform="translate(-13.432 -1.363)" fill="none" stroke="#f69421" stroke-miterlimit="10" stroke-width="2.5"/>
    <path id="Path_65182" data-name="Path 65182" d="M100.461,565.38l-1.424,10.131a10.917,10.917,0,0,1,9.539,2.177l3.546-8.934A44.48,44.48,0,0,0,100.461,565.38Z" transform="translate(-10.257 -1.713)" fill="none" stroke="#f69421" stroke-miterlimit="10" stroke-width="2.5"/>
    <path id="Path_65183" data-name="Path 65183" d="M156.119,609.022a8.346,8.346,0,0,0-6.775,3.414,8.08,8.08,0,0,1,1.512,4.708v12.447H162.33l1.946-11.275A8.075,8.075,0,0,0,156.119,609.022Z" transform="translate(-16.397 -7.04)" fill="none" stroke="#f69421" stroke-miterlimit="10" stroke-width="2.5"/>
    <g id="Group_8465" data-name="Group 8465" transform="translate(122.143 573.991)">
      <path id="Path_65184" data-name="Path 65184" d="M150.063,612.021c.047-.051.1-.094.15-.144C150.165,611.926,150.11,611.97,150.063,612.021Z" transform="translate(-138.629 -581.379)" fill="none" stroke="#f69421" stroke-miterlimit="10" stroke-width="2.5"/>
      <path id="Path_65185" data-name="Path 65185" d="M151.965,610.476c-.046.029-.095.054-.14.082C151.87,610.53,151.919,610.5,151.965,610.476Z" transform="translate(-138.844 -581.208)" fill="none" stroke="#f69421" stroke-miterlimit="10" stroke-width="2.5"/>
      <path id="Path_65186" data-name="Path 65186" d="M151.045,611.125c-.049.039-.1.075-.151.115C150.942,611.2,151,611.164,151.045,611.125Z" transform="translate(-138.73 -581.287)" fill="none" stroke="#f69421" stroke-miterlimit="10" stroke-width="2.5"/>
      <path id="Path_65187" data-name="Path 65187" d="M144.557,577.139l-7.518,9.654a57.547,57.547,0,0,1,3.286,5.044,16.906,16.906,0,0,1,11.219-4.114v5.8c-5.1,0-6.981,4.151-5.35,8.439h.08a4.735,4.735,0,0,1,4.672,4c-.012.005-.024.014-.037.02a8.448,8.448,0,0,1,7.642.112A71.452,71.452,0,0,0,144.557,577.139Z" transform="translate(-137.039 -577.139)" fill="none" stroke="#f69421" stroke-miterlimit="10" stroke-width="2.5"/>
    </g>
    <g id="Group_8466" data-name="Group 8466" transform="translate(82.301 581.329)">
      <path id="Path_65188" data-name="Path 65188" d="M128.647,603.006a11.114,11.114,0,0,0,.751-1.163,17.581,17.581,0,0,1,1.259-3.54,10.943,10.943,0,0,0-1.442-7.556c-.077-.128-.157-.255-.243-.38a10.913,10.913,0,0,0-3.269-3.177h0a10.867,10.867,0,0,0-4.281-1.576c-.148-.023-.3-.041-.445-.06a10.966,10.966,0,0,0-10.785,5.762c-.012.021-.021.042-.032.062l-2.178,4.161-3.308,6.322-2.211,4.222-3.3,6.317-2.211,4.225-5.284,10.1h19.266l2.753-3.684-1.31-7.591a8.074,8.074,0,0,1,8.155-9.295,8.446,8.446,0,0,1,3.674.833A4.725,4.725,0,0,1,128.647,603.006Z" transform="translate(-91.658 -585.497)" fill="none" stroke="#f69421" stroke-miterlimit="10" stroke-width="2.5"/>
      <path id="Path_65189" data-name="Path 65189" d="M129.218,610.256c.169.093.341.181.5.285C129.559,610.438,129.387,610.349,129.218,610.256Z" transform="translate(-96.242 -588.519)" fill="none" stroke="#f69421" stroke-miterlimit="10" stroke-width="2.5"/>
    </g>
    <path id="Path_65190" data-name="Path 65190" d="M121.072,564.418a57.265,57.265,0,0,0-36.164-13.073c-34.083,0-61.713,30.818-61.713,68.833,0,.794.017,1.586.04,2.373H35.109c-.028-.787-.047-1.578-.047-2.373,0-31.462,22.316-56.966,49.845-56.966a45.849,45.849,0,0,1,30.723,12.126Z" transform="translate(-1)" fill="none" stroke="#f69421" stroke-miterlimit="10" stroke-width="2.5"/>
    <path id="Path_65191" data-name="Path 65191" d="M152.751,638.385a5.937,5.937,0,0,1-5.934,5.934H21.018a5.934,5.934,0,1,1,0-11.868h125.8a5.934,5.934,0,0,1,5.934,5.93Z" transform="translate(-0.01 -9.899)" fill="none" stroke="#f69421" stroke-miterlimit="10" stroke-width="2.5"/>
    <path id="Path_65192" data-name="Path 65192" d="M100.165,589.727l-1.011,4.637-10.307-2.249.667-4.712Z" transform="translate(-9.014 -4.401)" fill="none" stroke="#f69421" stroke-miterlimit="10" stroke-width="2.5"/>
    <path id="Path_65193" data-name="Path 65193" d="M87.615,600.833l9.72,2.112-1.006,4.638-9.382-2.039Z" transform="translate(-8.782 -6.04)" fill="none" stroke="#f69421" stroke-miterlimit="10" stroke-width="2.5"/>
    <path id="Path_65194" data-name="Path 65194" d="M94.507,616.166l-1,4.64-8.458-1.824.667-4.714Z" transform="translate(-8.549 -7.68)" fill="none" stroke="#f69421" stroke-miterlimit="10" stroke-width="2.5"/>
    <path id="Path_65195" data-name="Path 65195" d="M81.55,610.737l.221-1.565.411-2.9-2.326-1.551-6.48,9.716-2.3-11.522,9.115-13.666-3.949-2.635-6.479,9.716-1.9-9.51,7.506-11.252-3.95-2.635-4.87,7.3-1.539-7.71a49.03,49.03,0,0,0-4.257,2.924l1.141,5.716-4.425-2.951q-1.78,1.621-3.423,3.422l9.162,6.111,1.9,9.512-9.714-6.479-2.634,3.95,13.663,9.112,2.3,11.524-9.714-6.479-2.635,3.949,13.663,9.113.637,3.187h4.841l-.823-4.117Z" transform="translate(-4.609 -2.585)" fill="none" stroke="#f69421" stroke-miterlimit="10" stroke-width="2.5"/>
    <path id="Path_65196" data-name="Path 65196" d="M150.529,595v-5.8a16.89,16.89,0,0,0-16.856,14.242h-.283a4.736,4.736,0,0,0-4.672,4,8.213,8.213,0,0,1,3.114,2.591,8.084,8.084,0,0,1,6.6-3.43h1.78a8.109,8.109,0,0,1,6.613,3.415,8.223,8.223,0,0,1,3.1-2.576,4.735,4.735,0,0,0-4.672-4h-.08C143.547,599.148,145.432,595,150.529,595Z" transform="translate(-13.88 -4.62)" fill="none" stroke="#f69421" stroke-miterlimit="10" stroke-width="2.5"/>
    <path id="Path_65197" data-name="Path 65197" d="M20.2,629.416c.227.129.466.228.7.338.037,0,.073-.005.111-.005h1.226c-.024-.788-.04-1.578-.04-2.373a76.5,76.5,0,0,1,1.914-17.062,10.248,10.248,0,0,0-3.911,19.1Z" transform="translate(0 -7.197)" fill="none" stroke="#f69421" stroke-miterlimit="10" stroke-width="2.5"/>
  </g>
</svg>
