<svg xmlns="http://www.w3.org/2000/svg" width="116.506" height="109.625" viewBox="0 0 116.506 109.625">
  <g id="Group_8500" data-name="Group 8500" transform="translate(-440.495 -198.085)">
    <path id="Path_65391" data-name="Path 65391" d="M504.129,199.335H476.6a6.88,6.88,0,0,0-6.882,6.882v17.2H476.6V209.657h27.526v13.764h6.881v-17.2A6.88,6.88,0,0,0,504.129,199.335Z" transform="translate(8.382 0)" fill="#fff" stroke="#f69421" stroke-miterlimit="10" stroke-width="2.5"/>
    <path id="Path_65392" data-name="Path 65392" d="M444.392,242.049V279.9a13.764,13.764,0,0,0,13.763,13.763h79.6A13.763,13.763,0,0,0,551.516,279.9V242.049Z" transform="translate(0.793 12.798)" fill="#fff" stroke="#f69421" stroke-miterlimit="10" stroke-width="2.5"/>
    <path id="Path_65393" data-name="Path 65393" d="M536.167,242.049h-86.48V279.9a6.881,6.881,0,0,0,6.881,6.882h79.6a6.881,6.881,0,0,0,6.882-6.882V242.049Z" transform="translate(2.38 12.798)" fill="#fff" stroke="#f69421" stroke-miterlimit="10" stroke-width="2.5"/>
    <path id="Path_65394" data-name="Path 65394" d="M548.87,212.572H448.627a6.882,6.882,0,0,0-6.882,6.883v31.426a13.763,13.763,0,0,0,13.763,13.763h26.036l17.2-3.441,17.2,3.441h26.036a13.763,13.763,0,0,0,13.763-13.763V219.455A6.882,6.882,0,0,0,548.87,212.572Z" transform="translate(0 3.966)" fill="#fff" stroke="#f69421" stroke-miterlimit="10" stroke-width="2.5"/>
    <path id="Path_65395" data-name="Path 65395" d="M495.661,249.991H475.016v24.086h27.527V249.991Z" transform="translate(9.969 15.178)" fill="#fff" stroke="#f69421" stroke-miterlimit="10" stroke-width="2.5"/>
    <path id="Path_65396" data-name="Path 65396" d="M499.9,247.344H472.368v6.881h34.408v-6.881Z" transform="translate(9.176 14.385)" fill="#fff" stroke="#f69421" stroke-miterlimit="10" stroke-width="2.5"/>
  </g>
</svg>
