<svg xmlns="http://www.w3.org/2000/svg" width="119.955" height="119.955" viewBox="0 0 119.955 119.955">
  <g id="Group_8502" data-name="Group 8502" transform="translate(-201.477 -397.975)">
    <path id="Path_65397" data-name="Path 65397" d="M278.468,471.613h46.98v7.326h-46.98Z" transform="translate(-17.014 -16.261)" fill="#fff" stroke="#f69421" stroke-miterlimit="10" stroke-width="2.5"/>
    <path id="Path_65398" data-name="Path 65398" d="M274.931,521.946h15.186a.976.976,0,0,1,.923,1.3,7.83,7.83,0,1,0,14.76,0,.976.976,0,0,1,.925-1.3h13.228a1.957,1.957,0,0,0,1.958-1.958V506.76a.977.977,0,0,0-1.3-.923,7.83,7.83,0,1,1,0-14.761.976.976,0,0,0,1.3-.924V474.966H306.724a.976.976,0,0,0-.923,1.3,7.83,7.83,0,1,1-14.76,0,.976.976,0,0,0-.924-1.3H274.931l-12.21,8.586v26.467Z" transform="translate(-13.476 -17.014)" fill="#fff" stroke="#f69421" stroke-miterlimit="10" stroke-width="2.5"/>
    <path id="Path_65399" data-name="Path 65399" d="M214.475,471.383v15.186a.976.976,0,0,1-1.3.922,7.83,7.83,0,1,0,0,14.761.976.976,0,0,1,1.3.924V516.4a1.957,1.957,0,0,0,1.957,1.957H229.66a.976.976,0,0,0,.923-1.3,7.83,7.83,0,1,1,14.761,0,.976.976,0,0,0,.924,1.3h15.185V503.176a.976.976,0,0,0-1.3-.922,7.83,7.83,0,1,1,0-14.761.976.976,0,0,0,1.3-.924V471.383l-12.446-12.367h-22.45Z" transform="translate(0 -13.431)" fill="#fff" stroke="#f69421" stroke-miterlimit="10" stroke-width="2.5"/>
    <path id="Path_65401" data-name="Path 65401" d="M264.857,410.972H249.671a.976.976,0,0,1-.923-1.3,7.829,7.829,0,1,0-14.76,0,.976.976,0,0,1-.924,1.3H219.835a1.957,1.957,0,0,0-1.957,1.957v13.228a.976.976,0,0,0,1.3.923,7.83,7.83,0,1,1,0,14.762.975.975,0,0,0-1.3.923v15.186h15.185a.976.976,0,0,0,.923-1.3,7.83,7.83,0,1,1,14.761,0,.976.976,0,0,0,.923,1.3h15.186L276.85,439.7v-11.4Z" transform="translate(-3.403 0)" fill="#fff" stroke="#f69421" stroke-miterlimit="10" stroke-width="2.5"/>
    <path id="Path_65402" data-name="Path 65402" d="M309.764,465.9a7.835,7.835,0,0,0-.424-3.242.976.976,0,0,1,.923-1.3h15.185V446.169a.976.976,0,0,1,1.3-.923,7.83,7.83,0,1,0,0-14.761.975.975,0,0,1-1.3-.923V416.332a1.958,1.958,0,0,0-1.958-1.957H310.262a.976.976,0,0,0-.923,1.3,7.83,7.83,0,1,1-14.761,0,.975.975,0,0,0-.924-1.3H278.468V429.56a.976.976,0,0,0,1.3.923,7.83,7.83,0,1,1,0,14.761.976.976,0,0,0-1.3.924v15.186h15.186a.976.976,0,0,1,.924,1.3,7.831,7.831,0,1,0,15.185,3.245Z" transform="translate(-17.014 -3.403)" fill="#fff" stroke="#f69421" stroke-miterlimit="10" stroke-width="2.5"/>
  </g>
</svg>
