<svg xmlns="http://www.w3.org/2000/svg" width="105.104" height="128.492" viewBox="0 0 105.104 128.492">
  <g id="Group_8474" data-name="Group 8474" transform="translate(-8.75 -7.677)">
    <g id="Group_8474-2" data-name="Group 8474" transform="translate(10 10)">
      <path id="Path_65225" data-name="Path 65225" d="M156.651,367.42c0,7.082-5.743,13.595-12.825,13.595S131,374.5,131,367.42,143.825,341,143.825,341,156.651,360.338,156.651,367.42Z" transform="translate(-99.963 -256.096)" fill="none" stroke="#20ab60" stroke-miterlimit="10" stroke-width="2.5"/>
      <path id="Path_65226" data-name="Path 65226" d="M40.781,206.781a15.39,15.39,0,1,1-30.781,0C10,198.28,25.39,176,25.39,176S40.781,198.28,40.781,206.781Z" transform="translate(-10 -133.42)" fill="none" stroke="#20ab60" stroke-miterlimit="10" stroke-width="2.5"/>
      <path id="Path_65227" data-name="Path 65227" d="M246.432,69.766a28.216,28.216,0,1,1-56.432,0C190,54.184,218.216,10,218.216,10S246.432,54.184,246.432,69.766Z" transform="translate(-143.829 -10)" fill="none" stroke="#20ab60" stroke-miterlimit="10" stroke-width="2.5"/>
    </g>
    <path id="Path_65228" data-name="Path 65228" d="M313.086,235.565a2.565,2.565,0,1,0-5.13,0,15.407,15.407,0,0,1-15.39,15.39,2.565,2.565,0,1,0,0,5.13A20.544,20.544,0,0,0,313.086,235.565Z" transform="translate(-208.178 -165.799)" fill="#20ab60"/>
  </g>
</svg>
