<svg xmlns="http://www.w3.org/2000/svg" width="144.433" height="80.563" viewBox="0 0 144.433 80.563">
  <g id="Group_8367" data-name="Group 8367" transform="translate(1.25 1.25)">
    <path id="Path_24328" data-name="Path 24328" d="M1560.553,1439.7l-10.25-24.6a7.077,7.077,0,0,0-6.55-4.367h-117.49a7.1,7.1,0,0,0-7.1,7.1v52.042a7.1,7.1,0,0,0,7.1,7.1H1554a7.1,7.1,0,0,0,7.1-7.1v-27.44A7.016,7.016,0,0,0,1560.553,1439.7Z" transform="translate(-1419.166 -1410.727)" fill="#fff" stroke="#20ab60" stroke-miterlimit="10" stroke-width="2.5"/>
    <rect id="Rectangle_4945" data-name="Rectangle 4945" width="23.655" height="54.408" transform="translate(59.139 11.828)" fill="#fff" stroke="#20ab60" stroke-miterlimit="10" stroke-width="2.5"/>
    <g id="Group_7940" data-name="Group 7940" transform="translate(14.193 14.193)">
      <path id="Path_24329" data-name="Path 24329" d="M1739.222,1461.971h-23.656v-14.194H1733.2Z" transform="translate(-1616.213 -1447.777)" fill="#fff" stroke="#20ab60" stroke-miterlimit="10" stroke-width="2.5"/>
      <rect id="Rectangle_4946" data-name="Rectangle 4946" width="14.193" height="14.194" fill="#fff" stroke="#20ab60" stroke-miterlimit="10" stroke-width="2.5"/>
    </g>
    <g id="Group_7941" data-name="Group 7941" transform="translate(21.29 49.677)">
      <path id="Path_24330" data-name="Path 24330" d="M1488.934,1540.4h0a14.193,14.193,0,0,1,14.193,14.194h0a14.192,14.192,0,0,1-14.193,14.193h0a14.192,14.192,0,0,1-14.193-14.193h0A14.193,14.193,0,0,1,1488.934,1540.4Z" transform="translate(-1474.741 -1540.402)" fill="#fff" stroke="#20ab60" stroke-miterlimit="10" stroke-width="2.5"/>
      <path id="Path_24331" data-name="Path 24331" d="M1674.184,1540.4h0a14.193,14.193,0,0,1,14.194,14.194h0a14.192,14.192,0,0,1-14.194,14.193h0a14.192,14.192,0,0,1-14.193-14.193h0A14.193,14.193,0,0,1,1674.184,1540.4Z" transform="translate(-1589.024 -1540.402)" fill="#fff" stroke="#20ab60" stroke-miterlimit="10" stroke-width="2.5"/>
    </g>
    <g id="Group_7942" data-name="Group 7942" transform="translate(30.752 59.139)">
      <path id="Path_24332" data-name="Path 24332" d="M1504.172,1565.1h0a4.73,4.73,0,0,1,4.732,4.731h0a4.73,4.73,0,0,1-4.732,4.731h0a4.73,4.73,0,0,1-4.732-4.731h0A4.73,4.73,0,0,1,1504.172,1565.1Z" transform="translate(-1499.44 -1565.103)" fill="#fff" stroke="#20ab60" stroke-miterlimit="10" stroke-width="2.5"/>
      <path id="Path_24333" data-name="Path 24333" d="M1689.422,1565.1h0a4.73,4.73,0,0,1,4.731,4.731h0a4.73,4.73,0,0,1-4.731,4.731h0a4.73,4.73,0,0,1-4.731-4.731h0A4.73,4.73,0,0,1,1689.422,1565.1Z" transform="translate(-1613.724 -1565.103)" fill="#fff" stroke="#20ab60" stroke-miterlimit="10" stroke-width="2.5"/>
    </g>
    <g id="Group_7943" data-name="Group 7943" transform="translate(0 37.849)">
      <rect id="Rectangle_4947" data-name="Rectangle 4947" width="59.139" height="4.731" fill="#fff" stroke="#20ab60" stroke-miterlimit="10" stroke-width="2.5"/>
      <rect id="Rectangle_4948" data-name="Rectangle 4948" width="59.139" height="4.731" transform="translate(82.794)" fill="#fff" stroke="#20ab60" stroke-miterlimit="10" stroke-width="2.5"/>
    </g>
    <rect id="Rectangle_4949" data-name="Rectangle 4949" width="14.193" height="14.194" transform="translate(33.118 14.193)" fill="#fff" stroke="#20ab60" stroke-miterlimit="10" stroke-width="2.5"/>
    <rect id="Rectangle_4950" data-name="Rectangle 4950" width="14.193" height="14.194" transform="translate(94.622 14.193)" fill="#fff" stroke="#20ab60" stroke-miterlimit="10" stroke-width="2.5"/>
  </g>
</svg>
