<svg xmlns="http://www.w3.org/2000/svg" width="113.09" height="86.731" viewBox="0 0 113.09 86.731">
  <g id="Group_8293" data-name="Group 8293" transform="translate(1.25 1.25)">
    <path id="Path_24196" data-name="Path 24196" d="M-2194.253-430.482h9.415a2.734,2.734,0,0,0,2.734-2.734v-3.358a2.734,2.734,0,0,0-2.734-2.734h-6.68a2.734,2.734,0,0,0-2.734,2.734Z" transform="translate(2292.695 468.326)" fill="#fff" stroke="#6a70b1" stroke-miterlimit="10" stroke-width="2.5"/>
    <path id="Path_24197" data-name="Path 24197" d="M-2969.5-430.482h-9.414a2.734,2.734,0,0,1-2.735-2.734v-3.358a2.734,2.734,0,0,1,2.735-2.734h6.68a2.734,2.734,0,0,1,2.734,2.734Z" transform="translate(2981.653 468.326)" fill="#fff" stroke="#6a70b1" stroke-miterlimit="10" stroke-width="2.5"/>
    <path id="Path_24198" data-name="Path 24198" d="M-2683.964-655.159h-40.061a3.527,3.527,0,0,0-3.526,3.527v8.407h47.114v-8.407A3.526,3.526,0,0,0-2683.964-655.159Z" transform="translate(2759.32 657.191)" fill="#fff" stroke="#6a70b1" stroke-miterlimit="10" stroke-width="2.5"/>
    <path id="Path_24199" data-name="Path 24199" d="M-2563.662-658.411h-5.7a1.064,1.064,0,0,1-1.064-1.064v-10.87a1.064,1.064,0,0,1,1.064-1.064h5.7a1.064,1.064,0,0,1,1.064,1.064v10.87A1.064,1.064,0,0,1-2563.662-658.411Z" transform="translate(2621.835 671.409)" fill="#fff" stroke="#6a70b1" stroke-miterlimit="10" stroke-width="2.5"/>
    <path id="Path_24200" data-name="Path 24200" d="M-2806-568.937a5.72,5.72,0,0,0,.41-4.425l-6.959-21.925a9.092,9.092,0,0,0-8.7-6.366h-57.022a9.093,9.093,0,0,0-8.7,6.366l-6.827,21.511a6.714,6.714,0,0,0,.516,5.279c.023.042.037.066.038.067,3.608,5.443,83.354,5.444,86.962,0C-2806.275-568.43-2806.163-568.638-2806-568.937Z" transform="translate(2905.058 610.374)" fill="#fff" stroke="#6a70b1" stroke-miterlimit="10" stroke-width="2.5"/>
    <path id="Path_24201" data-name="Path 24201" d="M-2805.361-522.411c-20.85,0-33.969-1.321-38.016-2.426a1.731,1.731,0,0,1,.07-.348l6.6-20.8a3.939,3.939,0,0,1,3.769-2.759h55.139a3.939,3.939,0,0,1,3.769,2.758l6.709,21.139c-4,1.107-17.13,2.436-38.035,2.436Z" transform="translate(2860.665 564.08)" fill="#fff" stroke="#6a70b1" stroke-miterlimit="10" stroke-width="2.5"/>
    <g id="Group_7606" data-name="Group 7606" transform="translate(9.34 70.549)">
      <path id="Path_24202" data-name="Path 24202" d="M-2906.64-107.1c-.1,0-.2,0-.3-.008v9.143a4.539,4.539,0,0,0,4.539,4.539h6.729a4.539,4.539,0,0,0,4.54-4.539V-107.1Z" transform="translate(2906.945 107.111)" fill="#fff" stroke="#6a70b1" stroke-miterlimit="10" stroke-width="2.5"/>
      <path id="Path_24203" data-name="Path 24203" d="M-2282.726-107.1h-15.5v9.135a4.539,4.539,0,0,0,4.539,4.539h6.729a4.539,4.539,0,0,0,4.539-4.539v-9.143C-2282.522-107.106-2282.624-107.1-2282.726-107.1Z" transform="translate(2374.331 107.111)" fill="#fff" stroke="#6a70b1" stroke-miterlimit="10" stroke-width="2.5"/>
    </g>
    <path id="Path_24204" data-name="Path 24204" d="M-2853.777-352.951h-91.3a5.8,5.8,0,0,1-5.8-5.8V-373.39c0-6.99,5.667-15.026,12.656-15.026h77.583c6.989,0,12.655,8.036,12.655,15.026v14.642A5.8,5.8,0,0,1-2853.777-352.951Z" transform="translate(2954.723 423.796)" fill="#fff" stroke="#6a70b1" stroke-miterlimit="10" stroke-width="2.5"/>
    <g id="Group_7607" data-name="Group 7607" transform="translate(12.556 53.112)">
      <path id="Path_24205" data-name="Path 24205" d="M-2879.46-246.57l11.076,1.343a1.575,1.575,0,0,1,1.25.924l2.565,5.783a1.574,1.574,0,0,1-1.606,2.2l-12.023-1.289a1.574,1.574,0,0,1-1.349-1.144l-1.619-5.837A1.574,1.574,0,0,1-2879.46-246.57Z" transform="translate(2881.224 246.582)" fill="#fff" stroke="#6a70b1" stroke-miterlimit="10" stroke-width="2.5"/>
      <path id="Path_24206" data-name="Path 24206" d="M-2316.323-246.57l-11.076,1.343a1.574,1.574,0,0,0-1.249.924l-2.566,5.783a1.574,1.574,0,0,0,1.606,2.2l12.023-1.289a1.573,1.573,0,0,0,1.348-1.144l1.619-5.837A1.574,1.574,0,0,0-2316.323-246.57Z" transform="translate(2400.097 246.582)" fill="#fff" stroke="#6a70b1" stroke-miterlimit="10" stroke-width="2.5"/>
    </g>
    <path id="Path_24207" data-name="Path 24207" d="M-2663.6-230.873h-35.948a2.378,2.378,0,0,1-2.3-2.97l1.375-5.353a2.378,2.378,0,0,1,2.3-1.787h33.2a2.377,2.377,0,0,1,2.3,1.787l1.375,5.353A2.378,2.378,0,0,1-2663.6-230.873Z" transform="translate(2736.904 294.795)" fill="#fff" stroke="#6a70b1" stroke-miterlimit="10" stroke-width="2.5"/>
    <path id="Path_24208" data-name="Path 24208" d="M-2886.285-379.486a7.817,7.817,0,0,0,6.9,3.646h65.761a7.817,7.817,0,0,0,6.9-3.646l4.128-7.436a9.983,9.983,0,0,0-5.143-1.5h-77.583a9.974,9.974,0,0,0-5.1,1.469Z" transform="translate(2901.833 423.798)" fill="#fff" stroke="#6a70b1" stroke-miterlimit="10" stroke-width="2.5"/>
    <path id="Path_24209" data-name="Path 24209" d="M-2700.469-210.562h40.342l-.858-3.338h-38.626Z" transform="translate(2735.623 271.098)" fill="#fff" stroke="#6a70b1" stroke-miterlimit="10" stroke-width="2.5"/>
  </g>
</svg>
