<svg xmlns="http://www.w3.org/2000/svg" width="89.838" height="85.478" viewBox="0 0 89.838 85.478">
  <g id="Group_8368" data-name="Group 8368" transform="translate(0.85 0.828)">
    <g id="Group_6938" data-name="Group 6938" transform="translate(0 0)">
      <path id="Path_23234" data-name="Path 23234" d="M1482.525-940.295a27.439,27.439,0,0,1-27.441,27.439,27.439,27.439,0,0,1-27.437-27.439,27.439,27.439,0,0,1,27.437-27.439A27.44,27.44,0,0,1,1482.525-940.295Z" transform="translate(-1414.684 981.342)" fill="none" stroke="#ec2227" stroke-miterlimit="10" stroke-width="1.7"/>
      <path id="Path_23235" data-name="Path 23235" d="M1494.331-938.564a40.861,40.861,0,0,1,.444,6.018,40.4,40.4,0,0,1-40.4,40.4h-29.4" transform="translate(-1413.973 973.593)" fill="none" stroke="#ec2227" stroke-miterlimit="10" stroke-width="1.7"/>
      <path id="Path_23236" data-name="Path 23236" d="M1476.1-984.267A40.4,40.4,0,0,1,1499.92-969.4" transform="translate(-1427.554 985.734)" fill="none" stroke="#ec2227" stroke-miterlimit="10" stroke-width="1.7"/>
      <path id="Path_23237" data-name="Path 23237" d="M1427.172-911.94A40.352,40.352,0,0,1,1410-945a40.411,40.411,0,0,1,33.588-39.829,33.873,33.873,0,0,1,9.331-.5" transform="translate(-1409.995 986.05)" fill="none" stroke="#ec2227" stroke-miterlimit="10" stroke-width="1.7"/>
      <path id="Path_23238" data-name="Path 23238" d="M1480.04-980.068l-3.943-4.73,6.378-1.467" transform="translate(-1427.554 986.265)" fill="none" stroke="#ec2227" stroke-miterlimit="10" stroke-width="1.7"/>
      <path id="Path_65035" data-name="Path 65035" d="M0,0H21.688" transform="translate(60.543 81.448)" fill="none" stroke="#ec2227" stroke-width="1.7"/>
      <path id="Path_23239" data-name="Path 23239" d="M1515.751-878.692l4.568,2.452-4.568,2.451" transform="translate(-1438.088 957.689)" fill="none" stroke="#ec2227" stroke-miterlimit="10" stroke-width="1.7"/>
      <path id="Path_23240" data-name="Path 23240" d="M1522.59-955.763a10.263,10.263,0,0,1-10.263,10.263,10.263,10.263,0,0,1-10.263-10.263,10.262,10.262,0,0,1,10.263-10.262A10.262,10.262,0,0,1,1522.59-955.763Z" transform="translate(-1434.452 980.888)" fill="none" stroke="#ec2227" stroke-miterlimit="10" stroke-width="1.7"/>
      <path id="Path_65034" data-name="Path 65034" d="M0,0H8.287" transform="translate(73.732 25.125)" fill="none" stroke="#ec2227" stroke-width="1.7"/>
    </g>
    <path id="Path_23242" data-name="Path 23242" d="M1468.5-947.389c.981-1.728,2.5-5.019,2.5-6.238a25.417,25.417,0,0,1-5.338.534,30.582,30.582,0,0,1-5.34-.534,5.834,5.834,0,0,1,.787,2.451" transform="translate(-1423.363 979.595)" fill="none" stroke="#ec2227" stroke-miterlimit="10" stroke-width="1.7"/>
    <g id="Group_6939" data-name="Group 6939" transform="translate(27.116 25.569)">
      <path id="Path_23243" data-name="Path 23243" d="M1454.2-940.879c-1.469,3.386-5.984,5.6-7.05,11.276-1.6,8.541,5.5,12.279,12.281,12.279s13.879-3.737,12.279-12.279c-.954-5.084-4.671-7.388-6.5-10.244" transform="translate(-1446.92 948.639)" fill="none" stroke="#ec2227" stroke-miterlimit="10" stroke-width="1.7"/>
      <path id="Path_23244" data-name="Path 23244" d="M1465.521-945.757h-2.136c-.208-.56-1.6-3.02-1.6-5.155-2.669.533-5.873.533-8.008-.534a10.47,10.47,0,0,0,2.67,5.689" transform="translate(-1448.741 953.446)" fill="none" stroke="#ec2227" stroke-miterlimit="10" stroke-width="1.7"/>
    </g>
    <path id="Path_23245" data-name="Path 23245" d="M1474.677-942.048l-4.067-.934,2.886-.808a1.067,1.067,0,0,0,.74-1.316,1.067,1.067,0,0,0-1.315-.74l-5.086,1.423a1.064,1.064,0,0,0-1.052-.925,1.068,1.068,0,0,0-1.068,1.068H1455.57a1.067,1.067,0,0,0-1.067,1.067,1.067,1.067,0,0,0,1.067,1.068h10.144a1.068,1.068,0,0,0,1.068,1.068,1.061,1.061,0,0,0,.83-.4l6.587,1.514a1.068,1.068,0,0,0,1.279-.8A1.068,1.068,0,0,0,1474.677-942.048Z" transform="translate(-1423.818 976.539)" fill="#ec2227"/>
    <path id="Path_23246" data-name="Path 23246" d="M1469.034-926.239a6.479,6.479,0,0,1-6.48,6.478,6.477,6.477,0,0,1-6.475-6.478,6.476,6.476,0,0,1,6.475-6.477A6.479,6.479,0,0,1,1469.034-926.239Z" transform="translate(-1422.932 971.345)" fill="none" stroke="#ec2227" stroke-miterlimit="10" stroke-width="1.7"/>
    <path id="Path_65033" data-name="Path 65033" d="M-4.226,0V-4.295H-2.4a3.124,3.124,0,0,1,1,.116.987.987,0,0,1,.5.412,1.237,1.237,0,0,1,.188.677,1.147,1.147,0,0,1-.284.8,1.365,1.365,0,0,1-.85.4,2.023,2.023,0,0,1,.464.36,4.895,4.895,0,0,1,.494.7L-.365,0H-1.4l-.627-.935a6.062,6.062,0,0,0-.457-.631.665.665,0,0,0-.261-.179,1.429,1.429,0,0,0-.437-.048h-.176V0Zm.867-2.479h.642a3.313,3.313,0,0,0,.779-.053.467.467,0,0,0,.243-.182.559.559,0,0,0,.088-.322.515.515,0,0,0-.116-.35.531.531,0,0,0-.327-.168q-.105-.015-.633-.015h-.677ZM.092,0V-4.295h1.3l.779,2.93.771-2.93h1.3V0H3.435V-3.381L2.583,0H1.748L.9-3.381V0Z" transform="translate(39.219 46.637)" fill="#ec2227"/>
  </g>
</svg>
