<svg xmlns="http://www.w3.org/2000/svg" width="109.946" height="102.932" viewBox="0 0 109.946 102.932">
  <g id="Group_8295" data-name="Group 8295" transform="translate(-262.679 -77.858)">
    <g id="Group_4771" data-name="Group 4771" transform="translate(263.929 79.108)">
      <path id="Path_4052" data-name="Path 4052" d="M327.727,79.108A13.907,13.907,0,0,0,313.82,93.014v5.624a4.434,4.434,0,0,1,3.543-1.158v-.693a.948.948,0,0,1,1.016-.945,24.894,24.894,0,0,0,14.986-4.025.948.948,0,0,1,1.212.148c3.536,3.8,3.515,3.655,3.515,4.151v1.361a4.207,4.207,0,0,1,3.542,1.036v-5.5A13.906,13.906,0,0,0,327.727,79.108Z" transform="translate(-274.135 -79.108)" fill="#fff" stroke="#3b99d4" stroke-miterlimit="10" stroke-width="2.5"/>
      <path id="Path_4053" data-name="Path 4053" d="M344.309,101.555V109.2c0,.083,0,.165-.006.247a4.027,4.027,0,1,0,.006-7.9Z" transform="translate(-280.371 -83.689)" fill="#fff" stroke="#3b99d4" stroke-miterlimit="10" stroke-width="2.5"/>
      <path id="Path_4054" data-name="Path 4054" d="M317.07,109.215v-7.664a4.25,4.25,0,0,0-4.831,3.955,4.067,4.067,0,0,0,4.838,3.957C317.074,109.38,317.07,109.3,317.07,109.215Z" transform="translate(-273.812 -83.692)" fill="#fff" stroke="#3b99d4" stroke-miterlimit="10" stroke-width="2.5"/>
      <path id="Path_4055" data-name="Path 4055" d="M329.989,122.932a10.724,10.724,0,0,1-5.836-1.649v5.7l5.811,7.172,5.811-7.172V121.13A10.159,10.159,0,0,1,329.989,122.932Z" transform="translate(-276.249 -87.705)" fill="#fff" stroke="#3b99d4" stroke-miterlimit="10" stroke-width="2.5"/>
      <path id="Path_4056" data-name="Path 4056" d="M345.736,133.826l-15.373-5.954-5.811,7.173-5.811-7.173-15.357,5.954a9.74,9.74,0,0,0-5.686,8.819v25.428a1.9,1.9,0,0,0,1.895,1.895h49.934a1.9,1.9,0,0,0,1.895-1.895V142.645A9.74,9.74,0,0,0,345.736,133.826Z" transform="translate(-270.837 -89.084)" fill="#fff" stroke="#3b99d4" stroke-miterlimit="10" stroke-width="2.5"/>
      <path id="Path_4057" data-name="Path 4057" d="M302.023,169.378v-27.59a9.4,9.4,0,0,1,3.626-7.535l-2.265.878a9.74,9.74,0,0,0-5.686,8.819v25.429a1.9,1.9,0,0,0,1.895,1.894h4.324A1.9,1.9,0,0,1,302.023,169.378Z" transform="translate(-270.837 -90.389)" fill="#fff" stroke="#3b99d4" stroke-miterlimit="10" stroke-width="2.5"/>
      <path id="Path_4058" data-name="Path 4058" d="M339,98.732c0-.5.022-.349-3.516-4.151a.946.946,0,0,0-1.211-.147,24.9,24.9,0,0,1-14.986,4.025.948.948,0,0,0-1.016.945v8.307a10.366,10.366,0,0,0,20.73,0Z" transform="translate(-275.046 -82.211)" fill="#fff" stroke="#3b99d4" stroke-miterlimit="10" stroke-width="2.5"/>
      <g id="Group_4765" data-name="Group 4765" transform="translate(42.361 38.788)">
        <path id="Path_4059" data-name="Path 4059" d="M338.475,138.73l4.345-8.708-5.551-2.15-5.811,7.173,5.665,4.023A.917.917,0,0,0,338.475,138.73Z" transform="translate(-320.105 -127.872)" fill="#fff" stroke="#3b99d4" stroke-miterlimit="10" stroke-width="2.5"/>
        <path id="Path_4060" data-name="Path 4060" d="M321.53,138.73l-4.345-8.708,5.551-2.15,5.811,7.173-5.666,4.023A.916.916,0,0,1,321.53,138.73Z" transform="translate(-317.185 -127.872)" fill="#fff" stroke="#3b99d4" stroke-miterlimit="10" stroke-width="2.5"/>
      </g>
      <path id="Path_4061" data-name="Path 4061" d="M335.849,166.273l-3.73-22.071h-4.353l-3.729,22.071a.964.964,0,0,0,.222.77h0l5.149,5.673a.723.723,0,0,0,1.07,0l5.15-5.673h0A.964.964,0,0,0,335.849,166.273Z" transform="translate(-276.224 -92.424)" fill="#fff" stroke="#3b99d4" stroke-miterlimit="10" stroke-width="2.5"/>
      <g id="Group_4766" data-name="Group 4766" transform="translate(49.595 45.961)">
        <path id="Path_4062" data-name="Path 4062" d="M330.407,136.895v-.005l0,0,0,0v.005l-4.121,2.927,1.947,2.931h4.353l1.948-2.931Z" transform="translate(-326.279 -136.89)" fill="#fff" stroke="#3b99d4" stroke-miterlimit="10" stroke-width="2.5"/>
      </g>
      <path id="Path_4063" data-name="Path 4063" d="M361.5,103.684a13.906,13.906,0,0,0-13.907,13.906v5.623a4.435,4.435,0,0,1,3.542-1.157v-.693a.948.948,0,0,1,1.016-.945,24.893,24.893,0,0,0,14.986-4.025.948.948,0,0,1,1.212.148c3.536,3.8,3.515,3.654,3.515,4.151v1.361a4.2,4.2,0,0,1,3.542,1.036v-5.5A13.905,13.905,0,0,0,361.5,103.684Z" transform="translate(-281.044 -84.136)" fill="#fff" stroke="#3b99d4" stroke-miterlimit="10" stroke-width="2.5"/>
      <path id="Path_4064" data-name="Path 4064" d="M378.079,126.131v7.647c0,.083,0,.165-.006.247a4.027,4.027,0,1,0,.006-7.895Z" transform="translate(-287.28 -88.717)" fill="#fff" stroke="#3b99d4" stroke-miterlimit="10" stroke-width="2.5"/>
      <path id="Path_4065" data-name="Path 4065" d="M350.84,133.791v-7.664a4.25,4.25,0,0,0-4.831,3.955,4.067,4.067,0,0,0,4.838,3.957C350.844,133.956,350.84,133.873,350.84,133.791Z" transform="translate(-280.72 -88.719)" fill="#fff" stroke="#3b99d4" stroke-miterlimit="10" stroke-width="2.5"/>
      <path id="Path_4066" data-name="Path 4066" d="M352.083,127.687v-1.552" transform="translate(-281.963 -88.728)" fill="#fff" stroke="#3b99d4" stroke-miterlimit="10" stroke-width="2.5"/>
      <path id="Path_4067" data-name="Path 4067" d="M352.089,135.713c0-.083-.006-.165-.006-.248v-1.189h0" transform="translate(-281.963 -90.394)" fill="#fff" stroke="#3b99d4" stroke-miterlimit="10" stroke-width="2.5"/>
      <path id="Path_4068" data-name="Path 4068" d="M363.759,147.508a10.731,10.731,0,0,1-5.836-1.649v5.7l5.811,7.173,5.811-7.173v-5.851A10.16,10.16,0,0,1,363.759,147.508Z" transform="translate(-283.157 -92.732)" fill="#fff" stroke="#3b99d4" stroke-miterlimit="10" stroke-width="2.5"/>
      <path id="Path_4069" data-name="Path 4069" d="M362.247,147.45a10.5,10.5,0,0,1-4.324-1.551v5.7l4.324,5.337Z" transform="translate(-283.157 -92.772)" fill="#fff" stroke="#3b99d4" stroke-miterlimit="10" stroke-width="2.5"/>
      <path id="Path_4070" data-name="Path 4070" d="M379.507,158.4l-15.373-5.955-5.811,7.173-5.811-7.173L337.155,158.4a9.74,9.74,0,0,0-5.686,8.819v25.427a1.9,1.9,0,0,0,1.895,1.9H383.3a1.9,1.9,0,0,0,1.895-1.9V167.22A9.74,9.74,0,0,0,379.507,158.4Z" transform="translate(-277.746 -94.111)" fill="#fff" stroke="#3b99d4" stroke-miterlimit="10" stroke-width="2.5"/>
      <path id="Path_4071" data-name="Path 4071" d="M369.258,119.156a.948.948,0,0,0-1.211-.148,24.9,24.9,0,0,1-14.987,4.025.949.949,0,0,0-1.016.945v8.308a10.366,10.366,0,0,0,20.73,0v-8.979C372.773,122.811,372.8,122.958,369.258,119.156Z" transform="translate(-281.955 -87.239)" fill="#fff" stroke="#3b99d4" stroke-miterlimit="10" stroke-width="2.5"/>
      <g id="Group_4767" data-name="Group 4767" transform="translate(69.223 58.336)">
        <path id="Path_4072" data-name="Path 4072" d="M372.246,163.306l4.345-8.709-5.551-2.15-5.811,7.173,5.666,4.024A.917.917,0,0,0,372.246,163.306Z" transform="translate(-353.875 -152.447)" fill="#fff" stroke="#3b99d4" stroke-miterlimit="10" stroke-width="2.5"/>
        <path id="Path_4073" data-name="Path 4073" d="M355.3,163.306l-4.346-8.709,5.551-2.15,5.811,7.173-5.665,4.024A.917.917,0,0,1,355.3,163.306Z" transform="translate(-350.955 -152.447)" fill="#fff" stroke="#3b99d4" stroke-miterlimit="10" stroke-width="2.5"/>
      </g>
      <path id="Path_4074" data-name="Path 4074" d="M369.619,190.849l-3.73-22.072h-4.353l-3.73,22.072a.961.961,0,0,0,.222.769h0l5.149,5.674a.724.724,0,0,0,1.071,0l5.149-5.674h0A.963.963,0,0,0,369.619,190.849Z" transform="translate(-283.132 -97.452)" fill="#fff" stroke="#3b99d4" stroke-miterlimit="10" stroke-width="2.5"/>
      <g id="Group_4768" data-name="Group 4768" transform="translate(76.456 65.509)">
        <path id="Path_4075" data-name="Path 4075" d="M364.177,161.47v0l0,0,0,0v0l-4.121,2.927L362,167.329h4.353L368.3,164.4Z" transform="translate(-360.049 -161.465)" fill="#fff" stroke="#3b99d4" stroke-miterlimit="10" stroke-width="2.5"/>
      </g>
      <path id="Path_4076" data-name="Path 4076" d="M293.957,103.684a13.906,13.906,0,0,0-13.906,13.906v5.623a4.435,4.435,0,0,1,3.542-1.157v-.693a.948.948,0,0,1,1.016-.945,24.9,24.9,0,0,0,14.986-4.025.947.947,0,0,1,1.211.148c3.537,3.8,3.516,3.654,3.516,4.151v1.361a4.2,4.2,0,0,1,3.542,1.036v-5.5A13.906,13.906,0,0,0,293.957,103.684Z" transform="translate(-267.227 -84.136)" fill="#fff" stroke="#3b99d4" stroke-miterlimit="10" stroke-width="2.5"/>
      <path id="Path_4077" data-name="Path 4077" d="M310.539,126.131v7.647c0,.083,0,.165-.006.247a4.027,4.027,0,1,0,.006-7.895Z" transform="translate(-273.463 -88.717)" fill="#fff" stroke="#3b99d4" stroke-miterlimit="10" stroke-width="2.5"/>
      <path id="Path_4078" data-name="Path 4078" d="M283.3,133.791v-7.664a4.251,4.251,0,0,0-4.832,3.955,4.067,4.067,0,0,0,4.839,3.957C283.3,133.956,283.3,133.873,283.3,133.791Z" transform="translate(-266.903 -88.719)" fill="#fff" stroke="#3b99d4" stroke-miterlimit="10" stroke-width="2.5"/>
      <path id="Path_4079" data-name="Path 4079" d="M296.219,147.508a10.729,10.729,0,0,1-5.836-1.649v5.7l5.811,7.173,5.811-7.173v-5.851A10.16,10.16,0,0,1,296.219,147.508Z" transform="translate(-269.341 -92.732)" fill="#fff" stroke="#3b99d4" stroke-miterlimit="10" stroke-width="2.5"/>
      <path id="Path_4080" data-name="Path 4080" d="M311.966,158.4l-15.373-5.955-5.811,7.173-5.811-7.173L269.615,158.4a9.74,9.74,0,0,0-5.686,8.819v25.427a1.9,1.9,0,0,0,1.894,1.9h49.935a1.9,1.9,0,0,0,1.895-1.9V167.22A9.74,9.74,0,0,0,311.966,158.4Z" transform="translate(-263.929 -94.111)" fill="#fff" stroke="#3b99d4" stroke-miterlimit="10" stroke-width="2.5"/>
      <path id="Path_4081" data-name="Path 4081" d="M301.717,119.156a.946.946,0,0,0-1.211-.148,24.9,24.9,0,0,1-14.987,4.025.949.949,0,0,0-1.016.945v8.308a10.366,10.366,0,0,0,20.73,0v-8.979C305.234,122.811,305.255,122.958,301.717,119.156Z" transform="translate(-268.138 -87.239)" fill="#fff" stroke="#3b99d4" stroke-miterlimit="10" stroke-width="2.5"/>
      <g id="Group_4769" data-name="Group 4769" transform="translate(15.5 58.336)">
        <path id="Path_4082" data-name="Path 4082" d="M304.706,163.306l4.345-8.709-5.551-2.15-5.811,7.173,5.665,4.024A.917.917,0,0,0,304.706,163.306Z" transform="translate(-286.335 -152.447)" fill="#fff" stroke="#3b99d4" stroke-miterlimit="10" stroke-width="2.5"/>
        <path id="Path_4083" data-name="Path 4083" d="M287.76,163.306l-4.345-8.709,5.551-2.15,5.811,7.173-5.666,4.024A.916.916,0,0,1,287.76,163.306Z" transform="translate(-283.415 -152.447)" fill="#fff" stroke="#3b99d4" stroke-miterlimit="10" stroke-width="2.5"/>
      </g>
      <path id="Path_4084" data-name="Path 4084" d="M302.079,190.849l-3.73-22.072H294l-3.73,22.072a.962.962,0,0,0,.222.769h0l5.149,5.674a.723.723,0,0,0,1.07,0l5.149-5.674h0A.962.962,0,0,0,302.079,190.849Z" transform="translate(-269.315 -97.452)" fill="#fff" stroke="#3b99d4" stroke-miterlimit="10" stroke-width="2.5"/>
      <g id="Group_4770" data-name="Group 4770" transform="translate(22.734 65.509)">
        <path id="Path_4085" data-name="Path 4085" d="M296.637,161.47v0l0,0,0,0v0l-4.121,2.927,1.948,2.932h4.352l1.948-2.932Z" transform="translate(-292.509 -161.465)" fill="#fff" stroke="#3b99d4" stroke-miterlimit="10" stroke-width="2.5"/>
      </g>
    </g>
    <line id="Line_291" data-name="Line 291" y2="25.218" transform="translate(273.663 154.322)" fill="none" stroke="#3b99d4" stroke-miterlimit="10" stroke-width="2.5"/>
    <line id="Line_292" data-name="Line 292" y2="25.218" transform="translate(307.157 154.322)" fill="none" stroke="#3b99d4" stroke-miterlimit="10" stroke-width="2.5"/>
    <line id="Line_293" data-name="Line 293" y2="25.218" transform="translate(327.636 154.322)" fill="none" stroke="#3b99d4" stroke-miterlimit="10" stroke-width="2.5"/>
    <line id="Line_294" data-name="Line 294" y2="25.218" transform="translate(361.129 154.322)" fill="none" stroke="#3b99d4" stroke-miterlimit="10" stroke-width="2.5"/>
  </g>
</svg>
