<svg xmlns="http://www.w3.org/2000/svg" width="123.689" height="90.826" viewBox="0 0 123.689 90.826">
  <g id="Group_8199" data-name="Group 8199" transform="translate(1.25 1.25)">
    <path id="Path_65051" data-name="Path 65051" d="M0,0H6.492V25.968H0Z" transform="translate(-0.001 62.358)" fill="#fff" stroke="#6a70b1" stroke-width="2.5"/>
    <path id="Path_24210" data-name="Path 24210" d="M-3405.2-1280.79a12.953,12.953,0,0,1-10.8,5.782h-24v-6.492h24a6.465,6.465,0,0,0,5.4-2.891l4.5-6.745,5.575,3.344Z" transform="translate(3446.491 1356.851)" fill="#fff" stroke="#6a70b1" stroke-miterlimit="10" stroke-width="2.5"/>
    <path id="Path_24211" data-name="Path 24211" d="M-3189.7-1401.2a8.539,8.539,0,0,1-11.39,2.847l-8.233-4.939a7.616,7.616,0,0,1-3.679-6.5,7.642,7.642,0,0,1,1.515-4.549l3.823-5.1,21.472,12.389Z" transform="translate(3248.967 1468.49)" fill="#fff" stroke="#6a70b1" stroke-miterlimit="10" stroke-width="2.5"/>
    <path id="Path_24212" data-name="Path 24212" d="M-3323.2-1644.512l-75.969-43.831a7.682,7.682,0,0,1-3.829-6.635,7.63,7.63,0,0,1,1.386-4.4l8.15-11.641,80.33,46.343Z" transform="translate(3414.296 1722.212)" fill="#fff" stroke="#6a70b1" stroke-miterlimit="10" stroke-width="2.5"/>
    <path id="Path_24213" data-name="Path 24213" d="M-2749.7-1381.54a16.2,16.2,0,0,1-13.976,16.137l6.677-13.666,7.179-3.667C-2749.779-1382.337-2749.7-1381.925-2749.7-1381.54Z" transform="translate(2857.982 1436.557)" fill="#fff" stroke="#6a70b1" stroke-miterlimit="10" stroke-width="2.5"/>
    <path id="Path_24214" data-name="Path 24214" d="M-3248.921-1739.763l-80.115-46.306,5.111-7.314a9.042,9.042,0,0,1,7.405-3.865,9.035,9.035,0,0,1,4.488,1.194l81.892,46.884Z" transform="translate(3349.935 1797.248)" fill="#fff" stroke="#6a70b1" stroke-miterlimit="10" stroke-width="2.5"/>
    <path id="Path_24215" data-name="Path 24215" d="M-2849.757-1339a3.246,3.246,0,0,1,3.247,3.246,3.246,3.246,0,0,1-3.247,3.246,3.245,3.245,0,0,1-3.245-3.246A3.245,3.245,0,0,1-2849.757-1339Z" transform="translate(2935.71 1398.497)" fill="#fff" stroke="#6a70b1" stroke-miterlimit="10" stroke-width="2.5"/>
  </g>
</svg>
