<svg xmlns="http://www.w3.org/2000/svg" width="125.875" height="119.228" viewBox="0 0 125.875 119.228">
  <g id="Group_8364" data-name="Group 8364" transform="translate(1604.328 936.603)">
    <path id="Path_24504" data-name="Path 24504" d="M-1406.315-935.353a12.763,12.763,0,0,1,12.763,12.763v17.017h-25.526V-922.59A12.763,12.763,0,0,1-1406.315-935.353Z" transform="translate(-135.075)" fill="#fff" stroke="#3b99d4" stroke-miterlimit="10" stroke-width="2.5"/>
    <path id="Path_24505" data-name="Path 24505" d="M-1278.315-935.353a12.763,12.763,0,0,1,12.763,12.763v17.017h-25.526V-922.59A12.763,12.763,0,0,1-1278.315-935.353Z" transform="translate(-229.041)" fill="#fff" stroke="#3b99d4" stroke-miterlimit="10" stroke-width="2.5"/>
    <path id="Path_24506" data-name="Path 24506" d="M-1534.315-935.353a12.763,12.763,0,0,1,12.763,12.763v17.017h-25.526V-922.59A12.763,12.763,0,0,1-1534.315-935.353Z" transform="translate(-41.11)" fill="#fff" stroke="#3b99d4" stroke-miterlimit="10" stroke-width="2.5"/>
    <path id="Path_24507" data-name="Path 24507" d="M-1571.171-855.353h59.561a31.907,31.907,0,0,1,31.907,31.907h0a31.907,31.907,0,0,1-31.907,31.907h-59.561a31.907,31.907,0,0,1-31.907-31.907h0A31.907,31.907,0,0,1-1571.171-855.353Z" transform="translate(0 -58.728)" fill="#fff" stroke="#3b99d4" stroke-miterlimit="10" stroke-width="2.5"/>
    <path id="Path_24508" data-name="Path 24508" d="M-1243.078-815.353h14.89v19.144h-14.89Z" transform="translate(-264.278 -88.093)" fill="#fff" stroke="#3b99d4" stroke-miterlimit="10" stroke-width="2.5"/>
    <path id="Path_24509" data-name="Path 24509" d="M-1187.078-832.972l8.509-6.381v19.144l-8.509,6.381Z" transform="translate(-305.387 -70.474)" fill="#fff" stroke="#3b99d4" stroke-miterlimit="10" stroke-width="2.5"/>
    <g id="Group_8207" data-name="Group 8207" transform="translate(-1581.806 -905.573)">
      <path id="Path_24510" data-name="Path 24510" d="M-1523.078-823.353h14.89v17.017h-10.636l-4.254-4.254Z" transform="translate(1523.078 823.353)" fill="#fff" stroke="#3b99d4" stroke-miterlimit="10" stroke-width="2.5"/>
      <path id="Path_24511" data-name="Path 24511" d="M-1435.078-823.353h14.89v17.017h-10.636l-4.254-4.254Z" transform="translate(1458.477 823.353)" fill="#fff" stroke="#3b99d4" stroke-miterlimit="10" stroke-width="2.5"/>
      <path id="Path_24512" data-name="Path 24512" d="M-1347.078-823.353h14.89v17.017h-10.636l-4.254-4.254Z" transform="translate(1393.876 823.353)" fill="#fff" stroke="#3b99d4" stroke-miterlimit="10" stroke-width="2.5"/>
      <path id="Path_24513" data-name="Path 24513" d="M-1347.078-694.337h14.89v-17.017h-10.636l-4.254,4.254Z" transform="translate(1393.876 741.134)" fill="#fff" stroke="#3b99d4" stroke-miterlimit="10" stroke-width="2.5"/>
      <path id="Path_24514" data-name="Path 24514" d="M-1259.078-694.337h14.89v-17.017h-10.636l-4.254,4.254Z" transform="translate(1329.274 741.134)" fill="#fff" stroke="#3b99d4" stroke-miterlimit="10" stroke-width="2.5"/>
      <path id="Path_24515" data-name="Path 24515" d="M-1435.078-694.337h14.89v-17.017h-10.636l-4.254,4.254Z" transform="translate(1458.477 741.134)" fill="#fff" stroke="#3b99d4" stroke-miterlimit="10" stroke-width="2.5"/>
      <path id="Path_24516" data-name="Path 24516" d="M-1523.078-694.337h14.89v-17.017h-10.636l-4.254,4.254Z" transform="translate(1523.078 741.134)" fill="#fff" stroke="#3b99d4" stroke-miterlimit="10" stroke-width="2.5"/>
    </g>
    <path id="Path_24517" data-name="Path 24517" d="M-1406.315-671.354a12.763,12.763,0,0,1,12.763,12.763v12.763a4.254,4.254,0,0,1-4.254,4.254h-17.017a4.255,4.255,0,0,1-4.254-4.254v-12.763A12.763,12.763,0,0,1-1406.315-671.354Z" transform="translate(-135.075 -193.803)" fill="#fff" stroke="#3b99d4" stroke-miterlimit="10" stroke-width="2.5"/>
    <path id="Path_24518" data-name="Path 24518" d="M-1534.315-671.354a12.763,12.763,0,0,1,12.763,12.763v12.763a4.254,4.254,0,0,1-4.254,4.254h-17.017a4.255,4.255,0,0,1-4.254-4.254v-12.763A12.763,12.763,0,0,1-1534.315-671.354Z" transform="translate(-41.11 -193.803)" fill="#fff" stroke="#3b99d4" stroke-miterlimit="10" stroke-width="2.5"/>
    <path id="Path_24519" data-name="Path 24519" d="M-1278.315-671.354a12.763,12.763,0,0,1,12.763,12.763v12.763a4.254,4.254,0,0,1-4.254,4.254h-17.017a4.254,4.254,0,0,1-4.254-4.254v-12.763A12.763,12.763,0,0,1-1278.315-671.354Z" transform="translate(-229.041 -193.803)" fill="#fff" stroke="#3b99d4" stroke-miterlimit="10" stroke-width="2.5"/>
    <path id="Path_24520" data-name="Path 24520" d="M-1404.188-597.718v-10.636h-4.254v21.272h-10.636v4.254h2.127v2.127a2.127,2.127,0,0,0,2.127,2.127,2.127,2.127,0,0,0,2.127-2.127v-2.127h12.763v2.127a2.127,2.127,0,0,0,2.127,2.127,2.127,2.127,0,0,0,2.127-2.127v-2.127h2.127v-4.254h-10.636v-10.636Z" transform="translate(-135.075 -240.051)" fill="#fff" stroke="#3b99d4" stroke-miterlimit="10" stroke-width="2.5"/>
    <path id="Path_24521" data-name="Path 24521" d="M-1277.188-597.718v-10.636h-4.254v21.272h-10.636v4.254h2.127v2.127a2.127,2.127,0,0,0,2.127,2.127,2.127,2.127,0,0,0,2.127-2.127v-2.127h12.763v2.127a2.127,2.127,0,0,0,2.127,2.127,2.127,2.127,0,0,0,2.127-2.127v-2.127h2.127v-4.254h-10.636v-10.636Z" transform="translate(-228.307 -240.051)" fill="#fff" stroke="#3b99d4" stroke-miterlimit="10" stroke-width="2.5"/>
    <path id="Path_24522" data-name="Path 24522" d="M-1532.088-597.718v-10.636h-4.254v21.272h-10.636v4.254h2.127v2.127a2.127,2.127,0,0,0,2.127,2.127,2.127,2.127,0,0,0,2.127-2.127v-2.127h12.763v2.127a2.127,2.127,0,0,0,2.127,2.127,2.127,2.127,0,0,0,2.127-2.127v-2.127h2.127v-4.254h-10.636v-10.636Z" transform="translate(-41.183 -240.051)" fill="#fff" stroke="#3b99d4" stroke-miterlimit="10" stroke-width="2.5"/>
  </g>
</svg>
