<svg xmlns="http://www.w3.org/2000/svg" width="58.994" height="111.672" viewBox="0 0 58.994 111.672">
  <g id="Group_8291" data-name="Group 8291" transform="translate(1.734 1.734)">
    <g id="Group_7610" data-name="Group 7610" transform="translate(20.05 35.118)">
      <path id="Path_24216" data-name="Path 24216" d="M-3334.169-836.055l-14.861-3.883a4.335,4.335,0,0,1-1.927-1.087L-3355.04-845l.179-5.191,5.342-1.533,3.787,3.685,13.754,3.593a4.334,4.334,0,0,1,3.1,5.29,4.335,4.335,0,0,1-5.289,3.1Z" transform="translate(3355.04 851.722)" fill="#fff" stroke="#6a70b1" stroke-miterlimit="10" stroke-width="2.5"/>
    </g>
    <g id="Group_7611" data-name="Group 7611" transform="translate(8.561 24.498)">
      <path id="Path_24217" data-name="Path 24217" d="M-3392.307-891.271l-9.652-9.391a4.335,4.335,0,0,0-6.13.084,4.335,4.335,0,0,0,.084,6.13l10.177,9.9Z" transform="translate(3409.317 901.89)" fill="#fff" stroke="#6a70b1" stroke-miterlimit="10" stroke-width="2.5"/>
    </g>
    <g id="Group_7615" data-name="Group 7615" transform="translate(0.007 21.567)">
      <g id="Group_7612" data-name="Group 7612" transform="translate(0 30.361)">
        <path id="Path_24218" data-name="Path 24218" d="M-3445.027-715.547c-2.522,0-4.571-2.318-4.579-5.186l-.124-46.355c-.008-2.873,2.036-5.209,4.565-5.218h.014c2.523,0,4.571,2.319,4.579,5.186l.124,46.355c.008,2.873-2.037,5.209-4.566,5.218Z" transform="translate(3449.729 772.306)" fill="#fff" stroke="#6a70b1" stroke-miterlimit="10" stroke-width="2.5"/>
      </g>
      <g id="Group_7614" data-name="Group 7614" transform="translate(0 0)">
        <g id="Group_7613" data-name="Group 7613" transform="translate(13.986 30.361)">
          <path id="Path_24219" data-name="Path 24219" d="M-3384.494-715.548a4.944,4.944,0,0,1-4.64-5.2l0-46.356a4.944,4.944,0,0,1,4.638-5.2,4.945,4.945,0,0,1,4.64,5.2l0,46.355a4.945,4.945,0,0,1-4.639,5.2Z" transform="translate(3389.137 772.307)" fill="#fff" stroke="#6a70b1" stroke-miterlimit="10" stroke-width="2.5"/>
        </g>
        <path id="Path_24220" data-name="Path 24220" d="M-3432.521-915.74h-11.129c-3.356,0-6.077,3.366-6.077,7.52V-866.2h23.283V-908.22C-3426.444-912.374-3429.164-915.74-3432.521-915.74Z" transform="translate(3449.727 915.74)" fill="#fff" stroke="#6a70b1" stroke-miterlimit="10" stroke-width="2.5"/>
      </g>
    </g>
    <ellipse id="Ellipse_417" data-name="Ellipse 417" cx="8.991" cy="8.991" rx="8.991" ry="8.991" transform="matrix(0.83, -0.558, 0.558, 0.83, 0.001, 10.027)" fill="#fff" stroke="#6a70b1" stroke-miterlimit="10" stroke-width="2.5"/>
    <g id="Group_7616" data-name="Group 7616" transform="translate(5.318 36.651)">
      <path id="Path_24221" data-name="Path 24221" d="M-3413.637-820l-9.537-13.836a4.342,4.342,0,0,1-.726-1.878l-.737-5.435,4.006-3.333,4.6,2.252.586,4.326,8.949,12.983a4.335,4.335,0,0,1-1.109,6.03A4.335,4.335,0,0,1-3413.637-820Z" transform="translate(3424.636 844.479)" fill="#fff" stroke="#6a70b1" stroke-miterlimit="10" stroke-width="2.5"/>
    </g>
    <g id="Group_7617" data-name="Group 7617" transform="translate(3.692 23.354)">
      <path id="Path_24222" data-name="Path 24222" d="M-3430.7-890.666l8.6-1.081-1.6-11.8a4.335,4.335,0,0,0-4.878-3.714,4.335,4.335,0,0,0-3.714,4.878Z" transform="translate(3432.323 907.296)" fill="#fff" stroke="#6a70b1" stroke-miterlimit="10" stroke-width="2.5"/>
    </g>
    <g id="Group_7623" data-name="Group 7623" transform="translate(28.024 48.832)">
      <g id="Group_7618" data-name="Group 7618" transform="translate(4.036 56.626)">
        <path id="Path_24223" data-name="Path 24223" d="M-3293.631-519.415h-3.551a1.117,1.117,0,0,0-1.117,1.117v.994a1.117,1.117,0,0,0,1.117,1.117h3.551a1.117,1.117,0,0,0,1.117-1.117v-.994A1.117,1.117,0,0,0-3293.631-519.415Z" transform="translate(3298.299 519.415)" fill="#fff" stroke="#6a70b1" stroke-miterlimit="10" stroke-width="2.5"/>
        <path id="Path_24224" data-name="Path 24224" d="M-3226.889-519.415h-3.551a1.117,1.117,0,0,0-1.117,1.117v.994a1.117,1.117,0,0,0,1.117,1.117h3.551a1.118,1.118,0,0,0,1.118-1.117v-.994A1.117,1.117,0,0,0-3226.889-519.415Z" transform="translate(3245.684 519.415)" fill="#fff" stroke="#6a70b1" stroke-miterlimit="10" stroke-width="2.5"/>
      </g>
      <g id="Group_7619" data-name="Group 7619" transform="translate(8.209)">
        <path id="Path_24225" data-name="Path 24225" d="M-3269.518-767.552h-6.569a2.5,2.5,0,0,1-2.5-2.5v-14.382a2.5,2.5,0,0,1,2.5-2.5h6.569a2.5,2.5,0,0,1,2.5,2.5v14.382a2.5,2.5,0,0,1-2.5,2.5Zm-6.523-2.545h6.477v-14.29h-6.477Z" transform="translate(3278.586 786.932)" fill="#fff" stroke="#6a70b1" stroke-miterlimit="10" stroke-width="2.5"/>
      </g>
      <path id="Path_24226" data-name="Path 24226" d="M-3292.963-710.375h-20.825a3.581,3.581,0,0,0-3.581,3.581v34.418a3.581,3.581,0,0,0,3.581,3.581h20.825a3.581,3.581,0,0,0,3.58-3.581v-34.418A3.581,3.581,0,0,0-3292.963-710.375Z" transform="translate(3317.368 726.58)" fill="#fff" stroke="#6a70b1" stroke-miterlimit="10" stroke-width="2.5"/>
      <g id="Group_7620" data-name="Group 7620" transform="translate(12.72 20.546)">
        <path id="Path_24227" data-name="Path 24227" d="M-3256-656.511a1.273,1.273,0,0,1-1.273-1.273V-688.6a1.273,1.273,0,0,1,1.273-1.273,1.272,1.272,0,0,1,1.272,1.273v30.812a1.272,1.272,0,0,1-1.272,1.272Z" transform="translate(3257.274 689.868)" fill="#fff" stroke="#6a70b1" stroke-miterlimit="10" stroke-width="2.5"/>
      </g>
      <g id="Group_7621" data-name="Group 7621" transform="translate(19.72 20.546)">
        <path id="Path_24228" data-name="Path 24228" d="M-3222.934-656.511a1.273,1.273,0,0,1-1.272-1.273V-688.6a1.273,1.273,0,0,1,1.272-1.273,1.272,1.272,0,0,1,1.272,1.273v30.812a1.273,1.273,0,0,1-1.272,1.272Z" transform="translate(3224.207 689.868)" fill="#fff" stroke="#6a70b1" stroke-miterlimit="10" stroke-width="2.5"/>
      </g>
      <g id="Group_7622" data-name="Group 7622" transform="translate(5.933 20.546)">
        <path id="Path_24229" data-name="Path 24229" d="M-3288.066-656.511a1.273,1.273,0,0,1-1.273-1.273V-688.6a1.273,1.273,0,0,1,1.273-1.273,1.272,1.272,0,0,1,1.271,1.273v30.812a1.272,1.272,0,0,1-1.271,1.272Z" transform="translate(3289.339 689.868)" fill="#fff" stroke="#6a70b1" stroke-miterlimit="10" stroke-width="2.5"/>
      </g>
    </g>
  </g>
</svg>
