<svg xmlns="http://www.w3.org/2000/svg" width="104.689" height="90.958" viewBox="0 0 104.689 90.958">
  <g id="Group_6937" data-name="Group 6937" transform="translate(0.85 0.85)">
    <g id="Group_6936" data-name="Group 6936" transform="translate(0 0)">
      <path id="Path_23230" data-name="Path 23230" d="M1217.555-959.065l-41.488,41.488-.017-.018v-41.487h41.487Z" transform="translate(-1155.452 981.396)" fill="none" stroke="#eb2127" stroke-miterlimit="10" stroke-width="1.7"/>
      <path id="Path_23231" data-name="Path 23231" d="M1240.8-959.082h-11.5l-44.611,44.629h75.817v-44.629Z" transform="translate(-1157.516 981.396)" fill="none" stroke="#eb2127" stroke-miterlimit="10" stroke-width="1.7"/>
      <path id="Path_23232" data-name="Path 23232" d="M1220.77-966.086,1195.59-940.9l-19.43,19.448-6.711,6.694a37.627,37.627,0,0,0,24.167,8.754,37.681,37.681,0,0,0,30.468-15.448h8.188a44.609,44.609,0,0,1-38.656,22.314,44.628,44.628,0,0,1-44.628-44.628,44.628,44.628,0,0,1,44.628-44.629,44.609,44.609,0,0,1,38.656,22.314h-8.188c-.464-.635-.944-1.253-1.459-1.854Zm-9.681.017,6.694-6.711a37.629,37.629,0,0,0-24.168-8.754,37.763,37.763,0,0,0-37.762,37.763,37.625,37.625,0,0,0,8.754,24.167l4.994-4.978Z" transform="translate(-1148.987 988.4)" fill="none" stroke="#eb2127" stroke-miterlimit="10" stroke-width="1.7"/>
      <path id="Path_23233" data-name="Path 23233" d="M1210.217-931.665l18.057-18.058a15.478,15.478,0,0,1,12.583,15.192,15.449,15.449,0,0,1-15.448,15.448A15.477,15.477,0,0,1,1210.217-931.665Z" transform="translate(-1163.614 979.16)" fill="none" stroke="#eb2127" stroke-miterlimit="10" stroke-width="1.7"/>
    </g>
    <path id="Path_65032" class="solid" data-name="Path 65032" d="M-9.156,0V-9.306H-5.2a6.769,6.769,0,0,1,2.168.251,2.138,2.138,0,0,1,1.082.892A2.681,2.681,0,0,1-1.546-6.7a2.484,2.484,0,0,1-.616,1.73A2.957,2.957,0,0,1-4-4.107,4.384,4.384,0,0,1-3-3.326a10.606,10.606,0,0,1,1.07,1.511L-.79,0H-3.037L-4.4-2.025a13.135,13.135,0,0,0-.99-1.368,1.442,1.442,0,0,0-.565-.387,3.1,3.1,0,0,0-.946-.1h-.381V0Zm1.879-5.37h1.39A7.179,7.179,0,0,0-4.2-5.484a1.012,1.012,0,0,0,.527-.394,1.212,1.212,0,0,0,.19-.7,1.116,1.116,0,0,0-.251-.759A1.151,1.151,0,0,0-4.44-7.7q-.229-.032-1.371-.032H-7.278ZM.2,0V-9.306H3.012L4.7-2.958,6.37-9.306H9.188V0H7.443V-7.325L5.6,0H3.786L1.946-7.325V0Z" transform="translate(60.678 49.658)" fill="#eb2127"/>
  </g>
</svg>
