<svg xmlns="http://www.w3.org/2000/svg" width="127.849" height="126.992" viewBox="0 0 127.849 126.992">
  <g id="Group_8214" data-name="Group 8214" transform="translate(523.127 3848.111)">
    <path id="Path_24523" data-name="Path 24523" d="M-411.3-3566.574H-470.38l-50.641-92.842h59.081Z" transform="translate(0 -155.795)" fill="#fff" stroke="#20ab60" stroke-miterlimit="10" stroke-width="2.5"/>
    <g id="Group_8213" data-name="Group 8213" transform="translate(-451.39 -3846.861)">
      <circle id="Ellipse_490" data-name="Ellipse 490" cx="14.77" cy="14.77" r="14.77" transform="translate(6.542 27.43) rotate(-45)" fill="#fff" stroke="#20ab60" stroke-miterlimit="10" stroke-width="2.5"/>
      <path id="Path_24524" data-name="Path 24524" d="M41.314-3846.861h4.22v6.33h-4.22Z" transform="translate(-15.994 3846.861)" fill="#fff" stroke="#20ab60" stroke-miterlimit="10" stroke-width="2.5"/>
      <path id="Path_24525" data-name="Path 24525" d="M41.314-3559.445h4.22v6.33h-4.22Z" transform="translate(-15.994 3607.976)" fill="#fff" stroke="#20ab60" stroke-miterlimit="10" stroke-width="2.5"/>
      <path id="Path_24526" data-name="Path 24526" d="M-108.642-3696.905h6.33v4.22h-6.33Z" transform="translate(108.642 3722.225)" fill="#fff" stroke="#20ab60" stroke-miterlimit="10" stroke-width="2.5"/>
      <path id="Path_24527" data-name="Path 24527" d="M178.774-3696.905h6.33v4.22h-6.33Z" transform="translate(-130.243 3722.225)" fill="#fff" stroke="#20ab60" stroke-miterlimit="10" stroke-width="2.5"/>
      <path id="Path_24528" data-name="Path 24528" d="M-69.9-3805.132l2.984-2.984,4.476,4.476-2.984,2.984Z" transform="translate(76.446 3814.658)" fill="#fff" stroke="#20ab60" stroke-miterlimit="10" stroke-width="2.5"/>
      <path id="Path_24529" data-name="Path 24529" d="M133.347-3601.941l2.984-2.984,4.476,4.476-2.984,2.984Z" transform="translate(-92.487 3645.776)" fill="#fff" stroke="#20ab60" stroke-miterlimit="10" stroke-width="2.5"/>
      <path id="Path_24530" data-name="Path 24530" d="M-69.9-3600.407l4.476-4.476,2.984,2.984-4.476,4.476Z" transform="translate(76.442 3645.741)" fill="#fff" stroke="#20ab60" stroke-miterlimit="10" stroke-width="2.5"/>
      <path id="Path_24531" data-name="Path 24531" d="M133.34-3803.646l4.476-4.476,2.984,2.984-4.476,4.476Z" transform="translate(-92.481 3814.663)" fill="#fff" stroke="#20ab60" stroke-miterlimit="10" stroke-width="2.5"/>
    </g>
    <path id="Path_24532" data-name="Path 24532" d="M-521.021-3659.416v14.771l42.2,78.071h8.44Z" transform="translate(0 -155.795)" fill="#fff" stroke="#20ab60" stroke-miterlimit="10" stroke-width="2.5"/>
    <path id="Path_24533" data-name="Path 24533" d="M-384.917-3591.9l-10.379-18.99h16.484l-2.3-4.22H-397.6l-10.379-18.99h16.509l-2.3-4.22h-16.515l-11.531-21.1h-4.811l11.531,21.1h-14.179l-11.531-21.1h-4.811l11.531,21.1h-18.764l2.3,4.22h18.779l10.379,18.99h-18.779l2.3,4.22h18.8l10.379,18.99h-18.834l2.3,4.22h18.821l11.531,21.1h4.811l-11.531-21.1h14.179l11.531,21.1h4.811l-11.531-21.1h16.458l-2.3-4.22Zm-42.055-42.2h14.18l10.379,18.99h-14.18Zm23.065,42.2-10.379-18.99h14.179l10.379,18.99Z" transform="translate(-56.657 -155.795)" fill="#fff" stroke="#20ab60" stroke-miterlimit="10" stroke-width="2.5"/>
  </g>
</svg>
