<svg xmlns="http://www.w3.org/2000/svg" width="111.05" height="115.367" viewBox="0 0 111.05 115.367">
  <g id="Group_7928" data-name="Group 7928" transform="translate(-217.196 -1112.012)">
    <path id="Path_24294" data-name="Path 24294" d="M299.384,1183.5a6.319,6.319,0,0,0-5.448,3.188.982.982,0,0,1-1.611-.011,6.252,6.252,0,0,0-11.675,3.087c.007,6.987,6.168,12.5,12.22,15.359a.675.675,0,0,0,.573,0,29.182,29.182,0,0,0,5.982-3.856c4.123-3.465,6.211-7.343,6.207-11.528A6.254,6.254,0,0,0,299.384,1183.5Z" transform="translate(-20.419 -23.003)" fill="none" stroke="#3b99d4" stroke-miterlimit="10" stroke-width="2.5"/>
    <path id="Path_24295" data-name="Path 24295" d="M261.6,1243.17a8.886,8.886,0,0,0-4.625,2.079l-2.057,1.776L242.725,1232.9a64.034,64.034,0,0,1,9.7-6.887c3.853-2.217,5.4-2.445,13.613-3.325h0c2.688-.236,4.026.347,15.067,3.48a4.168,4.168,0,0,1,3.105,4.971l17.885-7.374c.351-.174,4.5-2.489,6.8,1.258,2.014,3.535-1.4,6.095-2.08,6.541l-22.787,13.043,0,0a11,11,0,0,1-8.442,1.391l-8.847-2.509A11.322,11.322,0,0,0,261.6,1243.17Z" transform="translate(-7.97 -35.854)" fill="none" stroke="#3b99d4" stroke-miterlimit="10" stroke-width="2.5"/>
    <path id="Path_24296" data-name="Path 24296" d="M248.727,1252.515l-15.317-17.738a1.776,1.776,0,0,0-2.5-.183l-11.881,10.259a1.666,1.666,0,0,0-.164,2.358l15.659,17.844a1.563,1.563,0,0,0,2.172.2l.015-.012,11.837-10.22A1.777,1.777,0,0,0,248.727,1252.515Z" transform="translate(0 -39.635)" fill="none" stroke="#3b99d4" stroke-miterlimit="10" stroke-width="2.5"/>
    <path id="Path_24297" data-name="Path 24297" d="M221.364,1247.069l-2.34,2.021a1.666,1.666,0,0,0-.164,2.358l15.659,17.844a1.564,1.564,0,0,0,2.173.2l.014-.011,2.459-2.123Z" transform="translate(0 -43.872)" fill="none" stroke="#3b99d4" stroke-miterlimit="10" stroke-width="2.5"/>
    <path id="Path_24298" data-name="Path 24298" d="M308.867,1137.229l2.057-1.776,12.193,14.121a64.079,64.079,0,0,1-9.705,6.887c-3.852,2.217-5.4,2.445-13.613,3.326h0c-2.688.236-4.026-.349-15.066-3.48a4.167,4.167,0,0,1-3.105-4.972l-17.885,7.374c-.351.175-4.5,2.489-6.8-1.258-2.014-3.534,1.4-6.093,2.08-6.539l22.786-13.043,0,0a11,11,0,0,1,8.443-1.391l8.847,2.51A10.5,10.5,0,0,0,308.867,1137.229Z" transform="translate(-12.43 -7.232)" fill="none" stroke="#3b99d4" stroke-miterlimit="10" stroke-width="2.5"/>
    <path id="Path_24299" data-name="Path 24299" d="M334.753,1126.51l15.317,17.739a1.777,1.777,0,0,0,2.5.183l11.882-10.259a1.666,1.666,0,0,0,.163-2.358L348.96,1113.97a1.565,1.565,0,0,0-2.172-.2l-.015.013-11.837,10.22A1.775,1.775,0,0,0,334.753,1126.51Z" transform="translate(-38.038)" fill="none" stroke="#3b99d4" stroke-miterlimit="10" stroke-width="2.5"/>
    <path id="Path_24300" data-name="Path 24300" d="M337.318,1126.116l-2.381,2.057a1.775,1.775,0,0,0-.183,2.5l15.317,17.739a1.777,1.777,0,0,0,2.5.183l2.381-2.057Z" transform="translate(-38.038 -4.167)" fill="none" stroke="#3b99d4" stroke-miterlimit="10" stroke-width="2.5"/>
  </g>
</svg>
