<svg xmlns="http://www.w3.org/2000/svg" width="112.043" height="115.088" viewBox="0 0 112.043 115.088">
  <g id="Group_7934" data-name="Group 7934" transform="translate(-1663.063 -947.648)">
    <path id="Path_24305" data-name="Path 24305" d="M1699.607,1001.027l-6.756-5.442a4.88,4.88,0,0,1-.723-.716,4.787,4.787,0,1,1,7.974-5.2l.81,1.57c-.363-1.713-.812-3.84-1.394-6.593l-8.072-15.176A13.974,13.974,0,1,0,1666.77,982.6l16.105,30.277h10.878c-.036-.384-.058-.772-.058-1.166A12.594,12.594,0,0,1,1699.607,1001.027Z" transform="translate(-0.541 -8.823)" fill="none" stroke="#20ab60" stroke-miterlimit="10" stroke-width="2.5"/>
    <g id="Group_7935" data-name="Group 7935" transform="translate(1724.007 979.32)">
      <path id="Path_24306" data-name="Path 24306" d="M1866.44,1041.247h16.754a2,2,0,0,1,2,2v6.786h-20.764v-6.786A2,2,0,0,1,1866.44,1041.247Z" transform="translate(-1858.199 -1041.247)" fill="none" stroke="#20ab60" stroke-miterlimit="10" stroke-width="2.5"/>
      <g id="Group_7934-2" data-name="Group 7934" transform="translate(0 8.79)">
        <path id="Path_24307" data-name="Path 24307" d="M1878.739,1083.87v-8.1l-6.236-7.839H1851.74l-6.237,7.839v8.1Z" transform="translate(-1845.503 -1067.931)" fill="none" stroke="#20ab60" stroke-miterlimit="10" stroke-width="2.5"/>
      </g>
    </g>
    <path id="Path_24308" data-name="Path 24308" d="M1714.949,1074.967c-1.117-2.1-6.245-1.554-11.453,1.216-.567.3-1.109.618-1.627.942l3.981,7.482q.838-.372,1.691-.822C1712.748,1081.014,1716.065,1077.066,1714.949,1074.967Z" transform="translate(-25.177 -83.683)" fill="none" stroke="#20ab60" stroke-miterlimit="10" stroke-width="2.5"/>
    <path id="Path_24309" data-name="Path 24309" d="M1679.446,1030.969q-.851.453-1.627.942l3.98,7.483q.839-.373,1.69-.823c5.209-2.77,8.527-6.718,7.411-8.818S1684.655,1028.2,1679.446,1030.969Z" transform="translate(-9.05 -53.363)" fill="none" stroke="#20ab60" stroke-miterlimit="10" stroke-width="2.5"/>
    <path id="Path_24310" data-name="Path 24310" d="M1828.872,953.126v9.454a.507.507,0,0,0,.507.507h13.9a.507.507,0,0,0,.507-.507v-9.454a4.228,4.228,0,0,0-4.228-4.228H1833.1A4.228,4.228,0,0,0,1828.872,953.126Z" transform="translate(-110.343 0)" fill="none" stroke="#20ab60" stroke-miterlimit="10" stroke-width="2.5"/>
    <g id="Group_7936" data-name="Group 7936" transform="translate(1694.161 1023.954)">
      <path id="Path_24311" data-name="Path 24311" d="M1760.577,1185.2a2.839,2.839,0,1,1-5.677,0v-5.622a2.839,2.839,0,1,1,5.677,0Z" transform="translate(-1754.9 -1176.74)" fill="none" stroke="#20ab60" stroke-miterlimit="10" stroke-width="2.5"/>
      <path id="Path_24312" data-name="Path 24312" d="M1794.1,1240.955a2.839,2.839,0,1,1-5.677,0v-5.621a2.839,2.839,0,1,1,5.677,0Z" transform="translate(-1777.379 -1214.128)" fill="none" stroke="#20ab60" stroke-miterlimit="10" stroke-width="2.5"/>
      <path id="Path_24313" data-name="Path 24313" d="M1827.62,1185.2a2.839,2.839,0,1,1-5.677,0v-5.622a2.839,2.839,0,1,1,5.677,0Z" transform="translate(-1799.858 -1176.74)" fill="none" stroke="#20ab60" stroke-miterlimit="10" stroke-width="2.5"/>
      <path id="Path_24314" data-name="Path 24314" d="M1861.142,1240.955a2.839,2.839,0,1,1-5.677,0v-5.621a2.839,2.839,0,1,1,5.677,0Z" transform="translate(-1822.336 -1214.128)" fill="none" stroke="#20ab60" stroke-miterlimit="10" stroke-width="2.5"/>
      <path id="Path_24315" data-name="Path 24315" d="M1894.663,1185.2a2.839,2.839,0,1,1-5.677,0v-5.622a2.839,2.839,0,1,1,5.677,0Z" transform="translate(-1844.815 -1176.74)" fill="none" stroke="#20ab60" stroke-miterlimit="10" stroke-width="2.5"/>
    </g>
    <path id="Path_24316" data-name="Path 24316" d="M1775.21,1152.232h-56.062l-12.929,21.546,2.2,18.8a5.947,5.947,0,0,0,5.907,5.257h65.707a5.948,5.948,0,0,0,5.908-5.257l2.2-18.8Z" transform="translate(-28.095 -136.352)" fill="none" stroke="#20ab60" stroke-miterlimit="10" stroke-width="2.5"/>
    <path id="Path_24317" data-name="Path 24317" d="M1945,1163.366l1.3-11.134h-7.984Z" transform="translate(-183.735 -136.352)" fill="none" stroke="#20ab60" stroke-miterlimit="10" stroke-width="2.5"/>
    <path id="Path_24318" data-name="Path 24318" d="M1699.87,1163.367l6.682-11.135h-7.984l.938,8.024Z" transform="translate(-22.964 -136.352)" fill="none" stroke="#20ab60" stroke-miterlimit="10" stroke-width="2.5"/>
    <g id="Group_7937" data-name="Group 7937" transform="translate(1664.323 1008.092)">
      <path id="Path_24319" data-name="Path 24319" d="M1935.11,1172.537a3.2,3.2,0,0,1-3.194-1.523l-22.548-37.575a3.2,3.2,0,1,1,5.49-3.294l22.548,37.575a3.2,3.2,0,0,1-2.3,4.817Z" transform="translate(-1828.339 -1128.591)" fill="none" stroke="#20ab60" stroke-miterlimit="10" stroke-width="2.5"/>
      <path id="Path_24320" data-name="Path 24320" d="M1667.075,1172.537a3.2,3.2,0,0,0,3.195-1.523l22.548-37.575a3.2,3.2,0,1,0-5.489-3.294l-22.549,37.575a3.2,3.2,0,0,0,2.295,4.817Z" transform="translate(-1664.323 -1128.591)" fill="none" stroke="#20ab60" stroke-miterlimit="10" stroke-width="2.5"/>
    </g>
    <path id="Path_24321" data-name="Path 24321" d="M1835.855,1007.045c-.907-1.7-4.154-4-6.316-5.393a4.413,4.413,0,0,1-2.014-3.708V991.97h-12.452v5.974a4.412,4.412,0,0,1-2.015,3.708,31.484,31.484,0,0,0-5.454,4.243c-.463,2.189-.835,3.948-1.143,5.406l.811-1.572a4.787,4.787,0,1,1,7.25,5.916l-6.755,5.442a12.594,12.594,0,0,1,5.912,10.679c0,.394-.022.782-.058,1.167h5.7v-8.1l6.237-7.839v-6.786a2,2,0,0,1,2-2h8.806A10.1,10.1,0,0,0,1835.855,1007.045Z" transform="translate(-95.315 -28.883)" fill="none" stroke="#20ab60" stroke-miterlimit="10" stroke-width="2.5"/>
    <path id="Path_24322" data-name="Path 24322" d="M1683.008,1128.149h11l3.741-6.233a3.2,3.2,0,1,1,5.489,3.294l-1.764,2.939h56.062l-1.764-2.939a3.2,3.2,0,1,1,5.49-3.294l3.74,6.233h11a3.142,3.142,0,0,0,3.142-3.142v-5.546a3.143,3.143,0,0,0-3.142-3.143h-93a3.143,3.143,0,0,0-3.142,3.143v5.546A3.142,3.142,0,0,0,1683.008,1128.149Z" transform="translate(-10.423 -112.268)" fill="none" stroke="#20ab60" stroke-miterlimit="10" stroke-width="2.5"/>
    <path id="Path_24323" data-name="Path 24323" d="M1917.374,1090.019h-8.4a1.649,1.649,0,0,1,0-3.3h8.4a1.649,1.649,0,1,1,0,3.3Z" transform="translate(-162.954 -92.421)" fill="none" stroke="#20ab60" stroke-miterlimit="10" stroke-width="2.5"/>
    <g id="Group_7939" data-name="Group 7939" transform="translate(1690.509 964.944)">
      <g id="Group_7938" data-name="Group 7938" transform="translate(2.644 25.335)">
        <path id="Path_24324" data-name="Path 24324" d="M1776.993,1088.286c.036-.384.058-.772.058-1.167a12.6,12.6,0,0,0-25.209,0c0,.394.022.782.058,1.167Z" transform="translate(-1751.842 -1074.515)" fill="none" stroke="#20ab60" stroke-miterlimit="10" stroke-width="2.5"/>
      </g>
      <path id="Path_24325" data-name="Path 24325" d="M1756.015,1053.192h0v0c0-.008,0-.016,0-.022l-2.332-11.034-.81-1.57a4.787,4.787,0,1,0-7.974,5.2,4.88,4.88,0,0,0,.723.715l10.137,8.166.012.009h0a2.026,2.026,0,0,0,1.5.435A3.119,3.119,0,0,1,1756.015,1053.192Z" transform="translate(-1743.815 -1024.66)" fill="none" stroke="#20ab60" stroke-miterlimit="10" stroke-width="2.5"/>
      <path id="Path_24326" data-name="Path 24326" d="M1778.169,1026.135l.005-.022c1.228-5.814,1.234-5.84,4.14-19.588a7.362,7.362,0,1,0-14.393,0l4.141,19.588c0,.007,0,.014,0,.022v0h0a3.117,3.117,0,0,0,6.1,0Z" transform="translate(-1759.87 -997.607)" fill="none" stroke="#20ab60" stroke-miterlimit="10" stroke-width="2.5"/>
      <path id="Path_24327" data-name="Path 24327" d="M1807.264,1039.028a4.782,4.782,0,0,0-7.29,1.535l-.811,1.572c-1.19,5.632-1.437,6.8-2.332,11.032l-.005.022v0a3.12,3.12,0,0,1-1.248,1.9,2.024,2.024,0,0,0,1.495-.435h0l.012-.009,10.136-8.166a4.786,4.786,0,0,0,.041-7.45Z" transform="translate(-1778.526 -1024.66)" fill="none" stroke="#20ab60" stroke-miterlimit="10" stroke-width="2.5"/>
    </g>
  </g>
</svg>
