<svg xmlns="http://www.w3.org/2000/svg" width="124.056" height="110.609" viewBox="0 0 124.056 110.609">
  <g id="Group_8215" data-name="Group 8215" transform="translate(1628.327 3613.42)">
    <path id="Path_24545" data-name="Path 24545" d="M-1505.522-3204.167v7.122a6.324,6.324,0,0,0-3.884,1.308,13.582,13.582,0,0,1-16.54,0,6.464,6.464,0,0,0-7.77,0,13.583,13.583,0,0,1-16.541,0,6.468,6.468,0,0,0-7.773,0,13.577,13.577,0,0,1-16.538,0,6.464,6.464,0,0,0-7.771,0,13.582,13.582,0,0,1-16.54,0,6.468,6.468,0,0,0-7.773,0,13.58,13.58,0,0,1-16.538,0,6.335,6.335,0,0,0-3.886-1.308v-7.122a13.479,13.479,0,0,1,8.269,2.818,6.467,6.467,0,0,0,7.773,0,13.58,13.58,0,0,1,16.538,0,6.467,6.467,0,0,0,7.773,0,13.58,13.58,0,0,1,16.538,0,6.465,6.465,0,0,0,7.773,0,13.584,13.584,0,0,1,16.541,0,6.463,6.463,0,0,0,7.77,0,13.58,13.58,0,0,1,16.538,0,6.467,6.467,0,0,0,7.773,0,13.464,13.464,0,0,1,8.269-2.818Z" transform="translate(0 -311.134)" fill="#fff" stroke="#20ab60" stroke-miterlimit="10" stroke-width="2.5"/>
    <path id="Path_24546" data-name="Path 24546" d="M-1505.522-3276.167v7.122a6.321,6.321,0,0,0-3.884,1.308,13.584,13.584,0,0,1-16.54,0,6.463,6.463,0,0,0-7.77,0,13.584,13.584,0,0,1-16.541,0,6.467,6.467,0,0,0-7.773,0,13.578,13.578,0,0,1-16.538,0,6.463,6.463,0,0,0-7.771,0,13.584,13.584,0,0,1-16.54,0,6.466,6.466,0,0,0-7.773,0,13.581,13.581,0,0,1-16.538,0,6.333,6.333,0,0,0-3.886-1.308v-7.122a13.479,13.479,0,0,1,8.269,2.818,6.467,6.467,0,0,0,7.773,0,13.581,13.581,0,0,1,16.538,0,6.467,6.467,0,0,0,7.773,0,13.58,13.58,0,0,1,16.538,0,6.464,6.464,0,0,0,7.773,0,13.584,13.584,0,0,1,16.541,0,6.463,6.463,0,0,0,7.77,0,13.581,13.581,0,0,1,16.538,0,6.467,6.467,0,0,0,7.773,0,13.464,13.464,0,0,1,8.269-2.818Z" transform="translate(0 -256.227)" fill="#fff" stroke="#20ab60" stroke-miterlimit="10" stroke-width="2.5"/>
    <path id="Path_24547" data-name="Path 24547" d="M-1505.522-3549.488v7.123a6.364,6.364,0,0,0-3.58,1.09,16.811,16.811,0,0,1-2.16,1.427,13.632,13.632,0,0,1-12.83,0,13.464,13.464,0,0,1-2.009-1.318,6.462,6.462,0,0,0-7.618.112,13.564,13.564,0,0,1-13.5,1.766,23.083,23.083,0,0,1-3.915-2.333,6.46,6.46,0,0,0-7,.643,13.552,13.552,0,0,1-16.548-.159,6.486,6.486,0,0,0-7.236-.219,15.714,15.714,0,0,1-3.056,1.892,13.567,13.567,0,0,1-11.234.017,15.9,15.9,0,0,1-3.093-1.909,6.484,6.484,0,0,0-7.3.264,13.959,13.959,0,0,1-2.923,1.735,13.608,13.608,0,0,1-10.795,0c-3.015-1.263-3.544-3.008-6.759-3.008v-22.317h9.5c6.3,0,11.633-3.275,11.633-9.734a37.789,37.789,0,0,1,39.648-37.7,37.714,37.714,0,0,1,35.6,33.326l.933,8.067-6.567-4.779a15.456,15.456,0,0,0-24.5,12.484,15.529,15.529,0,0,0,8.165,13.613,14.739,14.739,0,0,1,7.3,3.084,6.522,6.522,0,0,0,6.845-.045,14.8,14.8,0,0,1,3.922-2.253,13.6,13.6,0,0,1,10.7.5,16.938,16.938,0,0,1,2.761,1.757,6.519,6.519,0,0,0,6.866.033,15.215,15.215,0,0,1,4.435-2.455A13.592,13.592,0,0,1-1505.522-3549.488Z" transform="translate(0 0)" fill="#fff" stroke="#20ab60" stroke-miterlimit="10" stroke-width="2.5"/>
  </g>
</svg>
