<svg xmlns="http://www.w3.org/2000/svg" width="89.714" height="74.521" viewBox="0 0 89.714 74.521">
  <g id="Group_6956" data-name="Group 6956" transform="translate(0.885 0.85)">
    <g id="Group_6954" data-name="Group 6954" transform="translate(0 21.237)">
      <g id="Group_6952" data-name="Group 6952">
        <path id="Path_23256" data-name="Path 23256" d="M1748.8-956.484c-.5-.03-1.016-.045-1.516-.045" transform="translate(-1685.09 956.529)" fill="none" stroke="#eb2127" stroke-miterlimit="10" stroke-width="1.7"/>
        <path id="Path_23257" data-name="Path 23257" d="M1753.549-930.741a25.789,25.789,0,0,1-8.113,18.779A25.787,25.787,0,0,1,1726.2-905q-.75-.046-1.5-.137a25.885,25.885,0,0,1-21.965-19.386,25.6,25.6,0,0,1-.759-5.961,6.008,6.008,0,0,0-4.885-5.78l-24.376-4.793a3.094,3.094,0,0,1-2.094-1.608l-4.732-9.48a3.04,3.04,0,0,1,.137-2.949,3.036,3.036,0,0,1,2.578-1.435h60.677v.045A25.775,25.775,0,0,1,1753.549-930.741Z" transform="translate(-1665.569 956.529)" fill="none" stroke="#eb2127" stroke-miterlimit="10" stroke-width="1.7"/>
      </g>
      <g id="Group_6953" data-name="Group 6953" transform="translate(56.125)">
        <path id="Path_23258" data-name="Path 23258" d="M1740.826-956.484c-.5-.03-1.017-.045-1.516-.045" transform="translate(-1739.31 956.529)" fill="none" stroke="#eb2127" stroke-miterlimit="10" stroke-width="1.7"/>
      </g>
      <path id="Path_23259" data-name="Path 23259" d="M1749.935-915.145a13.652,13.652,0,0,1-18.512-4.994,13.651,13.651,0,0,1,4.737-18.579,13.452,13.452,0,0,1,4.6-1.668,13.652,13.652,0,0,1,15.109,8.8A13.652,13.652,0,0,1,1749.935-915.145Z" transform="translate(-1680.855 952.719)" fill="none" stroke="#eb2127" stroke-miterlimit="10" stroke-width="1.7"/>
      <path id="Path_23260" data-name="Path 23260" d="M1745.333-915.085a13.445,13.445,0,0,1-4.6,1.668,13.64,13.64,0,0,1-11.168-11,13.643,13.643,0,0,1,6.542-14.244,13.452,13.452,0,0,1,4.6-1.668,13.644,13.644,0,0,1,11.169,11A13.645,13.645,0,0,1,1745.333-915.085Z" transform="translate(-1680.804 952.658)" fill="none" stroke="#eb2127" stroke-miterlimit="10" stroke-width="1.7"/>
      <path id="Path_23261" data-name="Path 23261" d="M1713.4-956.529h6.068v6.067a3.034,3.034,0,0,1-3.034,3.034,3.035,3.035,0,0,1-3.034-3.034v-6.067Z" transform="translate(-1676.995 956.529)" fill="none" stroke="#eb2127" stroke-miterlimit="10" stroke-width="1.7"/>
    </g>
    <g id="Group_6955" data-name="Group 6955" transform="translate(47.023 0)">
      <path id="Path_23262" data-name="Path 23262" d="M1728.086-976.243a1.517,1.517,0,0,0-.518,2.082l4.55,7.584a1.52,1.52,0,0,0,1.332.76,1.52,1.52,0,0,0,1.314-.79,1.518,1.518,0,0,0-.046-1.532l-4.55-7.584A1.518,1.518,0,0,0,1728.086-976.243Z" transform="translate(-1727.351 982.527)" fill="none" stroke="#eb2127" stroke-miterlimit="10" stroke-width="1.7"/>
      <path id="Path_23263" data-name="Path 23263" d="M1754.037-975.717l-4.55,7.584a1.519,1.519,0,0,0-.047,1.532,1.52,1.52,0,0,0,1.314.79,1.522,1.522,0,0,0,1.332-.76l4.55-7.584a1.517,1.517,0,0,0-.532-2.058A1.517,1.517,0,0,0,1754.037-975.717Z" transform="translate(-1732.584 982.52)" fill="none" stroke="#eb2127" stroke-miterlimit="10" stroke-width="1.7"/>
      <path id="Path_23264" data-name="Path 23264" d="M1741.3-982.915v13.652a1.516,1.516,0,0,0,1.518,1.517,1.516,1.516,0,0,0,1.516-1.517v-13.652a1.516,1.516,0,0,0-1.516-1.517A1.517,1.517,0,0,0,1741.3-982.915Z" transform="translate(-1730.684 984.432)" fill="none" stroke="#eb2127" stroke-miterlimit="10" stroke-width="1.7"/>
    </g>
  </g>
</svg>
