<svg xmlns="http://www.w3.org/2000/svg" width="76.747" height="99.974" viewBox="0 0 76.747 99.974">
  <g id="Group_8292" data-name="Group 8292" transform="translate(1.25 1.25)">
    <path id="Path_24188" data-name="Path 24188" d="M-2061.181-550.159a14.3,14.3,0,0,0-14.278,14.278v11.613a2.854,2.854,0,0,0,2.855,2.856h20.617l1.37-5.944-4.249-17.187-4.26-5.617Z" transform="translate(2075.459 618.885)" fill="#fff" stroke="#6a70b1" stroke-miterlimit="10" stroke-width="2.5"/>
    <path id="Path_24189" data-name="Path 24189" d="M-1806.233-550.159h-2.054l-4.325,5.875L-1817-526.557l1.569,5.145h20.617a2.854,2.854,0,0,0,2.855-2.856v-11.613A14.3,14.3,0,0,0-1806.233-550.159Z" transform="translate(1866.202 618.885)" fill="#fff" stroke="#6a70b1" stroke-miterlimit="10" stroke-width="2.5"/>
    <path id="Path_24190" data-name="Path 24190" d="M-1968.873-550.159h-20.79l7.14,28.747h10.795l2.856-5.711,2.856,5.711h10.8l7.14-28.747Z" transform="translate(2005.997 618.885)" fill="#fff" stroke="#6a70b1" stroke-miterlimit="10" stroke-width="2.5"/>
    <path id="Path_24191" data-name="Path 24191" d="M-1866.808-521.412l7.14-28.747h-20.791v23.036l2.856,5.711Z" transform="translate(1917.583 618.885)" fill="#fff" stroke="#6a70b1" stroke-miterlimit="10" stroke-width="2.5"/>
    <path id="Path_24192" data-name="Path 24192" d="M-1892.6-520.159h-2.856v23.036h5.712v-23.036Z" transform="translate(1929.727 594.597)" fill="#fff" stroke="#6a70b1" stroke-miterlimit="10" stroke-width="2.5"/>
    <path id="Path_24193" data-name="Path 24193" d="M-1965.469-791.159h-19.99v25.892a19.939,19.939,0,0,0,11.423,17.992v2a8.567,8.567,0,0,0,8.567,8.567,8.567,8.567,0,0,0,8.567-8.567v-2a19.938,19.938,0,0,0,11.422-17.992v-25.892Z" transform="translate(2002.593 814.004)" fill="#fff" stroke="#6a70b1" stroke-miterlimit="10" stroke-width="2.5"/>
    <path id="Path_24194" data-name="Path 24194" d="M-1965.469-791.159h-19.99v5.711a11.423,11.423,0,0,0,11.423,11.423h17.134a11.423,11.423,0,0,0,11.422-11.423v-5.711Z" transform="translate(2002.593 814.004)" fill="#fff" stroke="#6a70b1" stroke-miterlimit="10" stroke-width="2.5"/>
    <path id="Path_24195" data-name="Path 24195" d="M-1964.074-896.881a2.847,2.847,0,0,0-2.847-2.856c-5.712,0-7.147-1.916-9.139-4.568-2.29-3.054-5.14-6.855-13.707-6.855s-11.417,3.8-13.706,6.855c-1.991,2.652-3.427,4.568-9.139,4.568a2.847,2.847,0,0,0-2.847,2.856l-.009,1.487c-.052,7.017.839,12.792,8.567,12.792h34.267c7.779,0,8.62-5.683,8.567-12.792Z" transform="translate(2026.89 911.159)" fill="#fff" stroke="#6a70b1" stroke-miterlimit="10" stroke-width="2.5"/>
    <ellipse id="Ellipse_416" data-name="Ellipse 416" cx="2.936" cy="2.936" rx="2.936" ry="2.936" transform="translate(33.95 11.781)" fill="#fff" stroke="#6a70b1" stroke-miterlimit="10" stroke-width="2.5"/>
  </g>
</svg>
