<svg xmlns="http://www.w3.org/2000/svg" width="72.301" height="74.006" viewBox="0 0 72.301 74.006">
  <g id="Group_8136" data-name="Group 8136" transform="translate(-361.249 -638.798)">
    <path id="Path_4167" data-name="Path 4167" d="M403.241,655.415H417.89v29.3H403.241Z" transform="translate(-20.964 -8.059)" fill="none" stroke="#ec2227" stroke-miterlimit="10" stroke-width="1.5"/>
    <g id="Group_4909" data-name="Group 4909" transform="translate(384.718 651.018)">
      <path id="Path_4168" data-name="Path 4168" d="M416.751,665.3h-7.324a1.221,1.221,0,0,1,0-2.442h7.324a1.221,1.221,0,0,1,0,2.442Z" transform="translate(-408.206 -662.863)" fill="none" stroke="#ec2227" stroke-miterlimit="10" stroke-width="1.5"/>
      <path id="Path_4169" data-name="Path 4169" d="M416.751,675.236h-7.324a1.221,1.221,0,0,1,0-2.442h7.324a1.221,1.221,0,0,1,0,2.442Z" transform="translate(-408.206 -667.911)" fill="none" stroke="#ec2227" stroke-miterlimit="10" stroke-width="1.5"/>
      <path id="Path_4170" data-name="Path 4170" d="M416.751,685.167h-7.324a1.22,1.22,0,1,1,0-2.441h7.324a1.22,1.22,0,1,1,0,2.441Z" transform="translate(-408.206 -672.96)" fill="none" stroke="#ec2227" stroke-miterlimit="10" stroke-width="1.5"/>
      <path id="Path_4171" data-name="Path 4171" d="M416.751,695.1h-7.324a1.221,1.221,0,1,1,0-2.442h7.324a1.221,1.221,0,0,1,0,2.442Z" transform="translate(-408.206 -678.008)" fill="none" stroke="#ec2227" stroke-miterlimit="10" stroke-width="1.5"/>
      <path id="Path_4172" data-name="Path 4172" d="M416.751,705.029h-7.324a1.221,1.221,0,0,1,0-2.442h7.324a1.221,1.221,0,0,1,0,2.442Z" transform="translate(-408.206 -683.056)" fill="none" stroke="#ec2227" stroke-miterlimit="10" stroke-width="1.5"/>
    </g>
    <path id="Path_4173" data-name="Path 4173" d="M463.965,665.347h15.869v24.414H463.965Z" transform="translate(-51.832 -13.108)" fill="none" stroke="#ec2227" stroke-miterlimit="10" stroke-width="1.5"/>
    <path id="Path_4174" data-name="Path 4174" d="M378.206,654.395a2.245,2.245,0,0,1-2.289,2.2,2.336,2.336,0,0,1-1.158-.3,3.927,3.927,0,0,1-5.314,0,2.335,2.335,0,0,1-1.157.3,2.2,2.2,0,1,1,0-4.395,2.32,2.32,0,0,1,.309.02,3.88,3.88,0,0,1,7.011,0,2.329,2.329,0,0,1,.309-.02A2.245,2.245,0,0,1,378.206,654.395Z" transform="translate(-2.033 -5.306)" fill="none" stroke="#ec2227" stroke-miterlimit="10" stroke-width="1.5"/>
    <path id="Path_4175" data-name="Path 4175" d="M479.9,643.956a2.245,2.245,0,0,1-2.289,2.2,2.337,2.337,0,0,1-1.158-.3,3.926,3.926,0,0,1-5.314,0,2.336,2.336,0,0,1-1.158.3,2.2,2.2,0,1,1,0-4.4,2.4,2.4,0,0,1,.309.02,3.88,3.88,0,0,1,7.011,0,2.408,2.408,0,0,1,.309-.02,2.245,2.245,0,0,1,2.289,2.2Z" transform="translate(-53.725)" fill="none" stroke="#ec2227" stroke-miterlimit="10" stroke-width="1.5"/>
    <path id="Path_4176" data-name="Path 4176" d="M408.206,645.483h9.766v4.883h-9.766Z" transform="translate(-23.488 -3.01)" fill="none" stroke="#ec2227" stroke-miterlimit="10" stroke-width="1.5"/>
    <path id="Path_4177" data-name="Path 4177" d="M373.447,685.208H388.1v14.649H373.447Z" transform="translate(-5.819 -23.204)" fill="none" stroke="#ec2227" stroke-miterlimit="10" stroke-width="1.5"/>
    <path id="Path_4178" data-name="Path 4178" d="M433.551,685.208H448.2v14.649H433.551Z" transform="translate(-36.372 -23.204)" fill="none" stroke="#ec2227" stroke-miterlimit="10" stroke-width="1.5"/>
    <path id="Path_4179" data-name="Path 4179" d="M390.827,703.643v-9.766a1.221,1.221,0,1,1,2.441,0v9.766Z" transform="translate(-14.654 -26.99)" fill="none" stroke="#ec2227" stroke-miterlimit="10" stroke-width="1.5"/>
    <path id="Path_4180" data-name="Path 4180" d="M380.9,703.643v-9.766a1.221,1.221,0,1,1,2.441,0v9.766Z" transform="translate(-9.606 -26.99)" fill="none" stroke="#ec2227" stroke-miterlimit="10" stroke-width="1.5"/>
    <path id="Path_4181" data-name="Path 4181" d="M447.1,695.1H442.22a1.221,1.221,0,1,1,0-2.442H447.1a1.221,1.221,0,0,1,0,2.442Z" transform="translate(-40.158 -26.99)" fill="none" stroke="#ec2227" stroke-miterlimit="10" stroke-width="1.5"/>
    <path id="Path_4182" data-name="Path 4182" d="M478.738,695.3h-6.1a1.221,1.221,0,0,1,0-2.442h6.1a1.221,1.221,0,0,1,0,2.442Z" transform="translate(-55.618 -27.095)" fill="none" stroke="#ec2227" stroke-miterlimit="10" stroke-width="1.5"/>
    <path id="Path_4183" data-name="Path 4183" d="M478.738,705.236h-6.1a1.221,1.221,0,0,1,0-2.442h6.1a1.221,1.221,0,0,1,0,2.442Z" transform="translate(-55.618 -32.143)" fill="none" stroke="#ec2227" stroke-miterlimit="10" stroke-width="1.5"/>
    <path id="Path_4184" data-name="Path 4184" d="M478.738,685.374h-6.1a1.22,1.22,0,0,1,0-2.441h6.1a1.22,1.22,0,1,1,0,2.441Z" transform="translate(-55.618 -22.047)" fill="none" stroke="#ec2227" stroke-miterlimit="10" stroke-width="1.5"/>
    <path id="Path_4185" data-name="Path 4185" d="M478.738,675.236h-6.1a1.221,1.221,0,0,1,0-2.441h6.1a1.221,1.221,0,0,1,0,2.441Z" transform="translate(-55.618 -16.894)" fill="none" stroke="#ec2227" stroke-miterlimit="10" stroke-width="1.5"/>
    <path id="Path_4186" data-name="Path 4186" d="M373.447,676.373l7.325-8.545,7.324,8.545Z" transform="translate(-5.819 -14.369)" fill="none" stroke="#ec2227" stroke-miterlimit="10" stroke-width="1.5"/>
    <path id="Path_4187" data-name="Path 4187" d="M443.482,705.069h4.883v4.883h-4.883Z" transform="translate(-41.42 -33.299)" fill="none" stroke="#ec2227" stroke-miterlimit="10" stroke-width="1.5"/>
    <path id="Path_4188" data-name="Path 4188" d="M448.2,677.635H433.551a7.324,7.324,0,1,1,14.648,0Z" transform="translate(-36.372 -15.631)" fill="none" stroke="#ec2227" stroke-miterlimit="10" stroke-width="1.5"/>
    <path id="Path_4189" data-name="Path 4189" d="M392.517,715H362a35.4,35.4,0,1,0,70.8,0Z" transform="translate(0 -38.348)" fill="none" stroke="#ec2227" stroke-miterlimit="10" stroke-width="1.5"/>
    <path id="Path_4190" data-name="Path 4190" d="M402.91,749.976A35.437,35.437,0,0,1,362,715h30.518s1.221,4.883,9.766,8.545c7.531,3.227,9.7,15.938.627,26.43Z" transform="translate(0 -38.348)" fill="none" stroke="#ec2227" stroke-miterlimit="10" stroke-width="1.5"/>
    <path id="Path_4191" data-name="Path 4191" d="M488.331,715A35.306,35.306,0,0,1,476.7,741.233c-2.437-4.05-2.915-7.795-.578-14.025,3.662-9.766-4.883-12.207-4.883-12.207Z" transform="translate(-55.53 -38.348)" fill="none" stroke="#ec2227" stroke-miterlimit="10" stroke-width="1.5"/>
  </g>
</svg>
