<svg xmlns="http://www.w3.org/2000/svg" width="81.014" height="78.459" viewBox="0 0 81.014 78.459">
  <g id="Group_8439" data-name="Group 8439" transform="translate(24435.85 -3556.518)">
    <g id="Group_8429" data-name="Group 8429" transform="translate(-24435 3626.444)">
      <path id="Path_65081" data-name="Path 65081" d="M-1897.244-1010.868h79.314v7.683h-79.314Z" transform="translate(1897.244 1010.868)" fill="none" stroke="#eb2127" stroke-miterlimit="10" stroke-width="1.7"/>
    </g>
    <g id="Group_8430" data-name="Group 8430" transform="translate(-24419.648 3580.391)">
      <path id="Path_65082" data-name="Path 65082" d="M-1847.14-1161.179v20.468h17.91v25.585h7.675v-46.053Z" transform="translate(1847.14 1161.179)" fill="none" stroke="#eb2127" stroke-miterlimit="10" stroke-width="1.7"/>
    </g>
    <g id="Group_8431" data-name="Group 8431" transform="translate(-24422.207 3600.859)">
      <path id="Path_65083" data-name="Path 65083" d="M-1835.023-1094.374v25.585h-20.468v-25.585Z" transform="translate(1855.491 1094.374)" fill="none" stroke="#eb2127" stroke-miterlimit="10" stroke-width="1.7"/>
    </g>
    <g id="Group_8432" data-name="Group 8432" transform="translate(-24376.154 3581.67)">
      <path id="Path_65084" data-name="Path 65084" d="M-1687.372-1157a38.586,38.586,0,0,1,1.382,10.234,38.21,38.21,0,0,1-10.618,26.481l1.663,1.663-10.234,2.558,2.558-10.234,2.4,2.405a33.165,33.165,0,0,0,9.108-22.874,33.322,33.322,0,0,0-1.215-8.954l-.064-1.279Z" transform="translate(1705.179 1157.004)" fill="none" stroke="#eb2127" stroke-miterlimit="10" stroke-width="1.7"/>
    </g>
    <g id="Group_8433" data-name="Group 8433" transform="translate(-24405.578 3557.364)">
      <path id="Path_65085" data-name="Path 65085" d="M-1762.834-1227.38l2.558,10.234-10.234-2.559,2.405-2.4a33.166,33.166,0,0,0-22.873-9.108,33.335,33.335,0,0,0-8.955,1.215l-1.279.064v-5.015a38.607,38.607,0,0,1,10.234-1.382,38.21,38.21,0,0,1,26.48,10.618Z" transform="translate(1801.211 1236.335)" fill="none" stroke="#eb2127" stroke-miterlimit="10" stroke-width="1.7"/>
    </g>
    <g id="Group_8434" data-name="Group 8434" transform="translate(-24433.721 3565.04)">
      <path id="Path_65086" data-name="Path 65086" d="M-1873.88-1211.283l-2.559,10.234-2.4-2.4a33.165,33.165,0,0,0-9.108,22.873,33.335,33.335,0,0,0,1.215,8.955l.064,1.279h-5.015a38.6,38.6,0,0,1-1.382-10.234,38.208,38.208,0,0,1,10.618-26.48l-1.663-1.663Z" transform="translate(1893.069 1211.283)" fill="none" stroke="#eb2127" stroke-miterlimit="10" stroke-width="1.7"/>
    </g>
    <g id="Group_8435" data-name="Group 8435" transform="translate(-24381.271 3600.859)">
      <path id="Path_65087" data-name="Path 65087" d="M-1714.2-1094.374h5.117a7.682,7.682,0,0,1-7.676,7.675h-5.117a7.681,7.681,0,0,1,7.676-7.675Z" transform="translate(1721.88 1094.374)" fill="none" stroke="#eb2127" stroke-miterlimit="10" stroke-width="1.7"/>
    </g>
    <g id="Group_8436" data-name="Group 8436" transform="translate(-24381.271 3588.066)">
      <path id="Path_65088" data-name="Path 65088" d="M-1714.2-1136.127h5.117a7.682,7.682,0,0,1-7.676,7.675h-5.117a7.681,7.681,0,0,1,7.676-7.675Z" transform="translate(1721.88 1136.127)" fill="none" stroke="#eb2127" stroke-miterlimit="10" stroke-width="1.7"/>
    </g>
    <g id="Group_8437" data-name="Group 8437" transform="translate(-24394.064 3595.742)">
      <path id="Path_65089" data-name="Path 65089" d="M-1758.517-1111.075a7.682,7.682,0,0,1,7.676,7.675h-5.117a7.682,7.682,0,0,1-7.675-7.675Z" transform="translate(1763.634 1111.075)" fill="none" stroke="#eb2127" stroke-miterlimit="10" stroke-width="1.7"/>
    </g>
    <g id="Group_8438" data-name="Group 8438" transform="translate(-24394.064 3582.949)">
      <path id="Path_65090" data-name="Path 65090" d="M-1758.517-1152.829a7.682,7.682,0,0,1,7.676,7.675h-5.117a7.681,7.681,0,0,1-7.675-7.675Z" transform="translate(1763.634 1152.829)" fill="none" stroke="#eb2127" stroke-miterlimit="10" stroke-width="1.7"/>
    </g>
    <path id="Path_65091" data-name="Path 65091" d="M-1826.264-1081.848h2.559v2.558h-2.559Z" transform="translate(-22586.988 4686.545)" fill="#eb2127"/>
    <path id="Path_65092" data-name="Path 65092" d="M-1809.563-1081.848H-1807v2.558h-2.559Z" transform="translate(-22598.572 4686.545)" fill="#eb2127"/>
    <path id="Path_65093" data-name="Path 65093" d="M-1842.965-1081.848h2.559v2.558h-2.559Z" transform="translate(-22575.404 4686.545)" fill="#eb2127"/>
    <path id="Path_65094" data-name="Path 65094" d="M-1826.264-1065.147h2.559v2.559h-2.559Z" transform="translate(-22586.988 4674.96)" fill="#eb2127"/>
    <path id="Path_65095" data-name="Path 65095" d="M-1809.563-1065.147H-1807v2.559h-2.559Z" transform="translate(-22598.572 4674.96)" fill="#eb2127"/>
    <path id="Path_65096" data-name="Path 65096" d="M-1842.965-1065.147h2.559v2.559h-2.559Z" transform="translate(-22575.404 4674.96)" fill="#eb2127"/>
    <path id="Path_65097" data-name="Path 65097" d="M-1842.965-1048.445h2.559v2.558h-2.559Z" transform="translate(-22575.404 4663.375)" fill="#eb2127"/>
    <path id="Path_65098" data-name="Path 65098" d="M-1809.563-1048.445H-1807v2.558h-2.559Z" transform="translate(-22598.572 4663.375)" fill="#eb2127"/>
    <path id="Path_65099" data-name="Path 65099" d="M-1826.264-1048.445h2.559v2.558h-2.559Z" transform="translate(-22586.988 4663.375)" fill="#eb2127"/>
    <path id="Path_65100" data-name="Path 65100" d="M-1809.563-1031.744H-1807v2.558h-2.559Z" transform="translate(-22598.572 4651.792)" fill="#eb2127"/>
    <path id="Path_65101" data-name="Path 65101" d="M-1842.965-1031.744h2.559v2.558h-2.559Z" transform="translate(-22575.404 4651.792)" fill="#eb2127"/>
    <path id="Path_65102" data-name="Path 65102" d="M-1826.264-1031.744h2.559v2.558h-2.559Z" transform="translate(-22586.988 4651.792)" fill="#eb2127"/>
    <path id="Path_65103" data-name="Path 65103" d="M-1784.51-1115.25h2.558v2.558h-2.558Z" transform="translate(-22615.949 4709.713)" fill="#eb2127"/>
    <path id="Path_65104" data-name="Path 65104" d="M-1834.614-1115.25h2.558v2.558h-2.558Z" transform="translate(-22581.197 4709.713)" fill="#eb2127"/>
    <path id="Path_65105" data-name="Path 65105" d="M-1817.913-1115.25h2.558v2.558h-2.558Z" transform="translate(-22592.781 4709.713)" fill="#eb2127"/>
    <path id="Path_65106" data-name="Path 65106" d="M-1801.211-1115.25h2.558v2.558h-2.558Z" transform="translate(-22604.367 4709.713)" fill="#eb2127"/>
    <path id="Path_65107" data-name="Path 65107" d="M-1834.614-1131.952h2.558v2.558h-2.558Z" transform="translate(-22581.197 4721.297)" fill="#eb2127"/>
    <path id="Path_65108" data-name="Path 65108" d="M-1784.51-1131.952h2.558v2.558h-2.558Z" transform="translate(-22615.949 4721.297)" fill="#eb2127"/>
    <path id="Path_65109" data-name="Path 65109" d="M-1801.211-1131.952h2.558v2.558h-2.558Z" transform="translate(-22604.367 4721.297)" fill="#eb2127"/>
    <path id="Path_65110" data-name="Path 65110" d="M-1817.913-1131.952h2.558v2.558h-2.558Z" transform="translate(-22592.781 4721.297)" fill="#eb2127"/>
    <path id="Path_65111" data-name="Path 65111" d="M-1834.614-1148.653h2.558v2.558h-2.558Z" transform="translate(-22581.197 4732.881)" fill="#eb2127"/>
    <path id="Path_65112" data-name="Path 65112" d="M-1784.51-1148.653h2.558v2.558h-2.558Z" transform="translate(-22615.949 4732.881)" fill="#eb2127"/>
    <path id="Path_65113" data-name="Path 65113" d="M-1817.913-1148.653h2.558v2.558h-2.558Z" transform="translate(-22592.781 4732.881)" fill="#eb2127"/>
    <path id="Path_65114" data-name="Path 65114" d="M-1801.211-1148.653h2.558v2.558h-2.558Z" transform="translate(-22604.367 4732.881)" fill="#eb2127"/>
    <line id="Line_786" data-name="Line 786" y2="34.792" transform="translate(-24381.271 3590.625)" fill="none" stroke="#eb2127" stroke-miterlimit="10" stroke-width="1.7"/>
  </g>
</svg>
