<svg xmlns="http://www.w3.org/2000/svg" width="78.693" height="78.796" viewBox="0 0 78.693 78.796">
  <g id="insurance-clipboard-document-report-security" transform="translate(0.85 0.861)">
    <path id="Path_23364" data-name="Path 23364" d="M1203.656-333.289a2.657,2.657,0,0,1-2.557,1.936h-50.443a2.655,2.655,0,0,1-2.655-2.655v-63.718a2.655,2.655,0,0,1,2.655-2.656H1162.6" transform="translate(-1148 408.347)" fill="none" stroke="#eb2127" stroke-miterlimit="10" stroke-width="1.7"/>
    <path id="Path_23365" data-name="Path 23365" d="M1222.678-400.382h11.946a2.656,2.656,0,0,1,2.656,2.656v29.509" transform="translate(-1181.526 408.347)" fill="none" stroke="#eb2127" stroke-miterlimit="10" stroke-width="1.7"/>
    <path id="Path_23366" data-name="Path 23366" d="M1200.884-332.337h-43.249v-58.409h9.292" transform="translate(-1152.325 404.021)" fill="none" stroke="#eb2127" stroke-miterlimit="10" stroke-width="1.7"/>
    <path id="Path_23367" data-name="Path 23367" d="M1222.678-390.746h9.292v29.457" transform="translate(-1181.526 404.021)" fill="none" stroke="#eb2127" stroke-miterlimit="10" stroke-width="1.7"/>
    <path id="Path_23368" data-name="Path 23368" d="M1259.6-340.747v18.292a10.587,10.587,0,0,1-5.655,9.385l-11.6,5.509-4.088-1.938-7.089-3.371-.425-.2a10.556,10.556,0,0,1-5.23-6.439,10.39,10.39,0,0,1-.424-2.947v-18.292h1.328a20.879,20.879,0,0,0,6.636-1.076,21.208,21.208,0,0,0,5.311-2.6c.264-.186.531-.371.8-.571l3.185-2.389L1245.53-345a21.4,21.4,0,0,0,12.743,4.249Z" transform="translate(-1182.607 384.555)" fill="none" stroke="#eb2127" stroke-miterlimit="10" stroke-width="1.7"/>
    <path id="Path_23369" data-name="Path 23369" d="M1258.616-330.335v13.288a5.3,5.3,0,0,1-2.747,4.647l-9.2,4.367-9.2-4.367a5.3,5.3,0,0,1-2.747-4.647v-13.288a26.655,26.655,0,0,0,11.946-5,26.67,26.67,0,0,0,11.948,5Z" transform="translate(-1186.933 379.147)" fill="none" stroke="#eb2127" stroke-miterlimit="10" stroke-width="1.7"/>
    <path id="Path_23370" data-name="Path 23370" d="M1198.392-409.526h-4.114c-.037-.182-.084-.36-.134-.536-.013-.047-.03-.091-.045-.137-.04-.129-.084-.257-.132-.383-.02-.051-.041-.1-.061-.151-.051-.121-.1-.24-.16-.358-.021-.045-.043-.089-.066-.133q-.1-.191-.207-.374l-.052-.088a6.634,6.634,0,0,0-4.328-3.024c-.051-.011-.1-.014-.154-.023l-.032,0a6.632,6.632,0,0,0-7.638,5.212h-4.116a2.664,2.664,0,0,0-2.655,2.655v6.638h26.551v-6.638A2.663,2.663,0,0,0,1198.392-409.526Z" transform="translate(-1159.896 414.837)" fill="none" stroke="#eb2127" stroke-miterlimit="10" stroke-width="1.7"/>
    <path id="Path_23371" data-name="Path 23371" d="M1194.754-373.391v-5.31h-5.309v5.31h-5.31v5.31h5.31v5.31h5.309v-5.31h5.31v-5.31Z" transform="translate(-1164.222 398.614)" fill="none" stroke="#eb2127" stroke-miterlimit="10" stroke-width="1.7"/>
    <path id="Path_23372" data-name="Path 23372" d="M1196.425-407.608a2.655,2.655,0,0,1,2.655,2.655,2.655,2.655,0,0,1-2.655,2.655,2.654,2.654,0,0,1-2.654-2.655A2.654,2.654,0,0,1,1196.425-407.608Z" transform="translate(-1168.548 411.591)" fill="none" stroke="#eb2127" stroke-miterlimit="10" stroke-width="1.7"/>
    <path id="Path_23373" data-name="Path 23373" d="M1167.272-342.567h5.31v2.655h-5.31Z" transform="translate(-1156.652 382.392)" fill="none" stroke="#eb2127" stroke-miterlimit="10" stroke-width="1.7"/>
    <path id="Path_23374" data-name="Path 23374" d="M1181.726-342.567h19.911v2.655h-19.911Z" transform="translate(-1163.141 382.392)" fill="none" stroke="#eb2127" stroke-miterlimit="10" stroke-width="1.7"/>
    <path id="Path_23375" data-name="Path 23375" d="M1181.726-328.114h19.911v2.656h-19.911Z" transform="translate(-1163.141 375.904)" fill="none" stroke="#eb2127" stroke-miterlimit="10" stroke-width="1.7"/>
    <path id="Path_23376" data-name="Path 23376" d="M1181.726-313.66h19.911v2.654h-19.911Z" transform="translate(-1163.141 369.415)" fill="none" stroke="#eb2127" stroke-miterlimit="10" stroke-width="1.7"/>
    <path id="Path_23377" data-name="Path 23377" d="M1181.726-299.206h19.911v2.654h-19.911Z" transform="translate(-1163.141 362.926)" fill="none" stroke="#eb2127" stroke-miterlimit="10" stroke-width="1.7"/>
    <path id="Path_23378" data-name="Path 23378" d="M1167.272-328.114h5.31v2.656h-5.31Z" transform="translate(-1156.652 375.904)" fill="none" stroke="#eb2127" stroke-miterlimit="10" stroke-width="1.7"/>
    <path id="Path_23379" data-name="Path 23379" d="M1167.272-313.661h5.31v2.656h-5.31Z" transform="translate(-1156.652 369.415)" fill="none" stroke="#eb2127" stroke-miterlimit="10" stroke-width="1.7"/>
    <path id="Path_23380" data-name="Path 23380" d="M1167.272-299.206h5.31v2.654h-5.31Z" transform="translate(-1156.652 362.926)" fill="none" stroke="#eb2127" stroke-miterlimit="10" stroke-width="1.7"/>
    <path id="Path_23381" data-name="Path 23381" d="M1244.532-313.543l-1.878,1.877,3.982,3.982a1.327,1.327,0,0,0,1.877,0l10.621-10.619-1.878-1.877-9.681,9.682Z" transform="translate(-1190.494 372.342)" fill="none" stroke="#eb2127" stroke-miterlimit="10" stroke-width="1.7"/>
  </g>
</svg>
