<svg xmlns="http://www.w3.org/2000/svg" width="73.821" height="135.655" viewBox="0 0 73.821 135.655">
  <g id="flat" transform="translate(3.333 3090.008)">
    <path id="Path_24534" data-name="Path 24534" d="M27.735-2930.876l-6.881,9.175-11.469,4.587L2.5-2912.526l-4.587-4.587v-4.587l6.881-2.294,11.469-6.881,6.881-13.762,4.721,11.3Z" transform="translate(0 -102.714)" fill="#fff" stroke="#20ab60" stroke-miterlimit="10" stroke-width="2.5"/>
    <path id="Path_24535" data-name="Path 24535" d="M125.916-2821.169l6.881,20.644,13.762,18.35,6.881-11.469-9.175-11.468-6.881-27.525Z" transform="translate(-91.3 -182.602)" fill="#fff" stroke="#20ab60" stroke-miterlimit="10" stroke-width="2.5"/>
    <path id="Path_24536" data-name="Path 24536" d="M34.5-2656.638l-4.587,4.587v4.587h18.35v-9.175Z" transform="translate(-22.825 -308.14)" fill="#fff" stroke="#20ab60" stroke-miterlimit="10" stroke-width="2.5"/>
    <path id="Path_24537" data-name="Path 24537" d="M80.322-2853.439v-3.2H61.973l-16.056,27.524v29.818H59.679v-27.524l9.175-9.175,7.242-7.242A14.428,14.428,0,0,0,80.322-2853.439Z" transform="translate(-34.238 -165.483)" fill="#fff" stroke="#20ab60" stroke-miterlimit="10" stroke-width="2.5"/>
    <path id="Path_24540" data-name="Path 24540" d="M105.31-2956.548v-28.258a5.16,5.16,0,0,0-.864-2.859l-6.017-9.043H86.961l2.294,4.587-6.814,9.385a7.813,7.813,0,0,0-1.09,7.062,7.813,7.813,0,0,0,3.919,4.517l1.692.846v13.762Z" transform="translate(-59.226 -65.573)" fill="#fff" stroke="#20ab60" stroke-miterlimit="10" stroke-width="2.5"/>
    <path id="Path_24541" data-name="Path 24541" d="M131.077-2953.136l5.18,13.813-.769,11.119-2.672,4.937,4.709,4.188,5.612-1.034,2.294-21.5-5.232-14.838a4.854,4.854,0,0,0-6.192-2.964l-.1.037A4.855,4.855,0,0,0,131.077-2953.136Z" transform="translate(-94.76 -91.973)" fill="#fff" stroke="#20ab60" stroke-miterlimit="10" stroke-width="2.5"/>
    <path id="Path_24542" data-name="Path 24542" d="M197.916-2685.169v6.881h9.175l4.587-11.469-6.881-6.881Z" transform="translate(-142.657 -279.609)" fill="#fff" stroke="#20ab60" stroke-miterlimit="10" stroke-width="2.5"/>
    <path id="Path_24543" data-name="Path 24543" d="M93.917-3052.708v9.175a2.293,2.293,0,0,0,2.293,2.294H98.5v4.587h9.175v-4.587l2.294-6.881h-4.587l-2.294-4.587Z" transform="translate(-68.476 -25.629)" fill="#fff" stroke="#20ab60" stroke-miterlimit="10" stroke-width="2.5"/>
    <path id="Path_24544" data-name="Path 24544" d="M90.945-3078.337l-.9-2.692a5.781,5.781,0,0,1,2.278-6.638,5.78,5.78,0,0,1,6.413,0l3.674,2.449h4.236a4.28,4.28,0,0,1,3.828,2.366,4.281,4.281,0,0,1-.267,4.288l-3.21,4.814h-4.587l-2.294-4.587Z" transform="translate(-65.504 0)" fill="#fff" stroke="#20ab60" stroke-miterlimit="10" stroke-width="2.5"/>
  </g>
</svg>
