<svg xmlns="http://www.w3.org/2000/svg" width="119.818" height="117.646" viewBox="0 0 119.818 117.646">
  <g id="Group_7914" data-name="Group 7914" transform="translate(1903.336 2567.25)">
    <g id="Group_7914-2" data-name="Group 7914" transform="translate(-1901 -2566)">
      <path id="Path_24269" data-name="Path 24269" d="M-1573.937-2491c4.156,0,7.021,3.522,7.021,7.695,0,5.771-5.715,9.591-14.042,16.879-8.327-7.288-14.042-11.107-14.042-16.879,0-4.173,2.865-7.695,7.021-7.695,5.336,0,7.021,6.143,7.021,6.143S-1579.273-2491-1573.937-2491Z" transform="translate(1666.616 2508.553)" fill="#fff" stroke="#3b99d4" stroke-miterlimit="10" stroke-width="2.5"/>
      <path id="Path_24270" data-name="Path 24270" d="M-1773.405-2566c6.235,0,10.532,5.031,10.532,10.993,0,8.245-8.57,13.7-21.063,24.113-12.493-10.41-21.063-15.868-21.063-24.113,0-5.961,4.3-10.993,10.532-10.993,8,0,10.532,8.776,10.532,8.776S-1781.409-2566-1773.405-2566Z" transform="translate(1827.468 2566)" fill="#fff" stroke="#3b99d4" stroke-miterlimit="10" stroke-width="2.5"/>
      <path id="Path_24271" data-name="Path 24271" d="M-1799.9-2320h-87.062L-1901-2298.937h14.042v36.51h87.062v-36.51h14.042Z" transform="translate(1901 2377.573)" fill="#fff" stroke="#3b99d4" stroke-miterlimit="10" stroke-width="2.5"/>
    </g>
    <path id="Path_24272" data-name="Path 24272" d="M-1655-2320l14.042,21.184,43.531-.12L-1610.533-2320Z" transform="translate(-188.427 -188.427)" fill="#fff" stroke="#3b99d4" stroke-miterlimit="10" stroke-width="2.5"/>
    <path id="Path_24273" data-name="Path 24273" d="M-1842.823-2320l-14.042,21.184-43.531-.12L-1887.29-2320Z" transform="translate(-0.462 -188.427)" fill="#fff" stroke="#3b99d4" stroke-miterlimit="10" stroke-width="2.5"/>
    <line id="Line_748" data-name="Line 748" y2="57.573" transform="translate(-1843.051 -2508.427)" fill="#fff" stroke="#3b99d4" stroke-miterlimit="10" stroke-width="2.5"/>
  </g>
</svg>
