<svg xmlns="http://www.w3.org/2000/svg" width="142.88" height="109.48" viewBox="0 0 142.88 109.48">
  <g id="Group_7962" data-name="Group 7962" transform="translate(1.35 1.25)">
    <g id="Group_7947" data-name="Group 7947" transform="translate(35.481 0)">
      <path id="Path_24349" data-name="Path 24349" d="M1474.335,1683.507h-56.476a5.951,5.951,0,0,0-5.951,5.951v3.368h68.379v-3.368a5.952,5.952,0,0,0-5.952-5.951Z" transform="translate(-1411.908 -1683.507)" fill="#fff" stroke="#20ab60" stroke-miterlimit="10" stroke-width="2.5"/>
    </g>
    <g id="Group_7948" data-name="Group 7948" transform="translate(25.886 9.319)">
      <path id="Path_24350" data-name="Path 24350" d="M1471.787,1715.784h-77.1a5.234,5.234,0,0,1,0-10.469h77.1a5.234,5.234,0,0,1,0,10.469Z" transform="translate(-1389.452 -1705.316)" fill="#fff" stroke="#20ab60" stroke-miterlimit="10" stroke-width="2.5"/>
    </g>
    <g id="Group_7949" data-name="Group 7949" transform="translate(35.481 19.787)">
      <path id="Path_24351" data-name="Path 24351" d="M1474.334,1817.008h-56.476l-5.951-87.193h68.379Z" transform="translate(-1411.907 -1729.815)" fill="#fff" stroke="#20ab60" stroke-miterlimit="10" stroke-width="2.5"/>
    </g>
    <g id="Group_7950" data-name="Group 7950" transform="translate(66.404 35.31)">
      <path id="Path_24352" data-name="Path 24352" d="M1496.443,1787.14l-12.168-21h11.536a2.161,2.161,0,0,1,1.869,1.078l8.427,14.568Z" transform="translate(-1484.275 -1766.141)" fill="#fff" stroke="#20ab60" stroke-miterlimit="10" stroke-width="2.5"/>
    </g>
    <g id="Group_7951" data-name="Group 7951" transform="translate(67.865 67.782)">
      <path id="Path_24353" data-name="Path 24353" d="M1487.694,1842.136h23.61l-5.776,10.092a2.159,2.159,0,0,1-1.874,1.087h-15.96Z" transform="translate(-1487.694 -1842.136)" fill="#fff" stroke="#20ab60" stroke-miterlimit="10" stroke-width="2.5"/>
    </g>
    <g id="Group_7952" data-name="Group 7952" transform="translate(47.858 64.68)">
      <path id="Path_24354" data-name="Path 24354" d="M1440.873,1837.977l5.785,10.093a2.159,2.159,0,0,0,1.873,1.085h9.178v1.94a1.08,1.08,0,0,0,1.833.773l7.8-7.6a1.079,1.079,0,0,0,0-1.549l-7.8-7.545a1.08,1.08,0,0,0-1.831.776v2.021Z" transform="translate(-1440.873 -1834.875)" fill="#fff" stroke="#20ab60" stroke-miterlimit="10" stroke-width="2.5"/>
    </g>
    <g id="Group_7953" data-name="Group 7953" transform="translate(45.072 45.596)">
      <path id="Path_24355" data-name="Path 24355" d="M1437.139,1812.4l-2.515-4.529a2.161,2.161,0,0,1,.022-2.135l9.043-15.522,9.6,5.6-9.632,16.59Z" transform="translate(-1434.353 -1790.215)" fill="#fff" stroke="#20ab60" stroke-miterlimit="10" stroke-width="2.5"/>
    </g>
    <g id="Group_7954" data-name="Group 7954" transform="translate(51.104 35.31)">
      <path id="Path_24356" data-name="Path 24356" d="M1470.317,1766.141h-11.793a2.158,2.158,0,0,0-1.883,1.1l-4.329,7.729-2.23-1.256a1.079,1.079,0,0,0-1.573,1.218l3.062,11.515a1.079,1.079,0,0,0,1.347.758l11.125-3.263a1.079,1.079,0,0,0,.247-1.964l-2.244-1.33Z" transform="translate(-1448.47 -1766.141)" fill="#fff" stroke="#20ab60" stroke-miterlimit="10" stroke-width="2.5"/>
    </g>
    <g id="Group_7955" data-name="Group 7955" transform="translate(76.419 46.774)">
      <path id="Path_24357" data-name="Path 24357" d="M1525.311,1807.509l-4.344-8.17,1.775-1.063a1.08,1.08,0,0,0-.238-1.958l-10.742-3.3a1.08,1.08,0,0,0-1.366.778l-2.649,10.929a1.08,1.08,0,0,0,1.587,1.19l1.849-1.061,8.389,14.714,5.708-9.974A2.161,2.161,0,0,0,1525.311,1807.509Z" transform="translate(-1507.714 -1792.971)" fill="#fff" stroke="#20ab60" stroke-miterlimit="10" stroke-width="2.5"/>
    </g>
    <g id="Group_7956" data-name="Group 7956" transform="translate(14.768 51.718)">
      <path id="Path_24358" data-name="Path 24358" d="M1373.508,1807.742l5.626-3.057a1.149,1.149,0,0,1,1.543,1.584l-3.252,5.633-5.289,9.162-5.29-9.162-3.252-5.633a1.149,1.149,0,0,1,1.544-1.584l5.627,3.057a2.877,2.877,0,0,0,2.743,0Z" transform="translate(-1363.434 -1804.54)" fill="#fff" stroke="#20ab60" stroke-miterlimit="10" stroke-width="2.5"/>
    </g>
    <g id="Group_7957" data-name="Group 7957" transform="translate(0 62.361)">
      <path id="Path_24359" data-name="Path 24359" d="M1352.344,1874.068h-10.186a13.27,13.27,0,0,1-12.145-18.618l7.065-16.044a16.68,16.68,0,0,1,30.53,0l7.066,16.044a13.27,13.27,0,0,1-12.145,18.618Z" transform="translate(-1328.873 -1829.45)" fill="#fff" stroke="#20ab60" stroke-miterlimit="10" stroke-width="2.5"/>
    </g>
    <g id="Group_7958" data-name="Group 7958" transform="translate(16.72 60.548)">
      <path id="Path_24360" data-name="Path 24360" d="M1379.69,1828.831h-9.875a1.813,1.813,0,1,1,0-3.626h9.875a1.813,1.813,0,1,1,0,3.626Z" transform="translate(-1368.001 -1825.205)" fill="#fff" stroke="#20ab60" stroke-miterlimit="10" stroke-width="2.5"/>
    </g>
    <g id="Group_7959" data-name="Group 7959" transform="translate(108.008 51.718)">
      <path id="Path_24361" data-name="Path 24361" d="M1588.97,1807.742l-5.626-3.057a1.149,1.149,0,0,0-1.544,1.584l3.252,5.633,5.29,9.162,5.29-9.162,3.252-5.633a1.149,1.149,0,0,0-1.544-1.584l-5.626,3.057a2.878,2.878,0,0,1-2.743,0Z" transform="translate(-1581.64 -1804.54)" fill="#fff" stroke="#20ab60" stroke-miterlimit="10" stroke-width="2.5"/>
    </g>
    <g id="Group_7960" data-name="Group 7960" transform="translate(93.239 62.361)">
      <path id="Path_24362" data-name="Path 24362" d="M1570.547,1874.068h10.186a13.27,13.27,0,0,0,12.145-18.618l-7.065-16.044a16.68,16.68,0,0,0-30.53,0l-7.065,16.044a13.27,13.27,0,0,0,12.145,18.618Z" transform="translate(-1547.077 -1829.45)" fill="#fff" stroke="#20ab60" stroke-miterlimit="10" stroke-width="2.5"/>
    </g>
    <g id="Group_7961" data-name="Group 7961" transform="translate(109.958 60.548)">
      <path id="Path_24363" data-name="Path 24363" d="M1588.017,1828.831h9.875a1.813,1.813,0,0,0,0-3.626h-9.875a1.813,1.813,0,1,0,0,3.626Z" transform="translate(-1586.204 -1825.205)" fill="#fff" stroke="#20ab60" stroke-miterlimit="10" stroke-width="2.5"/>
    </g>
  </g>
</svg>
