<svg xmlns="http://www.w3.org/2000/svg" width="78.545" height="81.228" viewBox="0 0 78.545 81.228">
  <g id="Group_8341" data-name="Group 8341" transform="translate(1161.404 1619.852)">
    <path id="Path_65035" data-name="Path 65035" d="M-1128.92-1497.995l.023-.148a4.216,4.216,0,0,1-2.4-3.8c0-.018,0-.036,0-.055a28.591,28.591,0,0,1-12.2-23.414,28.727,28.727,0,0,1,.36-4.518,19.116,19.116,0,0,1-2.81-1.889,15.346,15.346,0,0,1-2.889-3.027,35.266,35.266,0,0,0-1.279,9.434,35.222,35.222,0,0,0,18.917,31.229C-1128.98-1496.535-1128.92-1497.995-1128.92-1497.995Z" transform="translate(-6.693 -53.922)" fill="none" stroke="#eb2127" stroke-miterlimit="10" stroke-width="1.7"/>
    <g id="Group_8341-2" data-name="Group 8341" transform="translate(-1160.554 -1619.002)">
      <path id="Path_65036" data-name="Path 65036" d="M-1089.118-1568.038v7.2a6.726,6.726,0,0,1-.113,1.2,4.213,4.213,0,0,0,3.923-4.2A4.217,4.217,0,0,0-1089.118-1568.038Z" transform="translate(1114.854 1586.347)" fill="none" stroke="#eb2127" stroke-miterlimit="10" stroke-width="1.7"/>
      <path id="Path_65037" data-name="Path 65037" d="M-1133.451-1617.059c0-.068.012-.139.012-.205v-1.123a.648.648,0,0,0-.516-.558,1.215,1.215,0,0,0-.374-.057h-17.785c-3.663,0-6.634,2.045-6.634,4.567v9.1c0,.8.947,1.458,2.114,1.458h2.075a25.36,25.36,0,0,0,15.75-5.482v1.488a3.339,3.339,0,0,0,3.339,3.339h3.443a.62.62,0,0,0,.62-.62v-8.828A3.34,3.34,0,0,0-1133.451-1617.059Z" transform="translate(1159.396 1619.002)" fill="none" stroke="#eb2127" stroke-miterlimit="10" stroke-width="1.7"/>
      <path id="Path_65038" data-name="Path 65038" d="M-1157.187-1560.723v-7.135a4.218,4.218,0,0,0-3.367,4.131,4.214,4.214,0,0,0,3.466,4.146A6.727,6.727,0,0,1-1157.187-1560.723Z" transform="translate(1160.554 1586.232)" fill="none" stroke="#eb2127" stroke-miterlimit="10" stroke-width="1.7"/>
      <path id="Path_65039" data-name="Path 65039" d="M-1130.621-1587.335a3.339,3.339,0,0,1-3.339-3.339v-1.488a25.36,25.36,0,0,1-15.75,5.482h-1.472v10.385c0,3.027,2.1,5.768,4.554,7.751s5.245,3.211,6.631,3.211a5.455,5.455,0,0,0,1.678-.351c3.539-1.227,9.506-5.513,9.506-10.611v-11.039Z" transform="translate(1154.549 1601.804)" fill="none" stroke="#eb2127" stroke-miterlimit="10" stroke-width="1.7"/>
    </g>
    <path id="Path_65040" data-name="Path 65040" d="M-1062.5-1469.481l-1.133-2.533a.977.977,0,0,0-1.808.059,9.507,9.507,0,0,1-2.513,3.724l-.087.078a11,11,0,0,1-7.414,2.871,10.984,10.984,0,0,1-3.709-.644,1.107,1.107,0,0,0-1.482,1.043v9.773h0c2.406,4.119,7.9,7.044,10.044,7.045a5.428,5.428,0,0,0,1.664-.348,17.449,17.449,0,0,0,4.976-2.869c2.454-1.986,4.561-4.732,4.561-7.763v-7.659A5.1,5.1,0,0,1-1062.5-1469.481Z" transform="translate(-51.203 -93.811)" fill="none" stroke="#eb2127" stroke-miterlimit="10" stroke-width="1.7"/>
    <path id="Path_65041" data-name="Path 65041" d="M-1062.783-1496.165v7.595a1.158,1.158,0,0,1-1.13,1.184,5.1,5.1,0,0,1-4.66-3.024l-1.134-2.533a.977.977,0,0,0-1.808.059,9.509,9.509,0,0,1-2.513,3.724l-.087.078a11,11,0,0,1-7.414,2.871,10.985,10.985,0,0,1-3.709-.644,1.107,1.107,0,0,0-1.482,1.043v9.773a1.7,1.7,0,0,1-.5,1.2,1.7,1.7,0,0,1-1.2.5,1.7,1.7,0,0,1-1.7-1.7c0-.033,0-.05,0-14.431,0-6.154,0-5.638,0-5.968a8.944,8.944,0,0,1,8.787-8.818h9.76A8.952,8.952,0,0,1-1062.783-1496.165Z" transform="translate(-45.126 -72.881)" fill="none" stroke="#eb2127" stroke-miterlimit="10" stroke-width="1.7"/>
    <g id="Group_8342" data-name="Group 8342" transform="translate(-1141.397 -1554.262)">
      <path id="Path_65042" data-name="Path 65042" d="M-1021.6-1433.177c0-.008,0-.015,0-.023C-1021.595-1433.192-1021.6-1433.185-1021.6-1433.177Z" transform="translate(1052.362 1435.211)" fill="none" stroke="#eb2127" stroke-miterlimit="10" stroke-width="1.7"/>
      <path id="Path_65043" data-name="Path 65043" d="M-1067.741-1429.745a14.641,14.641,0,0,1-5.309-8.5,4.22,4.22,0,0,1-3.5,2.059c-.464,2.549-2.324,4.836-4.447,6.555a17.452,17.452,0,0,1-4.976,2.869,5.431,5.431,0,0,1-1.664.348c-2.141,0-7.638-2.926-10.044-7.044h0a1.7,1.7,0,0,1-.5,1.2,1.7,1.7,0,0,1-1.2.5,1.7,1.7,0,0,1-1.7-1.7c0-.024,0-.04,0-5.341l-.363,2.346s-.108,2.715-5.64,6.709a.342.342,0,0,0-.1.444c.55,1,2.813,4.408,8.295,5.165,0,0,22.96-.148,22.96,0,5.481-.755,7.745-4.168,8.3-5.164A.344.344,0,0,0-1067.741-1429.745Z" transform="translate(1107.231 1438.799)" fill="none" stroke="#eb2127" stroke-miterlimit="10" stroke-width="1.7"/>
    </g>
    <path id="Path_65044" data-name="Path 65044" d="M-1021.709-1454.98v7.219a6.736,6.736,0,0,1-.113,1.208,4.22,4.22,0,0,0,4.1-4.217A4.219,4.219,0,0,0-1021.709-1454.98Z" transform="translate(-88.891 -105.096)" fill="none" stroke="#eb2127" stroke-miterlimit="10" stroke-width="1.7"/>
    <path id="Path_65045" data-name="Path 65045" d="M-1095-1454.25a4.22,4.22,0,0,0-2.735,3.948,4.22,4.22,0,0,0,2.736,3.949C-1095-1447.96-1095-1450.436-1095-1454.25Z" transform="translate(-40.252 -105.563)" fill="none" stroke="#eb2127" stroke-miterlimit="10" stroke-width="1.7"/>
    <g id="Group_8343" data-name="Group 8343" transform="translate(-1132.564 -1614.562)">
      <path id="Path_65046" data-name="Path 65046" d="M-1057.7-1601.836a15.556,15.556,0,0,1-1.211-2.43,35.139,35.139,0,0,0-12.745-2.378,35.192,35.192,0,0,0-10.991,1.751v7.066a28.45,28.45,0,0,1,10.991-2.2,28.426,28.426,0,0,1,13.957,3.649Z" transform="translate(1082.643 1606.644)" fill="none" stroke="#eb2127" stroke-miterlimit="10" stroke-width="1.7"/>
      <path id="Path_65047" data-name="Path 65047" d="M-998.1-1527.538a28.736,28.736,0,0,1,.26,3.806,28.621,28.621,0,0,1-13.774,24.455,4.187,4.187,0,0,1-.479,1.173,16.6,16.6,0,0,0,2.332,5.4,35.219,35.219,0,0,0,18.54-31.03,35.3,35.3,0,0,0-1.033-8.492A17.86,17.86,0,0,1-998.1-1527.538Z" transform="translate(1037.436 1558.961)" fill="none" stroke="#eb2127" stroke-miterlimit="10" stroke-width="1.7"/>
    </g>
    <path id="Path_65048" data-name="Path 65048" d="M-1019.177-1559.322v-7.1a4.2,4.2,0,0,0-3.35,4.11,4.193,4.193,0,0,0,3.449,4.125A6.687,6.687,0,0,1-1019.177-1559.322Z" transform="translate(-88.44 -33.691)" fill="none" stroke="#eb2127" stroke-miterlimit="10" stroke-width="1.7"/>
    <path id="Path_65049" data-name="Path 65049" d="M-997.487-1585.563c-.171-.153-.526-.037-.458.151l1.044,2.935c.057.16-.2.283-.4.191-4.29-2-8.026-6.61-9.514-8.624-.132-.178-.526-.094-.49.1l.51,2.734c.03.153-.218.259-.4.172a13.826,13.826,0,0,1-6.007-5.361v16.741c0,3.011,2.092,5.739,4.531,7.713s5.219,3.195,6.6,3.195a5.435,5.435,0,0,0,1.671-.35c3.52-1.221,9.457-5.485,9.457-10.558v-5.333A17.154,17.154,0,0,1-997.487-1585.563Z" transform="translate(-94.414 -16.493)" fill="none" stroke="#eb2127" stroke-miterlimit="10" stroke-width="1.7"/>
    <path id="Path_65050" data-name="Path 65050" d="M-993.4-1613.459v15.826c0,.115-.154.2-.316.176a16.216,16.216,0,0,1-7.876-4c-.171-.153-.526-.037-.458.151l1.044,2.935c.057.16-.2.283-.4.191-4.29-2-8.026-6.61-9.514-8.624-.132-.178-.526-.094-.49.1l.51,2.734c.03.153-.218.259-.4.172-8.053-3.782-8.31-12.518-8.31-12.518v-1.133c0-.342.413-.618.923-.618h18.417C-996.478-1618.058-993.4-1616-993.4-1613.459Z" transform="translate(-90.307 -0.605)" fill="none" stroke="#eb2127" stroke-miterlimit="10" stroke-width="1.7"/>
  </g>
</svg>
