<svg xmlns="http://www.w3.org/2000/svg" width="120.196" height="94.04" viewBox="0 0 120.196 94.04">
  <g id="Group_8363" data-name="Group 8363" transform="translate(-3574.623 -986.48)">
    <path id="Path_24502" data-name="Path 24502" d="M3605.3,987.825a29.182,29.182,0,0,0-3.448,58.186v15.374h-7.586a3.448,3.448,0,1,0,0,6.9h7.586v7.586a3.448,3.448,0,1,0,6.9,0v-7.586h7.586a3.448,3.448,0,1,0,0-6.9h-7.586v-15.376a28.963,28.963,0,0,0,9.548-2.852q1.175-.586,2.288-1.273.834-.515,1.63-1.083a29.177,29.177,0,0,0,12.28-23.782h0A29.227,29.227,0,0,0,3605.3,987.825Zm0,43.676a14.482,14.482,0,1,1,14.482-14.482A14.5,14.5,0,0,1,3605.3,1031.5Z" transform="translate(0 -0.045)" fill="none" stroke="#3b99d4" stroke-miterlimit="10" stroke-width="2.5"/>
    <path id="Path_24503" data-name="Path 24503" d="M3865.515,1021.084V997.671l5.673,3.782a3.423,3.423,0,0,0,1.137.488c.042.01.084.023.126.031l.062.008a3.456,3.456,0,0,0,2.757-.714,3.341,3.341,0,0,0,.249-.223l.006-.005a3.491,3.491,0,0,0,.445-.541,3.448,3.448,0,0,0-.956-4.782c-10.922-7.281-11.273-7.547-11.6-7.666a2.309,2.309,0,0,0-.323-.115l-.071-.018-.064-.017c-.078-.021-.156-.038-.233-.054l-.072-.014a3.168,3.168,0,0,0-.563-.049s-.005-.037-.008,0a3.426,3.426,0,0,0-1.355.271c-.459.2.466-.384-11.6,7.66a3.448,3.448,0,1,0,3.825,5.738l5.673-3.782v23.415a29.415,29.415,0,1,0,6.9,0Zm-3.448,43.474a14.482,14.482,0,1,1,14.482-14.482A14.5,14.5,0,0,1,3862.067,1064.558Z" transform="translate(-197.922)" fill="none" stroke="#3b99d4" stroke-miterlimit="10" stroke-width="2.5"/>
  </g>
</svg>
