<svg xmlns="http://www.w3.org/2000/svg" width="93.777" height="112.032" viewBox="0 0 93.777 112.032">
  <g id="Group_7916" data-name="Group 7916" transform="translate(1474.345 2402.265)">
    <path id="Path_24274" data-name="Path 24274" d="M-1336.061-2325.8a12.893,12.893,0,0,0,5.738-10.723v-20.486h-54.766v20.486a12.893,12.893,0,0,0,5.738,10.723l17.012,12.492a2.4,2.4,0,0,1,.982,1.937h0a2.406,2.406,0,0,1-.98,1.937l-17.012,12.492a12.89,12.89,0,0,0-5.74,10.723v20.487h54.766v-20.487a12.893,12.893,0,0,0-5.738-10.723l-17.012-12.492a2.4,2.4,0,0,1-.982-1.937h0a2.406,2.406,0,0,1,.98-1.937Z" transform="translate(-69.75 -34.874)" fill="#fff" stroke="#3b99d4" stroke-miterlimit="10" stroke-width="2.5"/>
    <rect id="Rectangle_4929" data-name="Rectangle 4929" width="73.021" height="7.302" transform="translate(-1463.967 -2300.611)" fill="#fff" stroke="#3b99d4" stroke-miterlimit="10" stroke-width="2.5"/>
    <rect id="Rectangle_4930" data-name="Rectangle 4930" width="73.021" height="7.302" transform="translate(-1463.967 -2399.189)" fill="#fff" stroke="#3b99d4" stroke-miterlimit="10" stroke-width="2.5"/>
    <g id="Group_7915" data-name="Group 7915" transform="translate(-1473.095 -2401.015)">
      <path id="Path_24275" data-name="Path 24275" d="M-1383.644-1890.586h-87.625a1.825,1.825,0,0,0-1.826,1.826,1.825,1.825,0,0,0,1.826,1.825h87.625a1.825,1.825,0,0,0,1.826-1.825A1.825,1.825,0,0,0-1383.644-1890.586Z" transform="translate(1473.095 1996.467)" fill="#fff" stroke="#3b99d4" stroke-miterlimit="10" stroke-width="2.5"/>
      <path id="Path_24276" data-name="Path 24276" d="M-1471.269-2397.364h87.625a1.825,1.825,0,0,0,1.826-1.825,1.825,1.825,0,0,0-1.826-1.825h-87.625a1.825,1.825,0,0,0-1.826,1.825A1.825,1.825,0,0,0-1471.269-2397.364Z" transform="translate(1473.095 2401.015)" fill="#fff" stroke="#3b99d4" stroke-miterlimit="10" stroke-width="2.5"/>
    </g>
    <path id="Path_24277" data-name="Path 24277" d="M-1318.176-2298.75a7.4,7.4,0,0,0,3.3-6.165h0a5.2,5.2,0,0,0-3.936-5.042l-27.48-6.87a9.977,9.977,0,0,0-12.4,9.679v2.233a7.4,7.4,0,0,0,3.3,6.165l16.78,12.315v28.984a9.073,9.073,0,0,1-12.885,8.235h0a5.025,5.025,0,0,0-7.194,4.288v10.8h43.813v-20.563a5.829,5.829,0,0,0-6.921-5.46l-3.74.652a8.041,8.041,0,0,1-9.421-7.921v-19.017Z" transform="translate(-90.675 -66.484)" fill="#fff" stroke="#3b99d4" stroke-miterlimit="10" stroke-width="2.5"/>
  </g>
</svg>
