<?xml version="1.0" encoding="UTF-8"?>
<svg xmlns="http://www.w3.org/2000/svg" viewBox="0 0 165 165">
  <path id="Path_65149" data-name="Path 65149" class="cls-1" d="M165,82.5A82.5,82.5,0,1,1,82.5,0,82.5,82.5,0,0,1,165,82.5Z" fill="#ff0050"></path>
  <path class="fill-white" d="M114,54.82a18.24,18.24,0,0,1-1.91-1.11,26.54,26.54,0,0,1-4.89-4.15,23,23,0,0,1-5.51-11.37h0a14.24,14.24,0,0,1-.22-4H84.86V98.37c0,.86,0,1.72,0,2.56,0,.1,0,.2,0,.31a.76.76,0,0,1,0,.15v0a14.13,14.13,0,0,1-7.1,11.2,13.88,13.88,0,0,1-6.87,1.81A14.11,14.11,0,1,1,75.14,86.9l0-16.91a30.88,30.88,0,0,0-23.78,7,32.4,32.4,0,0,0-7.11,8.77,30.36,30.36,0,0,0-3.67,14,33,33,0,0,0,1.79,11v0A32.07,32.07,0,0,0,46.9,119a33.58,33.58,0,0,0,7.19,6.79v0l0,0a31.05,31.05,0,0,0,17,5.11,30,30,0,0,0,12.59-2.78,30.93,30.93,0,0,0,15.79-16.94,34.72,34.72,0,0,0,2-10.59V66.48c.2.12,2.89,1.89,2.89,1.89a38.17,38.17,0,0,0,9.9,4.09,57.33,57.33,0,0,0,10.16,1.4V57.36C122.37,57.59,118.22,56.94,114,54.82Z"></path>
</svg>
