<svg width="180" height="180" fill="none" xmlns="http://www.w3.org/2000/svg"><path d="m0 20 78.919 75.676L160 180H0V20Z" fill="url(#a)"/><path d="M34.187 112.464c-.133.175-.22.306-.309.481L8 92.619h29.934a42.31 42.31 0 0 1-.794 6.294H16.905l17.282 13.551Zm82.88-19.277-13.49 10.622v1.137c0 2.753-.265 5.201-.662 7.387L128 92.619h-26.451c.088.175.132.393.22.568h15.298Zm-69.434 39.078 2.027 3.76v2.185h1.279v-2.142l2.028-3.759h-1.323l-1.278 2.71-1.234-2.71h-1.5v-.044Zm6.7 5.901h4.1v-1.005h-2.821v-1.617h2.557v-.962h-2.557v-1.399h2.733v-.961h-4.011v5.944Zm7.319-5.944-2.16 5.944h1.234l.44-1.267h2.381l.441 1.267h1.279l-2.072-5.944h-1.543Zm-.177 3.715.882-2.535.838 2.535h-1.72Zm5.114 2.229h1.323v-2.404h1.146c.22 0 .53 0 .661.35.089.219.265 1.748.309 2.054h1.41c-.088-.087-.132-.174-.176-.437-.044-.175-.088-.437-.176-1.136-.088-.787-.176-1.268-1.058-1.355.308-.088 1.234-.35 1.234-1.443 0-.393-.132-.83-.529-1.136-.485-.394-1.146-.394-1.807-.394h-2.293v5.901h-.044Zm1.279-4.983h.881c.397 0 .662 0 .838.131.132.088.309.263.309.656 0 .437-.22.612-.353.699-.22.175-.485.175-.661.175h-1.014v-1.661Zm4.629 3.104c0 .568.044 2.054 2.336 2.054 1.675 0 2.557-.874 2.557-1.923 0-1.137-1.014-1.443-2.072-1.705-.882-.218-1.322-.306-1.322-.874 0-.481.396-.787.97-.787.881 0 .97.7.97.918h1.234c0-.218 0-.656-.353-1.093-.44-.568-1.19-.699-1.807-.699-1.676 0-2.381.874-2.381 1.836 0 1.049.793 1.442 2.204 1.792.75.175 1.146.262 1.146.787 0 .481-.44.83-1.146.83-1.102 0-1.102-.83-1.102-1.136h-1.234Zm9.213-1.006c0 .525.089 1.53.75 2.23.529.568 1.323.83 2.116.83.485 0 1.455-.087 2.116-.83.485-.525.75-1.443.75-2.317 0-.568-.133-1.53-.75-2.229-.573-.656-1.455-.787-2.116-.787-2.16-.044-2.865 1.53-2.865 3.103Zm1.323-.043c0-.656.088-1.312.44-1.705.221-.306.618-.481 1.103-.481.617 0 1.102.306 1.367 1.049.132.35.132.787.132 1.049 0 .962-.22 1.399-.397 1.705-.22.35-.617.568-1.102.568-.617 0-.882-.218-1.102-.481-.353-.48-.44-1.136-.44-1.704Zm5.996 2.928h1.278v-2.535h2.425v-1.005h-2.425v-1.443h2.557v-.961h-3.88v5.944h.045Zm-48.67 5.901c0-1.18-.926-1.967-2.249-1.967-1.675 0-2.733 1.268-2.733 3.148 0 1.486.661 2.972 2.733 2.972.53 0 1.235-.131 1.764-.656.485-.48.529-1.049.529-1.398h-1.367c-.044.786-.529 1.136-1.058 1.136-1.234 0-1.234-1.705-1.234-2.054 0-1.224.396-2.23 1.366-2.23.882 0 .926.831.97 1.049h1.279Zm1.278 1.137c0 .525.088 1.53.75 2.229.529.569 1.322.831 2.116.831.484 0 1.454-.088 2.116-.831.485-.524.75-1.442.75-2.316 0-.569-.133-1.53-.75-2.23-.573-.655-1.455-.787-2.116-.787-2.117-.087-2.866 1.53-2.866 3.104Zm1.367-.044c0-.655.088-1.311.44-1.704.221-.306.618-.481 1.103-.481.617 0 1.102.306 1.366 1.049.133.349.133.787.133 1.049 0 .962-.22 1.399-.397 1.705-.22.349-.617.568-1.102.568-.617 0-.882-.219-1.102-.481-.353-.525-.441-1.136-.441-1.705Zm5.951 2.929h1.19v-5.114l1.587 5.114h1.059l1.63-5.114v5.114h1.28v-5.945h-2.029l-1.366 4.328-1.279-4.328h-2.116v5.945h.044Zm8.553 0h1.19v-5.114l1.587 5.114h1.058l1.631-5.114v5.114h1.279v-5.945h-2.028l-1.367 4.328-1.278-4.328h-2.116v5.945h.044Zm8.596 0h1.279v-5.945h-1.279v5.945Zm4.365 0h1.278v-4.939h1.764v-1.006h-4.85v1.006h1.764v4.939h.044Zm4.364 0h1.19v-5.114l1.588 5.114h1.058l1.63-5.114v5.114h1.28v-5.945H79.55l-1.366 4.328-1.279-4.328H74.79v5.945h.044Zm8.64 0h4.1v-1.005h-2.82v-1.618h2.556v-.961h-2.557v-1.399h2.734v-.962h-4.012v5.945Zm5.732 0h1.19v-4.939l2.337 4.939h1.763v-5.945h-1.19v4.677l-2.248-4.677h-1.852v5.945Zm8.42 0h1.279v-4.939h1.763v-1.006h-4.85v1.006h1.764v4.939h.044Zm-49.992-15.824 2.027 3.76v2.185h1.279v-2.142l2.028-3.759h-1.323l-1.278 2.71-1.234-2.71h-1.5v-.044Zm6.7 5.901h4.1v-1.005h-2.821v-1.617h2.557v-.962h-2.557v-1.399h2.733v-.961h-4.011v5.944Zm7.319-5.944-2.16 5.944h1.234l.44-1.267h2.381l.441 1.267h1.279l-2.072-5.944h-1.543Zm-.177 3.715.882-2.535.838 2.535h-1.72Zm5.114 2.229h1.323v-2.404h1.146c.22 0 .53 0 .661.35.089.219.265 1.748.309 2.054h1.41c-.088-.087-.132-.174-.176-.437-.044-.175-.088-.437-.176-1.136-.088-.787-.176-1.268-1.058-1.355.308-.088 1.234-.35 1.234-1.443 0-.393-.132-.83-.529-1.136-.485-.394-1.146-.394-1.807-.394h-2.293v5.901h-.044Zm1.279-4.983h.881c.397 0 .662 0 .838.131.132.088.309.263.309.656 0 .437-.22.612-.353.699-.22.175-.485.175-.661.175h-1.014v-1.661Zm4.629 3.104c0 .568.044 2.054 2.336 2.054 1.675 0 2.557-.874 2.557-1.923 0-1.137-1.014-1.443-2.072-1.705-.882-.218-1.322-.306-1.322-.874 0-.481.396-.787.97-.787.881 0 .97.7.97.918h1.234c0-.218 0-.656-.353-1.093-.44-.568-1.19-.699-1.807-.699-1.676 0-2.381.874-2.381 1.836 0 1.049.793 1.442 2.204 1.792.75.175 1.146.262 1.146.787 0 .481-.44.83-1.146.83-1.102 0-1.102-.83-1.102-1.136h-1.234Zm9.213-1.006c0 .525.089 1.53.75 2.23.529.568 1.323.83 2.116.83.485 0 1.455-.087 2.116-.83.485-.525.75-1.443.75-2.317 0-.568-.133-1.53-.75-2.229-.573-.656-1.455-.787-2.116-.787-2.16-.044-2.865 1.53-2.865 3.103Zm1.323-.043c0-.656.088-1.312.44-1.705.221-.306.618-.481 1.103-.481.617 0 1.102.306 1.367 1.049.132.35.132.787.132 1.049 0 .962-.22 1.399-.397 1.705-.22.35-.617.568-1.102.568-.617 0-.882-.218-1.102-.481-.353-.48-.44-1.136-.44-1.704Zm5.996 2.928h1.278v-2.535h2.425v-1.005h-2.425v-1.443h2.557v-.961h-3.88v5.944h.045Zm-48.67 5.901c0-1.18-.926-1.967-2.249-1.967-1.675 0-2.733 1.268-2.733 3.148 0 1.486.661 2.972 2.733 2.972.53 0 1.235-.131 1.764-.656.485-.48.529-1.049.529-1.398h-1.367c-.044.786-.529 1.136-1.058 1.136-1.234 0-1.234-1.705-1.234-2.054 0-1.224.396-2.23 1.366-2.23.882 0 .926.831.97 1.049h1.279Zm1.278 1.137c0 .525.088 1.53.75 2.229.529.569 1.322.831 2.116.831.484 0 1.454-.088 2.116-.831.485-.524.75-1.442.75-2.316 0-.569-.133-1.53-.75-2.23-.573-.655-1.455-.787-2.116-.787-2.117-.087-2.866 1.53-2.866 3.104Zm1.367-.044c0-.655.088-1.311.44-1.704.221-.306.618-.481 1.103-.481.617 0 1.102.306 1.366 1.049.133.349.133.787.133 1.049 0 .962-.22 1.399-.397 1.705-.22.349-.617.568-1.102.568-.617 0-.882-.219-1.102-.481-.353-.525-.441-1.136-.441-1.705Zm5.951 2.929h1.19v-5.114l1.587 5.114h1.059l1.63-5.114v5.114h1.28v-5.945h-2.029l-1.366 4.328-1.279-4.328h-2.116v5.945h.044Zm8.553 0h1.19v-5.114l1.587 5.114h1.058l1.631-5.114v5.114h1.279v-5.945h-2.028l-1.367 4.328-1.278-4.328h-2.116v5.945h.044Zm8.596 0h1.279v-5.945h-1.279v5.945Zm4.365 0h1.278v-4.939h1.764v-1.006h-4.85v1.006h1.764v4.939h.044Zm4.364 0h1.19v-5.114l1.588 5.114h1.058l1.63-5.114v5.114h1.28v-5.945H79.55l-1.366 4.328-1.279-4.328H74.79v5.945h.044Zm8.64 0h4.1v-1.005h-2.82v-1.618h2.556v-.961h-2.557v-1.399h2.734v-.962h-4.012v5.945Zm5.732 0h1.19v-4.939l2.337 4.939h1.763v-5.945h-1.19v4.677l-2.248-4.677h-1.852v5.945Zm8.42 0h1.279v-4.939h1.763v-1.006h-4.85v1.006h1.764v4.939h.044Zm-47.391 8.786h.529v-4.502h-.53v-.131h3.792v1.355h-.132v-.088c0-.612-.441-1.136-1.279-1.136h-.793v2.054h.485c.44 0 .66-.262.66-.874v-.088h.133v2.142h-.132v-.174c0-.481-.22-.875-.661-.875h-.485v2.317h.97c1.102 0 1.278-.918 1.278-1.311v-.088h.132v1.53H50.19v-.131h.044Zm5.775-1.661h.132c.176.743.661 1.792 1.587 1.792.573 0 .97-.35.97-.962 0-1.486-2.733-.393-2.733-2.447 0-.875.617-1.443 1.499-1.443.705 0 .925.35 1.19.35.22 0 .22-.175.22-.262h.133v1.529h-.133c-.176-.699-.529-1.486-1.41-1.486-.53 0-.926.35-.926.875 0 1.311 2.733.262 2.733 2.273 0 1.049-.617 1.704-1.543 1.704-.573 0-1.146-.349-1.41-.349a.253.253 0 0 0-.265.262h-.132v-1.836h.088Zm5.643 1.661h.617v-4.502h-.265c-.881 0-1.102.612-1.19 1.355h-.132v-1.486h4.276v1.486h-.088c-.088-.743-.309-1.355-1.19-1.355h-.265v4.502h.617v.131h-2.336v-.131h-.044Zm4.32-.918c.309 0 .53.262.53.525 0 .262-.265.524-.53.524-.264 0-.529-.262-.529-.524 0-.263.22-.525.53-.525Zm3.747.918h.706v-3.453c0-.219-.044-.262-.22-.262-.089 0-.177.043-.353.131l-.574.306-.044-.132c.662-.349 1.411-.83 1.72-1.18h.485v4.634h.617v.131h-2.337v-.175Zm4.1.044c.794-.044 1.587-.437 1.808-1.312.088-.349.088-.612.088-.83-.132.35-.485.481-.882.481-.705 0-1.322-.612-1.322-1.443 0-1.005.837-1.617 1.587-1.617 1.014 0 1.63.874 1.63 1.792 0 1.661-1.454 3.06-2.953 3.06v-.131h.044Zm1.279-1.88c.397 0 .661-.437.661-1.18 0-.831-.044-1.53-.661-1.53-.485 0-.662.35-.662 1.311 0 1.006.177 1.399.662 1.399Zm6.436-2.623c-.397.612-1.763 2.929-1.763 3.585 0 .087.044.131.22.131.22 0 .397.175.397.437a.46.46 0 0 1-.485.481c-.353 0-.485-.262-.485-.525 0-.699 1.102-2.448 1.19-3.365h-2.116l-.132.524h-.132c.132-.437.176-.918.22-1.399h3.086v.131Zm1.984 4.459h.661v-1.18h-1.895v-.306l2.336-3.147h.441v2.71h.529v.743h-.529v1.18h.661v.131h-2.204v-.131Zm.661-3.759-1.366 1.879h1.366v-1.879ZM55.347 67.791h-2.91l-1.101 5.595c-.265 1.355-.882 2.098-2.204 2.098-1.19 0-1.632-.525-1.367-1.923l1.102-5.77h-2.954l-1.19 6.207c-.485 2.36.705 3.89 3.968 3.89 3.218 0 5.025-1.748 5.422-3.89l1.234-6.207Zm-15.12 2.972c0 1.05 3.173 1.05 3.173 3.366 0 2.185-2.204 3.803-5.466 3.803-1.014 0-1.94-.088-2.601-.219l.705-2.666a6.283 6.283 0 0 0 2.116.393c.926 0 1.411-.35 1.411-.83 0-1.137-3.13-1.006-3.13-3.279 0-1.836 1.543-3.715 5.202-3.715 1.058 0 1.763.043 2.38.13l-.617 2.405c-.573-.131-1.146-.262-1.763-.262-.882.044-1.41.35-1.41.874Zm24.731 6.95H61.3l-1.587-4.327c-.176-.481-.397-1.18-.485-1.705-.044.393-.088.787-.22 1.355l-.926 4.677h-2.734l1.852-9.922h3.703l1.543 4.152c.22.569.397 1.18.573 1.836.044-.524.088-1.136.22-1.967l.75-4.021h2.734l-1.764 9.922Zm13.623 0h-3.44l-.308-4.196c-.044-.7-.044-1.53-.044-2.23-.22.525-.529 1.4-.838 2.099l-1.983 4.327h-3.263l-1.014-9.922h3.042l.397 4.59c.044.568.044 1.18.044 1.791h.044c.177-.524.441-1.267.661-1.748l2.072-4.59h2.998l.397 4.503c.044.437.088 1.136.088 1.88h.044c.22-.613.485-1.443.706-1.968l2.028-4.415h2.91l-4.541 9.88Zm17.325-3.103-.573 3.103h-2.954l.573-3.016-2.16-6.906h3.086l.617 2.185c.132.525.309 1.137.441 1.836.353-.7.838-1.355 1.19-1.88l1.411-2.098h3.13l-4.761 6.776Zm-10.669-.525 1.014-1.88c.22-.393.441-.83.662-1.355 0 .438.044.918.132 1.312l.264 1.923h-2.072Zm.485-6.294L80.3 77.713h3.042l.793-1.486h3.395l.22 1.486h3.086l-1.631-9.922h-3.483Zm17.943.087c.793 0 1.499.656 1.499 1.486 0 .874-.706 1.486-1.499 1.486-.838 0-1.543-.655-1.543-1.486 0-.83.705-1.486 1.543-1.486Zm0 .262c-.705 0-1.234.525-1.234 1.268s.529 1.268 1.234 1.268 1.234-.525 1.234-1.268-.529-1.268-1.234-1.268Zm-.309 2.099h-.264v-1.705h.661c.397 0 .617.13.617.48 0 .307-.22.438-.441.481l.485.743h-.308l-.441-.743h-.309v.743Zm0-.962h.309c.309 0 .441-.088.441-.306 0-.175-.088-.262-.397-.262h-.353v.568Zm-63.967 36.237c1.366-3.585 4.232-5.246 8.067-5.246 6.48 0 8.817 6.951 8.817 12.327 0 6.426-1.058 13.551-9.125 13.551-4.233 0-7.98-2.623-7.98-4.022 0-1.136.573-1.617 1.367-1.617 2.204 0 3.88-1.661 3.88-4.022 0-2.273-1.5-4.152-4.321-4.152-3.13 0-4.673 2.841-4.673 5.639 0 5.638 5.863 9.31 12.432 9.31 8.817 0 17.81-5.201 17.81-14.818 0-8.917-8.42-13.682-16.664-13.682-3.174 0-6.48 1.05-8.067 2.404l-.133-.131c.75-2.535 1.367-8.043 1.235-10.665.882-.263 1.366-.306 1.94-.306 1.895 0 5.951 1.136 9.125 1.136 5.952 0 9.302-1.923 9.567-7.912l-.75-.306c-.396.918-1.19 1.53-2.38 1.53-1.367 0-5.952-1.88-11.33-1.88-3.924 0-6.26.307-7.98.744.397 2.666.706 6.382.706 7.868 0 4.196-.926 9.529-2.38 14.075l.837.175Zm61.278-.525c0-15.736-8.729-22.293-15.077-22.293-6.304 0-15.077 6.557-15.077 22.293 0 15.736 8.729 22.293 15.077 22.293 6.348 0 15.077-6.557 15.077-22.293ZM79.55 97.908c0-6.994 0-14.119 6.04-14.119s6.04 7.125 6.04 14.119v14.119c0 6.994 0 14.119-6.04 14.119s-6.04-7.125-6.04-14.119V97.908Zm-40.161 7.606c1.366-3.585 4.232-5.246 8.067-5.246 6.48 0 8.817 6.951 8.817 12.327 0 6.426-1.058 13.551-9.125 13.551-4.233 0-7.98-2.623-7.98-4.022 0-1.136.573-1.617 1.367-1.617 2.204 0 3.88-1.661 3.88-4.022 0-2.273-1.5-4.152-4.321-4.152-3.13 0-4.673 2.841-4.673 5.639 0 5.638 5.863 9.31 12.432 9.31 8.817 0 17.81-5.201 17.81-14.818 0-8.917-8.42-13.682-16.664-13.682-3.174 0-6.48 1.05-8.067 2.404l-.133-.131c.75-2.535 1.367-8.043 1.235-10.665.882-.263 1.366-.306 1.94-.306 1.895 0 5.951 1.136 9.125 1.136 5.952 0 9.302-1.923 9.567-7.912l-.75-.306c-.396.918-1.19 1.53-2.38 1.53-1.367 0-5.952-1.88-11.33-1.88-3.924 0-6.26.307-7.98.744.397 2.666.706 6.382.706 7.868 0 4.196-.926 9.529-2.38 14.075l.837.175Zm61.278-.525c0-15.736-8.729-22.293-15.077-22.293-6.304 0-15.077 6.557-15.077 22.293 0 15.736 8.729 22.293 15.077 22.293 6.348 0 15.077-6.557 15.077-22.293ZM79.55 97.908c0-6.994 0-14.119 6.04-14.119s6.04 7.125 6.04 14.119v14.119c0 6.994 0 14.119-6.04 14.119s-6.04-7.125-6.04-14.119V97.908Zm16.62 36.018-1.543-5.07-.484-1.574c-.177.131-.353.219-.485.35l.66 2.142 1.368 4.458 1.542 5.071h.618l-1.675-5.377ZM68 50l-5.378 15.3h.617l1.72-4.853 1.674 4.852h6.701L68 50ZM48.955 150.974c-.132 0-.308 0-.44-.044l-9.259 6.382 2.16-7.037.045-.132h-6.613l-4.232 13.813 18.868-12.982h-.529ZM105.34 164l-4.232-13.813h-.617l.176.612.926 2.972-2.16-1.486-3.042-2.098H85.28l1.19.831L105.34 164Zm-64.056-34.926-3.086 10.141v.044h6.613l.044-.131.617-2.142-4.188-7.912Z" fill="url(#b)"/><defs><linearGradient id="a" x1="0" y1="100" x2="159.999" y2="99.542" gradientUnits="userSpaceOnUse"><stop stop-color="#8A1C12"/><stop offset="1" stop-color="#3B0B09"/></linearGradient><linearGradient id="b" x1="8.903" y1="106.997" x2="127.796" y2="106.997" gradientUnits="userSpaceOnUse"><stop stop-color="#B39037"/><stop offset="1" stop-color="#DCCB7F"/></linearGradient></defs></svg>