<?xml version="1.0" standalone="no"?>
<!DOCTYPE svg PUBLIC "-//W3C//DTD SVG 20010904//EN"
 "http://www.w3.org/TR/2001/REC-SVG-20010904/DTD/svg10.dtd">
<svg version="1.0" xmlns="http://www.w3.org/2000/svg"
 width="595.000000pt" height="842.000000pt" viewBox="0 0 595.000000 842.000000"
 preserveAspectRatio="xMidYMid meet">

<g transform="translate(0.000000,842.000000) scale(0.100000,-0.100000)"
fill="#000000" stroke="none">
<path d="M3789 6317 c-60 -93 -399 -610 -447 -682 -54 -80 -39 -76 -207 -56
-160 18 -334 -5 -535 -71 -171 -56 -169 -55 -262 -180 -47 -62 -116 -160 -155
-218 -71 -107 -193 -313 -193 -326 0 -12 104 -174 111 -174 4 0 46 46 95 103
48 56 155 170 238 252 330 328 604 485 849 485 104 0 167 -15 266 -62 109 -52
193 -137 311 -315 153 -231 254 -467 315 -738 26 -117 27 -116 50 110 36 344
36 778 0 1050 -56 428 -198 760 -362 852 l-40 23 -34 -53z"/>
<path d="M3160 5293 l0 -57 28 45 c15 24 31 50 36 57 5 9 -3 12 -28 12 l-36 0
0 -57z"/>
<path d="M3252 4990 l-92 -159 0 -173 c1 -201 -8 -201 106 -1 42 74 80 131 84
126 8 -8 22 -33 230 -393 59 -102 150 -260 203 -352 54 -92 100 -174 103 -183
5 -13 -9 -15 -103 -15 l-110 0 -75 128 c-41 70 -115 195 -164 279 l-88 152
-24 -42 c-13 -23 -37 -63 -52 -89 l-28 -46 134 -232 c73 -127 146 -254 160
-281 l27 -49 324 0 324 0 -17 32 c-9 18 -54 96 -99 173 -45 77 -148 255 -230
395 -421 725 -517 890 -519 890 -1 0 -43 -72 -94 -160z"/>
<path d="M1829 4241 c-151 -205 -208 -298 -224 -362 -41 -175 -4 -336 103
-452 154 -166 431 -257 777 -257 89 0 294 16 301 22 1 2 5 38 9 81 l7 77 -51
0 c-130 0 -375 40 -501 81 -230 75 -378 214 -421 395 -25 109 -9 287 41 428
11 33 19 60 18 62 -2 1 -28 -32 -59 -75z"/>
<path d="M3160 3893 c0 -29 -21 -59 -32 -47 -4 3 -20 -2 -37 -10 -16 -9 -39
-16 -51 -16 -19 0 -18 -6 22 -82 l43 -83 108 -3 c59 -1 107 0 107 4 0 6 -74
131 -132 223 l-28 45 0 -31z"/>
<path d="M2645 3724 c-33 -14 -68 -27 -77 -30 -9 -3 -19 -12 -22 -20 -4 -11
10 -14 72 -14 l78 0 22 45 c20 41 20 45 4 44 -9 0 -44 -11 -77 -25z"/>
<path d="M791 3108 c-5 -13 -50 -130 -100 -260 -50 -130 -91 -239 -91 -242 0
-3 22 -6 49 -6 l49 0 24 65 23 65 97 0 96 0 24 -65 23 -65 52 0 51 0 -49 128
c-27 70 -73 189 -101 265 l-51 137 -44 0 c-36 0 -45 -4 -52 -22z m87 -188 c17
-47 33 -93 37 -102 6 -16 -1 -18 -74 -18 l-80 0 28 78 c46 121 51 135 55 131
2 -2 17 -42 34 -89z"/>
<path d="M1272 3117 c-57 -18 -128 -91 -152 -155 -50 -131 19 -295 146 -348
56 -23 152 -18 212 12 48 24 92 65 92 85 0 5 -18 18 -39 29 l-39 19 -16 -23
c-21 -33 -96 -60 -140 -52 -72 14 -136 98 -136 181 0 48 28 111 63 144 52 48
147 44 200 -7 l32 -31 33 20 c17 12 32 27 32 34 0 21 -76 83 -117 94 -47 13
-127 12 -171 -2z"/>
<path d="M1780 3117 c-19 -6 -58 -34 -87 -62 -85 -83 -103 -186 -52 -305 23
-55 82 -114 135 -136 53 -22 151 -18 210 10 45 21 94 66 94 86 0 5 -16 18 -36
29 l-36 21 -27 -29 c-61 -65 -161 -63 -220 4 -67 76 -66 187 2 262 55 60 151
62 210 5 l32 -31 33 20 c17 12 32 27 32 34 0 21 -76 83 -117 94 -48 14 -127
12 -173 -2z"/>
<path d="M2160 2865 l0 -265 180 0 180 0 0 45 0 45 -130 0 -130 0 0 70 0 70
110 0 110 0 0 40 0 40 -110 0 -110 0 0 65 0 65 130 0 130 0 0 45 0 45 -180 0
-180 0 0 -265z"/>
<path d="M2610 2865 l0 -265 185 0 185 0 0 45 0 45 -135 0 -135 0 0 220 0 220
-50 0 -50 0 0 -265z"/>
<path d="M3012 2947 c3 -173 4 -185 29 -232 15 -30 42 -62 68 -80 37 -26 53
-30 120 -33 110 -5 169 27 217 118 16 30 19 63 22 223 l4 187 -45 0 -44 0 -5
-167 c-5 -185 -16 -228 -64 -260 -43 -28 -116 -24 -149 7 -48 44 -55 75 -55
255 l0 165 -51 0 -51 0 4 -183z"/>
<path d="M3540 3085 l0 -45 85 0 85 0 0 -220 0 -220 50 0 50 0 0 220 0 220 85
0 85 0 0 45 0 45 -220 0 -220 0 0 -45z"/>
<path d="M4050 2865 l0 -265 50 0 50 0 0 265 0 265 -50 0 -50 0 0 -265z"/>
<path d="M4384 3106 c-164 -76 -203 -305 -73 -435 49 -49 103 -71 178 -71 79
0 134 24 186 82 50 55 68 101 69 178 1 112 -53 201 -149 246 -67 32 -143 32
-211 0z m181 -85 c118 -67 104 -275 -22 -327 -44 -19 -69 -18 -119 7 -33 15
-49 32 -68 72 -40 80 -30 161 27 224 49 53 115 62 182 24z"/>
<path d="M4830 2865 l0 -265 50 0 50 0 2 171 3 172 135 -171 135 -171 43 0 42
-1 0 265 0 265 -50 0 -50 0 -2 -175 -3 -174 -139 174 c-136 173 -138 175 -177
175 l-39 0 0 -265z"/>
<path d="M3104 2510 c-51 -20 -71 -102 -36 -148 10 -13 46 -32 86 -45 75 -24
98 -46 80 -75 -29 -45 -109 -40 -127 8 -18 48 -75 35 -63 -15 16 -62 95 -97
174 -75 54 14 82 51 82 105 0 52 -30 86 -92 104 -82 23 -98 32 -98 56 0 25 17
35 60 35 28 0 60 -22 60 -41 0 -5 14 -9 30 -9 20 0 30 5 30 15 0 28 -24 67
-51 81 -31 15 -102 18 -135 4z"/>
<path d="M3765 2510 c-84 -34 -121 -174 -72 -270 44 -88 164 -115 236 -54 63
52 81 199 33 263 -45 62 -131 89 -197 61z m130 -74 c29 -29 42 -101 25 -150
-23 -71 -94 -97 -145 -53 -51 43 -53 159 -4 208 28 28 93 26 124 -5z"/>
<path d="M5069 2505 c-55 -30 -62 -116 -12 -155 14 -11 52 -27 84 -36 66 -19
87 -41 69 -74 -23 -43 -101 -37 -128 10 -17 30 -36 37 -60 21 -20 -12 9 -74
44 -97 33 -22 121 -24 158 -5 55 30 70 127 25 167 -10 9 -49 27 -86 38 -36 12
-71 29 -77 38 -16 26 10 48 55 48 30 0 42 -5 55 -25 11 -17 25 -25 46 -25 26
0 29 3 23 23 -12 38 -35 67 -61 77 -36 14 -105 11 -135 -5z"/>
<path d="M739 2483 c-17 -44 -79 -213 -99 -270 l-19 -53 34 0 c31 0 35 4 46
40 l12 40 69 0 70 0 15 -40 c14 -35 20 -40 49 -40 l33 0 -33 93 c-19 51 -48
129 -66 175 -31 81 -32 82 -66 82 -28 0 -36 -5 -45 -27z m67 -105 c9 -29 19
-59 22 -65 3 -9 -9 -13 -42 -13 -25 0 -46 4 -46 9 0 7 14 52 35 109 8 21 13
14 31 -40z"/>
<path d="M1310 2334 l0 -176 101 4 c99 3 101 4 129 35 70 78 63 233 -14 295
-17 14 -41 18 -118 18 l-98 0 0 -176z m181 107 c22 -18 24 -27 24 -105 0 -104
-8 -115 -85 -119 l-55 -2 -3 123 -3 122 50 0 c33 0 56 -6 72 -19z"/>
<path d="M1943 2498 c2 -7 28 -86 58 -175 l54 -163 35 0 35 0 54 163 c30 89
56 168 58 175 4 8 -6 12 -29 12 l-35 0 -39 -129 c-21 -72 -42 -127 -46 -123
-3 4 -23 62 -44 130 l-37 122 -35 0 c-23 0 -33 -4 -29 -12z"/>
<path d="M2600 2335 l0 -175 30 0 30 0 0 175 0 175 -30 0 -30 0 0 -175z"/>
<path d="M4370 2335 l0 -175 30 0 30 0 0 75 0 75 30 0 c27 0 36 -9 78 -74 45
-71 49 -75 85 -75 l38 -1 -27 51 c-15 27 -38 62 -51 76 -26 27 -25 30 9 47 51
26 60 106 17 152 -21 22 -30 24 -131 24 l-108 0 0 -175z m188 113 c7 -7 12
-25 12 -40 0 -34 -33 -50 -94 -46 l-41 3 -3 48 -3 47 58 0 c33 0 64 -5 71 -12z"/>
</g>
</svg>
