<?xml version="1.0" encoding="utf-8"?>
<!-- Generator: Adobe Illustrator 23.1.1, SVG Export Plug-In . SVG Version: 6.00 Build 0)  -->
<svg version="1.0" xmlns="http://www.w3.org/2000/svg" xmlns:xlink="http://www.w3.org/1999/xlink" x="0px" y="0px"
	 viewBox="0 0 1440 810" enable-background="new 0 0 1440 810" xml:space="preserve">
<g id="Sea">
</g>
<g id="Land">
</g>
<g id="Egypt">
</g>
<g id="Lakes">
</g>
<g id="Layer_9">
	<g>
		<defs>
			<rect id="SVGID_1_" width="1440" height="810"/>
		</defs>
		<clipPath id="SVGID_2_">
			<use xlink:href="#SVGID_1_"  overflow="visible"/>
		</clipPath>
		<rect x="-350" y="-217.39" clip-path="url(#SVGID_2_)" fill="#EDFCF6" width="2157.35" height="1618.01"/>
		<path clip-path="url(#SVGID_2_)" fill="#045052" d="M1140.45,890.28l0.39,0.72l1.09-0.7l0.13-1.08l-0.18-0.16l-0.43-0.39
			l-0.54-0.13l-0.56-0.11l0.16,1.14L1140.45,890.28z M1141.89,957.29l-0.54-0.07l0.72,0.54l0.42-0.22l0.89-0.03l1.05,0.03h0.64
			l0.35-0.21l-0.7-0.06l-1.04-0.21l-0.42,0.03l-0.15-0.38l0.28-0.27v-0.19l-0.28-0.25l-0.48-0.66l0.24,0.52l0.06,0.56l0.03,0.59
			l-0.57,0.08L1141.89,957.29z M1129.9,962.55l-0.28-0.48l0.94-0.95l0.26,0.78l0.2,0.32l0.37,0.16l-0.04-0.4l-0.2-0.44l0.05-0.42
			l-0.08-0.75l-0.11-0.25l0.19-0.43l0.15-0.51l-0.8,0.51l-0.37,0.89l-0.95,1.05l0.27,1.34L1129.9,962.55z M1140.45,966.91l0.22,0.48
			l0.38,0.41l0.59,0.85l0.13-0.4l0.32-0.27l-0.2-0.46l0.03-0.38l-0.78-1.26l-1.84,0.13l0.6,0.62L1140.45,966.91z M1175.66,1001.28
			l0.86-0.06l0.13,0.86l0.15-1.4l-0.32-0.18l-0.46-0.65l-0.54-0.14l0.43-0.24l0.14-0.13l-0.22-0.3l-0.49,0.19l-0.37,0.18l-0.13,0.58
			l-0.29,0.35l-0.06,0.78v0.31l0.54-0.08L1175.66,1001.28z M1096.8,922.04l0.92-0.71l0.89-0.13l0.72,0.1l0.87,0.19l0.24,0.26
			l0.22-0.13v-0.3l0.41,0.13l0.37-0.02l0.46,0.4l0.64,0.86l0.44,0.12l0.4,0.54l0.33,0.16l0.83,0.16l0.39,0.48l-0.09-0.56l-0.68-0.65
			l-0.67-0.83l-0.21-0.3l0.1-0.3l0.38,0.24l-0.35-0.65l-0.13-0.07l-0.14-0.33l0.03-0.24l-0.38-0.1l-0.54,0.32l-0.35,0.22l-0.22,0.08
			h-0.4l-1.02-0.18l-0.77-0.33l-0.61,0.35h-0.74l-1.1,0.21l-0.73,0.06l-0.81,0.21l-0.27,0.03l-0.21-0.13l-0.3-0.04l-0.27,0.14
			l0.21,0.25l0.21,0.27l0.19,0.33l-0.04,0.29l-0.01,0.14l1.23,0.37l0.68,0.32l0.35,0.05l-0.22-0.42l-0.72-0.24l-0.49-0.48l0.61,0.37
			L1096.8,922.04z M975.94,562.18l-1.64-0.64l-0.97-0.41l-1.03-0.89l-1.26-0.81l-1.72-0.24l-0.66,0.06l-0.53,0.15l-0.52,0.35
			l-0.43,0.57l0.3,0.89l0.53,1.02l0.7,0.56l1.73-0.83l0.78,0.59l0.73,0.86l0.76,0.46l1.62,0.51l1.83,2.11l1.54,0.24v-0.54l-0.98-1
			l-0.26-1.56L975.94,562.18z M1194.38,1018.2l-0.92-1.33l-3.53-2.61l-1.13-1.05l-0.67-1l-1.05-2.45l-0.4-0.56l-0.63-0.54
			l-1.32-0.89l-0.62-0.13l-0.26,0.3l-0.17,0.51l-0.26,0.49l-1.16,0.1l-1.43-0.78l-11.28-9.75l-1.16-0.95l-1.26-0.35l-2.75-0.37
			l-2.18-1.15l-6.79-8.38l-0.08,0.03l-0.68-0.3l-0.18-0.46l0.18-0.31l0.28-0.3l0.02-0.33l-0.69-1.05l-0.68-0.77l-1.8-1.61
			l-1.61-2.13l-1.61-4.55l-1.22-1.98l-3.71-3.53l-2.15-1.36l-5.87-1.96l-6.18-1.19l-4.22-0.3l-1.13-0.34l-1.05-0.54l-0.97-0.68
			l-0.22-0.33l-0.56-1l-0.29-0.37l-0.57-0.35l-4.64-2.02l-2.39-1.85l-0.97-1.15l-0.54-1.02l-0.64-0.95l-1.24-0.86l-0.25-0.65
			l-0.81-4.07l-0.53-1.42l-0.66-1.19l-0.97-0.77l-1.49-0.06l2.16,3.78l0.92,1.29l-2.05-1.11l-3-5.54l-1.72-1.27l-0.56-1.32l-1-8.3
			l-0.94-2.69l-1.11-2.06l-4.18-7.53l-0.42-1.11l-0.55-5.24l-0.22-0.46l-0.56-1.3l0.11-3.9l-0.3-1.35l-0.48-1.29l-1.32-2.45
			l-1.65-2.31l-0.7-1.27l-0.3-1.22l0.17-1.23l0.74-2.31l0.17-1.3l0.13-7.19l0.94-5.04l-0.03-0.83l-0.21-0.61l-0.64-1.13l-0.19-0.52
			l0.05-1.16l0.49-2.13v-1.23h-1.71l-0.42-3.1l0.65-9.54l0.54-1.09l1.18-1.36l0.59-0.51l0.74-0.4l0.76-0.17l0.8,0.22l0.41,0.56
			l-0.2,0.68l-0.29,0.59l0.08,0.44l0.78,0.27l1.58-0.13l0.51,0.13l1.06,1.16l0.57,0.48l0.7,0.35l0.56-0.03l2.61-0.48l0.67,0.16
			l1.21,0.79l0.73,0.18l4.42-1.59l1.05,0.17l1.77,2.21l0.94,0.61l1.24-0.26l-3.34-4.78l-1.37-1.5l-0.9-0.82l-0.88-0.59l-1.91-0.89
			l-1.32-0.24l-2.21,0.3l-1.16-0.06l-1.91-1.02l-0.93-1.75l-0.71-2.05l-1.18-1.95l-3.15-2.71l-1.92-1.04l-1.69-0.24l0.64,1.32
			l0.4,1.49l-0.91-0.87l-1.75-3.07l-2.37-2.83l-4.02-7.52l-1.64-1.95l-7.36-6.27l-6.72-8.69l-2.94-2.48l-0.67-1.56l0.64-1.14
			l1.05-0.89l0.54-0.91l-0.35-1.16l-2.78-2.89l-1.32-2.17l-0.44-1.08l-1.77-6.55l-1.32-2.42l-1.97-1.81l-1.21-0.78l-0.86-0.78
			l-0.61-0.91l-0.43-1.27l-0.22-1.57l-0.05-3.12l-0.25-1.54l-0.47-1.38l-0.58-0.98l-1.85-1.97l-0.67-1.21l-0.3-2.7l-6.54-11.33
			l-3.55-6.09l-0.92-3.61l-2.26-3.47l-0.45-1.16l-0.73-2.42l-0.49-1.07l-3.3-4.15l-1.38-2.35l-0.78-4.28l-1.86-3.56l-1.05-3.99
			l-6.62-13.09l-0.65-0.91l-2.77-3.03l-5.12-7.59l-0.72-2.4l-0.56-1.1l-6.03-8.33l-2.87-7.24l-2.98-4.4l-6.43-14.82l-1.87-2.75
			l-0.99-2.12l-1.56-2.36l-1.14-2.24l-2.62-7.49l-1.08-2.32l-2.48-3.25l-0.76-2.62l-0.81-1.19l-1.19-0.73l-2.47-0.74l-1.08-0.9
			l-0.7-2.48l1.51-5.14l-0.02-2.21l-0.3-1.14l-0.13-1.48v-1.51l0.19-1.16l0.83-1.59l0.71,0.3l0.85,0.8l1.25-0.08l0.56-0.95
			l-0.05-1.34l-0.51-2.7l-0.39-0.94l-0.94-0.62l-1.1-0.59l-0.97-0.78l-0.73-1.16l-0.96-2.53l-0.65-1.3l-1.54-2.09l-0.51-1.19
			l-0.03-1.35l1.14,0.14l-0.54-1.41l-1.39-1.87l-1.3-1.22l-1.45-1.03l-0.78-1.15l-0.32-1.48l-0.08-1.89l-0.08-0.49l-0.41-0.74
			l-0.03-0.49l0.17-0.32l0.69-0.55l0.18-0.3l0.15-3.24l-0.15-0.89l-1.01-1.45l-1.48-1.08l-3.22-1.57l-2.97-1.99l-2.5-2.39
			l-0.54-1.19l-0.53-3.8l-0.49-1.72l-0.53-0.84l-1.32-1.4l-0.49-0.73l-0.23-0.84l-0.12-1.89l-0.22-0.78l-1.13-1.05l-3.34-1.52
			l-1.26-0.94l-0.06-0.92l0.09-0.8l0.18-0.71l0.29-0.54l-2.15-3.83l-1.27-1.67l-1.8-0.95l0.84-1.44l1.48-1.19l1.34-0.17l0.47,1.71
			h0.59l-0.3-0.79l-0.29-0.46v-0.65h0.59l1.8,2.32l0.78,0.67v-0.59l-0.32-0.45l-0.75-1.59l-0.22-0.35l-0.48-0.13l-1.4-1.02
			l-0.3-0.28l-0.44-0.54l-0.29-0.3l0.71-0.91l0.47-1.14l0.33-1.24l0.11-1.16l-0.51-0.16l-1.08,0.52l-1.11,0.32l-0.48-0.67
			l-0.36-1.32l-0.81-1.05l-1.45-1.51l-0.49-0.95l-0.16-0.61l0.19-0.74l0.46-1.21h0.52l1.61,0.95l2.02,0.76l1.81,1.08l0.88,1.91h1.53
			v-0.54l-0.35-0.65l-0.29-1.67l-0.39-0.67v-0.54l-0.15-1.02l-1.67-3.93l-0.54-0.89l-0.91-0.83l-1.72-3.67l-5.42-4.95l-3.45-0.92
			l-1.67-0.72l-0.67-1.3l-0.8,0.25l-0.89-0.22l-0.6-0.54l0.16-0.71v-0.51l-0.11-0.7l0.11-0.58l-1.64-0.93l-2.53-3.08l-1.29-0.67
			l-1.3-0.25l-0.26-0.65l0.08-0.95l-0.38-1.15l-0.64-0.5l-0.87-0.37l-0.77-0.46l-0.87-1.83l-3.61-3.85l-1.76-2.42l-0.29-0.27
			l-0.15-0.79l-0.36-1.08l-0.51-0.96l-0.59-0.49l0.12-1.83l-1.46-1.86l-3.38-2.77l0.27-0.06h0.21l0.11-0.11l-0.02-0.37l-0.67-0.63
			l-2.18-4.22l-0.54-1.75l-0.24-0.54l-0.7-0.4l-0.87-0.2l-0.72-0.3l-0.72-1.53l-0.93-1.16l-1.82-1.77l-3.64-2.05l-0.84-0.3
			l-0.27-1.8l-3.4-12.82l-1.04-2.61l-1.7-1.83l-2.73-0.48l-3.17-4.47l-0.3-0.19l-1.72-1.91l-0.3-0.87l-0.05-1.74l-0.25-0.95
			l-0.8-1.08l-2.34-2.42l-0.49-0.92l0.13-3.06l0.38-2.56l-0.6-0.91l0.28-0.79l0.83-0.38l0.4-0.99l0.76-0.7l0.43-0.72l-0.08-1.87
			l-2.29-9.4l0.27-1.56V412l-1.03-1.59l-1.02-2.66l-0.75-2.89l-0.32-2.12l-0.78-1.73l-1.83-2.5l-2.18-2.24l-2.37-1.42l-3.51-4.11
			l-0.97-0.84l-3.9-2.5l-0.81-0.92l-0.65-1.83l-0.68-1.24l-0.85-1.21l-0.84-0.65v-0.65l1.08-1.19l0.46-1.47l0.03-3.61l0.45-1.43
			l2.21-4.04l0.78-0.84l0.38-0.7l6.39-8.94l1.35-1.11l-1.7-0.44l-1.08-0.88l-0.48-1.33l0.1-1.58l0.67-1.51l1.3-1.61l1.51-0.94
			l1.23,0.45l1.01-0.54l0.85,0.04l0.57,0.59l0.19,1.13h0.56l-0.08-1.16l-0.38-0.64l-0.43-0.49l-0.19-0.7l0.46,0.35l0.43,0.43
			l0.36,0.49l0.32,0.5l0.43,0.16l0.14,0.16l-0.14,0.16l-0.43,0.16l0.43,0.48l0.09,0.41l-0.33,0.41l-0.67,0.45l3.12,3.09l1.01,1.71
			v2.41l-0.43,0.3l-0.81,0.81l-0.39,0.83l1.63,0.78l1.74,1.8l0.33,0.56l0.26,0.97l1.89,2.31l0.43,0.79l0.31,0.7l0.18,0.93l0.05,1.48
			l-0.13,0.84l-0.67,1.78l-0.16,1.28l0.11,1.24l0.27,1.3l0.09,1.24l-0.46,1.05v0.54l2.39,1.7l0.9,3.58l-0.1,4.07l-0.59,3.2h1.04
			l-0.43-0.43l-0.11-0.56l0.16-0.68l0.37-0.74h0.48l0.04,0.56l-0.13,0.3l-0.22,0.18l-0.16,0.19l0.54,0.1l0.4,0.17l0.32,0.3
			l0.29,0.61h-0.56l3.72,2.67l2.04,0.99l0.3,1.48l-0.3,3.26l0.15,0.05l1.56,3.71l0.52,0.71l0.7,0.26l0.97,0.67l0.57,1.57l0.35,1.8
			l0.43,1.38l1,1.05l1.59,1.16l1.7,0.95l1.23,0.4l3.43,3.56l0.13,0.24l0.21,0.71l0.14,0.24l0.21,0.16l0.63,0.27l0.24,0.16l1.29,1.97
			l0.23,0.13l0.23,0.43l1.14,0.89l0.24,0.46l0.13,0.5l0.95,2.21l0.78,0.76l2.07,1.14l0.8,1.02l0.77-0.3l0.67,0.27l0.43,0.65
			l0.19,0.93l0.46-0.07l0.89,0.96l0.52,1.16l-0.54,0.58l-0.37,0.59l0.16,1.3l0.3,1.27l0.13,0.46l0.33,1.98l-0.13,0.76l-0.65,0.78
			v0.54l0.29,1.09l0.24,3.88l0.52,1.6l0.57,0.48l0.68,0.24l0.57,0.43l0.4,1.75l0.44,0.68l0.94,1.15l-0.78,1.97l-1.02,3.99
			l-0.75,1.73l1.38,2.58l0.49,1.48l0.32,3.47l0.4,1.59l0.83,1.09l1.28,0.44l-1.4-1.24l0.64-1.17l1.27,0.23l0.54,2.82h-0.56v-0.64
			l-0.49,0.64l0.88,0.46l0.84,0.99l0.64,1.05l0.25,0.72l0.35,0.65l0.78,0.84l4.87,3.61v0.49l0.89,1.02l1.47,1.37l1.76,3.12
			l0.35,0.11l0.49,0.92l9.96,5.98l0.76,1.4l1.78,2.66l0.59,1.16l0.54-0.38l0.43,0.65l1.13,4.21l0.13,0.26l0.65,0.78l0.24,0.44h0.56
			v-0.64h0.49l0.16,0.5l0.24,0.28l0.32,0.16l0.35,0.3l-0.13,1.24l0.89,1.85l1.29,1.78l1.08,0.95l0.03,1.5l3.69,2.27l-0.05,2.14
			l1.21,0.29l0.57,0.25l0.53,0.4l0.24,0.34l0.27,0.76l0.28,0.37l0.2,0.11l0.63,0.32l2.67,2.24l0.67,0.84l0.54-0.52l1.02,2.29
			l0.9-0.68l1,0.06l0.97,0.52l4.36,4.01l0.66-0.08l0.4,0.29l5.09,6.19l1.83,1.19l7.34,0.82l1.16,0.37l0.75,0.41l0.68,0.54l1.45,1.5
			l1.32,1.79l0.37,0.75h0.57v-0.62l-0.37-0.05l-0.08-0.06v-0.16l-0.12-0.33l0.3,0.23l0.77,0.37l-0.42-1.02l-0.26-0.37l-0.39-0.39
			v-0.56h0.57v-0.54l-2.77-0.03l-0.21-0.51l-0.29-1.35l0.19-0.02l0.7,0.05l1.02-0.24l1.51-0.65l0.97-0.95l-0.61-1.05l0.66-0.97
			l0.52-1.91l0.54-0.5l0.52,0.37l0.64,0.22l0.24,0.45h0.51l0.74-0.78l0.77-2.61l0.57-1.29l-0.33-0.19l-0.05-0.03l-0.03-0.07
			l-0.16-0.35l0.78-0.11l1.02-0.35l0.59-0.07l0.66-0.27l0.46-1.23l0.99-0.63l0.33-0.73l0.25-0.81l0.24-0.49l0.62-0.3l1.99-0.3
			l-0.56-0.64l1.1-1.54l-0.08-9.61l0.52-2.75l0.04-1.08l0.14-0.27l0.19-0.24l0.18-0.38l0.03-0.61l-0.2-0.5l-0.73-0.67l-0.68-1.4
			l-0.99-1.18l-0.62-1.29l0.56-1.43v-0.54l-0.43-0.94l-0.32-0.97l-0.21-1.11l-0.06-1.46l0.23-1.04l1.08-2.12l0.25-0.97l0.13-0.06
			l0.88-1.45l0.3-0.95l0.73-3.82l0.58-1.14l1.01-0.51l-0.18-0.44l-0.06-0.02l-0.21-0.19l1.5-1.51l1.73-1.29l0.92-1.7l-1-2.64
			l0.38,0.06l0.07-0.13v-0.22l0.09-0.24l0.98-2.45l3.06-4.63l1.05-3.98l1.78-2.53l0.41-1.53l0.18-0.43l0.36-0.44l0.34-0.58
			l0.16-0.89l-0.13-0.64l-0.16-0.52l0.13-0.48l0.67-0.46l-0.45-1.04l-0.24-0.38l-0.27-0.3l0.43-1.03v-1.26l-0.22-1.19l-0.21-0.78
			v-0.54l2.01-1.47l-0.08-5.16l-0.38-1.77l-0.05-0.54l0.21-1.13l0.27-0.45l1.7-1.11l0.71-0.27l0.56-0.48l0.24-1l-0.16-1.05
			l-0.75-1.08l-0.15-0.84l0.18-5.25l-0.18-0.99l0.69-1.11l0.49-1.35l0.26-1.37l0.08-1.24l0.43-0.51l0.89-0.59l0.89-0.81l0.4-1.07
			v-4.48l0.41-1.09l0.59-1.21l0.25-1.24l-0.68-1.21v-0.54l0.66-0.37l0.35-0.49l0.27-0.52l0.3-0.5l0.37-0.33l0.83-0.43l0.35-0.37
			l1.78-2.78l0.88-0.86l-0.47-0.42l-0.09-0.34l0.36-0.24l0.72-0.13l-0.29-0.48l0.19-0.52l0.5-0.46l0.66-0.32l0.01-0.43l-0.09-0.13
			h-0.22l-0.26-0.08l0.96-0.38l0.44-0.71l0.24-0.88l0.43-1.03l0.53-0.8l0.54-0.62l0.67-0.49l0.87-0.45l-0.71-1.27l-1.74-3.61
			l-0.54-2.08l0.16-6.03l-1.97-8.98l-2.99-8.25l-3.34-9.13l-0.48-4.77l0.03-0.54l-0.06-0.54l-0.13-0.52l-0.19-0.48l-2.96-8.46
			l-4.5-12.95l-2.54-7.25l-0.85-1.27l-4.15-3.64l-0.53-0.83l-0.18-1l0.15-1.56l0.73-2.63l0.03-1.2l-0.78-1.08l-1.21-1.65l-0.46-1.5
			l-0.16-3.64l-1.67-7.02l-4.69-12.38l-3.88-10.27l-2.94-7.7l-2.39-7.47l-3.01-9.35l-0.78-2.42l-1.38-4.25l-0.43-1.47l-1.86-3.39
			l-0.08,0.07l-11.58,7.48l-14.72,5.83l-15.72,4.1l-2.53,0.17l-1.76-0.52v0.6l-1.47-0.64l-5.56-0.58l-1.42-0.46l-3.08-1.58
			l-0.99,0.28h-0.53l-0.28-0.24l-0.8-0.41v1.6l-1.22,0.09l-0.97,0.32l0.64,1.62l-8.32,0.66l0.88,0.19l0.71,0.1l0.78-0.11l0.7,0.39
			l-1.08,0.07l0.08,0.15l0.03,0.89l-0.06,0.75h-0.56l-0.32-0.78l-0.54-0.38l-0.61,0.05l-0.57,0.5l-0.56-0.61l0.56-0.65h-0.56
			l-1.11,0.83l-4.07,1.58v0.67h0.49v-0.67h0.52l1.05,0.67v0.55l-0.7-0.1l-0.35-0.01l-0.52,0.11l-1.03-0.17l-1.39,0.33l-2.74,1.1
			l0.83-1.51l0.02-1.36l-0.67-1.14l-1.26-0.88v-0.56l0.37-0.05l0.08,0.15v0.24l0.11,0.23l1.11-0.8l0.97-0.24l0.3-0.49l-0.81-1.52
			l-2.75-3.59l-0.94-0.7v-0.55h2.12v-0.6l-1.29-0.01l-0.88,0.44l-1.47,1.39l-0.87,0.43l-1.88,0.33l-0.95,0.45l-1.21,1.53l-0.94,1.79
			l-1.32,1.36l-2.29,0.22l1.21,0.49l1.81,0.27l1.72,0.02l1.02-0.22l-0.48-0.35v-0.28l0.24-0.26l0.24-0.32l1.59-1.21l0.52-0.6h0.51
			l-0.33,0.97l-0.4,0.75l-0.18,0.64l0.41,0.67l-0.77,0.5l-2.93,0.76v0.61l0.36,0.12l0.72,0.43v0.67l-1.02,0.86l-1.19,0.05
			l-2.54-0.91h1.07l-0.14-0.45l-0.16-0.88l-0.19-0.49l-0.7-1.06l-1.19-0.84l-1.29-0.34l-1.02,0.42v0.56h2.07v0.65l-1.8,0.94
			l-0.79,0.28v-0.61l0.56-0.07l0.24-0.44l-1.07-0.28l-0.29-0.46h-0.49l-0.78,0.63l-3.95,1.24l-4.69,3.02l-0.46-0.07l-0.33,0.07
			l-0.24-0.07l-0.08-0.53h-0.47l-0.48,0.87l-0.86,0.34h-2.34l1.08-0.6v-0.6h-3.7l6.57-1.69l4.15-1.95l2.48-0.7l4.26-3.2l2.45-0.95
			v-0.65h-0.54l-0.84,0.63l-3.15,1.6l-1.32,1.02l-6.78,3.32l-5.66,1.49l-3.2,0.42l-3.37-0.1l-2.74-0.85l-2.27-1.42l-2.01-1.81
			l-2.16-3.71l-1.43-1.08l-3.23-3.14l-1.43-1.85l-0.9-0.83l-2.31-0.62l-1.15-0.75l-0.78-1.14l-0.19-1.48l-0.87-0.11h-0.48
			l-1.02-0.78l-5.18-1.02l-0.99-0.08l-0.94-0.11l0.54,1.48l0.91-0.34l1.57,0.25l1.62,0.59l1.14,0.65l-0.95,0.69l0.21,0.78l1.27,1.63
			l0.4,1.52l-0.02,1.25l-0.37,2.63l-0.26-0.06l-1.81,0.06l1.37,1.3l0.22,1.63l-0.86,1.57l-1.84,1.06l-1.08,0.19l-1.18-0.03
			l-0.97-0.35l-0.84-1.47l-0.83,0.07l-0.6,0.63l0.3,0.96l-0.43-0.05l-0.35,0.04l-0.22-0.12l-0.05-0.53l-0.91,0.59l-0.11,0.11
			l0.11,0.22v0.13l0.05,0.07l0.36,0.1v0.65l-0.4-0.04l-1.21,0.04l0.62,1.22l-1.03-0.19l-1.53-0.78l-1.13-0.25l0.24,0.94l0.49,0.88
			l0.76,0.59l1.1,0.03v0.55l-0.95,0.6l-1.02-0.04l-0.95-0.45l-0.77-0.66v-0.67h0.54v-0.55l-0.54-0.43l-0.63-0.17l-0.67,0.13
			l-0.73,0.47l-0.61-0.44l-0.38-0.17l0.27-0.74l0.38-0.52l0.57-0.35l0.78-0.21v-0.66l-0.73-0.26l-0.46-0.5l-0.24-0.72l-0.11-0.94
			h-0.45l-0.25,0.66l-0.43,0.41l-0.64,0.17l-0.81-0.04v-0.6l1.56-1.37l-0.02-0.94l-0.52-0.77v-0.55l0.54-0.24l0.3-0.34l0.14-0.5
			l0.13-0.74l-0.27,0.21l-0.84,0.39l0.12-1.19l0.12-0.28l0.32-0.4v-0.55l-1.07-0.6l-0.35,0.41l-0.49,0.38l-0.21,0.36l-1.08-0.55
			v-0.6h1.08l-1.73-0.59l-1.45,1.03l-1.18,1.25l-0.9,0.13l-0.42,1.39l-0.65,0.04l-0.36-0.83l0.39-1.26h-0.52v0.66l-0.35-0.1
			l-0.08-0.2v-0.22l-0.08-0.15l-0.3,0.23l-0.19,0.21l-0.18,0.16l-0.38,0.06l-0.08-0.6l0.13-0.28l0.21-0.14l0.27-0.19h-1.05v-0.6
			h1.05l-0.34-0.62l-0.08-0.48l0.09-0.56l0.33-0.82l-0.59,0.43l-0.37,0.59l-0.62,1.45l-0.73-0.86l-1.15-0.8l-1.19-0.59l-0.83-0.22
			l-0.33-0.37v-0.82l-0.1-0.81l-0.62-0.37l-0.7-0.03l-0.53-0.12l-1.08-0.46l0.13,0.33l0.08,0.09l0.11,0.02l0.14,0.16l-0.93,0.44
			l-0.83-0.23l-0.48-0.78l0.16-1.25l0.65-0.56l0.89-0.2l0.52-0.33l-0.43-0.84v-0.55l0.94-0.42l-0.11-0.31l-0.54-0.31l-0.28-0.45
			l0.13-0.9l0.4-0.54l0.51-0.04l0.51,0.53h0.46l0.62-0.58l0.73,0.05l0.83,0.34l1,0.2v-0.66l-1.64-0.04l-0.68-0.58l0.22-1.02
			l1.05-1.35l-0.46-0.66l-0.27-0.28l-0.35-0.26l0.25-0.11l0.21,0.02l0.16-0.1l-0.05-0.47h0.51l0.55,0.58l0.77,0.18l0.75-0.2
			l0.54-0.56l-0.81-0.04l-0.59-0.22l-0.43-0.37l-0.29-0.52v-0.67h0.56v-0.61l-0.59,0.05l-0.43-0.17l-0.54-0.43l-0.32,0.52
			l-0.25,0.11l-0.49-0.07l0.49-1.37l0.54-0.6l0.32,0.1l-0.29,0.67l1.06,0.08l0.8,0.49l0.49,0.82l0.26,1.09h0.52l-0.12-0.46
			l-0.23-0.42l-0.16-0.41h0.52v-0.55h-0.52l0.22-1.22l-1.16-2.1l0.41-0.99h-1.57l0.37-0.62l0.14-0.49l-0.02-0.7l0.27,0.18l0.56,0.19
			l0.25,0.18l0.05-0.28l-0.05-0.59v-0.3l1.05,0.61l0.3-0.9l0.51-0.31l1.29,0.59l0.03-0.38l0.84,0.52l1.1,1.45l0.84,1.43l3.84,4.78
			l-0.95,0.11h-0.96l0.68,0.59l0.64,0.84l0.49,1.05l0.22,1.21h0.56l0.32-0.03l0.81,0.7l2.05,1.1l0.35,0.37l0.21,0.41l0.36,0.31
			l1.56,0.19l0.54,0.18l0.35,0.39l0.19,0.64l-0.6-0.49l-0.22-0.11l-0.35,0.04l-0.4-0.04l7.53,4.73l2.35,0.52l-0.78-0.52l-3.05-2.39
			l-1.1-0.51l-0.47-0.35l-1.91-2.13l-0.91-0.44l-1.86-0.43l-0.81-0.35l-2.46-2.22l-1.2-1.52l-1.02-2.54l-2.4-3.27l-0.4-1.06
			l-1.08-2.37l-2.43-1.25l-2.96-0.05l-2.77,0.91l-6.84,3.9l-11.51,3.3l-3.12,0.09l-2.5-0.55l-7.94-3.7l-3.13-2.43l-12.01-5.48
			l-7.06-2.22l-2.36-0.26l-6.52,0.98l-1.88,0.71l-0.73,0.42l3.45,0.11l3.63,1.57l3.07,2.29l1.48,2.03l-0.51-0.09l-0.49,0.17
			l-0.49,0.33l1.4,0.71l-0.33,0.58l-0.45,0.43l-0.62,0.16l-0.72-0.12l-0.14-0.34l0.03-0.42l-0.19-0.33l-1.29-0.84l-0.71-0.27
			l-2.8-0.21l-0.43,0.1l-0.43,0.42v0.42l0.1,0.46l-0.24,0.53l-1.22,1.06l-0.27,0.59l0.47,0.73l-0.86,1.8l-0.54,0.71l-0.71,0.59
			l-0.51-0.67l-2.61-1.15l-0.17,0.28l-0.03,0.11l-0.01,0.08l-0.25,0.19l-0.04,0.41l0.12,0.07l0.19-0.02l0.2,0.09l-1.02,0.93
			l-1.3,0.81l-1.29,0.43l-1.02-0.29l-0.05-0.42l0.1-0.12l0.22,0.02l0.25-0.09l-0.92-0.48l-1.07,0.1l-0.98,0.29l-0.73,0.1l-1.14-0.5
			l-0.99-0.66l-0.84-0.4l-0.67,0.28l-1.16,0.59l-1.4,1.23l-1.19,1.56l-0.48,1.54h-0.51l-0.89-1.24l-1.59-1.32l-1.54-0.41l-0.66,1.43
			l-0.95,0.86l-2.07,0.64l-2.13,0.12l-1.15-0.69h-0.52l-0.48,0.45l-0.57-0.02l-1.56-0.42v-0.65l1.16-1.77l0.36-0.01l0.64-0.38
			l3.05-0.22l1.32-0.46l2.91-2.02l0.59-0.24l1.05-0.17l0.43-0.21l3.26-2.21l4.05-1.92l5.89-3.39l7.05-2.65l1.16-0.17v-0.6
			l-22.7,8.06l-10.75,2.88l-3.28,0.42l-2.75-0.32l-2.35-0.98l-2.07-1.56l-2.78-1.56l-0.51,1.56l1.16,2.64l2.13,1.61l-1.53-0.29
			l-1.06-1.2l-0.7-1.67l-0.38-1.71h-0.51l0.65,3.11l-0.3,3.72l-1.05,3.59l-1.67,2.71l-4.66,4.19l-2.67,1.51l-2.84,0.72v0.61
			l4.5-0.23l1.24-0.38v0.61l-0.25,0.04l-0.56-0.09l-0.21,0.05v0.54l1.35-0.31l1.13-0.57l1.08-0.26l1.16,0.6l-0.79,2.39l-0.29,0.58
			l-0.57-0.26l-0.35-0.49l-0.17-0.72l0.03-0.95h-0.46l-0.11,0.71l-0.1,0.36l-0.16,0.3l-0.22,0.51l-0.24-0.21l-0.06-0.03l-0.21-0.42
			l-2.29,2.19l-0.3,0.59l-0.35,0.08l-0.67-0.13l-0.43-0.51l0.4-1.02l-3.17,1.88l-0.81-0.49l-0.83-0.64l-0.27-0.68l0.92-0.61
			l-0.28-0.08l-0.24-0.01l-0.1-0.12l0.06-0.44l0.61-0.39l0.89-0.98l0.62-0.39l-2.8-0.29l-3.13-0.97l-2.15-1.71l0.21-2.54l-2.07,1.15
			l-0.06,0.45l0.11,0.11l0.22,0.01l0.24,0.1l-0.73,0.52l-0.48,0.59l-0.62,0.5l-1.05,0.2l-0.62,0.48l-1.54,2.11l-0.99,0.49
			l-1.05,0.68l-3.55,3.2l-0.87,0.97h-0.56l-0.46-0.93l-0.62,0.02l-0.57,0.62l-0.43,0.9l0.61-0.34l0.3-0.07l0.67,1l-3.52,3.15
			l-2.21,1.04l-2.14-0.5l-1.17,2.34l-11.23,8.18l-0.59,0.65l-0.54,0.9l-3.64,1.85l-4.04,3.03l-11.26,5.46l-10.43,5.04l-2.29,0.43
			l-12.28,0.54l-13.25-6.97l-1.43-0.44l-0.51-0.39l-0.3-0.82l-0.54-2.37l-0.45-0.49l-1.86-0.25l-1.48-0.62l-2.72-1.54l-13.55-4.85
			l-1.26-0.68l-0.84-0.32l-1-0.2l-2.74,0.04l-0.67-0.37l-0.89-0.96l-1.19-0.84l-1.38-0.62l-1.48-0.27l-1.75,0.33l-3.32,1.66
			l-1.53,0.38l-1.48-0.19l-3.26-0.83l-1.72-0.2l-2.29,0.26l-0.95-0.26l-0.62-0.44l-0.59-0.58l-0.7-0.51l-0.89-0.23l-13.68,0.03
			l-3.7-0.53l-2.25-1.37l-0.24-0.72l-0.3-2.9l-1.35-3.21l-0.19-0.72l-0.13-1.74l-0.38-1.26l-0.81-0.6l-1.29,0.21l-8.86,4.32
			l-4.53,0.81l-3.84-2.04l-1.7,0.89l-1.7-0.34l-1.88-0.78l-4.8-0.73l-2.4-0.81l-2.21-1.25l-1.83-1.55l-0.76-1.24l-0.75-2.64l-0.54-1
			l-0.22-0.52l-0.11-1.34l-0.25-0.26l-0.38-0.21l-0.35-0.49l-0.56-1.14l-0.17-0.62l0.14-0.33l0.03-0.31l-0.56-0.62l-0.54-0.36
			l-0.54-0.17l-4.8,0.09l-0.9-0.11l-0.31,0.35l-0.73,0.44l-0.48,0.41l-1.24-0.93l-1.89-0.55l-5.17-0.54l-4.82-1.61l-2.08-1.21
			l-0.87-0.2l-0.7-0.05l-0.75-0.32l-1.07-1l-1.32-0.87l-1.33,0.13l-2.78,1.04l-3.5-0.03l-3.12-0.98l-5.47-2.65l-1.53-0.15
			l-3.79,0.27l-1.22-0.42l-1.26-0.7l-22.01-2.95L360.91,203l-7.49-0.38l-3.4,0.53l-14.32,4.84l-12.39,3.56l-2.21,0.26l-1.89,0.48
			l-1.4,0.81l-0.92-0.18l-0.92-0.41l-0.7-0.22l-3.5,0.52l-1.6-0.02l-2.93-1.52l-3.88-0.24l-1.64-0.46l-1.4-1.79l-0.83-2.84
			l-0.93-5.83l0.09-0.68l-4.78,3.82l-2.15,3.04l-2.8,7.56L276.52,224l-0.95,2.83l-0.03,3.26l0.76,7.47l0.07,7.28l1.78,9.47l0.51,1.8
			l2.69,5.49l0.97,4.51l3.34,7.11l1.05,3.57l-0.48,3.04l-1.16,3.03l-0.95,3.53l-0.8,4.85l-2.29,6.08l-0.27,1.75l-0.71,2.98
			l-1.5,3.01l-4.45,6.76l-2.32,2.37l-2.07,2.61l-0.73,1.24l-1.27,3.02l-3.15,5.69l-1.23,3.09l-0.03,3.39l0.69,1.89l2.16,3.88
			l6.57,16.43l0.33,1.97l-0.08,1.75l-1.27,4.56l0.52,3.63l3.9,6.57l1.11,3.62l-0.03,2.12l-0.67,6.33l0.16,3.37l0.78,3.01l6.3,15.29
			l1.35,4.67l0.54,5v605.16h96.53l7.41,0.03h185.67l7.4,0.02h155.92l7.44,0.04h17.77l0.99-0.63l3.77-7.67l3.68-7.57l2-2.15
			l1.43-0.78l1.46-0.24l1.48,0.21l1.4,0.73l1.67,1.63l0.68,1.81l-0.08,2.05l-1.78,5.25l-2.42,7.28h131.55l17.76-0.03h266.39v-0.08
			l0.62-0.8l0.5-0.9l0.06-1.02L1194.38,1018.2z"/>
		<g clip-path="url(#SVGID_2_)">
			<polygon fill="#01946A" points="1165.59,715.55 1163.71,717.49 1163.08,718.98 1163.54,720.75 1164.54,721.88 1165.97,723.28 
				1166.76,723.68 1167.23,722.5 1168.91,722.9 1175.02,726.01 1176.02,726.73 1176.53,727.01 1177.17,726.57 1177.63,725.6 
				1177.68,725.1 1176.53,724.36 1175.9,724.28 1175.53,724.61 1175.5,724.99 1175.75,725.06 1175.63,725.15 1174.96,725.22 
				1174.26,724.9 1173.99,724.21 1173.94,723.61 1173.72,723.42 1173.11,723.55 1172.08,723.48 1171.09,722.75 1169.09,720.7 
				1168.47,720.49 1167.85,720.14 1167.45,719.6 1167.09,719.43 1166.61,719.41 1166.1,719.01 1165.56,718.3 1165.45,717.55 
				1166.76,715.61 1167.17,714.65 1167.08,714.11 1166.42,714.5 			"/>
			<polygon fill="#01946A" points="1186.71,730.54 1185.51,729.83 1185.15,728.86 1184.71,728.22 1180.94,725.71 1179.51,725.2 
				1178.33,725.52 1177.57,726.68 1177.54,727.46 1178.15,727.27 1178.46,726.95 1179.09,726.57 1180.46,726.49 1181.62,727.25 
				1182.26,728.16 1182.34,728.54 1182.02,728.43 1182.23,728.73 1183.28,728.92 1183.99,729.13 1184.02,730 1184.42,730.59 
				1184.77,730.72 1185.15,730.8 1185.87,731.37 1186.68,732.15 1187.36,732.36 1187.87,732.17 1188.56,732.52 1188.97,733.44 
				1189.3,733.98 1190.05,734.17 1191.07,734.81 1192.26,735.73 1192.65,735.95 1192.58,735.56 1192.85,735.33 1192.98,735.01 
				1192.31,734.25 1189.59,732.02 1187.89,730.99 			"/>
			<polygon fill="#01946A" points="1168.82,703.14 1169.65,701.85 1170.66,700.82 1170.12,701.04 1168.2,702.88 1166.96,705.75 
				1166.78,709.25 1166.99,711.02 1167.13,711.7 1167.69,712.68 1168.52,713.23 1170.06,714.45 1171.03,714.65 1171.78,714.26 
				1172.22,713.57 1171.92,713.4 1171.06,713.62 1170.46,713.16 1170.33,712.68 1170.25,712.21 1170.49,711.12 1171.14,710 
				1171.2,709.44 1170.66,709.37 1170.09,709.1 1168.64,707.72 1167.96,706.23 1168.17,704.59 			"/>
			<polygon fill="#01946A" points="1204.59,738.89 1204.94,739.04 1205.1,738.97 1204.72,738.59 1203.91,737.94 1203.54,735.14 
				1203.22,734.73 1203.05,735.33 1202.57,735.4 1201.81,733.74 1200.93,733.2 1199.85,733.04 1198.94,733.04 1198.2,733.89 
				1197.64,735.49 1197.8,736.05 1198.64,735.46 1199.31,735.46 1199.68,736.63 1200.23,737.32 1201.17,737.05 1201.9,737.13 
				1201.76,737.7 1202.14,738.61 1203.64,739.59 1204.27,739.69 1203.94,739.15 1204.02,738.79 			"/>
			<polygon fill="#01946A" points="1192.5,736.48 1189.83,735.33 1188.43,734.54 1187.78,734.06 1186.38,732.31 1185.63,731.69 
				1184.82,731.48 1184.79,732.09 1185.69,733.34 1186.41,734.17 1186.54,734.66 1186.38,734.84 1186.25,734.78 1186.25,735.11 
				1186.52,735.6 1186.71,735.8 1189.78,739.07 1191.18,740.17 1192.61,741.79 1194.23,742.84 1195.38,742.03 1196.14,740.5 
				1196.94,739.59 1197.53,739.13 1198.94,738.37 1198.69,738 1197.48,738.05 1196.43,738.83 1195.49,739.85 1194.56,740.06 
				1193.99,739.07 1194.19,738 1195.78,737.94 1195.43,737.35 1194.73,736.92 1193.79,736.81 			"/>
			<polygon fill="#01946A" points="1195.87,724.76 1196.21,724.74 1196.41,724.12 1196.38,723.34 1196,722.53 1195.35,722.21 
				1194.6,722.5 1194.11,723.15 1194.09,724.12 1194.19,724.63 1194.3,727.03 1194.66,727.9 1195.16,728.24 1196.02,729.53 
				1196.35,728.78 1195.81,726.54 1195.3,725.36 1195.46,725.46 1195.51,725.17 1195.3,724.56 1195.41,724.42 			"/>
			<polygon fill="#01946A" points="1190.39,728.4 1190.86,728.1 1191.66,727.32 1191.69,726.33 1190.86,725.44 1189.78,725.28 
				1188.83,726.01 1188.67,727.22 1189.67,728.16 			"/>
			<polygon fill="#01946A" points="1108.52,595.32 1108.35,594.86 1107.54,593.68 1106.85,592.63 1106.33,592.69 1106.55,593.59 
				1106.55,594.67 1107.65,595.83 1109.15,597.53 1108.73,596.66 1108.76,596.08 			"/>
			<polyline fill="#01946A" points="296.83,195.47 295.7,192.95 295.33,191.41 291.26,185.52 288.64,182.57 288.08,180.99 
				288.27,179.03 288.94,175.47 287.75,172.55 285,170.86 276.12,168.95 272.99,167.72 270.52,167.3 269.01,166.49 267.93,166.2 
				267.02,165.64 266.72,165.39 266.1,165.02 265.5,165.19 264.94,165.52 264.32,165.7 261.25,165.09 260.33,165.43 258.64,166.66 
				251.76,168.76 231.54,167.31 217.03,167.47 215.27,166.99 210.48,163.26 208.49,162.41 207.86,162.03 208.22,161.35 
				209.99,159.59 197.92,154.63 184.89,151.57 174.33,151.73 164.71,150.91 164.23,150.6 162.11,148.82 161.43,148.53 
				158.11,148.47 156.64,147.9 157.49,151.93 157.63,153.4 156.91,152.7 156.17,150.75 155.58,149.73 154.64,149.19 153.43,148.84 
				152.38,148.22 151.41,145.52 150.17,143.57 148.69,141.84 147.45,141.1 145.75,140.77 141.12,138.97 139.96,138.03 
				139.86,136.19 141.01,128.83 141.68,129.57 142.2,130.28 142.36,131.04 142.1,131.89 143.6,132.5 144.57,126.84 145.16,125.08 
				143.63,124.15 142.47,123.03 141.74,121.62 141.01,116.14 141.29,115.29 142.61,113.66 143.03,112.72 142.88,111.45 
				141.9,110.51 140.42,109.91 136.97,109.36 133.8,107.74 132.05,107.18 129.43,107.33 128.41,107.18 125.88,106.14 124.99,106.01 
				123.64,105.6 119.49,102.87 101.69,97.43 98.11,97.18 96.71,96.86 95.42,96.29 93.93,95.41 86.44,89.69 83.43,88.63 76.4,88.75 
				73.3,88.08 70.88,85.54 70.58,84.64 70.55,84.03 70.44,83.55 69.83,83.01 68.94,82.67 68.1,82.72 66.43,83.01 66.05,83.31 
				65.25,84.62 64.88,84.92 48.17,86.72 45.02,86.43 41.3,85.56 37.97,84.22 35.89,82.45 32.47,83.4 28.77,83.69 27.65,84.24 
				15.9,94.91 12.86,96.65 6.56,98.35 3.11,98.66 -11.42,97.75 -14.88,98.55 -23.8,103.04 -34.3,110.23 -52.16,117.89 
				-63.26,126.75 -64.31,127.84 -65.66,128.98 -68.7,130.31 -70.24,131.22 -73.9,135.62 -75.11,137.53 -89.6,152.18 -91.4,154.9 
				-98.32,169.53 -99.3,170.89 -99.64,171.77 -99.52,172.74 -99.22,173.72 -99.03,174.62 -100.08,177.97 -101.19,185.46 
				-101.37,189.52 -101.1,193.22 -100.64,194.88 -99.33,198.25 -99.03,199.7 -98.98,203.64 -98.52,207.33 -93.37,221.82 
				-92.17,223.68 -88.8,227.16 -87.18,229.64 -85.29,235.49 -83.9,237.81 -83.43,249.23 -83.9,253 -87.45,262.79 -92.27,273.04 
				-93.64,274.4 -96.42,276.63 -98.27,279.18 -101.61,285.07 -114.22,300.24 -124.35,308.13 -125.88,308.95 -129.33,309.57 
				-130.9,310.3 -139.41,315.87 -145.54,318.91 -149.1,319.94 -153.06,321.09 -160.23,321.9 -167.04,321.77 -173.8,320.77 
				-177.01,319.4 -188.1,312.13 -189.59,311.4 -192.79,310.75 -197.83,308.03 -200.09,305.98 -204.29,301.21 -222.93,287.38 
				-229.66,279.43 -231.77,277.45 -234.26,275.96 -246.36,271.37 -253.23,269.85 -254.71,269.11 -256.11,267.85 -258.21,264.67 
				-259.21,263.79 -264.73,262.78 -271.17,260.62 -277.09,257.7 -288.33,254.38 -289.03,254.08 -289.84,253.61 -292.01,251.53 
				-294.79,250.06 -295.36,249.67 -296.03,249.36 -298.73,249.37 -311.71,246.52 -328.38,240.78 -344.7,237.2 -350.75,237.14 
				-350.75,1420.13 1358.31,1420.13 1356.51,1416.4 1355.85,1413.74 1355.46,1410.66 1354.38,1408.25 1352.3,1406.06 
				1350.87,1403.66 1351.82,1400.6 1350.93,1399 1349.1,1392.27 1343.79,1383.03 1338.46,1370.65 1331.29,1359.68 1330.92,1358.33 
				1330.7,1357.87 1329.3,1355.9 1329.14,1355.07 1329.03,1353.43 1328.79,1352.65 1325.53,1348.04 1324.99,1345.59 
				1324.26,1344.73 1324.1,1343.89 1324.29,1343.17 1325.02,1342.12 1325.15,1341.17 1324.59,1341.17 1323.48,1341.39 
				1323.3,1340.61 1323.3,1339.34 1322.82,1338.13 1319.63,1334.82 1318.34,1334.04 1319.41,1335.59 1319.53,1337.43 
				1318.79,1338.64 1317.29,1338.4 1316.81,1337.38 1316.53,1334.22 1315.73,1332.99 1314.49,1333.88 1312.57,1333.71 
				1311.31,1332.93 1312.03,1331.85 1309.56,1327.92 1308.07,1326.39 1306.87,1327.49 1307.8,1328.05 1307.7,1328.7 
				1306.91,1329.08 1305.76,1328.86 1304.73,1328.52 1302.58,1328.24 1301.56,1328 1300.77,1327.55 1300.13,1327.01 
				1299.43,1326.57 1298.43,1326.42 1295.79,1326.9 1294.8,1326.9 1295.37,1326.19 1296.2,1326.14 1297.25,1326.19 1298.38,1325.87 
				1299.29,1324.96 1299.49,1324.02 1299.43,1323.13 1299.53,1322.48 1300.33,1321.91 1301.4,1321.32 1302.04,1320.64 
				1301.56,1319.81 1298.89,1321.4 1298.38,1321.97 1296.63,1325.53 1292.53,1324.36 1284.89,1319.81 1285.77,1317.31 
				1286.42,1316.02 1287.96,1314.94 1287.34,1313.81 1286.12,1312.68 1283.01,1311.19 1281.01,1308.88 1277.8,1304.2 
				1275.81,1302.2 1273.66,1300.56 1263.93,1295.08 1262.67,1293.82 1262.48,1292.77 1262.51,1291.69 1261.88,1290.24 
				1261.4,1292.44 1260.94,1293.41 1259.75,1294.06 1259.59,1292.56 1260.38,1289.43 1259.75,1288.06 1258.44,1287.63 
				1256.88,1287.73 1255.45,1287.47 1254.53,1285.86 1253.15,1286.89 1251.38,1287.36 1247.77,1287.49 1246.88,1287.28 
				1246.28,1286.89 1245.72,1286.74 1244.89,1287.25 1243.94,1287.55 1243.11,1287.09 1242.4,1286.2 1241.98,1285.26 
				1239.69,1280.76 1238.86,1279.25 1236.08,1276.85 1235.05,1275.4 1234.4,1271.25 1233.36,1267.89 1232.91,1261.87 
				1232.12,1260.61 1230.48,1261.69 1230.36,1260.37 1229.02,1256.17 1229.04,1255.59 1229.45,1254.55 1229.43,1254.01 
				1228.99,1253.42 1228.27,1253.02 1227.63,1252.45 1227.35,1251.51 1226.75,1243.21 1223.71,1226.14 1222.15,1221.53 
				1220.94,1219.46 1220.65,1218.7 1220.51,1218.02 1220.65,1216.5 1220.08,1211.64 1220.32,1210.43 1221.59,1208.63 1222,1207.74 
				1222.15,1206.28 1222.15,1201.03 1221.7,1198.31 1216.88,1185.54 1216.34,1182.79 1216.36,1180.62 1216.74,1179.86 
				1217.65,1178.71 1217.92,1177.82 1217.91,1177.28 1216.5,1171.7 1216.2,1169.35 1215.44,1166.93 1215.29,1165.95 
				1215.85,1160.12 1215.82,1158.9 1215.29,1155.64 1215.85,1149.88 1215.55,1147.48 1215.82,1146.43 1218.15,1146.78 1218.87,1146 
				1219.27,1144.71 1219.49,1143.42 1219.32,1138.16 1215.93,1128.5 1214.8,1123.46 1214.12,1112.77 1213.16,1107.68 
				1211.11,1102.91 1208.9,1100.3 1208.52,1099.57 1208.52,1098.25 1209.06,1097.82 1209.84,1097.57 1210.6,1096.79 
				1210.89,1095.88 1210.92,1094.93 1210.6,1092.86 1210.87,1092.17 1211.11,1091.19 1210.92,1090.65 1209.98,1090.6 
				1209.6,1090.14 1209.4,1088.18 1209.94,1086.02 1211.19,1084.65 1213.24,1085.07 1214.08,1086.09 1213.94,1087.04 
				1213.43,1087.99 1213.24,1088.98 1213.56,1090.06 1214.04,1090.84 1214.66,1091 1215.29,1090.14 1217.41,1091.76 1218.6,1091.34 
				1219.43,1092.48 1220.65,1095.64 1222.51,1097.79 1222.66,1098.46 1222.02,1098.84 1220.99,1098.4 1219.25,1097.07 
				1218.78,1096.33 1218.44,1095.53 1217.88,1094.86 1216.9,1094.58 1216.36,1094.99 1216.57,1095.88 1217.14,1096.9 
				1217.68,1097.6 1219.76,1101.24 1221.16,1102.39 1222.66,1101.24 1224.15,1101.86 1225.11,1101.19 1225.62,1099.77 
				1225.79,1098.2 1225.23,1096.83 1217.08,1086.45 1210.57,1080.25 1200.69,1064.99 1196.62,1055.18 1196.05,1054.4 
				1195.19,1053.54 1194.73,1052.65 1194.68,1051.62 1194.43,1050.68 1193.36,1049.95 1194.06,1047.69 1192.31,1036.46 
				1192.26,1026.57 1191.52,1025.49 1189.7,1024.12 1191.07,1023.64 1192.29,1023.48 1192.61,1023.31 1192.79,1022.94 
				1192.89,1022.45 927.4,1022.45 909.65,1022.48 778.1,1022.48 780.52,1015.2 782.3,1009.96 782.39,1007.91 781.71,1006.1 
				780.04,1004.46 778.64,1003.73 777.16,1003.52 775.7,1003.75 774.28,1004.54 772.27,1006.69 768.59,1014.26 764.82,1021.93 
				763.82,1022.56 746.05,1022.56 738.61,1022.53 582.69,1022.53 575.29,1022.51 389.62,1022.51 382.21,1022.48 285.68,1022.48 
				285.68,417.32 285.14,412.32 283.79,407.65 277.48,392.36 276.71,389.35 276.55,385.97 277.21,379.64 277.24,377.53 
				276.14,373.91 272.24,367.34 271.72,363.7 272.99,359.15 273.08,357.4 272.75,355.43 266.18,339.01 264.02,335.12 263.32,333.23 
				263.35,329.84 264.58,326.75 267.74,321.07 269,318.05 269.73,316.81 271.8,314.2 274.12,311.83 278.57,305.07 280.07,302.06 
				280.78,299.08 281.05,297.33 283.33,291.25 284.14,286.4 285.09,282.86 286.25,279.83 286.73,276.78 285.68,273.22 
				282.34,266.11 281.37,261.59 278.68,256.1 278.16,254.3 276.38,244.83 276.31,237.56 275.54,230.09 275.57,226.83 276.52,224 
				288.91,213.86 291.71,206.3 293.87,203.25 297.91,200.02 297.81,199.37 297.9,198.68 298.05,198.39 			"/>
			<path fill="#01946A" d="M988.95,229.98l0.08-0.07l1.86,3.39l0.43,1.47l1.38,4.25l0.78,2.42l3.01,9.35l2.39,7.47l2.94,7.7
				l3.88,10.27l4.69,12.38l1.67,7.02l0.16,3.64l0.46,1.5l1.21,1.65l0.78,1.08l-0.03,1.2l-0.73,2.63l-0.15,1.56l0.18,1l0.53,0.83
				l4.15,3.64l0.85,1.27l2.54,7.25l4.5,12.95l2.96,8.46l0.19,0.48l0.13,0.52l0.06,0.54l-0.03,0.54l0.48,4.77l3.34,9.13l2.99,8.25
				l1.97,8.98l-0.16,6.03l0.54,2.08l1.74,3.61l0.28,0.5l0.22-0.01l0.67,0.06l0.62-0.02l0.25-0.33l0.13-0.56l0.33-0.62l0.59-0.95
				l1.32-1.64l0.49-0.75l0.32-1.16l0.35-0.06l0.12,0.15v0.21l0.05,0.3h1.04l1.59,1.59l0.06,1.4l-1.65,3.56l-0.53,2.29l-0.51,7.95
				l-1,0.7l-0.3,1.27l0.19,1.48l0.59,1.28l-0.37-0.05l-0.11,0.14v0.24l-0.08,0.27l-0.91-0.49l-0.28,1.26l0.19,1.95l0.51,1.45
				l-1.74,0.97l-0.74,0.76l-0.13,1.24l0.13,0.54l-0.87,1.93l-0.35,1.13l-1.51,7.79l-0.72,1.88l-0.89,1.62v1.19l0.83,2.18l-0.56,3.67
				l-1.21,3.58l-1.13,1.91v0.54l1.25,0.4l0.16,1.15l-0.85,2.63v0.54l0.43,0.98l-0.18,1.05l-1.3,2.24h0.5v0.54l-1.19,2.29l-0.99,2.77
				l-0.54,3.08l1.08,14.3l-0.68,1.89l-0.78,0.48l-0.74,1.21l-0.54,1.46l-0.56,2.59l-1.49,2.22l-0.8,4.07l-1.19,3.14l-1.54,2.82
				l-1.52,1.48l0.44,0.49l0.19-0.19l0.43-0.3l-0.03,0.91l0.03,0.28l-0.27-0.2l-0.52-0.24l-0.28-0.16l-0.77,3.96l0.26,0.76v0.59
				l-0.83,0.21l-0.59,0.48l-0.13,0.58l0.56,0.54v0.59h0.43l-0.24,0.91l-0.45,0.22l-0.63-0.2l-0.78-0.4l0.14-0.09l0.22,0.03
				l0.16-0.08l0.03-0.4l-0.6,0.13l-0.42,0.24l-0.28,0.35l-0.21,0.46l0.45,0.59l-0.44,0.24l-0.64,0.62l-0.49,0.24l-0.05,0.43
				l-0.65,0.32l-0.73,0.59l-1.13,1.64l0.48,0.59l-0.35,1.02l1.88-0.81l0.54,0.65l0.03,2.07l0.16,1.11l0.33,1.23l0.59,0.6l-0.25,0.2
				l-0.13-0.03l-0.08,0.07l-0.13,0.4l1.69-0.27l0.49-0.72l0.05-1.1l0.38-1.43l0.62,0.54l0.16-0.18l0.11-0.18l0.21-0.14l0.51-0.03
				v-0.65l-1.61-1.21v-0.54l0.49-0.41l1.02-0.42l0.6-0.35l0.24-0.67l0.04-0.87l0.27-0.37l0.97,0.72l0.3-0.42l0.29-0.3l0.3-0.21
				l0.21-0.21l0.46,1.05l0.27,0.4l0.48,0.7l0.2,0.25l0.66,0.54l0.46-0.49l0.37-0.03l0.36,0.38l0.39,0.73h0.6v-0.59h0.44l0.03,0.27
				l-0.05,0.56l0.02,0.3l0.41-0.18l0.1-0.11l0.12,0.03l0.43,0.27l0.16-1.02l0.54-0.57l0.86-0.16l1.08,0.03l-0.05,0.48v0.38
				l0.05,0.33l-0.72,0.3l-0.63,0.46l-0.42,0.48l-0.3,0.51l0.27,0.13l0.23,0.03l0.25,0.11l0.24,0.37l0.74-1.54l0.57-0.59l0.83-0.27
				v-0.59h-0.56v-0.59l0.85-0.3l0.78-0.12l0.72,0.08l0.75,0.33l-0.73,0.24l-0.7,0.38l-0.38,0.48l0.3,0.62v0.61h-0.6v0.59l0.33,0.19
				l0.05,0.04l0.21,0.42l1.02-1.21l1.59-0.03l1.54,0.3l0.99-0.3h0.51v0.59h0.54l0.27-0.61l0.46-0.47l0.61-0.35l2.32-0.7l0.77-0.51
				l0.92-0.41l0.86,0.3l0.85,0.59l0.79,0.41l-0.35-0.35l-0.3-0.41l-0.22-0.49h0.81l0.91,0.03l0.74-0.56l3.58,2.59l0.9,0.92
				l0.66,0.08l1.38-0.06l0.59,0.19l0.53,0.46l0.46,0.59l0.27,0.51h0.49v-0.57h0.54l0.58,0.27l2.12,0.44l0.44,0.2l0.73,1.33
				l0.08,0.48l-0.81-0.38l-1.29,0.82l-1.72,0.75l-1,0.86l0.87,1.15h0.5v-0.59l3.69,2.94l1.19,0.54l0.75,0.83l1.19,2.16l3.97,4.42
				l0.72,1.21l0.36,2.42l0.74,1.61l0.36,1.16l0.43,0.61l0.6,0.4l1.53,0.59l0.73,0.49l1.56,2.21l1.97,5.23l1.4,2.31l2.5,2.65
				l0.64,1.13l0.44,1.62l0.04,3.08l0.3,1.74l0.83,2.21l2.89,5.37l2.31,2.28l2.05,3.34l1.8,2.26l0.95,0.81l3.61,2.48l6.43,7.62
				l1.81,2.77l0.37,1.02l-0.16,0.74l-0.75,1.23l-0.2,0.68l0.11,0.86l0.25,0.67l2.18,4.2l6.12,7.95l4.96,4.42l1.79,2.9l1.07,0.95
				l1.38-0.37l1.5,5.27l2.29,4.05l1.21,3.68l2,2.31l4.45,3.96l3.64,4.63l6.03,10.81l5.65,13.86l3.29,4.46l1.78,2.96l4.82,11.51
				l1.83,2.4l2.74,1l2.51,0.2l2.66,0.68l2.46,1.27l1.8,1.93l0.73,1.95l0.29,2.36l-0.29,2.32l-1,1.72l-1.59,1.86l-0.73,1.89
				l0.08,1.97l0.94,2.12l0.46,0.41l0.92,0.24l0.18,0.48l-0.11,1.81l0.11,0.51l0.46,0.81l1.76,2.18l0.67,0.46l1.13,0.4l2.35,1.67
				l0.97,0.27l0.88-0.51l-0.26-0.84l-0.51-0.97l0.16-0.94l1.67,0.14l1.9,2.36l2.98,4.79l0.97,0.62l2.24,0.89l0.97,0.72l0.59,0.95
				l1.11,2.43l0.64,0.99l0.22,0.48l-0.06,1.05l0.11,0.49l0.37,0.42l1.05,0.71l0.4,0.6l1.24,3.58l0.57,1.04l3.39,3.46l1.1,1.91
				l-1.32,0.95l0.36,0.83l1.18,1.29l0.52,0.75l0.19,0.72l0.13,1.89l0.19,0.84l0.92,1.88l1.33,1.88l1.49,1.65l1.51,1.17l0.65,0.68
				l0.7,1.57l0.73,0.66l0.84,0.59l0.85,0.84l1.44,1.73l0.9,1.53l0.66,1.64l0.41,1.8l0.13,1.91l-0.49,4.94l0.49,1.98l1.46,3.51
				l0.22,1.88l-1.67,3.56l-0.1,4.23l-0.95,1.4l-1.94,0.65l-1.7-0.03l-1.73-0.3l-1.93-0.03l1.32,2.97l0.99,1.34l1.35,0.82l0.78-0.11
				l1-1l0.57,0.28l0.24,0.6l0.07,0.83l-0.07,0.83l-0.24,0.59l0.09,2.33l2.22,2.96l4.72,4.79l12.06,19.94l-0.43-0.17l-0.7-0.18
				l-0.43-0.22l-0.68,1.78l0.09,0.74l0.62,0.45l1.02,1.06l2.24,3.95l0.89,1.16l1.15,1.18l0.97,0.73l1.08,0.52l4.51,1.4h1.41
				l-0.5-1.21l0.11-0.81l1.14-0.86l1.5-0.67l1.13-0.27l1.14,0.54l2.18,2.35l1.16,0.54l1.29,0.21l0.68,0.65l0.61,1l2.94,3.84
				l1.05,0.97l2.63,0.1l1.84,0.52l0.99,0.13l0.37-0.54l-0.35-1.15l-0.24-1.19l0.75-0.54l0.54-0.27l0.61-0.55l0.66-0.43l0.55,0.11
				l0.36,0.95l-0.4,0.91l-0.66,0.97l-0.35,1.11l0.63-0.44l0.67-0.14l0.67,0.16l0.64,0.41l-1.8,1.02l-0.81,0.16l3.69,2.5l3.27,3.54
				l1.21,0.96l1.26,0.43l0.29-0.18l0.92-0.77l0.34-0.13l0.6,0.24l4.02,3.45l1.29,0.59l0.63,0.5l2.34,3.13l0.97,0.91l1.19,0.89
				l1.38,0.69l1.4,0.3l1.48,0.68l1.14,1.53l0.93,1.73l0.89,1.21l0.76,0.4l1.64,0.35l0.78,0.37l0.6,0.79l1.24,2.15l0.51,0.46
				l0.4,0.46l0.73,1.94l0.45,0.43l1.8,0.06l0.83,0.19l0.77,0.37l1.17,1.51l0.57,1.91l0.32,2.05l0.53,1.88l2.62,4.53l2.28,7.53
				l2.03,3.63l2.53,0.2v-0.56l-1.88-0.7l-0.73-0.73l-0.08-1.4h0.61l0.77,0.49l1.53-0.35l0.27,0.75l0.24,1.34l0.57,0.95l1.26,1.33
				l0.79,1.43l0.69,1.95l0.52,2.07l0.11,1.94l0.32-0.38l0.52-0.43l0.18-0.32l0.71,2.13l0.22,2.66l0.42,2.26l1.28,0.92l-0.47,0.75
				l-0.32,1.14l-0.13,1.08l0.16,0.67l0.68,0.87l0.18,0.64l-0.09,1.33l0.56,1.79l1.36,1.62l1.55,0.95l1.22-0.14l-0.28,0.75
				l-0.13,0.65l0.08,0.71l0.32,0.78l1.24-1.17l0.96,1.13l0.3,1.84l-0.64,0.96l-0.11,0.52l1.38,3.15l-0.13,1.16l-0.46,1.2l-0.64,1.11
				l-0.84,0.84l1.57,3.49l1.09,1.33l1.54-0.32l1.3,0.7l1.74,0.43l1.52,0.61l0.67,1.33l0.19,0.88l0.49,0.84l0.62,0.6l0.53,0.24
				l0.81,0.52l1.29,2.47l0.81,0.95l-0.45,0.95l-0.6,0.59l-0.75,0.1l-0.81-0.51l-1.35-0.42l-2.76-4.88l-2.25-0.32l1.4,1.24l2.82,5.52
				l4.38,6.21l0.81,1.67l0.57-0.54l-0.51-0.83l-0.18-0.84l-0.09-0.83l-0.24-0.86l-0.51-0.76l-1.34-1.4l-0.3-0.46l0.67-0.41
				l1.52,1.22l3.67,4.09l0.09,0.65l-2.01,1.86l-0.19,1l0.57,1.27l1.49,2.47l2,4.61l2.1,2.88l0.57,1.13l0.1,10.1l0.43,3.53l1.08,3.06
				l0.49-0.83l0.53-2.34l0.51-0.78l0.97-0.22l0.75,0.55l0.42,0.94v1.02l-0.25,0.35l-1.32,1.32l-1.05,2.29l-0.67,0.9l-0.71,0.67
				l-0.54,0.8l-0.77,3.48l-2.51,2.89l-0.57,2.21v3.36l-0.26,1.21l-0.51,0.87l-0.24,0.89l0.52,1.21l1.07-2.81h0.46l-0.16,1.67
				l-0.7,3.23l-0.17,1.56l-0.21,0.41l-1.02,0.76l-0.32,0.3l-0.19,0.88v1.59l-0.38,0.83l0.4,1.33l0.68,11.58l0.29,0.03l0.51,1.04
				l0.11,0.95l-0.92-0.35l-0.4-0.61l-1.15-2.45l-0.27-1.98l-0.84-0.92l-3.1-0.75l0.92,1.61l0.74,2.45l0.97,1.53l2.62,2.21l0.15,0.27
				l0.2,0.62l0.15,0.3l0.92,0.51l0.13,0.03l0.22,0.69l0.11,1.36l0.24,0.74l0.38,0.65l0.3,0.33l0.34,0.25l0.5,0.45l0.27,0.68v0.64
				l0.24,0.4l1.05-0.05l0.59-0.37l0.4-0.71l0.58-1.69l0.61,0.99l-0.05,1.27l-0.37,1.1l-0.41,0.46l-1.43,0.54l-0.15,1.2l0.8,2.21
				l0.16,2.24l-0.1,2.56l0.26,2.37l1.25,1.8l-0.56,0.52l0.7,1.64l0.72,0.92l0.78-0.23l0.98-1.74l1.23,2.72l0.11,1.08l-0.84,0.72
				v0.43l1.17,1.23l0.57,2.37l-0.1,2.59l-0.86,2l-6.03,5.27l2.39,3.8l1.05,0.65l2.86,4.44l0.54,1.16l-0.16,0.52l-0.74,1.02
				l-0.15,0.41l0.15,0.94l0.71,1.62l0.51,2.21l0.84,0.97l3.2,2.26l0.51,0.16l0.27,0.35l0.12,0.97l0.24,0.74l1.02,0.71l0.24,0.76
				l0.05,1.96l0.19,1.35l0.51,1.19l2.12,3.28l0.03,0.33l0.76-0.16l0.78-0.33l0.81-0.13l0.73,0.35l0.61,0.41l0.56,0.19l0.43,0.37
				l0.27,0.97l-0.19,0.54l-0.53-0.16l-0.57-0.52l-0.32-0.43l-0.13,1.85l1.59,2.02l2.18,1.75l1.61,1.02l0.11-1.47l0.44,0.03
				l1.02,1.45l0.54,0.23l0.52-0.17l0.37,0.05l0.13,0.76l0.06,0.51l0.11,0.43l0.34,0.97l-0.89-0.23l-0.78-0.31l-0.59-0.47l-0.32-0.61
				l-0.46,0.73l-0.05,0.61l0.32,0.49l0.71,0.34l-0.52,1.27l0.97,1.21l1.69,0.97l1.49,0.48l-0.54-0.27l-0.49-0.32l-0.34-0.43
				l-0.2-0.65l1.08,0.16l2.62,0.89l-1.21,1.92l0.25,1.33l2.56,2.89l0.35,0.92l0.46,2.37l0.48,0.9l1.78,1.69l0.97,0.56l1.15,0.2
				l-0.27,0.69l-0.45,0.38l-0.59,0.08l-0.75-0.03v0.58l1.5,1.27l4.53,7.32l2.04,2.05l4.13,3.18l1.32,1.28l1.19,2.46l1.37,0.64
				l1.54,0.44l0.99,0.48l1.05,0.92l7.48,4.57l1.32,0.35l0.48-0.25l-0.46-0.5l-0.75-0.52l-0.33-0.16l-0.64-0.54l-0.62-0.4l-0.46-0.58
				l-0.08-1.02l1.66,0.71l3.28,1.97l1.81,0.67l0.65-0.67l1.53-0.58l1.89-0.32l1.72-0.03l1.23,0.59l2.42,2.21l0.79,0.53l-0.09,0.35
				l0.67,0.78l1.21,1.08l0.7,1.02l0.47,0.41l2.36,0.38l2,0.54l1.26,0.89l-0.48,1.19l2.72,3.1l3.48,2.77l1.56,0.92l1.4,0.38
				l0.64,0.07l1.9,0.46l0.61,0.32l1.88,2.67l0.71,0.37l0.66,0.25l0.71,1.11l0.7,0.26l2.86,1.75l2.34,0.99l0.88,0.87l0.47,1.42
				l-0.95,2.12l-0.08,0.59l0.52,0.52l2.34,1.45l3.1,4.55l1.11,0.67l0.05,0.74l0.66,1.61l0.96,1.67l1.16,0.94l-0.89-2.02l0.7-0.79
				l1.52-0.04l3.93,0.44l1.48,1l3.5,5.07l0.54,1.74l0.21,4.05l-0.48,3.3l-1.76-0.99l-0.83-0.1v0.49l1.86,0.99l3.85,4.02l1.83,0.97
				l6.51,2.32l0.17,0.97l0.42,0.66l0.17,0.84l-0.19,0.87l0.54,0.67l-0.37,0.56l-0.71,0.65l-0.51,0.82l-0.05,0.91l0.4,1.3l0.13,0.84
				l0.17,0.7l0.74,1.23l0.19,0.81l-0.11,0.97l-0.13,0.27l2.04,1.64l1.15,0.65l0.86,0.85l0.33,1.71l0.33,0.72l1.4,0.75l0.32,0.7
				l0.11,0.82l0.43,1.45l0.05,0.81l-0.56,1.82l-0.03,0.89l0.3,0.77l1.08,1.72l0.78,2.21l1.35,0.93l3.32,0.97l1.5,0.61l1.4,0.92
				l0.67,1.18l-1,1.97l-0.35,1.67l-0.16,1.49l-0.3,0.61l-0.34,0.64l-0.4,0.85l-0.46,1.59l-0.12,0.86l0.06,0.84l0.35,0.27l1.47,1.97
				l0.06,0.46l0.78,2.5l3.13,0.78l0.08,0.14l1.67,0.88l0.32,0.09l0.73,1.14l-0.08,0.44l-0.41,0.28l-0.24,0.65l-0.28,1.62l-1.79,5.25
				l-0.25,1.56l0.08,1.09l0.5,0.95l0.97,1.02l0.86,1.24l2.05,4.53l0.61,0.75l0.79,0.65l0.83,0.52l0.86,0.31l0.27-0.16l0.81-0.8
				l0.46-0.16l0.13,0.16l0.35,0.4l0.43,0.38l1.18,0.54l0.57,0.83l0.38,1l0.13,0.8l0.44,0.52l2.75,1.92l0.13,0.51l0.05,0.75
				l0.13,0.67l0.41,0.3l0.56,0.08l0.35,0.2l0.21,0.34l0.19,0.46l0.13,4.29l0.13,0.66l0.22,0.65l0.5,3.04l0.33,0.97l0.71,1.05
				l0.57,1.51l0.24,1.51l-0.24,1.11l1.18-0.14l0.98,0.16l0.44,0.54l-0.47,1.09l0.42,0.54l-0.07,0.69l-0.39,0.78l-0.48,0.77
				l1.05-0.35l0.86,0.03l0.7,0.46l0.47,0.95l-0.41,0.27l-0.19,0.21l-0.11,0.27l-0.24,0.35l1.48,0.39l1.56,0.15l-0.35,1.25l0.41,0.48
				l0.67,0.25l0.34,0.45l0.22,1.05l0.53,0.87l1.33,1.64l-0.68,1.5l1.16,1.64l3.2,2.91l0.13,0.6l-0.02,0.7l0.07,0.59l0.59,0.24
				l0.98,0.24l0.13,0.63l-0.24,0.89l-0.11,1.02l0.49,1.34l3.2,4.09l1.54,1.49l1.63,1.1l1.35,1.34l0.69,2.1l1.75-0.27l2.86,1.97
				l1.64-0.66l4.52,4.25l0.78,0.44l2.36,3.33l0.75,0.73h0.4l0.6-0.17l0.48-0.21l0.13-0.16l3.29,3.41l0.4,0.71l0.32,0.99l0.78,0.19
				l1.73-0.38l0.56,0.28l0.33,0.61l0.43,1.35l1.52,2.12l0.83,1.64l0.52,0.7l0.24-0.42l0.68,0.21l8.21,7.05l0.49,0.92l0.14,0.7
				l0.37,0.38l0.59,0.17l0.78,0.05l0.75,0.3l0.49,0.73l0.56,1.77l0.11,1.7l-0.45,3.96l0.35,1.39l0.49,1.91l1.35,10.77l1.02,3.1
				l0.32,1.61l0.03,5.4h1.23l-0.72-4.96l1.54-0.97l-1.35-2.26l-0.54-1.24l-0.19-1.38l3.43,1.47l0.67,0.63l0.37,1.11l0.4,2.72
				l0.32,1.16l0.98,2.21l0.76,1.3l0.24,0.22h188.82V-197.89h-683.61l-3.27,5.75l-0.85,1.29l-2,2.98l-0.32,1.81l-0.79,1.4l-1.83,0.43
				l-3.7-0.23l1.04,1.34l1.02,2.05l0.84,2.21l0.29,1.79l0.03,2.19l-0.13,0.5l-2.97,5.67l-1.78,0.59l-0.4,0.68l0.16,1.16l0.67,1.27
				l0.16,1.05l-0.45,1.67l-1.14,1.35l-1.5,0.96l-1.54,0.55v0.58l1.03-0.58h0.48l-0.19,0.53l-0.17,0.92l-0.12,0.47l2.66,1.43
				l0.46,0.48l-0.06,1.13l-0.4,1.27l-0.11,1.05l0.8,0.43l0.44-0.24l1.18-0.44l1.24-0.19l0.56,0.53l0.32,0.92l0.76,0.56l1.57,0.78
				l3.69,4.97l0.76,0.76l-0.16,1.33l0.57,6.04l0.37,1.57l-1.05,3.13l2.9,5.86l0.71,2.5l-1.62,1.61l-3.61,5.53l-0.46,1.11v4.43
				l0.27,1.07l0.43,1.24l0.23,1.35l-0.37,1.42l-0.62,0.6l-0.43,0.68l-0.62,1.3l0.25,0.67l0.15,0.13l-0.03,0.06l-0.37,0.41v0.63
				l0.45,0.6l0.14,0.64l-0.14,0.63l-0.45,0.59l-0.05,0.44l-0.47,0.25l2.46,6.62l0.43,1.94l0.26,0.93l1.38,2.3l0.22,0.58v3.79
				l0.16,0.81l0.75,1.35l0.49,2.47l1.4,2.87l0.32,1.72l0.81,1.06l0.48,1.63l0.21,1.95l-0.08,4.32l-0.44,1.3l-0.77,0.82l-1.21,0.9
				l-4.1,3.88l-6.03,1.58l-1.43-0.37v0.56l1.38,2.24l-1.32,1.78l-4.22,2.32l-1.03,1.89l-1.15,2.93l-1.25,1.92l-1.32-1.08l-1.8,1.56
				l-0.92,2.43l-0.35,2.88l-0.06,2.89l-0.24,0.47l-1.08,0.78l-0.24,0.69v3.14l0.24,1.28l1.08,2.02l0.24,1.07l-0.32,2.86l-1.26,4.02
				l0.03,2.23l0.24,0.34l0.42,0.27l0.33,0.43l0.06,0.84l-0.33,0.38l-1.25,0.01l-0.49,0.19l-0.56,0.91l-0.92,2.19L1094-8.61
				l0.49,0.05l0.11,0.13l-0.02,0.39l-0.41,0.74l-0.69,1.82l-0.49,0.61l-1.11,0.4l-1.82-0.13l-0.73,0.42h-0.52l-0.46-0.42l-0.89-0.38
				l-0.99-0.16l-0.83,0.27l-0.4,0.72l0.23,0.75l0.49,0.88l0.24,1.07l-0.13,4.48l-0.32,1.8l-2.99,7.35l0.05,1.1l-1.29,0.83l-0.9,3.76
				l-1.18,1.03l0.49,0.63l-2.93,7.91l-0.17,1.17l-0.86,2.69l-1.98,2.1l-3.97,3.03l0.3,1.14l-0.48,1.13l-1.38,2.08l-0.3,1.27
				l-0.02,2.45l-0.19,1.2l-1.45,3.96l-1.13,1.7l-1.64,1.21l1.59,2.31l-0.35,2.72l-2.26,4.96l-0.3-0.58l-0.25-0.12l-0.49,0.08
				l0.49,0.62l-0.52,0.78l-0.48,1.03l-0.54,0.91l-1.7,0.7l-0.84,0.8l-0.64,1.03l-0.48,1.02l0.04,0.28v0.22l0.12,0.11l0.35-0.06
				l-0.08,0.41v0.15l-0.09,0.04l-0.34,0.08l0.51,0.62l-0.35,0.29l-0.41,0.57l-0.32,0.31l0.29,1.58l-0.32,1.74l-1.03,2.93l-0.53,5.52
				l-0.46,1.33l0.95,0.47l0.13,1.09l-0.95,3.52l-0.33,0.77l-2.68,2.87l-0.69,0.13l-1.16-0.21l-1.53-1.02l-0.98-0.24l-1.13,0.63
				l-0.61,1.83l-0.43,8.1l-1.74,7.35l0.12,1.32l-0.37,1.2l-0.46,4.03l-0.43,0.88l-2.38,11.71l-2.69,13.45l-6.16,19.21l-1.06,0.57
				l-0.01,0.43l0.07,0.98l-0.06,0.43l-2.36,7.89l-1.42,2.25l-6.38,14.38l-0.54,0.7l-6.77,11.66l-1.89,2.38l-0.61,1.55l-0.19,0.43
				l-2.69,3.89l-5.74,5.91l-1.52,2.72l-3.58,2.65l-1.53,2.77l-3.4,3.05l-1.1,1.4 M1107.09,101.06L1107.09,101.06l0.05-0.02
				L1107.09,101.06z M1115.57,38.87v0.03l-3.64,2.13l3.72-2.22L1115.57,38.87z M1353.7,104.55l-3.61-13.26l-3.48-12.84l-2.63-9.63
				l-0.73-2.66l-2.45-8.98l-3.53-12.97l5.98,21.95l3.36,12.29l12.21,44.94L1353.7,104.55z"/>
			<polygon fill="#01946A" points="1208.74,777.07 1209.43,777.31 1210.41,777.78 1210.71,776.81 1209.95,775.98 1209.06,775.05 
				1208.36,774.63 1207.55,774.55 1207.13,775.64 1207.13,777.05 1207.49,776.89 1208.23,776.89 			"/>
			<polygon fill="#01946A" points="1017.58,522.33 1017.26,521.68 1016.88,521.11 1016.73,521.11 1016.56,520.96 1015.59,521.27 
				1013.38,521.65 1012.09,521.51 1011.41,520.81 1011.71,519.9 1012.58,519.47 1014.54,519.06 1014.27,518.45 1013.83,518.02 
				1012.52,517.29 1012.01,517.5 1011.55,517.88 1011.2,518.4 1010.9,519.06 1010.74,518.58 1010.63,518.63 1010.36,519.06 
				1010.74,519.74 1011.01,521.41 1010.9,522.57 1012.55,524.7 1014.78,525.63 1017.45,525.77 1020.39,525.56 1020.39,524.94 
				1017.66,522.57 			"/>
			<polygon fill="#01946A" points="1007.53,503.16 1007.59,503.27 1007.61,503.29 1007.57,503.2 			"/>
		</g>
		<path clip-path="url(#SVGID_2_)" fill="#EDFCF6" d="M896.11,942.24l-1.43-0.19l-1.26-0.45l-0.71-1.27l-0.77,0.48h-0.43l-0.3-0.34
			l-0.33-0.68l-0.08-0.73l0.41-0.49l1.23-0.8l0.22-1.03l-0.84-0.94l-2.72-1.95l-1.5-0.07l-0.6-0.24l-0.42-0.59l-0.03-0.51l0.03-0.55
			l-0.18-0.66l-1.13-2.1l-0.43-1.21v-1.12l1.41-1.43l2.23,0.54l2.55,1.26l2.45,0.71l0.97-0.54l-0.5-1.22l-1.76-2.16l-0.56-1.23
			l-0.4-1.29l-0.6-1.06l-1.05-0.44l0.13-0.54l0.28-0.63l0.29-0.56l0.35-0.48l0.7,0.37l0.75,0.18l0.81,0.03l0.85-0.08l-0.12,0.37
			l-0.22,0.89l-0.19,0.44l2.91,1.02l1.18-0.14l0.66-1.4l-0.08-0.78l-0.37-0.54l-0.49-0.47l-0.37-0.5l-0.09-0.65l0.24-0.65l0.38-0.7
			l0.21-0.79l0.63-1.33l0.08-0.68l-0.65-0.3l-0.91,0.14l-0.24,0.19l-0.22-0.11l-0.69-0.73l-0.92-1.29l0.13-0.91l0.95-0.67l1.37-0.54
			l-0.78-2.14l-0.62-0.7h-1.19l0.43,1.41l-0.62,0.4l-0.95-0.68l-0.49-1.69l0.81-0.52l-0.7-0.65l-1.24-0.92l-0.94-1.32l0.16-0.61
			l0.54-0.41l0.43-0.38l-0.33-0.59l-0.61-0.33l-0.66-0.15l-0.64-0.27l-0.51-0.65l-0.29-1.8l1.11-0.11l2.87,1.3l1.73,0.54l1.78,0.16
			l1.74-0.3l1.56-0.92l-0.51-0.61l-1.35,0.59l-1.67-0.28l-1.35-0.99l-0.32-1.59l-0.4,0.23l-0.84,0.2l-0.39,0.14l0.15-0.54l0.21-1.18
			l0.16-0.54l-1.5,1.19l-0.77-1.38l-0.54-0.64l-0.53-0.28l-0.87-0.18l-0.21-0.43l0.46-2.65l0.59-0.97l0.7-0.91l0.62-1.13l0.43,1
			l2.07,0.73l0.67,1.15h0.49v-1.09l0.57-2.91l0.16-0.24l0.36-0.11l0.32-0.13l0.12-0.37l-0.12-0.3l-0.39-0.25l-0.32-0.19l-0.13-0.1
			l0.21-0.52l0.35-0.46l0.46-0.43l0.51-0.3l-1.19-0.91l-1.08-1.32l-0.19-1.05l1.44-0.1l-1.3-0.9l-1.35-0.37l-1.11-0.73l-0.8-3.56
			l-1.99-2.24l-0.82-1.31l-0.13-0.91l0.25-0.38l0.32-0.3l0.05-0.7l-0.32-0.59l-0.97-0.95l-0.25-0.72l0.26-1.49l0.44-1.21l0.08-1.3
			l-0.78-1.73l-0.7,1.54l-0.81,3.28l-0.63,1.45l-1.26,1.3l-1.08-0.3l-1.22-0.48l-1.64,0.61l0.81,0.3l1.64,0.08l0.73,0.2l0.49,0.44
			l0.46,1.03l1.67,1.4l0.83,1.21l0.54,1.37l0.15,1.41l-0.08,2.96l-0.52,2.91l-1.41,1.8l-2.72-0.32l1.84,1.67l0.84,0.3l0.96-0.83
			l-0.05,1.26l-1.51,3.82l-0.05,0.6l0.05,0.64v0.73l-0.27,0.9l-0.35,0.51l-0.66,0.46l-1.35,0.71l0.62,0.61l0.33,0.72l-0.16,0.63
			l-0.79,0.31l-0.88-0.16l-0.62-0.65l-0.5-0.8l-0.57-0.67l-0.71-0.44l-0.85-0.3l-0.54-0.34l-0.73-0.65l-0.47-0.54l-0.28-0.68
			l-0.08-1.02l-0.16-0.63l-1.16-2.51l-0.73-0.25l-0.74,0.34l-0.7,0.54l-0.71,0.3l-0.66,0.97l-0.87,1.97l-1.27,1.48l-1.91-0.51
			l0.02,1.86l0.66,1.55l1.23,1.02l1.73,0.11l-0.4-2.02l0.78-1.13l1.14-0.02l0.59,1.19l0.37,0.61l0.87,0.18l0.97,0.09l0.67,0.25
			l0.84,0.78l0.26,0.16l-0.37,0.08l-3.61,1.53l-0.43-0.03l-0.84-0.48l-0.32-0.05l-0.42,0.32l-0.66,0.75l-0.45,0.35l-1.73,0.57
			l-3.45,0.57l-1.59,0.83l4.31,3.21l2.37,0.89l2.45-0.95l1.11-0.92l0.62-0.34l0.59-0.14l0.54-0.26l0.16-0.65l0.06-0.77l0.26-0.59
			l1.52-1.45l0.61-0.3l-0.02,0.37l1.02,0.47l1.11,0.24l0.23-0.22l0.7,1.16l0.64,1.39l0.78,1.21l1.02,0.51l0.97-0.45l2.42-1.78
			l1.05-0.03l0.49,1.16l-0.4,1.67l-0.78,1.59l-0.6,0.95l-1.78,1.94l-0.77,1.13l-0.3,1.12l1.51,0.04l1.97,1.18l1.8,1.7l0.98,1.64
			l0.13,0.81l0.08,1.13l-0.32,1l-0.95,0.44l-0.7-0.4l-0.78-2.1l-0.66-0.89l-0.83,0.68l-1.61,0.24l-0.63,0.78l0.14,1.05l0.81,0.8
			l0.4,0.9l-0.86,1.25l-0.89-1.79l-0.71-0.62l-0.73,0.57l-0.86,1.84l-0.72-1.57l-0.84,0.13l-3.67,4.82l-0.05,0.54l0.54,0.93
			l-0.19,0.5l-0.4,0.15l-1.46,0.14l-0.16,1.1l-0.01,1.05l-0.2,0.97l-0.64,0.8l0.67,1.76l-0.16,1.81l-0.94,1.32l-1.67,0.18v0.62
			l1.6,0.4l-0.63,0.52l-2.29,0.74v0.71l0.68,1.32l-0.13,0.54l-1.05,1.16l-0.41,0.65l-0.37,0.72l0.88,0.67l-0.04,1.35l-0.66,1.56
			l-0.94,1.23l-1.25,1l-1.21,0.33l-1.18-0.27l-1.32-0.77l0.16,1.06l0.53,0.76l0.6,0.56l0.33,0.43v0.97l-0.6,3.53v2.13l-0.33,2.59
			l-1.04,1.64l-2.27-0.76l-0.91,1.35l-4.39,2.22l-1.74,1.26l-1.08,1.8l-0.78,2.05l-0.97,1.89l-1.62,1.3l-1.11,0.24l-1.19-0.16
			l-1.08-0.43l-0.84-0.72l-0.1-0.39l0.1-1.92l-0.21-0.4l-1.08-0.54l-0.54-0.44l-0.21-0.58l0.13-0.65l0.35-0.75l-0.43-0.46
			l-0.97-0.56l-0.42-0.38l-0.6-1.02l-0.57-2.21l-0.68-1.03l-1.23,1l-1.59,0.18l-2.94-0.64l0.2-0.59l0.09-0.65l-0.12-0.73l-0.18-0.78
			l-0.61,1.86l-1.09,0.51l-1.21,0.13l-1,0.82l-0.85,1l-1.01,0.15l-1.08-0.43l-0.97-0.67l-0.13,2.23l-1.47,0.48l-2.02-0.18
			l-1.64,0.27l0.59,0.56l-3.45,4.07L815.3,967l-3.1,0.42l-1.05,0.44l0.83,1.94l-0.8,0.43l-1.32,0.22l-1.08,0.61l-0.68,1.06
			l-0.08,1.42l0.84,0.05l0.56,0.4v0.62l-0.85,0.65l-0.64-0.84l-0.95-0.21l-1.05,0.24l-1.02,0.52l-1.05,0.21l-0.76-0.66l-1.35-2.05
			l-0.78-0.54l-1.08-0.54l-1.14-0.43l-0.93-0.16l-1.03-0.38l-0.67-0.8l-0.54-0.97l-0.65-0.7l0.14,1.17l-0.6,0.84l-0.3,1.03
			l0.99,1.81l5.26,4.98l5.07,2.36l0.94,0.76l-0.43,1.72l-1.67-0.22l-3.13-1.51l0.35,0.49l0.19,0.51l0.05,0.48l-0.02,0.48l-0.6,0.27
			l-0.84,0.78l-0.54,0.76l-0.72-0.03l-1.19-0.73l-1.21-0.56l-1.24,0.34l1.59,4.52l-0.54,0.35l-2.12,0.3l-0.97,0.46l0.99,0.56
			l-10.99,10.13l-5.39,3.23l-1.07,1.24l-1,1.97l-1.26,1.75l-1.52,1.16l-1.71,0.21l0.3,0.81l0.27,0.99l0.03,1.02l-1.65,5.05
			l-0.06,4.9l-0.54,2.18l-4.23,6.2l-1.48,1.26l-0.46,0.24l-0.96,0.35l-0.41,0.27l-0.24,0.54l-0.16,1.38l-0.39,0.56l-0.65,0.56
			l-0.59,0.38l-0.75,0.01l-1.1-0.4l0.35,1.08l-0.4,1.03l-0.61,1.13l-0.38,1.27l0.11,1.34l0.32,1.29l0.17,1.38l-1.08,3.8l-0.65,0.43
			l-1.53,0.13l-1.3,0.47l-1.08,1.15l-0.76,1.48l-0.51,1.4l1.21-1.24l1.13-0.83l1.3-0.52l1.56-0.25l1.78-0.99l1.42-4.03l1.54-1.67
			l-0.48-0.72l-0.11-0.68l0.15-0.7l0.44-0.69l0.7-0.68l0.51-0.1l0.54,0.17l0.86,0.06l0.03-0.19l0.21-0.41l0.35-0.4l0.44-0.16
			l0.24,0.19l0.61,0.84l0.25,0.13l0.91-0.54l0.18-0.4l0.03-0.51l0.44-0.83l2.07-2.21l-0.05-0.15l-0.03-1.14l0.08-0.43l0.19-0.24
			l0.86-0.84l2.59-4.56l0.54-1.64l0.14-2l-0.38-4.22l0.24-2.22l0.53-1.45l3.62-6.03l5.92-5.17l1.08-0.6l0.83,0.41l0.06-0.59
			l0.14-0.28v-0.26l-0.2-0.54l4.11-2.97l1.15-0.4l1.38,0.29l1.49,0.54l1.46,0.25l1.42-0.51l-1.08,0.13l-0.84-0.18l-0.51-0.59
			l-0.18-1.02l-0.3-0.48l-2.32-1.84l0.86-0.24l0.65-0.46l0.41-0.64l0.21-0.88l0.99,1.12l0.48-1.59l0.06-0.65l1.1,1.24l0.95,0.21
			l0.32-0.64l-0.81-1.33l4.18-2.37l2.08-0.42l2.13,0.5l0.68,0.78l0.55,1.03l0.74,0.54l1.18-0.68l0.57-1.15l-0.32-1.22l-0.83-0.97
			l-1.01-0.49l0.56-0.63l-0.94-1.15l1.64-0.17l4.49,0.76v-1.59l0.19-1.63l0.67-1.32l1.48-0.54l0.9-0.46l0.47-0.86l0.78-0.64
			l1.76,0.29l-1.52-2.88l-0.9-2.99l-0.18,0.25l0.27-1.35l0.61-0.08l2.24,1.43l-0.43-1.83l-0.52-1.28l0.02-1.21l1.22-1.61l1.45-1.15
			l1.21-0.3l1.27,0.37l1.54,0.78l-0.3-1.45l-0.46-0.68l-0.22-0.59l0.46-1.17l0.43-0.37l0.49-0.07l0.56,0.02l0.6-0.15l0.16-0.33
			l-0.16-0.37l-0.03-0.3l0.54-0.14l0.4-0.06l0.37-0.1l0.38-0.17l2.56-1.64l1.21-0.38l1.35,0.09l1.15,0.62l0.9,0.81l0.94,0.68
			l1.21,0.16l-0.81,1.08l0.51,0.54l2.35,0.62l-0.5,0.54l-1.08,1.73l1.11-0.17l1.81,1.54l1.29,0.3l-0.19,0.43l-0.19,0.9l-0.13,0.37
			l0.84,0.05l0.81-0.05l0.77-0.19l0.76-0.33l-0.57,2.07l-1.29,1.67l-1.83,1.06l-2.11,0.24l0.33,1.51l0.32,0.83l0.4,0.46l0.68-0.11
			l1.05-1.26l0.63-0.3l1.26,0.46l0.89,0.87l0.92,0.45l1.35-0.73h-0.57l-1.46-0.49l0.27-1.26l0.35-3.36l0.4-1.01l0.95-0.22l4.26,0.22
			l0.61-0.59l0.76-3.05l0.49-1.15l1.97-2.25l1.07-0.61l1.38-0.19l0.51-1.4l5.92-2.07l1.46-1.65l0.15-0.89l0.71-0.85l0.13-1.08v-2.89
			l0.36-0.52l0.54-0.42l0.72-0.41l-0.07-0.91l-0.24-0.63l-0.5-0.21l-0.81,0.32l-0.08-1.21l0.11-1.21l0.35-1.13l0.67-0.94l0.29,0.66
			l1.28,1.64l0.12-1.14l-0.12-0.48l-0.54-0.7l0.62-0.24l1.21-0.73l0.53-0.15l0.71,0.09l1.38,0.44l0.78,0.02l-0.54-1.74l0.43-0.73
			l0.91,0.35l0.81,1.57l1.04-3.17l0.19-1.54l-0.21-1.52l0.65,0.54l0.54,0.08l0.48-0.37l0.38-0.82h-1.05l0.46-0.91l-0.02-0.82
			l-0.51-0.64l-0.92-0.44l0.87-0.64l2.8-1.05l-0.14,2.66l0.14,0.7l0.4,0.17l0.73-0.03l0.64,0.16l0.29,0.58l0.49,0.48l5.76,3.84
			l3.24,3.32l0.99,0.54l-0.29-0.68l-0.03-0.46l0.32-1.11l1.68,1.11l2.88,0.94l2.96,0.49l1.88-0.3l-4.21-3.37L896.11,942.24z
			 M843.04,314.68l1.02,0.92l1.62,2.31l1.01,0.97l1.26,0.65l2.86,1l1.14,0.76l1.85,1.93l0.75,0.46l0.78,0.3l0.27-0.18l0.27-0.54
			l1.7-1.57l0.36,0.14l1.62,1.43l0.59,0.69l0.45,0.73l0.36,0.32l0.11-0.11l0.32,0.06v2.34l0.54-0.54l0.3,0.54l0.24,0.28l-0.02,0.37
			l0.73,1.43l0.72-0.91l0.25-1.91l-0.68-1.6l-0.02-0.41l0.11-0.13l0.52-0.05l-1.08-0.67l0.13-0.08l0.21,0.03l0.16-0.08l-0.03-0.4
			l-0.29-0.16l-0.05-0.11v-0.07l-0.13-0.3l-0.26,0.19l-0.06,0.11l-0.06,0.13l-0.16,0.22l-0.95-1.43l-0.86-0.54l-2.87-0.43
			l-1.07-0.43l-1.21-0.81l-0.73-0.97l0.32-0.89l-0.4-0.63v-0.67l0.06-0.75l-0.17-0.92l-0.37-0.69l-0.36-0.38l-0.4-0.31l-3.02-4.05
			l-0.54-1.21l-1.05-0.54l-3.53,1.34l-1.56,1.19l0.37,1.67l-0.35,0.54L843.04,314.68z M1098.09,91.51l0.11-1.36l-0.27-0.9l-0.57-0.7
			l-1.26-1.18l-1.67-0.19l-2.8,1.57l-2.36,2.57l-0.49,2.83l0.27,0.55l1.3,1.92l0.85,2.16l0.46,0.3l0.83,0.83l0.27,1.74l0.54,1.56
			l1.73,0.24l2.63-3.14l0.06-0.67l-0.06-0.52l0.08-0.38l0.46-0.23l-0.43-0.87l-0.03-1.08l0.46-2.42l-0.3-1.05l0.04-0.75
			L1098.09,91.51z M1091.93,188.93h-0.57l-3.39,0.87l-2.31,2.27l-1.68,3.14l-1.45,3.53l-1.75,2.79l-0.35,0.85l-0.02,1.11l0.51,2.17
			l0.03,1.04l-0.52,1.58l-0.73,1.45l-0.43,1.6l0.6,3.74l-0.54,3.23l0.62,3.63l0.33,4.48l0.67,1.6l2.08,0.39l3.73-3.96l1.49-0.08
			l0.15,1.2l-0.83,3.2l0.16,1.07l0.71,0.12l0.81-0.46l1.28-1.19l0.57-0.76v-0.62l-0.22-0.61l-0.02-0.73l2.09-10.15l-0.26-2.54
			l-1.08-3.71l1.84-14.55l0.72-2.57l-0.13-2.01L1091.93,188.93z M1088.29,239.33l-2.69-0.99l-1.11-0.74l-3.07-2.89l-1.21,1.37
			l-0.35,0.5l-2.37-0.43l-0.83,2.22l0.37,3.07l1.88,3.01l0.35,2.56l0.6,1.07l1.16,0.61l3.31,0.59l1.32,0.06l0.67-0.18l1.91-1.37
			l0.56-0.56l-0.11-0.55l-0.32-0.54l-0.21-0.84l-0.28-0.3l-0.19-0.34l0.29-0.51l1.57-1.65l0.24-0.55l-0.36-1.7L1088.29,239.33z
			 M1728.15,104.69l-5.49-1.85l-0.52-0.27l-1.8-1.58l-2.48-0.39l-0.68-0.28l-1.7-2.09l-5.02-10.36l-1.35-3.92l-0.3-1.24l-0.54-1.05
			l-1.02-1.26l-0.61-1.57l0.67-2.02l-1.13-0.66l-2.96-0.93l-1.22-0.87l-1.02-1.52l-0.51-1.55l-0.15-1.72l0.12-2.02l-0.99,0.93
			l-0.05,1.64l0.62,3.61l-0.22,1.24l-0.65,1.01l-0.99,0.34l-1.35-0.72l-0.6,0.87l-1.64,1.72l-0.37,1.11l0.37,0.76l1.95,2.26
			l0.86,0.7l-0.3,0.72l-0.19,0.59l-0.08,0.65v0.86l-0.25,0.34l-1.07-0.06l-0.25,0.31l-0.35,0.84l-0.51,0.71l0.03,0.5l1.29,0.14v0.56
			l-0.84-0.13l-0.77-0.41l-0.94-0.63l-0.76,0.15l-1.14,0.78l-0.7,0.24v0.68l1.08,0.49l0.49,1.11l0.49,0.77l1.11-0.52l0.24,1
			l-0.47,1.02l-0.75,1.09l-0.63,1.25l-0.32-0.3l-0.24-0.13l-0.25-0.09l-0.27-0.15l1.48,3.45l0.3,1.46l-0.7,0.71v0.62l0.32,0.09
			l0.71,0.52l-0.76,1.88l1.22,2.84l2.72,4.28l1.41,1.73l2.93,1.52l2.75,0.43l0.77-1.53l0.98,0.17l1.67,0.8l0.97,0.21l-0.57,0.39
			l-0.35,0.42l-0.62,1.02l1.46-0.3l1.32-0.62l1.26-0.29l1.18,0.66l-1,0.25l-0.43-0.03l-0.66-0.23l-0.04,2.73l0.34,1.09l0.98,0.43
			l0.63-0.68l0.15-1.37l0.25-0.95l0.85,0.56h0.49l0.18-0.33l0.33-0.25l0.11,0.49l0.3,0.86l0.1,0.5h0.57l0.36-0.84l0.13-0.43h0.57
			l0.23,1.32l0.54,0.89l0.29,0.89l-0.6,1.31l0.67-0.39l0.57-0.13l0.51,0.28l0.37,0.8l0.76-0.88l1.07-1.89l0.74-0.91l0.78-0.57
			l1.64-0.81l2.99-2.4l0.99-1.22l0.41-1.51v-3.96l0.63-2.9L1728.15,104.69z M1320.7-188.18l-0.59-0.13l-0.26-0.3l-0.13-0.93
			l-0.33-0.02l-0.53,0.59v0.14l-1.35,0.57l-0.08-0.19l-0.84-0.85l-0.42-0.3l-0.16,0.43l-0.52,0.71l-0.59,0.4l-0.25-0.55l-0.11-1.04
			l-0.25-0.27l-0.38-0.03l-0.37-0.35l-0.89-1.87l-0.67-1.97h-0.49v0.7h-0.56l-0.36-1.24l-0.09-0.68l-0.92,0.74l-0.51,2.82
			l-1.18,0.87l-1.35-0.2l-0.81-0.87l-0.75-0.96l-5.26-2.49l-1.04-0.33l-0.57-0.82l-0.46-0.93v-0.35h-1.17l-0.84,0.07l-0.37-0.07
			h-11.29l0.91,0.6h0.51l0.63-0.56l0.56,0.24l0.24,0.71l-0.38,0.85l0.7,0.64l1.32,1.64l0.87,0.33l1.04,0.13l2.51,0.75l0.86,0.39
			l1.5,1.52l2.29,3.55l1.7,0.7l1.39,0.09l1.04,0.32l0.8,0.6l0.67,0.91l0.65,1.24l-0.08,0.65l-0.35,0.58l-0.22,1.08l-0.24,0.43
			l-0.54,0.33l-0.57,0.44l-0.24,0.78l0.32,0.52l0.66-0.16l0.56-0.43l0.05-0.27h1.78l0.53,0.47l0.33,1.44h0.49v-1.29l-0.49-2.9
			l0.33-0.6l1.45-0.99l0.33-0.36l0.36-0.72l0.66,1.27l0.54,1.72l-0.02,0.62l0.83,0.18l0.86-0.4l0.78-0.11l0.65,1.02h0.59l3.53-3.01
			l0.59-0.89h0.53v0.64l2.64-1.43l0.49-0.15l0.11-1.1l0.27-0.83l0.65-1.56l-0.52,0.07H1320.7z M1693.71,55.1v0.55l-0.39,0.25
			l-0.16,0.24l-0.2,0.32l-0.35,0.49l0.44,0.86l-0.39,0.59l-0.48,0.54l0.18,0.77l0.57,0.57l0.77,0.48l0.82,0.35l0.7,0.18l1.54-0.47
			l1.08-0.5l0.88-1.15l0.92-0.14l1.08-0.01l0.8-0.2l1.19-1.32l1.17-1.99l0.9-2.19l0.37-1.95l-0.23-0.72l-1.09-2l-0.25-0.71
			l-0.48-0.59l-3.12-1.66l-0.52,1.4l-0.4,0.83l-0.46,0.36l-1.06-0.55l-0.54-0.16l-0.24,0.37l-0.4,0.13l-2.45-2.96l-1.22-0.49
			l-0.36-1.26l-0.01-1.61l-0.26-1.6l-0.67-0.79l-3.5-1.75l-0.68,4.91l-0.4,1.36l-1.38,1.4l-1.27,0.3l-1.23,0.07l-0.84,0.65
			l-0.6,2.48l1.3,1.53l3.52,1.63l3.28,2.51l1.76,0.65H1693.71z M1682.49,12.23l0.71-0.89l1.08,1.1l1.67,0.58l3.22,0.25l1.59,0.47
			l1.25,0.86l1.35,0.34l1.88-1.05l1.05-1.52l0.66-1.92l0.35-1.84l0.08-1.3l-0.24-0.65l-0.54-0.39l-0.56-0.24l-0.32-0.25l-0.25-0.76
			l0.03-0.37l0.14-0.37l0.26-1.75l0.27-0.72l0.05-0.54l-0.5-0.48l0.5-0.09h0.38l0.39-0.13l0.4-0.46l0.43,0.31l0.33,0.13l0.81,0.24
			l-0.71-0.91l-1.35-0.87l-1.52-0.62l-1.18-0.15l1.44-0.57l0.81-0.13l0.37,0.36l0.19,0.26l0.46,0.15l0.51,0.05l0.4-0.12l0.05-0.3
			l-0.11-2.45l-0.26-1.71l-0.62-1.36l-1.11,0.13l-0.27-1.24l-0.69-0.35l-0.9-0.18l-0.74-0.71l-0.26-1.03l-0.19-2.5l-0.13-0.8
			l-0.44-0.59l-1.62-1.58l-0.54-0.33l-0.78,0.27l-0.81,0.73l-0.64,0.86l-0.37,0.65h-0.57l-0.06-1.55l-0.41-1.13l-0.86-0.57
			l-1.29,0.06l0.27-1l-0.16-0.95l-0.38-1.08l-0.25-1.36l-0.59,0.65l-0.86,1.23l-0.64,0.63l-0.32-1.05l0.19-0.76l0.27-0.63l-0.13-0.7
			l-0.64-0.54l-1.56-0.05l-0.66-0.38l-1.28-2.22l-0.42-0.31l-0.9-0.17l-0.3-0.15l-0.12-0.34l0.03-0.81l-0.16-0.39l-1.54-1.8
			l-0.23-0.1l-0.16-0.18l-1.69-5.18l-0.57-0.76l-1.25-0.46l0.92-2.81l-0.05-1.28l-0.87-1l0.42-0.13v-0.09l0.1-0.35l-0.84-0.23
			l-0.5-0.71l-0.37-0.83l-0.41-0.75l-0.7-0.41l-0.24,0.87l0.08,1.41l0.4,1.21h-0.6l-0.53-2.38l-0.51-0.99l-0.76-0.41l-0.76,0.54
			l-0.03,1.24l0.52,2.33l-0.19,0.84l-0.46,0.59l-1.19,1.08l-0.56,1.15l-0.03,1l0.65,3.23l1.22,3.82l0.04,2.47l-0.91,4.15l0.27,1.75
			l1.7,0.95v0.68l-0.81,1.19l0.26,3.93l-1.05,1.13v0.58l0.26,0.04l0.79-0.04l-0.52,1.3l0.95,0.54l-0.11,0.43l-0.54,0.51l-0.3,0.77
			l0.16,0.7l0.73,0.98l0.17,0.78l0.48,1.14l2.18,2.54l0.91,2.38l2.7,3.73l2.72,2.34l0.4,0.78l-0.78,0.25l-0.16,0.19l0.19,0.26
			l0.3,0.49l0.2,0.21l0.95,1.43l0.06,0.34l0.91,0.37l1.08,1.87l0.91,0.83l0.28-0.4l0.51-0.46l0.24-0.44h0.49l0.3,0.83l0.5,0.32
			L1682.49,12.23z"/>
		<g clip-path="url(#SVGID_2_)">
			<path fill-rule="evenodd" clip-rule="evenodd" fill="#EDFCF6" d="M734.38,383.09c0,0.91,0,1.82,0,2.73c-0.15,0-0.3,0-0.45,0
				c-0.49,1.92-2.28,3.07-4.09,3.64c-0.91,0-1.82,0-2.73,0c0,0.15,0,0.3,0,0.45c-0.3,0-0.61,0-0.91,0l-1.82,2.27
				c-1.52,0-3.03,0-4.55,0c0,0.15,0,0.3,0,0.45c-0.91,0.3-1.82,0.61-2.73,0.91c0,0.15,0,0.3,0,0.45c-1.82,0-3.64,0-5.46,0
				c-1.2,0.34-2.82,1.26-4.55,0.45l-0.45-0.91h-1.36l-0.45-0.91h-1.36c-1.34-0.66-1.7-1.2-1.82-3.18c0.15,0,0.3,0,0.45,0
				c0.91,0.82,6.95,1.13,8.18,0.45l0.91-1.36h0.91l0.91-1.36c0.61-0.15,1.21-0.3,1.82-0.45c0-0.15,0-0.3,0-0.45
				c0.61,0,1.21,0,1.82,0l0.45-0.91c0.45,0,0.91,0,1.36,0c0-0.15,0-0.3,0-0.45c0.61,0,1.21,0,1.82,0l0,0
				c1.22-2.43,4.88-1.57,4.88,1.15l1.03-2.06h0.91l0.45-0.91h3.64c0.15-0.3,0.3-0.61,0.45-0.91c1.27-0.32,1.02,0.78,1.36,0.91
				H734.38z"/>
			<path fill-rule="evenodd" clip-rule="evenodd" fill="#EDFCF6" d="M703.47,404.91c1.52,0.15,3.03,0.3,4.55,0.45
				c0.65,0.96,1.58,1.31,2.27,2.27c0.15,0,0.3,0,0.45,0c0,0.91,0,1.82,0,2.73c-1.22,1.04-1.02,2.01-3.18,2.27
				c-0.52-0.52,0-0.18-0.91-0.45C705.43,409.57,703.53,408.78,703.47,404.91z"/>
			<path fill-rule="evenodd" clip-rule="evenodd" fill="#EDFCF6" d="M704.38,411.27c-0.15,1.21-0.3,2.42-0.45,3.64
				c-0.15,0-0.3,0-0.45,0c0,0.3,0,0.61,0,0.91c-0.15,0-0.3,0-0.45,0c0,0.61,0,1.21,0,1.82c-0.15,0-0.3,0-0.45,0
				c-0.14,0.77,0.43,0.79,0.45,0.91c0,0.91,0,1.82,0,2.73c-0.45,0.15-0.91,0.3-1.36,0.45c0,0.15,0,0.3,0,0.45c-0.61,0-1.21,0-1.82,0
				c0-1.06,0-2.12,0-3.18c0.3,0,0.61,0,0.91,0c0.2-1.75,0.76-2.91-0.45-4.09c0-0.15,0-0.3,0-0.45c-0.45,0-0.91,0-1.36,0
				C699.47,412.11,701.34,411.21,704.38,411.27z"/>
		</g>
	</g>
</g>
<g id="text">
	<g>
		<g>
			<path fill="#FFFFFF" d="M780.05,341.51c0-3.8,2.65-6.55,6.28-6.55c2.7,0,4.75,1.42,5.58,3.91l-1.73,0.58
				c-0.56-1.76-1.85-2.83-3.83-2.83c-2.59,0-4.5,2.09-4.5,4.9c0,2.9,1.91,4.9,4.56,4.9c2.03,0,3.24-1.12,3.74-2.57l1.71,0.56
				c-0.86,2.27-2.7,3.67-5.47,3.67C782.66,348.06,780.05,345.41,780.05,341.51z"/>
			<path fill="#FFFFFF" d="M802.74,344.62h-5.22l-1.17,3.19h-1.85l4.72-12.6h1.85l4.72,12.6h-1.85L802.74,344.62z M802.14,343
				l-2.02-5.42l-2,5.42H802.14z"/>
			<path fill="#FFFFFF" d="M809.36,335.2h1.8v12.6h-1.8V335.2z"/>
			<path fill="#FFFFFF" d="M815.73,335.2h4.36c2.7,0,4.1,1.6,4.1,3.67c0,2.05-1.28,3.21-2.63,3.56l3.13,5.37h-1.98l-2.97-5.13h-2.21
				v5.13h-1.8V335.2z M820.05,341.09c1.42,0,2.34-0.74,2.34-2.14c0-1.46-0.99-2.12-2.38-2.12h-2.49v4.27H820.05z"/>
			<path fill="#FFFFFF" d="M827.74,341.49c0-3.64,2.56-6.55,6.41-6.55c3.83,0,6.39,2.92,6.39,6.55c0,3.67-2.57,6.55-6.39,6.55
				C830.29,348.04,827.74,345.16,827.74,341.49z M838.74,341.49c0-2.79-1.87-4.9-4.59-4.9c-2.75,0-4.61,2.11-4.61,4.9
				c0,2.84,1.84,4.9,4.61,4.9C836.9,346.39,838.74,344.33,838.74,341.49z"/>
		</g>
	</g>
	<g>
		<g>
			<path fill="#FFFFFF" d="M606.18,608.77h7.78v1.62h-5.98v3.83h5.22v1.58h-5.22v3.94h5.98v1.62h-7.78V608.77z"/>
			<path fill="#FFFFFF" d="M617.36,615.07c0-3.71,2.68-6.55,6.32-6.55c2.79,0,4.57,1.44,5.35,3.47l-1.67,0.58
				c-0.56-1.4-1.69-2.39-3.6-2.39c-2.72,0-4.59,2.2-4.59,4.9c0,2.81,1.87,4.9,4.61,4.9c2.7,0,3.85-1.98,3.92-3.85h-2.93v-1.55h4.7
				v6.81h-1.28l-0.27-1.66c-0.4,0.63-1.75,1.91-4.2,1.91C619.99,621.63,617.36,618.91,617.36,615.07z"/>
			<path fill="#FFFFFF" d="M636.17,616.35l-4.32-7.58h1.96l3.24,5.8l3.26-5.8h1.96l-4.3,7.58v5.02h-1.8V616.35z"/>
			<path fill="#FFFFFF" d="M645.85,608.77h4.25c2.43,0,4.27,1.26,4.27,3.91c0,2.57-1.87,3.91-4.2,3.91h-2.52v4.79h-1.8V608.77z
				 M649.98,614.96c1.64,0,2.59-0.79,2.59-2.3c0-1.48-0.97-2.27-2.59-2.27h-2.32v4.57H649.98z"/>
			<path fill="#FFFFFF" d="M660.83,610.43h-3.75v-1.66h9.31v1.66h-3.76v10.95h-1.8V610.43z"/>
		</g>
	</g>
</g>
<g id="TEXT">
	<circle fill="#FFFFFF" cx="764.97" cy="340.57" r="9"/>
	<g>
		<path fill="#00DB85" d="M493.16,432.94h2.08l9.85,14.4v-14.4h1.97v17.5h-2.08l-9.87-14.4v14.4h-1.95V432.94z"/>
		<path fill="#00DB85" d="M510.58,444.31c0-3.22,2.33-6.47,6.25-6.47c4,0,6.3,3.25,6.3,6.47c0,3.2-2.3,6.47-6.3,6.47
			C512.81,450.78,510.58,447.51,510.58,444.31z M521.23,444.31c0-2.7-1.8-4.75-4.4-4.75c-2.57,0-4.35,2.05-4.35,4.75
			c0,2.67,1.78,4.75,4.35,4.75C519.43,449.06,521.23,446.99,521.23,444.31z"/>
		<path fill="#00DB85" d="M526.28,438.19h1.6l0.27,1.62c0.58-1.03,1.75-1.97,3.35-1.97c1.07,0,1.9,0.35,2.25,0.65l-0.77,1.62
			c-0.25-0.2-0.88-0.48-1.7-0.48c-1.7,0-3.1,1.55-3.1,3.92v6.87h-1.9V438.19z"/>
		<path fill="#00DB85" d="M537.46,447.61v-7.7h-2.27v-1.72h2.27v-3.2h1.9v3.2h3.52v1.72h-3.52v7.52c0,1.15,0.52,1.57,1.42,1.57
			c0.6,0,1.05-0.27,1.27-0.47l0.97,1.32c-0.3,0.38-1.15,0.92-2.55,0.92C538.66,450.78,537.46,449.61,537.46,447.61z"/>
		<path fill="#00DB85" d="M545.69,432.94h1.9v6.87c0.95-1.3,2.35-1.97,4.07-1.97c2.4,0,4.2,1.37,4.2,4.57v8.02h-1.9v-7.57
			c0-2.6-1.27-3.25-2.87-3.25c-1.8,0-3.5,1.42-3.5,3.87v6.95h-1.9V432.94z"/>
		<path fill="#00DB85" d="M567.13,432.94h6.2c3.42,0,4.97,2.08,4.97,4.6c0,1.8-0.9,3.07-2.12,3.77v0.05c1.12,0.4,2.8,1.5,2.8,4.12
			c0,2.75-1.92,4.95-5.32,4.95h-6.52V432.94z M573.28,440.69c2.05,0,3.1-1.27,3.1-3.12c0-1.77-1.2-2.9-3.1-2.9h-4.2v6.02H573.28z
			 M573.68,448.71c2.22,0,3.35-1.47,3.35-3.22c0-1.72-1.07-3.12-3.7-3.12h-4.25v6.35H573.68z"/>
		<path fill="#00DB85" d="M583.51,444.84c0.1,2.42,1.77,4.32,4.22,4.32c1.95,0,3.3-1.12,3.7-2.38l1.67,0.53
			c-0.62,1.8-2.42,3.47-5.37,3.47c-3.75,0-6.1-2.92-6.1-6.47c0-3.52,2.57-6.47,6.07-6.47c3.42,0.02,5.75,2.42,5.75,6.17v0.83H583.51
			z M587.73,439.46c-2.42,0-3.9,1.72-4.2,3.8h8.15C591.53,441.14,589.96,439.46,587.73,439.46z"/>
		<path fill="#00DB85" d="M596.61,438.19h1.6l0.27,1.65c0.97-1.32,2.35-2,4.1-2c2.42,0,4.22,1.37,4.22,4.57v8.02h-1.9v-7.57
			c0-2.6-1.3-3.25-2.9-3.25c-1.8,0-3.5,1.42-3.5,3.85v6.97h-1.9V438.19z"/>
		<path fill="#00DB85" d="M610.23,434.79c0-0.8,0.62-1.42,1.45-1.42c0.78,0,1.4,0.62,1.4,1.42s-0.62,1.42-1.4,1.42
			C610.86,436.21,610.23,435.59,610.23,434.79z M610.73,438.19h1.9v12.25h-1.9V438.19z"/>
		<path fill="#00DB85" d="M623.18,445.74l1.83-0.52c0.65,2.55,2.12,3.8,4.75,3.8c2.38,0,4.25-1.07,4.25-3.27
			c0-1.17-0.27-2.55-4.17-3.27c-3.55-0.65-6.02-1.95-6.02-4.97c0-3.07,2.65-4.92,5.92-4.92s5.15,1.83,5.92,4.8l-1.83,0.53
			c-0.5-2.12-1.65-3.57-4.1-3.57c-2.32,0-3.97,1.15-3.97,3.17c0,1.9,1.58,2.55,4.42,3.1c3.8,0.75,5.77,2.17,5.77,5.15
			c0,3.07-2.72,5.02-6.2,5.02C626.36,450.76,624.06,449.13,623.18,445.74z"/>
		<path fill="#00DB85" d="M649.31,450.43h-1.6l-0.3-1.65c-0.97,1.32-2.35,2-4.1,2c-2.4,0-4.2-1.37-4.2-4.57v-8.02h1.9v7.57
			c0,2.6,1.3,3.25,2.9,3.25c1.77,0,3.5-1.42,3.5-3.85v-6.97h1.9V450.43z"/>
		<path fill="#00DB85" d="M654.13,444.84c0.1,2.42,1.77,4.32,4.22,4.32c1.95,0,3.3-1.12,3.7-2.38l1.67,0.53
			c-0.62,1.8-2.42,3.47-5.37,3.47c-3.75,0-6.1-2.92-6.1-6.47c0-3.52,2.57-6.47,6.07-6.47c3.42,0.02,5.75,2.42,5.75,6.17v0.83H654.13
			z M658.36,439.46c-2.42,0-3.9,1.72-4.2,3.8h8.15C662.16,441.14,660.58,439.46,658.36,439.46z"/>
		<path fill="#00DB85" d="M668.16,439.91h-2.22v-1.72h2.22v-2.4c0-1.92,1.25-3.2,3.05-3.2c1.77,0,2.52,0.77,2.65,0.92l-1.07,1.3
			c-0.08-0.1-0.53-0.5-1.28-0.5c-0.95,0-1.45,0.55-1.45,1.62v2.25h3.57v1.72h-3.57v10.52h-1.9V439.91z"/>
		<path fill="#00DB85" d="M685.18,448.63l-0.25,1.8h-1.6v-17.5h1.9v7.02c0.9-1.2,2.3-2.12,4.3-2.12c3.92,0,5.82,3.27,5.82,6.45
			c0,3.15-2.12,6.47-5.82,6.47C687.38,450.76,685.98,449.76,685.18,448.63z M693.46,444.29c0-2.77-1.67-4.75-4.12-4.75
			c-2.47,0-4.12,2-4.12,4.75s1.65,4.77,4.12,4.77C691.78,449.06,693.46,447.04,693.46,444.29z"/>
		<path fill="#00DB85" d="M698.51,432.94h1.9v17.5h-1.9V432.94z"/>
		<path fill="#00DB85" d="M703.56,444.31c0-3.22,2.33-6.47,6.25-6.47c4,0,6.3,3.25,6.3,6.47c0,3.2-2.3,6.47-6.3,6.47
			C705.78,450.78,703.56,447.51,703.56,444.31z M714.21,444.31c0-2.7-1.8-4.75-4.4-4.75c-2.57,0-4.35,2.05-4.35,4.75
			c0,2.67,1.78,4.75,4.35,4.75C712.41,449.06,714.21,446.99,714.21,444.31z"/>
		<path fill="#00DB85" d="M718.66,444.31c0-3.3,2.27-6.47,6.17-6.47c2.85,0,4.62,1.65,5.32,3.72l-1.72,0.6
			c-0.55-1.6-1.82-2.6-3.6-2.6c-2.52,0-4.27,2-4.27,4.75c0,2.75,1.75,4.75,4.27,4.75c1.75,0,3.07-1.05,3.62-2.7l1.72,0.6
			c-0.77,2.12-2.6,3.82-5.35,3.82C720.83,450.78,718.66,447.58,718.66,444.31z"/>
		<path fill="#00DB85" d="M736.88,444.34l-1.6,1.65v4.45h-1.9v-17.5h1.9v10.57l5.2-5.35h2.35l-4.67,4.85l5.27,7.42h-2.2
			L736.88,444.34z"/>
	</g>
	<g>
		<path fill="#00DB85" d="M496.06,347.94h10.6v1.75h-8.65v6.05h7.62v1.72h-7.62v6.22h8.65v1.75h-10.6V347.94z"/>
		<path fill="#00DB85" d="M510.03,347.94h1.9v17.5h-1.9V347.94z"/>
		<path fill="#00DB85" d="M523.21,347.94h10.6v1.75h-8.65v6.47h7.65v1.72h-7.65v7.55h-1.95V347.94z"/>
		<path fill="#00DB85" d="M535.26,362.08c0-2.15,1.35-3.47,4.7-3.95l3.27-0.48v-0.4c0-1.82-0.98-2.82-3-2.82
			c-2.05,0-2.85,1.07-3.05,2.52l-1.72-0.45c0.47-2.32,2.12-3.67,4.77-3.67c3,0,4.9,1.52,4.9,4.4v8.2h-1.6l-0.23-1.27
			c-0.67,0.95-1.85,1.62-3.8,1.62C536.68,365.78,535.26,364.04,535.26,362.08z M543.23,361.01v-1.8l-3.05,0.45
			c-1.85,0.27-3.07,0.82-3.07,2.32c0,1.33,1.08,2.15,2.8,2.15C541.61,364.13,543.23,363.21,543.23,361.01z"/>
		<path fill="#00DB85" d="M559.21,353.19v12.27c0,2.7-1.4,5.52-5.37,5.52c-2.97,0-4.57-1.62-5.2-3.9l1.82-0.42
			c0.4,1.67,1.42,2.62,3.37,2.62c2.4,0,3.47-1.52,3.47-3.77v-1.85l-0.03-0.12c-1.05,1.32-2.2,1.97-4.22,1.97
			c-2.22,0-4.4-1.3-4.4-4.5v-7.82h1.9v7.2c0,2.6,1.3,3.35,3.05,3.35c2.02,0,3.7-1.42,3.7-3.87v-6.67H559.21z"/>
		<path fill="#00DB85" d="M573.16,365.43h-1.6l-0.3-1.65c-0.97,1.32-2.35,2-4.1,2c-2.4,0-4.2-1.37-4.2-4.57v-8.02h1.9v7.57
			c0,2.6,1.3,3.25,2.9,3.25c1.77,0,3.5-1.42,3.5-3.85v-6.97h1.9V365.43z"/>
		<path fill="#00DB85" d="M576.91,353.19h1.6l0.25,1.67c0.95-1.33,2.27-2.02,4-2.02c1.75,0,2.97,0.85,3.55,2.12
			c0.95-1.3,2.35-2.12,4.27-2.12c2.17,0,4.02,1.32,4.02,4.37v8.22h-1.9v-7.5c0-2.6-1.15-3.32-2.72-3.32c-1.72,0-3.27,1.35-3.27,3.87
			v6.95h-1.9v-7.5c0-2.6-1.25-3.32-2.7-3.32c-1.7,0-3.3,1.32-3.3,3.87v6.95h-1.9V353.19z"/>
		<path fill="#00DB85" d="M605.01,359.31c0-3.3,2.27-6.47,6.17-6.47c2.85,0,4.62,1.65,5.32,3.72l-1.72,0.6
			c-0.55-1.6-1.82-2.6-3.6-2.6c-2.52,0-4.27,2-4.27,4.75c0,2.75,1.75,4.75,4.27,4.75c1.75,0,3.07-1.05,3.62-2.7l1.72,0.6
			c-0.77,2.12-2.6,3.82-5.35,3.82C607.18,365.78,605.01,362.58,605.01,359.31z"/>
		<path fill="#00DB85" d="M619.13,359.31c0-3.22,2.33-6.47,6.25-6.47c4,0,6.3,3.25,6.3,6.47c0,3.2-2.3,6.47-6.3,6.47
			C621.36,365.78,619.13,362.51,619.13,359.31z M629.78,359.31c0-2.7-1.8-4.75-4.4-4.75c-2.57,0-4.35,2.05-4.35,4.75
			c0,2.67,1.78,4.75,4.35,4.75C627.98,364.06,629.78,361.99,629.78,359.31z"/>
		<path fill="#00DB85" d="M634.83,353.19h1.6l0.27,1.65c0.97-1.32,2.35-2,4.1-2c2.42,0,4.22,1.37,4.22,4.57v8.02h-1.9v-7.57
			c0-2.6-1.3-3.25-2.9-3.25c-1.8,0-3.5,1.42-3.5,3.85v6.97h-1.9V353.19z"/>
		<path fill="#00DB85" d="M648.18,359.31c0-3.3,2.27-6.47,6.17-6.47c2.85,0,4.62,1.65,5.32,3.72l-1.72,0.6
			c-0.55-1.6-1.82-2.6-3.6-2.6c-2.52,0-4.27,2-4.27,4.75c0,2.75,1.75,4.75,4.27,4.75c1.75,0,3.07-1.05,3.62-2.7l1.72,0.6
			c-0.77,2.12-2.6,3.82-5.35,3.82C650.36,365.78,648.18,362.58,648.18,359.31z"/>
		<path fill="#00DB85" d="M664.18,359.84c0.1,2.42,1.77,4.32,4.22,4.32c1.95,0,3.3-1.12,3.7-2.38l1.67,0.53
			c-0.62,1.8-2.42,3.47-5.37,3.47c-3.75,0-6.1-2.92-6.1-6.47c0-3.52,2.57-6.47,6.07-6.47c3.42,0.02,5.75,2.42,5.75,6.17v0.83H664.18
			z M668.41,354.46c-2.42,0-3.9,1.72-4.2,3.8h8.15C672.2,356.14,670.63,354.46,668.41,354.46z"/>
		<path fill="#00DB85" d="M676.48,362.04l1.72-0.55c0.35,1.15,0.97,2.62,3.3,2.62c1.65,0,2.87-0.67,2.87-1.97
			c0-0.7-0.15-1.58-2.85-2.02c-2.45-0.43-4.55-1.23-4.55-3.67c0-2.35,2.1-3.6,4.52-3.6c2.55,0,4.07,1.37,4.6,3.62l-1.75,0.45
			c-0.25-1.28-1.07-2.4-2.85-2.4c-2.12,0-2.7,1.05-2.7,1.9c0,1.22,1.32,1.62,3.05,1.95c2.52,0.45,4.37,1.35,4.37,3.75
			c0,2.25-2.15,3.67-4.72,3.67S677.21,364.56,676.48,362.04z"/>
		<path fill="#00DB85" d="M688.78,362.04l1.72-0.55c0.35,1.15,0.97,2.62,3.3,2.62c1.65,0,2.87-0.67,2.87-1.97
			c0-0.7-0.15-1.58-2.85-2.02c-2.45-0.43-4.55-1.23-4.55-3.67c0-2.35,2.1-3.6,4.52-3.6c2.55,0,4.07,1.37,4.6,3.62l-1.75,0.45
			c-0.25-1.28-1.07-2.4-2.85-2.4c-2.12,0-2.7,1.05-2.7,1.9c0,1.22,1.32,1.62,3.05,1.95c2.52,0.45,4.37,1.35,4.37,3.75
			c0,2.25-2.15,3.67-4.72,3.67C691.23,365.78,689.51,364.56,688.78,362.04z"/>
		<path fill="#00DB85" d="M701.36,349.79c0-0.8,0.62-1.42,1.45-1.42c0.78,0,1.4,0.62,1.4,1.42s-0.62,1.42-1.4,1.42
			C701.98,351.21,701.36,350.59,701.36,349.79z M701.86,353.19h1.9v12.25h-1.9V353.19z"/>
		<path fill="#00DB85" d="M707.06,359.31c0-3.22,2.33-6.47,6.25-6.47c4,0,6.3,3.25,6.3,6.47c0,3.2-2.3,6.47-6.3,6.47
			C709.28,365.78,707.06,362.51,707.06,359.31z M717.7,359.31c0-2.7-1.8-4.75-4.4-4.75c-2.57,0-4.35,2.05-4.35,4.75
			c0,2.67,1.78,4.75,4.35,4.75C715.9,364.06,717.7,361.99,717.7,359.31z"/>
		<path fill="#00DB85" d="M722.76,353.19h1.6l0.27,1.65c0.97-1.32,2.35-2,4.1-2c2.42,0,4.22,1.37,4.22,4.57v8.02h-1.9v-7.57
			c0-2.6-1.3-3.25-2.9-3.25c-1.8,0-3.5,1.42-3.5,3.85v6.97h-1.9V353.19z"/>
	</g>
</g>
<g id="Layer_1">
</g>
<g id="Layer_10">
</g>
<g id="Layer_8">
</g>
<g id="Layer_4">
	<g>
		
			<line fill="none" stroke="#00DB85" stroke-width="1.92" stroke-miterlimit="10" x1="750.02" y1="414.04" x2="750.02" y2="436.12"/>
		
			<line fill="none" stroke="#00DB85" stroke-width="1.92" stroke-miterlimit="10" x1="738.98" y1="425.08" x2="761.06" y2="425.08"/>
	</g>
	<g>
		
			<line fill="none" stroke="#00DB85" stroke-width="1.92" stroke-miterlimit="10" x1="746.02" y1="365.04" x2="746.02" y2="387.12"/>
		
			<line fill="none" stroke="#00DB85" stroke-width="1.92" stroke-miterlimit="10" x1="734.98" y1="376.08" x2="757.06" y2="376.08"/>
	</g>
</g>
</svg>
