<?xml version="1.0" encoding="utf-8"?>
<!-- Generator: Adobe Illustrator 16.0.0, SVG Export Plug-In . SVG Version: 6.00 Build 0)  -->
<!DOCTYPE svg PUBLIC "-//W3C//DTD SVG 1.1//EN" "http://www.w3.org/Graphics/SVG/1.1/DTD/svg11.dtd">
<svg version="1.1" id="Layer_1" xmlns="http://www.w3.org/2000/svg" xmlns:xlink="http://www.w3.org/1999/xlink" x="0px" y="0px"
	 width="28px" height="28px" viewBox="0 0 28 28" enable-background="new 0 0 28 28" xml:space="preserve">
<g id="Group_33" transform="translate(-893 -3594)">
	<circle id="Ellipse_3" fill="#FFFFFF" cx="907" cy="3608" r="14"/>
</g>
<g>
	<rect x="7.948" y="11.908" fill="#343434" width="2.591" height="8.368"/>
	<path fill="#343434" d="M10.797,9.243c0-0.838-0.679-1.518-1.517-1.518c-0.841,0-1.518,0.68-1.518,1.518
		c0,0.838,0.677,1.518,1.518,1.518C10.118,10.761,10.797,10.081,10.797,9.243z"/>
	<path fill="#343434" d="M20.237,15.672c0-2.246-0.475-3.912-3.098-3.912c-1.262,0-2.107,0.631-2.452,1.287h-0.003v-1.139h-2.517
		v8.368h2.517v-4.154c0-1.089,0.276-2.142,1.625-2.142c1.33,0,1.373,1.244,1.373,2.21v4.086h2.555V15.672z"/>
</g>
</svg>
