<svg xmlns="http://www.w3.org/2000/svg" width="28" height="28"><g data-name="Group 32" transform="translate(-930 -3594)"><circle data-name="Ellipse 4" cx="14" cy="14" r="14" transform="translate(930 3594)" fill="#fff"/><g data-name="Group 31" fill="#343434"><path data-name="Path 44" d="M947.634 3601h-6.581a4.058 4.058 0 00-4.053 4.053v6.581a4.058 4.058 0 004.053 4.053h6.581a4.058 4.058 0 004.053-4.053v-6.581a4.058 4.058 0 00-4.053-4.053zm2.75 10.634a2.753 2.753 0 01-2.75 2.75h-6.581a2.753 2.753 0 01-2.75-2.75v-6.581a2.753 2.753 0 012.75-2.75h6.581a2.753 2.753 0 012.75 2.75zm0 0"/><path data-name="Path 45" d="M944.344 3604.559a3.784 3.784 0 103.785 3.784 3.789 3.789 0 00-3.785-3.784zm0 6.265a2.481 2.481 0 112.482-2.481 2.484 2.484 0 01-2.482 2.481zm0 0"/><path data-name="Path 46" d="M948.287 3603.454a.955.955 0 10.676.28.958.958 0 00-.676-.28zm0 0"/></g></g></svg>