<svg xmlns="http://www.w3.org/2000/svg" width="59" height="59"><g data-name="Group 8494" transform="translate(-178 -3354)"><circle data-name="Ellipse 509" cx="29.5" cy="29.5" r="29.5" transform="translate(178 3354)" fill="#fff" opacity=".8"/><g data-name="Group 8322"><g data-name="Group 3063" fill="#343434"><path data-name="Path 1487" d="M221.392 3390.055l-2.206-7.1a.61.61 0 00-.566-.429l-3.321-.093a.611.611 0 00-.5-.342l-3.406-.278a.61.61 0 00-.568-.429l-3.312-.083-1.653-5.324a2.387 2.387 0 10-4.559 1.417l3.55 11.433-2.021-1.839a2.454 2.454 0 00-3.264 3.664l.04.035 2.817 2.53a9.3 9.3 0 011.566 2.112c.745 1.221 1.449 2.372 2.577 2.435 1.484.082 1.84 1.038 2.389 2.863l.426 1.383a.611.611 0 00.764.4c.583-.182.485-.5.119-1.673l-.141-.464c-.508-1.687-1.084-3.6-3.491-3.731-.488-.027-1.08-1-1.6-1.852a10.329 10.329 0 00-1.794-2.383l-2.823-2.539a1.232 1.232 0 01.714-2.164 1.206 1.206 0 01.891.293l3.67 3.347c.5.43 1.225.085.994-.632l-4.218-13.579a1.166 1.166 0 012.227-.694l3.3 10.634a.611.611 0 001.174-.336c0-.009-.005-.018-.008-.026l-1.267-4.078 2.461.062 1.541 4.961a.61.61 0 101.166-.362l-1.28-4.123 2.506.2 1.426 4.591a.611.611 0 00.583.43.618.618 0 00.181-.028.61.61 0 00.4-.763l-1.192-3.839 2.463.069 2.077 6.687a2.548 2.548 0 01-.433 2.332 4.893 4.893 0 00-.752 4.491l.5 1.615a.611.611 0 00.583.43.62.62 0 00.181-.028.61.61 0 00.4-.764l-.5-1.615a3.676 3.676 0 01.546-3.373 3.768 3.768 0 00.643-3.451z"/><path data-name="Path 1488" d="M190.193 3374.236a.611.611 0 000-.863l-1.492-1.49h10.355l-1.492 1.492a.611.611 0 00.864.861l2.534-2.531a.611.611 0 000-.864l-2.534-2.533a.611.611 0 00-.864.863l1.492 1.492h-10.355l1.492-1.492a.611.611 0 00-.863-.863l-2.534 2.534a.611.611 0 000 .864l2.534 2.53a.61.61 0 00.863 0z"/></g></g></g></svg>