<svg xmlns="http://www.w3.org/2000/svg" width="46.279" height="32.606"><g data-name="Group 7154"><path data-name="Path 23201" d="M45.312 5.092A5.814 5.814 0 0041.22.974C37.612 0 23.14 0 23.14 0S8.668 0 5.059.973A5.815 5.815 0 00.967 5.091C0 8.724 0 16.3 0 16.3s0 7.579.967 11.212a5.816 5.816 0 004.092 4.118c3.609.973 18.081.973 18.081.973s14.472 0 18.081-.973a5.815 5.815 0 004.092-4.118c.967-3.633.967-11.212.967-11.212s0-7.579-.967-11.211" fill="#282828" opacity=".8"/><path data-name="Path 23202" d="M18.407 23.184l12.1-6.881-12.1-6.881z" fill="#fff"/></g></svg>