<?xml version="1.0" encoding="UTF-8"?>
<svg width="99px" height="99px" viewBox="0 0 99 99" version="1.1" xmlns="http://www.w3.org/2000/svg" xmlns:xlink="http://www.w3.org/1999/xlink">
    <!-- Generator: Sketch 58 (84663) - https://sketch.com -->
    <title>Group 2</title>
    <desc>Created with Sketch.</desc>
    <g id="4.0-—-Investors" stroke="none" stroke-width="1" fill="none" fill-rule="evenodd">
        <g id="4.1-—-Investment-case" transform="translate(-290.000000, -1379.000000)">
            <g id="Group-2" transform="translate(290.000000, 1379.000000)">
                <circle id="Oval-Copy" fill="#01946A" cx="49.5000011" cy="49.5000011" r="49.5000011"></circle>
                <g id="Combined-Shape-2" transform="translate(17.600000, 29.700001)" fill="#FFFFFF">
                    <path d="M31.6512273,15.1272837 C33.283349,15.1272837 34.8898521,15.3554685 36.4345634,15.8061139 L36.9471289,15.9645604 L41.3741794,17.39694 C43.5508805,18.0987113 45.0555794,20.0519439 45.1800118,22.3022302 L45.1879314,22.5360389 L45.1879314,38.2642495 C45.1879314,38.8188523 44.727571,39.2700009 44.1617846,39.2700009 C43.6337172,39.2700009 43.1974877,38.8770003 43.1416707,38.3736876 L43.1356377,38.2642495 L43.1356377,22.5386563 C43.1356377,21.121909 42.2590288,19.8714044 40.934531,19.3689513 L40.7511818,19.3051263 L36.3223039,17.872058 C34.8183662,17.3853685 33.2515947,17.1386488 31.6652841,17.1386488 C30.22508,17.1386488 28.8120885,17.3384918 27.457974,17.7330561 L27.0088266,17.8717824 L22.5803704,19.304713 C21.2157724,19.7504771 20.27919,20.9590171 20.2003276,22.3481625 L20.1949305,22.5386563 L20.1949305,38.2642495 C20.1949305,38.8188523 19.7345701,39.2700009 19.1687836,39.2700009 C18.6407163,39.2700009 18.2044867,38.8770003 18.1486698,38.3736876 L18.1426368,38.2642495 L18.1426368,22.5386563 C18.1426368,20.2714154 19.5642708,18.2650994 21.7043533,17.4743647 L21.9282752,17.39694 L26.3560285,15.9642849 C28.055918,15.4089933 29.8376182,15.1272837 31.6512273,15.1272837 Z M50.141187,15.1272837 C51.9360559,15.1272837 53.6994822,15.4089933 55.3826326,15.9645604 L55.3826326,15.9645604 L59.7642774,17.39694 C61.9992029,18.1249767 63.5105322,20.190755 63.5250014,22.5372787 L63.5250014,22.5372787 L63.5250014,38.2642495 C63.5250014,38.8188523 63.0695018,39.2700009 62.5093791,39.2700009 C61.9493956,39.2700009 61.493896,38.8188523 61.493896,38.2642495 L61.493896,38.2642495 L61.493896,22.5386563 C61.493896,21.0575113 60.5454718,19.7580657 59.133896,19.3051263 L59.133896,19.3051263 L54.7503034,17.872058 C53.2619298,17.3853685 51.7110886,17.1386488 50.141187,17.1386488 C49.5812035,17.1386488 49.1254256,16.6875002 49.1254256,16.1330351 C49.1254256,15.5784323 49.5812035,15.1272837 50.141187,15.1272837 Z M13.5769274,15.025028 C14.145576,15.025028 14.6082652,15.4783479 14.6082652,16.0354815 C14.6082652,16.5926151 14.145576,17.045935 13.5769274,17.045935 C12.1293104,17.045935 10.7091582,17.2467397 9.34839828,17.643304 L8.89705516,17.7827355 L4.45990055,19.2088591 C3.08866959,19.6565038 2.14736099,20.8708487 2.06810019,22.2666794 L2.06267575,22.4580899 L2.06267575,38.259506 C2.06267575,38.8166396 1.5999865,39.2699595 1.03133787,39.2699595 C0.50059916,39.2699595 0.0621628308,38.8750675 0.00606349229,38.369445 L0,38.259506 L0,22.4580899 C0,20.1741836 1.42922175,18.1629348 3.580795,17.3814692 L3.80591932,17.305054 L8.25494137,15.8660575 C9.96343027,15.307955 11.7541436,15.025028 13.5769274,15.025028 Z M50.0854808,0 C53.9211517,0 57.0417976,3.06366269 57.0417976,6.82955818 C57.0417976,10.5954537 53.9211517,13.6591164 50.0854808,13.6591164 C46.2498099,13.6591164 43.129164,10.5954537 43.129164,6.82955818 C43.129164,3.06366269 46.2498099,0 50.0854808,0 Z M13.5648177,0 C17.4004886,0 20.5211345,3.06366269 20.5211345,6.82955818 C20.5211345,10.5954537 17.4004886,13.6591164 13.5648177,13.6591164 C9.72914681,13.6591164 6.60850094,10.5954537 6.60850094,6.82955818 C6.60850094,3.06366269 9.72914681,0 13.5648177,0 Z M31.6512414,0 C35.4869123,0 38.6075581,3.06366269 38.6075581,6.82955818 C38.6075581,10.5954537 35.4869123,13.6591164 31.6512414,13.6591164 C27.8155704,13.6591164 24.6949246,10.5954537 24.6949246,6.82955818 C24.6949246,3.06366269 27.8155704,0 31.6512414,0 Z M50.0714277,2.0103135 C47.3593073,2.0103135 45.1528198,4.17222666 45.1528198,6.82955818 C45.1528198,9.4868897 47.3593073,11.6488029 50.0714277,11.6488029 C52.783548,11.6488029 54.9900355,9.4868897 54.9900355,6.82955818 C54.9900355,4.17222666 52.783548,2.0103135 50.0714277,2.0103135 Z M13.5648177,2.0103135 C10.8526974,2.0103135 8.6462099,4.17222666 8.6462099,6.82955818 C8.6462099,9.4868897 10.8526974,11.6488029 13.5648177,11.6488029 C16.2769381,11.6488029 18.4834256,9.4868897 18.4834256,6.82955818 C18.4834256,4.17222666 16.2769381,2.0103135 13.5648177,2.0103135 Z M31.6512414,2.0103135 C28.939121,2.0103135 26.7326335,4.17222666 26.7326335,6.82955818 C26.7326335,9.4868897 28.939121,11.6488029 31.6512414,11.6488029 C34.3633617,11.6488029 36.5698492,9.4868897 36.5698492,6.82955818 C36.5698492,4.17222666 34.3633617,2.0103135 31.6512414,2.0103135 Z" id="Combined-Shape"></path>
                </g>
            </g>
        </g>
    </g>
</svg>