<svg xmlns="http://www.w3.org/2000/svg" width="78.556" height="76.875" viewBox="0 0 78.556 76.875">
  <g id="Group_8392" data-name="Group 8392" transform="translate(-160.231 -1067.649)">
    <g id="Group_8387" data-name="Group 8387" transform="translate(161.102 1084.305)">
      <g id="Group_8386" data-name="Group 8386" transform="translate(22.257 2.193)">
        <g id="Group_8385" data-name="Group 8385">
          <path id="Path_65058" data-name="Path 65058" d="M305.978,1184.734v5.39a3.28,3.28,0,1,1-6.56,0v-6.49a3.28,3.28,0,1,1,6.56,0Z" transform="translate(-299.418 -1180.355)" fill="none" stroke="#ec2227" stroke-miterlimit="10" stroke-width="1.7"/>
          <path id="Path_65059" data-name="Path 65059" d="M346.747,1190.461v6.276a3.281,3.281,0,1,1-6.562,0v-6.276a3.281,3.281,0,0,1,6.562,0Z" transform="translate(-333.625 -1186.082)" fill="none" stroke="#ec2227" stroke-miterlimit="10" stroke-width="1.7"/>
        </g>
      </g>
      <path id="Path_65060" data-name="Path 65060" d="M221.181,1178.17a3.563,3.563,0,0,0,.105-.86v-7.029a3.55,3.55,0,0,0-3.552-3.552c-1.962,0-3.554,1.59-3.554,2.917v5.43" transform="translate(-205.639 -1166.728)" fill="none" stroke="#ec2227" stroke-miterlimit="10" stroke-width="1.7"/>
      <path id="Path_65061" data-name="Path 65061" d="M262.9,1184.735a3.282,3.282,0,0,0,2.3-3.133v-6.49a3.28,3.28,0,0,0-6.561,0v6.49a3.272,3.272,0,0,0,.133.918Z" transform="translate(-242.949 -1171.011)" fill="none" stroke="#ec2227" stroke-miterlimit="10" stroke-width="1.7"/>
      <path id="Path_65062" data-name="Path 65062" d="M168.245,1224.575s3.477,3.54,7.259,4.076,5.27.035,6.436-.734a2.268,2.268,0,0,0,1.094-3.129c-.833-1.431-6.879-4.325-6.879-4.325s-7.349-4.408-9.6-2.369c-3.364,2.3-6.086,9.643-5.329,13.029s11.356,15.3,11.356,15.3l-.139,23.164" transform="translate(-161.102 -1209.378)" fill="none" stroke="#ec2227" stroke-miterlimit="10" stroke-width="1.7"/>
      <path id="Path_65063" data-name="Path 65063" d="M363.279,1258.112s.119,17.276-.293,18.428a45.846,45.846,0,0,1-2.411,4.485v22.6" transform="translate(-328.477 -1243.407)" fill="none" stroke="#ec2227" stroke-miterlimit="10" stroke-width="1.7"/>
      <path id="Path_65064" data-name="Path 65064" d="M286.709,1283.888s3.539,3.2,3.551,6.156.012,5.344.012,5.344" transform="translate(-266.497 -1265.036)" fill="none" stroke="#ec2227" stroke-miterlimit="10" stroke-width="1.7"/>
    </g>
    <g id="Group_8388" data-name="Group 8388" transform="translate(182.211 1068.499)">
      <path id="Path_65065" data-name="Path 65065" d="M434.584,1086.5v5.39a3.28,3.28,0,1,1-6.56,0v-6.49a3.28,3.28,0,1,1,6.56,0Z" transform="translate(-406.182 -1079.933)" fill="none" stroke="#ec2227" stroke-miterlimit="10" stroke-width="1.7"/>
      <path id="Path_65066" data-name="Path 65066" d="M349.788,1079.941a3.554,3.554,0,0,0,.105-.86v-7.03a3.549,3.549,0,0,0-3.552-3.552c-1.962,0-3.554,1.59-3.554,2.917v5.431" transform="translate(-334.661 -1068.499)" fill="none" stroke="#ec2227" stroke-miterlimit="10" stroke-width="1.7"/>
      <path id="Path_65067" data-name="Path 65067" d="M391.511,1086.506a3.282,3.282,0,0,0,2.3-3.133v-6.49a3.28,3.28,0,0,0-6.561,0v6.49a3.268,3.268,0,0,0,.133.918Z" transform="translate(-371.971 -1072.782)" fill="none" stroke="#ec2227" stroke-miterlimit="10" stroke-width="1.7"/>
      <path id="Path_65068" data-name="Path 65068" d="M299.014,1126.346s3.477,3.54,7.259,4.076,5.27.035,6.436-.734a2.268,2.268,0,0,0,1.094-3.129c-.833-1.431-6.879-4.325-6.879-4.325s-7.349-4.407-9.6-2.369c-2.252,1.537-4.217,5.338-5.042,8.7" transform="translate(-292.285 -1111.149)" fill="none" stroke="#ec2227" stroke-miterlimit="10" stroke-width="1.7"/>
      <path id="Path_65069" data-name="Path 65069" d="M415.316,1185.658a14.112,14.112,0,0,1,3.114,4.227" transform="translate(-395.519 -1166.806)" fill="none" stroke="#ec2227" stroke-miterlimit="10" stroke-width="1.7"/>
    </g>
    <g id="Group_8391" data-name="Group 8391" transform="translate(202.559 1071.79)">
      <g id="Group_8390" data-name="Group 8390" transform="translate(22.257 9.881)">
        <g id="Group_8389" data-name="Group 8389">
          <path id="Path_65070" data-name="Path 65070" d="M563.616,1154.734v5.39a3.28,3.28,0,1,1-6.56,0v-6.49a3.28,3.28,0,1,1,6.56,0Z" transform="translate(-557.056 -1150.355)" fill="none" stroke="#ec2227" stroke-miterlimit="10" stroke-width="1.7"/>
          <path id="Path_65071" data-name="Path 65071" d="M604.386,1160.461v6.276a3.281,3.281,0,1,1-6.562,0v-6.276a3.281,3.281,0,0,1,6.562,0Z" transform="translate(-591.264 -1156.082)" fill="none" stroke="#ec2227" stroke-miterlimit="10" stroke-width="1.7"/>
        </g>
      </g>
      <path id="Path_65072" data-name="Path 65072" d="M469.28,1099.555c0-1.327,1.592-2.917,3.554-2.917a3.547,3.547,0,0,1,2.513,1.04l.008.009v-5.456a3.281,3.281,0,1,0-6.562,0v6.276a3.261,3.261,0,0,0,.487,1.713Z" transform="translate(-460.739 -1088.95)" fill="none" stroke="#ec2227" stroke-miterlimit="10" stroke-width="1.7"/>
      <path id="Path_65073" data-name="Path 65073" d="M520.542,1154.735a3.283,3.283,0,0,0,2.3-3.133v-6.49a3.281,3.281,0,0,0-6.561,0v6.49a3.27,3.27,0,0,0,.133.918Z" transform="translate(-500.587 -1133.323)" fill="none" stroke="#ec2227" stroke-miterlimit="10" stroke-width="1.7"/>
      <path id="Path_65074" data-name="Path 65074" d="M425.883,1194.575s3.477,3.54,7.259,4.076,5.27.035,6.436-.734a2.268,2.268,0,0,0,1.094-3.129c-.833-1.431-6.879-4.325-6.879-4.325s-7.349-4.407-9.6-2.368c-3.364,2.3-6.086,9.643-5.329,13.029s11.356,15.3,11.356,15.3l-.139,27.745" transform="translate(-418.74 -1171.69)" fill="none" stroke="#ec2227" stroke-miterlimit="10" stroke-width="1.7"/>
      <path id="Path_65075" data-name="Path 65075" d="M620.917,1228.112s.119,17.276-.293,18.428a45.786,45.786,0,0,1-2.411,4.485v27.13" transform="translate(-586.115 -1205.719)" fill="none" stroke="#ec2227" stroke-miterlimit="10" stroke-width="1.7"/>
      <path id="Path_65076" data-name="Path 65076" d="M544.348,1253.888s3.539,3.2,3.551,6.156.012,5.344.012,5.344" transform="translate(-524.136 -1227.347)" fill="none" stroke="#ec2227" stroke-miterlimit="10" stroke-width="1.7"/>
    </g>
    <path id="Path_65077" data-name="Path 65077" d="M478.819,1148.17a3.554,3.554,0,0,0,.105-.86v-7.029a3.549,3.549,0,0,0-3.552-3.552c-1.962,0-3.554,1.59-3.554,2.917v5.431" transform="translate(-260.718 -57.25)" fill="none" stroke="#ec2227" stroke-miterlimit="10" stroke-width="1.7"/>
  </g>
</svg>
