<?xml version="1.0" encoding="UTF-8"?>
<svg width="99px" height="99px" viewBox="0 0 99 99" version="1.1" xmlns="http://www.w3.org/2000/svg" xmlns:xlink="http://www.w3.org/1999/xlink">
    <!-- Generator: Sketch 58 (84663) - https://sketch.com -->
    <title>Group</title>
    <desc>Created with Sketch.</desc>
    <defs>
        <polygon id="path-1" points="0 0.191400004 56.6698012 0.191400004 56.6698012 52.7992311 0 52.7992311"></polygon>
    </defs>
    <g id="4.0-—-Investors" stroke="none" stroke-width="1" fill="none" fill-rule="evenodd">
        <g id="4.1-—-Investment-case" transform="translate(-291.000000, -821.000000)">
            <g id="Group" transform="translate(291.000000, 821.000000)">
                <circle id="Oval" fill="#01946A" cx="49.5000011" cy="49.5000011" r="49.5000011"></circle>
                <g id="Group-10" transform="translate(20.900000, 23.100001)">
                    <path d="M35.3182508,9.77251021 L35.3567508,9.73401021 C35.3413508,9.74501021 35.3259508,9.75711021 35.3138508,9.77251021 L35.3182508,9.77251021 Z" id="Fill-1" fill="#FFFFFF"></path>
                    <path d="M21.5812305,20.5878204 C21.6021305,20.5834204 21.6175305,20.5735204 21.6307305,20.5647204 L21.5768305,20.5823204 L21.5812305,20.5878204 Z" id="Fill-3" fill="#FFFFFF"></path>
                    <path d="M8.54447019,22.3312105 C8.54557019,22.3312105 8.54667019,22.3323105 8.54667019,22.3323105 L8.54447019,22.3257105 L8.54447019,22.3312105 Z" id="Fill-5" fill="#FFFFFF"></path>
                    <g id="Group-9" transform="translate(0.000000, 0.908490)">
                        <mask id="mask-2" fill="white">
                            <use xlink:href="#path-1"></use>
                        </mask>
                        <g id="Clip-8"></g>
                        <path d="M48.037001,21.6032305 C48.024901,21.6318305 48.010601,21.6560305 47.995201,21.6725305 C47.987501,21.7440305 47.965501,21.7891305 47.925901,21.8375305 C47.916001,21.8826305 47.898401,21.9178305 47.872001,21.9508305 L47.872001,22.3699305 C48.5177011,25.7073306 48.177801,28.4177306 46.765401,31.1138307 L46.614701,31.3998307 L33.5511007,18.0700304 L34.0505007,18.0700304 C34.0725007,18.0535304 34.0989007,18.0370304 34.1330007,18.0249304 C34.5477007,17.6718304 34.6192008,17.0789304 34.2969007,16.5960304 C33.9581007,16.1626304 33.3443007,16.0768303 32.8460007,16.4068304 C29.1412006,19.2679304 25.6135006,20.3283304 22.3751005,19.5517304 L21.7129005,19.6078304 L21.6359005,19.6551304 C21.6150005,19.6760304 21.5831005,19.7035304 21.5369005,19.7233304 L21.4401005,19.8113304 C21.4269005,19.8311304 21.4093005,19.8498304 21.3895005,19.8696304 L16.1205003,25.1397305 C15.2691003,25.9900306 13.7181003,25.9900306 12.8667003,25.1397305 C12.4476003,24.7206305 12.2254003,24.1574305 12.2254003,23.5117305 C12.2254003,22.8671305 12.4476003,22.3050305 12.8667003,21.8859305 L20.0409004,14.7106303 C23.0879005,11.6647303 24.9854005,9.90913021 28.5450006,9.2502302 L28.6528006,9.2458302 C30.1433007,8.95433019 32.0166007,8.85973019 34.8799008,8.92793019 L35.1285008,8.92793019 L35.1967008,8.85863019 L35.2847008,8.86303019 L35.3430008,8.80583019 C35.4013008,8.74643019 35.4596008,8.71783019 35.4992008,8.69913019 L41.4139009,2.79873006 L54.1277012,15.5125303 L48.037001,21.6032305 Z M49.9609011,37.3134308 C50.8233011,38.3166308 50.7903011,39.7378309 49.8971011,40.6310309 C49.0094011,41.5187309 47.532101,41.5187309 46.643301,40.6310309 L34.3904007,28.3770306 C33.9724007,27.9590306 33.3641007,27.9590306 32.9450007,28.3770306 C32.5270007,28.7961306 32.5270007,29.4033306 32.9450007,29.8224306 L48.056801,44.933131 C48.9687011,45.845031 48.9687011,47.273931 48.056801,48.185831 C47.205401,49.0372311 45.653301,49.0372311 44.803001,48.185831 L42.0090009,45.392931 L30.1983007,33.2643307 C29.7803006,32.8474307 29.1731006,32.8496307 28.7562006,33.2665307 C28.5538006,33.4678307 28.4438006,33.7241307 28.4438006,33.9881307 C28.4438006,34.2521307 28.5538006,34.5084307 28.7562006,34.7097308 L40.5031009,46.839431 C41.4128009,47.750231 41.4128009,49.1791311 40.4998009,50.0910311 C40.0444009,50.5464311 39.4592009,50.7763311 38.8740008,50.7763311 C38.2899008,50.7763311 37.7025008,50.5464311 37.2471008,50.0910311 L24.6125005,37.4564308 C24.2110005,37.0538308 23.5719005,37.0538308 23.1682005,37.4564308 C22.7502005,37.8755308 22.7502005,38.4827308 23.1682005,38.9018308 L30.0883007,45.821931 C30.5327007,46.265231 30.7769007,46.842731 30.7769007,47.447731 C30.7769007,48.053831 30.5327007,48.6302311 30.0883007,49.0757311 C29.1764006,49.9876311 27.7475006,49.9876311 26.8356006,49.0757311 L13.8204003,36.1232308 C12.5059003,34.8109308 11.4587002,33.5745307 10.6161002,32.3436307 L10.5754002,32.2831307 L10.5754002,32.2193307 C8.45900018,29.0788306 7.89030017,26.0571306 8.67570019,22.1323305 L8.62180019,21.5889305 L8.57340019,21.5119305 C8.55250019,21.4910305 8.52500018,21.4591305 8.50520018,21.4129305 L2.41340005,15.3211303 L15.1932003,2.67223006 L21.0727005,8.55283019 C21.0980005,8.57593019 21.1332005,8.61223019 21.1497005,8.62213019 C21.2014005,8.60893019 21.2861005,8.65623019 21.3367005,8.69693019 C21.3653005,8.70683019 21.3928005,8.72333019 21.4170005,8.74423019 C21.4731005,8.75413019 21.5182005,8.77723019 21.5512005,8.79373019 L21.7965005,8.80033019 L23.6258005,8.80033019 L23.0087005,9.2304302 C21.6887005,10.1489302 20.3742004,11.3006302 18.4701004,13.2025303 L11.3597002,20.3767304 C10.5314002,21.2061305 10.0947002,22.2676305 10.0947002,23.4501305 C10.0947002,24.5809305 10.5677002,25.7282306 11.3586002,26.5202306 C12.1858003,27.3474306 13.2473003,27.7841306 14.4298003,27.7841306 C15.5628003,27.7841306 16.7090004,27.3111306 17.5010004,26.5202306 L22.4169005,21.6054305 L22.5390005,21.6296305 C23.1396005,21.7506305 23.8216005,21.8155305 24.4618005,21.8155305 C26.9082006,21.8155305 29.3403006,21.0587305 31.8945007,19.5022304 L32.0529007,19.4054304 L32.1838007,19.5363304 L49.9609011,37.3134308 Z M19.4854004,50.0910311 C19.0300004,50.5464311 18.4437004,50.7763311 17.8585004,50.7763311 C17.2733004,50.7763311 16.6881004,50.5464311 16.2316004,50.0910311 C15.3208003,49.1791311 15.3208003,47.750231 16.2316004,46.836131 L18.9387004,44.130131 L22.1925005,47.383931 L19.4854004,50.0910311 Z M11.8668003,48.185831 C11.4719002,48.6159311 10.9164002,48.8612311 10.3103002,48.8744311 L10.2652002,48.8744311 C9.65140021,48.8744311 9.0530002,48.6247311 8.61300019,48.185831 C8.19390018,47.767831 7.97170017,47.204631 7.97170017,46.558931 C7.97170017,45.914331 8.19390018,45.351131 8.61300019,44.933131 L14.1768003,39.3682309 L17.4306004,42.6231309 L11.8668003,48.185831 Z M6.77160015,40.6937309 C5.85750013,39.7114309 5.86080013,38.2880308 6.77160015,37.3772308 L9.62500021,34.5238307 L9.78890021,34.7295308 C10.6502002,35.8053308 11.4719002,36.7271308 12.3750003,37.6302308 L12.7314003,37.9888308 L10.0254002,40.6937309 C9.56890021,41.1513309 8.98370019,41.3790309 8.39850018,41.3790309 C7.81440017,41.3790309 7.22810016,41.1513309 6.77160015,40.6937309 L6.77160015,40.6937309 Z M56.6701797,15.4069303 C56.6775012,15.1374303 56.5675012,14.8734303 56.3574012,14.6633303 L42.6437009,0.949630021 C42.6272009,0.93313002 42.5843009,0.90453002 42.5524009,0.883630019 C42.4908009,0.842930018 42.4303009,0.800030017 42.3896009,0.759330016 L42.3456009,0.697730015 C42.2994009,0.605330013 42.2576009,0.563530012 42.1993009,0.505230011 C41.7813009,0.0861300019 41.1730009,0.0861300019 40.7550009,0.505230011 L34.4608007,6.79943015 L34.3596007,6.79613015 C31.9880007,6.73233015 30.1048007,6.85333015 28.4427006,7.17343016 L28.3976006,7.18223016 L28.3536006,7.17343016 C26.7223006,6.85993015 24.8534005,6.79613015 22.3663005,6.79613015 L22.2684005,6.79613015 L15.9775003,0.505230011 C15.5617003,0.0872300019 14.9534003,0.0861300019 14.5332003,0.505230011 C14.5112003,0.528330011 14.4903003,0.562430012 14.4672003,0.595430013 C14.4265003,0.658130014 14.3836003,0.718630016 14.3429003,0.759330016 L14.2813003,0.803330017 C14.1889003,0.850630018 14.1438003,0.893530019 14.0899003,0.949630021 L0.312400007,14.6633303 C0.111100002,14.8646303 0,15.1209303 0,15.3860303 C0,15.6500303 0.111100002,15.9063303 0.312400007,16.1076303 L6.55600014,22.3523305 L6.53620014,22.4722305 C5.91140013,26.2166306 6.48780014,29.4352306 8.34790018,32.5988307 L8.44030018,32.7572307 L5.32840012,35.8691308 C3.64650008,37.5499308 3.64760008,40.3351309 5.33060012,42.0775309 C5.79700013,42.5439309 6.38880014,42.9102309 7.08290015,43.1632309 L7.41620016,43.2853309 L7.17640016,43.5449309 C6.37450014,44.408431 5.96860013,45.422631 5.96860013,46.558931 C5.96860013,47.690831 6.44050014,48.8381311 7.23250016,49.6301311 C8.03660017,50.4342311 9.1553002,50.8951311 10.3037002,50.8951311 C11.4092002,50.8951311 12.4795003,50.4661311 13.3177003,49.6873311 L13.5938003,49.4310311 L13.7038003,49.7929311 C13.8886003,50.4089311 14.2637003,51.0106311 14.7873003,51.5353311 C15.5914003,52.3394311 16.7101004,52.7992311 17.8585004,52.7992311 C19.0058004,52.7992311 20.1256004,52.3394311 20.9297005,51.5353311 L23.6368005,48.8293311 L25.3902006,50.5827311 C26.1954006,51.3868311 27.3141006,51.8477311 28.4614006,51.8477311 C29.6428006,51.8477311 30.7054007,51.4099311 31.5326007,50.5827311 C32.0012007,50.1163311 32.3675007,49.5245311 32.6205007,48.8271311 L32.7503007,48.4751311 L35.7412008,51.5375311 C36.5442008,52.3394311 37.6629008,52.7992311 38.8102008,52.7992311 C39.9927009,52.7992311 41.0542009,52.3625311 41.8814009,51.5353311 C42.3489009,51.0678311 42.7163009,50.4771311 42.9704009,49.7797311 L43.0914009,49.4464311 L43.3510009,49.6873311 C44.190301,50.4661311 45.260601,50.8951311 46.365001,50.8951311 C47.548601,50.8951311 48.6101011,50.4573311 49.4373011,49.6301311 C51.1170011,47.951531 51.1412011,45.251031 49.4956011,43.4822309 L49.2371011,43.2050309 L49.6001011,43.0961309 C50.2139011,42.9102309 50.8167011,42.5351309 51.3414011,42.0126309 C53.0222011,40.3307309 53.0211011,37.5455308 51.3392011,35.8031308 L48.228401,32.6923307 L48.321901,32.5339307 C50.1897011,29.4209306 50.7650011,26.2034306 50.1325011,22.4084305 L50.1138011,22.2885305 L56.3574012,16.0438303 C56.5543012,15.8722303 56.6610012,15.6489303 56.6701797,15.4069303 L56.6701797,15.4069303 Z" id="Fill-7" fill="#FFFFFF" mask="url(#mask-2)"></path>
                    </g>
                </g>
            </g>
        </g>
    </g>
</svg>