<svg xmlns="http://www.w3.org/2000/svg" width="88.303" height="88.304" viewBox="0 0 88.303 88.304"><g data-name="Group 8392"><g data-name="Group 8386"><path data-name="Path 65055" d="m39.821 39.91.433.072a19.432 19.432 0 0 0-.433 4.171H9.51a6.969 6.969 0 0 1 2.035-4.922l6.625-6.625H9.51a6.968 6.968 0 0 1 2.035-4.922l6.625-6.625H9.51v-1.458a2.791 2.791 0 0 1 1.2-2.28A39.363 39.363 0 0 0 23.354 2.165a2.234 2.234 0 0 1 4.07 0 39.364 39.364 0 0 0 12.644 15.156 2.791 2.791 0 0 1 1.2 2.28v1.458h-8.661l6.625 6.625a6.968 6.968 0 0 1 2.036 4.922h-8.661l6.625 6.625a6.823 6.823 0 0 1 .589.679Z" fill="none" stroke="#eb2127" stroke-miterlimit="10" stroke-width="1.7"/></g><g data-name="Group 8387"><path data-name="Path 65056" d="M70.133 48.482a5.775 5.775 0 0 1-11.158 2.093 19.457 19.457 0 0 0 1.054-6.423 17.951 17.951 0 0 0-2.887-10.1v-1.443a5.716 5.716 0 0 1 2.165-4.474 5.709 5.709 0 0 1-.722-2.743 5.772 5.772 0 0 1 5.773-5.774c.072 0 .13.014.2.014a5.745 5.745 0 0 1 11.143 0c.072 0 .13-.014.2-.014a5.772 5.772 0 0 1 5.774 5.774 5.71 5.71 0 0 1-.722 2.743 5.7 5.7 0 0 1 .78 8.2 5.729 5.729 0 0 1-.447 10.118 5.619 5.619 0 0 1 .39 2.035 5.774 5.774 0 0 1-11.547 0Z" fill="none" stroke="#eb2127" stroke-miterlimit="10" stroke-width="1.7"/></g><g data-name="Group 8388"><path data-name="Path 65057" d="M57.142 34.047a17.951 17.951 0 0 1 2.887 10.1 19.457 19.457 0 0 1-1.054 6.423c-1.66 4.749-5.081 8.011-9.05 8.011-5.586 0-10.1-6.467-10.1-14.434a19.431 19.431 0 0 1 .433-4.171c1.256-5.932 5.109-10.263 9.671-10.263 2.825.001 5.38 1.664 7.213 4.334Z" fill="none" stroke="#eb2127" stroke-miterlimit="10" stroke-width="1.7"/></g><g data-name="Group 8389"><path data-name="Path 65058" d="M69.959 66.12c.086-.028.159-.058.245-.086a4.272 4.272 0 0 1 1.372-.231 4.324 4.324 0 0 1 4.33 4.33H52.812a4.323 4.323 0 0 1 2.915-4.07c0-.086-.029-.173-.029-.26a5.753 5.753 0 0 1 10.787-2.819 4.277 4.277 0 0 1 3.474 3.136Z" fill="none" stroke="#eb2127" stroke-miterlimit="10" stroke-width="1.7"/></g><g data-name="Group 8390"><path data-name="Path 65059" d="M36.935 58.586a5.778 5.778 0 0 1 3.825 10.1l-1.1 1.443H17.132l-1.343-1.443a5.76 5.76 0 0 1 2.4-9.9c0-.072-.015-.13-.015-.2a5.772 5.772 0 0 1 5.773-5.774A5.279 5.279 0 0 1 25.39 53a5.7 5.7 0 0 1 3.565 2.772 6.846 6.846 0 0 1 .765-.073 5.751 5.751 0 0 1 5.182 3.277 5.605 5.605 0 0 1 2.033-.39Z" fill="none" stroke="#eb2127" stroke-miterlimit="10" stroke-width="1.7"/></g><g data-name="Group 8391"><path data-name="Path 65060" d="M67.246 81.68h4.33a2.907 2.907 0 0 1 2.887 2.886 2.9 2.9 0 0 1-2.887 2.887H15.284a2.908 2.908 0 0 1-2.887-2.887 2.9 2.9 0 0 1 2.887-2.886H3.739a2.9 2.9 0 0 1-2.887-2.887 2.909 2.909 0 0 1 2.887-2.887h4.33a2.9 2.9 0 0 0 2.887-2.887 2.908 2.908 0 0 1 2.887-2.887h70.726a2.9 2.9 0 0 1 2.886 2.887 2.906 2.906 0 0 1-2.886 2.887H67.246a2.9 2.9 0 0 0-2.887 2.887 2.909 2.909 0 0 0 2.887 2.887Z" fill="none" stroke="#eb2127" stroke-miterlimit="10" stroke-width="1.7"/></g><path data-name="Line 785" fill="none" stroke="#eb2127" stroke-miterlimit="10" stroke-width="1.7" d="M49.925 42.987v27.146"/><path data-name="Line 786" fill="none" stroke="#eb2127" stroke-miterlimit="10" stroke-width="1.7" d="M25.388 29.414V53"/><path data-name="Line 787" fill="none" stroke="#eb2127" stroke-miterlimit="10" stroke-width="1.7" d="M70.18 42.987V66.12"/></g></svg>