<svg xmlns="http://www.w3.org/2000/svg" width="82.331" height="88.304" viewBox="0 0 82.331 88.304"><g data-name="Group 8385" fill="none" stroke="#eb2127" stroke-width="1.7"><path data-name="Path 65051" d="M37.195 33.465h1.678v-1.678a11.9 11.9 0 0 0-11.9-11.9h-1.678v1.676a11.9 11.9 0 0 0 .54 3.556 11.722 11.722 0 0 0 .444 1.191 11.911 11.911 0 0 0 10.913 7.156Z" stroke-miterlimit="10"/><path data-name="Path 65053" d="M41.075 32.069h-2.2v-2.2a15.582 15.582 0 0 1 6.316-12.541 15.928 15.928 0 0 1 1.516-.994 15.532 15.532 0 0 1 7.775-2.071h2.2v2.2a15.571 15.571 0 0 1-4.686 11.151 15.308 15.308 0 0 1-1.66 1.413 15.53 15.53 0 0 1-9.261 3.042Z" stroke-miterlimit="10"/><g data-name="Group 8384" stroke-miterlimit="10"><path data-name="Rectangle 5376" d="M.85 33.7h20.904v53.754H.85z"/><path data-name="Rectangle 5377" d="M21.754.85h38.822v86.604H21.754z"/><path data-name="Rectangle 5378" d="M30.713 57.59h20.904v29.863H30.713z"/><path data-name="Rectangle 5379" d="M60.576 33.7h20.905v53.754H60.576z"/><g data-name="Group 8382"><path data-name="Rectangle 5380" d="M66.548 39.672h8.959v5.973h-8.959z"/><path data-name="Rectangle 5381" d="M66.548 51.617h8.959v5.973h-8.959z"/><path data-name="Rectangle 5382" d="M66.548 63.562h8.959v5.973h-8.959z"/><path data-name="Rectangle 5383" d="M66.548 75.508h8.959v5.973h-8.959z"/></g><g data-name="Group 8383"><path data-name="Rectangle 5384" d="M6.823 39.672h8.959v5.973H6.823z"/><path data-name="Rectangle 5385" d="M6.823 51.617h8.959v5.973H6.823z"/><path data-name="Rectangle 5386" d="M6.823 63.562h8.959v5.973H6.823z"/><path data-name="Rectangle 5387" d="M6.823 75.508h8.959v5.973H6.823z"/></g><path data-name="Line 784" d="M41.165 57.59v29.863"/></g><path data-name="Path 65051" d="M56.681 14.604 39.41 31.736"/><path data-name="Path 65052" d="m45.993 16.644.784 7.621"/><path data-name="Path 65053" d="m55.373 21.865-5.359-.412"/><path data-name="Path 65054" d="m50.511 28.292-6.76-.638"/><path data-name="Path 65055" d="m25.653 19.889 12.895 13.3"/><path data-name="Path 65056" d="m33.723 21.865-.968 5.291"/><path data-name="Path 65057" d="M25.653 25.584h5.454"/><path data-name="Path 65058" d="m30.172 30.584 5.337-.66"/><path data-name="Path 65059" d="M39.767 32.659v8.984"/></g></svg>