<?xml version="1.0" encoding="UTF-8"?>
<svg width="99px" height="99px" viewBox="0 0 99 99" version="1.1" xmlns="http://www.w3.org/2000/svg" xmlns:xlink="http://www.w3.org/1999/xlink">
    <!-- Generator: Sketch 58 (84663) - https://sketch.com -->
    <title>Group Copy</title>
    <desc>Created with Sketch.</desc>
    <g id="4.0-—-Investors" stroke="none" stroke-width="1" fill="none" fill-rule="evenodd">
        <g id="4.1-—-Investment-case" transform="translate(-291.000000, -2389.000000)">
            <g id="Group-Copy" transform="translate(291.000000, 2389.000000)">
                <circle id="Oval" fill="#01946A" cx="49.5000011" cy="49.5000011" r="49.5000011"></circle>
                <g id="Group-15" transform="translate(25.000000, 24.000000)" stroke="#FFFFFF" stroke-linecap="round" stroke-linejoin="round" stroke-width="1.79217502">
                    <path d="M16.0766981,51.320055 L16.0766981,35.0577648 C16.0766981,29.4471598 20.6266282,24.8982747 26.2372332,24.8982747 L46.8550834,24.8982747" id="Stroke-1"></path>
                    <polyline id="Stroke-3" points="43.0038404 19.6664822 48.2361554 24.8977522 43.0038404 30.1300673"></polyline>
                    <path d="M22.7477692,0.895774008 L32.9083043,11.0563091" id="Stroke-5"></path>
                    <path d="M32.9079908,0.895774008 L22.7474557,11.0563091" id="Stroke-7"></path>
                    <path d="M35.2438793,40.9431004 L45.4044144,51.1036355" id="Stroke-9"></path>
                    <path d="M45.4041009,40.9431004 L35.2435658,51.1036355" id="Stroke-11"></path>
                    <path d="M11.0557866,18.5816677 C11.0557866,21.3874927 8.78186658,23.6614127 5.97604155,23.6614127 C3.17021653,23.6614127 0.895251508,21.3874927 0.895251508,18.5816677 C0.895251508,15.7758426 3.17021653,13.5019226 5.97604155,13.5019226 C8.78186658,13.5019226 11.0557866,15.7758426 11.0557866,18.5816677 Z" id="Stroke-13"></path>
                </g>
            </g>
        </g>
    </g>
</svg>